<svg xmlns="http://www.w3.org/2000/svg" xmlns:xlink="http://www.w3.org/1999/xlink" preserveAspectRatio="xMidYMid" width="22" height="22" viewBox="0 0 22 22">
    <path d="M19.756,11.955 C19.756,11.955 18.326,11.955 18.326,11.955 C18.326,14.639 15.513,17.951 11.923,18.348 C11.923,18.348 11.923,9.096 11.923,9.096 C11.923,9.096 14.783,9.096 14.783,9.096 C14.783,9.096 14.783,7.666 14.783,7.666 C14.783,7.666 11.923,7.666 11.923,7.666 C11.923,7.666 11.923,5.419 11.923,5.419 C13.153,5.100 14.068,3.990 14.068,2.661 C14.068,1.085 12.786,-0.198 11.209,-0.198 C9.631,-0.198 8.349,1.085 8.349,2.661 C8.349,3.990 9.264,5.100 10.494,5.419 C10.494,5.419 10.494,7.666 10.494,7.666 C10.494,7.666 7.634,7.666 7.634,7.666 C7.634,7.666 7.634,9.096 7.634,9.096 C7.634,9.096 10.494,9.096 10.494,9.096 C10.494,9.096 10.494,18.348 10.494,18.348 C6.904,17.951 4.091,14.639 4.091,11.955 C4.091,11.955 2.662,11.955 2.662,11.955 C2.662,16.025 6.115,19.444 10.494,19.784 C10.494,19.784 10.494,21.964 10.494,21.964 C10.494,21.964 11.923,21.964 11.923,21.964 C11.923,21.964 11.923,19.784 11.923,19.784 C16.302,19.444 19.756,16.025 19.756,11.955 ZM9.779,2.661 C9.779,1.872 10.420,1.231 11.209,1.231 C11.997,1.231 12.638,1.872 12.638,2.661 C12.638,3.450 11.997,4.091 11.209,4.091 C10.420,4.091 9.779,3.450 9.779,2.661 Z" id="path-1" class="cls-4" fill-rule="evenodd"/>
</svg>
