<svg xmlns="http://www.w3.org/2000/svg" width="22" height="22" preserveAspectRatio="xMidYMid" viewBox="0 0 22 22"><path fill-rule="evenodd" d="M19.756 11.955h-1.43c0 2.684-2.813 5.996-6.403 6.393V9.096h2.86v-1.43h-2.86V5.42a2.856 2.856 0 0 0 2.145-2.76 2.862 2.862 0 0 0-2.86-2.858 2.862 2.862 0 0 0-2.86 2.86c0 1.328.916 2.438 2.146 2.757v2.246h-2.86v1.43h2.86v9.252c-3.59-.397-6.403-3.71-6.403-6.393H2.663c0 4.07 3.453 7.49 7.832 7.83v2.18h1.43v-2.18c4.378-.34 7.832-3.76 7.832-7.83zM9.78 2.66c0-.788.64-1.43 1.43-1.43a1.43 1.43 0 0 1 0 2.86c-.79 0-1.43-.64-1.43-1.43z" class="cls-4"/></svg>