<svg xmlns="http://www.w3.org/2000/svg" xmlns:xlink="http://www.w3.org/1999/xlink" preserveAspectRatio="xMidYMid" width="22" height="22" viewBox="0 0 22 22">
    <path d="M19.091,11.185 C15.800,11.185 15.906,8.674 15.906,8.674 C15.906,8.674 15.904,9.613 15.269,10.312 C15.269,10.312 15.269,16.289 15.269,16.289 C15.269,16.289 6.351,16.289 6.351,16.289 C6.351,16.289 6.351,10.268 6.351,10.268 C5.758,9.579 5.753,8.689 5.753,8.689 C5.753,8.689 5.859,11.192 2.568,11.192 C-0.019,11.192 0.019,7.370 0.019,7.370 C0.019,7.370 1.297,1.000 1.297,1.000 C1.297,1.000 20.362,1.000 20.362,1.000 C20.362,1.000 21.639,7.367 21.639,7.367 C21.639,7.367 21.560,11.185 19.091,11.185 ZM7.625,15.015 C7.625,15.015 13.995,15.015 13.995,15.015 C13.995,15.015 13.995,10.977 13.995,10.977 C13.793,11.017 13.590,11.056 13.343,11.056 C11.259,11.056 10.895,9.441 10.829,8.862 C10.764,9.441 10.400,11.056 8.316,11.056 C8.054,11.056 7.836,11.018 7.625,10.973 C7.625,10.973 7.625,15.015 7.625,15.015 ZM19.091,2.274 C19.091,2.274 2.529,2.274 2.529,2.274 C2.529,2.274 1.255,7.370 1.255,7.370 C1.255,8.485 1.533,10.078 2.529,10.078 C4.617,10.078 4.487,8.731 4.546,8.500 C4.671,7.907 5.174,7.459 5.770,7.459 C5.809,7.459 5.838,7.441 5.878,7.444 C6.521,7.503 7.014,8.032 7.032,8.678 C7.039,8.965 7.103,9.278 7.296,9.519 C7.296,9.519 7.488,9.696 7.488,9.696 C7.680,9.834 7.946,9.923 8.318,9.923 C9.332,9.923 9.561,9.217 9.576,8.662 C9.576,7.966 10.134,7.372 10.829,7.371 C11.525,7.372 12.083,7.966 12.083,8.662 C12.098,9.217 12.327,9.923 13.341,9.923 C13.652,9.923 13.884,9.858 14.067,9.757 C14.067,9.757 14.420,9.430 14.420,9.430 C14.565,9.204 14.620,8.932 14.627,8.678 C14.645,8.032 15.138,7.503 15.781,7.444 C15.820,7.441 15.850,7.459 15.889,7.459 C16.484,7.459 16.987,7.907 17.113,8.500 C17.172,8.731 17.003,10.078 19.091,10.078 C20.087,10.078 20.365,8.485 20.365,7.370 C20.365,7.370 19.091,2.274 19.091,2.274 ZM3.803,18.200 C3.803,18.551 4.088,18.837 4.440,18.837 C4.440,18.837 17.180,18.837 17.180,18.837 C17.532,18.837 17.817,18.551 17.817,18.200 C17.817,18.200 17.817,11.192 17.817,11.192 C17.817,11.192 19.091,11.192 19.091,11.192 C19.091,11.192 19.091,18.837 19.091,18.837 C19.091,19.540 18.521,20.111 17.817,20.111 C17.817,20.111 3.803,20.111 3.803,20.111 C3.099,20.111 2.529,19.540 2.529,18.837 C2.529,18.837 2.529,11.192 2.529,11.192 C2.529,11.192 2.568,11.192 2.568,11.192 C2.568,11.192 3.803,11.192 3.803,11.192 C3.803,11.192 3.803,18.200 3.803,18.200 Z" id="path-1" class="cls-4" fill-rule="evenodd"/>
</svg>
