<svg xmlns="http://www.w3.org/2000/svg" width="22" height="22" preserveAspectRatio="xMidYMid" viewBox="0 0 22 22"><path fill-rule="evenodd" d="M19.09 11.185c-3.29 0-3.184-2.51-3.184-2.51s-.002.938-.637 1.637v5.977H6.35v-6.022c-.592-.69-.597-1.58-.597-1.58s.106 2.504-3.185 2.504C-.02 11.192.018 7.37.018 7.37L1.3 1H20.36l1.277 6.367s-.08 3.818-2.55 3.818zm-11.465 3.83h6.37v-4.038c-.202.04-.405.08-.652.08-2.084 0-2.448-1.616-2.514-2.195-.066.58-.43 2.194-2.514 2.194-.262 0-.48-.038-.69-.083v4.042zM19.09 2.275H2.53L1.254 7.37c0 1.115.278 2.708 1.274 2.708 2.087 0 1.957-1.347 2.016-1.578.125-.593.628-1.04 1.224-1.04.04 0 .068-.02.108-.016a1.27 1.27 0 0 1 1.154 1.234c.007.287.07.6.264.84l.192.178c.192.138.458.227.83.227 1.014 0 1.243-.706 1.258-1.26 0-.697.558-1.29 1.253-1.292.695.002 1.253.596 1.253 1.292.015.555.244 1.26 1.258 1.26.312 0 .544-.064.727-.165l.353-.327c.145-.226.2-.498.207-.752a1.27 1.27 0 0 1 1.154-1.234c.04-.003.07.015.11.015.594 0 1.097.447 1.223 1.04.06.23-.11 1.578 1.978 1.578.997 0 1.275-1.593 1.275-2.708L19.09 2.274zM3.804 18.2c0 .35.285.637.637.637h12.74a.637.637 0 0 0 .637-.637v-7.008h1.274v7.645c0 .703-.57 1.274-1.273 1.274H3.803c-.704 0-1.274-.57-1.274-1.273v-7.645H3.802V18.2z" class="cls-4"/></svg>