<svg xmlns="http://www.w3.org/2000/svg" xmlns:xlink="http://www.w3.org/1999/xlink" preserveAspectRatio="xMidYMid" width="22" height="22" viewBox="0 0 22 22">
    <path d="M11.000,21.966 C4.953,21.966 0.034,17.047 0.034,11.000 C0.034,4.953 4.953,0.034 11.000,0.034 C17.047,0.034 21.966,4.953 21.966,11.000 C21.966,17.047 17.047,21.966 11.000,21.966 ZM11.000,1.496 C5.760,1.496 1.496,5.760 1.496,11.000 C1.496,16.240 5.760,20.504 11.000,20.504 C16.240,20.504 20.504,16.240 20.504,11.000 C20.504,5.760 16.240,1.496 11.000,1.496 ZM8.076,6.614 C8.076,6.614 15.386,11.175 15.386,11.175 C15.386,11.175 8.076,15.386 8.076,15.386 C8.076,15.386 8.076,6.614 8.076,6.614 ZM9.538,12.462 C9.538,12.462 12.462,11.000 12.462,11.000 C12.462,11.000 9.538,9.652 9.538,9.652 C9.538,9.652 9.538,12.462 9.538,12.462 Z" id="path-1" class="cls-4" fill-rule="evenodd"/>
</svg>
