<svg xmlns="http://www.w3.org/2000/svg" width="22" height="22" preserveAspectRatio="xMidYMid" viewBox="0 0 22 22"><path fill-rule="evenodd" d="M18.706 16.328h-4.773l-7.09 4.216a.723.723 0 0 1-.723.007.72.72 0 0 1-.364-.625v-3.597H2.878A2.877 2.877 0 0 1 0 13.45V3.378A2.877 2.877 0 0 1 2.878.5h15.828a2.878 2.878 0 0 1 2.878 2.878V13.45c0 1.59-1.29 2.878-2.878 2.878zm1.44-12.95a1.44 1.44 0 0 0-1.44-1.44H2.878a1.44 1.44 0 0 0-1.44 1.44V13.45c0 .795.645 1.44 1.44 1.44h3.597a.72.72 0 0 1 .72.72v3.05l6.173-3.67.37-.1h4.968a1.44 1.44 0 0 0 1.44-1.44V3.378zM5.755 9.134h10.072v1.438H5.756V9.134zm0-2.878h5.755v1.44H5.757v-1.44z" class="cls-4"/></svg>