<svg xmlns="http://www.w3.org/2000/svg" xmlns:xlink="http://www.w3.org/1999/xlink" preserveAspectRatio="xMidYMid" width="22" height="22" viewBox="0 0 22 22">
    <path d="M18.706,16.328 C18.706,16.328 13.933,16.328 13.933,16.328 C13.933,16.328 6.843,20.544 6.843,20.544 C6.730,20.611 6.602,20.645 6.475,20.645 C6.352,20.645 6.230,20.613 6.120,20.551 C5.895,20.423 5.756,20.184 5.756,19.925 C5.756,19.925 5.756,16.328 5.756,16.328 C5.756,16.328 2.878,16.328 2.878,16.328 C1.288,16.328 0.000,15.040 0.000,13.450 C0.000,13.450 0.000,3.378 0.000,3.378 C0.000,1.788 1.288,0.500 2.878,0.500 C2.878,0.500 18.706,0.500 18.706,0.500 C20.295,0.500 21.584,1.788 21.584,3.378 C21.584,3.378 21.584,13.450 21.584,13.450 C21.584,15.040 20.295,16.328 18.706,16.328 ZM20.145,3.378 C20.145,2.583 19.501,1.939 18.706,1.939 C18.706,1.939 2.878,1.939 2.878,1.939 C2.083,1.939 1.439,2.583 1.439,3.378 C1.439,3.378 1.439,13.450 1.439,13.450 C1.439,14.245 2.083,14.889 2.878,14.889 C2.878,14.889 6.475,14.889 6.475,14.889 C6.872,14.889 7.195,15.211 7.195,15.609 C7.195,15.609 7.195,18.661 7.195,18.661 C7.195,18.661 13.368,14.990 13.368,14.990 C13.493,14.956 13.611,14.924 13.737,14.889 C13.737,14.889 18.706,14.889 18.706,14.889 C19.501,14.889 20.145,14.245 20.145,13.450 C20.145,13.450 20.145,3.378 20.145,3.378 ZM5.756,9.134 C5.756,9.134 15.828,9.134 15.828,9.134 C15.828,9.134 15.828,10.572 15.828,10.572 C15.828,10.572 5.756,10.572 5.756,10.572 C5.756,10.572 5.756,9.134 5.756,9.134 ZM5.756,6.256 C5.756,6.256 11.511,6.256 11.511,6.256 C11.511,6.256 11.511,7.695 11.511,7.695 C11.511,7.695 5.756,7.695 5.756,7.695 C5.756,7.695 5.756,6.256 5.756,6.256 Z" id="path-1" class="cls-4" fill-rule="evenodd"/>
</svg>
