<svg xmlns="http://www.w3.org/2000/svg" xmlns:xlink="http://www.w3.org/1999/xlink" preserveAspectRatio="xMidYMid" width="22" height="22" viewBox="0 0 22 22">
    <path d="M17.897,5.480 C17.603,4.792 16.921,4.309 16.127,4.309 C16.127,4.309 2.668,4.309 2.668,4.309 C1.252,4.309 0.104,5.457 0.104,6.873 C0.104,6.873 0.104,14.564 0.104,14.564 C0.104,14.564 4.746,19.691 4.746,19.691 C4.746,19.691 19.332,19.691 19.332,19.691 C20.748,19.691 21.896,18.543 21.896,17.127 C21.896,17.127 21.896,9.436 21.896,9.436 C21.896,9.436 17.897,5.480 17.897,5.480 ZM1.386,6.873 C1.386,6.165 1.960,5.591 2.668,5.591 C2.668,5.591 16.768,5.591 16.768,5.591 C16.768,5.591 16.768,13.282 16.768,13.282 C16.768,13.990 16.194,14.564 15.486,14.564 C15.486,14.564 1.386,14.564 1.386,14.564 C1.386,14.564 1.386,6.873 1.386,6.873 ZM20.614,17.127 C20.614,17.835 20.040,18.409 19.332,18.409 C19.332,18.409 5.248,18.409 5.248,18.409 C5.248,18.409 2.505,15.845 2.505,15.845 C2.505,15.845 15.486,15.845 15.486,15.845 C16.902,15.845 18.050,14.698 18.050,13.282 C18.050,13.282 18.050,6.873 18.050,6.873 C18.050,6.873 20.614,9.436 20.614,9.436 C20.614,9.436 20.614,17.127 20.614,17.127 Z" id="path-1" class="cls-4" fill-rule="evenodd"/>
</svg>
