<svg xmlns="http://www.w3.org/2000/svg" width="22" height="22" preserveAspectRatio="xMidYMid" viewBox="0 0 22 22"><path fill-rule="evenodd" d="M17.897 5.48a1.926 1.926 0 0 0-1.77-1.17H2.667A2.564 2.564 0 0 0 .105 6.872v7.69l4.642 5.128h14.586a2.564 2.564 0 0 0 2.564-2.563v-7.69l-4-3.957zM1.387 6.873c0-.708.573-1.282 1.28-1.282h14.1v7.692c0 .708-.573 1.282-1.28 1.282h-14.1v-7.69zm19.227 10.254c0 .708-.574 1.282-1.282 1.282H5.248l-2.743-2.565h12.98a2.563 2.563 0 0 0 2.565-2.563v-6.41l2.564 2.564v7.69z" class="cls-4"/></svg>