<svg xmlns="http://www.w3.org/2000/svg" xmlns:xlink="http://www.w3.org/1999/xlink" preserveAspectRatio="xMidYMid" width="22" height="22" viewBox="0 0 22 22">
    <path d="M21.883,3.745 C21.883,2.543 20.908,1.568 19.706,1.568 C19.706,1.568 2.294,1.568 2.294,1.568 C1.092,1.568 0.117,2.543 0.117,3.745 C0.117,3.745 0.117,18.255 0.117,18.255 C0.117,19.457 1.092,20.432 2.294,20.432 C2.294,20.432 19.706,20.432 19.706,20.432 C20.908,20.432 21.883,19.457 21.883,18.255 C21.883,18.255 21.883,3.745 21.883,3.745 ZM20.085,3.020 C20.085,3.020 11.045,9.772 11.045,9.772 C11.045,9.772 1.963,3.020 1.963,3.020 C1.963,3.020 20.085,3.020 20.085,3.020 ZM19.706,18.981 C19.706,18.981 2.294,18.981 2.294,18.981 C1.893,18.981 1.568,18.048 1.568,17.649 C1.568,17.649 1.568,3.476 1.568,3.476 C1.568,3.476 10.739,10.390 10.739,10.390 C10.830,10.459 10.938,10.492 11.045,10.492 C11.152,10.492 11.261,10.458 11.351,10.390 C11.351,10.390 20.431,3.544 20.431,3.544 C20.431,3.544 20.431,17.648 20.431,17.648 C20.431,18.047 20.107,18.980 19.706,18.980 C19.706,18.980 19.706,18.981 19.706,18.981 Z" id="path-1" class="cls-4" fill-rule="evenodd"/>
</svg>
