<svg xmlns="http://www.w3.org/2000/svg" width="22" height="22" preserveAspectRatio="xMidYMid" viewBox="0 0 22 22"><path fill-rule="evenodd" d="M19.57 21.908h-3.895V20.35h3.896c.43 0 .78-.35.78-.78v-3.895h1.558v3.896a2.34 2.34 0 0 1-2.337 2.338zm.78-14.025h1.558v6.234H20.35V7.883zm0-5.454a.78.78 0 0 0-.78-.78h-3.895V.092h3.896A2.34 2.34 0 0 1 21.91 2.43v3.895H20.35V2.43zM7.883 20.35h6.234v1.558H7.883V20.35zm0-20.258h6.234V1.65H7.883V.092zm-7.79 19.48v-3.897H1.65v3.896c0 .43.35.78.78.78h3.895v1.558H2.43A2.34 2.34 0 0 1 .09 19.57zM1.65 2.428v3.895H.092V2.43A2.34 2.34 0 0 1 2.43.09h3.895V1.65H2.43a.78.78 0 0 0-.78.78zm0 11.687H.092V7.883H1.65v6.234z" class="cls-4"/></svg>