<svg xmlns="http://www.w3.org/2000/svg" xmlns:xlink="http://www.w3.org/1999/xlink" preserveAspectRatio="xMidYMid" width="22" height="22" viewBox="0 0 22 22">
    <path d="M19.571,21.908 C19.571,21.908 15.675,21.908 15.675,21.908 C15.675,21.908 15.675,20.350 15.675,20.350 C15.675,20.350 19.571,20.350 19.571,20.350 C20.001,20.350 20.350,20.001 20.350,19.571 C20.350,19.571 20.350,15.675 20.350,15.675 C20.350,15.675 21.908,15.675 21.908,15.675 C21.908,15.675 21.908,19.571 21.908,19.571 C21.908,20.859 20.859,21.908 19.571,21.908 ZM20.350,7.883 C20.350,7.883 21.908,7.883 21.908,7.883 C21.908,7.883 21.908,14.117 21.908,14.117 C21.908,14.117 20.350,14.117 20.350,14.117 C20.350,14.117 20.350,7.883 20.350,7.883 ZM20.350,2.429 C20.350,1.999 20.001,1.650 19.571,1.650 C19.571,1.650 15.675,1.650 15.675,1.650 C15.675,1.650 15.675,0.092 15.675,0.092 C15.675,0.092 19.571,0.092 19.571,0.092 C20.859,0.092 21.908,1.141 21.908,2.429 C21.908,2.429 21.908,6.325 21.908,6.325 C21.908,6.325 20.350,6.325 20.350,6.325 C20.350,6.325 20.350,2.429 20.350,2.429 ZM7.883,20.350 C7.883,20.350 14.117,20.350 14.117,20.350 C14.117,20.350 14.117,21.908 14.117,21.908 C14.117,21.908 7.883,21.908 7.883,21.908 C7.883,21.908 7.883,20.350 7.883,20.350 ZM7.883,0.092 C7.883,0.092 14.117,0.092 14.117,0.092 C14.117,0.092 14.117,1.650 14.117,1.650 C14.117,1.650 7.883,1.650 7.883,1.650 C7.883,1.650 7.883,0.092 7.883,0.092 ZM0.092,19.571 C0.092,19.571 0.092,15.675 0.092,15.675 C0.092,15.675 1.650,15.675 1.650,15.675 C1.650,15.675 1.650,19.571 1.650,19.571 C1.650,20.001 1.999,20.350 2.429,20.350 C2.429,20.350 6.325,20.350 6.325,20.350 C6.325,20.350 6.325,21.908 6.325,21.908 C6.325,21.908 2.429,21.908 2.429,21.908 C1.141,21.908 0.092,20.859 0.092,19.571 ZM1.650,2.429 C1.650,2.429 1.650,6.325 1.650,6.325 C1.650,6.325 0.092,6.325 0.092,6.325 C0.092,6.325 0.092,2.429 0.092,2.429 C0.092,1.141 1.141,0.092 2.429,0.092 C2.429,0.092 6.325,0.092 6.325,0.092 C6.325,0.092 6.325,1.650 6.325,1.650 C6.325,1.650 2.429,1.650 2.429,1.650 C1.999,1.650 1.650,1.999 1.650,2.429 ZM1.650,14.117 C1.650,14.117 0.092,14.117 0.092,14.117 C0.092,14.117 0.092,7.883 0.092,7.883 C0.092,7.883 1.650,7.883 1.650,7.883 C1.650,7.883 1.650,14.117 1.650,14.117 Z" id="path-1" class="cls-4" fill-rule="evenodd"/>
</svg>
