<svg xmlns="http://www.w3.org/2000/svg" xmlns:xlink="http://www.w3.org/1999/xlink" preserveAspectRatio="xMidYMid" width="22" height="22" viewBox="0 0 22 22">
    <path d="M20.994,7.305 C20.994,7.305 13.689,0.000 13.689,0.000 C13.689,0.000 4.922,0.000 4.922,0.000 C3.308,0.000 2.000,1.308 2.000,2.922 C2.000,2.922 2.000,18.994 2.000,18.994 C2.000,20.609 3.308,21.916 4.922,21.916 C4.922,21.916 18.072,21.916 18.072,21.916 C19.687,21.916 20.994,20.609 20.994,18.994 C20.994,18.994 20.994,7.305 20.994,7.305 ZM13.689,2.916 C13.689,2.916 18.084,7.305 18.084,7.305 C18.084,7.305 13.689,7.305 13.689,7.305 C13.689,7.305 13.689,2.916 13.689,2.916 ZM18.072,20.455 C18.072,20.455 4.922,20.455 4.922,20.455 C4.116,20.455 3.461,19.801 3.461,18.994 C3.461,18.994 3.461,2.922 3.461,2.922 C3.461,2.116 4.116,1.461 4.922,1.461 C4.922,1.461 12.228,1.461 12.228,1.461 C12.228,1.461 12.228,8.036 12.228,8.036 C12.228,8.439 12.555,8.767 12.958,8.767 C12.958,8.767 19.533,8.767 19.533,8.767 C19.533,8.767 19.533,18.994 19.533,18.994 C19.533,19.801 18.879,20.455 18.072,20.455 Z" id="path-1" class="cls-4" fill-rule="evenodd"/>
</svg>
