<svg xmlns="http://www.w3.org/2000/svg" xmlns:xlink="http://www.w3.org/1999/xlink" preserveAspectRatio="xMidYMid" width="22" height="22" viewBox="0 0 22 22">
    <path d="M18.314,21.240 C18.314,21.240 3.686,21.240 3.686,21.240 C1.670,21.240 0.028,19.599 0.028,17.583 C0.028,17.583 0.028,12.463 0.028,12.463 C0.028,12.463 1.491,12.463 1.491,12.463 C1.491,12.463 1.491,17.583 1.491,17.583 C1.491,18.793 2.476,19.777 3.686,19.777 C3.686,19.777 18.314,19.777 18.314,19.777 C19.524,19.777 20.509,18.793 20.509,17.583 C20.509,17.583 20.509,12.463 20.509,12.463 C20.509,12.463 21.972,12.463 21.972,12.463 C21.972,12.463 21.972,17.583 21.972,17.583 C21.972,19.599 20.330,21.240 18.314,21.240 ZM5.467,9.898 C5.467,9.898 6.292,9.068 6.292,9.068 C6.292,9.068 10.269,13.014 10.269,13.014 C10.269,13.014 10.269,0.760 10.269,0.760 C10.269,0.760 11.731,0.760 11.731,0.760 C11.731,0.760 11.731,13.014 11.731,13.014 C11.731,13.014 15.708,9.068 15.708,9.068 C15.708,9.068 16.533,9.898 16.533,9.898 C16.533,9.898 11.000,15.389 11.000,15.389 C11.000,15.389 5.467,9.898 5.467,9.898 Z" id="path-1" class="cls-4" fill-rule="evenodd"/>
</svg>
