<svg xmlns="http://www.w3.org/2000/svg" width="22" height="22" preserveAspectRatio="xMidYMid" viewBox="0 0 22 22"><path fill-rule="evenodd" d="M13.003 7.01V5.543c0-.64.08-1.073.933-1.073h2.874V.27l-.502-.064A24.512 24.512 0 0 0 13.714.07c-3.99 0-5.786 2.617-5.786 5.05v1.89H5.39v5.074H7.93v10.15h5.075v-10.15h3.807V7.01h-3.807zm2.647 3.805h-3.915v10.15H9.197v-10.15H6.66V8.277h2.537V5.12c0-1.883 1.403-3.783 4.537-3.783.756 0 1.447.042 1.904.077l-.01 1.78a263.65 263.65 0 0 0-1.692-.007c-1.46 0-2.2.93-2.2 2.357v2.733h4.022l-.108 2.538z" class="cls-4"/></svg>