<svg xmlns="http://www.w3.org/2000/svg" xmlns:xlink="http://www.w3.org/1999/xlink" preserveAspectRatio="xMidYMid" width="22" height="22" viewBox="0 0 22 22">
    <path d="M13.003,7.009 C13.003,7.009 13.003,5.544 13.003,5.544 C13.003,4.904 13.084,4.471 13.936,4.471 C15.076,4.471 16.810,4.471 16.810,4.471 C16.810,4.471 16.810,0.271 16.810,0.271 C16.810,0.271 16.308,0.206 16.308,0.206 C16.260,0.200 15.122,0.069 13.714,0.069 C9.725,0.069 7.928,2.687 7.928,5.119 C7.928,5.119 7.928,7.009 7.928,7.009 C7.928,7.009 5.391,7.009 5.391,7.009 C5.391,7.009 5.391,12.084 5.391,12.084 C5.391,12.084 7.928,12.084 7.928,12.084 C7.928,12.084 7.928,22.233 7.928,22.233 C7.928,22.233 13.003,22.233 13.003,22.233 C13.003,22.233 13.003,12.084 13.003,12.084 C13.003,12.084 16.810,12.084 16.810,12.084 C16.810,12.084 16.810,7.009 16.810,7.009 C16.810,7.009 13.003,7.009 13.003,7.009 ZM15.650,10.815 C15.650,10.815 11.735,10.815 11.735,10.815 C11.735,10.815 11.735,20.965 11.735,20.965 C11.735,20.965 9.197,20.965 9.197,20.965 C9.197,20.965 9.197,10.815 9.197,10.815 C9.197,10.815 6.660,10.815 6.660,10.815 C6.660,10.815 6.660,8.277 6.660,8.277 C6.660,8.277 9.197,8.277 9.197,8.277 C9.197,8.277 9.197,5.119 9.197,5.119 C9.197,3.237 10.600,1.337 13.734,1.337 C14.490,1.337 15.181,1.379 15.638,1.414 C15.638,1.414 15.628,3.193 15.628,3.193 C15.180,3.190 14.553,3.187 13.936,3.187 C12.476,3.187 11.735,4.117 11.735,5.544 C11.735,5.544 11.735,8.277 11.735,8.277 C11.735,8.277 15.758,8.277 15.758,8.277 C15.758,8.277 15.650,10.815 15.650,10.815 Z" id="path-1" class="cls-4" fill-rule="evenodd"/>
</svg>
