<svg xmlns="http://www.w3.org/2000/svg" xmlns:xlink="http://www.w3.org/1999/xlink" preserveAspectRatio="xMidYMid" width="22" height="22" viewBox="0 0 22 22">
    <path d="M19.725,0.245 C18.679,0.245 15.156,0.726 12.750,2.784 C11.007,4.275 9.995,7.015 9.018,9.632 C8.429,11.210 7.873,12.773 7.212,13.830 C6.495,14.974 5.417,15.961 4.958,16.060 C4.424,16.174 3.355,16.499 2.987,16.499 C2.987,16.499 2.278,16.499 2.278,16.499 C2.278,16.499 2.281,21.758 2.281,21.758 C2.281,21.758 3.172,21.507 3.172,21.507 C4.323,21.507 8.305,21.227 11.258,17.619 C12.839,15.683 13.591,14.330 13.910,13.660 C13.910,13.660 19.304,13.660 19.304,13.660 C19.304,13.660 19.304,7.986 19.304,7.986 C19.304,7.986 16.100,7.986 16.100,7.986 C16.534,7.046 17.590,5.649 20.022,5.618 C20.022,5.618 20.722,5.609 20.722,5.609 C20.722,5.609 20.722,0.975 20.722,0.975 C20.722,0.749 20.626,0.242 19.725,0.242 C19.725,0.242 19.725,0.245 19.725,0.245 ZM19.303,4.242 C15.984,4.604 14.657,7.179 14.419,8.578 C14.419,8.578 14.278,9.406 14.278,9.406 C14.278,9.406 17.885,9.406 17.885,9.406 C17.885,9.406 17.885,12.244 17.885,12.244 C17.885,12.244 12.941,12.247 12.941,12.247 C12.941,12.247 12.773,12.721 12.773,12.721 C12.768,12.735 12.251,14.162 10.158,16.723 C7.942,19.433 4.986,19.966 3.697,20.067 C3.697,20.067 3.697,17.307 3.697,17.307 C4.183,17.288 4.811,17.247 5.256,17.151 C6.216,16.947 7.575,15.779 8.415,14.436 C9.153,13.258 9.733,11.702 10.349,10.057 C11.262,7.610 12.207,5.079 13.673,3.825 C15.471,2.288 18.047,1.789 19.304,1.675 C19.304,1.675 19.304,4.242 19.304,4.242 C19.304,4.242 19.303,4.242 19.303,4.242 Z" id="path-1" class="cls-4" fill-rule="evenodd"/>
</svg>
