<svg xmlns="http://www.w3.org/2000/svg" width="22" height="22" preserveAspectRatio="xMidYMid" viewBox="0 0 22 22"><path fill-rule="evenodd" d="M19.725.245c-1.046 0-4.57.48-6.975 2.54-1.743 1.49-2.755 4.23-3.732 6.847-.59 1.578-1.145 3.14-1.806 4.198-.717 1.144-1.795 2.13-2.254 2.23-.534.114-1.603.44-1.97.44h-.71l.003 5.258.892-.25c1.15 0 5.133-.28 8.086-3.89 1.58-1.935 2.333-3.288 2.652-3.958h5.394V7.986H16.1c.434-.94 1.49-2.337 3.922-2.368l.7-.01V.976c0-.226-.096-.733-.997-.733v.003zm-.422 3.997c-3.32.362-4.646 2.937-4.884 4.336l-.142.828h3.607v2.838l-4.944.003-.167.474c-.005.015-.522 1.442-2.615 4.003-2.216 2.71-5.172 3.243-6.46 3.344v-2.76c.485-.02 1.113-.06 1.558-.156.96-.203 2.32-1.37 3.16-2.714.737-1.178 1.317-2.734 1.933-4.38.912-2.446 1.857-4.977 3.323-6.23 1.798-1.538 4.374-2.037 5.63-2.15V4.24z" class="cls-4"/></svg>