<svg xmlns="http://www.w3.org/2000/svg" width="22" height="22" preserveAspectRatio="xMidYMid" viewBox="0 0 22 22"><path fill-rule="evenodd" d="M16.48 15.51a4.754 4.754 0 1 1 4.756-4.755 4.754 4.754 0 0 1-4.755 4.754zm0-8.15a3.4 3.4 0 0 0-3.395 3.395 3.4 3.4 0 0 0 3.396 3.396 3.4 3.4 0 0 0 3.397-3.395A3.4 3.4 0 0 0 16.48 7.36zM4.256 15.51a4.754 4.754 0 1 1 0-9.51 4.754 4.754 0 0 1 0 9.51zm0-8.15a3.4 3.4 0 0 0-3.397 3.395 3.4 3.4 0 0 0 3.397 3.396 3.4 3.4 0 0 0 3.396-3.395A3.4 3.4 0 0 0 4.256 7.36z" class="cls-4"/></svg>