<svg xmlns="http://www.w3.org/2000/svg" xmlns:xlink="http://www.w3.org/1999/xlink" preserveAspectRatio="xMidYMid" width="22" height="22" viewBox="0 0 22 22">
    <path d="M16.481,15.509 C13.855,15.509 11.726,13.381 11.726,10.755 C11.726,8.129 13.855,6.000 16.481,6.000 C19.107,6.000 21.236,8.129 21.236,10.755 C21.236,13.381 19.107,15.509 16.481,15.509 ZM16.481,7.359 C14.608,7.359 13.085,8.882 13.085,10.755 C13.085,12.627 14.608,14.151 16.481,14.151 C18.354,14.151 19.877,12.627 19.877,10.755 C19.877,8.882 18.354,7.359 16.481,7.359 ZM4.255,15.509 C1.629,15.509 -0.500,13.381 -0.500,10.755 C-0.500,8.129 1.629,6.000 4.255,6.000 C6.881,6.000 9.009,8.129 9.009,10.755 C9.009,13.381 6.881,15.509 4.255,15.509 ZM4.255,7.359 C2.382,7.359 0.858,8.882 0.858,10.755 C0.858,12.627 2.382,14.151 4.255,14.151 C6.127,14.151 7.651,12.627 7.651,10.755 C7.651,8.882 6.127,7.359 4.255,7.359 Z" id="path-1" class="cls-4" fill-rule="evenodd"/>
</svg>
