<svg xmlns="http://www.w3.org/2000/svg" xmlns:xlink="http://www.w3.org/1999/xlink" preserveAspectRatio="xMidYMid" width="22" height="22" viewBox="0 0 22 22">
    <path d="M18.840,19.339 C18.840,19.339 2.597,19.339 2.597,19.339 C1.102,19.339 -0.110,18.127 -0.110,16.632 C-0.110,16.632 -0.110,4.449 -0.110,4.449 C-0.110,2.954 1.102,1.742 2.597,1.742 C2.597,1.742 18.840,1.742 18.840,1.742 C20.335,1.742 21.548,2.954 21.548,4.449 C21.548,4.449 21.548,16.632 21.548,16.632 C21.548,18.127 20.335,19.339 18.840,19.339 ZM18.840,17.985 C19.014,17.985 19.178,17.946 19.331,17.886 C19.331,17.886 15.838,14.204 15.838,14.204 C15.838,14.204 16.133,13.925 16.133,13.925 C16.133,13.925 12.632,13.925 12.632,13.925 C12.632,13.925 16.259,17.749 16.259,17.749 C16.259,17.749 16.009,17.985 16.009,17.985 C16.009,17.985 18.840,17.985 18.840,17.985 ZM15.364,17.985 C15.364,17.985 11.777,14.204 11.777,14.204 C11.777,14.204 12.072,13.925 12.072,13.925 C12.072,13.925 8.571,13.925 8.571,13.925 C8.571,13.925 12.198,17.749 12.198,17.749 C12.198,17.749 11.948,17.985 11.948,17.985 C11.948,17.985 15.364,17.985 15.364,17.985 ZM11.304,17.985 C11.304,17.985 7.717,14.204 7.717,14.204 C7.717,14.204 8.011,13.925 8.011,13.925 C8.011,13.925 4.510,13.925 4.510,13.925 C4.510,13.925 8.137,17.749 8.137,17.749 C8.137,17.749 7.887,17.985 7.887,17.985 C7.887,17.985 11.304,17.985 11.304,17.985 ZM3.656,14.204 C3.656,14.204 3.951,13.925 3.951,13.925 C3.951,13.925 1.243,13.925 1.243,13.925 C1.243,13.925 1.243,15.278 1.243,15.278 C1.243,15.278 1.541,15.003 1.541,15.003 C1.541,15.003 4.079,17.753 4.079,17.753 C4.079,17.753 3.827,17.985 3.827,17.985 C3.827,17.985 7.243,17.985 7.243,17.985 C7.243,17.985 3.656,14.204 3.656,14.204 ZM2.597,17.985 C2.597,17.985 3.190,17.985 3.190,17.985 C3.190,17.985 1.243,15.876 1.243,15.876 C1.243,15.876 1.243,16.632 1.243,16.632 C1.243,17.380 1.849,17.985 2.597,17.985 ZM20.194,4.449 C20.194,3.702 19.588,3.096 18.840,3.096 C18.840,3.096 2.597,3.096 2.597,3.096 C1.849,3.096 1.243,3.702 1.243,4.449 C1.243,4.449 1.243,12.571 1.243,12.571 C1.243,12.571 20.194,12.571 20.194,12.571 C20.194,12.571 20.194,4.449 20.194,4.449 ZM20.194,13.925 C20.194,13.925 16.692,13.925 16.692,13.925 C16.692,13.925 19.951,17.361 19.951,17.361 C20.092,17.147 20.194,16.907 20.194,16.632 C20.194,16.632 20.194,13.925 20.194,13.925 Z" id="path-1" class="cls-4" fill-rule="evenodd"/>
</svg>
