<svg xmlns="http://www.w3.org/2000/svg" width="22" height="22" preserveAspectRatio="xMidYMid" viewBox="0 0 22 22"><path fill-rule="evenodd" d="M18.84 19.34H2.597A2.707 2.707 0 0 1-.11 16.63V4.45A2.707 2.707 0 0 1 2.597 1.74H18.84a2.708 2.708 0 0 1 2.708 2.707V16.63a2.708 2.708 0 0 1-2.708 2.707zm0-1.355c.174 0 .338-.04.49-.1l-3.492-3.68.295-.28h-3.5l3.626 3.824-.25.235h2.83zm-3.476 0l-3.587-3.78.295-.28h-3.5l3.626 3.824-.25.235h3.416zm-4.06 0l-3.587-3.78.294-.28h-3.5l3.627 3.824-.25.235h3.417zm-7.648-3.78l.295-.28H1.244v1.353l.298-.275 2.54 2.75-.253.232h3.416l-3.587-3.78zm-1.06 3.78h.594l-1.947-2.11v.757c0 .748.606 1.353 1.354 1.353zM20.195 4.45c0-.748-.606-1.354-1.354-1.354H2.597c-.748 0-1.354.606-1.354 1.353v8.12h18.95V4.45zm0 9.475h-3.502l3.26 3.436c.14-.213.242-.453.242-.728v-2.707z" class="cls-4"/></svg>