<svg xmlns="http://www.w3.org/2000/svg" width="22" height="22" preserveAspectRatio="xMidYMid" viewBox="0 0 22 22"><path fill-rule="evenodd" d="M20.15 21.457H5.97a1.937 1.937 0 0 1-1.932-1.934v-.647c-.09.012-.177.042-.266.042a1.737 1.737 0 0 1-1.717-1.454L-.06 4.77a1.724 1.724 0 0 1 .307-1.304 1.72 1.72 0 0 1 1.146-.7l14.305-2.2c.89-.142 1.732.42 1.952 1.296l1.004 4.016-.437.11h1.934c1.066 0 1.934.867 1.934 1.934v11.6a1.936 1.936 0 0 1-1.933 1.935zM16.777 2.082a.837.837 0 0 0-.94-.626L1.53 3.658a.836.836 0 0 0-.7.966l2.116 12.692c.04.243.185.454.395.58.21.127.466.155.697.078V7.925c0-1.067.87-1.935 1.935-1.935h11.78l-.976-3.908zm4.02 5.84a.645.645 0 0 0-.646-.645H5.97a.645.645 0 0 0-.644.645v9.098l3.616-2.398a.455.455 0 0 1 .57.063l2.225 2.23 4.897-5.983a.448.448 0 0 1 .736.056l3.424 5.723V7.923zm0 9.668l-.388.23-3.48-5.818-4.807 5.648c-.08.098-.198-.06-.326-.06h-.022c-.12 0-.235.177-.32.093L9.137 15.48l-3.56 2.428-.25-.36v1.975c0 .356.29.645.645.645h14.18c.356 0 .645-.29.645-.645V17.59zm-10.97-5.168H8.55a.644.644 0 0 1-.645-.645V10.5c0-.356.288-.645.644-.645h1.277c.356 0 .644.29.644.645v1.277a.644.644 0 0 1-.643.645z" class="cls-4"/></svg>