<svg xmlns="http://www.w3.org/2000/svg" xmlns:xlink="http://www.w3.org/1999/xlink" preserveAspectRatio="xMidYMid" width="22" height="22" viewBox="0 0 22 22">
    <path d="M20.151,21.457 C20.151,21.457 5.971,21.457 5.971,21.457 C4.906,21.457 4.038,20.589 4.038,19.523 C4.038,19.523 4.038,18.876 4.038,18.876 C3.949,18.888 3.861,18.918 3.772,18.918 C3.459,18.918 3.149,18.834 2.875,18.669 C2.439,18.406 2.140,17.967 2.055,17.464 C2.055,17.464 -0.060,4.771 -0.060,4.771 C-0.137,4.309 -0.028,3.845 0.247,3.466 C0.521,3.086 0.929,2.836 1.393,2.766 C1.393,2.766 15.698,0.565 15.698,0.565 C16.587,0.424 17.430,0.986 17.650,1.862 C17.650,1.862 18.654,5.878 18.654,5.878 C18.654,5.878 18.217,5.988 18.217,5.988 C18.217,5.988 20.151,5.988 20.151,5.988 C21.216,5.988 22.084,6.855 22.084,7.922 C22.084,7.922 22.084,19.523 22.084,19.523 C22.084,20.589 21.217,21.457 20.151,21.457 ZM16.776,2.082 C16.670,1.659 16.266,1.392 15.835,1.456 C15.835,1.456 1.530,3.658 1.530,3.658 C1.307,3.693 1.111,3.811 0.978,3.994 C0.845,4.178 0.794,4.402 0.831,4.624 C0.831,4.624 2.946,17.316 2.946,17.316 C2.986,17.559 3.131,17.770 3.341,17.896 C3.551,18.023 3.806,18.051 4.037,17.974 C4.037,17.974 4.038,17.975 4.038,17.975 C4.038,17.975 4.038,7.923 4.038,7.923 C4.038,6.857 4.906,5.989 5.972,5.989 C5.972,5.989 17.752,5.989 17.752,5.989 C17.752,5.989 16.776,2.082 16.776,2.082 C16.776,2.082 16.776,2.082 16.776,2.082 ZM20.795,7.922 C20.795,7.566 20.506,7.277 20.150,7.277 C20.150,7.277 5.971,7.277 5.971,7.277 C5.615,7.277 5.326,7.566 5.326,7.922 C5.326,7.922 5.326,17.020 5.326,17.020 C5.326,17.020 8.942,14.622 8.942,14.622 C9.123,14.503 9.360,14.534 9.512,14.685 C9.512,14.685 11.737,16.914 11.737,16.914 C11.737,16.914 16.634,10.932 16.634,10.932 C16.727,10.819 16.865,10.762 17.017,10.768 C17.163,10.779 17.296,10.861 17.370,10.988 C17.370,10.988 20.794,16.711 20.794,16.711 C20.794,16.711 20.794,7.922 20.794,7.922 C20.794,7.922 20.795,7.922 20.795,7.922 ZM20.795,17.590 C20.795,17.590 20.408,17.820 20.408,17.820 C20.408,17.820 16.928,12.002 16.928,12.002 C16.928,12.002 12.121,17.650 12.121,17.650 C12.040,17.748 11.922,17.590 11.794,17.590 C11.788,17.590 11.780,17.590 11.772,17.590 C11.652,17.590 11.537,17.767 11.453,17.683 C11.453,17.683 9.136,15.480 9.136,15.480 C9.136,15.480 5.577,17.908 5.577,17.908 C5.577,17.908 5.327,17.547 5.327,17.547 C5.327,17.547 5.327,19.523 5.327,19.523 C5.327,19.879 5.615,20.168 5.971,20.168 C5.971,20.168 20.151,20.168 20.151,20.168 C20.506,20.168 20.795,19.879 20.795,19.523 C20.795,19.523 20.795,17.590 20.795,17.590 C20.795,17.590 20.795,17.590 20.795,17.590 ZM9.827,12.422 C9.827,12.422 8.549,12.422 8.549,12.422 C8.193,12.422 7.905,12.133 7.905,11.777 C7.905,11.777 7.905,10.500 7.905,10.500 C7.905,10.144 8.193,9.855 8.549,9.855 C8.549,9.855 9.827,9.855 9.827,9.855 C10.183,9.855 10.471,10.144 10.471,10.500 C10.471,10.500 10.471,11.777 10.471,11.777 C10.471,12.133 10.183,12.422 9.827,12.422 Z" id="path-1" class="cls-4" fill-rule="evenodd"/>
</svg>
