<svg xmlns="http://www.w3.org/2000/svg" xmlns:xlink="http://www.w3.org/1999/xlink" preserveAspectRatio="xMidYMid" width="22" height="22" viewBox="0 0 22 22">
    <path d="M11.304,21.817 C11.304,21.817 10.999,22.034 10.999,22.034 C10.999,22.034 10.696,21.817 10.696,21.817 C10.335,21.559 1.872,15.427 1.872,8.389 C1.872,3.745 5.966,-0.034 10.999,-0.034 C16.032,-0.034 20.128,3.745 20.128,8.389 C20.128,15.427 11.664,21.559 11.304,21.817 ZM10.999,1.011 C6.542,1.011 2.917,4.322 2.917,8.389 C2.917,14.179 9.493,19.578 10.999,20.738 C12.506,19.578 19.081,14.173 19.081,8.389 C19.081,4.322 15.456,1.011 10.999,1.011 ZM10.999,13.008 C8.654,13.008 6.744,11.099 6.744,8.753 C6.744,6.407 8.654,4.498 10.999,4.498 C13.346,4.498 15.254,6.407 15.254,8.753 C15.254,11.099 13.346,13.008 10.999,13.008 ZM10.999,5.543 C9.230,5.543 7.789,6.984 7.789,8.753 C7.789,10.524 9.230,11.963 10.999,11.963 C12.770,11.963 14.209,10.524 14.209,8.753 C14.209,6.984 12.770,5.543 10.999,5.543 Z" id="path-1" class="cls-4" fill-rule="evenodd"/>
</svg>
