<svg xmlns="http://www.w3.org/2000/svg" width="22" height="22" preserveAspectRatio="xMidYMid" viewBox="0 0 22 22"><path fill-rule="evenodd" d="M18.763 7.03v2.764H16V7.03h-2.766V4.264H16V1.5h2.763v2.765H21.528V7.03h-2.765zM9.015 2.88c.584 0 1.803 1.264 1.803 3.195 0 1.88-1.067 2.534-2.134 3.372-.33.33-.71.686-.71 1.245 0 .557.38.863.66 1.092l.914.71c1.118.94 2.133 1.804 2.133 3.555 0 2.388-2.31 4.8-6.68 4.8-3.68 0-5.458-1.75-5.458-3.63 0-.915.457-2.21 1.955-3.1 1.574-.964 3.708-1.09 4.85-1.168-.356-.458-.762-.94-.762-1.726 0-.433.128-.687.255-.992-.28.025-.558.05-.814.05C2.336 10.287.81 8.28.81 6.3c0-1.168.534-2.464 1.626-3.403C3.886 1.703 5.61 1.5 6.983 1.5h5.23L10.59 2.882H9.014zM3.96 14.072c-.557.204-2.182.812-2.182 2.615 0 1.804 1.75 3.098 4.47 3.098 2.436 0 3.732-1.168 3.732-2.74 0-1.297-.838-1.982-2.768-3.354-.204-.025-.33-.025-.585-.025-.228 0-1.6.05-2.667.407zM5.383 2.338c-.66 0-1.372.33-1.777.84-.432.532-.56 1.217-.56 1.877 0 1.7.99 4.522 3.174 4.522.637 0 1.32-.306 1.73-.71.582-.587.633-1.4.633-1.856 0-1.828-1.092-4.672-3.2-4.672z" class="cls-4"/></svg>