<svg xmlns="http://www.w3.org/2000/svg" width="22" height="22" preserveAspectRatio="xMidYMid" viewBox="0 0 22 22"><path fill-rule="evenodd" d="M11.304 21.817l-.305.217-.304-.217c-.36-.258-8.824-6.39-8.824-13.428C1.872 3.744 5.966-.035 11-.035c5.032 0 9.128 3.78 9.128 8.423 0 7.037-8.464 13.17-8.824 13.427zM11 1.01c-4.458 0-8.083 3.312-8.083 7.38 0 5.79 6.576 11.188 8.082 12.348 1.506-1.16 8.08-6.565 8.08-12.35 0-4.066-3.624-7.377-8.08-7.377zm0 11.998a4.26 4.26 0 0 1-4.256-4.255A4.26 4.26 0 0 1 11 4.498a4.26 4.26 0 0 1 4.254 4.255A4.26 4.26 0 0 1 11 13.008zm0-7.465c-1.77 0-3.21 1.44-3.21 3.21s1.44 3.21 3.21 3.21 3.21-1.44 3.21-3.21-1.44-3.21-3.21-3.21z" class="cls-4"/></svg>