<svg xmlns="http://www.w3.org/2000/svg" xmlns:xlink="http://www.w3.org/1999/xlink" preserveAspectRatio="xMidYMid" width="22" height="22" viewBox="0 0 22 22">
    <path d="M18.763,7.029 C18.763,7.029 18.763,9.794 18.763,9.794 C18.763,9.794 15.999,9.794 15.999,9.794 C15.999,9.794 15.999,7.029 15.999,7.029 C15.999,7.029 13.234,7.029 13.234,7.029 C13.234,7.029 13.234,4.265 13.234,4.265 C13.234,4.265 15.999,4.265 15.999,4.265 C15.999,4.265 15.999,1.500 15.999,1.500 C15.999,1.500 18.763,1.500 18.763,1.500 C18.763,1.500 18.763,4.265 18.763,4.265 C18.763,4.265 21.280,4.265 21.280,4.265 C21.280,4.265 21.528,4.265 21.528,4.265 C21.528,4.265 21.528,7.029 21.528,7.029 C21.528,7.029 18.763,7.029 18.763,7.029 ZM9.015,2.882 C9.599,2.882 10.818,4.146 10.818,6.077 C10.818,7.957 9.751,8.611 8.684,9.449 C8.355,9.780 7.973,10.136 7.973,10.695 C7.973,11.252 8.355,11.558 8.633,11.787 C8.633,11.787 9.548,12.496 9.548,12.496 C10.666,13.436 11.681,14.301 11.681,16.052 C11.681,18.440 9.370,20.853 5.001,20.853 C1.320,20.853 -0.458,19.101 -0.458,17.222 C-0.458,16.307 -0.001,15.011 1.497,14.122 C3.071,13.158 5.205,13.031 6.348,12.954 C5.991,12.496 5.585,12.013 5.585,11.228 C5.585,10.795 5.713,10.541 5.840,10.236 C5.561,10.261 5.282,10.287 5.026,10.287 C2.336,10.287 0.811,8.280 0.811,6.300 C0.811,5.132 1.344,3.836 2.436,2.897 C3.886,1.703 5.611,1.500 6.983,1.500 C6.983,1.500 12.214,1.500 12.214,1.500 C12.214,1.500 10.589,2.882 10.589,2.882 C10.589,2.882 9.015,2.882 9.015,2.882 ZM3.960,14.072 C3.403,14.276 1.778,14.884 1.778,16.687 C1.778,18.491 3.528,19.785 6.247,19.785 C8.684,19.785 9.980,18.617 9.980,17.044 C9.980,15.748 9.142,15.063 7.212,13.691 C7.008,13.665 6.881,13.665 6.627,13.665 C6.399,13.665 5.028,13.716 3.960,14.072 ZM5.383,2.338 C4.722,2.338 4.011,2.669 3.606,3.177 C3.174,3.710 3.046,4.395 3.046,5.055 C3.046,6.756 4.036,9.577 6.220,9.577 C6.857,9.577 7.541,9.271 7.950,8.866 C8.532,8.280 8.583,7.468 8.583,7.011 C8.583,5.182 7.491,2.338 5.383,2.338 Z" id="path-1" class="cls-4" fill-rule="evenodd"/>
</svg>
