<svg xmlns="http://www.w3.org/2000/svg" width="22" height="18" preserveAspectRatio="xMidYMid" viewBox="0 0 22 18"><path fill-rule="evenodd" d="M19.24 17.938H2.686a2.76 2.76 0 0 1-2.758-2.76V2.766A2.758 2.758 0 0 1 2.686.007H19.24a2.758 2.758 0 0 1 2.757 2.758V15.18a2.76 2.76 0 0 1-2.758 2.758zm-17.932-2.76c0 .763.617 1.38 1.38 1.38h16.55c.762 0 1.38-.617 1.38-1.38V6.904H1.308v8.276zm0-12.413v2.76h3.568l-3.32-3.502a1.342 1.342 0 0 0-.248.742zm1.38-1.38c-.178 0-.345.04-.5.102L5.745 5.24l-.3.284h3.568L5.318 1.627l.255-.24H2.687zm3.54 0L9.885 5.24l-.3.284h3.567L9.457 1.627l.254-.24H6.23zm4.14 0L14.02 5.24l-.3.284h3.567l-3.697-3.897.255-.24h-3.48zM18.16 5.24l-.3.284h2.758v-1.38l-.304.28-2.586-2.8.257-.238h-3.48L18.16 5.24zm1.08-3.854h-.606l1.984 2.15v-.77c0-.762-.618-1.38-1.38-1.38z" class="cls-2"/></svg>