<svg xmlns="http://www.w3.org/2000/svg" xmlns:xlink="http://www.w3.org/1999/xlink" preserveAspectRatio="xMidYMid" width="22" height="18" viewBox="0 0 22 18">
  <path d="M19.239,17.938 C19.239,17.938 2.687,17.938 2.687,17.938 C1.164,17.938 -0.071,16.702 -0.071,15.179 C-0.071,15.179 -0.071,2.765 -0.071,2.765 C-0.071,1.242 1.164,0.007 2.687,0.007 C2.687,0.007 19.239,0.007 19.239,0.007 C20.762,0.007 21.997,1.242 21.997,2.765 C21.997,2.765 21.997,15.179 21.997,15.179 C21.997,16.702 20.762,17.938 19.239,17.938 ZM1.308,15.179 C1.308,15.941 1.925,16.558 2.687,16.558 C2.687,16.558 19.239,16.558 19.239,16.558 C20.000,16.558 20.618,15.941 20.618,15.179 C20.618,15.179 20.618,6.903 20.618,6.903 C20.618,6.903 1.308,6.903 1.308,6.903 C1.308,6.903 1.308,15.179 1.308,15.179 ZM1.308,2.765 C1.308,2.765 1.308,5.524 1.308,5.524 C1.308,5.524 4.876,5.524 4.876,5.524 C4.876,5.524 1.555,2.023 1.555,2.023 C1.412,2.240 1.308,2.486 1.308,2.765 ZM2.687,1.386 C2.510,1.386 2.343,1.426 2.187,1.487 C2.187,1.487 5.746,5.240 5.746,5.240 C5.746,5.240 5.446,5.524 5.446,5.524 C5.446,5.524 9.014,5.524 9.014,5.524 C9.014,5.524 5.318,1.627 5.318,1.627 C5.318,1.627 5.573,1.386 5.573,1.386 C5.573,1.386 2.687,1.386 2.687,1.386 ZM6.229,1.386 C6.229,1.386 9.884,5.240 9.884,5.240 C9.884,5.240 9.584,5.524 9.584,5.524 C9.584,5.524 13.151,5.524 13.151,5.524 C13.151,5.524 9.456,1.627 9.456,1.627 C9.456,1.627 9.710,1.386 9.710,1.386 C9.710,1.386 6.229,1.386 6.229,1.386 ZM10.367,1.386 C10.367,1.386 14.022,5.240 14.022,5.240 C14.022,5.240 13.721,5.524 13.721,5.524 C13.721,5.524 17.289,5.524 17.289,5.524 C17.289,5.524 13.593,1.627 13.593,1.627 C13.593,1.627 13.848,1.386 13.848,1.386 C13.848,1.386 10.367,1.386 10.367,1.386 ZM18.160,5.240 C18.160,5.240 17.859,5.524 17.859,5.524 C17.859,5.524 20.618,5.524 20.618,5.524 C20.618,5.524 20.618,4.145 20.618,4.145 C20.618,4.145 20.314,4.425 20.314,4.425 C20.314,4.425 17.728,1.623 17.728,1.623 C17.728,1.623 17.985,1.386 17.985,1.386 C17.985,1.386 14.505,1.386 14.505,1.386 C14.505,1.386 18.160,5.240 18.160,5.240 ZM19.239,1.386 C19.239,1.386 18.634,1.386 18.634,1.386 C18.634,1.386 20.618,3.535 20.618,3.535 C20.618,3.535 20.618,2.765 20.618,2.765 C20.618,2.004 20.000,1.386 19.239,1.386 Z" id="path-1" class="cls-2" fill-rule="evenodd"/>
</svg>
