<svg xmlns="http://www.w3.org/2000/svg" xmlns:xlink="http://www.w3.org/1999/xlink" preserveAspectRatio="xMidYMid" width="22" height="6" viewBox="0 0 22 6">
  <path d="M15.250,5.094 C15.250,5.094 15.250,0.011 15.250,0.011 C15.250,0.011 21.604,0.011 21.604,0.011 C21.604,0.011 21.604,5.094 21.604,5.094 C21.604,5.094 15.250,5.094 15.250,5.094 ZM20.333,1.281 C20.333,1.281 16.521,1.281 16.521,1.281 C16.521,1.281 16.521,3.823 16.521,3.823 C16.521,3.823 20.333,3.823 20.333,3.823 C20.333,3.823 20.333,1.281 20.333,1.281 ZM7.625,0.011 C7.625,0.011 13.979,0.011 13.979,0.011 C13.979,0.011 13.979,5.094 13.979,5.094 C13.979,5.094 7.625,5.094 7.625,5.094 C7.625,5.094 7.625,0.011 7.625,0.011 ZM8.896,3.823 C8.896,3.823 12.708,3.823 12.708,3.823 C12.708,3.823 12.708,1.281 12.708,1.281 C12.708,1.281 8.896,1.281 8.896,1.281 C8.896,1.281 8.896,3.823 8.896,3.823 ZM0.000,0.011 C0.000,0.011 6.354,0.011 6.354,0.011 C6.354,0.011 6.354,5.094 6.354,5.094 C6.354,5.094 0.000,5.094 0.000,5.094 C0.000,5.094 0.000,0.011 0.000,0.011 ZM1.271,3.823 C1.271,3.823 5.083,3.823 5.083,3.823 C5.083,3.823 5.083,1.281 5.083,1.281 C5.083,1.281 1.271,1.281 1.271,1.281 C1.271,1.281 1.271,3.823 1.271,3.823 Z" id="path-1" class="cls-2" fill-rule="evenodd"/>
</svg>
