<svg xmlns="http://www.w3.org/2000/svg" width="22" height="22" preserveAspectRatio="xMidYMid" viewBox="0 0 22 22"><path fill-rule="evenodd" d="M18.736 21.123H2.6a2.69 2.69 0 0 1-2.69-2.69V4.985a2.69 2.69 0 0 1 2.69-2.69h16.136a2.69 2.69 0 0 1 2.69 2.69v13.448a2.69 2.69 0 0 1-2.69 2.69zM20.08 4.986c0-.742-.602-1.345-1.344-1.345H2.6c-.743 0-1.346.604-1.346 1.346V6.33H20.08V4.987zm0 2.69H1.255v10.757c0 .742.602 1.345 1.345 1.345h16.135c.743 0 1.345-.603 1.345-1.345V7.675zM13.358 17.76a.673.673 0 0 1-.488-1.135l2.79-2.947-2.783-2.843a.672.672 0 1 1 .96-.94l3.69 3.768-3.682 3.888a.667.667 0 0 1-.488.21zm-4.913-.188a.67.67 0 0 1-.95-.017l-3.686-3.83L7.494 9.9a.673.673 0 1 1 .968.933l-2.786 2.896 2.786 2.896a.67.67 0 0 1-.017.95z" class="cls-4"/></svg>