<svg xmlns="http://www.w3.org/2000/svg" xmlns:xlink="http://www.w3.org/1999/xlink" preserveAspectRatio="xMidYMid" width="22" height="22" viewBox="0 0 22 22">
    <path d="M18.736,21.123 C18.736,21.123 2.599,21.123 2.599,21.123 C1.113,21.123 -0.091,19.919 -0.091,18.433 C-0.091,18.433 -0.091,4.985 -0.091,4.985 C-0.091,3.499 1.113,2.296 2.599,2.296 C2.599,2.296 18.736,2.296 18.736,2.296 C20.222,2.296 21.426,3.499 21.426,4.985 C21.426,4.985 21.426,18.433 21.426,18.433 C21.426,19.919 20.222,21.123 18.736,21.123 ZM20.081,4.986 C20.081,4.244 19.478,3.641 18.736,3.641 C18.736,3.641 2.599,3.641 2.599,3.641 C1.857,3.641 1.254,4.244 1.254,4.986 C1.254,4.986 1.254,6.331 1.254,6.331 C1.254,6.331 20.081,6.331 20.081,6.331 C20.081,6.331 20.081,4.986 20.081,4.986 C20.081,4.986 20.081,4.986 20.081,4.986 ZM20.081,7.675 C20.081,7.675 1.254,7.675 1.254,7.675 C1.254,7.675 1.254,18.433 1.254,18.433 C1.254,19.175 1.856,19.778 2.599,19.778 C2.599,19.778 18.735,19.778 18.735,19.778 C19.478,19.778 20.080,19.175 20.080,18.433 C20.080,18.433 20.080,7.675 20.080,7.675 C20.080,7.675 20.081,7.675 20.081,7.675 ZM13.357,17.761 C13.192,17.761 13.025,17.700 12.894,17.577 C12.625,17.321 12.613,16.896 12.869,16.626 C12.869,16.626 15.659,13.678 15.659,13.678 C15.659,13.678 12.877,10.835 12.877,10.835 C12.616,10.569 12.621,10.144 12.886,9.884 C13.151,9.624 13.580,9.630 13.837,9.894 C13.837,9.894 17.527,13.663 17.527,13.663 C17.527,13.663 13.845,17.551 13.845,17.551 C13.713,17.691 13.536,17.761 13.357,17.761 ZM8.444,17.572 C8.314,17.699 8.146,17.761 7.978,17.761 C7.802,17.761 7.626,17.692 7.494,17.555 C7.494,17.555 3.808,13.726 3.808,13.726 C3.808,13.726 7.494,9.898 7.494,9.898 C7.753,9.630 8.178,9.623 8.445,9.880 C8.713,10.137 8.721,10.564 8.462,10.831 C8.462,10.831 5.676,13.726 5.676,13.726 C5.676,13.726 8.462,16.622 8.462,16.622 C8.721,16.889 8.713,17.316 8.445,17.572 C8.445,17.572 8.444,17.572 8.444,17.572 Z" id="path-1" class="cls-4" fill-rule="evenodd"/>
</svg>
