<svg xmlns="http://www.w3.org/2000/svg" xmlns:xlink="http://www.w3.org/1999/xlink" preserveAspectRatio="xMidYMid" width="22" height="22" viewBox="0 0 22 22">
    <path d="M19.984,18.709 C19.984,18.709 4.732,18.709 4.732,18.709 C4.732,18.709 0.960,14.542 0.960,14.542 C0.686,14.364 0.467,14.116 0.312,13.825 C0.312,13.825 0.079,13.569 0.079,13.569 C0.079,13.569 0.197,13.569 0.197,13.569 C0.125,13.368 0.079,13.153 0.079,12.927 C0.079,12.927 0.079,5.861 0.079,5.861 C0.079,4.441 1.229,3.291 2.649,3.291 C2.649,3.291 16.139,3.291 16.139,3.291 C16.318,3.291 16.487,3.323 16.652,3.368 C16.690,3.380 16.727,3.391 16.766,3.404 C17.086,3.515 17.366,3.705 17.584,3.956 C17.607,3.983 17.629,4.008 17.651,4.036 C17.755,4.169 17.848,4.310 17.913,4.467 C17.913,4.467 21.921,8.431 21.921,8.431 C21.921,8.431 21.921,16.771 21.921,16.771 C21.921,17.841 21.053,18.709 19.983,18.709 C19.983,18.709 19.984,18.709 19.984,18.709 ZM16.782,5.219 C16.782,4.864 16.494,4.576 16.139,4.576 C16.139,4.576 2.649,4.576 2.649,4.576 C1.419,4.576 1.364,4.576 1.364,5.861 C1.364,5.861 1.364,13.570 1.364,13.570 C1.364,13.570 5.219,9.715 5.219,9.715 C5.219,9.715 7.788,11.000 7.788,11.000 C7.788,11.000 11.643,7.146 11.643,7.146 C11.643,7.146 16.782,13.570 16.782,13.570 C16.782,13.570 16.782,5.219 16.782,5.219 ZM2.649,13.570 C2.649,13.570 15.497,13.570 15.497,13.570 C15.497,13.570 11.644,8.431 11.644,8.431 C11.644,8.431 7.788,12.285 7.788,12.285 C7.788,12.285 5.219,11.000 5.219,11.000 C5.219,11.000 2.649,13.570 2.649,13.570 ZM17.084,14.597 C16.803,14.757 16.484,14.854 16.139,14.854 C16.139,14.854 2.486,14.854 2.486,14.854 C2.486,14.854 5.236,17.424 5.236,17.424 C5.236,17.424 19.351,17.424 19.351,17.424 C19.516,17.424 19.671,17.387 19.815,17.330 C19.815,17.330 17.084,14.597 17.084,14.597 C17.084,14.597 17.084,14.597 17.084,14.597 ZM20.636,8.431 C20.636,8.431 18.067,5.861 18.067,5.861 C18.067,5.861 18.067,12.927 18.067,12.927 C18.067,13.272 17.969,13.592 17.810,13.870 C17.810,13.870 20.543,16.603 20.543,16.603 C20.599,16.459 20.637,16.304 20.637,16.139 C20.637,16.139 20.637,8.431 20.637,8.431 C20.637,8.431 20.636,8.431 20.636,8.431 ZM5.850,8.419 C5.850,8.419 4.577,8.419 4.577,8.419 C4.222,8.419 3.934,8.131 3.934,7.777 C3.934,7.777 3.934,6.504 3.934,6.504 C3.934,6.149 4.222,5.861 4.577,5.861 C4.577,5.861 5.850,5.861 5.850,5.861 C6.204,5.861 6.492,6.149 6.492,6.504 C6.492,6.504 6.492,7.777 6.492,7.777 C6.492,8.131 6.205,8.419 5.850,8.419 Z" id="path-1" class="cls-4" fill-rule="evenodd"/>
</svg>
