<svg xmlns="http://www.w3.org/2000/svg" width="22" height="22" preserveAspectRatio="xMidYMid" viewBox="0 0 22 22"><path fill-rule="evenodd" d="M19.984 18.71H4.732L.96 14.54a597765586983489.2 597765586983489.2 0 0 1-.88-.973h.117a1.9 1.9 0 0 1-.118-.643V5.86a2.57 2.57 0 0 1 2.57-2.57h13.49c.178 0 .347.033.512.078l.114.036c.32.11.6.3.818.552.023.027.045.052.067.08.105.133.198.274.263.43l4.008 3.965v8.34c0 1.07-.867 1.94-1.937 1.94zM16.782 5.22a.643.643 0 0 0-.643-.644H2.65c-1.23 0-1.286 0-1.286 1.285v7.71L5.22 9.715 7.787 11l3.855-3.854 5.14 6.424V5.22zM2.65 13.57h12.847l-3.853-5.14-3.856 3.855L5.218 11l-2.57 2.57zm14.434 1.027a1.9 1.9 0 0 1-.945.257H2.485l2.75 2.57H19.35c.166 0 .32-.037.465-.094l-2.73-2.733zm3.552-6.166l-2.57-2.57v7.067c0 .345-.097.665-.256.943l2.733 2.733c.056-.144.094-.3.094-.464V8.43zM5.85 8.42H4.577a.643.643 0 0 1-.643-.643V6.504c0-.355.288-.643.643-.643H5.85c.354 0 .642.29.642.644v1.273a.642.642 0 0 1-.642.642z" class="cls-4"/></svg>