<svg xmlns="http://www.w3.org/2000/svg" xmlns:xlink="http://www.w3.org/1999/xlink" preserveAspectRatio="xMidYMid" width="22" height="22" viewBox="0 0 22 22">
    <path d="M21.694,6.920 C21.694,6.920 16.368,0.193 16.368,0.193 C16.231,0.020 16.009,-0.065 15.790,-0.021 C15.572,0.020 15.395,0.178 15.331,0.392 C15.331,0.392 15.039,1.353 15.039,1.353 C15.039,1.353 15.039,1.353 15.039,1.353 C15.039,1.353 10.070,17.711 10.070,17.711 C9.950,17.545 9.834,17.378 9.681,17.216 C8.892,16.385 7.728,15.708 6.404,15.306 C5.591,15.058 4.749,14.929 3.968,14.929 C2.059,14.929 0.643,15.689 0.272,16.910 C-0.004,17.821 0.323,18.829 1.196,19.746 C1.986,20.574 3.149,21.254 4.475,21.655 C5.286,21.903 6.128,22.032 6.909,22.032 C8.819,22.032 10.235,21.274 10.606,20.050 C10.606,20.050 14.219,8.156 14.219,8.156 C14.219,8.156 17.835,12.774 17.835,12.774 C17.835,12.774 17.999,15.989 17.999,15.989 C18.014,16.278 18.233,16.515 18.521,16.551 C18.546,16.554 18.572,16.555 18.594,16.555 C18.854,16.555 19.088,16.385 19.165,16.132 C19.165,16.132 21.798,7.464 21.798,7.464 C21.855,7.278 21.816,7.074 21.694,6.920 ZM4.820,20.515 C3.690,20.170 2.709,19.607 2.061,18.924 C1.505,18.340 1.269,17.733 1.414,17.257 C1.623,16.567 2.626,16.121 3.968,16.121 C4.633,16.121 5.354,16.233 6.056,16.446 C7.188,16.791 8.167,17.354 8.817,18.037 C9.373,18.621 9.609,19.230 9.464,19.704 C9.151,20.735 6.939,21.157 4.820,20.515 ZM19.018,12.514 C19.009,12.394 18.965,12.281 18.891,12.187 C18.891,12.187 14.642,6.763 14.642,6.763 C14.642,6.763 16.142,1.827 16.142,1.827 C16.142,1.827 20.565,7.416 20.565,7.416 C20.565,7.416 19.018,12.514 19.018,12.514 Z" id="path-1" class="cls-4" fill-rule="evenodd"/>
</svg>
