<svg xmlns="http://www.w3.org/2000/svg" width="22" height="22" preserveAspectRatio="xMidYMid" viewBox="0 0 22 22"><path fill-rule="evenodd" d="M21.694 6.92L16.368.193a.59.59 0 0 0-.578-.214.592.592 0 0 0-.46.412l-.29.96-4.97 16.36c-.12-.167-.236-.334-.39-.496-.788-.83-1.952-1.508-3.276-1.91a8.474 8.474 0 0 0-2.436-.377c-1.91 0-3.325.76-3.696 1.98-.276.91.05 1.92.924 2.836.79.828 1.953 1.508 3.28 1.91a8.45 8.45 0 0 0 2.433.376c1.91 0 3.325-.758 3.696-1.982L14.22 8.156l3.615 4.618L18 15.99a.597.597 0 0 0 1.165.142l2.633-8.668a.596.596 0 0 0-.104-.544zM4.82 20.515c-1.13-.345-2.11-.908-2.76-1.59-.555-.585-.79-1.192-.646-1.668.21-.69 1.212-1.136 2.554-1.136.665 0 1.386.113 2.088.326 1.132.345 2.11.908 2.76 1.59.557.585.793 1.194.648 1.668-.313 1.03-2.525 1.453-4.644.81zm14.198-8a.6.6 0 0 0-.127-.328l-4.248-5.424 1.5-4.936 4.423 5.59-1.547 5.097z" class="cls-4"/></svg>