<svg xmlns="http://www.w3.org/2000/svg" xmlns:xlink="http://www.w3.org/1999/xlink" preserveAspectRatio="xMidYMid" width="22" height="22" viewBox="0 0 22 22">
    <path d="M20.423,12.204 C20.993,12.136 21.536,11.985 22.041,11.761 C21.663,12.326 21.185,12.822 20.634,13.219 C20.640,13.340 20.641,13.461 20.641,13.584 C20.641,17.307 17.805,21.600 12.623,21.600 C11.031,21.600 9.546,21.133 8.299,20.334 C8.519,20.360 8.733,20.373 8.960,20.373 C10.280,20.373 11.475,19.923 12.439,19.167 C11.206,19.144 10.125,18.330 9.766,17.210 C9.938,17.243 10.033,17.261 10.214,17.261 C10.471,17.261 10.556,17.227 10.792,17.162 C9.503,16.903 8.204,15.765 8.204,14.400 C8.204,14.388 8.204,14.376 8.204,14.364 C9.577,14.575 9.346,14.702 9.809,14.717 C9.052,14.211 8.884,13.349 8.884,12.372 C8.884,11.855 9.022,11.371 9.265,10.955 C10.654,12.660 12.730,13.781 15.072,13.899 C15.024,13.693 14.999,13.478 14.999,13.257 C14.999,11.701 16.260,10.440 17.816,10.440 C18.627,10.440 19.359,10.782 19.873,11.329 C20.514,11.203 21.117,10.968 21.662,10.645 C21.452,11.304 21.005,11.856 20.423,12.204 ZM16.443,8.265 C16.443,8.265 13.697,8.265 13.697,8.265 C13.697,8.265 13.697,5.518 13.697,5.518 C13.697,5.518 10.950,5.518 10.950,5.518 C10.950,5.518 10.950,2.772 10.950,2.772 C10.950,2.772 13.697,2.772 13.697,2.772 C13.697,2.772 13.697,0.025 13.697,0.025 C13.697,0.025 16.443,0.025 16.443,0.025 C16.443,0.025 16.443,2.772 16.443,2.772 C16.443,2.772 18.943,2.772 18.943,2.772 C18.943,2.772 19.189,2.772 19.189,2.772 C19.189,2.772 19.189,5.518 19.189,5.518 C19.189,5.518 16.443,5.518 16.443,5.518 C16.443,5.518 16.443,8.265 16.443,8.265 ZM4.084,15.131 C4.084,15.131 1.338,15.131 1.338,15.131 C1.338,15.131 1.338,8.265 1.338,8.265 C1.338,8.265 -0.036,8.265 -0.036,8.265 C-0.036,8.265 -0.036,5.518 -0.036,5.518 C-0.036,5.518 1.338,5.518 1.338,5.518 C1.338,5.518 1.338,5.287 1.338,4.188 C1.338,2.527 2.360,0.712 4.833,0.712 C5.835,0.712 6.830,1.136 6.830,1.136 C6.830,1.136 6.830,3.405 6.830,3.405 C6.830,3.405 6.526,3.401 5.702,3.401 C4.810,3.401 4.084,3.812 4.084,4.494 C4.084,4.562 4.084,4.585 4.084,4.581 C4.084,4.795 4.084,5.090 4.084,5.518 C4.084,5.518 6.830,5.518 6.830,5.518 C6.830,5.518 6.830,8.265 6.830,8.265 C6.830,8.265 4.084,8.265 4.084,8.265 C4.084,8.265 4.084,15.131 4.084,15.131 Z" id="path-1" class="cls-4" fill-rule="evenodd"/>
</svg>
