<svg xmlns="http://www.w3.org/2000/svg" width="22" height="22" preserveAspectRatio="xMidYMid" viewBox="0 0 22 22"><path fill-rule="evenodd" d="M20.423 12.204a5.627 5.627 0 0 0 1.618-.443 5.72 5.72 0 0 1-1.406 1.46c.006.12.007.24.007.364 0 3.723-2.835 8.016-8.017 8.016A7.994 7.994 0 0 1 8.3 20.334a5.593 5.593 0 0 0 4.14-1.167c-1.234-.023-2.315-.837-2.674-1.957.172.033.267.05.448.05.257 0 .342-.033.578-.098-1.29-.26-2.588-1.397-2.588-2.762v-.036c1.373.21 1.142.338 1.605.353-.758-.506-.926-1.368-.926-2.345 0-.517.138-1 .38-1.417a7.997 7.997 0 0 0 5.808 2.944 2.817 2.817 0 0 1 2.744-3.46c.81 0 1.542.342 2.056.89a5.642 5.642 0 0 0 1.79-.685c-.21.66-.658 1.21-1.24 1.56zm-3.98-3.94h-2.746V5.52H10.95V2.772h2.747V.025h2.746v2.747h2.746v2.746h-2.747v2.747zm-12.36 6.867H1.34V8.266H-.036V5.518h1.374v-1.33c0-1.66 1.022-3.476 3.495-3.476 1.002 0 1.997.424 1.997.424v2.27S6.526 3.4 5.702 3.4c-.892 0-1.618.412-1.618 1.094V5.52H6.83v2.747H4.084v6.866z" class="cls-4"/></svg>