<svg xmlns="http://www.w3.org/2000/svg" xmlns:xlink="http://www.w3.org/1999/xlink" preserveAspectRatio="xMidYMid" width="22" height="22" viewBox="0 0 22 22">
    <path d="M19.846,9.935 C19.846,9.935 19.846,9.935 19.846,9.935 C19.846,9.935 13.946,15.835 13.946,15.835 C13.946,15.835 7.250,17.466 7.250,17.466 C7.250,17.466 8.881,10.770 8.881,10.770 C8.881,10.770 14.781,4.870 14.781,4.870 C14.781,4.870 15.148,4.503 15.148,4.503 C15.148,4.503 16.651,3.000 16.651,3.000 C16.651,3.000 21.716,8.066 21.716,8.066 C21.716,8.066 19.846,9.935 19.846,9.935 ZM8.289,16.427 C8.289,16.427 12.636,15.036 12.636,15.036 C12.636,15.036 9.680,12.080 9.680,12.080 C9.680,12.080 8.289,16.427 8.289,16.427 ZM16.595,3.968 C16.595,3.968 10.094,11.026 10.094,11.026 C10.094,11.026 11.525,12.457 11.525,12.457 C11.525,12.457 16.228,7.754 16.228,7.754 C16.228,7.754 16.962,8.488 16.962,8.488 C16.962,8.488 12.259,13.191 12.259,13.191 C12.259,13.191 13.690,14.622 13.690,14.622 C13.690,14.622 20.748,8.121 20.748,8.121 C20.748,8.121 16.595,3.968 16.595,3.968 ZM-0.018,8.121 C-0.018,8.121 7.250,8.121 7.250,8.121 C7.250,8.121 7.250,9.159 7.250,9.159 C7.250,9.159 -0.018,9.159 -0.018,9.159 C-0.018,9.159 -0.018,8.121 -0.018,8.121 ZM5.174,13.312 C5.174,13.312 -0.018,13.312 -0.018,13.312 C-0.018,13.312 -0.018,12.274 -0.018,12.274 C-0.018,12.274 5.174,12.274 5.174,12.274 C5.174,12.274 5.174,13.312 5.174,13.312 ZM5.174,17.466 C5.174,17.466 -0.018,17.466 -0.018,17.466 C-0.018,17.466 -0.018,16.427 -0.018,16.427 C-0.018,16.427 5.174,16.427 5.174,16.427 C5.174,16.427 5.174,17.466 5.174,17.466 Z" id="path-1" class="cls-4" fill-rule="evenodd"/>
</svg>
