<svg xmlns="http://www.w3.org/2000/svg" width="22" height="22" preserveAspectRatio="xMidYMid" viewBox="0 0 22 22"><path fill-rule="evenodd" d="M19.846 9.935l-5.9 5.9-6.696 1.63 1.63-6.695 5.9-5.9.368-.367L16.65 3l5.066 5.066-1.87 1.87zM8.29 16.427l4.346-1.39L9.68 12.08l-1.39 4.347zm8.305-12.46l-6.5 7.06 1.43 1.43 4.703-4.703.734.734-4.703 4.703 1.43 1.432 7.058-6.5-4.153-4.154zM-.018 8.122H7.25v1.04H-.018V8.12zm5.192 5.192H-.018v-1.038h5.192v1.038zm0 4.154H-.018v-1.04h5.192v1.04z" class="cls-4"/></svg>