<svg xmlns="http://www.w3.org/2000/svg" xmlns:xlink="http://www.w3.org/1999/xlink" preserveAspectRatio="xMidYMid" width="22" height="22" viewBox="0 0 22 22">
    <path d="M5.668,20.658 C5.310,20.658 5.020,20.369 5.020,20.010 C5.020,19.344 5.103,18.699 5.221,18.067 C5.221,18.067 0.182,18.067 0.182,18.067 C-0.176,18.067 0.011,17.129 0.011,16.771 C0.011,12.999 1.449,10.567 4.453,9.437 C4.453,9.430 4.454,9.421 4.454,9.411 C3.162,8.619 2.377,7.232 2.377,5.695 C2.377,3.294 4.381,1.342 6.844,1.342 C8.093,1.342 9.339,1.963 10.204,2.924 C11.058,2.254 12.119,1.838 13.287,1.838 C16.057,1.838 18.311,4.093 18.311,6.863 C18.311,8.609 17.421,10.189 15.954,11.105 C19.277,12.393 22.038,15.320 22.038,19.362 C22.038,19.362 22.038,20.658 22.038,20.658 C22.038,20.658 5.668,20.658 5.668,20.658 ZM6.844,2.638 C5.095,2.638 3.673,4.010 3.673,5.695 C3.673,6.881 4.339,7.941 5.411,8.460 C5.656,8.578 5.800,8.836 5.774,9.106 C5.755,9.303 5.734,9.719 5.729,9.926 C5.721,10.204 5.536,10.448 5.269,10.528 C2.747,11.292 1.514,13.705 1.307,16.771 C1.307,16.771 5.546,16.771 5.546,16.771 C6.393,14.152 8.227,12.031 10.619,11.105 C9.152,10.189 8.262,8.609 8.262,6.863 C8.262,5.728 8.654,4.690 9.292,3.848 C8.670,3.123 7.744,2.638 6.844,2.638 ZM15.037,12.158 C14.769,12.077 14.584,11.833 14.577,11.552 C14.572,11.315 14.563,11.080 14.540,10.855 C14.514,10.584 14.657,10.326 14.902,10.207 C16.206,9.576 17.016,8.295 17.016,6.863 C17.016,4.807 15.343,3.134 13.287,3.134 C12.347,3.134 11.497,3.495 10.842,4.071 C10.825,4.277 10.746,4.472 10.551,4.582 C10.468,4.629 10.382,4.654 10.292,4.661 C9.836,5.279 9.558,6.037 9.558,6.863 C9.558,8.295 10.367,9.576 11.671,10.207 C11.914,10.326 12.060,10.583 12.032,10.854 C12.012,11.079 12.001,11.315 11.996,11.553 C11.988,11.833 11.803,12.077 11.536,12.158 C9.350,12.819 7.723,14.646 6.955,16.973 C7.066,17.088 7.137,17.245 7.137,17.419 C7.137,17.712 6.940,17.949 6.675,18.029 C6.585,18.463 6.520,18.908 6.489,19.362 C6.489,19.362 20.742,19.362 20.742,19.362 C20.508,15.944 17.929,13.033 15.037,12.158 Z" id="path-1" class="cls-4" fill-rule="evenodd"/>
</svg>
