<svg xmlns="http://www.w3.org/2000/svg" width="22" height="22" preserveAspectRatio="xMidYMid" viewBox="0 0 22 22"><path fill-rule="evenodd" d="M5.668 20.658a.647.647 0 0 1-.648-.648c0-.666.083-1.31.2-1.943H.183c-.358 0-.17-.938-.17-1.296 0-3.77 1.437-6.203 4.44-7.333l.002-.026a4.33 4.33 0 0 1-2.077-3.715c0-2.4 2.004-4.353 4.467-4.353 1.25 0 2.495.62 3.36 1.582a4.974 4.974 0 0 1 3.083-1.086 5.03 5.03 0 0 1 5.024 5.025c0 1.746-.89 3.326-2.356 4.242 3.323 1.288 6.084 4.215 6.084 8.257v1.296H5.668zm1.176-18.02c-1.75 0-3.17 1.372-3.17 3.057 0 1.186.665 2.246 1.737 2.765.246.118.39.376.364.646-.02.197-.04.613-.045.82a.648.648 0 0 1-.46.602c-2.523.764-3.756 3.177-3.963 6.243h4.24c.846-2.618 2.68-4.74 5.072-5.665A4.973 4.973 0 0 1 8.26 6.863c0-1.135.392-2.173 1.03-3.015-.622-.725-1.548-1.21-2.448-1.21zm8.193 9.52a.648.648 0 0 1-.46-.606 8.728 8.728 0 0 0-.037-.697.65.65 0 0 1 .362-.648 3.696 3.696 0 0 0 2.114-3.344 3.733 3.733 0 0 0-3.73-3.73c-.94 0-1.79.362-2.444.938-.017.207-.096.402-.29.512a.614.614 0 0 1-.26.08 3.696 3.696 0 0 0-.734 2.2c0 1.433.81 2.714 2.113 3.345.244.12.39.376.362.647-.02.225-.03.46-.036.7a.65.65 0 0 1-.46.604c-2.186.66-3.813 2.488-4.58 4.815a.638.638 0 0 1-.28 1.056c-.09.433-.156.878-.187 1.332H20.74c-.234-3.418-2.813-6.33-5.705-7.204z" class="cls-4"/></svg>