<svg xmlns="http://www.w3.org/2000/svg" width="22" height="22" preserveAspectRatio="xMidYMid" viewBox="0 0 22 22"><path fill-rule="evenodd" d="M4.8 21.485H1.85c-.526 0-1.002-.22-1.305-.602-.303-.38-.41-.89-.29-1.4l4.123-17.9C4.604.63 5.51-.092 6.486-.104l6.172-.003c1.417.012 2.597.106 3.613.288 1.096.208 2.014.548 2.814 1.043.828.517 1.46 1.196 1.883 2.02.566 1.046.646 2.434.642 3.168.005 2.687-1.17 5.033-3.305 6.6-2.412 1.773-5.473 2.71-8.852 2.71H8.61c-.156 0-.663.014-.705.203l-.99 3.898c-.215.94-1.124 1.66-2.114 1.66zm7.852-20.15l-6.157.003c-.3.004-.645.277-.716.574L1.655 19.808c-.018.08-.013.144.015.18.03.035.096.056.178.056H4.8c.313 0 .646-.26.714-.558l.99-3.893c.105-.476.525-1.312 2.105-1.312h.843c3.07 0 5.837-.838 8-2.426 1.78-1.31 2.72-3.19 2.715-5.443.005-1.002-.173-1.933-.476-2.494a3.707 3.707 0 0 0-1.367-1.467c-.645-.4-1.404-.678-2.316-.85-.93-.167-2.03-.254-3.358-.266zM10.222 11.4H9.5c-.497 0-.96-.222-1.27-.61a1.8 1.8 0 0 1-.333-1.51l.89-3.887c.208-.956 1.13-1.71 2.1-1.71l.962-.022c1.31 0 2.28.227 2.98.692.767.503 1.185 1.364 1.172 2.42.02 1.428-.543 2.61-1.627 3.4-1.1.803-2.535 1.228-4.152 1.228zm.665-6.277c-.287 0-.63.29-.694.584L9.303 9.6a.356.356 0 0 0 .054.292.17.17 0 0 0 .143.067h.723c1.31 0 2.45-.33 3.302-.953.7-.51 1.05-1.262 1.036-2.234.006-.406-.08-.93-.525-1.22-.453-.3-1.18-.45-2.17-.45l-.978.02z" class="cls-4"/></svg>