<svg xmlns="http://www.w3.org/2000/svg" xmlns:xlink="http://www.w3.org/1999/xlink" preserveAspectRatio="xMidYMid" width="22" height="22" viewBox="0 0 22 22">
    <path d="M4.801,21.485 C4.801,21.485 1.848,21.485 1.848,21.485 C1.322,21.485 0.846,21.266 0.543,20.883 C0.240,20.502 0.134,19.992 0.253,19.483 C0.253,19.483 4.376,1.582 4.376,1.582 C4.604,0.631 5.511,-0.091 6.486,-0.103 C6.486,-0.103 12.658,-0.106 12.658,-0.106 C14.075,-0.094 15.255,-0.000 16.271,0.182 C17.366,0.390 18.284,0.730 19.084,1.225 C19.912,1.742 20.545,2.421 20.967,3.245 C21.533,4.291 21.613,5.679 21.609,6.413 C21.615,9.100 20.441,11.446 18.305,13.014 C15.893,14.786 12.832,15.722 9.453,15.722 C9.453,15.722 8.609,15.722 8.609,15.722 C8.454,15.722 7.947,15.737 7.905,15.926 C7.905,15.926 6.914,19.824 6.914,19.824 C6.700,20.763 5.791,21.485 4.801,21.485 ZM12.652,1.334 C12.652,1.334 6.495,1.338 6.495,1.338 C6.195,1.342 5.850,1.615 5.779,1.912 C5.779,1.912 1.656,19.808 1.656,19.808 C1.638,19.888 1.643,19.952 1.671,19.987 C1.699,20.023 1.766,20.044 1.848,20.044 C1.848,20.044 4.801,20.044 4.801,20.044 C5.113,20.044 5.446,19.783 5.514,19.486 C5.514,19.486 6.504,15.593 6.504,15.593 C6.609,15.117 7.029,14.281 8.609,14.281 C8.609,14.281 9.453,14.281 9.453,14.281 C12.524,14.281 15.290,13.442 17.452,11.854 C19.234,10.545 20.173,8.663 20.168,6.411 C20.173,5.408 19.995,4.477 19.692,3.916 C19.383,3.313 18.925,2.824 18.325,2.449 C17.680,2.050 16.921,1.772 16.009,1.599 C15.081,1.433 13.981,1.346 12.652,1.334 ZM10.223,11.400 C10.223,11.400 9.500,11.400 9.500,11.400 C9.003,11.400 8.540,11.178 8.230,10.790 C7.901,10.378 7.776,9.813 7.897,9.280 C7.897,9.280 8.787,5.393 8.787,5.393 C8.995,4.437 9.918,3.682 10.887,3.682 C10.887,3.682 11.849,3.661 11.849,3.661 C11.849,3.661 11.850,3.661 11.850,3.661 C13.161,3.661 14.130,3.887 14.830,4.352 C15.597,4.855 16.015,5.716 16.002,6.772 C16.021,8.200 15.459,9.382 14.375,10.172 C13.276,10.975 11.840,11.400 10.223,11.400 ZM10.887,5.123 C10.600,5.123 10.257,5.412 10.193,5.707 C10.193,5.707 9.302,9.600 9.302,9.600 C9.274,9.728 9.312,9.835 9.357,9.892 C9.404,9.951 9.459,9.959 9.500,9.959 C9.500,9.959 10.223,9.959 10.223,9.959 C11.532,9.959 12.674,9.630 13.525,9.007 C14.226,8.497 14.574,7.745 14.561,6.773 C14.566,6.367 14.479,5.844 14.035,5.554 C13.582,5.253 12.854,5.102 11.865,5.102 C11.865,5.102 10.887,5.123 10.887,5.123 Z" id="path-1" class="cls-4" fill-rule="evenodd"/>
</svg>
