<svg xmlns="http://www.w3.org/2000/svg" xmlns:xlink="http://www.w3.org/1999/xlink" preserveAspectRatio="xMidYMid" width="22" height="22" viewBox="0 0 22 22">
    <path d="M11.056,0.000 C5.022,0.000 1.980,4.326 1.980,7.934 C1.980,10.118 2.807,12.062 4.581,12.786 C4.872,12.905 5.132,12.791 5.217,12.469 C5.275,12.245 5.414,11.683 5.476,11.449 C5.560,11.132 5.528,11.019 5.292,10.741 C4.782,10.138 4.455,9.357 4.455,8.250 C4.455,5.041 6.856,2.167 10.708,2.167 C14.118,2.167 15.992,4.252 15.992,7.034 C15.992,10.696 14.372,13.787 11.966,13.787 C10.638,13.787 9.643,12.689 9.961,11.341 C10.343,9.732 11.082,7.995 11.082,6.834 C11.082,5.795 10.525,4.928 9.369,4.928 C8.011,4.928 6.921,6.333 6.921,8.215 C6.921,9.413 7.325,10.224 7.325,10.224 C7.325,10.224 5.936,16.114 5.692,17.146 C5.206,19.199 5.619,21.718 5.653,21.971 C5.674,22.123 5.868,22.159 5.956,22.045 C6.081,21.881 7.698,19.884 8.249,17.888 C8.404,17.324 9.142,14.397 9.142,14.397 C9.583,15.239 10.873,15.980 12.244,15.980 C16.327,15.980 19.097,12.258 19.097,7.276 C19.097,3.509 15.906,0.000 11.056,0.000 Z" id="path-1" class="cls-4" fill-rule="evenodd"/>
</svg>
