<svg xmlns="http://www.w3.org/2000/svg" width="22" height="22" preserveAspectRatio="xMidYMid" viewBox="0 0 22 22"><path fill-rule="evenodd" d="M11.056 0C5.022 0 1.98 4.326 1.98 7.934c0 2.184.827 4.128 2.6 4.852.292.12.552.005.637-.317.058-.225.197-.787.26-1.02.083-.318.05-.43-.185-.71-.51-.602-.837-1.383-.837-2.49 0-3.21 2.4-6.083 6.253-6.083 3.41 0 5.284 2.085 5.284 4.867 0 3.662-1.62 6.753-4.026 6.753-1.328 0-2.323-1.098-2.005-2.446.383-1.608 1.122-3.345 1.122-4.506 0-1.04-.557-1.906-1.713-1.906-1.36 0-2.45 1.405-2.45 3.287 0 1.198.405 2.01.405 2.01l-1.633 6.92c-.486 2.054-.073 4.573-.04 4.826.022.153.216.19.304.075.125-.164 1.742-2.16 2.293-4.157.154-.564.892-3.49.892-3.49.44.84 1.73 1.582 3.102 1.582 4.083 0 6.853-3.722 6.853-8.704 0-3.767-3.19-7.276-8.04-7.276z" class="cls-4"/></svg>