<svg xmlns="http://www.w3.org/2000/svg" width="22" height="22" preserveAspectRatio="xMidYMid" viewBox="0 0 22 22"><path fill-rule="evenodd" d="M11 21.966C4.953 21.966.034 17.046.034 11 .034 4.953 4.954.034 11 .034c6.047 0 10.966 4.92 10.966 10.966 0 6.047-4.92 10.966-10.966 10.966zm0-20.47C5.76 1.496 1.496 5.76 1.496 11c0 5.24 4.264 9.504 9.504 9.504 5.24 0 9.504-4.264 9.504-9.504 0-5.24-4.264-9.504-9.504-9.504zM8.076 6.614l7.31 4.56-7.31 4.212V6.614zm1.462 5.848L12.462 11 9.538 9.652v2.81z" class="cls-4"/></svg>