<svg xmlns="http://www.w3.org/2000/svg" xmlns:xlink="http://www.w3.org/1999/xlink" preserveAspectRatio="xMidYMid" width="22" height="22" viewBox="0 0 22 22">
    <path d="M20.409,21.987 C20.409,10.939 10.939,1.469 -0.109,1.469 C-0.109,1.469 -0.109,-0.109 -0.109,-0.109 C12.517,-0.109 21.987,9.361 21.987,21.987 C21.987,21.987 20.409,21.987 20.409,21.987 ZM14.008,21.987 C14.008,21.987 12.429,21.987 12.429,21.987 C12.429,14.096 7.782,9.449 -0.109,9.449 C-0.109,9.449 -0.109,7.870 -0.109,7.870 C7.782,7.870 14.008,14.096 14.008,21.987 ZM2.258,17.252 C3.566,17.252 4.626,18.312 4.626,19.620 C4.626,20.927 3.566,21.987 2.258,21.987 C0.951,21.987 -0.109,20.927 -0.109,19.620 C-0.109,18.312 0.951,17.252 2.258,17.252 Z" id="path-1" class="cls-4" fill-rule="evenodd"/>
</svg>
