<svg xmlns="http://www.w3.org/2000/svg" width="22" height="22" preserveAspectRatio="xMidYMid" viewBox="0 0 22 22"><path fill-rule="evenodd" d="M16.016 17.02V15.68c2.675 0 4.682-2.318 4.682-4.9 0-2.58-2.007-4.464-4.682-4.464V4.98c4.013 0 6.02 2.483 6.02 5.802 0 3.32-2.007 6.237-6.02 6.237zM2.85 15.68c-1.1 0-2.885-1.4-2.885-2.5V8.734c0-1.193 1.876-2.416 2.884-2.416h3.975L13.34.968v20.064l-6.5-5.35H2.85zm4.48-1.17l4.673 3.845V3.643L7.35 7.47a.673.673 0 0 1-.463.186H2.64c-.5 0-1.324.647-1.338.903v4.446c.008.38.958 1.33 1.338 1.338h4.247c.163 0 .32.06.444.17zm11.354-3.547c0 1.37-1.33 2.04-2.668 2.04V11.67s1.38-.037 1.38-.67-1.38-.67-1.38-.67V8.995c1.338 0 2.668.6 2.668 1.97z" class="cls-4"/></svg>