<svg xmlns="http://www.w3.org/2000/svg" xmlns:xlink="http://www.w3.org/1999/xlink" preserveAspectRatio="xMidYMid" width="22" height="22" viewBox="0 0 22 22">
    <path d="M16.016,17.019 C16.016,17.019 16.016,15.682 16.016,15.682 C18.691,15.682 20.698,13.364 20.698,10.782 C20.698,8.202 18.691,6.318 16.016,6.318 C16.016,6.318 16.016,4.981 16.016,4.981 C20.029,4.981 22.035,7.463 22.035,10.782 C22.035,14.102 20.029,17.019 16.016,17.019 ZM2.849,15.682 C1.749,15.682 -0.035,14.282 -0.035,13.182 C-0.035,13.182 -0.035,8.734 -0.035,8.734 C-0.035,7.541 1.841,6.318 2.849,6.318 C2.849,6.318 6.825,6.318 6.825,6.318 C6.825,6.318 13.341,0.968 13.341,0.968 C13.341,0.968 13.341,21.032 13.341,21.032 C13.341,21.032 6.841,15.682 6.841,15.682 C6.841,15.682 2.849,15.682 2.849,15.682 ZM7.331,14.513 C7.331,14.513 12.003,18.357 12.003,18.357 C12.003,18.357 12.003,3.643 12.003,3.643 C12.003,3.643 7.351,7.469 7.351,7.469 C7.225,7.589 7.059,7.656 6.887,7.656 C6.887,7.656 2.640,7.656 2.640,7.656 C2.141,7.656 1.316,8.303 1.302,8.559 C1.302,8.559 1.302,13.006 1.302,13.006 C1.310,13.386 2.260,14.336 2.640,14.344 C2.640,14.344 6.887,14.344 6.887,14.344 C7.050,14.344 7.208,14.404 7.331,14.513 ZM18.684,10.965 C18.684,12.335 17.354,13.006 16.016,13.006 C16.016,13.006 16.016,11.669 16.016,11.669 C16.016,11.669 17.395,11.633 17.395,11.000 C17.395,10.367 16.016,10.331 16.016,10.331 C16.016,10.331 16.016,8.994 16.016,8.994 C17.354,8.994 18.684,9.594 18.684,10.965 Z" id="path-1" class="cls-4" fill-rule="evenodd"/>
</svg>
