<svg xmlns="http://www.w3.org/2000/svg" xmlns:xlink="http://www.w3.org/1999/xlink" preserveAspectRatio="xMidYMid" width="22" height="22" viewBox="0 0 22 22">
    <path d="M21.551,18.087 C20.769,20.347 18.907,21.591 16.309,21.591 C15.382,21.591 14.383,21.434 13.336,21.125 C12.433,21.425 11.399,21.584 10.328,21.584 C7.329,21.584 4.616,20.433 3.415,18.652 C1.668,16.061 0.018,13.615 0.837,10.265 C-0.055,8.341 -0.758,4.556 2.353,2.392 C3.693,1.460 5.048,0.986 6.381,0.986 C8.133,0.986 9.403,1.812 10.024,2.325 C11.008,1.873 12.189,1.627 13.407,1.627 C15.500,1.627 17.540,2.345 19.150,3.646 C20.187,4.486 21.126,6.629 21.333,8.633 C21.416,9.442 21.407,10.509 20.990,11.386 C21.723,12.251 22.853,14.328 21.551,18.087 ZM19.496,11.033 C19.842,10.609 19.980,9.790 19.876,8.783 C19.697,7.043 18.879,5.311 18.229,4.785 C16.879,3.694 15.166,3.091 13.407,3.091 C12.232,3.091 11.116,3.359 10.267,3.845 C10.267,3.845 10.006,3.934 10.006,3.934 C10.006,3.934 9.626,3.988 9.626,3.988 C9.626,3.988 9.363,3.702 9.363,3.702 C9.316,3.652 8.188,2.451 6.381,2.451 C5.353,2.451 4.279,2.836 3.189,3.593 C0.161,5.701 2.177,9.683 2.264,9.850 C2.264,9.850 2.397,10.107 2.397,10.107 C2.397,10.107 2.319,10.385 2.319,10.385 C1.522,13.226 2.891,15.257 4.625,17.828 C5.537,19.180 7.880,20.119 10.328,20.119 C11.322,20.119 12.269,19.962 13.066,19.667 C13.066,19.667 13.301,19.580 13.301,19.580 C13.301,19.580 13.541,19.656 13.541,19.656 C14.531,19.968 15.462,20.127 16.309,20.127 C18.291,20.127 19.590,19.278 20.167,17.610 C21.556,13.598 19.710,12.147 19.631,12.087 C19.631,12.087 19.024,11.629 19.024,11.629 C19.024,11.629 19.496,11.033 19.496,11.033 ZM11.314,10.622 C13.474,10.858 16.433,10.960 16.433,13.690 C16.433,16.201 13.416,16.824 12.039,16.824 C8.074,16.824 6.792,14.269 6.792,12.805 C6.792,12.805 8.256,12.805 8.256,12.805 C8.256,14.269 8.914,15.359 12.039,15.359 C12.901,15.359 14.968,15.085 14.968,13.738 C14.968,12.518 13.844,12.333 11.155,12.040 C9.110,11.817 6.792,11.631 6.792,9.543 C6.792,7.082 8.263,5.532 11.291,5.532 C15.021,5.532 15.578,6.947 15.578,8.411 C15.578,8.411 14.114,8.411 14.114,8.411 C14.114,8.411 14.114,7.031 11.291,7.031 C8.488,7.031 8.256,8.262 8.256,9.417 C8.256,10.138 9.467,10.421 11.314,10.622 Z" id="path-1" class="cls-4" fill-rule="evenodd"/>
</svg>
