<svg xmlns="http://www.w3.org/2000/svg" width="22" height="22" preserveAspectRatio="xMidYMid" viewBox="0 0 22 22"><path fill-rule="evenodd" d="M21.55 18.087c-.78 2.26-2.643 3.504-5.24 3.504-.928 0-1.927-.156-2.974-.465-.903.3-1.937.46-3.008.46-3 0-5.712-1.152-6.913-2.933-1.747-2.59-3.397-5.037-2.578-8.387-.892-1.924-1.595-5.71 1.516-7.873C3.693 1.46 5.048.986 6.38.986c1.753 0 3.023.826 3.644 1.34.984-.453 2.165-.7 3.383-.7 2.093 0 4.133.72 5.743 2.02 1.037.84 1.976 2.983 2.183 4.987.083.81.074 1.876-.343 2.753.733.865 1.863 2.942.56 6.7zm-2.054-7.054c.346-.424.484-1.243.38-2.25-.18-1.74-.997-3.472-1.647-3.998a7.693 7.693 0 0 0-4.823-1.694c-1.175 0-2.29.27-3.14.755l-.26.09-.38.053-.264-.286c-.047-.05-1.175-1.25-2.982-1.25-1.027 0-2.1.384-3.19 1.14-3.03 2.11-1.013 6.09-.926 6.258l.133.257-.078.278c-.798 2.84.57 4.872 2.305 7.443.912 1.352 3.255 2.29 5.703 2.29.994 0 1.94-.156 2.738-.45l.235-.088.24.076c.99.312 1.922.47 2.77.47 1.98 0 3.28-.848 3.857-2.516 1.39-4.012-.457-5.463-.536-5.523l-.606-.458.472-.597zm-8.182-.41c2.16.235 5.12.337 5.12 3.067 0 2.51-3.018 3.134-4.395 3.134-3.966 0-5.248-2.555-5.248-4.02h1.464c0 1.465.658 2.555 3.783 2.555.86 0 2.928-.275 2.928-1.622 0-1.22-1.124-1.405-3.813-1.698-2.045-.223-4.363-.41-4.363-2.497 0-2.46 1.47-4.01 4.5-4.01 3.73 0 4.286 1.414 4.286 2.878h-1.464s0-1.38-2.823-1.38c-2.802 0-3.034 1.232-3.034 2.387 0 .72 1.21 1.004 3.058 1.205z" class="cls-4"/></svg>