<svg xmlns="http://www.w3.org/2000/svg" xmlns:xlink="http://www.w3.org/1999/xlink" preserveAspectRatio="xMidYMid" width="22" height="22" viewBox="0 0 22 22">
    <path d="M18.926,16.500 C18.926,16.500 11.361,16.500 11.361,16.500 C10.633,16.500 10.313,15.799 10.313,15.452 C10.313,15.452 10.313,7.067 10.313,7.067 C10.313,6.762 10.993,6.019 11.361,6.019 C12.016,6.019 12.779,6.019 13.457,6.019 C15.866,6.019 17.778,7.812 18.204,10.177 C18.425,10.129 18.661,10.104 18.909,10.104 C20.555,10.104 21.894,11.695 21.894,13.356 C21.894,14.953 20.625,16.500 18.926,16.500 ZM18.909,10.844 C18.581,10.844 18.289,10.897 18.039,11.001 C18.039,11.001 17.572,11.196 17.572,11.196 C17.572,11.196 17.528,10.692 17.528,10.692 C17.333,8.487 15.637,7.067 13.457,7.067 C12.901,7.067 11.361,7.264 11.361,8.116 C11.361,8.116 11.361,14.404 11.361,14.404 C11.361,15.059 11.558,15.452 12.409,15.452 C12.409,15.452 18.698,15.452 18.698,15.452 C19.952,15.452 21.140,14.525 21.140,13.303 C21.140,12.050 20.147,10.844 18.909,10.844 ZM8.217,15.452 C8.217,15.452 8.217,8.116 8.217,8.116 C8.217,8.116 8.741,7.440 8.741,7.440 C8.741,7.440 9.265,8.116 9.265,8.116 C9.265,8.116 9.265,15.452 9.265,15.452 C9.265,15.452 8.741,16.474 8.741,16.474 C8.741,16.474 8.217,15.452 8.217,15.452 ZM6.121,15.452 C6.121,15.452 6.121,9.164 6.121,9.164 C6.121,9.164 6.606,8.476 6.606,8.476 C6.606,8.476 7.169,9.164 7.169,9.164 C7.169,9.164 7.169,15.452 7.169,15.452 C7.169,15.452 6.606,16.487 6.606,16.487 C6.606,16.487 6.121,15.452 6.121,15.452 ZM4.025,15.452 C4.025,15.452 4.025,9.164 4.025,9.164 C4.025,9.164 4.488,8.415 4.488,8.415 C4.488,8.415 5.073,9.164 5.073,9.164 C5.073,9.164 5.073,15.452 5.073,15.452 C5.073,15.452 4.511,16.205 4.511,16.205 C4.511,16.205 4.025,15.452 4.025,15.452 ZM1.929,15.452 C1.929,15.452 1.929,12.308 1.929,12.308 C1.929,12.308 2.491,11.512 2.491,11.512 C2.491,11.512 2.977,12.308 2.977,12.308 C2.977,12.308 2.977,15.452 2.977,15.452 C2.977,15.452 2.453,16.243 2.453,16.243 C2.453,16.243 1.929,15.452 1.929,15.452 ZM0.336,15.470 C0.203,15.470 -0.167,15.364 -0.167,15.233 C-0.167,15.233 -0.167,13.812 -0.167,13.812 C-0.167,13.812 0.013,12.432 0.013,12.432 C0.013,12.432 0.385,12.167 0.518,12.167 C0.652,12.167 0.727,12.432 0.727,12.432 C0.727,12.432 0.869,13.812 0.869,13.812 C0.869,13.812 0.699,15.233 0.699,15.233 C0.699,15.364 0.470,15.470 0.336,15.470 Z" id="path-1" class="cls-4" fill-rule="evenodd"/>
</svg>
