<svg xmlns="http://www.w3.org/2000/svg" width="39" height="43" viewBox="0 0 39 43"><path fill="#4DB7F5" fill-rule="evenodd" d="M38.07 10.41L28.69.84c-.41-.42-.92-.69-1.49-.79-1.51-.28-2.98.73-3.25 2.25l-.42 2.31-1.06 5.81-4 21.97c-1.47-2.09-4.09-3.76-7.27-4.34C5.8 27.07.8 29.57.06 33.64c-.74 4.06 3.06 8.16 8.46 9.15 5.28.96 10.16-1.41 11.07-5.31.16-.15.29-.34.33-.57l4.35-23.89 6.87 7.38 2.21 6.36c.2.58.68.99 1.28 1.1.93.17 1.79-.42 1.95-1.35l2.4-13.15c.19-1.07-.15-2.17-.91-2.95zM8.92 40.59c-4.19-.77-7.18-3.7-6.66-6.55.52-2.85 4.35-4.55 8.54-3.79 4.19.77 7.18 3.71 6.66 6.56-.51 2.84-4.35 4.54-8.54 3.78zm25.84-16.57l-1.58-4.57a1.02 1.02 0 0 0-.24-.4l-8.17-8.78.96-5.26.42-2.31c.07-.38.42-.5.65-.45.11.02.21.07.3.16l9.38 9.57c.25.26.36.62.3.98l-2.02 11.06z"/></svg>