<?xml version="1.0" encoding="utf-8"?>
<svg xmlns="http://www.w3.org/2000/svg"
	xmlns:xlink="http://www.w3.org/1999/xlink"
	width="39px" height="43px" viewBox="0 0 39 43">
<path fill="rgb(77,183,245)" fill-rule="evenodd" d="M 38.07 10.41C 38.07 10.41 28.69 0.84 28.69 0.84 28.28 0.42 27.77 0.15 27.2 0.05 25.69-0.23 24.22 0.78 23.95 2.3 23.95 2.3 23.53 4.61 23.53 4.61 23.53 4.61 22.47 10.42 22.47 10.42 22.47 10.42 18.47 32.39 18.47 32.39 17 30.3 14.38 28.63 11.2 28.05 5.8 27.07 0.8 29.57 0.06 33.64-0.68 37.7 3.12 41.8 8.52 42.79 13.8 43.75 18.68 41.38 19.59 37.48 19.75 37.33 19.88 37.14 19.92 36.91 19.92 36.91 24.27 13.02 24.27 13.02 24.27 13.02 31.14 20.4 31.14 20.4 31.14 20.4 33.35 26.76 33.35 26.76 33.55 27.34 34.03 27.75 34.63 27.86 35.56 28.03 36.42 27.44 36.58 26.51 36.58 26.51 38.98 13.36 38.98 13.36 39.17 12.29 38.83 11.19 38.07 10.41ZM 8.92 40.59C 4.73 39.82 1.74 36.89 2.26 34.04 2.78 31.19 6.61 29.49 10.8 30.25 14.99 31.02 17.98 33.96 17.46 36.81 16.95 39.65 13.11 41.35 8.92 40.59ZM 34.76 24.02C 34.76 24.02 33.18 19.45 33.18 19.45 33.13 19.3 33.05 19.16 32.94 19.05 32.94 19.05 24.77 10.27 24.77 10.27 24.77 10.27 25.73 5.01 25.73 5.01 25.73 5.01 26.15 2.7 26.15 2.7 26.22 2.32 26.57 2.2 26.8 2.25 26.91 2.27 27.01 2.32 27.1 2.41 27.1 2.41 36.48 11.98 36.48 11.98 36.73 12.24 36.84 12.6 36.78 12.96 36.78 12.96 34.76 24.02 34.76 24.02Z"/>
</svg>