<svg xmlns="http://www.w3.org/2000/svg" width="22" height="22" preserveAspectRatio="xMidYMid" viewBox="0 0 22 22"><path fill-rule="evenodd" d="M18.926 16.5H11.36c-.727 0-1.047-.7-1.047-1.048V7.067c0-.305.68-1.048 1.048-1.048h2.097c2.41 0 4.32 1.792 4.747 4.157.22-.048.457-.073.705-.073 1.645 0 2.984 1.59 2.984 3.252 0 1.597-1.27 3.144-2.968 3.144zm-.017-5.656c-.33 0-.62.053-.87.157l-.468.196-.044-.504c-.195-2.205-1.89-3.625-4.07-3.625-.557 0-2.097.197-2.097 1.05v6.287c0 .655.198 1.048 1.05 1.048h6.288c1.254 0 2.442-.927 2.442-2.15 0-1.252-.993-2.458-2.23-2.458zM8.216 15.452V8.116l.524-.676.525.676v7.336l-.524 1.022-.523-1.022zm-2.096 0V9.164l.486-.688.563.688v6.288l-.564 1.035-.485-1.035zm-2.095 0V9.164l.463-.75.585.75v6.288l-.562.753-.485-.753zm-2.096 0v-3.144l.56-.796.487.796v3.144l-.524.79-.524-.79zm-1.594.018c-.133 0-.503-.106-.503-.237v-1.42l.18-1.38s.372-.266.505-.266c.134 0 .21.265.21.265l.14 1.38-.17 1.42c0 .132-.228.238-.362.238z" class="cls-4"/></svg>