<svg xmlns="http://www.w3.org/2000/svg" xmlns:xlink="http://www.w3.org/1999/xlink" preserveAspectRatio="xMidYMid" width="22" height="22" viewBox="0 0 22 22">
  <path d="M10.835,21.659 C4.848,21.659 -0.006,16.805 -0.006,10.818 C-0.006,4.830 4.848,-0.024 10.835,-0.024 C16.822,-0.024 21.677,4.830 21.677,10.818 C21.677,16.805 16.822,21.659 10.835,21.659 ZM10.835,1.332 C5.605,1.332 1.349,5.587 1.349,10.818 C1.349,16.048 5.605,20.304 10.835,20.304 C16.066,20.304 20.321,16.048 20.321,10.818 C20.321,5.587 16.066,1.332 10.835,1.332 ZM10.617,8.577 C8.716,8.577 5.786,8.573 5.774,8.577 C5.347,8.710 4.893,8.993 4.760,8.568 C4.626,8.141 4.865,7.687 5.291,7.553 C5.352,7.534 7.724,6.664 9.834,6.664 C15.137,6.664 16.894,7.760 16.616,8.577 C16.368,9.304 14.450,8.577 10.617,8.577 ZM5.764,11.652 C5.815,11.636 7.477,10.704 10.197,10.704 C13.189,10.704 15.860,11.675 15.643,12.923 C15.643,12.923 14.054,12.480 12.406,12.399 C7.742,12.170 5.348,12.578 5.348,12.578 C5.121,11.967 5.764,11.652 5.764,11.652 ZM10.478,14.612 C12.573,14.746 14.104,15.341 14.104,16.239 C14.104,16.688 13.000,16.126 10.006,16.295 C8.606,16.374 7.008,16.576 6.975,15.569 C6.957,15.039 8.933,14.513 10.478,14.612 Z" id="path-1" class="cls-2" fill-rule="evenodd"/>
</svg>
