<svg xmlns="http://www.w3.org/2000/svg" width="22" height="22" preserveAspectRatio="xMidYMid" viewBox="0 0 22 22"><path fill-rule="evenodd" d="M10.835 21.66c-5.987 0-10.84-4.855-10.84-10.842 0-5.988 4.853-10.842 10.84-10.842S21.677 4.83 21.677 10.818c0 5.987-4.855 10.84-10.842 10.84zm0-20.328c-5.23 0-9.486 4.255-9.486 9.486 0 5.23 4.255 9.486 9.485 9.486 5.23 0 9.486-4.256 9.486-9.486s-4.254-9.486-9.485-9.486zm-.218 7.245c-1.9 0-4.83-.004-4.843 0-.427.133-.88.416-1.014-.01a.81.81 0 0 1 .53-1.014c.062-.02 2.434-.89 4.544-.89 5.303 0 7.06 1.097 6.782 1.914-.248.727-2.166 0-6 0zm-4.853 3.075c.05-.016 1.713-.948 4.433-.948 2.992 0 5.663.97 5.446 2.22 0 0-1.59-.444-3.237-.525-4.664-.23-7.058.178-7.058.178-.227-.61.416-.926.416-.926zm4.714 2.96c2.095.134 3.626.73 3.626 1.627 0 .448-1.104-.114-4.098.055-1.4.08-2.998.28-3.03-.726-.02-.53 1.957-1.057 3.502-.958z" class="cls-2"/></svg>