<svg xmlns="http://www.w3.org/2000/svg" xmlns:xlink="http://www.w3.org/1999/xlink" preserveAspectRatio="xMidYMid" width="22" height="22" viewBox="0 0 22 22">
  <path d="M18.212,1.212 C18.212,1.212 21.735,1.212 21.735,1.212 C21.735,1.212 21.735,-0.063 21.735,-0.063 C21.735,-0.063 17.223,-0.063 17.223,-0.063 C17.223,-0.063 15.362,5.035 15.362,5.035 C15.362,5.035 -0.001,5.035 -0.001,5.035 C-0.001,5.035 2.372,13.069 2.372,13.069 C2.516,13.631 3.311,13.957 3.891,13.957 C3.891,13.957 13.450,13.957 13.450,13.957 C13.450,13.957 15.282,17.183 15.282,17.183 C14.678,17.500 13.498,17.621 13.498,19.055 C13.498,19.055 8.103,19.055 8.103,19.055 C8.103,17.621 6.901,16.852 5.809,16.852 C4.474,16.852 3.374,17.990 3.374,19.325 C3.374,20.661 4.460,21.883 5.795,21.883 C7.555,21.883 8.140,20.330 8.140,20.330 C8.140,20.330 13.462,20.330 13.462,20.330 C13.462,20.330 14.041,21.843 16.179,21.843 C17.572,21.843 18.174,20.815 18.389,19.923 C18.732,18.498 17.573,17.138 16.279,16.880 C16.279,16.880 14.700,12.687 14.700,12.687 C14.700,12.687 16.637,4.769 16.637,4.769 C16.637,4.769 18.212,1.212 18.212,1.212 ZM5.795,20.585 C5.023,20.585 4.393,19.956 4.393,19.183 C4.393,18.410 5.023,17.781 5.795,17.781 C6.569,17.781 7.198,18.410 7.198,19.183 C7.198,19.956 6.569,20.585 5.795,20.585 ZM17.208,19.183 C17.208,19.956 16.579,20.585 15.806,20.585 C15.033,20.585 14.404,19.956 14.404,19.183 C14.404,18.410 15.033,17.781 15.806,17.781 C16.579,17.781 17.208,18.410 17.208,19.183 ZM13.503,12.683 C13.503,12.683 3.573,12.683 3.573,12.683 C3.573,12.683 1.342,6.310 1.342,6.310 C1.342,6.310 15.150,6.310 15.150,6.310 C15.150,6.310 13.503,12.683 13.503,12.683 Z" id="path-1" class="cls-2" fill-rule="evenodd"/>
</svg>
