<svg xmlns="http://www.w3.org/2000/svg" width="22" height="22" preserveAspectRatio="xMidYMid" viewBox="0 0 22 22"><path fill-rule="evenodd" d="M18.212 1.212h3.523V-.063h-4.512l-1.86 5.098H-.002L2.37 13.07c.144.56.94.887 1.52.887h9.558l1.832 3.226c-.604.317-1.784.438-1.784 1.872H8.103c0-1.434-1.202-2.203-2.294-2.203-1.336 0-2.436 1.138-2.436 2.473 0 1.336 1.086 2.558 2.42 2.558 1.76 0 2.346-1.553 2.346-1.553h5.322s.58 1.513 2.717 1.513c1.392 0 1.994-1.028 2.21-1.92.342-1.425-.817-2.785-2.11-3.043l-1.58-4.193 1.937-7.918 1.575-3.558zM5.795 20.585c-.772 0-1.402-.63-1.402-1.402 0-.773.63-1.402 1.402-1.402.774 0 1.403.63 1.403 1.403s-.63 1.402-1.403 1.402zm11.413-1.402c0 .773-.63 1.402-1.402 1.402-.773 0-1.402-.63-1.402-1.402 0-.773.63-1.402 1.402-1.402.773 0 1.402.63 1.402 1.403zm-3.705-6.5h-9.93L1.343 6.31H15.15l-1.647 6.373z" class="cls-2"/></svg>