<svg xmlns="http://www.w3.org/2000/svg" xmlns:xlink="http://www.w3.org/1999/xlink" preserveAspectRatio="xMidYMid" width="22" height="22" viewBox="0 0 22 22">
    <path d="M19.241,16.494 C19.241,16.494 2.759,16.494 2.759,16.494 C1.242,16.494 0.012,15.265 0.012,13.747 C0.012,13.747 0.012,8.253 0.012,8.253 C0.012,6.735 1.242,5.506 2.759,5.506 C2.759,5.506 19.241,5.506 19.241,5.506 C20.758,5.506 21.988,6.735 21.988,8.253 C21.988,8.253 21.988,13.747 21.988,13.747 C21.988,15.265 20.758,16.494 19.241,16.494 ZM2.759,6.880 C2.001,6.880 1.386,7.495 1.386,8.253 C1.386,8.253 1.386,13.747 1.386,13.747 C1.386,14.505 2.001,15.120 2.759,15.120 C2.759,15.120 19.241,15.120 19.241,15.120 C19.999,15.120 20.614,14.505 20.614,13.747 C20.614,13.747 20.614,8.253 20.614,8.253 C20.614,7.495 19.999,6.880 19.241,6.880 C19.241,6.880 2.759,6.880 2.759,6.880 Z" id="path-1" class="cls-4" fill-rule="evenodd"/>
</svg>
