<svg xmlns="http://www.w3.org/2000/svg" xmlns:xlink="http://www.w3.org/1999/xlink" preserveAspectRatio="xMidYMid" width="22" height="22" viewBox="0 0 22 22">
    <path d="M17.252,12.075 C14.887,12.075 12.969,10.157 12.969,7.791 C12.969,5.426 14.887,3.508 17.252,3.508 C19.618,3.508 21.536,5.426 21.536,7.791 C21.536,10.157 19.618,12.075 17.252,12.075 ZM17.252,4.579 C15.481,4.579 14.040,6.020 14.040,7.791 C14.040,9.563 15.481,11.004 17.252,11.004 C19.024,11.004 20.465,9.563 20.465,7.791 C20.465,6.020 19.024,4.579 17.252,4.579 ZM0.043,18.500 C0.043,18.500 7.615,5.650 7.615,5.650 C7.615,5.650 15.187,18.500 15.187,18.500 C15.187,18.500 0.043,18.500 0.043,18.500 ZM1.916,17.429 C1.916,17.429 13.313,17.429 13.313,17.429 C13.313,17.429 7.615,7.759 7.615,7.759 C7.615,7.759 1.916,17.429 1.916,17.429 Z" id="path-1" class="cls-4" fill-rule="evenodd"/>
</svg>
