<svg xmlns="http://www.w3.org/2000/svg" xmlns:xlink="http://www.w3.org/1999/xlink" preserveAspectRatio="xMidYMid" width="22" height="22" viewBox="0 0 22 22">
    <path d="M19.881,0.638 C19.881,0.638 11.740,0.638 11.740,0.638 C11.740,0.638 10.260,0.638 10.260,0.638 C10.260,0.638 2.119,0.638 2.119,0.638 C0.895,0.638 -0.102,1.635 -0.102,2.859 C-0.102,2.859 -0.102,8.040 -0.102,8.040 C-0.102,8.040 1.379,8.040 1.379,8.040 C1.379,8.040 1.379,2.859 1.379,2.859 C1.379,2.450 1.710,2.119 2.119,2.119 C2.119,2.119 10.260,2.119 10.260,2.119 C10.260,2.119 10.260,19.881 10.260,19.881 C10.260,19.881 5.819,19.881 5.819,19.881 C5.819,19.881 5.819,21.362 5.819,21.362 C5.819,21.362 16.181,21.362 16.181,21.362 C16.181,21.362 16.181,19.881 16.181,19.881 C16.181,19.881 11.740,19.881 11.740,19.881 C11.740,19.881 11.740,2.119 11.740,2.119 C11.740,2.119 19.881,2.119 19.881,2.119 C20.290,2.119 20.621,2.450 20.621,2.859 C20.621,2.859 20.621,8.040 20.621,8.040 C20.621,8.040 22.102,8.040 22.102,8.040 C22.102,8.040 22.102,2.859 22.102,2.859 C22.102,1.635 21.105,0.638 19.881,0.638 Z" id="path-1" class="cls-4" fill-rule="evenodd"/>
</svg>
