<svg xmlns="http://www.w3.org/2000/svg" xmlns:xlink="http://www.w3.org/1999/xlink" preserveAspectRatio="xMidYMid" width="22" height="22" viewBox="0 0 22 22">
    <path d="M-0.104,21.179 C-0.104,21.179 -0.104,19.328 -0.104,19.328 C-0.104,19.328 22.104,19.328 22.104,19.328 C22.104,19.328 22.104,21.179 22.104,21.179 C22.104,21.179 -0.104,21.179 -0.104,21.179 ZM-0.104,10.075 C-0.104,10.075 22.104,10.075 22.104,10.075 C22.104,10.075 22.104,11.926 22.104,11.926 C22.104,11.926 -0.104,11.926 -0.104,11.926 C-0.104,11.926 -0.104,10.075 -0.104,10.075 ZM-0.104,0.821 C-0.104,0.821 22.104,0.821 22.104,0.821 C22.104,0.821 22.104,2.672 22.104,2.672 C22.104,2.672 -0.104,2.672 -0.104,2.672 C-0.104,2.672 -0.104,0.821 -0.104,0.821 Z" id="path-1" class="cls-4" fill-rule="evenodd"/>
</svg>
