<svg xmlns="http://www.w3.org/2000/svg" xmlns:xlink="http://www.w3.org/1999/xlink" preserveAspectRatio="xMidYMid" width="22" height="22" viewBox="0 0 22 22">
    <path d="M21.976,4.013 C21.834,3.845 21.599,3.789 21.398,3.880 C21.202,3.967 21.004,4.046 20.802,4.117 C21.097,3.708 21.329,3.253 21.484,2.766 C21.546,2.571 21.481,2.358 21.321,2.231 C21.163,2.106 20.942,2.089 20.763,2.193 C20.033,2.626 19.247,2.941 18.424,3.130 C17.533,2.286 16.339,1.807 15.104,1.807 C12.444,1.807 10.280,3.971 10.280,6.630 C10.280,6.781 10.287,6.931 10.300,7.079 C7.199,6.761 4.325,5.216 2.340,2.781 C2.238,2.656 2.089,2.594 1.919,2.601 C1.759,2.614 1.614,2.705 1.533,2.845 C1.104,3.577 0.878,4.415 0.878,5.270 C0.878,6.243 1.149,7.164 1.639,7.935 C1.537,7.908 1.425,7.882 1.302,7.853 C1.159,7.821 1.002,7.880 0.885,7.975 C0.768,8.069 0.699,8.238 0.699,8.387 C0.699,9.938 1.464,11.353 2.671,12.245 C2.594,12.272 2.524,12.319 2.468,12.382 C2.352,12.512 2.314,12.693 2.367,12.859 C2.861,14.398 4.081,15.557 5.581,16.006 C4.068,16.871 2.264,17.227 0.544,17.020 C0.312,16.996 0.100,17.128 0.022,17.344 C-0.055,17.560 0.027,17.800 0.220,17.924 C2.286,19.248 4.674,19.948 7.126,19.948 C15.148,19.948 19.942,13.432 19.942,7.133 C19.942,7.026 19.941,6.920 19.938,6.814 C20.744,6.197 21.439,5.455 22.008,4.604 C22.129,4.422 22.116,4.181 21.976,4.013 ZM19.149,6.173 C19.014,6.270 18.938,6.429 18.945,6.594 C18.953,6.772 18.957,6.952 18.957,7.133 C18.957,12.948 14.532,18.963 7.126,18.963 C5.521,18.963 3.945,18.638 2.484,18.013 C4.204,17.836 5.816,17.185 7.195,16.104 C7.359,15.975 7.424,15.757 7.358,15.559 C7.292,15.362 7.108,15.228 6.900,15.223 C5.520,15.198 4.281,14.442 3.621,13.279 C4.020,13.291 4.439,13.226 4.867,13.110 C5.088,13.049 5.239,12.846 5.230,12.618 C5.223,12.390 5.059,12.196 4.835,12.151 C3.226,11.828 2.006,10.560 1.739,8.985 C1.973,9.056 2.133,9.116 2.264,9.166 C2.541,9.270 2.759,9.353 3.211,9.367 C3.424,9.401 3.628,9.234 3.696,9.025 C3.763,8.816 3.683,8.587 3.500,8.465 C2.460,7.770 1.864,6.605 1.864,5.270 C1.864,4.831 1.939,4.398 2.083,3.989 C4.351,6.450 7.508,7.941 10.860,8.110 C11.007,8.109 11.164,8.052 11.263,7.933 C11.363,7.814 11.400,7.656 11.365,7.506 C11.299,7.223 11.265,6.928 11.265,6.630 C11.265,4.514 12.987,2.792 15.104,2.792 C16.162,2.792 17.183,3.234 17.905,4.004 C18.021,4.128 18.195,4.185 18.360,4.150 C18.876,4.049 19.379,3.904 19.867,3.717 C19.587,4.061 19.247,4.357 18.858,4.590 C18.658,4.710 18.570,4.952 18.646,5.172 C18.721,5.392 18.936,5.528 19.170,5.502 C19.496,5.463 19.820,5.406 20.139,5.333 C19.832,5.638 19.502,5.918 19.149,6.173 Z" id="path-1" class="cls-4" fill-rule="evenodd"/>
</svg>
