<svg xmlns="http://www.w3.org/2000/svg" width="22" height="22" preserveAspectRatio="xMidYMid" viewBox="0 0 22 22"><path fill-rule="evenodd" d="M21.976 4.013a.49.49 0 0 0-.578-.133 8.03 8.03 0 0 1-.596.237c.295-.41.527-.864.682-1.35a.493.493 0 0 0-.72-.574 8.155 8.155 0 0 1-2.34.937 4.842 4.842 0 0 0-3.32-1.323A4.83 4.83 0 0 0 10.3 7.08a11.848 11.848 0 0 1-7.96-4.3.493.493 0 0 0-.807.064A4.797 4.797 0 0 0 .878 5.27c0 .973.27 1.894.76 2.665-.1-.027-.213-.053-.336-.082-.143-.032-.3.027-.417.122a.55.55 0 0 0-.186.412c0 1.55.764 2.966 1.97 3.858a.49.49 0 0 0-.304.614 4.827 4.827 0 0 0 3.215 3.147A8.265 8.265 0 0 1 .545 17.02a.492.492 0 0 0-.324.904 12.776 12.776 0 0 0 6.906 2.024c8.022 0 12.816-6.516 12.816-12.815 0-.107 0-.213-.004-.32a9.242 9.242 0 0 0 2.07-2.21.496.496 0 0 0-.032-.59zm-2.827 2.16a.493.493 0 0 0-.205.42c.008.18.012.36.012.54 0 5.815-4.425 11.83-11.83 11.83-1.606 0-3.182-.325-4.643-.95a9.098 9.098 0 0 0 4.71-1.91.494.494 0 0 0-.294-.88 3.85 3.85 0 0 1-3.28-1.944c.4.01.82-.054 1.247-.17a.492.492 0 0 0-.032-.96A3.906 3.906 0 0 1 1.74 8.986c.233.07.393.13.524.18.277.105.495.188.947.202.214.034.418-.133.486-.342a.493.493 0 0 0-.196-.56C2.46 7.77 1.864 6.605 1.864 5.27c0-.44.075-.872.22-1.28a12.836 12.836 0 0 0 8.776 4.12.53.53 0 0 0 .403-.177.49.49 0 0 0 .102-.427 3.843 3.843 0 0 1 3.74-4.714c1.057 0 2.078.442 2.8 1.212a.49.49 0 0 0 .455.146c.516-.1 1.02-.246 1.507-.433-.28.344-.62.64-1.01.873a.49.49 0 0 0-.21.582.49.49 0 0 0 .523.33 9.3 9.3 0 0 0 .97-.17 8.29 8.29 0 0 1-.99.84z" class="cls-4"/></svg>