<svg xmlns="http://www.w3.org/2000/svg" xmlns:xlink="http://www.w3.org/1999/xlink" preserveAspectRatio="xMidYMid" width="22" height="22" viewBox="0 0 22 22">
    <path d="M7.000,22.074 C7.000,22.074 7.000,15.747 7.000,15.747 C7.000,15.747 14.909,15.747 14.909,15.747 C14.909,15.747 14.909,22.074 14.909,22.074 C14.909,22.074 7.000,22.074 7.000,22.074 ZM13.327,17.329 C13.327,17.329 8.582,17.329 8.582,17.329 C8.582,17.329 8.582,20.492 8.582,20.492 C8.582,20.492 13.327,20.492 13.327,20.492 C13.327,20.492 13.327,17.329 13.327,17.329 ZM7.000,7.838 C7.000,7.838 14.909,7.838 14.909,7.838 C14.909,7.838 14.909,14.165 14.909,14.165 C14.909,14.165 7.000,14.165 7.000,14.165 C7.000,14.165 7.000,7.838 7.000,7.838 ZM8.582,12.583 C8.582,12.583 13.327,12.583 13.327,12.583 C13.327,12.583 13.327,9.420 13.327,9.420 C13.327,9.420 8.582,9.420 8.582,9.420 C8.582,9.420 8.582,12.583 8.582,12.583 ZM7.000,-0.071 C7.000,-0.071 14.909,-0.071 14.909,-0.071 C14.909,-0.071 14.909,6.256 14.909,6.256 C14.909,6.256 7.000,6.256 7.000,6.256 C7.000,6.256 7.000,-0.071 7.000,-0.071 ZM8.582,4.674 C8.582,4.674 13.327,4.674 13.327,4.674 C13.327,4.674 13.327,1.510 13.327,1.510 C13.327,1.510 8.582,1.510 8.582,1.510 C8.582,1.510 8.582,4.674 8.582,4.674 Z" id="path-1" class="cls-4" fill-rule="evenodd"/>
</svg>
