<svg xmlns="http://www.w3.org/2000/svg" width="22" height="22" preserveAspectRatio="xMidYMid" viewBox="0 0 22 22"><path fill-rule="evenodd" d="M16.498 15.436v1.375c0 1.52-1.23 2.75-2.75 2.75H2.754c-1.52 0-2.75-1.23-2.75-2.75V7.19c0-1.52 1.23-2.75 2.75-2.75H13.75c1.518 0 2.748 1.23 2.748 2.75v1.374l5.498-2.75v12.37l-5.498-2.748zm4.124-7.397l-5.498 3.273V7.19c0-.76-.616-1.375-1.375-1.375H2.752c-.76 0-1.375.615-1.375 1.374v9.62c0 .76.616 1.375 1.375 1.375H13.75c.758 0 1.374-.615 1.374-1.374v-4.123l5.498 3.274V8.04zM11 9.937H5.502a.687.687 0 0 1 0-1.374H11a.687.687 0 0 1 0 1.374z" class="cls-4"/></svg>