<svg xmlns="http://www.w3.org/2000/svg" xmlns:xlink="http://www.w3.org/1999/xlink" preserveAspectRatio="xMidYMid" width="22" height="22" viewBox="0 0 22 22">
    <path d="M16.498,15.436 C16.498,15.436 16.498,16.811 16.498,16.811 C16.498,18.330 15.268,19.560 13.749,19.560 C13.749,19.560 2.753,19.560 2.753,19.560 C1.234,19.560 0.004,18.330 0.004,16.811 C0.004,16.811 0.004,7.189 0.004,7.189 C0.004,5.670 1.234,4.440 2.753,4.440 C2.753,4.440 13.749,4.440 13.749,4.440 C15.268,4.440 16.498,5.670 16.498,7.189 C16.498,7.189 16.498,8.564 16.498,8.564 C16.498,8.564 21.996,5.815 21.996,5.815 C21.996,5.815 21.996,18.185 21.996,18.185 C21.996,18.185 16.498,15.436 16.498,15.436 ZM20.622,8.039 C20.622,8.039 15.124,11.313 15.124,11.313 C15.124,11.313 15.124,7.189 15.124,7.189 C15.124,6.430 14.508,5.815 13.749,5.815 C13.749,5.815 2.753,5.815 2.753,5.815 C1.994,5.815 1.378,6.430 1.378,7.189 C1.378,7.189 1.378,16.811 1.378,16.811 C1.378,17.570 1.994,18.185 2.753,18.185 C2.753,18.185 13.749,18.185 13.749,18.185 C14.508,18.185 15.124,17.570 15.124,16.811 C15.124,16.811 15.124,12.687 15.124,12.687 C15.124,12.687 20.622,15.961 20.622,15.961 C20.622,15.961 20.622,8.039 20.622,8.039 ZM11.000,9.938 C11.000,9.938 5.502,9.938 5.502,9.938 C5.123,9.938 4.815,9.631 4.815,9.251 C4.815,8.872 5.123,8.564 5.502,8.564 C5.502,8.564 11.000,8.564 11.000,8.564 C11.380,8.564 11.687,8.872 11.687,9.251 C11.687,9.631 11.380,9.938 11.000,9.938 Z" id="path-1" class="cls-4" fill-rule="evenodd"/>
</svg>
