<svg xmlns="http://www.w3.org/2000/svg" width="22" height="22" preserveAspectRatio="xMidYMid" viewBox="0 0 22 22"><path fill-rule="evenodd" d="M10.99 17.922c-.442 0-.89-.043-1.19-.074-3.165-.336-4.783-2.097-6.05-3.72-1.298-1.66-2.43-3.512-3.56-5.823L.3 8.04C-.02 7.41-.136 6.7-.136 5.874v-.212l-.078-.134c.543-.44 1.087-.386 1.725-.364.316.01.574.01.96-.008.232-.01.445-.023.677-.023.52 0 .854.06 1.116.193.35.177.566.64.87 1.328l.134.305c.49 1.046.95 1.84 1.64 2.833l.112.167c.12.178.48.72.648.72.053-.07.173-.434.207-1.662.045-1.585-.126-2.08-.2-2.218-.08-.148-.202-.202-.466-.31a3.417 3.417 0 0 1-.49-.232l-.354-.21.184-.37c.487-.98 1.694-1.06 2.993-1.06l.83-.01c1.006 0 1.993.097 2.402.787.373.63.294 1.5.217 2.34-.023.26-.047.514-.053.747l-.02.468c-.04.793-.045 1.33.196 1.623.178-.09.336-.294.548-.586l.154-.21c.708-.928 1.133-1.735 1.627-2.815.047-.102.095-.22.145-.344.22-.55.47-1.174.968-1.362.423-.16 1.08-.16 1.828-.113.422.024.808.04 1.324.016.22-.012.454-.024.678-.024.574 0 1.264.07 1.513.603.305.654-.37 1.848-.583 2.2-.485.795-.954 1.38-1.45 1.998-.216.267-.435.54-.66.836l-.17.215c-.264.324-.625.77-.605 1.117.013.228.31.497.573.733l.15.137c.766.71 1.36 1.28 2.03 2.137l.14.168c.308.367.73.87.665 1.39-.097.775-.824 1.167-2.16 1.167-.522 0-1.06.067-1.536.022-.327-.03-.614.06-.816.06h-.1c-1.33 0-2.195-1.093-2.827-1.805-.06-.07-.127-.21-.2-.297-.25-.307-.632-.8-.93-.8-.24.035-.292.324-.334.993-.028.444-.057.895-.256 1.246-.343.6-1.215.662-1.84.662zM.287 6.122c.064.523.32 1.027.565 1.517l.137.274c1.103 2.254 2.203 4.054 3.46 5.666 1.21 1.547 2.626 3.083 5.445 3.382.28.03.696.07 1.094.07.93 0 1.06-.212 1.065-.222.098-.17.122-.54.142-.868.045-.708.106-1.678 1.04-1.828.8-.132 1.39.58 1.802 1.08.063.08.122.716.177.777.674.76 1.3 1.952 2.16 1.952h.1c.224 0 .54-.536.902-.5.454.042.97-.19 1.45-.19.37 0 1.232-.18 1.276-.528.007-.147-.335-.626-.464-.78l-.157-.226c-.632-.808-1.177-1.347-1.936-2.05l-.14-.137c-.372-.334-.833-.754-.867-1.348-.04-.69.446-1.293.8-1.73l.154-.195c.23-.304.454-.583.675-.856.478-.595.93-1.158 1.385-1.904.32-.524.578-1.19.532-1.372.004.013-.114-.078-.702-.077-.21 0-.428.01-.633.02-.554.03-.97.012-1.423-.016-.603-.035-1.178-.048-1.46.06-.14.07-.353.603-.456.86-.055.138-.11.27-.16.383-.522 1.137-.97 1.99-1.73 2.984l-.14.19c-.3.415-.67.928-1.336 1l-.16.017-.135-.09c-.822-.547-.77-1.6-.726-2.527.007-.15.014-.3.018-.45.007-.25.032-.524.057-.802.06-.668.13-1.424-.097-1.806-.206-.35-1.282-.35-1.635-.35l-.83.007c-.837 0-1.452.045-1.83.228.264.116.552.283.746.64.244.453.345 1.325.307 2.667-.034 1.233-.13 2.352-.917 2.51-.718.145-1.226-.583-1.57-1.097l-.104-.154A18.928 18.928 0 0 1 4.46 7.338l-.145-.323c-.125-.28-.357-.805-.483-.904-.07-.034-.267-.086-.713-.086-.22 0-.447.01-.664.02-.415.022-.757.02-1.096.01C.912 6.038.51 6.04.288 6.12z" class="cls-4"/></svg>