<svg xmlns="http://www.w3.org/2000/svg" xmlns:xlink="http://www.w3.org/1999/xlink" preserveAspectRatio="xMidYMid" width="22" height="22" viewBox="0 0 22 22">
    <path d="M10.989,17.922 C10.548,17.922 10.100,17.879 9.801,17.848 C6.635,17.512 5.017,15.751 3.749,14.128 C2.452,12.467 1.321,10.616 0.190,8.305 C0.190,8.305 0.299,8.040 0.299,8.040 C-0.018,7.411 -0.135,6.699 -0.135,5.874 C-0.135,5.874 -0.135,5.662 -0.135,5.662 C-0.135,5.662 -0.213,5.528 -0.213,5.528 C0.330,5.087 0.874,5.142 1.512,5.164 C1.828,5.175 2.086,5.174 2.472,5.156 C2.704,5.145 2.917,5.133 3.149,5.133 C3.670,5.133 4.004,5.192 4.266,5.326 C4.615,5.503 4.832,5.967 5.136,6.654 C5.136,6.654 5.270,6.959 5.270,6.959 C5.761,8.006 6.219,8.800 6.910,9.793 C6.910,9.793 7.022,9.960 7.022,9.960 C7.141,10.138 7.502,10.679 7.670,10.679 C7.723,10.610 7.843,10.246 7.877,9.018 C7.922,7.433 7.751,6.939 7.676,6.800 C7.596,6.652 7.475,6.598 7.211,6.490 C7.053,6.426 6.888,6.358 6.721,6.258 C6.721,6.258 6.366,6.047 6.366,6.047 C6.366,6.047 6.550,5.677 6.550,5.677 C7.037,4.698 8.244,4.617 9.543,4.617 C9.543,4.617 10.373,4.609 10.373,4.609 C11.379,4.609 12.366,4.705 12.775,5.395 C13.148,6.025 13.069,6.894 12.992,7.735 C12.969,7.995 12.945,8.249 12.939,8.482 C12.934,8.638 12.926,8.795 12.919,8.950 C12.880,9.743 12.875,10.280 13.116,10.573 C13.294,10.483 13.452,10.279 13.664,9.987 C13.664,9.987 13.818,9.776 13.818,9.776 C14.526,8.849 14.951,8.042 15.445,6.962 C15.492,6.860 15.540,6.741 15.590,6.618 C15.810,6.067 16.061,5.444 16.558,5.256 C16.981,5.096 17.639,5.097 18.386,5.143 C18.808,5.167 19.194,5.184 19.710,5.159 C19.930,5.148 20.164,5.136 20.388,5.136 C20.962,5.136 21.652,5.205 21.901,5.739 C22.205,6.394 21.531,7.588 21.317,7.939 C20.832,8.735 20.363,9.319 19.866,9.938 C19.651,10.205 19.432,10.477 19.207,10.774 C19.207,10.774 19.036,10.989 19.036,10.989 C18.773,11.314 18.412,11.759 18.432,12.107 C18.445,12.335 18.743,12.604 19.005,12.840 C19.005,12.840 19.155,12.977 19.155,12.977 C19.921,13.687 20.515,14.256 21.186,15.114 C21.186,15.114 21.325,15.282 21.325,15.282 C21.633,15.649 22.055,16.152 21.990,16.673 C21.893,17.447 21.166,17.839 19.829,17.839 C19.308,17.839 18.769,17.907 18.294,17.862 C17.967,17.831 17.680,17.922 17.478,17.922 C17.478,17.922 17.377,17.922 17.377,17.922 C16.049,17.922 15.183,16.829 14.551,16.117 C14.490,16.048 14.423,15.908 14.351,15.820 C14.099,15.513 13.718,15.019 13.421,15.019 C13.180,15.055 13.128,15.344 13.086,16.013 C13.058,16.457 13.029,16.908 12.830,17.259 C12.487,17.860 11.615,17.922 10.989,17.922 ZM0.288,6.121 C0.352,6.645 0.607,7.149 0.853,7.639 C0.853,7.639 0.990,7.914 0.990,7.914 C2.093,10.168 3.193,11.968 4.451,13.580 C5.660,15.127 7.076,16.663 9.895,16.962 C10.174,16.992 10.591,17.031 10.989,17.031 C11.919,17.031 12.050,16.820 12.055,16.810 C12.153,16.639 12.177,16.269 12.197,15.942 C12.242,15.234 12.303,14.264 13.236,14.114 C14.037,13.982 14.627,14.693 15.039,15.195 C15.103,15.273 15.162,15.910 15.217,15.971 C15.891,16.729 16.518,17.922 17.377,17.922 C17.377,17.922 17.478,17.922 17.478,17.922 C17.701,17.922 18.017,17.386 18.379,17.421 C18.834,17.464 19.350,17.231 19.829,17.231 C20.199,17.231 21.062,17.052 21.106,16.704 C21.113,16.557 20.771,16.078 20.642,15.925 C20.642,15.925 20.485,15.698 20.485,15.698 C19.853,14.890 19.308,14.351 18.549,13.647 C18.549,13.647 18.409,13.511 18.409,13.511 C18.038,13.176 17.577,12.756 17.543,12.162 C17.503,11.471 17.989,10.869 18.344,10.431 C18.344,10.431 18.497,10.237 18.497,10.237 C18.727,9.933 18.951,9.654 19.172,9.381 C19.650,8.785 20.102,8.222 20.557,7.476 C20.876,6.952 21.135,6.285 21.089,6.104 C21.094,6.117 20.976,6.026 20.388,6.027 C20.178,6.027 19.960,6.038 19.755,6.048 C19.201,6.076 18.785,6.059 18.332,6.031 C17.729,5.995 17.154,5.982 16.873,6.089 C16.733,6.160 16.519,6.693 16.416,6.950 C16.361,7.088 16.307,7.220 16.255,7.333 C15.734,8.470 15.285,9.323 14.526,10.317 C14.526,10.317 14.385,10.508 14.385,10.508 C14.086,10.922 13.715,11.435 13.050,11.507 C13.050,11.507 12.890,11.524 12.890,11.524 C12.890,11.524 12.755,11.435 12.755,11.435 C11.933,10.887 11.984,9.835 12.029,8.907 C12.037,8.758 12.044,8.608 12.048,8.458 C12.055,8.206 12.080,7.933 12.105,7.655 C12.166,6.987 12.235,6.231 12.008,5.849 C11.802,5.500 10.726,5.500 10.373,5.500 C10.373,5.500 9.543,5.507 9.543,5.507 C8.706,5.507 8.091,5.552 7.713,5.735 C7.977,5.851 8.265,6.018 8.459,6.375 C8.704,6.828 8.805,7.700 8.767,9.042 C8.733,10.275 8.638,11.394 7.850,11.552 C7.132,11.697 6.624,10.969 6.280,10.455 C6.280,10.455 6.176,10.301 6.176,10.301 C5.464,9.278 4.967,8.419 4.460,7.337 C4.460,7.337 4.315,7.014 4.315,7.014 C4.190,6.733 3.958,6.209 3.832,6.110 C3.761,6.076 3.565,6.024 3.119,6.024 C2.901,6.024 2.673,6.035 2.456,6.045 C2.041,6.066 1.699,6.065 1.360,6.054 C0.912,6.038 0.510,6.041 0.288,6.121 Z" id="path-1" class="cls-4" fill-rule="evenodd"/>
</svg>
