<svg xmlns="http://www.w3.org/2000/svg" width="22" height="22" preserveAspectRatio="xMidYMid" viewBox="0 0 22 22"><path fill-rule="evenodd" d="M18.92 12.294a5.694 5.694 0 0 1-4.052 1.68 5.694 5.694 0 0 1-4.054-1.68l-.78-.78-3.572 3.574 2.868 2.87-.984.983-2.868-2.868L3.37 18.18l2.867 2.87-.984.983-3.85-3.853 7.65-7.65-.78-.78a5.738 5.738 0 0 1 0-8.105 5.693 5.693 0 0 1 4.052-1.678c1.53 0 2.97.596 4.053 1.678l2.544 2.543a5.74 5.74 0 0 1 0 8.106zm-.983-7.122L15.392 2.63a4.308 4.308 0 0 0-3.07-1.272 4.31 4.31 0 0 0-3.067 1.27 4.348 4.348 0 0 0 0 6.14l2.543 2.543c1.64 1.64 4.5 1.64 6.14 0a4.35 4.35 0 0 0 0-6.138zm-2.747 4.26a.697.697 0 0 1-.492-.204L11.7 6.695c-.27-.273-.444-1.18-.173-1.45.273-.272 1.12.017 1.392.29l2.762 2.71a.695.695 0 0 1-.492 1.186z" class="cls-4"/></svg>