<svg xmlns="http://www.w3.org/2000/svg" xmlns:xlink="http://www.w3.org/1999/xlink" preserveAspectRatio="xMidYMid" width="22" height="22" viewBox="0 0 22 22">
    <path d="M18.921,12.294 C17.838,13.377 16.399,13.973 14.868,13.973 C13.336,13.973 11.897,13.377 10.814,12.294 C10.814,12.294 10.035,11.515 10.035,11.515 C10.035,11.515 6.462,15.088 6.462,15.088 C6.462,15.088 9.330,17.957 9.330,17.957 C9.330,17.957 8.346,18.941 8.346,18.941 C8.346,18.941 5.478,16.072 5.478,16.072 C5.478,16.072 3.370,18.180 3.370,18.180 C3.370,18.180 6.237,21.049 6.237,21.049 C6.237,21.049 5.253,22.033 5.253,22.033 C5.253,22.033 1.402,18.180 1.402,18.180 C1.402,18.180 9.052,10.531 9.052,10.531 C9.052,10.531 8.273,9.751 8.273,9.751 C6.038,7.516 6.038,3.881 8.273,1.645 C9.355,0.563 10.794,-0.033 12.325,-0.033 C13.856,-0.033 15.295,0.563 16.378,1.645 C16.378,1.645 18.922,4.188 18.922,4.188 C21.156,6.423 21.156,10.061 18.922,12.294 C18.922,12.294 18.921,12.294 18.921,12.294 ZM17.937,5.172 C17.937,5.172 15.392,2.629 15.392,2.629 C14.573,1.809 13.483,1.358 12.323,1.358 C11.165,1.358 10.075,1.809 9.255,2.629 C7.563,4.322 7.564,7.075 9.255,8.768 C9.255,8.768 11.798,11.311 11.798,11.311 C13.439,12.950 16.298,12.950 17.937,11.311 C19.628,9.618 19.628,6.865 17.937,5.172 ZM15.190,9.431 C15.012,9.431 14.834,9.363 14.698,9.228 C14.698,9.228 11.701,6.695 11.701,6.695 C11.430,6.422 11.256,5.516 11.527,5.245 C11.800,4.973 12.647,5.262 12.919,5.534 C12.919,5.534 15.682,8.244 15.682,8.244 C15.954,8.516 15.954,8.956 15.682,9.228 C15.546,9.363 15.368,9.431 15.190,9.431 Z" id="path-1" class="cls-4" fill-rule="evenodd"/>
</svg>
