<svg xmlns="http://www.w3.org/2000/svg" xmlns:xlink="http://www.w3.org/1999/xlink" preserveAspectRatio="xMidYMid" width="22" height="22" viewBox="0 0 22 22">
    <path d="M19.797,21.263 C19.797,21.263 2.203,21.263 2.203,21.263 C0.990,21.263 0.004,20.277 0.004,19.064 C0.004,19.064 0.004,2.936 0.004,2.936 C0.004,1.723 0.990,0.737 2.203,0.737 C2.203,0.737 19.797,0.737 19.797,0.737 C21.010,0.737 21.996,1.723 21.996,2.936 C21.996,2.936 21.996,19.064 21.996,19.064 C21.996,20.277 21.010,21.263 19.797,21.263 ZM20.530,2.936 C20.530,2.531 20.202,2.203 19.797,2.203 C19.797,2.203 2.203,2.203 2.203,2.203 C1.798,2.203 1.470,2.531 1.470,2.936 C1.470,2.936 1.470,15.506 1.470,15.506 C1.470,15.506 5.537,12.073 5.537,12.073 C5.742,11.902 6.043,11.913 6.232,12.103 C6.232,12.103 8.758,14.630 8.758,14.630 C8.758,14.630 14.265,7.747 14.265,7.747 C14.363,7.623 14.491,7.556 14.673,7.554 C14.831,7.556 14.979,7.632 15.075,7.758 C15.075,7.758 20.530,14.966 20.530,14.966 C20.530,14.966 20.530,2.936 20.530,2.936 ZM20.530,16.668 C20.530,16.668 14.654,8.903 14.654,8.903 C14.654,8.903 9.201,15.720 9.201,15.720 C9.110,15.833 8.975,15.903 8.829,15.912 C8.670,15.907 8.541,15.865 8.437,15.762 C8.437,15.762 5.839,13.163 5.839,13.163 C5.839,13.163 1.470,16.849 1.470,16.849 C1.470,16.849 1.470,19.064 1.470,19.064 C1.470,19.469 1.798,19.797 2.203,19.797 C2.203,19.797 19.797,19.797 19.797,19.797 C20.202,19.797 20.530,19.469 20.530,19.064 C20.530,19.064 20.530,16.668 20.530,16.668 ZM6.588,8.054 C6.588,8.054 5.135,8.054 5.135,8.054 C4.731,8.054 4.402,7.726 4.402,7.321 C4.402,7.321 4.402,5.868 4.402,5.868 C4.402,5.464 4.731,5.135 5.135,5.135 C5.135,5.135 6.588,5.135 6.588,5.135 C6.993,5.135 7.321,5.464 7.321,5.868 C7.321,5.868 7.321,7.321 7.321,7.321 C7.321,7.726 6.993,8.054 6.588,8.054 Z" id="path-1" class="cls-4" fill-rule="evenodd"/>
</svg>
