<svg xmlns="http://www.w3.org/2000/svg" width="22" height="22" preserveAspectRatio="xMidYMid" viewBox="0 0 22 22"><path fill-rule="evenodd" d="M19.797 21.263H2.203a2.2 2.2 0 0 1-2.2-2.2V2.937a2.2 2.2 0 0 1 2.2-2.2h17.594a2.2 2.2 0 0 1 2.2 2.2v16.128a2.2 2.2 0 0 1-2.2 2.2zm.733-18.327a.733.733 0 0 0-.733-.733H2.203a.733.733 0 0 0-.733.733v12.57l4.067-3.433a.514.514 0 0 1 .695.03l2.526 2.527 5.507-6.883a.515.515 0 0 1 .81.01l5.455 7.21V2.936zm0 13.732l-5.876-7.765L9.2 15.72a.52.52 0 0 1-.37.192.55.55 0 0 1-.393-.15l-2.598-2.6-4.37 3.687v2.214c0 .405.328.733.733.733h17.594a.733.733 0 0 0 .733-.733v-2.396zM6.588 8.054H5.135a.733.733 0 0 1-.733-.733V5.87c0-.404.33-.733.733-.733h1.453c.405 0 .733.33.733.733V7.32a.733.733 0 0 1-.732.734z" class="cls-4"/></svg>