<svg xmlns="http://www.w3.org/2000/svg" width="22" height="22" preserveAspectRatio="xMidYMid" viewBox="0 0 22 22"><path fill-rule="evenodd" d="M15.895 18.21H4.418C2.004 18.21-.5 15.704-.5 13.29V8.076C-.5 5.66 2.004 4 4.418 4h11.477c3.69 0 5.465 1.957 5.465 4.372v4.92c0 2.413-1.23 4.917-5.465 4.917zm4.372-9.838s-.546-3.28-4.372-3.28H4.418C2.61 5.093.593 6.565.593 8.373v4.372c0 3.006 2.017 4.372 3.825 4.372h11.477c2.8 0 4.372-1.298 4.372-4.372V8.372zM7.15 7.917l7.698 3.188-7.697 3.37V7.917zm1.094 4.886l3.815-1.692-3.816-1.6v3.293z" class="cls-4"/></svg>