<svg xmlns="http://www.w3.org/2000/svg" xmlns:xlink="http://www.w3.org/1999/xlink" preserveAspectRatio="xMidYMid" width="22" height="22" viewBox="0 0 22 22">
    <path d="M15.895,18.209 C15.895,18.209 4.418,18.209 4.418,18.209 C2.004,18.209 -0.500,15.705 -0.500,13.291 C-0.500,13.291 -0.500,8.075 -0.500,8.075 C-0.500,5.660 2.004,4.000 4.418,4.000 C4.418,4.000 14.051,4.000 15.895,4.000 C19.584,4.000 21.360,5.957 21.360,8.372 C21.360,8.372 21.360,13.291 21.360,13.291 C21.360,15.705 20.130,18.209 15.895,18.209 ZM20.267,8.372 C20.267,8.372 19.721,5.093 15.895,5.093 C12.070,5.093 4.418,5.093 4.418,5.093 C2.610,5.093 0.593,6.564 0.593,8.372 C0.593,8.372 0.593,12.744 0.593,12.744 C0.593,15.750 2.610,17.116 4.418,17.116 C4.418,17.116 15.895,17.116 15.895,17.116 C18.696,17.116 20.267,15.818 20.267,12.744 C20.267,12.744 20.267,8.372 20.267,8.372 ZM7.151,7.917 C7.151,7.917 14.848,11.105 14.848,11.105 C14.848,11.105 7.151,14.475 7.151,14.475 C7.151,14.475 7.151,7.917 7.151,7.917 ZM8.244,12.803 C8.244,12.803 12.059,11.111 12.059,11.111 C12.059,11.111 8.244,9.509 8.244,9.509 C8.244,9.509 8.244,12.803 8.244,12.803 Z" id="path-1" class="cls-4" fill-rule="evenodd"/>
</svg>
