<?xml version="1.0" encoding="UTF-8" standalone="no"?>
<svg width="34px" height="34px" viewBox="0 0 34 34" version="1.1" xmlns="http://www.w3.org/2000/svg" xmlns:xlink="http://www.w3.org/1999/xlink" xmlns:sketch="http://www.bohemiancoding.com/sketch/ns">
    <!-- Generator: Sketch 3.3.2 (12043) - http://www.bohemiancoding.com/sketch -->
    <title>mba_social</title>
    <desc>Created with Sketch.</desc>
    <defs></defs>
    <g id="Page-1" stroke="none" stroke-width="1" fill="none" fill-rule="evenodd" sketch:type="MSPage">
        <g id="mba_social" sketch:type="MSArtboardGroup" fill="#2D4150">
            <g id="Imported-Layers-Copy-+-Imported-Layers-Copy-+-Fill-1-Copy" sketch:type="MSLayerGroup" transform="translate(8.000000, 9.000000)">
                <path d="M16.2517975,8.48573008 C15.9067975,8.65534547 15.5361725,8.76957624 15.1474225,8.82149931 C15.5442975,8.55773008 15.8492975,8.14026855 15.9924225,7.64249931 C15.6211725,7.88688393 15.2092975,8.0641147 14.7711725,8.15965316 C14.4205475,7.74565316 13.9205475,7.48673008 13.3674225,7.48673008 C12.3049225,7.48673008 11.4436725,8.44073008 11.4436725,9.61696085 C11.4436725,9.78449931 11.4611725,9.94649931 11.4936725,10.1029609 C9.89554751,10.0136532 8.47804751,9.16557624 7.52929751,7.87649931 C7.36367251,8.19149931 7.26867251,8.55703778 7.26867251,8.94749931 C7.26867251,9.68688393 7.46117251,10.3390378 7.97679751,10.7211916 C7.66117251,10.7101147 7.58304751,10.6145762 6.95804751,10.4546532 L6.95804751,10.4816532 C6.95804751,11.5138839 7.76867251,12.3751147 8.64867251,12.5703455 C8.48679751,12.6194993 8.39117251,12.6451147 8.21554751,12.6451147 C8.09179751,12.6451147 8.00804751,12.6319609 7.89054751,12.6070378 C8.13554751,13.4537301 8.86429751,14.0691916 9.70554751,14.0864993 C9.04742251,14.6583455 8.22742251,14.9989609 7.32617251,14.9989609 C7.17117251,14.9989609 7.02242251,14.9885762 6.87179751,14.9691916 C7.72304751,15.5735762 8.73617251,15.9259609 9.82304751,15.9259609 C13.3605475,15.9259609 15.2961725,12.6797301 15.2961725,9.8641147 C15.2961725,9.77203778 15.2949225,9.67996085 15.2911725,9.58857624 C15.6674225,9.2881147 15.9936725,8.91288393 16.2517975,8.48573008" id="Imported-Layers-Copy" sketch:type="MSShapeGroup"></path>
                <path d="M1.97505594,14.1911765 L1.97505594,8.52941176 L0.424007087,8.52941176 L0.424007087,6.10294118 L1.97505594,6.10294118 L1.97505594,4.06470588 C1.97505594,2.5975 2.96540063,1.25 5.06086763,1.25 C5.90929135,1.25 6.57701788,1.33492647 6.57701788,1.33492647 L6.54754795,3.37639706 C6.54754795,3.37639706 5.89222981,3.36992647 5.19425783,3.36992647 C4.43812151,3.36992647 4.30162922,3.73308824 4.30162922,4.33566176 C4.30162922,4.81286765 4.30162922,3.67647059 4.30162922,6.10294118 L6.62820249,6.10294118 L6.46689341,8.52941176 L4.30162922,8.52941176 L4.30162922,14.1911765 L1.97505594,14.1911765" id="Imported-Layers-Copy" sketch:type="MSShapeGroup"></path>
                <path d="M14,4 L12,4 L12,6 L10,6 L10,4 L8,4 L8,2 L10,2 L10,0 L12,0 L12,2 L14,2 L14,4" id="Fill-1-Copy" sketch:type="MSShapeGroup"></path>
            </g>
        </g>
    </g>
</svg>