<svg xmlns="http://www.w3.org/2000/svg" width="34" height="34" viewBox="0 0 34 34"><g fill="#8A8A8A" fill-rule="evenodd"><path d="M24.252 17.486c-.345.17-.716.284-1.105.335a2.11 2.11 0 0 0 .845-1.178c-.37.245-.783.422-1.22.518a1.84 1.84 0 0 0-1.405-.673c-1.062 0-1.923.954-1.923 2.13 0 .167.017.33.05.486-1.598-.09-3.016-.937-3.965-2.227-.166.315-.26.68-.26 1.07 0 .74.19 1.393.707 1.775-.316-.01-.394-.105-1.02-.265v.027c0 1.032.812 1.893 1.692 2.088-.163.05-.26.075-.434.075-.124 0-.208-.013-.325-.038.246.847.974 1.462 1.816 1.48-.66.57-1.48.912-2.38.912-.155 0-.304-.01-.454-.03.85.604 1.864.956 2.95.956 3.54 0 5.474-3.246 5.474-6.062 0-.092 0-.184-.005-.275.377-.302.704-.677.962-1.104M9.975 23.19v-5.66h-1.55v-2.427h1.55v-2.038c0-1.467.99-2.815 3.086-2.815.85 0 1.517.085 1.517.085l-.03 2.04s-.655-.005-1.353-.005c-.756 0-.892.363-.892.966v1.767h2.326l-.16 2.426H12.3v5.66H9.975M22 13h-2v2h-2v-2h-2v-2h2V9h2v2h2v2"/></g></svg>