<svg xmlns="http://www.w3.org/2000/svg" width="34" height="34" viewBox="0 0 34 34"><g fill="#8A8A8A" fill-rule="evenodd"><path d="M14.858 11.574L13.83 9.882a1 1 0 0 0-1.56-.188l-.572.57a1 1 0 0 0 0 1.415l2.01 2.01.963-.962a1 1 0 0 0 .188-1.154M14.393 20.936c2.177 2.177 4.778 3.364 6.9 1.242l-2.16-2.16c-.706.708-1.63-.214-2.618-1.203l-2.053-2.053c-.99-.99-1.912-1.913-1.205-2.62l-2.16-2.158c-2.12 2.12-.933 4.722 1.243 6.9l2.053 2.052M21.702 18.418l1.692 1.028a1 1 0 0 1 .19 1.56l-.573.573a1 1 0 0 1-1.413 0l-2.01-2.013.96-.962a1 1 0 0 1 1.155-.187"/></g></svg>