<?xml version="1.0" encoding="UTF-8" standalone="no"?>
<svg width="34px" height="34px" viewBox="0 0 34 34" version="1.1" xmlns="http://www.w3.org/2000/svg" xmlns:xlink="http://www.w3.org/1999/xlink" xmlns:sketch="http://www.bohemiancoding.com/sketch/ns">
    <!-- Generator: Sketch 3.3.2 (12043) - http://www.bohemiancoding.com/sketch -->
    <title>mba_Phone_number</title>
    <desc>Created with Sketch.</desc>
    <defs></defs>
    <g id="Page-1" stroke="none" stroke-width="1" fill="none" fill-rule="evenodd" sketch:type="MSPage">
        <g id="mba_Phone_number" sketch:type="MSArtboardGroup" fill="#2D4150">
            <path d="M14.858,11.574 L13.831,9.882 C13.494,9.328 12.727,9.235 12.269,9.694 L11.698,10.265 C11.307,10.655 11.307,11.289 11.698,11.679 L13.709,13.69 L14.671,12.728 C14.975,12.424 15.051,11.959 14.858,11.574" id="Fill-1" sketch:type="MSShapeGroup"></path>
            <path d="M14.393,20.936 C16.57,23.113 19.171,24.3 21.293,22.178 L19.134,20.019 C18.427,20.726 17.504,19.804 16.515,18.815 L14.462,16.762 C13.472,15.772 12.55,14.849 13.257,14.142 L11.098,11.984 C8.977,14.105 10.164,16.706 12.34,18.883 L14.393,20.936" id="Fill-2" sketch:type="MSShapeGroup"></path>
            <path d="M21.702,18.418 L23.394,19.446 C23.949,19.782 24.041,20.549 23.583,21.007 L23.011,21.579 C22.621,21.969 21.988,21.969 21.597,21.579 L19.586,19.567 L20.548,18.605 C20.852,18.301 21.317,18.225 21.702,18.418" id="Fill-3" sketch:type="MSShapeGroup"></path>
        </g>
    </g>
</svg>