<?xml version="1.0" encoding="UTF-8" standalone="no"?>
<svg width="34px" height="34px" viewBox="0 0 34 34" version="1.1" xmlns="http://www.w3.org/2000/svg" xmlns:xlink="http://www.w3.org/1999/xlink" xmlns:sketch="http://www.bohemiancoding.com/sketch/ns">
    <!-- Generator: Sketch 3.3.2 (12043) - http://www.bohemiancoding.com/sketch -->
    <title>mba_social_DS</title>
    <desc>Created with Sketch.</desc>
    <defs></defs>
    <g id="Page-1" stroke="none" stroke-width="1" fill="none" fill-rule="evenodd" sketch:type="MSPage">
        <g id="mba_social_DS" sketch:type="MSArtboardGroup" fill="#8A8A8A">
            <path d="M24.2517975,17.4857301 C23.9067975,17.6553455 23.5361725,17.7695762 23.1474225,17.8214993 C23.5442975,17.5577301 23.8492975,17.1402685 23.9924225,16.6424993 C23.6211725,16.8868839 23.2092975,17.0641147 22.7711725,17.1596532 C22.4205475,16.7456532 21.9205475,16.4867301 21.3674225,16.4867301 C20.3049225,16.4867301 19.4436725,17.4407301 19.4436725,18.6169609 C19.4436725,18.7844993 19.4611725,18.9464993 19.4936725,19.1029609 C17.8955475,19.0136532 16.4780475,18.1655762 15.5292975,16.8764993 C15.3636725,17.1914993 15.2686725,17.5570378 15.2686725,17.9474993 C15.2686725,18.6868839 15.4611725,19.3390378 15.9767975,19.7211916 C15.6611725,19.7101147 15.5830475,19.6145762 14.9580475,19.4546532 L14.9580475,19.4816532 C14.9580475,20.5138839 15.7686725,21.3751147 16.6486725,21.5703455 C16.4867975,21.6194993 16.3911725,21.6451147 16.2155475,21.6451147 C16.0917975,21.6451147 16.0080475,21.6319609 15.8905475,21.6070378 C16.1355475,22.4537301 16.8642975,23.0691916 17.7055475,23.0864993 C17.0474225,23.6583455 16.2274225,23.9989609 15.3261725,23.9989609 C15.1711725,23.9989609 15.0224225,23.9885762 14.8717975,23.9691916 C15.7230475,24.5735762 16.7361725,24.9259609 17.8230475,24.9259609 C21.3605475,24.9259609 23.2961725,21.6797301 23.2961725,18.8641147 C23.2961725,18.7720378 23.2949225,18.6799609 23.2911725,18.5885762 C23.6674225,18.2881147 23.9936725,17.9128839 24.2517975,17.4857301" id="Imported-Layers-Copy" sketch:type="MSShapeGroup"></path>
            <path d="M9.97505594,23.1911765 L9.97505594,17.5294118 L8.42400709,17.5294118 L8.42400709,15.1029412 L9.97505594,15.1029412 L9.97505594,13.0647059 C9.97505594,11.5975 10.9654006,10.25 13.0608676,10.25 C13.9092913,10.25 14.5770179,10.3349265 14.5770179,10.3349265 L14.547548,12.3763971 C14.547548,12.3763971 13.8922298,12.3699265 13.1942578,12.3699265 C12.4381215,12.3699265 12.3016292,12.7330882 12.3016292,13.3356618 C12.3016292,13.8128676 12.3016292,12.6764706 12.3016292,15.1029412 L14.6282025,15.1029412 L14.4668934,17.5294118 L12.3016292,17.5294118 L12.3016292,23.1911765 L9.97505594,23.1911765" id="Imported-Layers-Copy" sketch:type="MSShapeGroup"></path>
            <path d="M22,13 L20,13 L20,15 L18,15 L18,13 L16,13 L16,11 L18,11 L18,9 L20,9 L20,11 L22,11 L22,13" id="Fill-1-Copy" sketch:type="MSShapeGroup"></path>
        </g>
    </g>
</svg>