<?xml version="1.0" encoding="UTF-8" standalone="no"?>
<svg width="34px" height="34px" viewBox="0 0 34 34" version="1.1" xmlns="http://www.w3.org/2000/svg" xmlns:xlink="http://www.w3.org/1999/xlink" xmlns:sketch="http://www.bohemiancoding.com/sketch/ns">
    <!-- Generator: Sketch 3.3.2 (12043) - http://www.bohemiancoding.com/sketch -->
    <title>mba_email_DS</title>
    <desc>Created with Sketch.</desc>
    <defs></defs>
    <g id="Page-1" stroke="none" stroke-width="1" fill="none" fill-rule="evenodd" sketch:type="MSPage">
        <g id="mba_email_DS" sketch:type="MSArtboardGroup" fill="#8A8A8A">
            <path d="M24.33,12.132 C23.78,11.447 22.946,11 22,11 L12,11 C10.94,11 10.013,11.553 9.48,12.383 L17.014,18.353 L24.33,12.132" id="Fill-1" sketch:type="MSShapeGroup"></path>
            <path d="M9.078,13.34 C9.03,13.553 9,13.773 9,14 L9,20 C9,20.663 9.222,21.27 9.585,21.766 L14.222,17.417 L9.078,13.34" id="Fill-2" sketch:type="MSShapeGroup"></path>
            <path d="M24.411,21.77 C24.777,21.273 25,20.665 25,20 L25,14 C25,13.657 24.93,13.332 24.824,13.025 L19.717,17.367 L24.411,21.77" id="Fill-3" sketch:type="MSShapeGroup"></path>
            <path d="M17.035,19.647 L15.013,18.044 L10.298,22.467 C10.782,22.802 11.367,23 12,23 L22,23 C22.631,23 23.215,22.803 23.698,22.471 L18.951,18.018 L17.035,19.647" id="Fill-4" sketch:type="MSShapeGroup"></path>
        </g>
    </g>
</svg>