<svg xmlns="http://www.w3.org/2000/svg" width="34" height="34" viewBox="0 0 34 34"><g fill="#2D4150" fill-rule="evenodd"><path d="M24.33 12.132A2.982 2.982 0 0 0 22 11H12a2.99 2.99 0 0 0-2.52 1.383l7.534 5.97 7.316-6.22M9.078 13.34A2.995 2.995 0 0 0 9 14v6c0 .663.222 1.27.585 1.766l4.637-4.35-5.144-4.076M24.41 21.77c.367-.497.59-1.105.59-1.77v-6c0-.343-.07-.668-.176-.975l-5.107 4.342 4.694 4.403"/><path d="M17.035 19.647l-2.022-1.603-4.715 4.423A2.98 2.98 0 0 0 12 23h10c.63 0 1.215-.197 1.698-.53L18.95 18.02l-1.915 1.63"/></g></svg>