<svg xmlns="http://www.w3.org/2000/svg" xmlns:xlink="http://www.w3.org/1999/xlink" preserveAspectRatio="xMidYMid" width="24" height="24" viewBox="0 0 24 24">
  <path d="M9.969,9.000 C9.969,9.000 9.969,10.000 9.969,10.000 C9.969,10.000 10.969,10.000 10.969,10.000 C10.969,10.000 10.969,11.000 10.969,11.000 C10.969,11.000 11.969,11.000 11.969,11.000 C11.969,11.000 11.969,12.000 11.969,12.000 C11.969,12.000 12.969,12.000 12.969,12.000 C12.969,12.000 12.969,13.000 12.969,13.000 C12.969,13.000 13.969,13.000 13.969,13.000 C13.969,13.000 13.969,14.001 13.969,14.001 C13.969,14.001 14.969,14.001 14.969,14.001 C14.969,14.001 14.969,11.000 14.969,11.000 C14.969,11.000 15.969,11.000 15.969,11.000 C15.969,11.000 15.969,15.000 15.969,15.000 C15.969,15.000 15.969,16.000 15.969,16.000 C15.969,16.000 14.969,16.000 14.969,16.000 C14.969,16.000 10.969,16.000 10.969,16.000 C10.969,16.000 10.969,15.000 10.969,15.000 C10.969,15.000 13.969,15.000 13.969,15.000 C13.969,15.000 13.969,14.062 13.969,14.062 C13.969,14.062 12.969,14.062 12.969,14.062 C12.969,14.062 12.969,13.063 12.969,13.063 C12.969,13.063 11.969,13.063 11.969,13.063 C11.969,13.063 11.969,12.063 11.969,12.063 C11.969,12.063 10.969,12.063 10.969,12.063 C10.969,12.063 10.969,11.062 10.969,11.062 C10.969,11.062 9.969,11.062 9.969,11.062 C9.969,11.062 9.969,10.062 9.969,10.062 C9.969,10.062 8.969,10.062 8.969,10.062 C8.969,10.062 8.969,9.000 8.969,9.000 C8.969,9.000 9.969,9.000 9.969,9.000 Z" id="path-1" class="cls-5" fill-rule="evenodd"/>
</svg>
