<svg width="38px" height="38px" viewBox="0 0 38 38" version="1.1" xmlns="http://www.w3.org/2000/svg" xmlns:xlink="http://www.w3.org/1999/xlink">
  <path class="st1" d="M22,18 L16,18 C14.895,18 14,17.105 14,16 L14,13 C14,11.895 14.895,11 16,11 L22,11 C23.105,11 24,11.895 24,13 L24,16 C24,17.105 23.105,18 22,18" ></path>
  <path class="st2" d="M25,27 L16,27 C14.895,27 14,26.105 14,25 L14,22 C14,20.895 14.895,20 16,20 L25,20 C26.105,20 27,20.895 27,22 L27,25 C27,26.105 26.105,27 25,27 Z M10,9 L12,9 L12,29 L10,29 L10,9 Z"></path>
</svg>