<?xml version="1.0" encoding="utf-8"?>
<svg xmlns="http://www.w3.org/2000/svg"
	xmlns:xlink="http://www.w3.org/1999/xlink"
	width="38px" height="38px" viewBox="0 0 38 38">
<path class="cls-b3" fillRule="evenodd" d="M 9 13C 9 13 9 11 9 11 9 11 29 11 29 11 29 11 29 13 29 13 29 13 9 13 9 13ZM 13 15C 13 15 16 15 16 15 17 15 18 15.85 18 17 18 17 18 26.42 18 26.42 18 27.57 17 28 16 28 16 28 13 28 13 28 12 28 11 27.15 11 26 11 26 11 17 11 17 11 15.85 12 15 13 15Z" fill="rgb(127,203,247)"/><path class="cls-b1" fillRule="evenodd" d="M 22 25C 20.9 25 20 24.1 20 23 20 23 20 17 20 17 20 15.9 20.9 15 22 15 22 15 25 15 25 15 26.1 15 27 15.9 27 17 27 17 27 23 27 23 27 24.1 26.1 25 25 25 25 25 22 25 22 25Z" fill="rgb(55,153,235)"/></svg>