<svg width="38px" height="38px" viewBox="0 0 38 38" version="1.1" xmlns="http://www.w3.org/2000/svg" xmlns:xlink="http://www.w3.org/1999/xlink">
  <path class="st1" d="M22,18 L16,18 C14.895,18 14,17.105 14,16 L14,13 C14,11.895 14.895,11 16,11 L22,11 C23.105,11 24,11.895 24,13 L24,16 C24,17.105 23.105,18 22,18"></path>
  <path class="st2" d="M18,9 L20,9 L20,11 L18,11 L18,9 Z M25,20 L20,20 L20,18 L18,18 L18,20 L13,20 C11.895,20 11,20.895 11,22 L11,25 C11,26.105 11.895,27 13,27 L18,27 L18,29 L20,29 L20,27 L25,27 C26.104,27 27,26.105 27,25 L27,22 C27,20.895 26.104,20 25,20 Z"></path>
</svg>