<svg xmlns="http://www.w3.org/2000/svg" xmlns:xlink="http://www.w3.org/1999/xlink" preserveAspectRatio="xMidYMid" width="24" height="24" viewBox="0 0 24 24">
    <path d="M14.969,12.000 C14.969,12.000 14.969,11.000 14.969,11.000 C14.969,11.000 13.969,11.000 13.969,11.000 C13.969,11.000 13.969,10.000 13.969,10.000 C13.969,10.000 12.969,10.000 12.969,10.000 C12.969,10.000 12.969,17.000 12.969,17.000 C12.969,17.000 11.969,17.000 11.969,17.000 C11.969,17.000 11.969,10.000 11.969,10.000 C11.969,10.000 10.969,10.000 10.969,10.000 C10.969,10.000 10.969,11.000 10.969,11.000 C10.969,11.000 9.969,11.000 9.969,11.000 C9.969,11.000 9.969,12.000 9.969,12.000 C9.969,12.000 8.969,12.000 8.969,12.000 C8.969,12.000 8.969,10.938 8.969,10.938 C8.969,10.938 9.969,10.938 9.969,10.938 C9.969,10.938 9.969,9.937 9.969,9.937 C9.969,9.937 10.969,9.937 10.969,9.937 C10.969,9.937 10.969,8.937 10.969,8.937 C10.969,8.937 11.969,8.937 11.969,8.937 C11.969,8.937 11.969,8.000 11.969,8.000 C11.969,8.000 12.969,8.000 12.969,8.000 C12.969,8.000 12.969,8.937 12.969,8.937 C12.969,8.937 13.969,8.937 13.969,8.937 C13.969,8.937 13.969,9.937 13.969,9.937 C13.969,9.937 14.969,9.937 14.969,9.937 C14.969,9.937 14.969,10.938 14.969,10.938 C14.969,10.938 15.969,10.938 15.969,10.938 C15.969,10.938 15.969,12.000 15.969,12.000 C15.969,12.000 14.969,12.000 14.969,12.000 Z" id="path-1" class="cls-5" fill-rule="evenodd"/>
</svg>
