<svg xmlns="http://www.w3.org/2000/svg" xmlns:xlink="http://www.w3.org/1999/xlink" preserveAspectRatio="xMidYMid" width="24" height="24" viewBox="0 0 24 24">
    <path d="M11.469,9.500 C11.469,9.500 10.469,9.500 10.469,9.500 C10.469,9.500 10.469,10.500 10.469,10.500 C10.469,10.500 9.469,10.500 9.469,10.500 C9.469,10.500 9.469,11.500 9.469,11.500 C9.469,11.500 16.469,11.500 16.469,11.500 C16.469,11.500 16.469,12.500 16.469,12.500 C16.469,12.500 9.469,12.500 9.469,12.500 C9.469,12.500 9.469,13.500 9.469,13.500 C9.469,13.500 10.469,13.500 10.469,13.500 C10.469,13.500 10.469,14.500 10.469,14.500 C10.469,14.500 11.469,14.500 11.469,14.500 C11.469,14.500 11.469,15.500 11.469,15.500 C11.469,15.500 10.406,15.500 10.406,15.500 C10.406,15.500 10.406,14.500 10.406,14.500 C10.406,14.500 9.406,14.500 9.406,14.500 C9.406,14.500 9.406,13.500 9.406,13.500 C9.406,13.500 8.406,13.500 8.406,13.500 C8.406,13.500 8.406,12.500 8.406,12.500 C8.406,12.500 7.469,12.500 7.469,12.500 C7.469,12.500 7.469,11.500 7.469,11.500 C7.469,11.500 8.406,11.500 8.406,11.500 C8.406,11.500 8.406,10.500 8.406,10.500 C8.406,10.500 9.406,10.500 9.406,10.500 C9.406,10.500 9.406,9.500 9.406,9.500 C9.406,9.500 10.406,9.500 10.406,9.500 C10.406,9.500 10.406,8.500 10.406,8.500 C10.406,8.500 11.469,8.500 11.469,8.500 C11.469,8.500 11.469,9.500 11.469,9.500 Z" id="path-1" class="cls-5" fill-rule="evenodd"/>
</svg>
