<svg xmlns="http://www.w3.org/2000/svg" xmlns:xlink="http://www.w3.org/1999/xlink" preserveAspectRatio="xMidYMid" width="24" height="24" viewBox="0 0 24 24">
    <path d="M9.969,16.000 C9.969,16.000 9.969,15.000 9.969,15.000 C9.969,15.000 10.969,15.000 10.969,15.000 C10.969,15.000 10.969,14.000 10.969,14.000 C10.969,14.000 11.969,14.000 11.969,14.000 C11.969,14.000 11.969,13.000 11.969,13.000 C11.969,13.000 12.969,13.000 12.969,13.000 C12.969,13.000 12.969,12.000 12.969,12.000 C12.969,12.000 13.969,12.000 13.969,12.000 C13.969,12.000 13.969,10.999 13.969,10.999 C13.969,10.999 14.969,10.999 14.969,10.999 C14.969,10.999 14.969,14.000 14.969,14.000 C14.969,14.000 15.969,14.000 15.969,14.000 C15.969,14.000 15.969,10.000 15.969,10.000 C15.969,10.000 15.969,9.000 15.969,9.000 C15.969,9.000 14.969,9.000 14.969,9.000 C14.969,9.000 10.969,9.000 10.969,9.000 C10.969,9.000 10.969,10.000 10.969,10.000 C10.969,10.000 13.969,10.000 13.969,10.000 C13.969,10.000 13.969,10.938 13.969,10.938 C13.969,10.938 12.969,10.938 12.969,10.938 C12.969,10.938 12.969,11.937 12.969,11.937 C12.969,11.937 11.969,11.937 11.969,11.937 C11.969,11.937 11.969,12.937 11.969,12.937 C11.969,12.937 10.969,12.937 10.969,12.937 C10.969,12.937 10.969,13.938 10.969,13.938 C10.969,13.938 9.969,13.938 9.969,13.938 C9.969,13.938 9.969,14.938 9.969,14.938 C9.969,14.938 8.969,14.938 8.969,14.938 C8.969,14.938 8.969,16.000 8.969,16.000 C8.969,16.000 9.969,16.000 9.969,16.000 Z" id="path-1" class="cls-5" fill-rule="evenodd"/>
</svg>
