<svg width="38px" height="38px" viewBox="0 0 38 38" version="1.1" xmlns="http://www.w3.org/2000/svg" xmlns:xlink="http://www.w3.org/1999/xlink">
  <path class="st1" d="M23,13 C23,11.895 22.105,11 21,11 L15,11 C13.895,11 13,11.895 13,13 L13,16 C13,17.105 13.895,18 15,18 L21,18 C22.105,18 23,17.105 23,16 L23,13"></path>
  <path class="st2" d="M23,22 C23,20.895 22.105,20 21,20 L12,20 C10.895,20 10,20.895 10,22 L10,25 C10,26.105 10.895,27 12,27 L21,27 C22.105,27 23,26.105 23,25 L23,22 Z M25,9 L27,9 L27,29 L25,29 L25,9 Z"></path>
</svg>