<?xml version="1.0" encoding="utf-8"?>
<svg xmlns="http://www.w3.org/2000/svg"
	xmlns:xlink="http://www.w3.org/1999/xlink"
	width="38px" height="38px" viewBox="0 0 38 38">
<path class="cls-b3" fillRule="evenodd" d="M 9 28C 9 28 9 26 9 26 9 26 29 26 29 26 29 26 29 28 29 28 29 28 9 28 9 28ZM 16 24C 16 24 13 24 13 24 12 24 11 23.15 11 22 11 22 11 13 11 13 11 11.85 12 11 13 11 13 11 16 11 16 11 17 11 18 11.85 18 13 18 13 18 22.42 18 22.42 18 23.57 17 24 16 24Z" fill="rgb(127,203,247)"/><path class="cls-b1" fillRule="evenodd" d="M 22 24C 20.9 24 20 23.1 20 22 20 22 20 16 20 16 20 14.9 20.9 14 22 14 22 14 25 14 25 14 26.1 14 27 14.9 27 16 27 16 27 22 27 22 27 23.1 26.1 24 25 24 25 24 22 24 22 24Z" fill="rgb(55,153,235)"/></svg>