<svg xmlns="http://www.w3.org/2000/svg" xmlns:xlink="http://www.w3.org/1999/xlink" preserveAspectRatio="xMidYMid" width="24" height="24" viewBox="0 0 24 24">
    <path d="M9.969,13.000 C9.969,13.000 9.969,14.000 9.969,14.000 C9.969,14.000 10.969,14.000 10.969,14.000 C10.969,14.000 10.969,15.000 10.969,15.000 C10.969,15.000 11.969,15.000 11.969,15.000 C11.969,15.000 11.969,8.000 11.969,8.000 C11.969,8.000 12.969,8.000 12.969,8.000 C12.969,8.000 12.969,15.000 12.969,15.000 C12.969,15.000 13.969,15.000 13.969,15.000 C13.969,15.000 13.969,14.000 13.969,14.000 C13.969,14.000 14.969,14.000 14.969,14.000 C14.969,14.000 14.969,13.000 14.969,13.000 C14.969,13.000 15.969,13.000 15.969,13.000 C15.969,13.000 15.969,14.063 15.969,14.063 C15.969,14.063 14.969,14.063 14.969,14.063 C14.969,14.063 14.969,15.062 14.969,15.062 C14.969,15.062 13.969,15.062 13.969,15.062 C13.969,15.062 13.969,16.063 13.969,16.063 C13.969,16.063 12.969,16.063 12.969,16.063 C12.969,16.063 12.969,17.000 12.969,17.000 C12.969,17.000 11.969,17.000 11.969,17.000 C11.969,17.000 11.969,16.063 11.969,16.063 C11.969,16.063 10.969,16.063 10.969,16.063 C10.969,16.063 10.969,15.062 10.969,15.062 C10.969,15.062 9.969,15.062 9.969,15.062 C9.969,15.062 9.969,14.063 9.969,14.063 C9.969,14.063 8.969,14.063 8.969,14.063 C8.969,14.063 8.969,13.000 8.969,13.000 C8.969,13.000 9.969,13.000 9.969,13.000 Z" id="path-1" class="cls-5" fill-rule="evenodd"/>
</svg>
