<svg xmlns="http://www.w3.org/2000/svg" xmlns:xlink="http://www.w3.org/1999/xlink" preserveAspectRatio="xMidYMid" width="24" height="24" viewBox="0 0 24 24">
    <path d="M12.469,14.500 C12.469,14.500 13.469,14.500 13.469,14.500 C13.469,14.500 13.469,13.500 13.469,13.500 C13.469,13.500 14.469,13.500 14.469,13.500 C14.469,13.500 14.469,12.500 14.469,12.500 C14.469,12.500 7.469,12.500 7.469,12.500 C7.469,12.500 7.469,11.500 7.469,11.500 C7.469,11.500 14.469,11.500 14.469,11.500 C14.469,11.500 14.469,10.500 14.469,10.500 C14.469,10.500 13.469,10.500 13.469,10.500 C13.469,10.500 13.469,9.500 13.469,9.500 C13.469,9.500 12.469,9.500 12.469,9.500 C12.469,9.500 12.469,8.500 12.469,8.500 C12.469,8.500 13.531,8.500 13.531,8.500 C13.531,8.500 13.531,9.500 13.531,9.500 C13.531,9.500 14.531,9.500 14.531,9.500 C14.531,9.500 14.531,10.500 14.531,10.500 C14.531,10.500 15.531,10.500 15.531,10.500 C15.531,10.500 15.531,11.500 15.531,11.500 C15.531,11.500 16.469,11.500 16.469,11.500 C16.469,11.500 16.469,12.500 16.469,12.500 C16.469,12.500 15.531,12.500 15.531,12.500 C15.531,12.500 15.531,13.500 15.531,13.500 C15.531,13.500 14.531,13.500 14.531,13.500 C14.531,13.500 14.531,14.500 14.531,14.500 C14.531,14.500 13.531,14.500 13.531,14.500 C13.531,14.500 13.531,15.500 13.531,15.500 C13.531,15.500 12.469,15.500 12.469,15.500 C12.469,15.500 12.469,14.500 12.469,14.500 Z" id="path-1" class="cls-5" fill-rule="evenodd"/>
</svg>
