<?xml version="1.0" encoding="utf-8"?>
<svg xmlns="http://www.w3.org/2000/svg"
	xmlns:xlink="http://www.w3.org/1999/xlink"
	width="38px" height="38px" viewBox="0 0 38 38">
<path class="cls-b3" fillRule="evenodd" d="M 29 20C 29 20 18 20 18 20 18 20 18 25.42 18 25.42 18 26.57 17 27 16 27 16 27 13 27 13 27 12 27 11 26.15 11 25 11 25 11 20 11 20 11 20 9 20 9 20 9 20 9 18 9 18 9 18 11 18 11 18 11 18 11 13 11 13 11 11.85 12 11 13 11 13 11 16 11 16 11 17 11 18 11.85 18 13 18 13 18 18 18 18 18 18 29 18 29 18 29 18 29 20 29 20Z" fill="rgb(127,203,247)"/><path class="cls-b1" fillRule="evenodd" d="M 22 24C 20.9 24 20 23.1 20 22 20 22 20 16 20 16 20 14.9 20.9 14 22 14 22 14 25 14 25 14 26.1 14 27 14.9 27 16 27 16 27 22 27 22 27 23.1 26.1 24 25 24 25 24 22 24 22 24Z" fill="rgb(55,153,235)"/></svg>