<svg width="34px" height="34px" viewBox="0 0 34 34" version="1.1" xmlns="http://www.w3.org/2000/svg" xmlns:xlink="http://www.w3.org/1999/xlink">
  <path class="st1" d="M14.5,21 L12.5,21 C11.395,21 10.5,20.105 10.5,19 L10.5,15 C10.5,13.895 11.395,13 12.5,13 L14.5,13 C15.604,13 16.5,13.895 16.5,15 L16.5,19 C16.5,20.105 15.604,21 14.5,21 Z M9.5,22 L24.5,22 L24.5,24 L9.5,24 L9.5,22 Z"></path>
  <path class="st2" d="M21.5,21 L19.5,21 C18.395,21 17.5,20.105 17.5,19 L17.5,12 C17.5,10.895 18.395,10 19.5,10 L21.5,10 C22.605,10 23.5,10.895 23.5,12 L23.5,19 C23.5,20.105 22.605,21 21.5,21"></path>
</svg>