<svg width="34px" height="34px" viewBox="0 0 34 34" version="1.1" xmlns="http://www.w3.org/2000/svg" xmlns:xlink="http://www.w3.org/1999/xlink">
  <path class="st1" d="M23.5,19 C23.5,20.105 22.605,21 21.5,21 L19.5,21 C18.395,21 17.5,20.105 17.5,19 L17.5,15 C17.5,13.895 18.395,13 19.5,13 L21.5,13 C22.605,13 23.5,13.895 23.5,15 L23.5,19 Z M9.5,10 L24.5,10 L24.5,12 L9.5,12 L9.5,10 Z"></path>
  <path class="st2" d="M16.5,22 C16.5,23.105 15.604,24 14.5,24 L12.5,24 C11.395,24 10.5,23.105 10.5,22 L10.5,15 C10.5,13.895 11.395,13 12.5,13 L14.5,13 C15.604,13 16.5,13.895 16.5,15 L16.5,22"></path>
</svg>