<svg width="34px" height="34px" viewBox="0 0 34 34" version="1.1" xmlns="http://www.w3.org/2000/svg" xmlns:xlink="http://www.w3.org/1999/xlink">
  <path class="st1" d="M15,23 L13,23 C11.895,23 11,22.105 11,21 L11,13 C11,11.895 11.895,11 13,11 L15,11 C16.104,11 17,11.895 17,13 L17,21 C17,22.105 16.104,23 15,23"></path>
  <path class="st2" d="M26,16 L24,16 L24,15 C24,13.895 23.104,13 22,13 L20,13 C18.896,13 18,13.895 18,15 L18,16 L17,16 L17,18 L18,18 L18,19 C18,20.105 18.896,21 20,21 L22,21 C23.104,21 24,20.105 24,19 L24,18 L26,18 L26,16 Z M9,16 L11,16 L11,18 L9,18 L9,16 Z"></path>
</svg>

