<svg width="34px" height="34px" viewBox="0 0 34 34" version="1.1" xmlns="http://www.w3.org/2000/svg" xmlns:xlink="http://www.w3.org/1999/xlink">
  <path class="st1" d="M16,23.492 L18,23.492 L18,24.492 L16,24.492 L16,23.492 Z M19,10.5 L18,10.5 L18,9.5 L16,9.5 L16,10.5 L15,10.5 C13.896,10.5 13,11.395 13,12.5 L13,14.5 C13,15.605 13.896,16.5 15,16.5 L16,16.5 L16,17.5 L18,17.5 L18,16.5 L19,16.5 C20.104,16.5 21,15.605 21,14.5 L21,12.5 C21,11.395 20.104,10.5 19,10.5 Z"></path>
  <path class="st2" d="M24,21.5 C24,22.605 23.104,23.5 22,23.5 L12,23.5 C10.895,23.5 10,22.605 10,21.5 L10,19.5 C10,18.395 10.895,17.5 12,17.5 L22,17.5 C23.104,17.5 24,18.395 24,19.5 L24,21.5"></path>
</svg>