<svg width="34px" height="34px" viewBox="0 0 34 34" version="1.1" xmlns="http://www.w3.org/2000/svg" xmlns:xlink="http://www.w3.org/1999/xlink">
  <path class="st1" d="M21.5,12.5 C21.5,11.395 20.604,10.5 19.5,10.5 L14.5,10.5 C13.395,10.5 12.5,11.395 12.5,12.5 L12.5,14.5 C12.5,15.605 13.395,16.5 14.5,16.5 L19.5,16.5 C20.604,16.5 21.5,15.605 21.5,14.5 L21.5,12.5 Z M22.5,9.5 L24.5,9.5 L24.5,24.5 L22.5,24.5 L22.5,9.5 Z"></path>
  <path class="st2" d="M21.5,19.5 C21.5,18.395 20.604,17.5 19.5,17.5 L11.5,17.5 C10.395,17.5 9.5,18.395 9.5,19.5 L9.5,21.5 C9.5,22.605 10.395,23.5 11.5,23.5 L19.5,23.5 C20.604,23.5 21.5,22.605 21.5,21.5 L21.5,19.5"></path>
</svg>