<svg xmlns="http://www.w3.org/2000/svg" width="34" height="34" viewBox="0 0 34 34"><path d="M25.44 9.445c-.9-.87-2.406-1.624-5.747 1.717-1.342 1.342-3.69 4.916-4.873 7.133l.02.054a3.07 3.07 0 0 0-1.287-.294c-.743 0-1.51.27-2.118.878-2.316 2.316.04 3.736-3.615 6.36l.085.002c.665 0 5.094-.09 7.448-2.444.17-.17.314-.35.44-.534l.027-.023v-.023c.475-.715.616-1.5.454-2.206 2.285-1.153 6.04-3.468 7.448-4.875 3.34-3.34 2.586-4.845 1.717-5.745zm-11.887 9.61c.524 0 1.037.202 1.373.537.28.282.412.64.416 1.022 0 0 .01 2.238-2.522 1.68v-2h-1.203c.127-.206.292-.42.525-.653a1.96 1.96 0 0 1 1.41-.584z" class="st1"/></svg>