<svg width="34px" height="34px" viewBox="0 0 34 34" version="1.1" xmlns="http://www.w3.org/2000/svg" xmlns:xlink="http://www.w3.org/1999/xlink">
  <path class="st1" d="M25.4386659,9.44533406 C24.5386659,8.57633406 23.0336659,7.82133406 19.6926659,11.1623341 C18.3506659,12.5043341 16.0026659,16.0783341 14.8196659,18.2953341 L14.8386659,18.3493341 C14.4436659,18.1663341 14.0046659,18.0563341 13.5526659,18.0563341 C12.8096659,18.0563341 12.0436659,18.3263341 11.4346659,18.9343341 C9.11866594,21.2503341 11.4756659,22.6703341 7.81966594,25.2953341 L7.90466594,25.2963341 C8.56966594,25.2963341 12.9986659,25.2053341 15.3526659,22.8523341 C15.5226659,22.6813341 15.6666659,22.5023341 15.7926659,22.3183341 L15.8196659,22.2953341 L15.8196659,22.2723341 C16.2946659,21.5573341 16.4356659,20.7713341 16.2736659,20.0663341 C18.5586659,18.9133341 22.3146659,16.5983341 23.7216659,15.1913341 C27.0626659,11.8503341 26.3076659,10.3453341 25.4386659,9.44533406 L25.4386659,9.44533406 Z M13.5526659,19.0563341 C14.0766659,19.0563341 14.5896659,19.2573341 14.9256659,19.5923341 C15.2066659,19.8743341 15.3376659,20.2323341 15.3416659,20.6143341 C15.3416659,20.6143341 15.3526659,22.8523341 12.8196659,22.2953341 L12.8196659,20.2953341 L11.6166659,20.2953341 C11.7436659,20.0883341 11.9086659,19.8743341 12.1416659,19.6413341 C12.6256659,19.1583341 13.1756659,19.0563341 13.5526659,19.0563341 L13.5526659,19.0563341 Z"></path>
</svg>