<svg width="34px" height="34px" viewBox="0 0 34 34" version="1.1" xmlns="http://www.w3.org/2000/svg" xmlns:xlink="http://www.w3.org/1999/xlink">
  <path class="st1" d="M13,22 L13,15 L11,15 L11,22 C11,23.65 12.35,25 14,25 L20,25 L20,23 L14,23 C13.45,23 13,22.55 13,22 L13,22 Z M22,10 L16,10 C14.9,10 14,10.9 14,12 L14,20 C14,21.1 14.9,22 16,22 L22,22 C23.104,22 24,21.105 24,20 L24,12 C24,10.895 23.104,10 22,10 L22,10 Z M16,14 L22,14 L22,15 L16,15 L16,14 Z M16,12 L22,12 L22,13 L16,13 L16,12 Z"></path>
</svg>