<svg version="1.1" xmlns="http://www.w3.org/2000/svg" xmlns:xlink="http://www.w3.org/1999/xlink" width="32px" height="32px" viewBox="0 0 32 32">
  <path class="st0" d="M32,16c0,8.837-7.163,16-16,16S0,24.837,0,16S7.163,0,16,0S32,7.163,32,16z"/>
  <g class="trash-bin">
    <path class="st1" d="M14,13h1v6h-1V13z"/>
    <path class="st1" d="M18,13h1v6h-1V13z"/>
    <path class="st1" d="M16,13h1v6h-1V13z"/>
    <path class="st1" d="M19,10V9.5C19,8.701,18.249,8,17.392,8h-1.867C14.684,8,14,8.673,14,9.5V10h-4v1h1v9c0,1.657,1.343,3,3,3h5
                        c1.657,0,3-1.343,3-3v-9h1v-1H19z M15,9.5C15,9.229,15.24,9,15.525,9h1.867C17.693,9,18,9.252,18,9.5V10h-3V9.5z M21,20
                        c0,1.105-0.895,2-2,2h-5c-1.105,0-2-0.895-2-2v-9h2h5h2V20z"/>    
    <path class="st2" d="M22,10h-3V8h-5v2h-3c0,0-1,0-1,1s1,0.992,1,0.992V20c0,1.65,1.35,3,3,3h5c1.657,0,3-1.343,3-3v-8.008c0,0,1,0.042,1-0.996
                         S22,10,22,10z M15,20h-1v-7h1V20z M19,20h-1v-7h1V20z M15,9h3v1h-3V9z"/>
  </g>
</svg>