<svg xmlns="http://www.w3.org/2000/svg" width="32" height="32" viewBox="0 0 32 32"><path d="M32 16c0 8.837-7.163 16-16 16S0 24.837 0 16 7.163 0 16 0s16 7.163 16 16z" class="st0"/><g class="trash-bin"><path d="M14 13h1v6h-1v-6zM18 13h1v6h-1v-6zM16 13h1v6h-1v-6z" class="st1"/><path d="M19 10v-.5c0-.8-.75-1.5-1.608-1.5h-1.867C14.685 8 14 8.673 14 9.5v.5h-4v1h1v9a3 3 0 0 0 3 3h5a3 3 0 0 0 3-3v-9h1v-1h-4zm-4-.5c0-.27.24-.5.525-.5h1.867c.3 0 .608.252.608.5v.5h-3v-.5zM21 20a2 2 0 0 1-2 2h-5a2 2 0 0 1-2-2v-9h9v9z" class="st1"/><path d="M22 10h-3V8h-5v2h-3s-1 0-1 1 1 .992 1 .992V20c0 1.65 1.35 3 3 3h5a3 3 0 0 0 3-3v-8.008s1 .042 1-.996S22 10 22 10zm-7 10h-1v-7h1v7zm4 0h-1v-7h1v7zM15 9h3v1h-3V9z" class="st2"/></g></svg>