<svg width="34px" height="34px" viewBox="0 0 34 34" version="1.1" xmlns="http://www.w3.org/2000/svg" xmlns:xlink="http://www.w3.org/1999/xlink">
  <path class="st1" d="M22.5,11.5 L19.5,11.5 L19.5,9.5 L14.5,9.5 L14.5,11.5 L11.5,11.5 C11.5,11.5 10.5,11.5 10.5,12.5 C10.5,13.5 11.5,13.492 11.5,13.492 L11.5,21.5 C11.5,23.15 12.85,24.5 14.5,24.5 L19.5,24.5 C21.157,24.5 22.5,23.157 22.5,21.5 L22.5,13.492 C22.5,13.492 23.5,13.534 23.5,12.496 C23.5,11.458 22.5,11.5 22.5,11.5 L22.5,11.5 Z M14.5,14.5 L15.5,14.5 L15.5,21.5 L14.5,21.5 L14.5,14.5 Z M18.5,14.5 L19.5,14.5 L19.5,21.5 L18.5,21.5 L18.5,14.5 Z M15.5,10.5 L18.5,10.5 L18.5,11.5 L15.5,11.5 L15.5,10.5 Z"></path>
</svg>