<svg xmlns="http://www.w3.org/2000/svg" width="34" height="34" viewBox="0 0 34 34"><path d="M19.5 9h-14C4.673 9 4 9.673 4 10.5v10c0 .827.673 1.5 1.5 1.5H12v2h-2v1h5v-1h-2v-2h6.5c.827 0 1.5-.673 1.5-1.5v-10c0-.827-.673-1.5-1.5-1.5zm.5 11.5a.5.5 0 0 1-.5.5h-14a.5.5 0 0 1-.5-.5V19h15v1.5zm0-2.5H5v-7.5a.5.5 0 0 1 .5-.5h14a.5.5 0 0 1 .5.5V18zm9.5-6h-5c-.827 0-1.5.673-1.5 1.5v10c0 .827.673 1.5 1.5 1.5h5c.827 0 1.5-.673 1.5-1.5v-10c0-.827-.673-1.5-1.5-1.5zm.5 11.5a.5.5 0 0 1-.5.5h-5a.5.5 0 0 1-.5-.5v-10a.5.5 0 0 1 .5-.5h5a.5.5 0 0 1 .5.5v10zM27 21a1 1 0 1 0 0 2 1 1 0 0 0 0-2z" class="st1"/></svg>