<svg width="34px" height="34px" viewBox="0 0 34 34" version="1.1" xmlns="http://www.w3.org/2000/svg" xmlns:xlink="http://www.w3.org/1999/xlink">
  <path class="st1" d="M18,9 L6,9 C4.895,9 4,9.895 4,11 L4,20 C4,21.1 4.9,22 6,22 L11,22 L11,23 L9,23 L9,25 L15,25 L15,23 L13,23 L13,22 L18,22 C19.104,22 20,21.105 20,20 L20,11 C20,9.895 19.104,9 18,9 L18,9 Z M6,11 L18,11 L18,17 L6,17 L6,11 Z M29,12 L24,12 C22.895,12 22,12.895 22,14 L22,23 C22,24.105 22.895,25 24,25 L29,25 C30.1,25 31,24.1 31,23 L31,14 C31,12.895 30.104,12 29,12 L29,12 Z M26.675,23 C26.399,23 26.175,22.776 26.175,22.5 C26.175,22.224 26.399,22 26.675,22 C26.951,22 27.175,22.224 27.175,22.5 C27.175,22.776 26.951,23 26.675,23 L26.675,23 Z M24,14 L29,14 L29,20 L24,20 L24,14 Z"></path>
</svg>