<svg width="34px" height="34px" viewBox="0 0 34 34" version="1.1" xmlns="http://www.w3.org/2000/svg" xmlns:xlink="http://www.w3.org/1999/xlink">
  <path class="st1" d="M19.5,9 L5.5,9 C4.673,9 4,9.673 4,10.5 L4,20.5 C4,21.327 4.673,22 5.5,22 L12,22 L12,24 L10,24 L10,25 L15,25 L15,24 L13,24 L13,22 L19.5,22 C20.327,22 21,21.327 21,20.5 L21,10.5 C21,9.673 20.327,9 19.5,9 L19.5,9 Z M20,20.5 C20,20.776 19.776,21 19.5,21 L5.5,21 C5.224,21 5,20.776 5,20.5 L5,19 L20,19 L20,20.5 L20,20.5 Z M20,18 L5,18 L5,10.5 C5,10.224 5.224,10 5.5,10 L19.5,10 C19.776,10 20,10.224 20,10.5 L20,18 L20,18 Z M29.5,12 L24.5,12 C23.673,12 23,12.673 23,13.5 L23,23.5 C23,24.327 23.673,25 24.5,25 L29.5,25 C30.327,25 31,24.327 31,23.5 L31,13.5 C31,12.673 30.327,12 29.5,12 L29.5,12 Z M30,23.5 C30,23.776 29.776,24 29.5,24 L24.5,24 C24.224,24 24,23.776 24,23.5 L24,13.5 C24,13.224 24.224,13 24.5,13 L29.5,13 C29.776,13 30,13.224 30,13.5 L30,23.5 L30,23.5 Z M27,21 C26.448,21 26,21.448 26,22 C26,22.552 26.448,23 27,23 C27.552,23 28,22.552 28,22 C28,21.448 27.552,21 27,21 L27,21 Z"></path>
</svg>