<svg width="34px" height="34px" viewBox="0 0 34 34" version="1.1" xmlns="http://www.w3.org/2000/svg" xmlns:xlink="http://www.w3.org/1999/xlink">  
  <path class="st1" d="M20,20 L15,20 C13.896,20 13,20.895 13,22 C13,23.105 13.896,24 15,24 L20,24 C21.104,24 22,23.105 22,22 C22,20.895 21.104,20 20,20 L20,20 Z M15,14 L20,14 C21.104,14 22,13.105 22,12 C22,10.895 21.104,10 20,10 L15,10 C13.896,10 13,10.895 13,12 C13,13.105 13.896,14 15,14 L15,14 Z M24,15 L11,15 C9.896,15 9,15.895 9,17 C9,18.105 9.896,19 11,19 L24,19 C25.104,19 26,18.105 26,17 C26,15.895 25.104,15 24,15 L24,15 Z"></path>
</svg>