<svg width="34px" height="34px" viewBox="0 0 34 34" version="1.1" xmlns="http://www.w3.org/2000/svg" xmlns:xlink="http://www.w3.org/1999/xlink">
  <path class="st1" d="M17,12 C17,10.895 16.104,10 15,10 L10,10 C8.896,10 8,10.895 8,12 C8,13.105 8.896,14 10,14 L15,14 C16.104,14 17,13.105 17,12 L17,12 Z M25,20 L20,20 C18.895,20 18,20.895 18,22 C18,23.105 18.895,24 20,24 L25,24 C26.104,24 27,23.105 27,22 C27,20.895 26.104,20 25,20 L25,20 Z M24,17 C24,15.895 23.104,15 22,15 L13,15 C11.896,15 11,15.895 11,17 C11,18.105 11.896,19 13,19 L22,19 C23.104,19 24,18.105 24,17 L24,17 Z" ></path>
</svg>