<svg width="34px" height="34px" viewBox="0 0 34 34" version="1.1" xmlns="http://www.w3.org/2000/svg" xmlns:xlink="http://www.w3.org/1999/xlink">
  <path class="st1" d="M22,13.5 C20.895,13.5 20,14.396 20,15.5 L20,18.5 C20,19.604 20.895,20.5 22,20.5 C23.104,20.5 24,19.604 24,18.5 L24,15.5 C24,14.396 23.104,13.5 22,13.5 L22,13.5 Z M12,13.5 C10.895,13.5 10,14.396 10,15.5 L10,18.5 C10,19.604 10.895,20.5 12,20.5 C13.104,20.5 14,19.604 14,18.5 L14,15.5 C14,14.396 13.104,13.5 12,13.5 L12,13.5 Z M17,9.5 C15.895,9.5 15,10.396 15,11.5 L15,22.5 C15,23.605 15.895,24.5 17,24.5 C18.104,24.5 19,23.605 19,22.5 L19,11.5 C19,10.396 18.104,9.5 17,9.5 L17,9.5 Z"></path>
</svg>