<svg width="34px" height="34px" viewBox="0 0 34 34" version="1.1" xmlns="http://www.w3.org/2000/svg" xmlns:xlink="http://www.w3.org/1999/xlink">
  <path class="st1" d="M12.5,21.5 L12.5,13.5 L10.5,13.5 L10.5,21.5 C10.5,23.154 11.846,24.5 13.5,24.5 L20.5,24.5 L20.5,22.5 L13.5,22.5 C12.949,22.5 12.5,22.051 12.5,21.5 L12.5,21.5 Z M19.5,9.5 L15.5,9.5 C14.396,9.5 13.5,10.395 13.5,11.5 L13.5,19.5 C13.5,20.605 14.396,21.5 15.5,21.5 L21.5,21.5 C22.6,21.5 23.5,20.6 23.5,19.5 L23.5,13.5 L19.5,9.5 L19.5,9.5 Z M21.5,19.5 L15.5,19.5 L15.5,11.5 L18.5,11.5 L18.5,14.5 L21.5,14.5 L21.5,19.5 L21.5,19.5 Z"></path>
</svg>