<svg xmlns="http://www.w3.org/2000/svg" width="34" height="34" viewBox="0 0 34 34"><g class="st1"><path d="M16.745 22.57h.782V21.04h-.782v1.527zM17 8a9 9 0 1 0 0 18 9 9 0 0 0 0-18zm-8 9c0-4.41 3.59-8 8-8 4.412 0 8 3.59 8 8 0 4.412-3.588 8-8 8-4.41 0-8-3.588-8-8z"/><path d="M19.8 12.952c-.272-.27-.63-.497-1.072-.68-.443-.18-.996-.272-1.66-.272a3.59 3.59 0 0 0-1.392.26c-.415.172-.77.412-1.064.72a3.283 3.283 0 0 0-.686 1.092 4 4 0 0 0-.26 1.386h2.06c0-.252.027-.488.083-.707.055-.218.14-.41.258-.573.116-.163.266-.294.448-.392.182-.098.4-.147.65-.147.374 0 .666.103.876.308.21.205.315.523.315.952a1.313 1.313 0 0 1-.308.875c-.094.117-.202.224-.323.322-.12.098-.252.203-.392.315a7.17 7.17 0 0 0-.413.357c-.135.126-.26.275-.37.448a2.81 2.81 0 0 0-.288.595 2.92 2.92 0 0 0-.147.798v.63h1.89v-.532c.028-.205.09-.385.182-.54.092-.153.202-.293.328-.42.126-.125.264-.242.413-.35.15-.106.3-.216.45-.328a4.66 4.66 0 0 0 .433-.37 2.38 2.38 0 0 0 .644-1.12c.066-.247.1-.54.1-.875 0-.27-.06-.562-.176-.875a2.452 2.452 0 0 0-.58-.875"/></g></svg>