<svg width="34px" height="34px" viewBox="0 0 34 34" version="1.1" xmlns="http://www.w3.org/2000/svg" xmlns:xlink="http://www.w3.org/1999/xlink">
  <g class="st1">
    <path d="M16.745,22.569 L17.527,22.569 L17.527,21.042 L16.745,21.042 L16.745,22.569 Z M17,8 C12.03,8 8,12.03 8,17 C8,21.971 12.03,26 17,26 C21.971,26 26,21.971 26,17 C26,12.03 21.971,8 17,8 L17,8 Z M9,17 C9,12.589 12.589,9 17,9 C21.412,9 25,12.589 25,17 C25,21.412 21.412,25 17,25 C12.589,25 9,21.412 9,17 Z"></path>
    <path d="M19.799,12.952 C19.528,12.681 19.171,12.455 18.728,12.273 C18.285,12.091 17.732,12 17.069,12 C16.556,12 16.091,12.086 15.676,12.259 C15.261,12.432 14.906,12.672 14.612,12.98 C14.318,13.288 14.089,13.652 13.926,14.072 C13.763,14.492 13.676,14.954 13.667,15.458 L15.725,15.458 C15.725,15.206 15.753,14.97 15.809,14.751 C15.865,14.532 15.951,14.34 16.068,14.177 C16.184,14.014 16.334,13.883 16.516,13.785 C16.698,13.687 16.915,13.638 17.167,13.638 C17.54,13.638 17.832,13.741 18.042,13.946 C18.252,14.151 18.357,14.469 18.357,14.898 C18.357,15.085 18.329,15.248 18.273,15.388 C18.217,15.528 18.142,15.656 18.049,15.773 C17.956,15.89 17.848,15.997 17.727,16.095 C17.606,16.193 17.475,16.298 17.335,16.41 C17.195,16.522 17.057,16.641 16.922,16.767 C16.787,16.893 16.663,17.042 16.551,17.215 C16.439,17.388 16.343,17.586 16.264,17.81 C16.184,18.034 16.136,18.3 16.117,18.608 L16.117,19.238 L18.007,19.238 L18.007,18.706 C18.035,18.501 18.096,18.321 18.189,18.167 C18.282,18.013 18.392,17.873 18.518,17.747 C18.644,17.621 18.782,17.504 18.931,17.397 C19.08,17.29 19.23,17.18 19.379,17.068 C19.528,16.956 19.673,16.832 19.813,16.697 C19.953,16.562 20.079,16.403 20.191,16.221 C20.303,16.039 20.392,15.824 20.457,15.577 C20.522,15.33 20.555,15.038 20.555,14.702 C20.555,14.431 20.497,14.14 20.38,13.827 C20.263,13.514 20.07,13.223 19.799,12.952" ></path>
  </g>
</svg>