<svg xmlns="http://www.w3.org/2000/svg" width="34" height="34" viewBox="0 0 34 34"><path d="M19.207 13.048a2.725 2.725 0 0 0-.903-.51 3.39 3.39 0 0 0-1.1-.175c-.503 0-.954.08-1.35.238-.397.16-.728.38-.994.666-.266.285-.74.964-.74 2.4h.79c-.01 0 .03-.706.125-1.014.093-.308.233-.58.42-.81.186-.227.422-.408.707-.54a2.37 2.37 0 0 1 1-.196 2.116 2.116 0 0 1 1.408.524 1.818 1.818 0 0 1 .595 1.365c0 .364-.087.696-.26.994-.172.298-.39.57-.65.81-.3.272-.555.51-.756.73-.417.45-.755.793-.755 2.137h.782c.01 0 .028-.558.056-.782.028-.224.084-.32.168-.482.085-.163.21-.275.38-.433.167-.16.4-.363.7-.662.353-.336.645-.673.874-1.037.23-.363.343-.8.343-1.323 0-.4-.075-.76-.224-1.082a2.37 2.37 0 0 0-.616-.817zm-2.462 9.52h.782v-1.526h-.782v1.527zM17 8a9 9 0 1 0 0 18 9 9 0 0 0 0-18zm0 17c-4.41 0-8-3.588-8-8 0-4.41 3.59-8 8-8 4.412 0 8 3.59 8 8 0 4.412-3.588 8-8 8z" class="st1"/></svg>