<svg width="34px" height="34px" viewBox="0 0 34 34" version="1.1" xmlns="http://www.w3.org/2000/svg" xmlns:xlink="http://www.w3.org/1999/xlink">
  <path class="st1" d="M19.207,13.048 C18.946,12.823 18.644,12.654 18.304,12.537 C17.963,12.421 17.597,12.363 17.205,12.363 C16.701,12.363 16.25,12.442 15.854,12.601 C15.457,12.76 15.126,12.981 14.86,13.266 C14.594,13.551 14.12,14.23 14.12,15.667 L14.909,15.667 C14.9,15.667 14.941,14.96 15.035,14.652 C15.128,14.344 15.268,14.072 15.455,13.843 C15.641,13.615 15.877,13.434 16.162,13.303 C16.446,13.172 16.78,13.106 17.163,13.106 C17.433,13.106 17.69,13.152 17.933,13.246 C18.175,13.339 18.388,13.467 18.57,13.63 C18.752,13.794 18.896,13.992 19.004,14.225 C19.111,14.459 19.165,14.715 19.165,14.995 C19.165,15.359 19.078,15.691 18.906,15.989 C18.733,16.288 18.516,16.559 18.255,16.801 C17.956,17.072 17.7,17.311 17.499,17.529 C17.083,17.98 16.745,18.323 16.745,19.667 L17.527,19.667 C17.536,19.667 17.555,19.109 17.583,18.885 C17.611,18.661 17.667,18.566 17.751,18.403 C17.835,18.24 17.961,18.128 18.129,17.97 C18.297,17.811 18.53,17.607 18.829,17.308 C19.183,16.972 19.475,16.635 19.704,16.271 C19.933,15.907 20.047,15.47 20.047,14.947 C20.047,14.546 19.972,14.187 19.823,13.865 C19.674,13.543 19.468,13.271 19.207,13.048 L19.207,13.048 Z M16.745,22.569 L17.527,22.569 L17.527,21.042 L16.745,21.042 L16.745,22.569 Z M17,8 C12.03,8 8,12.03 8,17 C8,21.971 12.03,26 17,26 C21.971,26 26,21.971 26,17 C26,12.03 21.971,8 17,8 L17,8 Z M17,25 C12.589,25 9,21.412 9,17 C9,12.589 12.589,9 17,9 C21.412,9 25,12.589 25,17 C25,21.412 21.412,25 17,25 L17,25 Z"></path>
</svg>