<svg width="34px" height="34px" viewBox="0 0 34 34" version="1.1" xmlns="http://www.w3.org/2000/svg" xmlns:xlink="http://www.w3.org/1999/xlink">
  <path class="st0" d="M21,11 L13,11 C11.343,11 10,12.343 10,14 L10,21 C10,22.657 11.343,24 13,24 L21,24 C22.657,24 24,22.657 24,21 L24,14 C24,12.343 22.657,11 21,11 L21,11 Z M13.5,13 C14.328,13 15,13.672 15,14.5 C15,15.328 14.328,16 13.5,16 C12.672,16 12,15.328 12,14.5 C12,13.672 12.672,13 13.5,13 L13.5,13 Z M12.078,22 L15.078,18.996 L16.078,20.994 L19.078,16.997 L22.078,22 L12.078,22 L12.078,22 Z"></path>
</svg>