<svg width="34px" height="34px" viewBox="0 0 34 34" version="1.1" xmlns="http://www.w3.org/2000/svg" xmlns:xlink="http://www.w3.org/1999/xlink">
  <path class="st1" d="M20.5,14.8125 L20.5,13.7915 C20.5,11.7705 18.963,10.1875 17,10.1875 C15.037,10.1875 13.5,11.7705 13.5,13.7915 L13.5,14.8125 C12.396,14.8125 11.5,15.7075 11.5,16.8125 L11.5,21.8125 C11.5,22.9175 12.396,23.8125 13.5,23.8125 L20.5,23.8125 C21.604,23.8125 22.5,22.9175 22.5,21.8125 L22.5,16.8125 C22.5,15.7075 21.604,14.8125 20.5,14.8125 L20.5,14.8125 Z M17.5,20.2205 L17.5,21.3125 C17.5,21.5885 17.276,21.8125 17,21.8125 C16.724,21.8125 16.5,21.5885 16.5,21.3125 L16.5,20.2205 C15.919,20.0145 15.5,19.4645 15.5,18.8125 C15.5,17.9845 16.172,17.3125 17,17.3125 C17.828,17.3125 18.5,17.9845 18.5,18.8125 C18.5,19.4645 18.081,20.0145 17.5,20.2205 L17.5,20.2205 Z M18.5,14.8125 L15.5,14.8125 L15.5,13.7915 C15.5,12.8775 16.145,12.1875 17,12.1875 C17.855,12.1875 18.5,12.8775 18.5,13.7915 L18.5,14.8125 L18.5,14.8125 Z"></path>
</svg>