<svg width="34px" height="34px" viewBox="0 0 34 34" version="1.1" xmlns="http://www.w3.org/2000/svg" xmlns:xlink="http://www.w3.org/1999/xlink">
  <path class="st1" d="M16.5,24.5 L11.5,24.5 C10.395,24.5 9.5,23.605 9.5,22.5 L9.5,17.5 C9.5,16.395 10.395,15.5 11.5,15.5 L16.5,15.5 C17.604,15.5 18.5,16.395 18.5,17.5 L18.5,22.5 C18.5,23.605 17.604,24.5 16.5,24.5 Z M9.5,9.5 L11.5,9.5 L11.5,14.5 L9.5,14.5 L9.5,9.5 Z M17.5,9.5 L19.5,9.5 L19.5,14.5 L17.5,14.5 L17.5,9.5 Z M19.5,14.5 L24.5,14.5 L24.5,16.5 L19.5,16.5 L19.5,14.5 Z M19.5,22.5 L24.5,22.5 L24.5,24.5 L19.5,24.5 L19.5,22.5 Z"></path>
  <path class="st2" d="M15.5,14.5 L13.5,14.5 C12.948,14.5 12.5,14.052 12.5,13.5 L12.5,10.5 C12.5,9.948 12.948,9.5 13.5,9.5 L15.5,9.5 C16.052,9.5 16.5,9.948 16.5,10.5 L16.5,13.5 C16.5,14.052 16.052,14.5 15.5,14.5"></path>
  <path class="st2" d="M24.5,18.5 C24.5,17.948 24.052,17.5 23.5,17.5 L20.5,17.5 C19.948,17.5 19.5,17.948 19.5,18.5 L19.5,20.5 C19.5,21.052 19.948,21.5 20.5,21.5 L23.5,21.5 C24.052,21.5 24.5,21.052 24.5,20.5 L24.5,18.5"></path>
</svg>