<svg width="34px" height="34px" viewBox="0 0 34 34" version="1.1" xmlns="http://www.w3.org/2000/svg" xmlns:xlink="http://www.w3.org/1999/xlink">
  <path class="st1" d="M15,24 L13,24 C11.895,24 11,23.105 11,22 L11,12 C11,10.895 11.895,10 13,10 L15,10 C16.105,10 17,10.895 17,12 L17,22 C17,23.105 16.105,24 15,24 Z M18,10 L24,10 L24,12 L18,12 L18,10 Z M18,22 L24,22 L24,24 L18,24 L18,22 Z"></path>
  <path class="st2" d="M24,19 C24,20.105 23.105,21 22,21 L20,21 C18.895,21 18,20.105 18,19 L18,15 C18,13.895 18.895,13 20,13 L22,13 C23.105,13 24,13.895 24,15 L24,19"></path>
</svg>