<svg width="34px" height="34px" viewBox="0 0 34 34" version="1.1" xmlns="http://www.w3.org/2000/svg" xmlns:xlink="http://www.w3.org/1999/xlink">
  <path class="st1" d="M22,23.5 L12,23.5 C10.895,23.5 10,22.605 10,21.5 L10,19.5 C10,18.395 10.895,17.5 12,17.5 L22,17.5 C23.104,17.5 24,18.395 24,19.5 L24,21.5 C24,22.605 23.104,23.5 22,23.5 Z M10,10.5 L12,10.5 L12,16.5 L10,16.5 L10,10.5 Z M22,10.5 L24,10.5 L24,16.5 L22,16.5 L22,10.5 Z"></path>
  <path class="st2" d="M19,16.5 L15,16.5 C13.895,16.5 13,15.605 13,14.5 L13,12.5 C13,11.395 13.895,10.5 15,10.5 L19,10.5 C20.104,10.5 21,11.395 21,12.5 L21,14.5 C21,15.605 20.104,16.5 19,16.5"></path>
</svg>