<svg width="34px" height="34px" viewBox="0 0 34 34" version="1.1" xmlns="http://www.w3.org/2000/svg" xmlns:xlink="http://www.w3.org/1999/xlink">
  <path class="st1" d="M22,16 L21,16 L21,15 C21,13.895 20.104,13 19,13 L18,13 L18,12 C18,10.895 17.104,10 16,10 L12,10 C10.9,10 10,10.9 10,12 L10,16 C10,17.1 10.9,18 12,18 L13,18 L13,19 C13,20.1 13.9,21 15,21 L16,21 L16,22 C16,23.1 16.9,24 18,24 L22,24 C23.104,24 24,23.105 24,22 L24,18 C24,16.895 23.104,16 22,16 L22,16 Z M16,17.992 L16,19 L15,19 L15,15 L19,15 L19,16 L18.078,16 C16.974,16 16,16.888 16,17.992 L16,17.992 Z M18,18 L22,18 L22,22 L18,22 L18,18 Z"></path>
</svg>