<svg width="34px" height="34px" viewBox="0 0 34 34" version="1.1" xmlns="http://www.w3.org/2000/svg" xmlns:xlink="http://www.w3.org/1999/xlink">
  <path class="st1" d="M22,13 L19,13 L19,12 C19,10.895 18.104,10 17,10 L12,10 C10.9,10 10,10.9 10,12 L10,17 C10,18.1 10.9,19 12,19 L13,19 L13,22 C13,23.1 13.9,24 15,24 L22,24 C23.105,24 24,23.105 24,22 L24,15 C24,13.895 23.105,13 22,13 L22,13 Z M15.078,13 C13.974,13 13,13.888 13,14.992 L13,17 L12,17 L12,12 L17,12 L17,13 L15.078,13 L15.078,13 Z"></path>
</svg>