<svg xmlns="http://www.w3.org/2000/svg" width="34" height="34" viewBox="0 0 34 34"><path d="M22.078 16H21v-1.008C21 13.888 20.183 13 19.078 13H18v-1.008C18 10.888 17.183 10 16.078 10h-4C10.974 10 10 10.888 10 11.992v4c0 1.105.974 2.008 2.078 2.008H13v.992c0 1.105.974 2.008 2.078 2.008H16v.992c0 1.105.974 2.008 2.078 2.008h4C23.183 24 24 23.097 24 21.992v-4C24 16.888 23.183 16 22.078 16zM13 14.992V16h-1v-4h4v1h-.922C13.974 13 13 13.888 13 14.992zM19 16h-.922C16.974 16 16 16.888 16 17.992V19h-1v-4h4v1z" class="st1"/></svg>