<svg width="34px" height="34px" viewBox="0 0 34 34" version="1.1" xmlns="http://www.w3.org/2000/svg" xmlns:xlink="http://www.w3.org/1999/xlink">
  <path class="st1" d="M22,11 L14,11 C12.896,11 12,11.895 12,13 L12,23 L14,23 L14,13.5 C14,13.224 14.224,13 14.5,13 L22,13 L22,11 L22,11 Z M19,8 L11,8 C9.896,8 9,8.895 9,10 L9,20 L11,20 L11,10.5 C11,10.224 11.224,10 11.5,10 L19,10 L19,8 L19,8 Z M23,14 L17,14 C15.896,14 15,14.895 15,16 L15,24 C15,25.105 15.896,26 17,26 L23,26 C24.104,26 25,25.105 25,24 L25,16 C25,14.895 24.104,14 23,14 L23,14 Z"></path>
</svg>