<svg width="34px" height="34px" viewBox="0 0 34 34" version="1.1" xmlns="http://www.w3.org/2000/svg" xmlns:xlink="http://www.w3.org/1999/xlink">
  <path class="st1" d="M23.5,14 L23,14 L23,13.5 C23,12.122 21.878,11 20.5,11 L20,11 L20,10.5 C20,9.122 18.878,8 17.5,8 L11.5,8 C10.122,8 9,9.122 9,10.5 L9,18.5 C9,19.878 10.122,21 11.5,21 L12,21 L12,21.5 C12,22.878 13.122,24 14.5,24 L15,24 L15,24.5 C15,25.878 16.122,27 17.5,27 L23.5,27 C24.878,27 26,25.878 26,24.5 L26,16.5 C26,15.122 24.878,14 23.5,14 L23.5,14 Z M12,13.5 L12,20 L11.5,20 C10.673,20 10,19.327 10,18.5 L10,10.5 C10,9.673 10.673,9 11.5,9 L17.5,9 C18.327,9 19,9.673 19,10.5 L19,11 L14.5,11 C13.122,11 12,12.122 12,13.5 L12,13.5 Z M15,16.5 L15,23 L14.5,23 C13.673,23 13,22.327 13,21.5 L13,13.5 C13,12.673 13.673,12 14.5,12 L20.5,12 C21.327,12 22,12.673 22,13.5 L22,14 L17.5,14 C16.122,14 15,15.122 15,16.5 L15,16.5 Z M25,24.5 C25,25.327 24.327,26 23.5,26 L17.5,26 C16.673,26 16,25.327 16,24.5 L16,16.5 C16,15.673 16.673,15 17.5,15 L23.5,15 C24.327,15 25,15.673 25,16.5 L25,24.5 L25,24.5 Z M18,19 L23,19 L23,18 L18,18 L18,19 Z M18,21 L23,21 L23,20 L18,20 L18,21 Z"></path>
</svg>