<svg xmlns="http://www.w3.org/2000/svg" width="34" height="34" viewBox="0 0 34 34"><path d="M23.5 14H23v-.5c0-1.378-1.122-2.5-2.5-2.5H20v-.5C20 9.122 18.878 8 17.5 8h-6A2.503 2.503 0 0 0 9 10.5v8c0 1.378 1.122 2.5 2.5 2.5h.5v.5c0 1.378 1.122 2.5 2.5 2.5h.5v.5c0 1.378 1.122 2.5 2.5 2.5h6c1.378 0 2.5-1.122 2.5-2.5v-8c0-1.378-1.122-2.5-2.5-2.5zM12 13.5V20h-.5c-.827 0-1.5-.673-1.5-1.5v-8c0-.827.673-1.5 1.5-1.5h6c.827 0 1.5.673 1.5 1.5v.5h-4.5a2.503 2.503 0 0 0-2.5 2.5zm3 3V23h-.5c-.827 0-1.5-.673-1.5-1.5v-8c0-.827.673-1.5 1.5-1.5h6c.827 0 1.5.673 1.5 1.5v.5h-4.5a2.503 2.503 0 0 0-2.5 2.5zm10 8c0 .827-.673 1.5-1.5 1.5h-6c-.827 0-1.5-.673-1.5-1.5v-8c0-.827.673-1.5 1.5-1.5h6c.827 0 1.5.673 1.5 1.5v8zM18 19h5v-1h-5v1zm0 2h5v-1h-5v1z" class="st1"/></svg>