<svg width="34px" height="34px" viewBox="0 0 34 34" version="1.1" xmlns="http://www.w3.org/2000/svg" xmlns:xlink="http://www.w3.org/1999/xlink">
  <path class="st1" d="M19.2776659,23.933867 C15.6946659,23.933867 14.6526659,25.292867 14.6526659,25.292867 L22.0076659,25.292867 C23.3196659,25.292867 25.8406659,25.464867 25.8406659,23.956867 C25.8406659,21.423867 22.1546659,23.933867 19.2776659,23.933867 L19.2776659,23.933867 Z M15.7446659,22.356867 L15.8196659,22.292867 L15.7956659,22.292867 C16.2806659,21.571867 16.4376659,20.776867 16.2736659,20.063867 C18.5586659,18.910867 22.3146659,16.595867 23.7216659,15.188867 C27.0626659,11.847867 26.3076659,10.342867 25.4386659,9.44286695 C24.5386659,8.57386695 23.0336659,7.81886695 19.6926659,11.159867 C18.3506659,12.501867 16.0026659,16.075867 14.8196659,18.292867 L14.8386659,18.346867 L14.8386659,18.347867 C14.4436659,18.163867 14.0056659,18.053867 13.5526659,18.053867 C12.8096659,18.053867 12.0436659,18.323867 11.4346659,18.931867 C9.11866594,21.247867 11.4756659,22.667867 7.81966594,25.292867 L7.90366594,25.293867 C8.56966594,25.293867 12.9986659,25.202867 15.3526659,22.849867 C15.5086659,22.692867 15.6266659,22.524867 15.7446659,22.356867 L15.7446659,22.356867 Z M14.6456659,22.142867 C14.5076659,22.279867 13.2156659,23.355867 11.8196659,23.292867 C11.8196659,23.292867 11.0276659,22.480867 11.2476659,21.292867 C11.3516659,20.731867 11.5316659,20.249867 12.1416659,19.638867 C12.6256659,19.155867 13.1756659,19.053867 13.5526659,19.053867 C14.0766659,19.053867 14.5896659,19.254867 14.9256659,19.589867 C15.5836659,20.248867 15.4656659,21.321867 14.6456659,22.142867 L14.6456659,22.142867 Z"></path>
</svg>