<svg xmlns="http://www.w3.org/2000/svg" width="34" height="34" viewBox="0 0 34 34"><path d="M19.278 23.934c-3.583 0-4.625 1.36-4.625 1.36h7.355c1.312 0 3.833.17 3.833-1.337 0-2.533-3.685-.023-6.562-.023zm-3.533-1.577l.075-.064h-.024c.485-.72.642-1.516.478-2.23 2.285-1.152 6.04-3.467 7.448-4.874 3.34-3.342 2.586-4.847 1.717-5.747-.9-.87-2.406-1.624-5.747 1.717-1.342 1.342-3.69 4.916-4.873 7.133l.02.054a3.052 3.052 0 0 0-1.287-.293c-.743 0-1.51.27-2.118.878-2.316 2.316.04 3.736-3.615 6.36l.084.002c.666 0 5.095-.09 7.45-2.444a3.62 3.62 0 0 0 .39-.493zm-1.1-.214c-.137.137-1.43 1.213-2.825 1.15 0 0-.792-.812-.572-2 .104-.56.284-1.043.894-1.654a1.96 1.96 0 0 1 1.41-.586c.525 0 1.038.2 1.374.536.658.66.54 1.732-.28 2.553z" class="st1"/></svg>