<svg width="34px" height="34px" viewBox="0 0 34 34" version="1.1" xmlns="http://www.w3.org/2000/svg" xmlns:xlink="http://www.w3.org/1999/xlink">
  <path class="st1" d="M21,16.5 L21,12.5 C21,11.396 20.104,10.5 19,10.5 L18,10.5 L18,9.992 C18,9.716 17.854,9.5 17.578,9.5 L13.578,9.5 C13.302,9.5 13,9.716 13,9.992 L13,10.5 L12,10.5 C10.9,10.5 10,11.4 10,12.5 L10,21.5 C10,22.6 10.9,23.5 12,23.5 L14,23.5 L14,18.5 C14,17.395 14.896,16.5 16,16.5 L21,16.5 L21,16.5 Z M14,10.5 L17,10.5 L17,11.5 L14,11.5 L14,10.5 Z M22,17.5 L17,17.5 C15.9,17.5 15,18.4 15,19.5 L15,22.5 C15,23.6 15.9,24.5 17,24.5 L22,24.5 C23.104,24.5 24,23.605 24,22.5 L24,19.5 C24,18.395 23.104,17.5 22,17.5 L22,17.5 Z M17,21.5 L22,21.5 L22,22.5 L17,22.5 L17,21.5 Z M17,19.5 L22,19.5 L22,20.5 L17,20.5 L17,19.5 Z"></path>
</svg>