<svg xmlns="http://www.w3.org/2000/svg" width="34" height="34" viewBox="0 0 34 34"><path d="M25.916 16.79C25.806 16.513 23.136 10 17 10c-6.136 0-8.805 6.513-8.916 6.79L8 17l.084.21c.11.277 2.78 6.79 8.916 6.79 6.136 0 8.806-6.513 8.916-6.79L26 17l-.084-.21zM17 22.923c-4.873 0-7.388-4.846-7.887-5.923.5-1.077 3.014-5.923 7.887-5.923 4.873 0 7.39 4.846 7.888 5.923-.5 1.077-3.015 5.923-7.888 5.923zm0-9.022a3.103 3.103 0 0 0-3.098 3.1c0 1.708 1.39 3.1 3.098 3.1 1.71 0 3.1-1.392 3.1-3.1 0-1.708-1.39-3.1-3.1-3.1zm0 5.2a2.1 2.1 0 0 1-2.098-2.1A2.1 2.1 0 0 1 17 14.9a2.1 2.1 0 0 1 2.1 2.1 2.1 2.1 0 0 1-2.1 2.1z" class="st1"/></svg>