<svg width="34px" height="34px" viewBox="0 0 34 34" version="1.1" xmlns="http://www.w3.org/2000/svg" xmlns:xlink="http://www.w3.org/1999/xlink">
  <path class="st1" d="M25.916,16.79 C25.806,16.513 23.136,10 17,10 C10.864,10 8.195,16.513 8.084,16.79 L8,17 L8.084,17.21 C8.195,17.487 10.864,24 17,24 C23.136,24 25.806,17.487 25.916,17.21 L26,17 L25.916,16.79 L25.916,16.79 Z M17,22.923 C12.127,22.923 9.612,18.077 9.113,17 C9.612,15.923 12.127,11.077 17,11.077 C21.873,11.077 24.389,15.923 24.888,17 C24.389,18.077 21.873,22.923 17,22.923 L17,22.923 Z M17,13.901 C15.292,13.901 13.902,15.292 13.902,17 C13.902,18.708 15.292,20.099 17,20.099 C18.709,20.099 20.099,18.708 20.099,17 C20.099,15.292 18.709,13.901 17,13.901 L17,13.901 Z M17,19.099 C15.843,19.099 14.902,18.157 14.902,17 C14.902,15.843 15.843,14.901 17,14.901 C18.158,14.901 19.099,15.843 19.099,17 C19.099,18.157 18.158,19.099 17,19.099 L17,19.099 Z"></path>
</svg>