<svg width="34px" height="34px" viewBox="0 0 34 34" version="1.1" xmlns="http://www.w3.org/2000/svg" xmlns:xlink="http://www.w3.org/1999/xlink">
  <path class="st1" d="M24.839,16.631 C24.74,16.401 22.33,11 17,11 C11.67,11 9.261,16.401 9.161,16.631 L9,17.001 L9.161,17.37 C9.261,17.6 11.67,23 17,23 C22.33,23 24.74,17.6 24.839,17.37 L25,17.001 L24.839,16.631 L24.839,16.631 Z M17,21.19 C13.536,21.19 11.545,18.087 10.954,17.001 C11.546,15.913 13.537,12.811 17,12.811 C20.466,12.811 22.458,15.918 23.047,17.002 C22.461,18.09 20.483,21.19 17,21.19 L17,21.19 Z M17.03,14.409 C15.626,14.409 14.53,15.529 14.53,16.909 C14.53,18.29 15.626,19.417 17.03,19.417 C18.434,19.417 19.53,18.29 19.53,16.909 C19.53,15.529 18.434,14.409 17.03,14.409 L17.03,14.409 Z"></path>
</svg>