<svg xmlns="http://www.w3.org/2000/svg" width="34" height="34" viewBox="0 0 34 34"><path d="M24.84 16.63C24.74 16.4 22.33 11 17 11s-7.74 5.4-7.84 5.63L9 17l.16.37C9.26 17.6 11.67 23 17 23s7.74-5.4 7.84-5.63L25 17l-.16-.37zM17 21.19c-3.464 0-5.455-3.103-6.046-4.19.592-1.087 2.583-4.19 6.046-4.19 3.466 0 5.458 3.108 6.047 4.192C22.46 18.09 20.483 21.19 17 21.19zm.03-6.78c-1.404 0-2.5 1.12-2.5 2.5a2.492 2.492 0 0 0 2.5 2.507c1.404 0 2.5-1.127 2.5-2.508 0-1.38-1.096-2.5-2.5-2.5z" class="st1"/></svg>