<svg width="34px" height="34px" viewBox="0 0 34 34" version="1.1" xmlns="http://www.w3.org/2000/svg" xmlns:xlink="http://www.w3.org/1999/xlink">
  <path class="st1" d="M24.537,11.9415051 C24.498,11.3845051 24.01,10.9635051 23.468,11.0025051 C22.917,11.0405051 22.501,11.5245051 22.539,12.0825051 L22.738,14.9765051 L20.918,13.1365051 C19.71,11.9145051 18.104,11.2415051 16.396,11.2415051 C14.688,11.2415051 13.082,11.9145051 11.874,13.1365051 C10.666,14.3585051 10,15.9825051 10,17.7105051 C10,19.4375051 10.666,21.0625051 11.874,22.2835051 L12.582,22.9995051 L13.997,21.5685051 L13.289,20.8525051 C12.459,20.0135051 12.002,18.8975051 12.002,17.7105051 C12.002,16.5235051 12.459,15.4075051 13.289,14.5675051 C14.119,13.7285051 15.223,13.2665051 16.396,13.2665051 C17.569,13.2665051 18.673,13.7285051 19.503,14.5675051 L21.323,16.4085051 L18.461,16.2065051 C17.91,16.1725051 17.432,16.5885051 17.392,17.1465051 C17.354,17.7045051 17.771,18.1885051 18.322,18.2265051 L25,18.6965051 L24.537,11.9415051"></path>
</svg>