<svg xmlns="http://www.w3.org/2000/svg" width="34" height="34" viewBox="0 0 34 34"><path d="M24.537 11.942a1.012 1.012 0 0 0-1.07-.94c-.55.04-.966.523-.928 1.08l.198 2.895-1.82-1.84a6.317 6.317 0 0 0-4.522-1.895 6.317 6.317 0 0 0-4.522 1.895A6.464 6.464 0 0 0 10 17.71c0 1.728.666 3.353 1.874 4.574l.708.716 1.415-1.43-.708-.717A4.44 4.44 0 0 1 12 17.71c0-1.186.457-2.302 1.287-3.142.83-.84 1.933-1.3 3.106-1.3 1.173 0 2.277.46 3.107 1.3l1.82 1.84-2.862-.2a1.01 1.01 0 0 0-1.068.94 1.01 1.01 0 0 0 .93 1.08l6.678.47-.463-6.756" class="st1"/></svg>