<svg width="26px" height="24px" viewBox="0 0 26 24" version="1.1" xmlns="http://www.w3.org/2000/svg" xmlns:xlink="http://www.w3.org/1999/xlink">
  <path class="st0" d="M26,21.583 C26,23.056 24.707,24 23.111,24 L2.889,24 C1.293,24 0,23.056 0,21.583 L0,2.917 C0,1.444 1.293,0 2.889,0 L23.111,0 C24.707,0 26,1.444 26,2.917 L26,21.583"></path>
  <g class="st1">
    <path d="M21,12 C21,11.448 20.552,11 20,11 L12,11 C11.448,11 11,11.448 11,12 L11,19 C11,19.552 11.448,20 12,20 L20,20 C20.552,20 21,19.552 21,19 L21,12 L21,12 Z M13.078,13.492 C13.078,13.216 13.302,12.992 13.578,12.992 L14.578,12.992 C14.854,12.992 15.078,13.216 15.078,13.492 L15.078,14.492 C15.078,14.769 14.854,14.992 14.578,14.992 L13.578,14.992 C13.302,14.992 13.078,14.769 13.078,14.492 L13.078,13.492 L13.078,13.492 Z M19,18 L13.078,18 L19,13.992 L19,18 L19,18 Z"></path>
    <path d="M18,10 L18,8.992 C18,8.44 17.631,8 17.078,8 L9.078,8 C8.526,8 8,8.44 8,8.992 L8,15.992 C8,16.545 8.526,17 9.078,17 L10,17 L10,10.992 C10,10.44 10.526,10 11.078,10 L18,10"></path>
    <path d="M15,7 L15,5.992 C15,5.44 14.631,5 14.078,5 L6.078,5 C5.526,5 5,5.44 5,5.992 L5,12.992 C5,13.545 5.526,14 6.078,14 L7,14 L7,7.992 C7,7.44 7.526,7 8.078,7 L15,7"></path>
  </g>
</svg>