<svg xmlns="http://www.w3.org/2000/svg" width="26" height="24" viewBox="0 0 26 24"><path d="M26 21.583C26 23.056 24.707 24 23.11 24H2.89C1.292 24 0 23.056 0 21.583V2.917C0 1.444 1.293 0 2.89 0h20.22C24.708 0 26 1.444 26 2.917v18.666" class="st0"/><g class="st1"><path d="M21 12a1 1 0 0 0-1-1h-8a1 1 0 0 0-1 1v7a1 1 0 0 0 1 1h8a1 1 0 0 0 1-1v-7zm-7.922 1.492a.5.5 0 0 1 .5-.5h1a.5.5 0 0 1 .5.5v1a.5.5 0 0 1-.5.5h-1a.5.5 0 0 1-.5-.5v-1zM19 18h-5.922L19 13.992V18z"/><path d="M18 10V8.992C18 8.44 17.63 8 17.078 8h-8C8.526 8 8 8.44 8 8.992v7C8 16.545 8.526 17 9.078 17H10v-6.008c0-.552.526-.992 1.078-.992H18"/><path d="M15 7V5.992C15 5.44 14.63 5 14.078 5h-8C5.526 5 5 5.44 5 5.992v7C5 13.545 5.526 14 6.078 14H7V7.992C7 7.44 7.526 7 8.078 7H15"/></g></svg>