<svg xmlns="http://www.w3.org/2000/svg" width="34" height="34" viewBox="0 0 34 34"><path d="M23.127 13.136a6.32 6.32 0 0 0-4.523-1.895 6.318 6.318 0 0 0-4.522 1.896l-1.82 1.84.2-2.894a1.008 1.008 0 0 0-.93-1.08 1.01 1.01 0 0 0-1.068.94L10 18.695l6.68-.47c.55-.04.966-.522.928-1.08a1.012 1.012 0 0 0-1.068-.94l-2.862.202 1.82-1.84a4.34 4.34 0 0 1 3.106-1.302 4.34 4.34 0 0 1 3.107 1.3A4.443 4.443 0 0 1 23 17.71a4.44 4.44 0 0 1-1.29 3.142l-.706.716 1.415 1.43.707-.715A6.462 6.462 0 0 0 25 17.71c0-1.728-.665-3.352-1.873-4.574" class="st1"/></svg>