<svg width="34px" height="34px" viewBox="0 0 34 34" version="1.1" xmlns="http://www.w3.org/2000/svg" xmlns:xlink="http://www.w3.org/1999/xlink">    
  <path class="st1" d="M23.127,13.1363881 C21.918,11.9143881 20.313,11.2413881 18.604,11.2413881 C16.897,11.2413881 15.29,11.9143881 14.082,13.1363881 L12.262,14.9763881 L12.462,12.0823881 C12.501,11.5243881 12.084,11.0413881 11.533,11.0023881 C10.984,10.9643881 10.504,11.3843881 10.464,11.9413881 L10,18.6963881 L16.679,18.2263881 C17.23,18.1873881 17.646,17.7043881 17.608,17.1463881 C17.569,16.5883881 17.085,16.1713881 16.54,16.2063881 L13.678,16.4083881 L15.497,14.5673881 C16.327,13.7283881 17.43,13.2663881 18.604,13.2663881 C19.778,13.2663881 20.882,13.7283881 21.711,14.5673881 C22.541,15.4073881 22.999,16.5233881 22.999,17.7093881 C22.999,18.8973881 22.541,20.0133881 21.711,20.8523881 L21.004,21.5683881 L22.419,22.9993881 L23.127,22.2833881 C24.335,21.0623881 25,19.4373881 25,17.7093881 C25,15.9823881 24.335,14.3583881 23.127,13.1363881"></path>
</svg>