<svg width="34px" height="34px" viewBox="0 0 34 34" version="1.1" xmlns="http://www.w3.org/2000/svg" xmlns:xlink="http://www.w3.org/1999/xlink">
  <path class="st0" d="M22,15.875 L22,15 C22,13.343 20.657,12 19,12 L12,12 C10.35,12 9,13.35 9,15 L9,20 C9,21.65 10.35,23 12,23 L19,23 C20.657,23 22,21.657 22,20 L22,18.875 L26,21.875 L26,12.875 L22,15.875 L22,15.875 Z M18,16 L13,16 C12.448,16 12,15.552 12,15 C12,14.448 12.448,14 13,14 L18,14 C18.552,14 19,14.448 19,15 C19,15.552 18.552,16 18,16 L18,16 Z"></path>
</svg>