<svg width="51px" height="51px" viewBox="0 0 51 51" version="1.1" xmlns="http://www.w3.org/2000/svg" xmlns:xlink="http://www.w3.org/1999/xlink">
  <g class="st1" >
    <path d="M35,18 C35,17.448 34.552,17 34,17 L17,17 C16.448,17 16,17.448 16,18 L16,28 C16,28.552 16.448,29 17,29 L34,29 C34.552,29 35,28.552 35,28 L35,18"></path>
    <path d="M16,31 L21,31 L21,36 L16,36 L16,31 Z"></path>
    <path d="M23,31 L28,31 L28,36 L23,36 L23,31 Z"></path>
    <path d="M30,31 L35,31 L35,36 L30,36 L30,31 Z"></path>
  </g>
</svg>