<svg width="16px" height="16px" viewBox="0 0 16 16" version="1.1"
     xmlns="http://www.w3.org/2000/svg" xmlns:xlink="http://www.w3.org/1999/xlink">
    <path class="bg"
          d="M5,16 C2.66494118,16 0,13.3397647 0,11 L0,5 C0,2.66023529 2.66494118,0 5,0 L11,0 C13.3350588,0 16,2.66023529 16,5 L16,11 C16,13.3397647 13.3350588,16 11,16 L4.23529412,16"/>
    <path class="border"
          d="M11.5555556,0.888888889 C13.5191111,0.888888889 15.1111111,2.48355556 15.1111111,4.45155556 L15.1111111,11.5484444 C15.1111111,13.5164444 13.5191111,15.1111111 11.5555556,15.1111111 L4.44444444,15.1111111 C2.48088889,15.1111111 0.888888889,13.5164444 0.888888889,11.5484444 L0.888888889,4.45155556 C0.888888889,2.48355556 2.48088889,0.888888889 4.44444444,0.888888889 L11.5555556,0.888888889 M11.5555556,0 L4.44444444,0 C1.99377778,0 0,1.99644444 0,4.45155556 L0,11.5484444 C0,14.0026667 1.99377778,16 4.44444444,16 L11.5555556,16 C14.0062222,16 16,14.0026667 16,11.5484444 L16,4.45155556 C16,1.99644444 14.0062222,0 11.5555556,0"/>
    <path class="check"
          d="M4.00798263,8.34406543 C4.03898263,8.54906543 4.15298263,8.74406543 4.34198263,8.87806543 L7.12298263,10.8390654 C7.49798263,11.1050654 8.02998263,11.0340654 8.31398263,10.6810654 L11.8259826,6.29706543 C12.1119826,5.94106543 12.0379826,5.43406543 11.6619826,5.16506543 C11.2869826,4.89406543 10.7509826,4.96406543 10.4669826,5.32006543 L7.46698263,9.06506543 L5.36398263,7.58406543 C4.98698263,7.31706543 4.45198263,7.39006543 4.16998263,7.74706543 C4.02998263,7.92506543 3.97798263,8.14006543 4.00798263,8.34406543"/>
    <path class="minus"
          d="M12,8 C12,8.552 11.6024,9 11.1112,9 L4.8888,9 C4.3984,9 4,8.552 4,8 C4,7.448 4.3984,7 4.8888,7 L11.1112,7 C11.6024,7 12,7.448 12,8"/>
</svg>
