<svg xmlns="http://www.w3.org/2000/svg" width="16" height="16" viewBox="0 0 16 16"><path d="M5 16c-2.335 0-5-2.66-5-5V5c0-2.34 2.665-5 5-5h6c2.335 0 5 2.66 5 5v6c0 2.34-2.665 5-5 5H4.235" class="bg"/><path d="M11.556.89A3.56 3.56 0 0 1 15.11 4.45v7.096a3.56 3.56 0 0 1-3.554 3.563H4.444A3.56 3.56 0 0 1 .89 11.55V4.452A3.56 3.56 0 0 1 4.443.89h7.112m0-.89H4.444A4.453 4.453 0 0 0 0 4.452v7.096A4.453 4.453 0 0 0 4.444 16h7.112A4.453 4.453 0 0 0 16 11.548V4.452A4.453 4.453 0 0 0 11.556 0" class="border"/><path d="M4.008 8.344c.03.205.145.4.334.534l2.78 1.96a.886.886 0 0 0 1.192-.157l3.512-4.383a.778.778 0 0 0-.164-1.132.883.883 0 0 0-1.195.155l-3 3.745-2.103-1.48a.885.885 0 0 0-1.194.162.778.778 0 0 0-.162.597" class="check"/><path d="M12 8c0 .552-.398 1-.89 1H4.89C4.397 9 4 8.552 4 8s.398-1 .89-1h6.22c.492 0 .89.448.89 1" class="minus"/></svg>