<svg xmlns="http://www.w3.org/2000/svg" width="34" height="34" viewBox="0 0 34 34"><path d="M21.2 10h-9.7A2.503 2.503 0 0 0 9 12.5v10c0 1.378 1.122 2.5 2.5 2.5h11c1.378 0 2.5-1.122 2.5-2.5v-9.245L21.2 10zM14 18h6v6h-6v-6zm10 4.5c0 .827-.673 1.5-1.5 1.5H21v-6.5a.5.5 0 0 0-.5-.5h-7a.5.5 0 0 0-.5.5V24h-1.5c-.827 0-1.5-.673-1.5-1.5v-10c0-.827.673-1.5 1.5-1.5h9.33L24 13.715V22.5zM15 21h4v-1h-4v1z" class="st1"/><path d="M22.354 12.198a1.002 1.002 0 0 0-1.396.198l-5.233 6.922-1.966-2.3a1.003 1.003 0 0 0-1.407-.116.982.982 0 0 0-.116 1.394l2.775 3.247c.023.027.056.037.08.06.03.03.05.066.083.092.04.03.085.043.127.066.035.02.067.04.103.054.12.048.242.08.367.08h.002c.134 0 .266-.037.393-.09.04-.018.072-.042.11-.064.046-.028.098-.045.14-.082.036-.03.053-.07.083-.103.02-.023.052-.033.07-.058l5.984-7.915a.98.98 0 0 0-.2-1.384" class="st2"/></svg>