<svg width="34px" height="34px" viewBox="0 0 34 34" version="1.1" xmlns="http://www.w3.org/2000/svg" xmlns:xlink="http://www.w3.org/1999/xlink">
  <path class="st1" d="M21.2,10 L11.5,10 C10.122,10 9,11.122 9,12.5 L9,22.5 C9,23.878 10.122,25 11.5,25 L22.5,25 C23.878,25 25,23.878 25,22.5 L25,13.255 L21.2,10 L21.2,10 Z M14,18 L20,18 L20,24 L14,24 L14,18 Z M24,22.5 C24,23.327 23.327,24 22.5,24 L21,24 L21,17.5 C21,17.224 20.776,17 20.5,17 L13.5,17 C13.224,17 13,17.224 13,17.5 L13,24 L11.5,24 C10.673,24 10,23.327 10,22.5 L10,12.5 C10,11.673 10.673,11 11.5,11 L20.83,11 L24,13.715 L24,22.5 L24,22.5 Z M15,21 L19,21 L19,20 L15,20 L15,21 Z"></path>
  <path class="st2" d="M22.3541448,12.1977787 C21.9141448,11.8707787 21.2891448,11.9577787 20.9581448,12.3957787 L15.7251448,19.3177787 L13.7591448,17.0167787 C13.4041448,16.6017787 12.7741448,16.5467787 12.3531448,16.9017787 C11.9321448,17.2557787 11.8801448,17.8797787 12.2371448,18.2957787 L15.0121448,21.5427787 C15.0351448,21.5697787 15.0681448,21.5797787 15.0931448,21.6037787 C15.1231448,21.6327787 15.1411448,21.6687787 15.1751448,21.6947787 C15.2151448,21.7237787 15.2601448,21.7377787 15.3021448,21.7607787 C15.3371448,21.7797787 15.3691448,21.7997787 15.4051448,21.8137787 C15.5241448,21.8617787 15.6471448,21.8927787 15.7721448,21.8927787 L15.7741448,21.8927787 C15.9081448,21.8927787 16.0401448,21.8567787 16.1671448,21.8027787 C16.2061448,21.7857787 16.2391448,21.7617787 16.2761448,21.7397787 C16.3231448,21.7117787 16.3751448,21.6947787 16.4181448,21.6577787 C16.4531448,21.6287787 16.4701448,21.5877787 16.5001448,21.5547787 C16.5211448,21.5317787 16.5521448,21.5217787 16.5711448,21.4967787 L22.5541448,13.5817787 C22.8851448,13.1457787 22.7961448,12.5257787 22.3541448,12.1977787"></path>
</svg>