<svg xmlns="http://www.w3.org/2000/svg" width="34" height="34" viewBox="0 0 34 34"><path d="M21 9h-8a3 3 0 0 0-3 3v10a3 3 0 0 0 3 3h9a3 3 0 0 0 3-3v-9l-4-4zm-8 3h7v2h-7v-2zm0 6h9v4h-9v-4zm1 3h2v-2h-2v2z" class="st1"/><path d="M22.354 12.198a1.002 1.002 0 0 0-1.396.198l-5.233 6.922-1.966-2.3a1.003 1.003 0 0 0-1.407-.116.982.982 0 0 0-.116 1.394l2.775 3.247c.023.027.056.037.08.06.03.03.05.066.083.092.04.03.085.043.127.066.035.02.067.04.103.054.12.048.242.08.367.08h.002c.134 0 .266-.037.393-.09.04-.018.072-.042.11-.064.046-.028.098-.045.14-.082.036-.03.053-.07.083-.103.02-.023.052-.033.07-.058l5.984-7.915a.98.98 0 0 0-.2-1.384" class="st2"/></svg>