<svg xmlns="http://www.w3.org/2000/svg" width="34" height="34" viewBox="0 0 34 34"><path d="M24.196 15.34l-1.533-.308a6.205 6.205 0 0 0-.268-.645l.868-1.302a1 1 0 0 0-.125-1.262l-.962-.962a1 1 0 0 0-1.262-.124l-1.302.868a5.91 5.91 0 0 0-.645-.268l-.307-1.533A.998.998 0 0 0 17.68 9h-1.36a1 1 0 0 0-.98.804l-.308 1.533a5.814 5.814 0 0 0-.644.268l-1.302-.868a1.003 1.003 0 0 0-1.262.125l-.962.96a1 1 0 0 0-.125 1.263l.868 1.302c-.1.21-.19.423-.268.645l-1.533.307a.998.998 0 0 0-.804.98v1.36a1 1 0 0 0 .804.98l1.533.308c.077.22.167.436.268.644l-.868 1.302a1 1 0 0 0 .125 1.262l.962.962a1 1 0 0 0 1.262.125l1.302-.868c.208.1.423.19.645.268l.306 1.533a1 1 0 0 0 .98.804h1.36a.998.998 0 0 0 .98-.804l.307-1.533c.222-.077.436-.167.644-.268l1.303.868a1.003 1.003 0 0 0 1.262-.125l.962-.96a1 1 0 0 0 .125-1.263l-.868-1.302c.1-.208.19-.423.268-.645l1.533-.306a1 1 0 0 0 .805-.98v-1.36a1 1 0 0 0-.804-.98zm-1.73 2.647a.998.998 0 0 0-.747.652c-.066.184-.14.363-.225.537a.998.998 0 0 0 .068.99l.868 1.303-.96.962-1.303-.868a1.002 1.002 0 0 0-.99-.068c-.174.084-.353.16-.538.224a.998.998 0 0 0-.653.748L17.68 24h-1.36l-.307-1.533a.998.998 0 0 0-.652-.748 4.798 4.798 0 0 1-.537-.225.997.997 0 0 0-.99.068l-1.303.868-.962-.96.868-1.303a1 1 0 0 0 .068-.99 4.91 4.91 0 0 1-.224-.538 1 1 0 0 0-.748-.653L10 17.68v-1.36l1.533-.307a.998.998 0 0 0 .748-.652c.065-.184.14-.363.225-.537a.998.998 0 0 0-.068-.99l-.868-1.303.96-.962 1.303.868a1.002 1.002 0 0 0 .99.068c.173-.084.352-.16.537-.224a.998.998 0 0 0 .652-.748L16.32 10h1.36l.307 1.533c.07.347.317.632.652.748.184.065.363.14.537.225a.997.997 0 0 0 .99-.068l1.303-.868.962.96-.868 1.303a1 1 0 0 0-.068.99c.084.173.16.353.224.538.116.336.4.584.748.653L24 16.32v1.36l-1.533.307zm-5.492-3.41a2.436 2.436 0 0 0 0 4.87 2.435 2.435 0 0 0 0-4.87zM17 18.5a1.5 1.5 0 1 1 0-3 1.5 1.5 0 0 1 0 3z" class="gear-wheel st0"/></svg>