<svg xmlns="http://www.w3.org/2000/svg" width="32" height="32" viewBox="0 0 32 32"><circle cx="16" cy="16" r="15" class="st0"/><g class="gear-wheel"><path d="M23.196 14.34l-1.533-.308a6.205 6.205 0 0 0-.268-.645l.868-1.302a1 1 0 0 0-.125-1.262l-.962-.962a1 1 0 0 0-1.262-.124l-1.302.868a5.91 5.91 0 0 0-.645-.268l-.307-1.533A.998.998 0 0 0 16.68 8h-1.36a1 1 0 0 0-.98.804l-.308 1.533a5.814 5.814 0 0 0-.644.268l-1.302-.868a1.003 1.003 0 0 0-1.262.125l-.962.96a1 1 0 0 0-.125 1.263l.868 1.302c-.1.21-.19.423-.268.645l-1.533.307a.998.998 0 0 0-.804.98v1.36a1 1 0 0 0 .804.98l1.533.308c.077.22.167.436.268.644l-.868 1.302a1 1 0 0 0 .125 1.262l.962.962a1 1 0 0 0 1.262.125l1.302-.868c.208.1.423.19.645.268l.306 1.533a1 1 0 0 0 .98.804h1.36a.998.998 0 0 0 .98-.804l.307-1.533c.222-.077.436-.167.644-.268l1.303.868a1.003 1.003 0 0 0 1.262-.125l.962-.96a1 1 0 0 0 .125-1.263l-.868-1.302c.1-.208.19-.423.268-.645l1.533-.306a1 1 0 0 0 .805-.98v-1.36a1 1 0 0 0-.804-.98zm-1.73 2.647a.998.998 0 0 0-.747.652c-.066.184-.14.363-.225.537a.998.998 0 0 0 .068.99l.868 1.303-.96.962-1.303-.868a1.002 1.002 0 0 0-.99-.068c-.174.084-.353.16-.538.224a.998.998 0 0 0-.653.748L16.68 23h-1.36l-.307-1.533a.998.998 0 0 0-.652-.748 4.798 4.798 0 0 1-.537-.225.997.997 0 0 0-.99.068l-1.303.868-.962-.96.868-1.303a1 1 0 0 0 .068-.99 4.91 4.91 0 0 1-.224-.538 1 1 0 0 0-.748-.653L9 16.68v-1.36l1.533-.307a.998.998 0 0 0 .748-.652c.065-.184.14-.363.225-.537a.998.998 0 0 0-.068-.99l-.868-1.303.96-.962 1.303.868a1.002 1.002 0 0 0 .99.068c.173-.084.352-.16.537-.224a.998.998 0 0 0 .652-.748L15.32 9h1.36l.307 1.533c.07.347.317.632.652.748.184.065.363.14.537.225a.997.997 0 0 0 .99-.068l1.303-.868.962.96-.868 1.303a1 1 0 0 0-.068.99c.084.173.16.353.224.538.116.336.4.584.748.653L23 15.32v1.36l-1.533.307zm-5.492-3.41a2.436 2.436 0 0 0 0 4.87 2.435 2.435 0 0 0 0-4.87zM16 17.5a1.5 1.5 0 1 1 0-3 1.5 1.5 0 0 1 0 3z" class="st1"/><path d="M23.235 14.332l-1.513-.307a6.15 6.15 0 0 0-.258-.645l.873-1.302a1 1 0 0 0-.122-1.262l-.96-.962a1 1 0 0 0-1.262-.125l-1.302.867a5.91 5.91 0 0 0-.644-.268L17.74 8.8a.998.998 0 0 0-.982-.8h-1.36a.998.998 0 0 0-.98.8l-.308 1.53a6.007 6.007 0 0 0-.644.268l-1.302-.868a1.003 1.003 0 0 0-1.262.125l-.962.962a1 1 0 0 0-.125 1.262l.868 1.3c-.1.21-.19.424-.268.646l-1.572.307c-.467.092-.843.503-.843.98v1.36c0 .476.376.886.843.98l1.552.307c.077.22.177.436.278.644l-.863 1.303a1 1 0 0 0 .127 1.262l.963.96a1 1 0 0 0 1.262.126l1.302-.868c.208.1.423.19.645.268l.306 1.537c.095.467.505.807.982.807h1.36c.477 0 .887-.34.98-.808l.308-1.535a5.9 5.9 0 0 0 .644-.27l1.302.868a1.003 1.003 0 0 0 1.262-.125l.962-.962a1 1 0 0 0 .125-1.262l-.867-1.302c.1-.208.19-.423.268-.645l1.495-.307c.467-.093.765-.504.765-.98v-1.36c0-.477-.298-.888-.765-.98zm-7.157 4.16a2.5 2.5 0 1 1 0-5 2.5 2.5 0 0 1 0 5z" class="st2"/></g></svg>