<svg width="34px" height="34px" viewBox="0 0 34 34" version="1.1" xmlns="http://www.w3.org/2000/svg" xmlns:xlink="http://www.w3.org/1999/xlink">
  <g class="gear-wheel">
    <path class="st0" d="M24.196,15.339 L22.663,15.032 C22.586,14.81 22.495,14.596 22.395,14.387 L23.263,13.085 C23.528,12.689 23.475,12.16 23.138,11.823 L22.176,10.861 C21.983,10.668 21.727,10.568 21.468,10.568 C21.276,10.568 21.083,10.623 20.914,10.736 L19.612,11.604 C19.404,11.503 19.189,11.413 18.967,11.336 L18.66,9.803 C18.567,9.336 18.157,9 17.68,9 L16.32,9 C15.843,9 15.433,9.336 15.339,9.804 L15.032,11.337 C14.81,11.414 14.595,11.504 14.388,11.605 L13.086,10.737 C12.917,10.624 12.724,10.569 12.532,10.569 C12.274,10.569 12.018,10.669 11.824,10.862 L10.862,11.824 C10.525,12.161 10.472,12.689 10.737,13.086 L11.605,14.388 C11.504,14.597 11.414,14.811 11.337,15.033 L9.804,15.34 C9.336,15.433 9,15.843 9,16.32 L9,17.68 C9,18.157 9.336,18.567 9.804,18.661 L11.337,18.968 C11.414,19.189 11.504,19.404 11.605,19.612 L10.737,20.914 C10.472,21.311 10.525,21.839 10.862,22.176 L11.824,23.138 C12.017,23.331 12.273,23.431 12.532,23.431 C12.724,23.431 12.917,23.376 13.086,23.263 L14.388,22.395 C14.596,22.496 14.811,22.586 15.033,22.663 L15.339,24.196 C15.433,24.664 15.843,25 16.32,25 L17.68,25 C18.157,25 18.567,24.664 18.66,24.196 L18.967,22.663 C19.189,22.586 19.403,22.496 19.611,22.395 L20.913,23.263 C21.082,23.376 21.275,23.431 21.467,23.431 C21.725,23.431 21.981,23.331 22.175,23.138 L23.137,22.176 C23.474,21.839 23.527,21.311 23.262,20.914 L22.394,19.612 C22.495,19.404 22.585,19.189 22.662,18.967 L24.195,18.661 C24.663,18.567 25,18.157 25,17.68 L25,16.32 C25,15.843 24.663,15.433 24.196,15.339 L24.196,15.339 Z M22.467,17.987 C22.12,18.056 21.835,18.304 21.719,18.639 C21.654,18.824 21.58,19.003 21.495,19.177 C21.34,19.496 21.366,19.873 21.563,20.168 L22.431,21.47 L21.469,22.432 L20.167,21.564 C20,21.453 19.807,21.396 19.612,21.396 C19.464,21.396 19.315,21.429 19.176,21.496 C19.003,21.58 18.824,21.656 18.639,21.72 C18.304,21.836 18.056,22.121 17.987,22.468 L17.68,24 L16.32,24 L16.013,22.467 C15.944,22.12 15.696,21.835 15.361,21.719 C15.176,21.655 14.997,21.58 14.823,21.495 C14.685,21.428 14.536,21.395 14.387,21.395 C14.192,21.395 13.999,21.452 13.832,21.563 L12.53,22.431 L11.568,21.469 L12.436,20.167 C12.632,19.872 12.658,19.496 12.504,19.177 C12.42,19.004 12.344,18.824 12.28,18.639 C12.164,18.305 11.879,18.057 11.532,17.987 L10,17.68 L10,16.32 L11.533,16.013 C11.88,15.944 12.165,15.696 12.281,15.361 C12.345,15.176 12.42,14.997 12.505,14.823 C12.66,14.504 12.634,14.127 12.437,13.832 L11.569,12.53 L12.531,11.568 L13.833,12.436 C14,12.547 14.193,12.604 14.388,12.604 C14.536,12.604 14.685,12.571 14.823,12.504 C14.996,12.42 15.175,12.344 15.36,12.28 C15.695,12.164 15.943,11.879 16.012,11.532 L16.32,10 L17.68,10 L17.987,11.533 C18.056,11.88 18.304,12.165 18.639,12.281 C18.824,12.345 19.003,12.42 19.177,12.505 C19.315,12.572 19.464,12.605 19.613,12.605 C19.808,12.605 20.001,12.548 20.168,12.437 L21.47,11.569 L22.432,12.531 L21.564,13.833 C21.368,14.128 21.342,14.504 21.496,14.823 C21.58,14.996 21.656,15.176 21.72,15.361 C21.836,15.696 22.121,15.944 22.468,16.013 L24,16.32 L24,17.68 L22.467,17.987 L22.467,17.987 Z M16.974,14.577 C15.627,14.577 14.536,15.667 14.536,17.012 C14.536,18.358 15.627,19.448 16.974,19.448 C18.321,19.448 19.411,18.358 19.411,17.012 C19.411,15.667 18.321,14.577 16.974,14.577 L16.974,14.577 Z M17,18.5 C16.172,18.5 15.5,17.828 15.5,17 C15.5,16.172 16.172,15.5 17,15.5 C17.828,15.5 18.5,16.172 18.5,17 C18.5,17.828 17.828,18.5 17,18.5 L17,18.5 Z"></path>
  </g>
</svg>