<svg version="1.1" xmlns="http://www.w3.org/2000/svg" xmlns:xlink="http://www.w3.org/1999/xlink" width="32px" height="32px" viewBox="0 0 32 32">
    <circle class="st0" cx="16" cy="16" r="15"></circle>
    <g class="gear-wheel">
    <path class="st1" d="M23.196,14.339l-1.533-0.307c-0.077-0.222-0.168-0.436-0.268-0.645l0.868-1.302c0.265-0.396,0.212-0.925-0.125-1.262
                         l-0.962-0.962c-0.193-0.193-0.449-0.293-0.708-0.293c-0.192,0-0.385,0.055-0.554,0.168l-1.302,0.868
                         c-0.208-0.101-0.423-0.191-0.645-0.268l-0.307-1.533C17.567,8.336,17.157,8,16.68,8h-1.36c-0.477,0-0.887,0.336-0.981,0.804
                         l-0.307,1.533c-0.222,0.077-0.437,0.167-0.644,0.268l-1.302-0.868c-0.169-0.113-0.362-0.168-0.554-0.168
                         c-0.258,0-0.514,0.1-0.708,0.293l-0.962,0.962c-0.337,0.337-0.39,0.865-0.125,1.262l0.868,1.302
                         c-0.101,0.209-0.191,0.423-0.268,0.645l-1.533,0.307C8.336,14.433,8,14.843,8,15.32v1.36c0,0.477,0.336,0.887,0.804,0.981
                         l1.533,0.307c0.077,0.221,0.167,0.436,0.268,0.644l-0.868,1.302c-0.265,0.397-0.212,0.925,0.125,1.262l0.962,0.962
                         c0.193,0.193,0.449,0.293,0.708,0.293c0.192,0,0.385-0.055,0.554-0.168l1.302-0.868c0.208,0.101,0.423,0.191,0.645,0.268
                         l0.306,1.533C14.433,23.664,14.843,24,15.32,24h1.36c0.477,0,0.887-0.336,0.98-0.804l0.307-1.533
                         c0.222-0.077,0.436-0.167,0.644-0.268l1.302,0.868c0.169,0.113,0.362,0.168,0.554,0.168c0.258,0,0.514-0.1,0.708-0.293
                         l0.962-0.962c0.337-0.337,0.39-0.865,0.125-1.262l-0.868-1.302c0.101-0.208,0.191-0.423,0.268-0.645l1.533-0.306
                         C23.663,17.567,24,17.157,24,16.68v-1.36C24,14.843,23.663,14.433,23.196,14.339z M21.467,16.987
                         c-0.347,0.069-0.632,0.317-0.748,0.652c-0.065,0.185-0.139,0.364-0.224,0.538c-0.155,0.319-0.129,0.696,0.068,0.991l0.868,1.302
                         l-0.962,0.962l-1.302-0.868c-0.167-0.111-0.36-0.168-0.555-0.168c-0.148,0-0.297,0.033-0.436,0.1
                         c-0.173,0.084-0.352,0.16-0.537,0.224c-0.335,0.116-0.583,0.401-0.652,0.748L16.68,23h-1.36l-0.307-1.533
                         c-0.069-0.347-0.317-0.632-0.652-0.748c-0.185-0.064-0.364-0.139-0.538-0.224c-0.138-0.067-0.287-0.1-0.436-0.1
                         c-0.195,0-0.388,0.057-0.555,0.168l-1.302,0.868l-0.962-0.962l0.868-1.302c0.196-0.295,0.222-0.671,0.068-0.99
                         c-0.084-0.173-0.16-0.353-0.224-0.538c-0.116-0.334-0.401-0.582-0.748-0.652L9,16.68v-1.36l1.533-0.307
                         c0.347-0.069,0.632-0.317,0.748-0.652c0.064-0.185,0.139-0.364,0.224-0.538c0.155-0.319,0.129-0.696-0.068-0.991l-0.868-1.302
                         l0.962-0.962l1.302,0.868c0.167,0.111,0.36,0.168,0.555,0.168c0.148,0,0.297-0.033,0.435-0.1c0.173-0.084,0.352-0.16,0.537-0.224
                         c0.335-0.116,0.583-0.401,0.652-0.748L15.32,9h1.36l0.307,1.533c0.069,0.347,0.317,0.632,0.652,0.748
                         c0.185,0.064,0.364,0.139,0.538,0.224c0.138,0.067,0.287,0.1,0.436,0.1c0.195,0,0.388-0.057,0.555-0.168l1.302-0.868l0.962,0.962
                         l-0.868,1.302c-0.196,0.295-0.222,0.671-0.068,0.99c0.084,0.173,0.16,0.353,0.224,0.538c0.116,0.335,0.401,0.583,0.748,0.652
                         L23,15.32v1.36L21.467,16.987z M15.974,13.577c-1.347,0-2.438,1.09-2.438,2.435c0,1.346,1.091,2.436,2.438,2.436
                         c1.347,0,2.437-1.09,2.437-2.436C18.411,14.667,17.321,13.577,15.974,13.577z M16,17.5c-0.828,0-1.5-0.672-1.5-1.5
                         c0-0.828,0.672-1.5,1.5-1.5c0.828,0,1.5,0.672,1.5,1.5C17.5,16.828,16.828,17.5,16,17.5z"/>
    <path class="st2" d="M23.235,14.332l-1.513-0.307c-0.077-0.222-0.158-0.436-0.258-0.645l0.873-1.302c0.265-0.396,0.214-0.925-0.122-1.262
                         l-0.961-0.962c-0.193-0.193-0.449-0.293-0.707-0.293c-0.192,0-0.385,0.055-0.554,0.168l-1.302,0.868
                         c-0.208-0.101-0.423-0.191-0.645-0.268L17.739,8.8C17.645,8.333,17.235,8,16.758,8h-1.36c-0.477,0-0.887,0.333-0.981,0.8
                         l-0.307,1.531c-0.222,0.077-0.437,0.167-0.644,0.267L12.164,9.73c-0.169-0.113-0.362-0.168-0.554-0.168
                         c-0.258,0-0.514,0.1-0.708,0.293L9.94,10.817c-0.337,0.337-0.39,0.865-0.125,1.262l0.868,1.302
                         c-0.101,0.209-0.191,0.423-0.268,0.645l-1.572,0.307C8.376,14.425,8,14.836,8,15.312v1.36c0,0.477,0.376,0.887,0.843,0.981
                         l1.552,0.307c0.077,0.221,0.177,0.436,0.278,0.644L9.81,19.907c-0.265,0.397-0.21,0.925,0.127,1.262l0.963,0.962
                         c0.193,0.193,0.45,0.293,0.708,0.293c0.192,0,0.385-0.055,0.554-0.168l1.302-0.868c0.208,0.101,0.423,0.191,0.645,0.268
                         l0.307,1.537C14.511,23.66,14.921,24,15.398,24h1.36c0.477,0,0.887-0.34,0.981-0.808l0.307-1.535
                         c0.222-0.077,0.436-0.168,0.644-0.269l1.302,0.867c0.169,0.113,0.362,0.168,0.554,0.168c0.258,0,0.514-0.1,0.708-0.293
                         l0.962-0.962c0.337-0.337,0.39-0.865,0.125-1.262l-0.868-1.302c0.101-0.208,0.191-0.423,0.268-0.645l1.494-0.306
                         C23.702,17.56,24,17.149,24,16.673v-1.36C24,14.836,23.702,14.425,23.235,14.332z M16.078,18.492c-1.381,0-2.5-1.119-2.5-2.5
                         c0-1.381,1.119-2.5,2.5-2.5s2.5,1.119,2.5,2.5C18.578,17.373,17.459,18.492,16.078,18.492z"/>
  </g>					  
</svg>
