<svg xmlns="http://www.w3.org/2000/svg" width="50" height="28" viewBox="0 0 50 28"><path d="M14 24.5C7.66 24.5 2.5 19.34 2.5 13S7.66 1.5 14 1.5h21c6.34 0 11.5 5.16 11.5 11.5S41.34 24.5 35 24.5H14" class="st1"/><path d="M35 2c6.065 0 11 4.935 11 11s-4.935 11-11 11H14C7.935 24 3 19.065 3 13S7.935 2 14 2h21m0-1H14C7.373 1 2 6.373 2 13s5.373 12 12 12h21c6.627 0 12-5.373 12-12S41.627 1 35 1" class="st2"/><g class="switch-thumb-regular"><path d="M25 13.5C25 19.3 20.075 24 14 24S3 19.3 3 13.5v-1C3 6.7 7.925 2 14 2s11 4.7 11 10.5v1" class="switch-thumb-circle"/><path d="M10.008 13.344c.03.205.145.4.334.534l2.78 1.96a.886.886 0 0 0 1.192-.157l3.512-4.384a.778.778 0 0 0-.164-1.13.883.883 0 0 0-1.195.154l-3 3.744-2.103-1.48a.885.885 0 0 0-1.194.163.778.778 0 0 0-.162.597" class="switch-thumb-check"/><path d="M19 13c0 .552-.497 1-1.11 1h-7.78C9.5 14 9 13.552 9 13s.498-1 1.11-1h7.78c.613 0 1.11.448 1.11 1" class="switch-thumb-minus"/></g><g class="switch-thumb-selected"><path d="M46 13.5C46 19.3 41.075 24 35 24s-11-4.7-11-10.5v-1C24 6.7 28.925 2 35 2s11 4.7 11 10.5v1" class="switch-thumb-circle"/><path d="M31.008 13.344c.03.205.145.4.334.534l2.78 1.96a.886.886 0 0 0 1.192-.157l3.512-4.384a.778.778 0 0 0-.164-1.13.883.883 0 0 0-1.195.154l-3 3.744-2.103-1.48a.885.885 0 0 0-1.194.163.778.778 0 0 0-.162.597" class="switch-thumb-check"/><path d="M40 13c0 .552-.497 1-1.11 1h-7.78C30.5 14 30 13.552 30 13s.498-1 1.11-1h7.78c.613 0 1.11.448 1.11 1" class="switch-thumb-minus"/></g></svg>