<svg version="1.1" xmlns="http://www.w3.org/2000/svg" xmlns:xlink="http://www.w3.org/1999/xlink" width="72px" height="72px" viewBox="0 0 72 72">
  <line class="st1" x1="3" y1="69" x2="69" y2="3"/>
  <path class="st2" d="M64,70c3.308,0,6-2.69,6-5.996V7.997C70,4.69,67.308,2,64,2H8C4.692,2,2,4.69,2,7.997v56.007
                       C2,67.31,4.692,70,8,70H64 M64,72H8c-4.417,0-8-3.58-8-7.996V7.997C0,3.58,3.582,0,8,0H64c4.417,0,8,3.58,8,7.997v56.007
                       C72,68.42,68.418,72,64,72L64,72L64,72z"/>
</svg>
