<svg width="62px" height="46px" viewBox="0 0 62 46" version="1.1" xmlns="http://www.w3.org/2000/svg" xmlns:xlink="http://www.w3.org/1999/xlink">
  <path class="st1" d="M60,46 L2,46 C0.895,46 0,45.105 0,44 L0,6 L62,6 L62,44 C62,45.105 61.104,46 60,46 L60,46 Z M0,2 C0,0.895 0.895,0 2,0 L60,0 C61.104,0 62,0.895 62,2 L62,4 L0,4 L0,2 L0,2 Z"></path>
  <path class="st2" d="M31,15 C25.486,15 21,19.486 21,25 C21,30.514 25.486,35 31,35 C36.514,35 41,30.514 41,25 C41,19.486 36.514,15 31,15 L31,15 Z M29,29 L29,21 L36,25 L29,29 L29,29 Z"></path>
</svg>