<svg width="62px" height="46px" viewBox="0 0 62 46" version="1.1" xmlns="http://www.w3.org/2000/svg" xmlns:xlink="http://www.w3.org/1999/xlink">
  <path class="st1" d="M0,2 L0,44 C0,45.105 0.895,46 2,46 L60,46 C61.105,46 62,45.105 62,44 L62,2 C62,0.895 61.105,0 60,0 L2,0 C0.895,0 0,0.895 0,2"></path>
  <path class="st2" d="M31,13 C25.486,13 21,17.486 21,23 C21,28.514 25.486,33 31,33 C36.514,33 41,28.514 41,23 C41,17.486 36.514,13 31,13 L31,13 Z M29,27 L29,19 L36,23 L29,27 L29,27 Z"></path>
</svg>