<svg width="62px" height="46px" viewBox="0 0 62 46" version="1.1" xmlns="http://www.w3.org/2000/svg" xmlns:xlink="http://www.w3.org/1999/xlink">
  <path class="st1" d="M62,40 L62,2 C62,0.895 61.105,0 60,0 L2,0 C0.895,0 0,0.895 0,2 L0,40 L62,40"></path>
  <path class="st2" d="M62,42 L0,42 L0,44 C0,45.105 0.895,46 2,46 L60,46 C61.105,46 62,45.105 62,44 L62,42"></path>
  <path class="st3" d="M31,11 C25.486,11 21,15.486 21,21 C21,26.514 25.486,31 31,31 C36.514,31 41,26.514 41,21 C41,15.486 36.514,11 31,11 L31,11 Z M29,25 L29,17 L36,21 L29,25 L29,25 Z"></path>     
</svg>