<svg xmlns="http://www.w3.org/2000/svg" width="345" height="161" class="symbol-blog-special-btn-promotional-clipart" xmlns:xlink="http://www.w3.org/1999/xlink" viewBox="0 0 345 161"><path fill="none" stroke="#4eb7f5" stroke-miterlimit="10" d="M251 50.5V29.394c0-6.66-5.12-12.057-11.797-12.057s-11.944 5.398-11.944 12.057l-.118 99.642c0 12.338-10.2 22.34-22.57 22.34-12.374 0-22.572-10-22.572-22.34V110.5" stroke-linecap="round" stroke-linejoin="round" stroke-dasharray="1 3"/><path fill="none" stroke="#5fcef5" stroke-miterlimit="10" d="M281.93 76.047c0 10.28-8.357 18.613-18.665 18.613S244.6 86.327 244.6 76.047" stroke-linecap="round" stroke-linejoin="round" stroke-dasharray="1 3"/><path fill="none" stroke="#4eb7f5" stroke-miterlimit="10" d="M182 41.5V24.233C182 11.313 171.702.84 158.746.84S135.39 11.313 135.39 24.233l-.133 40.882c0 4.986-4.233 9.44-9.233 9.44" stroke-linecap="round" stroke-linejoin="round" stroke-dasharray="1 3"/><path fill="#a7e3fa" d="M295.5 115.954c0 1.655-.825 3.546-2.482 3.546H241.01c-1.65 0-3.51-1.898-3.51-3.546V42.05c0-1.655 1.853-2.55 3.51-2.55h52.008c1.657 0 2.482.896 2.482 2.55v73.904z"/><path fill="#a7e3fa" d="M265.91 116.912l-7.972 8.463-8.87-8.463"/><path fill="none" stroke="#FFF" stroke-miterlimit="10" d="M249.5 96h36M249.5 102h36M249.5 108h27"/><defs><ellipse id="a" cx="267.068" cy="68.291" rx="19.494" ry="19.439"/></defs><use fill="#4eb7f5" xlink:href="#a" overflow="visible"/><clipPath id="b"><use xlink:href="#a" overflow="visible"/></clipPath><g clip-path="url(#b)"><path fill="#2b81cb" d="M259.816 75.563a2.792 2.792 0 0 0-3.176 2.34 2.788 2.788 0 0 0 2.348 3.167c1.525.23 2.947-.82 3.176-2.34s-.823-2.94-2.348-3.167z"/><defs><path id="c" d="M277.48 67.47s.1 7.98 1.702 10.003l4.747 6.002a1.16 1.16 0 0 1-.194 1.633l-.018.015c-.506.398-1.24.31-1.637-.193l-4.746-6.002c-1.6-2.023-9.358-3.98-9.358-3.98"/></defs><use fill="#FFF" xlink:href="#c" overflow="visible"/><clipPath id="d"><use xlink:href="#c" overflow="visible"/></clipPath><linearGradient id="e" x1="273.615" x2="287.793" y1="81.322" y2="81.322" gradientUnits="userSpaceOnUse"><stop offset="0" stop-color="#FFF"/><stop offset="1" stop-color="#FFF"/></linearGradient><path fill="url(#e)" stroke="#4eb7f5" stroke-miterlimit="10" d="M273.615 77.842l5.224-4.157 8.953 10.402-5.503 4.872z" clip-path="url(#d)"/><g><path fill="#4eb7f5" d="M270.104 74.704c-3.102 0-6.308-1.712-8.574-4.58-2.01-2.54-2.973-5.602-2.643-8.4.238-2.01 1.12-3.67 2.548-4.793 1.175-.923 2.652-1.41 4.272-1.41 3.102 0 6.308 1.71 8.575 4.58 2.01 2.54 2.972 5.6 2.642 8.398-.238 2.013-1.12 3.67-2.548 4.794-1.175.924-2.652 1.412-4.272 1.412z"/><path fill="#FFF" d="M265.708 56.018c2.95 0 6.008 1.64 8.182 4.39 1.927 2.437 2.852 5.365 2.537 8.032-.222 1.877-1.038 3.42-2.36 4.458-1.085.854-2.456 1.306-3.963 1.306-2.95 0-6.01-1.64-8.183-4.39-1.926-2.437-2.85-5.365-2.536-8.032.222-1.877 1.038-3.42 2.36-4.458 1.085-.854 2.456-1.306 3.964-1.306m0-1c-1.68 0-3.274.49-4.583 1.52-3.738 2.94-3.733 9.162.01 13.897 2.435 3.078 5.85 4.77 8.968 4.77 1.68 0 3.273-.492 4.582-1.52 3.738-2.94 3.733-9.163-.01-13.898-2.435-3.077-5.85-4.77-8.968-4.77z"/></g><g fill="none" stroke="#d3edff" stroke-miterlimit="10"><path d="M273.19 66.006l-10.567-1.786M265.22 67.503l7.777 1.314M270.594 62.723l-7.785-1.315"/></g></g><ellipse cx="266.514" cy="145.859" fill="#d3edff" rx="25.004" ry="2.497"/><g><g fill="#3899ec"><path d="M58.5 43.05c0-1.656-.86-2.55-2.517-2.55H3.975C2.318 40.5.5 41.394.5 43.05v73.903c0 1.655 1.818 3.547 3.475 3.547h52.008c1.65 0 2.517-1.9 2.517-3.547V43.05z"/><path d="M29.034 117.91l9.97 8.464 8.87-8.464"/></g><path fill="none" stroke="#5fcef5" stroke-miterlimit="10" d="M12.5 97h36M12.5 103h36M12.5 109h28"/><g><defs><ellipse id="f" cx="30.235" cy="69.29" rx="19.494" ry="19.439"/></defs><use fill="#5fcef5" xlink:href="#f" overflow="visible"/><clipPath id="g"><use xlink:href="#f" overflow="visible"/></clipPath><g clip-path="url(#g)"><linearGradient id="h" x1="39.192" x2="39.192" y1="80.906" y2="80.906" gradientUnits="userSpaceOnUse"><stop offset="0" stop-color="#FFF"/><stop offset="1" stop-color="#FFF"/></linearGradient><linearGradient id="i" x1="39.192" x2="39.192" y1="80.906" y2="80.906" gradientUnits="userSpaceOnUse"><stop offset="0" stop-color="#FFF"/><stop offset="1" stop-color="#FFF"/></linearGradient><linearGradient id="j" x1="33.315" x2="38" y1="75.319" y2="75.319" gradientUnits="userSpaceOnUse"><stop offset="0" stop-color="#FFF"/><stop offset="1" stop-color="#FFF"/></linearGradient><linearGradient id="k" x1="32.815" x2="38.5" y1="75.319" y2="75.319" gradientUnits="userSpaceOnUse"><stop offset="0" stop-color="#FFF"/><stop offset="1" stop-color="#FFF"/></linearGradient><path fill="url(#j)" stroke="url(#k)" stroke-miterlimit="10" d="M38 90.5V60.14c-6 0-4.525 5.86-4.525 20.86H37.5" stroke-linecap="round" stroke-linejoin="round"/><linearGradient id="l" x1="25" x2="25" y1="83" y2="83" gradientUnits="userSpaceOnUse"><stop offset="0" stop-color="#FFF"/><stop offset="1" stop-color="#FFF"/></linearGradient><linearGradient id="m" x1="24.5" x2="25.5" y1="83" y2="83" gradientUnits="userSpaceOnUse"><stop offset="0" stop-color="#FFF"/><stop offset="1" stop-color="#FFF"/></linearGradient><path fill="url(#l)" stroke="url(#m)" stroke-miterlimit="10" d="M25 77.5v11" stroke-linecap="round" stroke-linejoin="round"/><linearGradient id="n" x1="22" x2="22" y1="67" y2="67" gradientUnits="userSpaceOnUse"><stop offset="0" stop-color="#FFF"/><stop offset="1" stop-color="#FFF"/></linearGradient><linearGradient id="o" x1="21.5" x2="22.5" y1="67" y2="67" gradientUnits="userSpaceOnUse"><stop offset="0" stop-color="#FFF"/><stop offset="1" stop-color="#FFF"/></linearGradient><path fill="url(#n)" stroke="url(#o)" stroke-miterlimit="10" d="M22 61.5v11" stroke-linecap="round" stroke-linejoin="round"/><linearGradient id="p" x1="24" x2="24" y1="67" y2="67" gradientUnits="userSpaceOnUse"><stop offset="0" stop-color="#FFF"/><stop offset="1" stop-color="#FFF"/></linearGradient><linearGradient id="q" x1="23.5" x2="24.5" y1="67" y2="67" gradientUnits="userSpaceOnUse"><stop offset="0" stop-color="#FFF"/><stop offset="1" stop-color="#FFF"/></linearGradient><path fill="url(#p)" stroke="url(#q)" stroke-miterlimit="10" d="M24 61.5v11" stroke-linecap="round" stroke-linejoin="round"/><linearGradient id="r" x1="26" x2="26" y1="67" y2="67" gradientUnits="userSpaceOnUse"><stop offset="0" stop-color="#FFF"/><stop offset="1" stop-color="#FFF"/></linearGradient><linearGradient id="s" x1="25.5" x2="26.5" y1="67" y2="67" gradientUnits="userSpaceOnUse"><stop offset="0" stop-color="#FFF"/><stop offset="1" stop-color="#FFF"/></linearGradient><path fill="url(#r)" stroke="url(#s)" stroke-miterlimit="10" d="M26 61.5v11" stroke-linecap="round" stroke-linejoin="round"/><linearGradient id="t" x1="28" x2="28" y1="67" y2="67" gradientUnits="userSpaceOnUse"><stop offset="0" stop-color="#FFF"/><stop offset="1" stop-color="#FFF"/></linearGradient><linearGradient id="u" x1="27.5" x2="28.5" y1="67" y2="67" gradientUnits="userSpaceOnUse"><stop offset="0" stop-color="#FFF"/><stop offset="1" stop-color="#FFF"/></linearGradient><path fill="url(#t)" stroke="url(#u)" stroke-miterlimit="10" d="M28 61.5v11" stroke-linecap="round" stroke-linejoin="round"/><linearGradient id="v" x1="22" x2="28" y1="76.25" y2="76.25" gradientUnits="userSpaceOnUse"><stop offset="0" stop-color="#FFF"/><stop offset="1" stop-color="#FFF"/></linearGradient><linearGradient id="w" x1="21.5" x2="28.5" y1="76.25" y2="76.25" gradientUnits="userSpaceOnUse"><stop offset="0" stop-color="#FFF"/><stop offset="1" stop-color="#FFF"/></linearGradient><path fill="url(#v)" stroke="url(#w)" stroke-miterlimit="10" d="M28 72h-6v5.504c0 1 .5 2.996 3 2.996s3-1.997 3-2.996V72z" stroke-linecap="round" stroke-linejoin="round"/></g></g><ellipse cx="29.479" cy="146.858" fill="#d3edff" rx="25.004" ry="2.497"/></g><g><g fill="#4eb7f5"><path d="M124.5 55.034c0-1.655-.85-2.534-2.507-2.534H84.987c-1.657 0-3.487.88-3.487 2.534v53.93c0 1.655 1.83 3.537 3.487 3.537h37.005c1.65 0 2.507-1.888 2.507-3.536v-53.93z"/><path d="M104.66 110.54l5.966 6.336 6.64-6.336"/></g><path fill="none" stroke="#FFF" stroke-miterlimit="10" d="M90.5 95h27M90.5 100h27M90.5 104h21"/><g><defs><ellipse id="x" cx="104.061" cy="74.143" rx="14.593" ry="14.552"/></defs><use fill="#fdfdfd" xlink:href="#x" overflow="visible"/><clipPath id="y"><use xlink:href="#x" overflow="visible"/></clipPath><g clip-path="url(#y)"><path fill="#5fcef5" d="M105.37 82.5h-3.475l-.413-11h4.302z"/><path fill="#3899ec" d="M108.133 67.636c0-2.467-2.015-4.5-4.5-4.5s-4.502 2.05-4.502 4.516c0 1.606.855 3.848 2.137 3.848h4.73c1.282 0 2.136-2.258 2.136-3.864z"/><path fill="none" stroke="#3899ec" stroke-miterlimit="10" d="M97 88.5v-3.04c0-.828 1.09-1.5 1.92-1.5s1.71.672 1.71 1.5.354 1.5 1.185 1.5c.83 0 1.185-.672 1.185-1.5V82.5" stroke-linejoin="round"/></g></g><ellipse cx="104.49" cy="131.877" fill="#d3edff" rx="19.003" ry="1.997"/></g><path fill="#d9eeff" d="M217.5 125.94c0 1.656-.837 3.56-2.494 3.56h-66.01c-1.657 0-3.497-1.904-3.497-3.56V34.06c0-1.654 1.838-2.56 3.496-2.56h66.01c1.657 0 2.494.906 2.494 2.56v91.88z"/><path fill="#d9eeff" d="M180.665 126.55L170.823 137l-10.953-10.45"/><g><path fill="none" stroke="#4eb7f5" stroke-miterlimit="10" d="M160.5 101h44M160.5 108h44M160.5 115h34"/></g><path fill="none" stroke="#4eb7f5" stroke-miterlimit="10" d="M16.74 39.662c0-10.25 8.3-18.646 18.63-18.646S54 29.242 54 39.493v94.903c0 4.056 3.47 7.344 7.557 7.344s7.48-3.288 7.48-7.344l.222-50.56c0-4.974 4.1-8.836 9.112-8.836H84.5M343.975 77.002c-5 0-9.054 4.042-9.054 9.03l-.183 3.063c0 4.067-3.79 7.364-7.87 7.364S319 93.16 319 89.094V72.943c0-4.067-2.823-7.364-6.9-7.364s-7.144 3.296-7.144 7.363l-.063 19.896c0 4.985-3.993 9.028-8.993 9.028" stroke-linecap="round" stroke-linejoin="round" stroke-dasharray="1 3"/><ellipse cx="180.501" cy="157.843" fill="#d3edff" rx="30.004" ry="2.996"/><g><defs><ellipse id="z" cx="182.096" cy="66.512" rx="24.071" ry="24.003"/></defs><use fill="#2b81cb" xlink:href="#z" overflow="visible"/><clipPath id="A"><use xlink:href="#z" overflow="visible"/></clipPath><g clip-path="url(#A)"><defs><path id="B" d="M187.077 71.073a10.114 10.114 0 0 0 3.257-2.987l2.717 2.055a.53.53 0 0 0 .91-.062l1.39-4.293a.526.526 0 0 0-.49-.762s-3.115.09-3.016-.327a9.83 9.83 0 0 0 .267-2.278c0-5.526-4.49-10.005-10.033-10.005s-10.034 4.48-10.034 10.005c0 .785.094 1.547.267 2.278.1.417-2.978.327-2.978.327a.527.527 0 0 0-.492.762l1.39 4.293c.18.36.68.393.91.063l2.7-2.028a10.09 10.09 0 0 0 3.238 2.96l.002-.01c.342.197.697.375 1.064.532l-.03.99c-7.188 2.498-12.52 11.915-12.52 22.915H198.6c0-11-5.332-20.417-12.52-22.915l-.03-.735c.356-.152.7-.453 1.034-.643l-.007-.134z"/></defs><use fill="#FFF" xlink:href="#B" overflow="visible"/><clipPath id="C"><use xlink:href="#B" overflow="visible"/></clipPath><ellipse cx="194.32" cy="67.829" fill="#5fcef5" rx="4.881" ry="4.867" clip-path="url(#C)"/><ellipse cx="171.107" cy="67.829" fill="#5fcef5" rx="4.881" ry="4.867" clip-path="url(#C)"/><ellipse cx="182.077" cy="62.423" fill="#FFF" rx="10.034" ry="10.012" clip-path="url(#C)"/><ellipse cx="196.126" cy="49.568" fill="#5fcef5" rx="15.919" ry="15.874" clip-path="url(#C)"/><ellipse cx="168.247" cy="51.642" fill="#5fcef5" rx="13.849" ry="13.81" clip-path="url(#C)"/></g><path fill="none" stroke="#5fcef5" stroke-miterlimit="10" d="M179.125 67.82a3.684 3.684 0 0 0 2.996 1.544 3.684 3.684 0 0 0 2.997-1.545" stroke-linecap="round"/></g></svg>