<svg class="symbol-blog-manager-clipart" version="1.1" xmlns="http://www.w3.org/2000/svg" xmlns:xlink="http://www.w3.org/1999/xlink" width="239px" height="146px" viewBox="0 0 239 146">
  <g>
    <ellipse style="fill:#D3EDFF;" cx="85.984" cy="121.355" rx="58" ry="3.5"/>
    <ellipse style="fill:#D3EDFF;" cx="167.984" cy="142.355" rx="47.5" ry="3.5"/>
    <g>
      <defs>
        <path id="SVGID_65_" d="M151.5,96.648c0,2.207-1.447,4.352-3.658,4.352H69.64l-8.088,8.597L52.55,101H24.007
                                c-2.211,0-4.507-2.145-4.507-4.352V4.246C19.5,2.039,21.796,0,24.007,0h123.835c2.211,0,3.658,2.039,3.658,4.246V96.648z"/>
      </defs>
      <use xlink:href="#SVGID_65_"  style="overflow:visible;fill:#D3EDFF;"/>
      <clipPath id="SVGID_2_">
        <use xlink:href="#SVGID_65_"  style="overflow:visible;"/>
      </clipPath>
      <rect x="14.5" y="-6" style="clip-path:url(#SVGID_2_);fill:#5FCEF5;" width="150" height="24"/>
    </g>
    <g>
      <circle style="fill:#FFFFFF;" cx="26.215" cy="9.665" r="2.176"/>
      <circle style="fill:#FFFFFF;" cx="34.511" cy="9.665" r="2.176"/>
      <path style="fill:#FFFFFF;" d="M144.023,9c0,1.104-0.896,2-2.002,2H42.928c-1.106,0-2.002-0.896-2.002-2l0,0
                                     c0-1.104,0.896-2,2.002-2h99.093C143.127,7,144.023,7.896,144.023,9L144.023,9z"/>
    </g>

    <path style="fill:none;stroke:#3899EC;stroke-linecap:round;stroke-linejoin:round;stroke-miterlimit:10;stroke-dasharray:1,3;" d="
                                                                                                                                    M17.5,32.5H7.976c-3.515,0-6.365,2.991-6.365,6.5s2.85,6.5,6.365,6.5H40.5"/>
    <g>
      <path style="fill:#7FCCF7;" d="M220.5,123.955c0,2.207-1.197,4.045-3.408,4.045h-98.092c-2.211,0-4.499-1.838-4.499-4.045V53.018
                                     c0-2.207,2.288-4.018,4.499-4.018h98.092c2.211,0,3.408,1.811,3.408,4.018V123.955z"/>
      <path style="fill:#A7E3FA;" d="M220.5,123.918c0,2.207-1.197,4.082-3.408,4.082H189.5V49h27.592c2.211,0,3.408,1.773,3.408,3.98
                                     V123.918z"/>
      <g>
        <line style="fill:none;stroke:#4EB7F5;stroke-miterlimit:10;" x1="135.5" y1="104.5" x2="168.5" y2="104.5"/>
        <g>
          <line style="fill:none;stroke:#4EB7F5;stroke-miterlimit:10;" x1="135.5" y1="111.5" x2="160.5" y2="111.5"/>
        </g>
      </g>
      <g>
        <g>
          <defs>
            <ellipse id="SVGID_67_" cx="151.82" cy="79.991" rx="17.323" ry="17.243"/>
          </defs>
          <use xlink:href="#SVGID_67_"  style="overflow:visible;fill:#2B81CB;"/>
          <clipPath id="SVGID_3_">
            <use xlink:href="#SVGID_67_"  style="overflow:visible;"/>
          </clipPath>
          <g style="clip-path:url(#SVGID_3_);">
            <defs>
              <path id="SVGID_69_" d="M155.405,83.266c0.931-0.536,1.734-1.268,2.344-2.146l1.956,1.477
                                      c0.164,0.237,0.524,0.213,0.654-0.045l1.001-3.084c0.13-0.257-0.065-0.559-0.354-0.548c0,0-2.241,0.065-2.17-0.235
                                      c0.125-0.525,0.192-1.073,0.192-1.637c0-3.969-3.233-7.187-7.221-7.187s-7.221,3.218-7.221,7.187
                                      c0,0.564,0.067,1.111,0.192,1.637c0.071,0.3-2.143,0.235-2.143,0.235c-0.289-0.011-0.484,0.29-0.354,0.548l1.001,3.084
                                      c0.13,0.258,0.49,0.282,0.654,0.045l1.942-1.457c0.608,0.869,1.406,1.595,2.331,2.126l0.001-0.007
                                      c0.246,0.142,0.502,0.27,0.765,0.382l-0.022,0.805c-5.172,1.794-9.01,8.553-9.01,16.553h23.754c0-8-3.838-14.759-9.01-16.553
                                      l-0.022-0.574c0.256-0.109,0.504-0.348,0.744-0.485L155.405,83.266z"/>
            </defs>
            <use xlink:href="#SVGID_69_"  style="overflow:visible;fill:#FFFFFF;"/>
            <clipPath id="SVGID_5_">
              <use xlink:href="#SVGID_69_"  style="overflow:visible;"/>
            </clipPath>
            <ellipse style="clip-path:url(#SVGID_5_);fill:#5FCEF5;" cx="160.617" cy="80.936" rx="3.512" ry="3.496"/>
            <ellipse style="clip-path:url(#SVGID_5_);fill:#5FCEF5;" cx="143.912" cy="80.936" rx="3.512" ry="3.496"/>
            <ellipse style="clip-path:url(#SVGID_5_);fill:#FFFFFF;" cx="151.807" cy="77.053" rx="7.221" ry="7.192"/>
            <ellipse style="clip-path:url(#SVGID_5_);fill:#5FCEF5;" cx="161.917" cy="67.818" rx="11.456" ry="11.403"/>
            <ellipse style="clip-path:url(#SVGID_5_);fill:#5FCEF5;" cx="141.853" cy="69.308" rx="9.966" ry="9.92"/>
          </g>
        </g>
      </g>
    </g>
    <g>
      <line style="fill:none;stroke:#7FCCF7;stroke-miterlimit:10;" x1="75.5" y1="70.5" x2="130.5" y2="70.5"/>
      <g>
        <line style="fill:none;stroke:#7FCCF7;stroke-miterlimit:10;" x1="75.5" y1="77.5" x2="116.5" y2="77.5"/>
      </g>
    </g>
    <g>
      <line style="fill:none;stroke:#7FCCF7;stroke-miterlimit:10;" x1="75.5" y1="38.5" x2="130.5" y2="38.5"/>
      <g>
        <line style="fill:none;stroke:#7FCCF7;stroke-miterlimit:10;" x1="75.5" y1="45.5" x2="116.5" y2="45.5"/>
      </g>
    </g>
    <g>
      <ellipse style="fill:#7FCCF7;" cx="54.653" cy="73.639" rx="12.618" ry="12.595"/>
    </g>
    <ellipse style="fill:#D0EDFF;" cx="221.045" cy="48.537" rx="12.796" ry="12.773"/>
    <g>
      <path style="fill:#2B81CB;" d="M224.396,49.416l-4.062-4.055l-3.657,3.651l-2.267,6.318l6.329-2.263l0,0L224.396,49.416z
                                     M215.872,53.869l1.166-3.249l2.089,2.085L215.872,53.869z"/>
      <path style="fill:#2B81CB;" d="M225.646,48.168l1.777-1.773c0.345-0.345,0.345-0.903,0-1.248l-2.812-2.807
                                     c-0.345-0.345-0.905-0.345-1.25,0l-1.777,1.773L225.646,48.168z"/>
    </g>
    <g>
      <path style="fill:#FFFFFF;" d="M213.5,69.043c0,1.082-0.289,1.957-1.373,1.957h-13.092c-1.084,0-2.535-0.875-2.535-1.957v-0.079
                                     c0-1.082,1.451-1.964,2.535-1.964h13.092c1.084,0,1.373,0.882,1.373,1.964V69.043z"/>
      <line style="fill:none;stroke:#FFFFFF;stroke-miterlimit:10;" x1="196.5" y1="76.5" x2="213.5" y2="76.5"/>
      <line style="fill:none;stroke:#FFFFFF;stroke-miterlimit:10;" x1="196.5" y1="81.5" x2="213.5" y2="81.5"/>
    </g>

    <path style="fill:none;stroke:#3899EC;stroke-linecap:round;stroke-linejoin:round;stroke-miterlimit:10;stroke-dasharray:1,4;" d="
                                                                                                                                    M205.915,42.855c-0.71,1.823-0.967,3.806-0.967,5.88c0,8.967,7.349,16.235,16.332,16.235c8.983,0,16.299-7.268,16.299-16.235
                                                                                                                                    S230.329,32.5,221.346,32.5h0.024H151.5"/>
    <g>
      <g>
        <defs>
          <ellipse id="SVGID_71_" cx="55.035" cy="41.802" rx="12.789" ry="12.73"/>
        </defs>
        <use xlink:href="#SVGID_71_"  style="overflow:visible;fill:#2B81CB;"/>
        <clipPath id="SVGID_7_">
          <use xlink:href="#SVGID_71_"  style="overflow:visible;"/>
        </clipPath>
        <g style="clip-path:url(#SVGID_7_);">
          <defs>
            <path id="SVGID_73_" d="M57.682,44.221c0.688-0.395,1.28-0.936,1.73-1.584l1.444,1.09c0.121,0.175,0.387,0.157,0.483-0.033
                                    l0.739-2.277c0.096-0.19-0.048-0.412-0.262-0.404c0,0-1.655,0.048-1.602-0.174c0.092-0.388,0.142-0.792,0.142-1.208
                                    c0-2.931-2.387-5.306-5.331-5.306c-2.944,0-5.331,2.376-5.331,5.306c0,0.416,0.05,0.82,0.142,1.208
                                    c0.053,0.221-1.582,0.174-1.582,0.174c-0.213-0.008-0.357,0.214-0.262,0.404l0.739,2.277c0.096,0.19,0.361,0.209,0.483,0.033
                                    l1.5-1.076c0.449,0.641,0.786,1.177,1.786,1.57v-0.005c0,0.105,0.305,0.199,0.5,0.282l-0.049,0.438
                                    C49.132,46.26,46.266,51,46.266,57h17.537c0-6-2.833-10.74-6.652-12.064l-0.017-0.346c0.189-0.081,0.372-0.218,0.549-0.319
                                    L57.682,44.221z"/>
          </defs>
          <use xlink:href="#SVGID_73_"  style="overflow:visible;fill:#FFFFFF;"/>
          <clipPath id="SVGID_9_">
            <use xlink:href="#SVGID_73_"  style="overflow:visible;"/>
          </clipPath>
          <ellipse style="clip-path:url(#SVGID_9_);fill:#5FCEF5;" cx="61.53" cy="42.501" rx="2.593" ry="2.581"/>
          <ellipse style="clip-path:url(#SVGID_9_);fill:#5FCEF5;" cx="49.197" cy="42.501" rx="2.593" ry="2.581"/>
          <ellipse style="clip-path:url(#SVGID_9_);fill:#FFFFFF;" cx="55.025" cy="39.634" rx="5.331" ry="5.31"/>
          <ellipse style="clip-path:url(#SVGID_9_);fill:#5FCEF5;" cx="62.49" cy="32.816" rx="8.458" ry="8.419"/>
          <ellipse style="clip-path:url(#SVGID_9_);fill:#5FCEF5;" cx="47.677" cy="33.916" rx="7.358" ry="7.324"/>
        </g>
      </g>
    </g>
  </g>
</svg>
