<svg xmlns="http://www.w3.org/2000/svg" width="239" height="146" class="symbol-blog-manager-clipart" xmlns:xlink="http://www.w3.org/1999/xlink" viewBox="0 0 239 146"><ellipse cx="85.984" cy="121.355" fill="#d3edff" rx="58" ry="3.5"/><ellipse cx="167.984" cy="142.355" fill="#d3edff" rx="47.5" ry="3.5"/><defs><path id="a" d="M151.5 96.648c0 2.207-1.447 4.352-3.658 4.352H69.64l-8.088 8.597L52.55 101H24.007c-2.21 0-4.507-2.145-4.507-4.352V4.246C19.5 2.04 21.796 0 24.007 0h123.835c2.21 0 3.658 2.04 3.658 4.246v92.402z"/></defs><use fill="#d3edff" xlink:href="#a" overflow="visible"/><clipPath id="b"><use xlink:href="#a" overflow="visible"/></clipPath><path fill="#5fcef5" d="M14.5-6h150v24h-150z" clip-path="url(#b)"/><g fill="#FFF"><circle cx="26.215" cy="9.665" r="2.176"/><circle cx="34.511" cy="9.665" r="2.176"/><path d="M144.023 9a2 2 0 0 1-2.002 2H42.93a2 2 0 0 1 0-4h99.093a2 2 0 0 1 2.003 2z"/></g><path fill="none" stroke="#3899ec" stroke-miterlimit="10" d="M17.5 32.5H7.976C4.46 32.5 1.61 35.49 1.61 39s2.85 6.5 6.366 6.5H40.5" stroke-linecap="round" stroke-linejoin="round" stroke-dasharray="1 3"/><path fill="#7fccf7" d="M220.5 123.955c0 2.207-1.197 4.045-3.408 4.045H119c-2.21 0-4.5-1.838-4.5-4.045V53.018c0-2.207 2.29-4.018 4.5-4.018h98.092c2.21 0 3.408 1.81 3.408 4.018v70.937z"/><path fill="#a7e3fa" d="M220.5 123.918c0 2.207-1.197 4.082-3.408 4.082H189.5V49h27.592c2.21 0 3.408 1.773 3.408 3.98v70.938z"/><path fill="none" stroke="#4eb7f5" stroke-miterlimit="10" d="M135.5 104.5h33M135.5 111.5h25"/><defs><ellipse id="c" cx="151.82" cy="79.991" rx="17.323" ry="17.243"/></defs><use fill="#2b81cb" xlink:href="#c" overflow="visible"/><clipPath id="d"><use xlink:href="#c" overflow="visible"/></clipPath><g clip-path="url(#d)"><defs><path id="e" d="M155.405 83.266a7.266 7.266 0 0 0 2.344-2.146l1.955 1.477a.382.382 0 0 0 .654-.045l1-3.084a.38.38 0 0 0-.354-.548s-2.24.065-2.17-.235a7.06 7.06 0 0 0 .192-1.637c0-3.97-3.233-7.187-7.22-7.187s-7.222 3.22-7.222 7.188c0 .564.067 1.11.192 1.637.07.3-2.143.235-2.143.235a.378.378 0 0 0-.354.548l1.002 3.084c.13.258.49.282.654.045l1.942-1.457a7.247 7.247 0 0 0 2.33 2.126l.002-.007c.246.14.502.27.765.38l-.022.806c-5.172 1.794-9.01 8.553-9.01 16.553h23.754c0-8-3.838-14.76-9.01-16.554l-.022-.574c.256-.11.504-.348.744-.485l-.005-.12z"/></defs><use fill="#FFF" xlink:href="#e" overflow="visible"/><clipPath id="f"><use xlink:href="#e" overflow="visible"/></clipPath><ellipse cx="160.617" cy="80.936" fill="#5fcef5" rx="3.512" ry="3.496" clip-path="url(#f)"/><ellipse cx="143.912" cy="80.936" fill="#5fcef5" rx="3.512" ry="3.496" clip-path="url(#f)"/><ellipse cx="151.807" cy="77.053" fill="#FFF" rx="7.221" ry="7.192" clip-path="url(#f)"/><ellipse cx="161.917" cy="67.818" fill="#5fcef5" rx="11.456" ry="11.403" clip-path="url(#f)"/><ellipse cx="141.853" cy="69.308" fill="#5fcef5" rx="9.966" ry="9.92" clip-path="url(#f)"/></g><g><path fill="none" stroke="#7fccf7" stroke-miterlimit="10" d="M75.5 70.5h55M75.5 77.5h41"/></g><g><path fill="none" stroke="#7fccf7" stroke-miterlimit="10" d="M75.5 38.5h55M75.5 45.5h41"/></g><g><ellipse cx="54.653" cy="73.639" fill="#7fccf7" rx="12.618" ry="12.595"/></g><ellipse cx="221.045" cy="48.537" fill="#d0edff" rx="12.796" ry="12.773"/><g fill="#2b81cb"><path d="M224.396 49.416l-4.062-4.055-3.657 3.652-2.267 6.318 6.33-2.263 3.656-3.65zm-8.524 4.453l1.166-3.25 2.09 2.085-3.256 1.164zM225.646 48.168l1.777-1.773a.882.882 0 0 0 0-1.248l-2.812-2.807a.884.884 0 0 0-1.25 0l-1.776 1.773 4.062 4.055z"/></g><g><path fill="#FFF" d="M213.5 69.043c0 1.082-.29 1.957-1.373 1.957h-13.092c-1.084 0-2.535-.875-2.535-1.957v-.08c0-1.08 1.45-1.963 2.535-1.963h13.092c1.084 0 1.373.882 1.373 1.964v.08z"/><path fill="none" stroke="#FFF" stroke-miterlimit="10" d="M196.5 76.5h17M196.5 81.5h17"/></g><path fill="none" stroke="#3899ec" stroke-miterlimit="10" d="M205.915 42.855c-.71 1.823-.967 3.806-.967 5.88 0 8.967 7.35 16.235 16.332 16.235 8.983 0 16.3-7.268 16.3-16.235S230.33 32.5 221.345 32.5h.024-69.87" stroke-linecap="round" stroke-linejoin="round" stroke-dasharray="1 4"/><g><defs><ellipse id="g" cx="55.035" cy="41.802" rx="12.789" ry="12.73"/></defs><use fill="#2b81cb" xlink:href="#g" overflow="visible"/><clipPath id="h"><use xlink:href="#g" overflow="visible"/></clipPath><g clip-path="url(#h)"><defs><path id="i" d="M57.682 44.22a5.346 5.346 0 0 0 1.73-1.583l1.444 1.09c.12.175.387.157.483-.033l.738-2.277a.28.28 0 0 0-.262-.404s-1.655.048-1.602-.174c.092-.39.142-.793.142-1.21 0-2.93-2.387-5.305-5.33-5.305-2.945 0-5.332 2.376-5.332 5.306 0 .417.05.82.142 1.21.053.22-1.582.173-1.582.173a.28.28 0 0 0-.262.404l.74 2.277c.095.19.36.21.482.033l1.5-1.076c.45.642.786 1.178 1.786 1.57v-.004c0 .105.305.2.5.282l-.05.438C49.133 46.26 46.267 51 46.267 57h17.537c0-6-2.833-10.74-6.652-12.064l-.016-.346c.19-.08.372-.218.55-.32l-.002-.05z"/></defs><use fill="#FFF" xlink:href="#i" overflow="visible"/><clipPath id="j"><use xlink:href="#i" overflow="visible"/></clipPath><ellipse cx="61.53" cy="42.501" fill="#5fcef5" rx="2.593" ry="2.581" clip-path="url(#j)"/><ellipse cx="49.197" cy="42.501" fill="#5fcef5" rx="2.593" ry="2.581" clip-path="url(#j)"/><ellipse cx="55.025" cy="39.634" fill="#FFF" rx="5.331" ry="5.31" clip-path="url(#j)"/><ellipse cx="62.49" cy="32.816" fill="#5fcef5" rx="8.458" ry="8.419" clip-path="url(#j)"/><ellipse cx="47.677" cy="33.916" fill="#5fcef5" rx="7.358" ry="7.324" clip-path="url(#j)"/></g></g></svg>