<svg width="121" height="127" viewBox="0 0 121 127"><path d="M112.086 123.006c0 1.657-18.58 3-41.5 3s-41.5-1.343-41.5-3c0-1.656 18.58-3 41.5-3s41.5 1.344 41.5 3" class="c1"/><path d="M120.333 57.208c0-3.285-1.057-6.433-2.98-9.353.66-3.433.432-6.746-.825-9.78-1.258-3.036-3.44-5.54-6.333-7.502-.706-3.424-2.183-6.397-4.506-8.72-2.324-2.323-5.298-3.8-8.722-4.507-1.962-2.893-4.465-5.074-7.5-6.332-3.035-1.257-6.348-1.484-9.78-.826-2.922-1.922-6.07-2.98-9.354-2.98-3.286 0-6.434 1.058-9.353 2.98-3.433-.658-6.746-.43-9.78.826-3.036 1.258-5.54 3.44-7.5 6.332-3.425.706-6.4 2.184-8.722 4.506-2.323 2.324-3.8 5.297-4.506 8.72-2.894 1.963-5.076 4.467-6.333 7.502-1.257 3.035-1.485 6.348-.827 9.78-1.922 2.92-2.98 6.07-2.98 9.354 0 3.285 1.058 6.433 2.98 9.353-.658 3.434-.43 6.747.826 9.782s3.438 5.538 6.332 7.5c.705 3.425 2.183 6.4 4.506 8.72 2.323 2.325 5.297 3.802 8.72 4.508 1.962 2.893 4.466 5.075 7.5 6.332 3.036 1.257 6.35 1.485 9.783.826 2.92 1.922 6.068 2.98 9.354 2.98 3.285 0 6.432-1.058 9.353-2.98 3.433.66 6.746.43 9.78-.826 3.036-1.257 5.54-3.44 7.5-6.332 3.425-.706 6.4-2.184 8.722-4.507 2.322-2.322 3.8-5.296 4.505-8.72 2.893-1.962 5.075-4.466 6.333-7.5 1.257-3.036 1.484-6.35.825-9.782 1.923-2.92 2.98-6.067 2.98-9.352" class="c2"/><path d="M112.334 57.208c0 23.196-18.805 42-42 42-23.197 0-42-18.804-42-42s18.803-42 42-42c23.195 0 42 18.804 42 42" class="c3"/><path d="M107.834 57.208c0 20.71-16.79 37.5-37.5 37.5-20.712 0-37.5-16.79-37.5-37.5s16.788-37.5 37.5-37.5c20.71 0 37.5 16.79 37.5 37.5z" class="c4"/><path d="M66.985 74.285l-13.972-16.28a1.5 1.5 0 0 1 2.276-1.953L66.702 69.35 85.91 40.976a1.5 1.5 0 0 1 2.486 1.682l-21.41 31.627z" class="v"/></svg>