<svg width="121px" height="127px" viewBox="0 0 121 127">
    <path class="c1"
          d="M112.086,123.006 C112.086,124.663 93.506,126.006 70.586,126.006 C47.666,126.006 29.086,124.663 29.086,123.006 C29.086,121.35 47.666,120.006 70.586,120.006 C93.506,120.006 112.086,121.35 112.086,123.006"/>
    <path class="c2"
          d="M120.333,57.208 C120.333,53.923 119.276,50.775 117.353,47.855 C118.012,44.422 117.785,41.109 116.528,38.074 C115.27,35.039 113.088,32.536 110.195,30.573 C109.489,27.149 108.012,24.176 105.689,21.852 C103.366,19.53 100.392,18.052 96.968,17.346 C95.006,14.453 92.503,12.272 89.468,11.014 C86.433,9.757 83.12,9.53 79.687,10.188 C76.766,8.266 73.619,7.208 70.334,7.208 C67.048,7.208 63.9,8.266 60.981,10.188 C57.547,9.53 54.234,9.757 51.199,11.014 C48.164,12.272 45.66,14.453 43.699,17.346 C40.275,18.052 37.301,19.53 34.978,21.852 C32.655,24.176 31.177,27.149 30.472,30.573 C27.578,32.535 25.396,35.039 24.139,38.074 C22.883,41.109 22.655,44.422 23.313,47.855 C21.391,50.775 20.333,53.923 20.333,57.208 C20.333,60.493 21.391,63.641 23.313,66.561 C22.655,69.994 22.883,73.307 24.139,76.342 C25.396,79.377 27.578,81.88 30.472,83.843 C31.177,87.267 32.655,90.241 34.978,92.563 C37.301,94.887 40.275,96.364 43.699,97.07 C45.66,99.963 48.164,102.145 51.199,103.402 C54.234,104.659 57.547,104.887 60.981,104.228 C63.9,106.15 67.048,107.208 70.334,107.208 C73.619,107.208 76.766,106.15 79.687,104.228 C83.12,104.887 86.433,104.659 89.468,103.402 C92.503,102.145 95.006,99.963 96.968,97.07 C100.392,96.364 103.366,94.886 105.689,92.563 C108.012,90.241 109.489,87.267 110.195,83.843 C113.088,81.881 115.27,79.377 116.528,76.342 C117.785,73.307 118.012,69.994 117.353,66.561 C119.276,63.641 120.333,60.493 120.333,57.208"/>
    <path class="c3"
          d="M112.334,57.208 C112.334,80.404 93.529,99.208 70.334,99.208 C47.137,99.208 28.334,80.404 28.334,57.208 C28.334,34.012 47.137,15.208 70.334,15.208 C93.529,15.208 112.334,34.012 112.334,57.208"/>
    <path class="c4"
          d="M107.834,57.208 C107.834,77.919 91.044,94.708 70.334,94.708 C49.622,94.708 32.834,77.919 32.834,57.208 C32.834,36.497 49.622,19.708 70.334,19.708 C91.044,19.708 107.834,36.497 107.834,57.208 L107.834,57.208 Z"
          stroke-linecap="round" stroke-linejoin="round" stroke-dasharray="1,3"/>
    <path class="v"
          d="M66.985,74.285 L53.013,58.005 C52.473,57.377 52.546,56.43 53.174,55.89 C53.803,55.351 54.75,55.423 55.289,56.052 L66.703,69.35 L85.911,40.976 C86.376,40.291 87.308,40.11 87.994,40.575 C88.68,41.04 88.86,41.972 88.396,42.658 L66.985,74.285 L66.985,74.285 Z"/>
</svg>
