<svg xmlns="http://www.w3.org/2000/svg" width="204" height="142" class="symbol-mobile-to-editor-clipart" xmlns:xlink="http://www.w3.org/1999/xlink" viewBox="0 0 204 142"><ellipse cx="58.484" cy="105.355" fill="#d3edff" rx="47.5" ry="3.5"/><defs><path id="a" d="M112 88H4a4 4 0 0 1-4-4V4a4 4 0 0 1 4-4h108a4 4 0 0 1 4 4v80a4 4 0 0 1-4 4z"/></defs><use fill="#d3edff" xlink:href="#a" overflow="visible"/><clipPath id="b"><use xlink:href="#a" overflow="visible"/></clipPath><path fill="#d3edff" d="M-4-5h131v21H-4z" clip-path="url(#b)"/><path fill="#a7e3fa" d="M-10 16h146v7H-10z" clip-path="url(#b)"/><ellipse cx="12.193" cy="32.153" fill="#a7e3fa" rx="3.5" ry="3.494"/><ellipse cx="12.193" cy="42.343" fill="#a7e3fa" rx="3.5" ry="3.494"/><ellipse cx="12.193" cy="52.533" fill="#a7e3fa" rx="3.5" ry="3.494"/><ellipse cx="12.193" cy="62.723" fill="#a7e3fa" rx="3.5" ry="3.494"/><circle cx="8.374" cy="7.973" r="2" fill="#FFF"/><circle cx="15" cy="8" r="2" fill="#FFF"/><path fill="#FFF" d="M110 8.02a1.98 1.98 0 0 1-1.98 1.98H21.98C20.89 10 20 9.11 20 8.02v-.04C20 6.89 20.89 6 21.98 6h86.04c1.09 0 1.98.89 1.98 1.98v.04z"/><defs><path id="c" d="M72 74.74c0 2.89-1.85 5.26-4.75 5.26h-17.5c-2.9 0-5.75-2.37-5.75-5.26V35.344C44 32.453 46.85 30 49.75 30h17.5c2.9 0 4.75 2.453 4.75 5.345V74.74z"/></defs><use fill="#FFF" xlink:href="#c" overflow="visible"/><clipPath id="d"><use xlink:href="#c" overflow="visible"/></clipPath><path fill="#FFF" stroke="#d3edff" stroke-miterlimit="10" d="M81.5 82.493c0 2.892-2.018 5.007-5.505 5.007H44.433c-3.486 0-6.933-2.115-6.933-5.007v-6.98c0-2.893 3.447-5.013 6.933-5.013h31.562c3.486 0 5.505 2.12 5.505 5.012v6.98z" clip-path="url(#d)"/><ellipse cx="58.449" cy="74.573" fill="#d3edff" rx="2.053" ry="2.047"/><path fill="#d3edff" d="M66.415 48.798a8.076 8.076 0 0 0-7.873-6.26 8.076 8.076 0 0 0-7.873 6.26 8.04 8.04 0 0 0-.21 1.802c0 .62.076 1.222.21 1.802a8.076 8.076 0 0 0 7.872 6.26 8.076 8.076 0 0 0 7.873-6.26c.133-.58.21-1.18.21-1.802a8.04 8.04 0 0 0-.21-1.802z"/><path fill="#FFF" d="M53 49h10v3H53z"/><defs><path id="e" d="M199 122H91a4 4 0 0 1-4-4V38a4 4 0 0 1 4-4h108a4 4 0 0 1 4 4v80a4 4 0 0 1-4 4z"/></defs><use fill="#eaf7ff" xlink:href="#e" overflow="visible"/><clipPath id="f"><use xlink:href="#e" overflow="visible"/></clipPath><path fill="#5fcef5" d="M83 29h131v21H83z" clip-path="url(#f)"/><path fill="#a7e3fa" d="M78 50h145v7H78z" clip-path="url(#f)"/><ellipse cx="99.693" cy="67.72" fill="#a7e3fa" rx="3.5" ry="3.491"/><ellipse cx="99.693" cy="77.901" fill="#a7e3fa" rx="3.5" ry="3.491"/><ellipse cx="99.693" cy="88.082" fill="#a7e3fa" rx="3.5" ry="3.491"/><ellipse cx="99.693" cy="98.263" fill="#a7e3fa" rx="3.5" ry="3.491"/><circle cx="95" cy="42" r="2" fill="#FFF"/><circle cx="102" cy="42" r="2" fill="#FFF"/><path fill="#FFF" d="M197 42.02a1.98 1.98 0 0 1-1.98 1.98h-86.04c-1.09 0-1.98-.89-1.98-1.98v-.04c0-1.09.89-1.98 1.98-1.98h86.04c1.09 0 1.98.89 1.98 1.98v.04z"/><path fill="none" stroke="#4eb7f5" stroke-miterlimit="10" d="M144.5 29v-5.493c0-6.905-4.903-13.007-11.827-13.007H122"/><path fill="none" stroke="#4eb7f5" stroke-miterlimit="10" d="M150.857 24.01l-4.63 4.616c-.56.56-1.472.56-2.035 0l-4.63-4.617M123.5 72.5h44v33h-44z"/><ellipse cx="124.5" cy="72.956" fill="#4eb7f5" rx="2" ry="1.995"/><ellipse cx="124.5" cy="104.871" fill="#4eb7f5" rx="2" ry="1.995"/><ellipse cx="167.5" cy="72.956" fill="#4eb7f5" rx="2" ry="1.995"/><ellipse cx="167.5" cy="104.871" fill="#4eb7f5" rx="2" ry="1.995"/><path fill="#4eb7f5" d="M155.57 92.578l-5.255 4.143-8.6-7.993a.867.867 0 0 0-1.174-.006l-12.51 11.585c-.583.53-.207 1.695.583 1.695h34.343c.75 0 1.145-1.085.64-1.64l-6.85-7.59c-.305-.333-.82-.473-1.175-.192z"/><ellipse cx="158.167" cy="81.392" fill="#4eb7f5" rx="3.5" ry="3.491"/><ellipse cx="146.484" cy="138.355" fill="#d3edff" rx="47.5" ry="3.5"/></svg>