<svg xmlns="http://www.w3.org/2000/svg" width="202" height="144" class="symbol-online-store-manager-clipart" xmlns:xlink="http://www.w3.org/1999/xlink" viewBox="0 0 202 144"><path fill="#a7e3fa" d="M179.864 17.564l-6.07-1.853-1.854-6.07-1.853 6.07-6.07 1.854 6.07 1.853 1.853 6.07 1.853-6.07z"/><ellipse cx="66.464" cy="115.355" fill="#d3edff" rx="58.301" ry="4.653"/><path fill="#a7e3fa" d="M70.392 96h-7.856c-.41 0-.755-.023-.805.383-.34 2.734-1.797 12.967-5.358 16.964-.458.513-.063 1.653.625 1.653H75.93c.687 0 1.083-1.303.625-1.816-3.56-3.997-5.017-13.825-5.36-16.558-.05-.406-.395-.626-.803-.626z"/><defs><path id="a" d="M132 96.67c0 2.37-1.374 4.33-3.685 4.33H4.685C2.375 101 0 99.04 0 96.67V4.256C0 1.885 2.374 0 4.685 0h123.63C130.625 0 132 1.885 132 4.257V96.67z"/></defs><use fill="#d3edff" xlink:href="#a" overflow="visible"/><clipPath id="b"><use xlink:href="#a" overflow="visible"/></clipPath><path fill="#5fcef5" d="M-5-5h150v24H-5z" clip-path="url(#b)"/><g fill="#FFF"><circle cx="8.702" cy="9.609" r="2.5"/><circle cx="16.991" cy="9.609" r="2.5"/><path d="M125 9.5a2.5 2.5 0 0 1-2.5 2.5h-97a2.5 2.5 0 0 1 0-5h97a2.5 2.5 0 0 1 2.5 2.5z"/></g><linearGradient id="c" x1="27" x2="62" y1="43" y2="43" gradientUnits="userSpaceOnUse"><stop offset="0" stop-color="#FFF"/><stop offset="1" stop-color="#FFF"/></linearGradient><path fill="url(#c)" d="M62 55a1 1 0 0 1-1 1H28a1 1 0 0 1-1-1V31a1 1 0 0 1 1-1h33a1 1 0 0 1 1 1v24z"/><path fill="#3899ec" d="M44.17 35.122c-1.345-1.366-2.847-1.52-3.692-.688-.846.832-.715 2.336.63 3.703 1.345 1.366 4.24 1.245 4.24 1.245s.167-2.893-1.178-4.26z"/><path fill="#3899ec" d="M45.3 35.122c1.346-1.366 2.848-1.52 3.693-.688.846.832.715 2.336-.63 3.703-1.345 1.366-4.24 1.245-4.24 1.245s-.167-2.893 1.178-4.26z"/><path fill="#a7e3fa" d="M38 39h13v12H38z"/><path fill="none" stroke="#3899ec" stroke-miterlimit="10" d="M44.5 39v12"/><path fill="#a7e3fa" d="M71 54.963v-24c0-.55 1.45-.963 2-.963h33c.552 0 0 .41 0 .963v24c0 .552.552 1.037 0 1.037H73c-.552 0-2-.485-2-1.037zM71 88.963v-24c0-.55 1.45-.963 2-.963h33c.552 0 0 .41 0 .963v24c0 .552.552 1.037 0 1.037H73c-.552 0-2-.485-2-1.037zM155.192 14.4l-3.898-1.19-1.19-3.9-1.19 3.9-3.898 1.19 3.898 1.19 1.19 3.898 1.19-3.9zM169.804 36.093l-2.6-.793-.794-2.6-.793 2.6-2.6.793 2.6.794.793 2.6.794-2.6z"/><g><defs><path id="d" d="M201 123a4 4 0 0 1-4 4H99a4 4 0 0 1-4-4V52a4 4 0 0 1 4-4h98a4 4 0 0 1 4 4v71z"/></defs><use fill="#7fccf7" xlink:href="#d" overflow="visible"/><clipPath id="e"><use xlink:href="#d" overflow="visible"/></clipPath><path fill="none" stroke="#d3edff" stroke-miterlimit="10" d="M72.5 38.5h136v22h-136z" clip-path="url(#e)"/></g><g><path fill="none" stroke="#FFF" stroke-miterlimit="10" d="M121 81.5h54"/><path fill="none" stroke="#FFF" stroke-width="3" stroke-miterlimit="10" d="M121 73.5h33"/><path fill="none" stroke="#FFF" stroke-miterlimit="10" d="M121 88.5h41"/></g><g><linearGradient id="f" x1="121" x2="148" y1="105" y2="105" gradientUnits="userSpaceOnUse"><stop offset="0" stop-color="#FFF"/><stop offset="1" stop-color="#FFF"/></linearGradient><path fill="url(#f)" d="M148 114.23a.77.77 0 0 1-.77.77h-25.46a.77.77 0 0 1-.77-.77V95.77a.77.77 0 0 1 .77-.77h25.46a.77.77 0 0 1 .77.77v18.46z"/><g><path fill="#3899ec" d="M134.362 98.932c-1.035-1.05-2.19-1.17-2.84-.53-.65.64-.55 1.797.485 2.848s3.262.958 3.262.958.126-2.225-.908-3.276z"/><path fill="#3899ec" d="M135.23 98.932c1.036-1.05 2.19-1.17 2.84-.53.65.64.55 1.797-.484 2.848s-3.262.958-3.262.958-.127-2.225.907-3.276z"/><path fill="#a7e3fa" d="M130 102h9v9h-9z"/><path fill="none" stroke="#3899ec" stroke-miterlimit="10" d="M134.5 102v9"/></g></g><g><linearGradient id="g" x1="153" x2="176" y1="105" y2="105" gradientUnits="userSpaceOnUse"><stop offset="0" stop-color="#FFF"/><stop offset="1" stop-color="#FFF"/></linearGradient><path fill="none" stroke="url(#g)" stroke-miterlimit="10" d="M175.5 112.862a.638.638 0 0 1-.638.638h-20.725a.638.638 0 0 1-.638-.638V97.138c0-.352.284-.638.637-.638h20.725c.352 0 .638.285.638.638v15.724z" stroke-linecap="round" stroke-linejoin="round" stroke-dasharray="1 3"/><path fill="none" stroke="#FFF" stroke-miterlimit="10" d="M161 105.5h7"/><g><path fill="none" stroke="#FFF" stroke-miterlimit="10" d="M164.5 102v7"/></g></g><g fill="#3899ec"><path d="M159.26 31.645l-5.77-5.772-5.198 5.197-3.222 8.994 8.994-3.222 5.197-5.197zm-12.112 6.34l1.657-4.626 2.97 2.968-4.627 1.657zM161.037 29.87l2.524-2.525c.49-.49.49-1.286 0-1.776l-3.995-3.997a1.257 1.257 0 0 0-1.776 0l-2.525 2.524 5.772 5.772z"/></g><path fill="#FFF" d="M194 54.04a1.96 1.96 0 0 1-1.96 1.96h-13.08a1.96 1.96 0 0 1-1.96-1.96v-.08a1.96 1.96 0 0 1 1.96-1.96h13.08a1.96 1.96 0 0 1 1.96 1.96v.08z"/><g><path fill="#a7e3fa" d="M27 88.963v-24c0-.55.95-.963 1.5-.963h33c.552 0 .5.41.5.963v24c0 .552.052 1.037-.5 1.037h-33c-.552 0-1.5-.485-1.5-1.037z"/></g><ellipse cx="148.484" cy="140.355" fill="#d3edff" rx="47.5" ry="3.5"/></svg>