<svg class="symbol-online-store-special-btn-promotional-clipart" version="1.1" xmlns="http://www.w3.org/2000/svg" xmlns:xlink="http://www.w3.org/1999/xlink" width="318px" height="169px" viewBox="0 0 318 169">
  <ellipse style="opacity:0.95;fill:#D3EDFF;" cx="162.774" cy="163.355" rx="70" ry="4"/>
  <path style="fill:#5FCEF5;" d="M166.806,141.5h-9.085c-0.473,0-0.873,0.016-0.932,0.485c-0.395,3.166-2.08,14.993-6.197,19.622
                                 c-0.529,0.594-0.072,1.893,0.723,1.893h21.896c0.795,0,1.252-1.466,0.723-2.06c-4.118-4.628-5.802-16.029-6.197-19.194
                                 C167.679,141.776,167.279,141.5,166.806,141.5z"/>
  <polygon style="fill:#A7E3FA;" points="253.655,96.571 261.308,94.234 263.644,86.581 265.981,94.234 273.634,96.571 
                                         265.981,98.907 263.644,106.56 261.308,98.907 "/>
  <polygon style="fill:#A7E3FA;" points="292.203,109.22 295.874,108.1 296.995,104.429 298.115,108.1 301.786,109.22 
                                         298.115,110.341 296.995,114.012 295.874,110.341 "/>
  <polygon style="fill:#A7E3FA;" points="4.988,87.571 8.555,86.482 9.644,82.915 10.733,86.482 14.3,87.571 10.733,88.66 
                                         9.644,92.227 8.555,88.66 "/>
  <polygon style="fill:#A7E3FA;" points="45.724,54.45 51.885,52.569 53.766,46.407 55.646,52.569 61.808,54.45 55.646,56.33 
                                         53.766,62.492 51.885,56.33 "/>
  <rect x="68.21" y="72.173" transform="matrix(0.4112 -0.9115 0.9115 0.4112 -27.9032 107.5129)" style="fill:#A7E3FA;" width="2.121" height="6.364"/>
  <rect x="273.838" y="124.232" transform="matrix(0.2744 -0.9616 0.9616 0.2744 76.4116 357.5859)" style="fill:#A7E3FA;" width="2.62" height="7.86"/>
  <rect x="42.433" y="0.452" transform="matrix(-0.7714 0.6363 -0.6363 -0.7714 86.7886 -11.7939)" style="fill:#A7E3FA;" width="6.159" height="18.477"/>
  <rect x="272.433" y="22.452" transform="matrix(-0.9459 -0.3244 0.3244 -0.9459 525.8434 151.0475)" style="fill:#A7E3FA;" width="6.159" height="18.477"/>
  <rect x="55.192" y="119.679" transform="matrix(0.3857 0.9226 -0.9226 0.3857 151.0827 24.4331)" style="fill:#A7E3FA;" width="4" height="12"/>
  <rect x="297.193" y="73.683" transform="matrix(0.0944 0.9955 -0.9955 0.0944 350.2622 -225.6987)" style="fill:#A7E3FA;" width="4" height="12"/>
  <path style="fill:none;stroke:#4EB7F5;stroke-linecap:round;stroke-linejoin:round;stroke-miterlimit:10;stroke-dasharray:1,3;" d="
                                                                                                                                  M4.92,44.952c-4.4,3.755-4.922,10.366-1.167,14.765s10.366,4.922,14.765,1.167c4.4-3.755,11.01-3.232,14.765,1.167
                                                                                                                                  s3.232,11.01-1.167,14.765l-0.081-0.016c-4.4,3.755-4.922,10.366-1.167,14.765c3.755,4.4,10.366,4.922,14.765,1.167
                                                                                                                                  s11.01-3.232,14.765,1.167c3.755,4.4,3.232,11.01-1.167,14.765"/>
  <path style="fill:none;stroke:#4EB7F5;stroke-linecap:round;stroke-linejoin:round;stroke-miterlimit:10;stroke-dasharray:1,3;" d="
                                                                                                                                  M268.899,66.064c1.709,3.298,5.768,4.586,9.066,2.877c3.298-1.709,4.586-5.768,2.877-9.066c-1.709-3.298-0.421-7.357,2.877-9.066
                                                                                                                                  c3.298-1.709,7.357-0.421,9.066,2.877l-0.022,0.049c1.709,3.298,5.768,4.586,9.066,2.877c3.298-1.709,4.586-5.768,2.877-9.066
                                                                                                                                  c-1.709-3.298-0.421-7.357,2.877-9.066s7.357-0.421,9.066,2.877"/>
  <g>
    <g>
      <g>
        <defs>
          <path id="SVGID_81_" d="M242,140.465c0,2.505-2.125,5.035-4.627,5.035H87.626c-2.502,0-4.626-2.53-4.626-5.035V28.535
                                  c0-2.505,2.125-4.035,4.626-4.035h149.747c2.502,0,4.627,1.53,4.627,4.035V140.465z"/>
        </defs>
        <use xlink:href="#SVGID_81_"  style="overflow:visible;fill:#D3EDFF;"/>
        <clipPath id="SVGID_2_">
          <use xlink:href="#SVGID_81_"  style="overflow:visible;"/>
        </clipPath>
      </g>
    </g>
  </g>
  <path style="fill:#5FCEF5;" d="M242.655,24.5H82.357C80.282,24.5,78,25.147,78,27.224V31.5h169v-4.276
                                 C247,25.147,244.73,24.5,242.655,24.5z"/>
  <g>
    <path style="fill:#A7E3FA;" d="M181,145.5V77.887c0-10.347-8.758-18.387-19.093-18.387h-0.383C151.19,59.5,143,67.541,143,77.887
                                   V145.5H181z"/>
    <g>
      <line style="fill:none;stroke:#D3EDFF;stroke-miterlimit:10;" x1="143" y1="77" x2="181" y2="77"/>
      <line style="fill:none;stroke:#D3EDFF;stroke-miterlimit:10;" x1="161.5" y1="76.5" x2="161.5" y2="59.5"/>
    </g>
  </g>
  <rect x="148" y="82.5" style="fill:#FFFFFF;" width="28" height="44"/>
  <rect x="148" y="127.5" style="fill:#FFFFFF;" width="28" height="13"/>
  <g>
    <linearGradient id="SVGID_3_" gradientUnits="userSpaceOnUse" x1="192" y1="93" x2="230" y2="93">
      <stop  offset="0" style="stop-color:#FFFFFF"/>
      <stop  offset="1" style="stop-color:#FFFFFF"/>
    </linearGradient>
    <path style="fill:url(#SVGID_3_);" d="M230,126.5V77.887c0-10.347-8.818-18.387-19.153-18.387h-0.383
                                          C200.13,59.5,192,67.541,192,77.887V126.5"/>
    <line style="fill:none;stroke:#4EB7F5;stroke-miterlimit:10;" x1="189" y1="127" x2="233" y2="127"/>
    <g>
      <line style="fill:none;stroke:#D3EDFF;stroke-miterlimit:10;" x1="192" y1="77" x2="230" y2="77"/>
      <line style="fill:none;stroke:#D3EDFF;stroke-miterlimit:10;" x1="210.5" y1="76.5" x2="210.5" y2="59.5"/>
    </g>
  </g>
  <g>
    <linearGradient id="SVGID_5_" gradientUnits="userSpaceOnUse" x1="94" y1="93" x2="132" y2="93">
      <stop  offset="0" style="stop-color:#FFFFFF"/>
      <stop  offset="1" style="stop-color:#FFFFFF"/>
    </linearGradient>
    <path style="fill:url(#SVGID_5_);" d="M132,126.5V77.887c0-10.347-8.502-18.387-18.836-18.387h-0.383
                                          C102.446,59.5,94,67.541,94,77.887V126.5"/>
    <line style="fill:none;stroke:#4EB7F5;stroke-miterlimit:10;" x1="91" y1="127" x2="135" y2="127"/>
    <g>
      <line style="fill:none;stroke:#D3EDFF;stroke-miterlimit:10;" x1="94" y1="77" x2="132" y2="77"/>
      <line style="fill:none;stroke:#D3EDFF;stroke-miterlimit:10;" x1="112.5" y1="76.5" x2="112.5" y2="59.5"/>
    </g>
  </g>
  <g>
    <g>
      <g>
        <path style="fill:#2B81CB;" d="M111.936,106.456c-1.721-1.75-3.642-1.948-4.724-0.882s-0.915,2.993,0.806,4.743
                                       c1.721,1.75,5.425,1.595,5.425,1.595S113.657,108.206,111.936,106.456z"/>
      </g>
      <g>
        <path style="fill:#2B81CB;" d="M113.382,106.456c1.721-1.75,3.642-1.948,4.724-0.882s0.915,2.993-0.806,4.743
                                       c-1.721,1.75-5.425,1.595-5.425,1.595S111.661,108.206,113.382,106.456z"/>
      </g>
    </g>
    <rect x="105" y="110.5" style="fill:#A7E3FA;" width="15" height="13"/>
    <line style="fill:none;stroke:#2B81CB;stroke-miterlimit:10;" x1="112.5" y1="110.5" x2="112.5" y2="123.5"/>
  </g>
  <line style="fill:none;stroke:#4EB7F5;stroke-miterlimit:10;" x1="91" y1="101" x2="135" y2="101"/>
  <g>
    <defs>
      <path id="SVGID_85_" d="M119.617,80.819c0,0-2.257,3.44-5.933,8.003c-2.484,3.083-4.016,3.431-5.994,1.45l-0.006,0.004
                              l-5.156,3.268c-0.545,0.347-0.549,1.142-0.008,1.494c0.528,0.344,7.695,0.72,7.695,0.72c4.724,0,5.108-6.877,8.8-6.877
                              l0.681,7.618h0.66l1.503-8.458c0.605-0.926,0.882-2.256,0.695-3.435C122.285,82.905,121.12,81.384,119.617,80.819z"/>
    </defs>
    <use xlink:href="#SVGID_85_"  style="overflow:visible;fill:#5FCEF5;"/>
    <clipPath id="SVGID_7_">
      <use xlink:href="#SVGID_85_"  style="overflow:visible;"/>
    </clipPath>
    <path style="clip-path:url(#SVGID_7_);fill:#2B81CB;" d="M106.516,91.018c3.288,3.292,5.691,1.932,8.86-2.196
                                                            c2.876-3.747,5.401-7.362,5.401-7.362l-0.474-2.971l-4.533,0.256l-3.404,2.073l-7.202,3.837L106.516,91.018z"/>
  </g>
  <g>
    <path style="fill:none;stroke:#2B81CB;stroke-width:2;stroke-miterlimit:10;" d="M202.261,107.956
                                                                                   c-1.166-1.167-3.056-1.167-4.222,0l-1.847,1.835"/>
    <path style="fill:none;stroke:#2B81CB;stroke-miterlimit:10;" d="M196.192,114.184c2.826,4.889,8.102,8.181,14.15,8.181
                                                                    c6.048,0,11.324-3.292,14.15-8.181"/>
    <path style="fill:#2B81CB;" d="M201,119v-9c0-2.209,1.791-3.5,4-3.5h7l3-8.25l5.978-4.189l-0.782,3.225L226,102v0.02
                                   c0,1.094-0.886,2.48-1.98,2.48H220V119l-3,2.25l-1-6.75h-11l-1.425,6.686L201,119z"/>
    <circle style="fill:#FFFFFF;" cx="219.777" cy="99.801" r="0.776"/>
    <path style="fill:#4EB7F5;" d="M212.059,106.5c0,1-1.58,3.529-3.529,3.529S205,107.5,205,106.5H212.059z"/>
  </g>
  <polygon style="fill:#4EB7F5;" points="203.974,86.616 208.899,85.11 210.403,80.179 211.907,85.11 216.833,86.616 211.907,88.122 
                                         210.403,93.053 208.899,88.122 "/>
  <polygon style="fill:#4EB7F5;" points="196.458,96.841 199.614,95.876 200.577,92.717 201.541,95.876 204.697,96.841 
                                         201.541,97.806 200.577,100.965 199.614,97.806 "/>
  <g>
    <path style="fill:#5FCEF5;" d="M205,39.92c0,4.415,3.591,7.994,8,7.994s8-3.579,8-7.994V31.5h-16V39.92z"/>
    <path style="fill:#5FCEF5;" d="M222,39.92c0,4.415,3.591,7.994,8,7.994s8-3.579,8-7.994V31.5h-16V39.92z"/>
    <path style="fill:#5FCEF5;" d="M239,39.92c0,4.415,3.6,7.994,8.009,7.994c4.409,0,7.996-3.322,7.996-7.737l-8.441-8.677H239V39.92z
                                   "/>
    <path style="fill:#5FCEF5;" d="M155,39.92c0,4.415,3.091,7.994,7.5,7.994s7.5-3.579,7.5-7.994V31.5h-15V39.92z"/>
    <path style="fill:#5FCEF5;" d="M171,39.92c0,4.415,3.591,7.994,8,7.994s8-3.579,8-7.994V31.5h-16V39.92z"/>
    <path style="fill:#5FCEF5;" d="M188,39.92c0,4.415,3.591,7.994,8,7.994s8-3.579,8-7.994V31.5h-16V39.92z"/>
    <path style="fill:#5FCEF5;" d="M104,39.92c0,4.415,3.591,7.994,8,7.994s8-3.579,8-7.994V31.5h-16V39.92z"/>
    <path style="fill:#5FCEF5;" d="M121,39.92c0,4.415,3.591,7.994,8,7.994c4.409,0,8-3.579,8-7.994V31.5h-16V39.92z"/>
    <path style="fill:#5FCEF5;" d="M138,39.92c0,4.415,3.591,7.994,8,7.994s8-3.579,8-7.994V31.5h-16V39.92z"/>
    <path style="fill:#5FCEF5;" d="M87,39.92c0,4.415,3.591,7.994,8,7.994s8-3.579,8-7.994V31.5H87V39.92z"/>
    <path style="fill:#5FCEF5;" d="M69.982,40.177c0,4.415,3.6,7.865,8.009,7.865C82.4,48.042,86,44.335,86,39.92V31.5h-7.565
                                   L69.982,40.177z"/>

    <line style="fill:none;stroke:#D3EDFF;stroke-linecap:round;stroke-miterlimit:10;stroke-dasharray:1,3;" x1="71" y1="40" x2="254" y2="40"/>
    <line style="fill:none;stroke:#D3EDFF;stroke-miterlimit:10;" x1="78" y1="31" x2="247" y2="31"/>
  </g>
  <g>
    <g>
      <path style="fill:none;stroke:#A7E3FA;stroke-miterlimit:10;" d="M158.837,100.035l1.426-6.778
                                                                      c0.172-0.816,1.272-0.964,1.652-0.222l3.134,6.115"/>

      <rect x="155.465" y="98.93" transform="matrix(0.99 -0.1411 0.1411 0.99 -12.8254 23.9424)" style="fill:#5FCEF5;" width="13.983" height="7"/>
    </g>
  </g>
  <line style="fill:none;stroke:#4EB7F5;stroke-linecap:round;stroke-linejoin:round;stroke-miterlimit:10;" x1="150" y1="112" x2="155" y2="112"/>
</svg>
