<svg xmlns="http://www.w3.org/2000/svg" width="318" height="169" class="symbol-online-store-special-btn-promotional-clipart" xmlns:xlink="http://www.w3.org/1999/xlink" viewBox="0 0 318 169"><ellipse cx="162.774" cy="163.355" fill="#d3edff" rx="70" ry="4" opacity=".95"/><path fill="#5fcef5" d="M166.806 141.5h-9.085c-.472 0-.872.016-.93.485-.396 3.166-2.08 14.993-6.198 19.622-.53.594-.072 1.893.723 1.893h21.896c.796 0 1.253-1.466.724-2.06-4.118-4.628-5.802-16.03-6.197-19.194-.058-.47-.458-.746-.93-.746z"/><path fill="#a7e3fa" d="M253.655 96.57l7.653-2.336 2.336-7.653 2.337 7.654 7.654 2.337-7.653 2.337-2.336 7.653-2.336-7.653zM292.203 109.22l3.67-1.12 1.122-3.67 1.12 3.67 3.67 1.12-3.67 1.12-1.12 3.672-1.12-3.67zM4.988 87.57l3.567-1.088 1.09-3.567 1.088 3.567 3.567 1.09-3.567 1.088-1.09 3.567-1.088-3.567zM45.724 54.45l6.16-1.88 1.882-6.163 1.88 6.162 6.162 1.88-6.162 1.88-1.88 6.162-1.88-6.162zM65.93 75.017l.873-1.933 5.8 2.617-.872 1.934zM271.014 128.353l.72-2.52 7.557 2.157-.718 2.52zM53.768 14.858l-4.75 3.92L37.26 4.522l4.75-3.92zM275.432 41.433l-5.825-1.998 5.994-17.477 5.826 1.997zM61.954 121.513l1.543 3.69-11.07 4.63-1.544-3.69zM304.966 77.113l.377 3.982-11.946 1.132-.377-3.982z"/><path fill="none" stroke="#4eb7f5" stroke-miterlimit="10" d="M4.92 44.952C.52 48.707-.002 55.318 3.753 59.717s10.366 4.922 14.765 1.167c4.4-3.755 11.01-3.232 14.765 1.167s3.232 11.01-1.167 14.766l-.08-.016c-4.4 3.755-4.923 10.366-1.168 14.765 3.755 4.4 10.366 4.922 14.765 1.167S56.643 89.5 60.398 93.9c3.755 4.4 3.232 11.01-1.167 14.764M268.9 66.064a6.726 6.726 0 0 0 11.942-6.19 6.726 6.726 0 0 1 11.943-6.188l-.022.05a6.726 6.726 0 0 0 11.943-6.19 6.726 6.726 0 0 1 11.943-6.19" stroke-linecap="round" stroke-linejoin="round" stroke-dasharray="1 3"/><defs><path id="a" d="M242 140.465c0 2.505-2.125 5.035-4.627 5.035H87.626c-2.502 0-4.626-2.53-4.626-5.035V28.535c0-2.505 2.125-4.035 4.626-4.035h149.747c2.502 0 4.627 1.53 4.627 4.035v111.93z"/></defs><use fill="#d3edff" xlink:href="#a" overflow="visible"/><path fill="#5fcef5" d="M242.655 24.5H82.357c-2.075 0-4.357.647-4.357 2.724V31.5h169v-4.276c0-2.077-2.27-2.724-4.345-2.724z"/><path fill="#a7e3fa" d="M181 145.5V77.887c0-10.347-8.758-18.387-19.093-18.387h-.383C151.19 59.5 143 67.54 143 77.887V145.5h38z"/><g fill="none" stroke="#d3edff" stroke-miterlimit="10"><path d="M143 77h38M161.5 76.5v-17"/></g><path fill="#FFF" d="M148 82.5h28v44h-28zM148 127.5h28v13h-28z"/><linearGradient id="b" x1="192" x2="230" y1="93" y2="93" gradientUnits="userSpaceOnUse"><stop offset="0" stop-color="#FFF"/><stop offset="1" stop-color="#FFF"/></linearGradient><path fill="url(#b)" d="M230 126.5V77.887c0-10.347-8.818-18.387-19.153-18.387h-.383C200.13 59.5 192 67.54 192 77.887V126.5"/><path fill="none" stroke="#4eb7f5" stroke-miterlimit="10" d="M189 127h44"/><g fill="none" stroke="#d3edff" stroke-miterlimit="10"><path d="M192 77h38M210.5 76.5v-17"/></g><linearGradient id="c" x1="94" x2="132" y1="93" y2="93" gradientUnits="userSpaceOnUse"><stop offset="0" stop-color="#FFF"/><stop offset="1" stop-color="#FFF"/></linearGradient><path fill="url(#c)" d="M132 126.5V77.887c0-10.347-8.502-18.387-18.836-18.387h-.383C102.447 59.5 94 67.54 94 77.887V126.5"/><path fill="none" stroke="#4eb7f5" stroke-miterlimit="10" d="M91 127h44"/><g fill="none" stroke="#d3edff" stroke-miterlimit="10"><path d="M94 77h38M112.5 76.5v-17"/></g><path fill="#2b81cb" d="M111.936 106.456c-1.72-1.75-3.642-1.948-4.724-.882s-.915 2.993.806 4.743c1.72 1.75 5.425 1.595 5.425 1.595s.214-3.706-1.507-5.456z"/><path fill="#2b81cb" d="M113.382 106.456c1.72-1.75 3.642-1.948 4.724-.882s.915 2.993-.806 4.743c-1.72 1.75-5.425 1.595-5.425 1.595s-.214-3.706 1.507-5.456z"/><path fill="#a7e3fa" d="M105 110.5h15v13h-15z"/><path fill="none" stroke="#2b81cb" stroke-miterlimit="10" d="M112.5 110.5v13"/><path fill="none" stroke="#4eb7f5" stroke-miterlimit="10" d="M91 101h44"/><g><defs><path id="d" d="M119.617 80.82s-2.257 3.44-5.933 8.002c-2.484 3.083-4.016 3.43-5.994 1.45l-.006.004-5.156 3.268a.89.89 0 0 0-.008 1.494c.528.344 7.695.72 7.695.72 4.724 0 5.108-6.877 8.8-6.877l.68 7.62h.66l1.504-8.46c.604-.925.88-2.255.694-3.434-.27-1.7-1.434-3.222-2.937-3.787z"/></defs><use fill="#5fcef5" xlink:href="#d" overflow="visible"/><clipPath id="e"><use xlink:href="#d" overflow="visible"/></clipPath><path fill="#2b81cb" d="M106.516 91.018c3.288 3.292 5.69 1.932 8.86-2.196 2.876-3.747 5.4-7.362 5.4-7.362l-.473-2.97-4.533.255-3.404 2.073-7.202 3.837 1.352 6.363z" clip-path="url(#e)"/></g><g><path fill="none" stroke="#2b81cb" stroke-width="2" stroke-miterlimit="10" d="M202.26 107.956a2.983 2.983 0 0 0-4.22 0l-1.848 1.835"/><path fill="none" stroke="#2b81cb" stroke-miterlimit="10" d="M196.192 114.184c2.826 4.89 8.102 8.18 14.15 8.18s11.324-3.29 14.15-8.18"/><path fill="#2b81cb" d="M201 119v-9c0-2.21 1.79-3.5 4-3.5h7l3-8.25 5.978-4.19-.782 3.226L226 102v.02c0 1.094-.886 2.48-1.98 2.48H220V119l-3 2.25-1-6.75h-11l-1.425 6.686L201 119z"/><circle cx="219.777" cy="99.801" r=".776" fill="#FFF"/><path fill="#4eb7f5" d="M212.06 106.5c0 1-1.58 3.53-3.53 3.53S205 107.5 205 106.5h7.06z"/></g><path fill="#4eb7f5" d="M203.974 86.616l4.925-1.506 1.503-4.93 1.504 4.93 4.926 1.506-4.926 1.506-1.504 4.93-1.504-4.93zM196.458 96.84l3.156-.964.963-3.16.964 3.16 3.157.965-3.156.966-.963 3.16-.963-3.16z"/><g><path fill="#5fcef5" d="M205 39.92c0 4.415 3.59 7.994 8 7.994s8-3.58 8-7.994V31.5h-16v8.42zM222 39.92c0 4.415 3.59 7.994 8 7.994s8-3.58 8-7.994V31.5h-16v8.42zM239 39.92c0 4.415 3.6 7.994 8.01 7.994 4.408 0 7.995-3.322 7.995-7.737l-8.44-8.677H239v8.42zM155 39.92c0 4.415 3.09 7.994 7.5 7.994s7.5-3.58 7.5-7.994V31.5h-15v8.42zM171 39.92c0 4.415 3.59 7.994 8 7.994s8-3.58 8-7.994V31.5h-16v8.42zM188 39.92c0 4.415 3.59 7.994 8 7.994s8-3.58 8-7.994V31.5h-16v8.42zM104 39.92c0 4.415 3.59 7.994 8 7.994s8-3.58 8-7.994V31.5h-16v8.42zM121 39.92c0 4.415 3.59 7.994 8 7.994s8-3.58 8-7.994V31.5h-16v8.42zM138 39.92c0 4.415 3.59 7.994 8 7.994s8-3.58 8-7.994V31.5h-16v8.42zM87 39.92c0 4.415 3.59 7.994 8 7.994s8-3.58 8-7.994V31.5H87v8.42zM69.982 40.177c0 4.415 3.6 7.865 8.01 7.865C82.4 48.042 86 44.335 86 39.92V31.5h-7.565l-8.453 8.677z"/><path fill="none" stroke="#d3edff" stroke-miterlimit="10" d="M71 40h183" stroke-linecap="round" stroke-dasharray="1 3"/><path fill="none" stroke="#d3edff" stroke-miterlimit="10" d="M78 31h169"/></g><g><path fill="none" stroke="#a7e3fa" stroke-miterlimit="10" d="M158.837 100.035l1.426-6.778c.172-.816 1.272-.964 1.652-.222l3.134 6.115"/><path fill="#5fcef5" d="M155.044 99.947l13.843-1.973.988 6.93-13.843 1.973z"/></g><path fill="none" stroke="#4eb7f5" stroke-miterlimit="10" d="M150 112h5" stroke-linecap="round" stroke-linejoin="round"/></svg>