<svg xmlns="http://www.w3.org/2000/svg" width="264" height="175" class="symbol-say-hello-to-online-store-page-clipart" xmlns:xlink="http://www.w3.org/1999/xlink" viewBox="0 0 264 175"><ellipse cx="135.774" cy="170.355" fill="#d3edff" rx="70" ry="4" opacity=".95"/><path fill="#5fcef5" d="M140.25 145.5h-9.974c-.52 0-.958.004-1.023.52-.434 3.474-2.283 16.39-6.803 21.47-.58.653-.08 2.01.794 2.01h24.037c.874 0 1.376-1.548.795-2.2-4.52-5.082-6.37-17.552-6.803-21.027-.063-.515-.502-.773-1.022-.773z"/><defs><path id="a" d="M220 145.678a4.822 4.822 0 0 1-4.822 4.822H55.822A4.822 4.822 0 0 1 51 145.678V26.322a4.822 4.822 0 0 1 4.822-4.822h159.355A4.822 4.822 0 0 1 220 26.322v119.356z"/></defs><use fill="#d3edff" xlink:href="#a" overflow="visible"/><clipPath id="b"><use xlink:href="#a" overflow="visible"/></clipPath><path fill="#5fcef5" d="M51 13.5h191v30H51z" clip-path="url(#b)"/><g fill="#FFF"><circle cx="62.137" cy="33.239" r="2.789"/><circle cx="72.769" cy="33.239" r="2.789"/><path d="M212 33a2.5 2.5 0 0 1-2.5 2.5h-127a2.5 2.5 0 0 1 0-5h127A2.5 2.5 0 0 1 212 33z"/></g><path fill="#a7e3fa" d="M250.374 59.203l4.98-1.52 1.52-4.98 1.52 4.98 4.98 1.52-4.98 1.52-1.52 4.98-1.52-4.98zM229.02 83.444l8.43-2.573 2.57-8.426 2.574 8.427 8.427 2.574-8.426 2.572-2.573 8.428-2.57-8.428zM33.02 11.444l8.43-2.573L44.02.445l2.574 8.427 8.427 2.574-8.426 2.572-2.573 8.428-2.57-8.428zM.02 41.444l11.493-3.51 3.508-11.49 3.51 11.49 11.49 3.51-11.49 3.508-3.51 11.492-3.507-11.492zM30.188 70.61l4.597-1.403 1.403-4.597 1.403 4.597 4.598 1.403-4.597 1.403-1.402 4.597-1.403-4.597z"/><g><linearGradient id="c" x1="143" x2="181" y1="73.997" y2="73.997" gradientUnits="userSpaceOnUse"><stop offset="0" stop-color="#FFF"/><stop offset="1" stop-color="#FFF"/></linearGradient><path fill="url(#c)" d="M181 88.5V59.963c0-.552-.448-.463-1-.463h-36c-.552 0-1-.09-1 .463V88.5"/><path fill="none" stroke="#4eb7f5" stroke-miterlimit="10" d="M140 89h44"/><path fill="none" stroke="#2b81cb" stroke-width="2" stroke-miterlimit="10" d="M154.693 73.99c-1.236-1.238-3.137-1.34-4.246-.232l-1.756 1.744"/><path fill="none" stroke="#2b81cb" stroke-miterlimit="10" d="M149.192 78.623c2.33 4.03 6.677 6.742 11.662 6.742 4.984 0 9.333-2.713 11.66-6.742"/><path fill="#2b81cb" d="M153 83v-7.854c0-1.796 1.89-2.646 3.656-2.646h5.6l2.4-6.806 4.783-3.455-.855 2.596L173 68.643v.016c0 .888-.253 1.84-1.128 1.84H169v11.962l-2.572 1.677-.972-5.64h-8.8l-1.368 5.588L153 83z"/><circle cx="168.629" cy="66.769" r=".64" fill="#FFF"/><path fill="#4eb7f5" d="M162.36 72.5c0 2-1.344 3-3 3-1.658 0-3-1-3-3h6z"/><g><linearGradient id="d" x1="89" x2="127" y1="73.997" y2="73.997" gradientUnits="userSpaceOnUse"><stop offset="0" stop-color="#FFF"/><stop offset="1" stop-color="#FFF"/></linearGradient><path fill="url(#d)" d="M127 88.5V59.963c0-.552-.448-.463-1-.463H90c-.552 0-1-.09-1 .463V88.5"/><path fill="none" stroke="#4eb7f5" stroke-miterlimit="10" d="M86 89h44"/><g><path fill="#2b81cb" d="M107.874 66.456c-1.723-1.75-3.647-1.948-4.73-.882s-.916 2.993.807 4.743c1.724 1.75 5.433 1.595 5.433 1.595s.214-3.706-1.51-5.456z"/><path fill="#2b81cb" d="M109.322 66.456c1.723-1.75 3.647-1.948 4.73-.882s.916 2.993-.807 4.743c-1.723 1.75-5.432 1.595-5.432 1.595s-.214-3.706 1.51-5.456z"/><path fill="#a7e3fa" d="M101 70.5h15v13h-15z"/><path fill="none" stroke="#2b81cb" stroke-miterlimit="10" d="M108.5 70.5v13"/></g></g><g><linearGradient id="e" x1="143" x2="181" y1="117.997" y2="117.997" gradientUnits="userSpaceOnUse"><stop offset="0" stop-color="#FFF"/><stop offset="1" stop-color="#FFF"/></linearGradient><path fill="url(#e)" d="M181 132.5v-28.537c0-.552-.448-.463-1-.463h-36c-.552 0-1-.09-1 .463V132.5"/><path fill="none" stroke="#4eb7f5" stroke-miterlimit="10" d="M140 133h44"/><g><defs><path id="f" d="M168.565 109.82s-2.26 3.44-5.94 8.002c-2.487 3.083-4.02 3.43-6 1.45l-.007.004-5.162 3.268a.89.89 0 0 0-.008 1.494c.53.344 7.705.72 7.705.72 4.73 0 5.114-6.877 8.81-6.877l.682 7.62h.66l1.505-8.46c.606-.925.883-2.255.696-3.434-.27-1.7-1.437-3.222-2.94-3.787z"/></defs><use fill="#5fcef5" xlink:href="#f" overflow="visible"/><clipPath id="g"><use xlink:href="#f" overflow="visible"/></clipPath><path fill="#2b81cb" d="M155.447 120.018c3.292 3.292 5.698 1.932 8.87-2.196 2.88-3.747 5.408-7.362 5.408-7.362l-.475-2.97-4.54.255-3.408 2.073-7.21 3.837 1.355 6.363z" clip-path="url(#g)"/></g></g><g><linearGradient id="h" x1="89" x2="127" y1="117.997" y2="117.997" gradientUnits="userSpaceOnUse"><stop offset="0" stop-color="#FFF"/><stop offset="1" stop-color="#FFF"/></linearGradient><path fill="url(#h)" d="M127 132.5v-28.537c0-.552-.448-.463-1-.463H90c-.552 0-1-.09-1 .463V132.5"/><path fill="none" stroke="#4eb7f5" stroke-miterlimit="10" d="M86 133h44"/><g><path fill="#4eb7f5" stroke="#FFF" stroke-miterlimit="10" d="M110.425 111.306c-.145-.97.14-2.87-3-3.54-.485 2.082-2.89 2.135-2.873 5.58 0 0 5.98-1.335 5.873-2.04z" stroke-linejoin="round"/><path fill="#4eb7f5" stroke="#FFF" stroke-miterlimit="10" d="M112.813 114.65c.168-1.08-.174-3.642-2.286-4.27-2.357 2.105-8.683 2.14-7.832 6.4 0 0 10.002-1.386 10.118-2.13z" stroke-linejoin="round"/><path fill="#4eb7f5" stroke="#FFF" stroke-miterlimit="10" d="M112.764 114.404c3.296 2.173 2.198 5.596 2.17 5.596h-13.77c-.656-5 8.39-3.867 11.6-5.596z" stroke-linejoin="round"/><path fill="#4eb7f5" stroke="#4eb7f5" stroke-miterlimit="10" d="M104.352 128h7.396c.363 0 .678-.278.76-.662l1.34-6.338h-11.594l1.34 6.338c.08.384.395.662.758.662z"/></g></g></g></svg>