<svg class="symbol-say-hello-to-online-store-page-clipart" version="1.1" xmlns="http://www.w3.org/2000/svg" xmlns:xlink="http://www.w3.org/1999/xlink" width="264px" height="175px" viewBox="0 0 264 175">
  <ellipse style="opacity:0.95;fill:#D3EDFF;" cx="135.774" cy="170.355" rx="70" ry="4"/>
  <path style="fill:#5FCEF5;" d="M140.25,145.5h-9.974c-0.519,0-0.958,0.004-1.023,0.519c-0.434,3.475-2.283,16.39-6.803,21.471
                                 c-0.581,0.653-0.079,2.009,0.794,2.009h24.037c0.873,0,1.375-1.547,0.794-2.2c-4.52-5.081-6.369-17.551-6.803-21.026
                                 C141.209,145.758,140.77,145.5,140.25,145.5z"/>
  <g>
    <g>
      <g>
        <defs>
          <path id="SVGID_79_" d="M220,145.678c0,2.663-2.159,4.822-4.822,4.822H55.822c-2.663,0-4.822-2.159-4.822-4.822V26.322
                                  c0-2.663,2.159-4.822,4.822-4.822h159.355c2.663,0,4.822,2.159,4.822,4.822V145.678z"/>
        </defs>
        <use xlink:href="#SVGID_79_"  style="overflow:visible;fill:#D3EDFF;"/>
        <clipPath id="SVGID_2_">
          <use xlink:href="#SVGID_79_"  style="overflow:visible;"/>
        </clipPath>
        <rect x="51" y="13.5" style="clip-path:url(#SVGID_2_);fill:#5FCEF5;" width="191" height="30"/>
      </g>
      <g>
        <circle style="fill:#FFFFFF;" cx="62.137" cy="33.239" r="2.789"/>
        <circle style="fill:#FFFFFF;" cx="72.769" cy="33.239" r="2.789"/>
        <path style="fill:#FFFFFF;" d="M212,33c0,1.381-1.119,2.5-2.5,2.5h-127c-1.381,0-2.5-1.119-2.5-2.5l0,0
                                       c0-1.381,1.119-2.5,2.5-2.5h127C210.881,30.5,212,31.619,212,33L212,33z"/>
      </g>
    </g>
  </g>
  <polygon style="fill:#A7E3FA;" points="250.374,59.203 255.354,57.683 256.874,52.703 258.394,57.683 263.374,59.203 
                                         258.394,60.724 256.874,65.703 255.354,60.724 "/>
  <polygon style="fill:#A7E3FA;" points="229.021,83.444 237.449,80.871 240.021,72.444 242.594,80.871 251.021,83.444 
                                         242.594,86.016 240.021,94.444 237.449,86.016 "/>
  <polygon style="fill:#A7E3FA;" points="33.021,11.444 41.449,8.871 44.021,0.444 46.594,8.871 55.021,11.444 46.594,14.016 
                                         44.021,22.444 41.449,14.016 "/>
  <polygon style="fill:#A7E3FA;" points="0.021,41.444 11.513,37.935 15.021,26.444 18.529,37.935 30.021,41.444 18.529,44.952 
                                         15.021,56.444 11.513,44.952 "/>
  <polygon style="fill:#A7E3FA;" points="30.188,70.61 34.785,69.207 36.188,64.61 37.591,69.207 42.188,70.61 37.591,72.013 
                                         36.188,76.61 34.785,72.013 "/>
  <g>
    <g>
      <g>
        <linearGradient id="SVGID_3_" gradientUnits="userSpaceOnUse" x1="143" y1="73.9973" x2="181" y2="73.9973">
          <stop  offset="0" style="stop-color:#FFFFFF"/>
          <stop  offset="1" style="stop-color:#FFFFFF"/>
        </linearGradient>
        <path style="fill:url(#SVGID_3_);" d="M181,88.5V59.963c0-0.552-0.448-0.463-1-0.463h-36c-0.552,0-1-0.09-1,0.463V88.5"/>
        <line style="fill:none;stroke:#4EB7F5;stroke-miterlimit:10;" x1="140" y1="89" x2="184" y2="89"/>
      </g>
      <g>
        <path style="fill:none;stroke:#2B81CB;stroke-width:2;stroke-miterlimit:10;" d="M154.693,73.99
                                                                                       c-1.236-1.238-3.137-1.341-4.246-0.232l-1.756,1.744"/>
        <path style="fill:none;stroke:#2B81CB;stroke-miterlimit:10;" d="M149.192,78.623c2.329,4.029,6.677,6.742,11.662,6.742
                                                                        c4.984,0,9.333-2.713,11.661-6.742"/>
        <path style="fill:#2B81CB;" d="M153,83v-7.854c0-1.796,1.889-2.646,3.656-2.646h5.6l2.4-6.806l4.783-3.455l-0.854,2.597
                                       L173,68.643v0.016c0,0.889-0.253,1.841-1.128,1.841H169v11.962l-2.572,1.677l-0.972-5.639h-8.8l-1.368,5.588L153,83z"/>
        <circle style="fill:#FFFFFF;" cx="168.629" cy="66.769" r="0.64"/>
        <path style="fill:#4EB7F5;" d="M162.359,72.5c0,2-1.343,3-3,3c-1.657,0-3-1-3-3H162.359z"/>
      </g>
    </g>
    <g>
      <g>
        <linearGradient id="SVGID_5_" gradientUnits="userSpaceOnUse" x1="89" y1="73.9973" x2="127" y2="73.9973">
          <stop  offset="0" style="stop-color:#FFFFFF"/>
          <stop  offset="1" style="stop-color:#FFFFFF"/>
        </linearGradient>
        <path style="fill:url(#SVGID_5_);" d="M127,88.5V59.963c0-0.552-0.448-0.463-1-0.463H90c-0.552,0-1-0.09-1,0.463V88.5"/>
        <line style="fill:none;stroke:#4EB7F5;stroke-miterlimit:10;" x1="86" y1="89" x2="130" y2="89"/>
      </g>
      <g>
        <g>
          <g>
            <path style="fill:#2B81CB;" d="M107.874,66.456c-1.723-1.75-3.647-1.948-4.73-0.882s-0.916,2.993,0.807,4.743
                                           c1.723,1.75,5.432,1.595,5.432,1.595S109.597,68.206,107.874,66.456z"/>
          </g>
          <g>
            <path style="fill:#2B81CB;" d="M109.322,66.456c1.723-1.75,3.647-1.948,4.73-0.882s0.916,2.993-0.807,4.743
                                           c-1.723,1.75-5.432,1.595-5.432,1.595S107.599,68.206,109.322,66.456z"/>
          </g>
        </g>
        <rect x="101" y="70.5" style="fill:#A7E3FA;" width="15" height="13"/>
        <line style="fill:none;stroke:#2B81CB;stroke-miterlimit:10;" x1="108.5" y1="70.5" x2="108.5" y2="83.5"/>
      </g>
    </g>
    <g>
      <g>
        <linearGradient id="SVGID_7_" gradientUnits="userSpaceOnUse" x1="143" y1="117.9973" x2="181" y2="117.9973">
          <stop  offset="0" style="stop-color:#FFFFFF"/>
          <stop  offset="1" style="stop-color:#FFFFFF"/>
        </linearGradient>
        <path style="fill:url(#SVGID_7_);" d="M181,132.5v-28.537c0-0.552-0.448-0.463-1-0.463h-36c-0.552,0-1-0.09-1,0.463V132.5"/>
        <line style="fill:none;stroke:#4EB7F5;stroke-miterlimit:10;" x1="140" y1="133" x2="184" y2="133"/>
      </g>
      <g>
        <defs>
          <path id="SVGID_90_" d="M168.565,109.819c0,0-2.26,3.44-5.94,8.003c-2.487,3.083-4.02,3.431-6.001,1.45l-0.006,0.004
                                  l-5.162,3.268c-0.545,0.347-0.549,1.142-0.008,1.494c0.529,0.344,7.705,0.72,7.705,0.72c4.73,0,5.114-6.877,8.811-6.877
                                  l0.681,7.618h0.66l1.505-8.458c0.606-0.926,0.883-2.256,0.696-3.435C171.236,111.905,170.069,110.384,168.565,109.819z"/>
        </defs>
        <use xlink:href="#SVGID_90_"  style="overflow:visible;fill:#5FCEF5;"/>
        <clipPath id="SVGID_9_">
          <use xlink:href="#SVGID_90_"  style="overflow:visible;"/>
        </clipPath>
        <path style="clip-path:url(#SVGID_9_);fill:#2B81CB;" d="M155.447,120.018c3.292,3.292,5.698,1.932,8.87-2.196
                                                                c2.879-3.747,5.408-7.362,5.408-7.362l-0.475-2.971l-4.539,0.256l-3.409,2.073l-7.21,3.837L155.447,120.018z"/>
      </g>
    </g>
    <g>
      <g>
        <linearGradient id="SVGID_11_" gradientUnits="userSpaceOnUse" x1="89" y1="117.9973" x2="127" y2="117.9973">
          <stop  offset="0" style="stop-color:#FFFFFF"/>
          <stop  offset="1" style="stop-color:#FFFFFF"/>
        </linearGradient>
        <path style="fill:url(#SVGID_11_);" d="M127,132.5v-28.537c0-0.552-0.448-0.463-1-0.463H90c-0.552,0-1-0.09-1,0.463V132.5"/>
        <line style="fill:none;stroke:#4EB7F5;stroke-miterlimit:10;" x1="86" y1="133" x2="130" y2="133"/>
      </g>
      <g>
        <path style="fill:#4EB7F5;stroke:#FFFFFF;stroke-linejoin:round;stroke-miterlimit:10;" d="M110.425,111.306
                                                                                                 c-0.145-0.969,0.139-2.869-2.999-3.54c-0.486,2.082-2.89,2.135-2.874,5.581C104.553,113.347,110.531,112.011,110.425,111.306z"/>
        <path style="fill:#4EB7F5;stroke:#FFFFFF;stroke-linejoin:round;stroke-miterlimit:10;" d="M112.813,114.649
                                                                                                 c0.168-1.08-0.174-3.641-2.286-4.27c-2.357,2.106-8.683,2.14-7.832,6.401C102.695,116.78,112.697,115.394,112.813,114.649z"/>
        <path style="fill:#4EB7F5;stroke:#FFFFFF;stroke-linejoin:round;stroke-miterlimit:10;" d="M112.764,114.404
                                                                                                 c3.296,2.173,2.198,5.596,2.169,5.596h-13.768C100.508,115,109.553,116.133,112.764,114.404z"/>
        <g>
          <path style="fill:#4EB7F5;stroke:#4EB7F5;stroke-miterlimit:10;" d="M104.352,128h7.396c0.363,0,0.678-0.278,0.759-0.662
                                                                             l1.34-6.338h-11.593l1.34,6.338C103.674,127.722,103.989,128,104.352,128z"/>
        </g>
      </g>
    </g>
  </g>
</svg>
