<svg xmlns="http://www.w3.org/2000/svg" width="335" height="200" class="symbol-say-hello-to-blog-page-clipart" xmlns:xlink="http://www.w3.org/1999/xlink" viewBox="0 0 335 200"><ellipse cx="166.774" cy="195.355" fill="#d3edff" rx="70" ry="4" opacity=".95"/><path fill="none" stroke="#4eb7f5" stroke-miterlimit="10" d="M221.202 51.454l-.004 113.623c0 12.346-10.004 22.315-22.35 22.315s-22.38-10.044-22.38-22.39l-.376-140.348c0-12.346-10.2-22.354-22.547-22.354C141.2 2.3 131 12.308 131 24.654V44M.75 89.644c6.442 0 11.25 5.394 11.25 11.836v4.827c0 6.442 5.558 11.664 12 11.664s12-5.22 12-11.663V70.48c0-6.442 5.058-11.664 11.5-11.664S59 64.038 59 70.48v48.407c0 12.927 10.62 23.407 23.547 23.407M333.71 123.465c-6.44 0-11.71-5.394-11.71-11.836V106.8c0-6.442-5.558-11.664-12-11.664s-12 5.222-12 11.664v19.827c0 6.44-5.058 11.663-11.5 11.663S275 133.07 275 126.63V99.222c0-12.927-10.39-23.407-23.316-23.407" stroke-linecap="round" stroke-linejoin="round" stroke-dasharray="1 3"/><defs><path id="a" d="M251.5 159.178a4.822 4.822 0 0 1-4.822 4.822H87.322a4.822 4.822 0 0 1-4.822-4.822V39.822A4.822 4.822 0 0 1 87.322 35h159.355a4.822 4.822 0 0 1 4.822 4.822v119.356z"/></defs><use fill="#d3edff" xlink:href="#a" overflow="visible"/><clipPath id="b"><use xlink:href="#a" overflow="visible"/></clipPath><path fill="#5fcef5" d="M82.5 27h191v30h-191z" clip-path="url(#b)"/><circle cx="93.137" cy="46.239" r="2.789" fill="#FFF"/><circle cx="103.769" cy="46.239" r="2.789" fill="#FFF"/><path fill="#FFF" d="M243.5 46.5A2.5 2.5 0 0 1 241 49H114a2.5 2.5 0 0 1 0-5h127a2.5 2.5 0 0 1 2.5 2.5z"/><path fill="#d9eeff" d="M137.82 163.51l-10.81 11.51-12.03-11.51"/><g><defs><circle id="c" cx="128.807" cy="130.51" r="16.461"/></defs><use fill="#5fcef5" xlink:href="#c" overflow="visible"/><clipPath id="d"><use xlink:href="#c" overflow="visible"/></clipPath><g clip-path="url(#d)"><linearGradient id="e" x1="137.192" x2="137.192" y1="140.906" y2="140.906" gradientUnits="userSpaceOnUse"><stop offset="0" stop-color="#FFF"/><stop offset="1" stop-color="#FFF"/></linearGradient><linearGradient id="f" x1="137.192" x2="137.192" y1="140.906" y2="140.906" gradientUnits="userSpaceOnUse"><stop offset="0" stop-color="#FFF"/><stop offset="1" stop-color="#FFF"/></linearGradient><linearGradient id="g" x1="131.315" x2="136" y1="136.069" y2="136.069" gradientUnits="userSpaceOnUse"><stop offset="0" stop-color="#FFF"/><stop offset="1" stop-color="#FFF"/></linearGradient><linearGradient id="h" x1="130.815" x2="136.5" y1="136.069" y2="136.069" gradientUnits="userSpaceOnUse"><stop offset="0" stop-color="#FFF"/><stop offset="1" stop-color="#FFF"/></linearGradient><path fill="url(#g)" stroke="url(#h)" stroke-miterlimit="10" d="M136 150v-27.86c-6 0-4.525 3.36-4.525 18.36h4.025" stroke-linecap="round" stroke-linejoin="round"/><linearGradient id="i" x1="123" x2="123" y1="142.5" y2="142.5" gradientUnits="userSpaceOnUse"><stop offset="0" stop-color="#FFF"/><stop offset="1" stop-color="#FFF"/></linearGradient><linearGradient id="j" x1="122.5" x2="123.5" y1="142.5" y2="142.5" gradientUnits="userSpaceOnUse"><stop offset="0" stop-color="#FFF"/><stop offset="1" stop-color="#FFF"/></linearGradient><path fill="url(#i)" stroke="url(#j)" stroke-miterlimit="10" d="M123 137v11" stroke-linecap="round" stroke-linejoin="round"/><linearGradient id="k" x1="120" x2="120" y1="128.5" y2="128.5" gradientUnits="userSpaceOnUse"><stop offset="0" stop-color="#FFF"/><stop offset="1" stop-color="#FFF"/></linearGradient><linearGradient id="l" x1="119.5" x2="120.5" y1="128.5" y2="128.5" gradientUnits="userSpaceOnUse"><stop offset="0" stop-color="#FFF"/><stop offset="1" stop-color="#FFF"/></linearGradient><path fill="url(#k)" stroke="url(#l)" stroke-miterlimit="10" d="M120 123v11" stroke-linecap="round" stroke-linejoin="round"/><linearGradient id="m" x1="122" x2="122" y1="128.5" y2="128.5" gradientUnits="userSpaceOnUse"><stop offset="0" stop-color="#FFF"/><stop offset="1" stop-color="#FFF"/></linearGradient><linearGradient id="n" x1="121.5" x2="122.5" y1="128.5" y2="128.5" gradientUnits="userSpaceOnUse"><stop offset="0" stop-color="#FFF"/><stop offset="1" stop-color="#FFF"/></linearGradient><path fill="url(#m)" stroke="url(#n)" stroke-miterlimit="10" d="M122 123v11" stroke-linecap="round" stroke-linejoin="round"/><linearGradient id="o" x1="124" x2="124" y1="128.5" y2="128.5" gradientUnits="userSpaceOnUse"><stop offset="0" stop-color="#FFF"/><stop offset="1" stop-color="#FFF"/></linearGradient><linearGradient id="p" x1="123.5" x2="124.5" y1="128.5" y2="128.5" gradientUnits="userSpaceOnUse"><stop offset="0" stop-color="#FFF"/><stop offset="1" stop-color="#FFF"/></linearGradient><path fill="url(#o)" stroke="url(#p)" stroke-miterlimit="10" d="M124 123v11" stroke-linecap="round" stroke-linejoin="round"/><linearGradient id="q" x1="126" x2="126" y1="128.5" y2="128.5" gradientUnits="userSpaceOnUse"><stop offset="0" stop-color="#FFF"/><stop offset="1" stop-color="#FFF"/></linearGradient><linearGradient id="r" x1="125.5" x2="126.5" y1="128.5" y2="128.5" gradientUnits="userSpaceOnUse"><stop offset="0" stop-color="#FFF"/><stop offset="1" stop-color="#FFF"/></linearGradient><path fill="url(#q)" stroke="url(#r)" stroke-miterlimit="10" d="M126 123v11" stroke-linecap="round" stroke-linejoin="round"/><linearGradient id="s" x1="120" x2="126" y1="137" y2="137" gradientUnits="userSpaceOnUse"><stop offset="0" stop-color="#FFF"/><stop offset="1" stop-color="#FFF"/></linearGradient><linearGradient id="t" x1="119.5" x2="126.5" y1="137" y2="137" gradientUnits="userSpaceOnUse"><stop offset="0" stop-color="#FFF"/><stop offset="1" stop-color="#FFF"/></linearGradient><path fill="url(#s)" stroke="url(#t)" stroke-miterlimit="10" d="M126 133.5h-6v4.004c0 1 .5 2.996 3 2.996s3-1.997 3-2.996V133.5z" stroke-linecap="round" stroke-linejoin="round"/></g></g><g><path fill="none" stroke="#4eb7f5" stroke-miterlimit="10" d="M155.5 82.5h66M155.5 75.5h66M155.5 89.5h66M155.5 96.5h50"/></g><g><path fill="none" stroke="#4eb7f5" stroke-miterlimit="10" d="M155.5 126.5h66M155.5 119.5h66M155.5 133.5h66M155.5 140.5h50"/></g><g><defs><ellipse id="u" cx="129.096" cy="85.258" rx="17.306" ry="17.258"/></defs><use fill="#2b81cb" xlink:href="#u" overflow="visible"/><clipPath id="v"><use xlink:href="#u" overflow="visible"/></clipPath><g clip-path="url(#v)"><defs><path id="w" d="M132.677 88.536a7.254 7.254 0 0 0 2.342-2.148l1.953 1.478a.38.38 0 0 0 .653-.045l1-3.086a.38.38 0 0 0-.354-.548s-2.24.065-2.168-.235a7.075 7.075 0 0 0 .192-1.637c0-3.973-3.23-7.194-7.214-7.194-3.984 0-7.214 3.22-7.214 7.193 0 .564.067 1.112.192 1.638.07.3-2.14.236-2.14.236a.38.38 0 0 0-.355.548l1 3.087a.38.38 0 0 0 .653.046l1.94-1.46a7.257 7.257 0 0 0 2.33 2.13v-.008c.246.142.5.27.765.383l-.022.664c-5.166 1.797-9 8.426-9 16.426h23.732c0-8-3.834-14.63-9.002-16.425l-.022-.503c.256-.11.504-.313.743-.45l-.003-.086z"/></defs><use fill="#FFF" xlink:href="#w" overflow="visible"/><clipPath id="x"><use xlink:href="#w" overflow="visible"/></clipPath><ellipse cx="137.885" cy="86.205" fill="#5fcef5" rx="3.509" ry="3.499" clip-path="url(#x)"/><ellipse cx="121.195" cy="86.205" fill="#5fcef5" rx="3.509" ry="3.499" clip-path="url(#x)"/><ellipse cx="129.083" cy="82.318" fill="#FFF" rx="7.214" ry="7.198" clip-path="url(#x)"/><ellipse cx="139.183" cy="73.075" fill="#5fcef5" rx="11.445" ry="11.413" clip-path="url(#x)"/><ellipse cx="119.139" cy="74.566" fill="#5fcef5" rx="9.957" ry="9.929" clip-path="url(#x)"/></g><path fill="none" stroke="#5fcef5" stroke-miterlimit="10" d="M126.96 86.197a2.648 2.648 0 0 0 2.154 1.11c.89 0 1.672-.44 2.154-1.11" stroke-linecap="round"/></g></svg>