
<svg class="symbol-say-hello-to-blog-page-clipart" version="1.1" xmlns="http://www.w3.org/2000/svg" xmlns:xlink="http://www.w3.org/1999/xlink" width="335px" height="200px" viewBox="0 0 335 200">
  <ellipse style="opacity:0.95;fill:#D3EDFF;" cx="166.774" cy="195.355" rx="70" ry="4"/>
  <path style="fill:none;stroke:#4EB7F5;stroke-linecap:round;stroke-linejoin:round;stroke-miterlimit:10;stroke-dasharray:1,3;" d="
                                                                                                                                  M221.202,51.454l-0.004,113.623c0,12.346-10.004,22.315-22.349,22.315s-22.381-10.044-22.381-22.39l-0.376-140.348
                                                                                                                                  c0-12.346-10.201-22.354-22.547-22.354C141.201,2.301,131,12.308,131,24.654V44"/>
  <path style="fill:none;stroke:#4EB7F5;stroke-linecap:round;stroke-linejoin:round;stroke-miterlimit:10;stroke-dasharray:1,3;" d="
                                                                                                                                  M0.75,89.644c6.442,0,11.25,5.394,11.25,11.836v4.827c0,6.442,5.558,11.664,12,11.664s12-5.222,12-11.664V70.48
                                                                                                                                  c0-6.442,5.058-11.664,11.5-11.664S59,64.038,59,70.48v48.407c0,12.927,10.62,23.407,23.547,23.407"/>
  <path style="fill:none;stroke:#4EB7F5;stroke-linecap:round;stroke-linejoin:round;stroke-miterlimit:10;stroke-dasharray:1,3;" d="
                                                                                                                                  M333.711,123.465c-6.442,0-11.711-5.394-11.711-11.836v-4.827c0-6.442-5.558-11.664-12-11.664s-12,5.222-12,11.664v19.827
                                                                                                                                  c0,6.442-5.058,11.664-11.5,11.664s-11.5-5.222-11.5-11.664V99.223c0-12.927-10.389-23.407-23.316-23.407"/>
  <g>
    <g>
      <g>
        <defs>
          <path id="SVGID_45_" d="M251.5,159.178c0,2.663-2.159,4.822-4.822,4.822H87.322c-2.663,0-4.822-2.159-4.822-4.822V39.822
                                  c0-2.663,2.159-4.822,4.822-4.822h159.355c2.663,0,4.822,2.159,4.822,4.822V159.178z"/>
        </defs>
        <use xlink:href="#SVGID_45_"  style="overflow:visible;fill:#D3EDFF;"/>
        <clipPath id="SVGID_2_">
          <use xlink:href="#SVGID_45_"  style="overflow:visible;"/>
        </clipPath>
        <rect x="82.5" y="27" style="clip-path:url(#SVGID_2_);fill:#5FCEF5;" width="191" height="30"/>
      </g>
      <circle style="fill:#FFFFFF;" cx="93.137" cy="46.239" r="2.789"/>
      <circle style="fill:#FFFFFF;" cx="103.769" cy="46.239" r="2.789"/>
      <path style="fill:#FFFFFF;" d="M243.5,46.5c0,1.381-1.119,2.5-2.5,2.5H114c-1.381,0-2.5-1.119-2.5-2.5l0,0
                                     c0-1.381,1.119-2.5,2.5-2.5h127C242.381,44,243.5,45.119,243.5,46.5L243.5,46.5z"/>
    </g>
    <polyline style="fill:#D9EEFF;" points="137.82,163.51 127.01,175.02 114.98,163.51 	"/>
  </g>
  <g>
    <defs>
      <circle id="SVGID_47_" cx="128.807" cy="130.51" r="16.461"/>
    </defs>
    <use xlink:href="#SVGID_47_"  style="overflow:visible;fill:#5FCEF5;"/>
    <clipPath id="SVGID_3_">
      <use xlink:href="#SVGID_47_"  style="overflow:visible;"/>
    </clipPath>
    <g style="clip-path:url(#SVGID_3_);">
      <g>
        <linearGradient id="SVGID_5_" gradientUnits="userSpaceOnUse" x1="137.1921" y1="140.9057" x2="137.1921" y2="140.9057">
          <stop  offset="0" style="stop-color:#FFFFFF"/>
          <stop  offset="1" style="stop-color:#FFFFFF"/>
        </linearGradient>
        <path style="fill:#FFFFFF;stroke:url(#SVGID_5_);stroke-linecap:round;stroke-linejoin:round;stroke-miterlimit:10;" d="
                                                                                                                             M137.192,140.906"/>
      </g>
      <g>
        <linearGradient id="SVGID_7_" gradientUnits="userSpaceOnUse" x1="137.1921" y1="140.9057" x2="137.1921" y2="140.9057">
          <stop  offset="0" style="stop-color:#FFFFFF"/>
          <stop  offset="1" style="stop-color:#FFFFFF"/>
        </linearGradient>
        <path style="fill:#FFFFFF;stroke:url(#SVGID_7_);stroke-linecap:round;stroke-linejoin:round;stroke-miterlimit:10;" d="
                                                                                                                             M137.192,140.906"/>
        <linearGradient id="SVGID_9_" gradientUnits="userSpaceOnUse" x1="131.3146" y1="136.0693" x2="136" y2="136.0693">
          <stop  offset="0" style="stop-color:#FFFFFF"/>
          <stop  offset="1" style="stop-color:#FFFFFF"/>
        </linearGradient>
        <linearGradient id="SVGID_11_" gradientUnits="userSpaceOnUse" x1="130.8146" y1="136.0693" x2="136.5" y2="136.0693">
          <stop  offset="0" style="stop-color:#FFFFFF"/>
          <stop  offset="1" style="stop-color:#FFFFFF"/>
        </linearGradient>
        <path style="fill:url(#SVGID_9_);stroke:url(#SVGID_11_);stroke-linecap:round;stroke-linejoin:round;stroke-miterlimit:10;" d="
                                                                                                                                     M136,150v-27.861c-6,0-4.525,3.361-4.525,18.361h4.025"/>
      </g>
      <linearGradient id="SVGID_13_" gradientUnits="userSpaceOnUse" x1="123" y1="142.5" x2="123" y2="142.5">
        <stop  offset="0" style="stop-color:#FFFFFF"/>
        <stop  offset="1" style="stop-color:#FFFFFF"/>
      </linearGradient>
      <linearGradient id="SVGID_15_" gradientUnits="userSpaceOnUse" x1="122.5" y1="142.5" x2="123.5" y2="142.5">
        <stop  offset="0" style="stop-color:#FFFFFF"/>
        <stop  offset="1" style="stop-color:#FFFFFF"/>
      </linearGradient>

      <line style="fill:url(#SVGID_13_);stroke:url(#SVGID_15_);stroke-linecap:round;stroke-linejoin:round;stroke-miterlimit:10;" x1="123" y1="137" x2="123" y2="148"/>
      <g>
        <linearGradient id="SVGID_17_" gradientUnits="userSpaceOnUse" x1="120" y1="128.5" x2="120" y2="128.5">
          <stop  offset="0" style="stop-color:#FFFFFF"/>
          <stop  offset="1" style="stop-color:#FFFFFF"/>
        </linearGradient>
        <linearGradient id="SVGID_19_" gradientUnits="userSpaceOnUse" x1="119.5" y1="128.5" x2="120.5" y2="128.5">
          <stop  offset="0" style="stop-color:#FFFFFF"/>
          <stop  offset="1" style="stop-color:#FFFFFF"/>
        </linearGradient>

        <line style="fill:url(#SVGID_17_);stroke:url(#SVGID_19_);stroke-linecap:round;stroke-linejoin:round;stroke-miterlimit:10;" x1="120" y1="123" x2="120" y2="134"/>
        <linearGradient id="SVGID_20_" gradientUnits="userSpaceOnUse" x1="122" y1="128.5" x2="122" y2="128.5">
          <stop  offset="0" style="stop-color:#FFFFFF"/>
          <stop  offset="1" style="stop-color:#FFFFFF"/>
        </linearGradient>
        <linearGradient id="SVGID_22_" gradientUnits="userSpaceOnUse" x1="121.5" y1="128.5" x2="122.5" y2="128.5">
          <stop  offset="0" style="stop-color:#FFFFFF"/>
          <stop  offset="1" style="stop-color:#FFFFFF"/>
        </linearGradient>

        <line style="fill:url(#SVGID_20_);stroke:url(#SVGID_22_);stroke-linecap:round;stroke-linejoin:round;stroke-miterlimit:10;" x1="122" y1="123" x2="122" y2="134"/>
        <linearGradient id="SVGID_23_" gradientUnits="userSpaceOnUse" x1="124" y1="128.5" x2="124" y2="128.5">
          <stop  offset="0" style="stop-color:#FFFFFF"/>
          <stop  offset="1" style="stop-color:#FFFFFF"/>
        </linearGradient>
        <linearGradient id="SVGID_24_" gradientUnits="userSpaceOnUse" x1="123.5" y1="128.5" x2="124.5" y2="128.5">
          <stop  offset="0" style="stop-color:#FFFFFF"/>
          <stop  offset="1" style="stop-color:#FFFFFF"/>
        </linearGradient>

        <line style="fill:url(#SVGID_23_);stroke:url(#SVGID_24_);stroke-linecap:round;stroke-linejoin:round;stroke-miterlimit:10;" x1="124" y1="123" x2="124" y2="134"/>
        <linearGradient id="SVGID_25_" gradientUnits="userSpaceOnUse" x1="126" y1="128.5" x2="126" y2="128.5">
          <stop  offset="0" style="stop-color:#FFFFFF"/>
          <stop  offset="1" style="stop-color:#FFFFFF"/>
        </linearGradient>
        <linearGradient id="SVGID_26_" gradientUnits="userSpaceOnUse" x1="125.5" y1="128.5" x2="126.5" y2="128.5">
          <stop  offset="0" style="stop-color:#FFFFFF"/>
          <stop  offset="1" style="stop-color:#FFFFFF"/>
        </linearGradient>

        <line style="fill:url(#SVGID_25_);stroke:url(#SVGID_26_);stroke-linecap:round;stroke-linejoin:round;stroke-miterlimit:10;" x1="126" y1="123" x2="126" y2="134"/>
      </g>
      <linearGradient id="SVGID_27_" gradientUnits="userSpaceOnUse" x1="120" y1="137.0002" x2="126" y2="137.0002">
        <stop  offset="0" style="stop-color:#FFFFFF"/>
        <stop  offset="1" style="stop-color:#FFFFFF"/>
      </linearGradient>
      <linearGradient id="SVGID_28_" gradientUnits="userSpaceOnUse" x1="119.5" y1="137.0002" x2="126.5" y2="137.0002">
        <stop  offset="0" style="stop-color:#FFFFFF"/>
        <stop  offset="1" style="stop-color:#FFFFFF"/>
      </linearGradient>
      <path style="fill:url(#SVGID_27_);stroke:url(#SVGID_28_);stroke-linecap:round;stroke-linejoin:round;stroke-miterlimit:10;" d="
                                                                                                                                    M126,133.5h-6v4.004c0,0.999,0.5,2.996,3,2.996s3-1.997,3-2.996V133.5z"/>
    </g>
  </g>
  <g>
    <g>
      <line style="fill:none;stroke:#4EB7F5;stroke-miterlimit:10;" x1="155.5" y1="82.5" x2="221.5" y2="82.5"/>
    </g>
    <g>
      <line style="fill:none;stroke:#4EB7F5;stroke-miterlimit:10;" x1="155.5" y1="75.5" x2="221.5" y2="75.5"/>
    </g>
    <line style="fill:none;stroke:#4EB7F5;stroke-miterlimit:10;" x1="155.5" y1="89.5" x2="221.5" y2="89.5"/>
    <g>
      <line style="fill:none;stroke:#4EB7F5;stroke-miterlimit:10;" x1="155.5" y1="96.5" x2="205.5" y2="96.5"/>
    </g>
  </g>
  <g>
    <g>
      <line style="fill:none;stroke:#4EB7F5;stroke-miterlimit:10;" x1="155.5" y1="126.5" x2="221.5" y2="126.5"/>
    </g>
    <g>
      <line style="fill:none;stroke:#4EB7F5;stroke-miterlimit:10;" x1="155.5" y1="119.5" x2="221.5" y2="119.5"/>
    </g>
    <line style="fill:none;stroke:#4EB7F5;stroke-miterlimit:10;" x1="155.5" y1="133.5" x2="221.5" y2="133.5"/>
    <g>
      <line style="fill:none;stroke:#4EB7F5;stroke-miterlimit:10;" x1="155.5" y1="140.5" x2="205.5" y2="140.5"/>
    </g>
  </g>
  <g>
    <g>
      <defs>
        <ellipse id="SVGID_75_" cx="129.096" cy="85.258" rx="17.306" ry="17.258"/>
      </defs>
      <use xlink:href="#SVGID_75_"  style="overflow:visible;fill:#2B81CB;"/>
      <clipPath id="SVGID_29_">
        <use xlink:href="#SVGID_75_"  style="overflow:visible;"/>
      </clipPath>
      <g style="clip-path:url(#SVGID_29_);">
        <defs>
          <path id="SVGID_77_" d="M132.677,88.536c0.931-0.536,1.732-1.269,2.342-2.148l1.954,1.478c0.164,0.238,0.524,0.213,0.653-0.045
                                  l1-3.087c0.129-0.257-0.065-0.559-0.354-0.548c0,0-2.239,0.065-2.168-0.235c0.125-0.526,0.192-1.074,0.192-1.638
                                  c0-3.973-3.23-7.194-7.214-7.194c-3.984,0-7.214,3.221-7.214,7.194c0,0.564,0.067,1.112,0.192,1.638
                                  c0.071,0.3-2.141,0.235-2.141,0.235c-0.289-0.011-0.483,0.291-0.354,0.548l1,3.087c0.13,0.258,0.489,0.283,0.653,0.045
                                  l1.94-1.459c0.608,0.87,1.405,1.596,2.329,2.128l0.001-0.007c0.246,0.142,0.501,0.27,0.765,0.383l-0.022,0.663
                                  C121.064,91.371,117.23,98,117.23,106h23.732c0-8-3.834-14.629-9.002-16.425l-0.022-0.503c0.256-0.11,0.504-0.313,0.743-0.45
                                  L132.677,88.536z"/>
        </defs>
        <use xlink:href="#SVGID_77_"  style="overflow:visible;fill:#FFFFFF;"/>
        <clipPath id="SVGID_30_">
          <use xlink:href="#SVGID_77_"  style="overflow:visible;"/>
        </clipPath>
        <ellipse style="clip-path:url(#SVGID_30_);fill:#5FCEF5;" cx="137.885" cy="86.205" rx="3.509" ry="3.499"/>
        <ellipse style="clip-path:url(#SVGID_30_);fill:#5FCEF5;" cx="121.195" cy="86.205" rx="3.509" ry="3.499"/>
        <ellipse style="clip-path:url(#SVGID_30_);fill:#FFFFFF;" cx="129.083" cy="82.318" rx="7.214" ry="7.198"/>
        <ellipse style="clip-path:url(#SVGID_30_);fill:#5FCEF5;" cx="139.183" cy="73.075" rx="11.445" ry="11.413"/>
        <ellipse style="clip-path:url(#SVGID_30_);fill:#5FCEF5;" cx="119.139" cy="74.566" rx="9.957" ry="9.929"/>
      </g>
    </g>
    <path style="fill:none;stroke:#5FCEF5;stroke-linecap:round;stroke-miterlimit:10;" d="M126.96,86.197
                                                                                         c0.482,0.67,1.264,1.111,2.154,1.111c0.89,0,1.672-0.441,2.154-1.111"/>
  </g>
</svg>
