<?xml version="1.0" encoding="utf-8"?>
<svg xmlns="http://www.w3.org/2000/svg"
	xmlns:xlink="http://www.w3.org/1999/xlink"
	width="12px" height="14px" viewBox="0 0 12 14">
<path fill-rule="evenodd" d="M 10 13.5C 10 13.5 10-0.5 10-0.5 10-0.5 12-0.5 12-0.5 12-0.5 12 13.5 12 13.5 12 13.5 10 13.5 10 13.5ZM 7 5.5C 7 5.5 5.7 5.5 5.7 5.5 3.88 5.5 2.4 4.32 2.4 2.5 2.4 0.68 3.88-0.5 5.7-0.5 5.7-0.5 7-0.5 7-0.5 7-0.5 8-0.5 8-0.5 8-0.5 9-0.5 9-0.5 9-0.5 9 13.5 9 13.5 9 13.5 7 13.5 7 13.5 7 13.5 7 5.5 7 5.5ZM 1.61 13.29C 1.43 13.43 1.21 13.5 1 13.5 0.7 13.5 0.4 13.36 0.21 13.11-0.13 12.67-0.05 12.04 0.39 11.71 0.39 11.71 1.97 10.5 1.97 10.5 1.97 10.5 0.39 9.29 0.39 9.29-0.05 8.96-0.13 8.33 0.21 7.89 0.54 7.46 1.17 7.37 1.61 7.71 1.61 7.71 5.27 10.5 5.27 10.5 5.27 10.5 1.61 13.29 1.61 13.29Z"/>
</svg>
