<?xml version="1.0" encoding="utf-8"?>
<svg xmlns="http://www.w3.org/2000/svg"
	xmlns:xlink="http://www.w3.org/1999/xlink"
	width="18px" height="14px" viewBox="0 0 18 14">
<path fill-rule="evenodd" d="M 15.79 11C 15.79 11 17.39 12.21 17.39 12.21 17.83 12.54 17.92 13.17 17.58 13.61 17.38 13.86 17.08 14 16.77 14 16.56 14 16.34 13.93 16.16 13.79 16.16 13.79 12.44 11 12.44 11 12.44 11 16.16 8.21 16.16 8.21 16.6 7.87 17.24 7.96 17.58 8.39 17.92 8.83 17.83 9.46 17.39 9.79 17.39 9.79 15.79 11 15.79 11ZM 8.65 0C 8.65 0 10.68 0 10.68 0 10.68 0 10.68 14 10.68 14 10.68 14 8.65 14 8.65 14 8.65 14 8.65 0 8.65 0ZM 5.61 6C 5.61 6 4.29 6 4.29 6 2.44 6 0.95 4.82 0.95 3 0.95 1.18 2.44 0 4.29 0 4.29 0 5.61 0 5.61 0 5.61 0 6.63 0 6.63 0 6.63 0 7.64 0 7.64 0 7.64 0 7.64 14 7.64 14 7.64 14 5.61 14 5.61 14 5.61 14 5.61 6 5.61 6Z"/>
</svg>
