<svg xmlns="http://www.w3.org/2000/svg" width="15" height="12" viewBox="0 0 15 12"><path fill-rule="evenodd" d="M13.99 5.39c-.14.17-.32.26-.54.26-.13 0-.24-.03-.31-.08a.656.656 0 0 1-.18-.19c-.04-.07-.08-.14-.12-.19-.04-.06-.1-.08-.17-.08-.11 0-.24.09-.39.27-.16.19-.34.47-.53.86l.13.91c.08.41.16.69.27.84.1.16.22.24.36.24.17 0 .28-.08.33-.25.04-.17.06-.38.06-.64 0-.02.03-.04.08-.06.05-.01.09-.02.11-.02.05 0 .1.01.16.02.05.02.08.04.09.06.02.04.03.09.06.16.02.08.03.17.03.28 0 .4-.16.73-.48.97-.32.25-.67.37-1.06.37-.35 0-.66-.14-.94-.42-.28-.28-.48-.69-.61-1.23-.29.57-.54.98-.76 1.25-.21.27-.5.4-.87.4-.22 0-.43-.07-.64-.22-.21-.14-.32-.36-.32-.64 0-.24.08-.45.23-.62.15-.17.35-.26.6-.26.2 0 .35.08.45.22.09.15.21.22.34.22.1 0 .21-.07.34-.23.13-.15.29-.4.47-.75L10 5.82c-.07-.36-.15-.63-.24-.8-.1-.17-.21-.25-.32-.25-.18 0-.28.08-.31.25-.03.17-.05.38-.05.63 0 .02-.02.04-.07.05-.05.02-.09.02-.11.02-.06 0-.11 0-.16-.02a.187.187 0 0 1-.1-.05.854.854 0 0 1-.06-.19c-.01-.08-.02-.17-.02-.25 0-.39.14-.71.42-.97.28-.25.62-.38 1-.38.37 0 .71.16 1.02.46.3.3.5.73.58 1.27.3-.6.58-1.04.83-1.31.25-.28.52-.42.81-.42.3 0 .54.09.72.26.18.17.27.39.27.66 0 .23-.07.43-.22.61zM9.46 2.92c-.22 0-.37-.06-.47-.19-.1-.13-.18-.27-.25-.43-.06-.17-.14-.31-.21-.44-.08-.14-.2-.2-.37-.2-.35 0-.62.18-.79.53-.18.36-.39 1.05-.62 2.08h1.19c.04 0 .07.03.08.09.01.06.02.12.02.17 0 .08-.02.16-.06.26-.04.09-.08.14-.13.14l-1.24-.04-.9 3.79c-.27 1.09-.69 1.92-1.27 2.47-.59.55-1.28.83-2.09.83-.46 0-.87-.12-1.22-.38-.35-.25-.53-.54-.54-.86 0-.24.09-.44.26-.61.16-.17.39-.25.68-.25.24 0 .43.08.57.23.15.15.26.3.35.46.09.16.18.32.28.47.09.14.21.22.34.22.17-.01.3-.13.4-.36.11-.23.2-.56.27-.97l1.05-4.92c.01-.03.01-.06-.01-.08-.01-.03-.04-.04-.1-.04H3.8c-.02 0-.05-.03-.07-.09-.02-.07-.02-.11-.02-.13 0-.03.01-.08.04-.13.03-.06.06-.08.09-.08.45-.06.76-.12.92-.17.16-.06.25-.12.26-.18.24-.87.71-1.63 1.39-2.29.69-.66 1.5-.99 2.43-.99.38 0 .73.12 1.04.37.3.25.46.51.46.8 0 .26-.08.47-.24.65-.17.18-.38.27-.64.27z"/></svg>