<svg xmlns="http://www.w3.org/2000/svg" xmlns:xlink="http://www.w3.org/1999/xlink"
	 viewBox="0 0 20 22" enable-background="new 0 0 20 22" xml:space="preserve" width="20" height="22">
<g>
	<g>
		<g>
			<rect x="3" y="3" width="13" height="2"/>
		</g>
		<g>
			<rect x="3" y="15" width="13" height="2"/>
		</g>
		<g>
			<rect x="3" y="6" width="7" height="2"/>
		</g>
		<g>
			<rect x="3" y="12" width="7" height="2"/>
		</g>
		<g>
			<rect x="3" y="9" width="7" height="2"/>
		</g>
	</g>
	<g>
		<path transform="translate(0, -1)" d="M16,13.9c0.3,0,0.6-0.1,0.8-0.4c0.3-0.4,0.2-1.1-0.2-1.4L15,10.9l1.6-1.2c0.4-0.3,0.5-1,0.2-1.4
			c-0.3-0.4-1-0.5-1.4-0.2l-3.8,2.8l3.8,2.8C15.6,13.8,15.8,13.9,16,13.9z"/>
	</g>
</g>
</svg>
