<?xml version="1.0" encoding="utf-8"?>
<svg xmlns="http://www.w3.org/2000/svg"
	xmlns:xlink="http://www.w3.org/1999/xlink"
	width="18px" height="17px" viewBox="0 0 18 17">
<path fill-rule="evenodd" d="M 16.32 7C 16.32 7 12.89 10.42 12.89 10.42 12.11 11.2 11.09 11.59 10.07 11.59 9.05 11.59 8.03 11.2 7.26 10.42 6.87 10.04 6.87 9.42 7.26 9.04 7.64 8.65 8.26 8.65 8.64 9.04 9.41 9.8 10.74 9.8 11.51 9.04 11.51 9.04 14.93 5.61 14.93 5.61 15.31 5.23 15.53 4.72 15.53 4.18 15.53 3.64 15.31 3.13 14.93 2.74 14.14 1.96 12.86 1.96 12.07 2.74 12.07 2.74 10.37 4.45 10.37 4.45 9.98 4.83 9.36 4.83 8.98 4.45 8.6 4.06 8.6 3.44 8.98 3.06 8.98 3.06 10.68 1.36 10.68 1.36 12.24-0.19 14.76-0.19 16.32 1.36 17.87 2.91 17.87 5.44 16.32 7ZM 11.06 8C 10.68 8.39 10.06 8.39 9.67 8 8.88 7.21 7.6 7.21 6.81 8 6.81 8 3.38 11.43 3.38 11.43 3 11.81 2.79 12.32 2.79 12.86 2.79 13.4 3 13.91 3.38 14.3 4.17 15.08 5.46 15.08 6.25 14.3 6.25 14.3 7.95 12.59 7.95 12.59 8.33 12.21 8.95 12.21 9.33 12.59 9.72 12.98 9.72 13.6 9.33 13.98 9.33 13.98 7.63 15.68 7.63 15.68 6.86 16.46 5.84 16.85 4.82 16.85 3.8 16.85 2.78 16.46 2 15.68 1.25 14.93 0.83 13.93 0.83 12.86 0.83 11.8 1.25 10.8 2 10.04 2 10.04 5.42 6.62 5.42 6.62 6.98 5.06 9.51 5.06 11.06 6.62 11.44 7 11.44 7.62 11.06 8Z"/>
</svg>
