<svg width="22px" height="18px" viewBox="0 0 22 18">
    <g id="Page-1" stroke="none" stroke-width="1" fill="none" fill-rule="evenodd">
        <g id="remove_link_bld_reg">
            <path d="M7.86249836,12.9814912 L6.21646526,14.6505784 C5.41736202,15.4619402 4.11607919,15.4619402 3.31697595,14.6505784 C2.51787272,13.8402245 2.51787272,12.5218875 3.31597957,11.7105257 L6.63295547,8.34816172 C7.43205871,7.53780781 8.73433792,7.53881571 9.53344116,8.34816172 C9.86922394,8.68883289 10.4132518,8.68883289 10.7490346,8.34715382 C11.083821,8.00749055 11.083821,7.45616768 10.7480382,7.11650441 C9.2793622,5.62783186 6.88803082,5.62783186 5.4193548,7.11650441 L2.1013825,10.4788684 C0.632706477,11.9695568 0.632706477,14.3925553 2.10237889,15.8832436 C2.83572051,16.6270759 3.80122056,17 4.76672061,17 C5.73222065,17 6.69572792,16.6270759 7.43106232,15.8832436 L9.07709542,14.2131486 C9.4128782,13.8734853 9.4128782,13.3221624 9.07709542,12.9814912 C8.74330542,12.641828 8.19628836,12.641828 7.86249836,12.9814912 L7.86249836,12.9814912 Z" id="Path" fill="#2B5672"></path>
            <path d="M15.8970671,2.08526188 C14.4743135,0.638246041 11.9894764,0.638246041 10.5687155,2.08526188 L8.92278484,3.75979592 C8.58702297,4.10157884 8.58702297,4.65470089 8.92278484,4.99547262 C9.25555774,5.33725553 9.80254073,5.33725553 10.13631,4.99547262 L11.7832369,3.32194976 C12.5573822,2.53321996 13.9064077,2.53321996 14.6825456,3.32194976 C15.0691201,3.71530347 15.2833302,4.23910096 15.2833302,4.79525659 C15.2833302,5.35242341 15.0691201,5.8762209 14.6815493,6.2705858 L11.3657763,9.64392251 C10.5667228,10.4579321 9.26452467,10.4569209 8.46547119,9.64392251 C8.12970932,9.30315078 7.58571531,9.30213959 7.25094976,9.6449337 C6.91618421,9.98570542 6.91618421,10.5398387 7.25194608,10.8806104 C7.98623837,11.6268701 8.9516783,12 9.9161219,12 C10.8815618,12 11.8460054,11.6268701 12.581294,10.8806104 L15.8960708,7.5062625 C16.6084439,6.78224898 17,5.81959414 17,4.79525659 C17,3.77193023 16.6084439,2.80927539 15.8970671,2.08526188 L15.8970671,2.08526188 Z" id="Path" fill="#2B5672"></path>
            <path d="M19.2651054,14.0005 L20.7382282,12.5275 C21.0872573,12.1785 21.0872573,11.6115 20.7382282,11.2625 C20.3901992,10.9125 19.8211518,10.9125 19.4731228,11.2625 L18,12.7355 L16.5268772,11.2625 C16.1788482,10.9125 15.6098008,10.9125 15.2617718,11.2625 C14.9127427,11.6115 14.9127427,12.1785 15.2617718,12.5275 L16.7348946,14.0005 L15.2617718,15.4725 C14.9127427,15.8225 14.9127427,16.3885 15.2617718,16.7375 C15.4357863,16.9125 15.6648054,17.0005 15.8948246,17.0005 C16.1238437,17.0005 16.3528627,16.9125 16.5268772,16.7375 L18,15.2645 L19.4731228,16.7375 C19.6471373,16.9125 19.8761563,17.0005 20.1051754,17.0005 C20.3351946,17.0005 20.5642137,16.9125 20.7382282,16.7375 C21.0872573,16.3885 21.0872573,15.8225 20.7382282,15.4725 L19.2651054,14.0005 L19.2651054,14.0005 Z" id="Path" fill="#EE5951"></path>
        </g>
    </g>
</svg>