<svg xmlns="http://www.w3.org/2000/svg" xmlns:xlink="http://www.w3.org/1999/xlink"
	 viewBox="0 0 20 22" enable-background="new 0 0 20 22" xml:space="preserve" width="20" height="22">
<g>
	<g>
		<rect x="8" y="15" width="10" height="2"/>
	</g>
	<g>
		<rect x="8" y="9" width="10" height="2"/>
	</g>
	<g>
		<rect x="8" y="3" width="10" height="2"/>
	</g>
	<polygon points="3,2 3,3 4,3 4,6 5,6 5,2 	"/>
	<g>
		<path d="M6,12H3.6c0-1,0-1,0-1l2-2H3V8h3v1l-1.4,2H6V12z"/>
	</g>
	<g>
		<path d="M5.8,17l-1.2-1l1.2-1H3v-1h3v1l-1.2,1L6,17v1H3v-1H5.8z"/>
	</g>
</g>

</svg>
