<?xml version="1.0" encoding="utf-8"?>
<svg xmlns="http://www.w3.org/2000/svg"
	xmlns:xlink="http://www.w3.org/1999/xlink"
	viewBox="0 0 20 20" width="20" height="20">

<rect x="0.00" y="0.00" width="20.00" height="20.00" fill="rgb(255,255,255)" rx="6.00"/>
  <path fill="#ee5951" fill-rule="evenodd" d="M 3.57 17.99C 3.57 17.99 18.42 3.15 18.42 3.15 18.42 3.15 17.26 2 17.26 2 17.26 2 2.42 16.84 2.42 16.84 2.42 16.84 3.57 17.99 3.57 17.99Z"/>
<path fill="#d8e1e8" fill-rule="evenodd" d="M 14 19C 16.76 19 19 16.76 19 14 19 14 19 6 19 6 19 3.24 16.76 1 14 1 14 1 6 1 6 1 3.24 1 1 3.24 1 6 1 6 1 14 1 14 1 16.76 3.24 19 6 19 6 19 14 19 14 19M 14 20C 14 20 6 20 6 20 2.69 20 0 17.31 0 14 0 14 0 6 0 6 0 2.69 2.69 0 6 0 6 0 14 0 14 0 17.31 0 20 2.69 20 6 20 6 20 14 20 14 20 17.31 17.31 20 14 20 14 20 14 20 14 20Z"/>
</svg>
