<svg xmlns="http://www.w3.org/2000/svg" xmlns:xlink="http://www.w3.org/1999/xlink"
	 viewBox="0 0 20 22" enable-background="new 0 0 20 22" xml:space="preserve" width="20" height="22">
<g>
	<g>
		<g>
			<rect x="2" y="3" width="13" height="2"/>
		</g>
		<g>
			<rect x="2" y="15" width="13" height="2"/>
		</g>
		<g>
			<rect x="2" y="6" width="7" height="2"/>
		</g>
		<g>
			<rect x="2" y="12" width="7" height="2"/>
		</g>
		<g>
			<rect x="2" y="9" width="7" height="2"/>
		</g>
	</g>
	<g>
		<path transform="translate(0, -1)" d="M13.1,13.9c0.2,0,0.4-0.1,0.6-0.2l3.8-2.8l-3.8-2.8c-0.4-0.3-1.1-0.2-1.4,0.2C12,8.7,12,9.4,12.5,9.7
			l1.6,1.2l-1.6,1.2c-0.4,0.3-0.5,1-0.2,1.4C12.5,13.7,12.8,13.9,13.1,13.9z"/>
	</g>
</g>
</svg>
