<svg width="25" height="25" fill="none" fill-rule="evenodd" viewBox="0 0 25 25"><path fill="#85CCF7" d="M.672 12.5C.672 5.968 5.968.672 12.5.672c6.532 0 11.828 5.296 11.828 11.828 0 6.532-5.296 11.828-11.828 11.828C5.968 24.328.672 19.032.672 12.5z"/><path fill="#FFF" d="M1.618 12.5C1.618 6.49 6.49 1.618 12.5 1.618S23.382 6.49 23.382 12.5 18.51 23.382 12.5 23.382 1.618 18.51 1.618 12.5z"/><path fill="#85CCF7" d="M14.664 12.653l-3.77 3.77.67.67 4.115-4.117.334-.334-.335-.335-4.117-4.115-.67.67 3.77 3.79z"/></svg>