<svg width="25px" height="25px" viewBox="0 0 25 25" stroke="none" stroke-width="1" fill="none" fill-rule="evenodd">
            <path d="M0.672119141,12.5 C0.672119141,5.96764178 5.96764178,0.672119141 12.5,0.672119141 C19.0323582,0.672119141 24.3278809,5.96764178 24.3278809,12.5 C24.3278809,19.0323582 19.0323582,24.3278809 12.5,24.3278809 C5.96764178,24.3278809 0.672119141,19.0323582 0.672119141,12.5 Z" fill="#85CCF7"></path>
            <path d="M1.61834961,12.5 C1.61834961,6.49023044 6.49023044,1.61834961 12.5,1.61834961 C18.5097695,1.61834961 23.3816504,6.49023044 23.3816504,12.5 C23.3816504,18.5097695 18.5097695,23.3816504 12.5,23.3816504 C6.49023044,23.3816504 1.61834961,18.5097695 1.61834961,12.5 Z" fill="#FFFFFF" ></path>
            <path d="M14.6640556,12.6531618 L10.8937233,16.4234941 L11.5628092,17.0925801 L15.6789557,12.9764336 L16.0135215,12.6418679 L15.6789329,12.3073249 L11.5627864,8.19173935 L10.8937461,8.86087094 L14.6640556,12.6531618 L14.6640556,12.6531618 Z" fill="#85CCF7"></path>

</svg>