<svg xmlns="http://www.w3.org/2000/svg" width="13" height="13" viewBox="0 0 13 13"><path fill="#1D2D3C" fill-rule="evenodd" d="M11.5 4H9.598l-.65-2.167A1.5 1.5 0 0 0 7.08.828L1.333 2.552A1.5 1.5 0 0 0 .328 4.42l1.724 5.747a1.5 1.5 0 0 0 1.867 1.005l.08-.024v.352A1.5 1.5 0 0 0 5.5 13h6a1.5 1.5 0 0 0 1.5-1.5v-6A1.5 1.5 0 0 0 11.5 4zm-7.868 6.214a.498.498 0 0 1-.622-.335L1.286 4.13a.498.498 0 0 1 .335-.622L7.37 1.786c.264-.08.543.07.622.335L8.554 4H5.5A1.5 1.5 0 0 0 4 5.5v4.604l-.368.11zM5 5.5a.5.5 0 0 1 .5-.5h6a.5.5 0 0 1 .5.5v6a.5.5 0 0 1-.5.5h-6a.5.5 0 0 1-.5-.5v-6z"/></svg>