<?xml version="1.0" encoding="UTF-8" standalone="no"?><svg width="13px" height="13px" viewBox="0 0 13 13" version="1.1" xmlns="http://www.w3.org/2000/svg" xmlns:xlink="http://www.w3.org/1999/xlink" xmlns:sketch="http://www.bohemiancoding.com/sketch/ns">    <!-- Generator: Sketch 3.3 (11970) - http://www.bohemiancoding.com/sketch -->    <desc>Created with Sketch.</desc>    <defs></defs>    <g id="Page-1" stroke="none" stroke-width="1" fill="none" fill-rule="evenodd" sketch:type="MSPage">        <path d="M11.5,4 L9.598,4 L8.948,1.833 C8.71,1.04 7.874,0.59 7.08,0.828 L1.333,2.552 C0.54,2.79 0.09,3.626 0.328,4.42 L2.052,10.167 C2.29,10.96 3.126,11.41 3.919,11.172 L4,11.148 L4,11.5 C4,12.328 4.672,13 5.5,13 L11.5,13 C12.328,13 13,12.328 13,11.5 L13,5.5 C13,4.672 12.328,4 11.5,4 L11.5,4 Z M3.632,10.214 C3.368,10.294 3.089,10.144 3.01,9.879 L1.286,4.132 C1.206,3.868 1.356,3.589 1.621,3.51 L7.368,1.786 C7.632,1.706 7.911,1.856 7.99,2.121 L8.554,4 L5.5,4 C4.672,4 4,4.672 4,5.5 L4,10.104 L3.632,10.214 L3.632,10.214 Z M5,5.5 C5,5.224 5.224,5 5.5,5 L11.5,5 C11.776,5 12,5.224 12,5.5 L12,11.5 C12,11.776 11.776,12 11.5,12 L5.5,12 C5.224,12 5,11.776 5,11.5 L5,5.5 L5,5.5 Z" id="L_Go-to-Special-Page" fill="#1D2D3C" sketch:type="MSShapeGroup"></path>    </g></svg>