<?xml version="1.0" encoding="utf-8"?>
<svg xmlns="http://www.w3.org/2000/svg"
	xmlns:xlink="http://www.w3.org/1999/xlink"
	width="11px" height="13px" viewBox="0 0 11 13">
<path fill="rgb(55,175,243)" fill-rule="evenodd" d="M 1.85 11.04C 1.85 11.04 9.97 11.04 9.97 11.04 9.97 11.04 9.97 4.07 9.97 4.07 9.97 4.07 8.88 4.07 8.88 4.07 8.41 4.07 7.89 3.63 7.89 3.1 7.89 3.1 7.89 1.04 7.89 1.04 7.89 1.04 1.85 1.04 1.85 1.04 1.85 1.04 1.85 11.04 1.85 11.04ZM 8.45 0.04C 8.45 0.04 8.45 0.05 8.45 0.05 8.45 0.05 10.89 1.97 10.89 1.97 10.89 1.97 10.89 11.07 10.89 11.07 10.89 11.53 10.47 12.05 9.91 12.05 9.91 12.05 1.94 12.05 1.94 12.05 1.45 12.05 0.93 11.53 0.93 11.05 0.93 11.05 0.93 1.04 0.93 1.04 0.93 0.55 1.44 0.04 1.96 0.04 1.96 0.04 8.45 0.04 8.45 0.04Z"/>
<path fill="rgb(55,175,243)" fill-rule="evenodd" d="M 2.94 9.06C 2.94 9.06 2.94 8.06 2.94 8.06 2.94 8.06 8.96 8.06 8.96 8.06 8.96 8.06 8.96 9.06 8.96 9.06 8.96 9.06 2.94 9.06 2.94 9.06Z"/>
<path fill="rgb(55,175,243)" fill-rule="evenodd" d="M 2.94 7.06C 2.94 7.06 2.94 6.06 2.94 6.06 2.94 6.06 6.96 6.06 6.96 6.06 6.96 6.06 6.96 7.06 6.96 7.06 6.96 7.06 2.94 7.06 2.94 7.06Z"/>
</svg>