<svg xmlns="http://www.w3.org/2000/svg" width="126" height="84" class="symbol-link-menu-clipart" xmlns:xlink="http://www.w3.org/1999/xlink" viewBox="0 0 126 84"><defs><path id="a" d="M113 83H3a3 3 0 0 1-3-3V3a3 3 0 0 1 3-3h110a3 3 0 0 1 3 3v77a3 3 0 0 1-3 3z"/></defs><use fill="#3ac1b7" xlink:href="#a" overflow="visible"/><clipPath id="b"><use xlink:href="#a" overflow="visible"/></clipPath><path fill="#7cddd3" d="M0 0h116v17H0z" clip-path="url(#b)"/><circle cx="9.429" cy="8.5" r="2.495" fill="#14a8a4"/><circle cx="17.414" cy="8.5" r="2.495" fill="#14a8a4"/><path fill="#14a8a4" d="M110 8.493c0 1.36-1.2 2.507-2.554 2.507H25.543C24.187 11 23 9.85 23 8.493v-.06C23 7.07 24.18 6 25.543 6h81.903C108.806 6 110 7.07 110 8.433v.06z"/><path fill="#FFF" d="M101 28.53c0 1.364-1.176 2.47-2.537 2.47H84.43C83.068 31 82 29.894 82 28.53v-.06c0-1.364 1.068-2.47 2.43-2.47h14.033c1.362 0 2.537 1.106 2.537 2.47v.06z"/><path fill="#7cddd3" d="M78 28.53c0 1.364-1.132 2.47-2.493 2.47H61.474A2.475 2.475 0 0 1 59 28.53v-.06A2.475 2.475 0 0 1 61.474 26h14.033C76.867 26 78 27.106 78 28.47v.06z"/><path fill="#FFF" d="M78 36.53c0 1.364-1.132 2.47-2.493 2.47H61.474A2.475 2.475 0 0 1 59 36.53v-.06A2.475 2.475 0 0 1 61.474 34h14.033C76.867 34 78 35.106 78 36.47v.06zM78 44.53c0 1.364-1.132 2.47-2.493 2.47H61.474A2.475 2.475 0 0 1 59 44.53v-.06A2.475 2.475 0 0 1 61.474 42h14.033C76.867 42 78 43.106 78 44.47v.06zM55 28.53A2.454 2.454 0 0 1 52.55 31H38.52C37.156 31 36 29.894 36 28.53v-.06c0-1.364 1.156-2.47 2.518-2.47H52.55c1.362 0 2.45 1.106 2.45 2.47v.06zM32 28.53c0 1.364-1.044 2.47-2.405 2.47H15.562C14.2 31 13 29.894 13 28.53v-.06c0-1.364 1.2-2.47 2.562-2.47h14.033C30.955 26 32 27.106 32 28.47v.06zM121.77 53.538L104.5 47.5l6.038 17.27a.98.98 0 0 0 1.618.368l3.333-3.333 6.407 6.408a.98.98 0 0 0 1.386 0l1.93-1.93a.98.98 0 0 0 0-1.386l-6.408-6.408 3.333-3.334a.98.98 0 0 0-.37-1.618z"/></svg>