<svg class="symbol-link-menu-clipart" version="1.1" xmlns="http://www.w3.org/2000/svg" xmlns:xlink="http://www.w3.org/1999/xlink" width="126px" height="84px" viewBox="0 0 126 84">
  <defs>
    <path id="SVGID-199-" d="M113,83H3c-1.657,0-3-1.343-3-3V3c0-1.657,1.343-3,3-3h110c1.657,0,3,1.343,3,3v77
                             C116,81.657,114.657,83,113,83z"/>
  </defs>
  <use xlink:href="#SVGID-199-"  style="overflow:visible;fill:#3AC1B7;"/>
  <clipPath id="SVGID-2-">
    <use xlink:href="#SVGID-199-"  style="overflow:visible;"/>
  </clipPath>
  <rect style="clip-path:url(#SVGID-2-);fill:#7CDDD3;" width="116" height="17"/>
  <circle style="fill:#14A8A4;" cx="9.429" cy="8.5" r="2.495"/>
  <circle style="fill:#14A8A4;" cx="17.414" cy="8.5" r="2.495"/>
  <path style="fill:#14A8A4;" d="M110,8.493c0,1.359-1.199,2.507-2.554,2.507H25.543C24.187,11,23,9.851,23,8.493v-0.06
                                 C23,7.069,24.181,6,25.543,6h81.903C108.807,6,110,7.069,110,8.433V8.493z"/>
  <path style="fill:#FFFFFF;" d="M101,28.53c0,1.364-1.176,2.47-2.537,2.47H84.43C83.068,31,82,29.894,82,28.53v-0.06
                                 c0-1.364,1.068-2.47,2.43-2.47h14.033c1.362,0,2.537,1.106,2.537,2.47V28.53z"/>
  <path style="fill:#7CDDD3;" d="M78,28.53c0,1.364-1.132,2.47-2.493,2.47H61.474C60.112,31,59,29.894,59,28.53v-0.06
                                 c0-1.364,1.112-2.47,2.474-2.47h14.033C76.868,26,78,27.106,78,28.47V28.53z"/>
  <path style="fill:#FFFFFF;" d="M78,36.53c0,1.364-1.132,2.47-2.493,2.47H61.474C60.112,39,59,37.894,59,36.53v-0.06
                                 c0-1.364,1.112-2.47,2.474-2.47h14.033C76.868,34,78,35.106,78,36.47V36.53z"/>
  <path style="fill:#FFFFFF;" d="M78,44.53c0,1.364-1.132,2.47-2.493,2.47H61.474C60.112,47,59,45.894,59,44.53v-0.06
                                 c0-1.364,1.112-2.47,2.474-2.47h14.033C76.868,42,78,43.106,78,44.47V44.53z"/>
  <path style="fill:#FFFFFF;" d="M55,28.53c0,1.364-1.088,2.47-2.449,2.47H38.518C37.156,31,36,29.894,36,28.53v-0.06
                                 c0-1.364,1.156-2.47,2.518-2.47h14.033C53.912,26,55,27.106,55,28.47V28.53z"/>
  <path style="fill:#FFFFFF;" d="M32,28.53c0,1.364-1.044,2.47-2.405,2.47H15.562C14.2,31,13,29.894,13,28.53v-0.06
                                 c0-1.364,1.2-2.47,2.562-2.47h14.033C30.956,26,32,27.106,32,28.47V28.53z"/>
  <path style="fill:#FFFFFF;" d="M121.769,53.538L104.5,47.5l6.038,17.269c0.238,0.682,1.107,0.88,1.618,0.369l3.333-3.333
                                 l6.408,6.408c0.383,0.383,1.003,0.383,1.386,0l1.93-1.93c0.383-0.383,0.383-1.003,0-1.386l-6.408-6.408l3.333-3.333
                                 C122.649,54.645,122.451,53.777,121.769,53.538z"/>
</svg>
