<svg width="17px" height="17px" viewBox="0 0 17 17">
    <path fill="rgb(55,153,235)" fill-rule="evenodd" d="M 8.5 16.5C 4.09 16.5 0.5 12.91 0.5 8.5 0.5 4.09 4.09 0.5 8.5 0.5 12.91 0.5 16.5 4.09 16.5 8.5 16.5 12.91 12.91 16.5 8.5 16.5ZM 8.5 1.5C 4.64 1.5 1.5 4.64 1.5 8.5 1.5 12.36 4.64 15.5 8.5 15.5 12.36 15.5 15.5 12.36 15.5 8.5 15.5 4.64 12.36 1.5 8.5 1.5ZM 9 12C 9 12 8 12 8 12 8 12 8 9 8 9 8 9 5 9 5 9 5 9 5 8 5 8 5 8 8 8 8 8 8 8 8 5 8 5 8 5 9 5 9 5 9 5 9 8 9 8 9 8 12 8 12 8 12 8 12 9 12 9 12 9 9 9 9 9 9 9 9 12 9 12Z"/>
</svg>