<?xml version="1.0" encoding="UTF-8" standalone="no"?>
<svg width="22px" height="23px" viewBox="0 0 22 23" version="1.1" xmlns="http://www.w3.org/2000/svg" xmlns:xlink="http://www.w3.org/1999/xlink" xmlns:sketch="http://www.bohemiancoding.com/sketch/ns">
    <!-- Generator: Sketch 3.3 (11970) - http://www.bohemiancoding.com/sketch -->
    <title>L_Link</title>
    <desc>Created with Sketch.</desc>
    <defs></defs>
    <g id="Page-1" stroke="none" stroke-width="1" fill="none" fill-rule="evenodd" sketch:type="MSPage">
        <path d="M7.562,19.935 C6.055,21.443 3.603,21.443 2.096,19.935 C0.589,18.428 0.589,15.976 2.096,14.469 L6.879,9.686 C8.386,8.179 10.838,8.179 12.345,9.686 L13.028,9.003 C11.145,7.119 8.079,7.119 6.196,9.003 L1.413,13.786 C-0.471,15.669 -0.471,18.735 1.413,20.618 C3.296,22.502 6.362,22.502 8.245,20.618 L11.021,17.843 L10.338,17.159 L7.562,19.935 L7.562,19.935 Z M20.587,1.444 C18.704,-0.44 15.638,-0.44 13.754,1.444 L11.021,4.177 L11.705,4.86 L14.438,2.127 C15.945,0.62 18.397,0.62 19.904,2.127 C21.411,3.635 21.411,6.086 19.904,7.594 L15.121,12.376 C13.614,13.884 11.162,13.884 9.655,12.376 L8.971,13.06 C10.855,14.943 13.921,14.943 15.804,13.06 L20.587,8.277 C22.471,6.393 22.471,3.328 20.587,1.444 L20.587,1.444 Z" id="L_Link" fill="#3899ec" sketch:type="MSShapeGroup"></path>
    </g>
</svg>