<?xml version="1.0" encoding="UTF-8" standalone="no"?>
<svg width="22px" height="26px" viewBox="0 0 22 26" version="1.1" xmlns="http://www.w3.org/2000/svg" xmlns:xlink="http://www.w3.org/1999/xlink" xmlns:sketch="http://www.bohemiancoding.com/sketch/ns">
    <!-- Generator: Sketch 3.3 (11970) - http://www.bohemiancoding.com/sketch -->
    <title>L_Page</title>
    <desc>Created with Sketch.</desc>
    <defs></defs>
    <g id="Page-1" stroke="none" stroke-width="1" fill="none" fill-rule="evenodd" sketch:type="MSPage">
        <path d="M13,0 L3,0 C1.343,0 0,1.343 0,3 L0,23 C0,24.657 1.343,26 3,26 L19,26 C20.657,26 22,24.657 22,23 L22,9 L13,0 L13,0 Z M13,1.5 L20.5,9 L13.5,9 C13.224,9 13,8.776 13,8.5 L13,1.5 L13,1.5 Z M21,23 C21,24.105 20.105,25 19,25 L3,25 C1.895,25 1,24.105 1,23 L1,3 C1,1.895 1.895,1 3,1 L12,1 L12,8.5 C12,9.328 12.672,10 13.5,10 L21,10 L21,23 L21,23 Z M5,17 L17,17 L17,16 L5,16 L5,17 Z M5,21 L17,21 L17,20 L5,20 L5,21 Z" id="L_Page" fill="#3899ec" sketch:type="MSShapeGroup"></path>
    </g>
</svg>