<svg xmlns="http://www.w3.org/2000/svg" width="22" height="23" viewBox="0 0 22 23"><path fill="#3899ec" fill-rule="evenodd" d="M7.562 19.935a3.868 3.868 0 0 1-5.466 0 3.87 3.87 0 0 1 0-5.466L6.88 9.685a3.87 3.87 0 0 1 5.465 0l.683-.683a4.836 4.836 0 0 0-6.832 0l-4.783 4.783a4.836 4.836 0 0 0 0 6.832 4.836 4.836 0 0 0 6.832 0l2.776-2.775-.682-.684-2.776 2.775zm13.025-18.49a4.837 4.837 0 0 0-6.833 0L11.02 4.176l.685.683 2.733-2.733a3.87 3.87 0 0 1 5.466 0 3.87 3.87 0 0 1 0 5.467l-4.783 4.782a3.868 3.868 0 0 1-5.465 0l-.684.684a4.84 4.84 0 0 0 6.834 0l4.783-4.783a4.837 4.837 0 0 0 0-6.833z"/></svg>