<?xml version="1.0" encoding="utf-8"?>
<svg xmlns="http://www.w3.org/2000/svg"
	xmlns:xlink="http://www.w3.org/1999/xlink"
	viewBox="0 0 160 60" width="160px" height="60px">
<path class="c1" fill-rule="evenodd" d="M 128.92 29.04C 128.92 29.04 139.61 18.85 139.61 18.85 136.37 15.76 131.93 13.81 126.99 13.81 117.12 13.81 109.08 21.46 109.08 30.88 109.08 40.29 117.12 47.95 126.99 47.95 134.7 47.95 141.22 43.27 143.75 36.75 143.75 36.75 154.15 36.75 154.15 36.75 151.34 48.59 140.26 57.44 126.99 57.44 111.61 57.44 99.13 45.55 99.13 30.88 99.13 16.21 111.61 4.32 126.99 4.32 134.69 4.32 141.6 7.34 146.63 12.16 146.63 12.16 156.78 2.48 156.78 2.48 156.78 2.48 156.78 29.04 156.78 29.04 156.78 29.04 128.92 29.04 128.92 29.04ZM 55.06 36.78C 55.06 36.78 23.25 36.78 23.25 36.78 23.25 36.78 32.98 46.05 32.98 46.05 35.31 48.27 35.31 51.87 32.98 54.1 30.65 56.32 26.87 56.32 24.53 54.1 24.53 54.1 4.98 35.46 4.98 35.46 4.87 35.37 4.72 35.33 4.62 35.23 3.43 34.1 2.86 32.62 2.88 31.15 2.86 29.67 3.43 28.19 4.62 27.06 4.72 26.96 4.87 26.93 4.98 26.83 4.98 26.83 24.53 8.19 24.53 8.19 26.87 5.97 30.65 5.97 32.98 8.19 35.31 10.42 35.31 14.02 32.98 16.24 32.98 16.24 23.37 25.4 23.37 25.4 23.37 25.4 55.06 25.4 55.06 25.4 58.36 25.4 61.03 27.94 61.03 31.09 61.03 34.23 58.36 36.78 55.06 36.78Z"/>
</svg>