<svg xmlns="http://www.w3.org/2000/svg" width="158" height="112" xmlns:xlink="http://www.w3.org/1999/xlink" viewBox="0 0 158 112"><defs><path id="a" d="M157 108a4 4 0 0 1-4 4H4a4 4 0 0 1-4-4V4a4 4 0 0 1 4-4h149a4 4 0 0 1 4 4v104z"/></defs><use fill="#7fdef4" xlink:href="#a" overflow="visible"/><clipPath id="b"><use xlink:href="#a" overflow="visible"/></clipPath><path fill="#d3edff" d="M0-7h157v27H0z" clip-path="url(#b)"/><path fill="#5fcef5" d="M132 68a1 1 0 0 1-1 1H82a1 1 0 0 1-1-1V34a1 1 0 0 1 1-1h49a1 1 0 0 1 1 1v34zM56 98a1 1 0 0 1-1 1H25a1 1 0 0 1-1-1V76a1 1 0 0 1 1-1h30a1 1 0 0 1 1 1v22zM132 98a1 1 0 0 1-1 1h-30a1 1 0 0 1-1-1V76a1 1 0 0 1 1-1h30a1 1 0 0 1 1 1v22zM93.214 99H65.367c-1.2 0-3.367-.933-3.367-2.037v-20C62 75.858 64.167 75 65.367 75h27.847c1.2 0 .786.858.786 1.963v20c0 1.104.415 2.037-.786 2.037zM23 42h50v2H23zM23 34h50v2H23zM23 50h38v2H23zM22.26 8.89c.968 2.214-1.156 4.338-3.37 3.37a2.255 2.255 0 0 1-1.15-1.148c-.967-2.215 1.157-4.34 3.372-3.37.507.22.926.64 1.148 1.147z"/><circle cx="11" cy="10" r="2.5" fill="#5fcef5"/><path fill="#5fcef5" d="M148 10.53a2.47 2.47 0 0 1-2.47 2.47H28.47A2.47 2.47 0 0 1 26 10.53v-.06A2.47 2.47 0 0 1 28.47 8h117.06a2.47 2.47 0 0 1 2.47 2.47v.06z"/><linearGradient id="c" x1="24" x2="54" y1="62" y2="62" gradientUnits="userSpaceOnUse"><stop offset="0" stop-color="#FFF"/><stop offset="1" stop-color="#FFF"/></linearGradient><path fill="url(#c)" d="M54 62a4 4 0 0 1-4 4H28a4 4 0 0 1 0-8h22a4 4 0 0 1 4 4z"/><linearGradient id="d" x1="1" x2="157" y1="93" y2="93" gradientUnits="userSpaceOnUse"><stop offset="0" stop-color="#FFF"/><stop offset="1" stop-color="#FFF"/></linearGradient><path fill="none" stroke="url(#d)" stroke-width="2" stroke-miterlimit="10" d="M2 93h154" stroke-linecap="round" stroke-dasharray="2 4"/><linearGradient id="e" x1="121.506" x2="149.5" y1="93" y2="93" gradientUnits="userSpaceOnUse"><stop offset="0" stop-color="#FFF"/><stop offset="1" stop-color="#FFF"/></linearGradient><path fill="url(#e)" fill-rule="evenodd" d="M128.19 89h17.17c2.09 0 3.954 1.544 4.125 3.628.213 2.603-1.82 4.372-4.36 4.372H128.19l-6.283-3.2a1 1 0 0 1 0-1.6l6.282-3.2z" clip-rule="evenodd"/><path fill="#3899ec" d="M45 71.55v-7.453c0-1.283 1.2-2.323 2.5-2.323s2.5 1.04 2.5 2.323v8.184s3.574 1.008 5.387 1.577c3.433 1.078 4.018 3.565 2.626 9.597-.662 2.863-.8 4.546-.8 4.546h-12.04c-3.906-11-4.23-11.4-5.944-12.996-1.197-1.114 2.76-4.26 5.047.582.61 1.29.723 2.993.723 2.993v-7.03z"/></svg>