<svg xmlns="http://www.w3.org/2000/svg" width="9" height="11" viewBox="0 0 9 11"><path fill="#096363" fill-rule="evenodd" d="M7.34 10.99H1.62c-.9 0-1.64-.73-1.64-1.64V5.64c0-.9.74-1.63 1.64-1.63h.44v-.83C2.06 1.53 3 .15 4.6.15c1.61 0 2.46 1.38 2.46 3.03v.83h.28c.9 0 1.63.73 1.63 1.63v3.71c0 .91-.73 1.64-1.63 1.64zM4.07 6.94v1.91c0 .22.18.19.41.19.22 0 .41.03.41-.19V6.97l.78-.11-1.22-1.21-1.23 1.21.85.08zm1.95-3.76c0-.75-.19-2.11-1.54-2.11C3.25 1.07 3 2.43 3 3.18v.83h3.02v-.83z" opacity=".6"/></svg>