<?xml version="1.0" encoding="utf-8"?>
<svg xmlns="http://www.w3.org/2000/svg"
	xmlns:xlink="http://www.w3.org/1999/xlink"
	width="6px" height="10px" viewBox="0 0 6 10">
<path fill="rgb(9,99,99)" fill-rule="evenodd" d="M 4.16 10C 4.16 10 4.16 7.97 4.16 7.97 4.16 7.97 6.19 7.97 6.19 7.97 6.19 7.97 6.19 10 6.19 10 6.19 10 4.16 10 4.16 10ZM 4.16 4C 4.16 4 6.19 4 6.19 4 6.19 4 6.19 6.03 6.19 6.03 6.19 6.03 4.16 6.03 4.16 6.03 4.16 6.03 4.16 4 4.16 4ZM 4.16-0.03C 4.16-0.03 6.19-0.03 6.19-0.03 6.19-0.03 6.19 2 6.19 2 6.19 2 4.16 2 4.16 2 4.16 2 4.16-0.03 4.16-0.03ZM 0.16 7.97C 0.16 7.97 2.19 7.97 2.19 7.97 2.19 7.97 2.19 10 2.19 10 2.19 10 0.16 10 0.16 10 0.16 10 0.16 7.97 0.16 7.97ZM 0.16 4C 0.16 4 2.19 4 2.19 4 2.19 4 2.19 6.03 2.19 6.03 2.19 6.03 0.16 6.03 0.16 6.03 0.16 6.03 0.16 4 0.16 4ZM 0.16-0.03C 0.16-0.03 2.19-0.03 2.19-0.03 2.19-0.03 2.19 2 2.19 2 2.19 2 0.16 2 0.16 2 0.16 2 0.16-0.03 0.16-0.03Z"/>
</svg>