<?xml version="1.0" encoding="utf-8"?>
<svg xmlns="http://www.w3.org/2000/svg"
	xmlns:xlink="http://www.w3.org/1999/xlink"
	width="9px" height="11px" viewBox="0 0 9 11">
<path opacity="0.60" fill="rgb(9,99,99)" fill-rule="evenodd" d="M 7.34 10.99C 7.34 10.99 1.62 10.99 1.62 10.99 0.72 10.99-0.02 10.26-0.02 9.35-0.02 9.35-0.02 5.64-0.02 5.64-0.02 4.74 0.72 4.01 1.62 4.01 1.62 4.01 2.06 4.01 2.06 4.01 2.06 4.01 2.06 3.18 2.06 3.18 2.06 1.53 3 0.15 4.6 0.15 6.21 0.15 7.06 1.53 7.06 3.18 7.06 3.18 7.06 4.01 7.06 4.01 7.06 4.01 7.34 4.01 7.34 4.01 8.24 4.01 8.97 4.74 8.97 5.64 8.97 5.64 8.97 9.35 8.97 9.35 8.97 10.26 8.24 10.99 7.34 10.99ZM 4.07 6.94C 4.07 6.94 4.07 8.85 4.07 8.85 4.07 9.07 4.25 9.04 4.48 9.04 4.7 9.04 4.89 9.07 4.89 8.85 4.89 8.85 4.89 6.97 4.89 6.97 4.89 6.97 5.67 6.86 5.67 6.86 5.67 6.86 4.45 5.65 4.45 5.65 4.45 5.65 3.22 6.86 3.22 6.86 3.22 6.86 4.07 6.94 4.07 6.94ZM 6.02 3.18C 6.02 2.43 5.83 1.07 4.48 1.07 3.25 1.07 3 2.43 3 3.18 3 3.18 3 4.01 3 4.01 3 4.01 6.02 4.01 6.02 4.01 6.02 4.01 6.02 3.18 6.02 3.18Z"/>
</svg>