<?xml version="1.0" encoding="utf-8"?>
<svg xmlns="http://www.w3.org/2000/svg" xmlns:xlink="http://www.w3.org/1999/xlink" preserveAspectRatio="xMidYMid" width="26" height="18" viewBox="0 0 39 27">
    <g id="group-1svg">
        <path d="M34.531,15.295 C34.531,15.295 27.333,22.493 27.333,22.493 C26.339,23.487 24.727,23.487 23.734,22.493 C23.734,22.493 16.536,15.295 16.536,15.295 C15.542,14.301 15.542,12.690 16.536,11.696 C16.536,11.696 23.734,4.498 23.734,4.498 C24.727,3.504 26.339,3.504 27.333,4.498 C27.333,4.498 34.531,11.696 34.531,11.696 C35.525,12.690 35.525,14.301 34.531,15.295 ZM12.795,14.256 C12.795,14.256 17.623,20.340 17.623,20.340 C17.623,20.340 15.629,21.921 15.629,21.921 C15.629,21.921 10.778,15.807 10.778,15.807 C9.754,14.433 9.754,12.558 10.754,11.215 C10.754,11.215 15.629,5.069 15.629,5.069 C15.629,5.069 17.623,6.651 17.623,6.651 C17.623,6.651 12.771,12.767 12.771,12.767 C12.462,13.183 12.462,13.808 12.795,14.256 ZM9.993,18.238 C9.993,18.238 7.989,19.807 7.989,19.807 C7.989,19.807 4.079,14.793 4.079,14.793 C3.606,13.993 3.605,12.999 4.079,12.199 C4.079,12.199 7.960,6.824 7.960,6.824 C7.960,6.824 10.022,8.316 10.022,8.316 C10.022,8.316 6.279,13.491 6.279,13.491 C6.279,13.491 9.993,18.238 9.993,18.238 Z" id="path-1" fill-rule="evenodd"/>
    </g>
</svg>
