<svg xmlns="http://www.w3.org/2000/svg" width="26" height="18" preserveAspectRatio="xMidYMid" viewBox="0 0 39 27"><path fill-rule="evenodd" d="M34.53 15.295l-7.197 7.198a2.545 2.545 0 0 1-3.6 0l-7.197-7.198a2.545 2.545 0 0 1 0-3.6L23.734 4.5a2.545 2.545 0 0 1 3.6 0l7.197 7.198a2.545 2.545 0 0 1 0 3.6zm-21.735-1.04l4.828 6.085-1.994 1.58-4.852-6.113c-1.024-1.374-1.024-3.25-.024-4.592L15.63 5.07l1.993 1.58-4.852 6.117c-.308.416-.308 1.04.025 1.49zM9.993 18.24l-2.004 1.57-3.91-5.015a2.546 2.546 0 0 1 0-2.594l3.88-5.376 2.062 1.492L6.28 13.49l3.713 4.748z"/></svg>