<svg xmlns="http://www.w3.org/2000/svg" xmlns:xlink="http://www.w3.org/1999/xlink" preserveAspectRatio="xMidYMid" width="5" height="7" viewBox="0 0 5 7">
  
  <g id="group-1">
    <path d="M3.000,5.969 C3.000,5.969 3.000,5.000 3.000,5.000 C3.000,5.000 3.938,5.000 3.938,5.000 C3.938,5.000 3.938,5.969 3.938,5.969 C3.938,5.969 3.000,5.969 3.000,5.969 ZM3.000,1.000 C3.000,1.000 3.938,1.000 3.938,1.000 C3.938,1.000 3.938,1.969 3.938,1.969 C3.938,1.969 3.000,1.969 3.000,1.969 C3.000,1.969 3.000,1.000 3.000,1.000 ZM2.000,4.000 C2.000,4.000 2.937,4.000 2.937,4.000 C2.937,4.000 2.937,4.969 2.937,4.969 C2.937,4.969 2.000,4.969 2.000,4.969 C2.000,4.969 2.000,4.000 2.000,4.000 ZM2.000,2.000 C2.000,2.000 2.937,2.000 2.937,2.000 C2.937,2.000 2.937,2.969 2.937,2.969 C2.937,2.969 2.000,2.969 2.000,2.969 C2.000,2.969 2.000,2.000 2.000,2.000 ZM1.000,3.000 C1.000,3.000 1.937,3.000 1.937,3.000 C1.937,3.000 1.937,3.969 1.937,3.969 C1.937,3.969 1.000,3.969 1.000,3.969 C1.000,3.969 1.000,3.000 1.000,3.000 Z" id="path-1" class="cls-4" fill-rule="evenodd"/>
  </g>
</svg>
