<svg xmlns="http://www.w3.org/2000/svg" xmlns:xlink="http://www.w3.org/1999/xlink" preserveAspectRatio="xMidYMid" width="25" height="25" viewBox="0 0 25 25">
  
  <g id="arrowsvg">
    <circle id="circle-1" class="cls-4" cx="13" cy="12" r="11"/>
    <path d="M11.932,17.563 C12.113,17.563 12.294,17.489 12.431,17.340 C12.431,17.340 16.837,12.588 16.837,12.588 C17.110,12.294 17.110,11.819 16.837,11.525 C16.837,11.525 12.225,6.773 12.225,6.773 C11.951,6.477 11.506,6.475 11.231,6.769 C10.955,7.062 10.953,7.540 11.227,7.835 C11.227,7.835 15.348,12.056 15.348,12.056 C15.348,12.056 11.434,16.277 11.434,16.277 C11.160,16.573 11.161,17.050 11.437,17.344 C11.574,17.490 11.753,17.563 11.932,17.563 Z" id="path-1" class="cls-5" fill-rule="evenodd"/>
  </g>
</svg>
