<svg class="symbol_auto_refreshing_layout_clipart" version="1.1" xmlns="http://www.w3.org/2000/svg" xmlns:xlink="http://www.w3.org/1999/xlink" width="62px" height="112px" viewBox="0 0 62 112">
  <path fill="#4EB7F5" d="M62,93H0V6h62V93z"/>
  <path fill="#6DD0F2" d="M62,106c0,3.314-2.686,6-6,6H6c-3.314,0-6-2.686-6-6V6c0-3.314,2.686-6,6-6h50c3.314,0,6,2.686,6,6V106zM62,6H0v87h62V6z"/>
  <path fill="#3899EC" d="M31,98.5c1.933,0,3.5,1.567,3.5,3.5s-1.567,3.5-3.5,3.5s-3.5-1.567-3.5-3.5S29.067,98.5,31,98.5z"/>
  <path fill="none" stroke="#FFFFFF" stroke-linecap="round" stroke-miterlimit="10" stroke-dasharray="1,2" d="M48.5,44.5
                                                                                                             c0,0.552-0.448,1-1,1h-34c-0.552,0-1-0.448-1-1v-24c0-0.552,0.448-1,1-1h34c0.552,0,1,0.448,1,1V44.5z"/>
  <path fill="none" stroke="#FFFFFF" stroke-linecap="round" stroke-miterlimit="10" stroke-dasharray="1,2" d="M12.5,92.5V62.963
                                                                                                             c0-0.552,0.948-0.463,1.5-0.463h34c0.552,0,0.5-0.089,0.5,0.463V92.5H12.5z"/>
  <path fill="#3899EC" d="M52.335,41.021c-0.086,0.546-0.597,0.919-1.143,0.833l-29.393-4.61c-0.546-0.086-0.919-0.597-0.833-1.143
                          l3.653-23.294c0.086-0.546,0.597-0.919,1.143-0.833l29.393,4.61c0.546,0.086,0.919,0.597,0.833,1.143L52.335,41.021z"/>
  <path fill="#3899EC" d="M27.459,59.322c0.299,0.568,0.059,1.282-0.535,1.594l-15.056,7.916c-0.594,0.312-1.318,0.105-1.616-0.463
                          L4.304,57.056c-0.299-0.568-0.059-1.282,0.535-1.594l15.056-7.916c0.594-0.312,1.318-0.105,1.616,0.463L27.459,59.322z"/>
  <path fill="#3899EC" d="M11.321,93L7.042,78.899c-0.159-0.529,0.143-0.995,0.674-1.153l32.671-9.685
                          c0.531-0.158,1.089-0.018,1.248,0.512L49,93H11.321z"/>
  <path fill="#3899EC" d="M48.446,59.143L30.61,56.719l0.269-1.982l17.836,2.425L48.446,59.143z"/>
  <path fill="#3899EC" d="M45.156,53.65l-13.872-1.886l0.269-1.982l13.872,1.886L45.156,53.65z"/>
</svg>
