<svg xmlns="http://www.w3.org/2000/svg" width="62" height="112" class="symbol_auto_refreshing_layout_clipart" viewBox="0 0 62 112"><path fill="#4EB7F5" d="M62 93H0V6h62v87z"/><path fill="#6DD0F2" d="M62 106a6 6 0 0 1-6 6H6a6 6 0 0 1-6-6V6a6 6 0 0 1 6-6h50a6 6 0 0 1 6 6v100zM62 6H0v87h62V6z"/><path fill="#3899EC" d="M31 98.5a3.5 3.5 0 1 1 0 7 3.5 3.5 0 0 1 0-7z"/><path fill="none" stroke="#FFF" stroke-miterlimit="10" d="M48.5 44.5a1 1 0 0 1-1 1h-34a1 1 0 0 1-1-1v-24a1 1 0 0 1 1-1h34a1 1 0 0 1 1 1v24zM12.5 92.5V62.963c0-.552.948-.463 1.5-.463h34c.552 0 .5-.09.5.463V92.5h-36z" stroke-linecap="round" stroke-dasharray="1 2"/><path fill="#3899EC" d="M52.335 41.02a1 1 0 0 1-1.143.834L21.8 37.244a1 1 0 0 1-.834-1.143l3.653-23.293a1 1 0 0 1 1.142-.833l29.393 4.61a1 1 0 0 1 .833 1.143L52.335 41.02zM27.46 59.322c.298.568.058 1.282-.536 1.594l-15.056 7.916c-.594.312-1.318.105-1.616-.463L4.304 57.055c-.3-.568-.06-1.282.535-1.594l15.055-7.916c.594-.312 1.318-.105 1.616.463l5.95 11.312zM11.32 93L7.043 78.9c-.16-.53.143-.996.674-1.154l32.67-9.685c.532-.157 1.09-.017 1.25.513L49 93H11.32zM48.446 59.143L30.61 56.72l.27-1.983 17.835 2.425-.27 1.98zM45.156 53.65l-13.872-1.886.27-1.982 13.87 1.886-.268 1.982z"/></svg>