<?xml version="1.0" encoding="utf-8"?>
<svg xmlns="http://www.w3.org/2000/svg"	xmlns:xlink="http://www.w3.org/1999/xlink" width="9px" height="8px" viewBox="-0.2 0 9 7.7">
    <path fill="rgb(43,86,114)" d="M 8.33 1.75C 8.33 1.75 3.64 7.02 3.64 7.02 3.64 7.03 3.64 7.03 3.63 7.03 3.56 7.2 3.46 7.35 3.31 7.45 2.91 7.71 2.4 7.56 2.17 7.11 2.17 7.11-0.08 4.26-0.08 4.26-0.31 3.81-0.17 3.23 0.23 2.97 0.63 2.71 1.14 2.87 1.37 3.32 1.37 3.32 2.87 5.23 2.87 5.23 2.87 5.23 7.15 0.42 7.15 0.42 7.48 0.05 8 0.05 8.33 0.42 8.66 0.79 8.66 1.38 8.33 1.75Z"/>
</svg>