<svg version="1.1" xmlns="http://www.w3.org/2000/svg" xmlns:xlink="http://www.w3.org/1999/xlink" x="0px" y="0px" width="26px" height="24px" viewBox="0 0 26 24">


    


    <g class="image-icon">
        <g class="bg">
            <path class="st2" d="M26,21.6c0,1.5-1.3,2.4-2.9,2.4H2.9C1.3,24,0,23.1,0,21.6V2.9C0,1.4,1.3,0,2.9,0h20.2C24.7,0,26,1.4,26,2.9V21.6z"/>
        </g>
        <g class="icon">
            <path class="st6" d="M20,8.5C20,7,19.1,6,17.9,6H8.1C6.9,6,6,7,6,8.5V16c0,1.5,0.9,3,2.1,3h9.8c1.2,0,2.1-1.5,2.1-3V8.5z M8.9,7.8c0.6,0,1.1,0.9,1.1,1.6S9.4,11,8.9,11c-0.6,0-1.1-0.7-1.1-1.5S8.3,7.8,8.9,7.8z M7.5,17l2.1-2.8l0.7,1.8l4.2-4.6l4.2,5.6H7.5z"/>
        </g>
    </g>
</svg>