<?xml version="1.0" encoding="utf-8"?>
<svg xmlns="http://www.w3.org/2000/svg" xmlns:xlink="http://www.w3.org/1999/xlink" viewBox="0 0 18 18" width="18px" height="18px">
<clipPath id="clip0">
<use xlink:href="#symbolInfoIcon"/>
</clipPath>
<defs>
<circle id="symbolInfoIcon" cx="9.00" cy="9.00" r="8.00"/>
</defs>
<use opacity="0.80" clip-path="url(#clip0)" xlink:href="#symbolInfoIcon" fill="none" stroke="rgb(57,85,113)" stroke-width="1.50px"/>
<path fill="rgb(57,85,113)" fill-rule="evenodd" d="M 10.09 11.8C 10.09 11.8 8.86 12.32 8.86 12.32 8.86 12.32 8.88 11.53 8.88 11.53 8.88 11.53 9.52 11.26 9.52 11.26 9.52 11.26 10.69 7.57 10.69 7.57 10.74 7.32 10.63 7.07 10.41 6.93 10.18 6.78 9.88 6.77 9.64 6.89 9.64 6.89 7.46 7.9 7.46 7.9 7.11 8.07 6.99 8.46 7.18 8.77 7.38 9.07 7.81 9.18 8.16 9.01 8.16 9.01 9.12 8.52 9.12 8.52 9.12 8.52 9.13 9.16 9.13 9.16 9.13 9.16 8.46 9.51 8.46 9.51 8.46 9.51 7.34 13.24 7.34 13.24 7.29 13.47 7.39 13.71 7.59 13.86 7.72 13.95 7.88 14 8.04 14 8.14 14 8.24 13.98 8.33 13.95 8.33 13.95 10.66 12.97 10.66 12.97 11.02 12.83 11.19 12.45 11.03 12.13 10.87 11.81 10.45 11.66 10.09 11.8 10.09 11.8 10.09 11.8 10.09 11.8ZM 9.62 5.8C 9.89 5.8 10.15 5.7 10.34 5.54 10.53 5.37 10.64 5.13 10.64 4.89 10.64 4.65 10.53 4.42 10.34 4.25 10.15 4.08 9.88 3.98 9.62 3.98 9.35 3.98 9.09 4.08 8.9 4.25 8.71 4.42 8.6 4.65 8.6 4.89 8.6 5.13 8.71 5.37 8.9 5.54 9.09 5.7 9.35 5.8 9.62 5.8Z"/>
</svg>