<svg xmlns="http://www.w3.org/2000/svg" width="18" height="18" xmlns:xlink="http://www.w3.org/1999/xlink" viewBox="0 0 18 18"><clipPath id="b"><use xlink:href="#a"/></clipPath><defs><circle id="a" cx="9" cy="9" r="8"/></defs><use fill="none" stroke="#395571" stroke-width="1.5" opacity=".8" clip-path="url(#b)" xlink:href="#a"/><path fill="#395571" fill-rule="evenodd" d="M10.09 11.8l-1.23.52.02-.79.64-.27 1.17-3.69c.05-.25-.06-.5-.28-.64a.784.784 0 0 0-.77-.04L7.46 7.9c-.35.17-.47.56-.28.87.2.3.63.41.98.24l.96-.49.01.64-.67.35-1.12 3.73c-.05.23.05.47.25.62.13.09.29.14.45.14.1 0 .2-.02.29-.05l2.33-.98c.36-.14.53-.52.37-.84-.16-.32-.58-.47-.94-.33zm-.47-6c.27 0 .53-.1.72-.26.19-.17.3-.41.3-.65 0-.24-.11-.47-.3-.64-.19-.17-.46-.27-.72-.27-.27 0-.53.1-.72.27-.19.17-.3.4-.3.64s.11.48.3.65c.19.16.45.26.72.26z"/></svg>