<svg xmlns="http://www.w3.org/2000/svg" width="26" height="24" viewBox="0 0 26 24"><g class="slideshow-icon"><path d="M26 21.6c0 1.5-1.3 2.4-2.9 2.4H2.9C1.3 24 0 23.1 0 21.6V2.9C0 1.4 1.3 0 2.9 0h20.2C24.7 0 26 1.4 26 2.9v18.7z" class="bg st2"/><g class="icon"><path d="M21 12c0-.6-.4-1-1-1h-8c-.6 0-1 .4-1 1v7c0 .6.4 1 1 1h8c.6 0 1-.4 1-1v-7zm-7.9 1.5c0-.3.2-.5.5-.5h1c.3 0 .5.2.5.5v1c0 .3-.2.5-.5.5h-1c-.3 0-.5-.2-.5-.5v-1zM19 18h-5.9l5.9-4v4z" class="st6"/><path d="M18 10V9c0-.6-.4-1-.9-1h-8C8.5 8 8 8.4 8 9v7c0 .6.5 1 1.1 1h.9v-6c0-.6.5-1 1.1-1H18z" class="st6"/><path d="M15 7V6c0-.6-.4-1-.9-1h-8C5.5 5 5 5.4 5 6v7c0 .6.5 1 1.1 1H7V8c0-.6.5-1 1.1-1H15z" class="st6"/></g></g></svg>