<svg version="1.1" xmlns="http://www.w3.org/2000/svg" xmlns:xlink="http://www.w3.org/1999/xlink" x="0px" y="0px" width="26px" height="24px" viewBox="0 0 26 24">
    

    <g class="slideshow-icon">
        <g class="bg">
            <path class="st2" d="M26,21.6c0,1.5-1.3,2.4-2.9,2.4H2.9C1.3,24,0,23.1,0,21.6V2.9C0,1.4,1.3,0,2.9,0h20.2C24.7,0,26,1.4,26,2.9V21.6z"/>
        </g>
        <g class="icon">
            <path class="st6" d="M21,12c0-0.6-0.4-1-1-1h-8c-0.6,0-1,0.4-1,1v7c0,0.6,0.4,1,1,1h8c0.6,0,1-0.4,1-1V12z M13.1,13.5c0-0.3,0.2-0.5,0.5-0.5h1c0.3,0,0.5,0.2,0.5,0.5v1c0,0.3-0.2,0.5-0.5,0.5h-1c-0.3,0-0.5-0.2-0.5-0.5V13.5z M19,18h-5.9l5.9-4V18z"/>
            <path class="st6" d="M18,10V9c0-0.6-0.4-1-0.9-1h-8C8.5,8,8,8.4,8,9v7c0,0.6,0.5,1,1.1,1H10v-6c0-0.6,0.5-1,1.1-1H18z"/>
            <path class="st6" d="M15,7V6c0-0.6-0.4-1-0.9-1h-8C5.5,5,5,5.4,5,6v7c0,0.6,0.5,1,1.1,1H7V8c0-0.6,0.5-1,1.1-1H15z"/>
        </g>
    </g>
</svg>

