<svg version="1.1" xmlns="http://www.w3.org/2000/svg" xmlns:xlink="http://www.w3.org/1999/xlink" x="0px" y="0px" width="26px" height="24px" viewBox="0 0 26 24">

    

    <g class="video-icon">
        <g class="bg">
            <path class="st2" d="M26,21.6c0,1.5-1.3,2.4-2.9,2.4H2.9C1.3,24,0,23.1,0,21.6V2.9C0,1.4,1.3,0,2.9,0h20.2C24.7,0,26,1.4,26,2.9V21.6z"/>
        </g>
        <g class="icon">
            <path class="st6" d="M18,10.9v-1C18,8.2,16.7,7,15.1,7h-7C6.4,7,5,8.2,5,9.9v5C5,16.5,6.4,18,8.1,18h7c1.7,0,2.9-1.5,2.9-3.1v-1l4,3v-9L18,10.9z M14,11H9c-0.6,0-1-0.4-1-1s0.4-1,1-1h5c0.6,0,1,0.4,1,1S14.6,11,14,11z"/>
        </g>
    </g>
</svg>
