<?xml version="1.0" encoding="UTF-8" standalone="no"?>
<svg width="140px" height="128px" viewBox="0 0 140 128" version="1.1" xmlns="http://www.w3.org/2000/svg" xmlns:xlink="http://www.w3.org/1999/xlink" xmlns:sketch="http://www.bohemiancoding.com/sketch/ns">
    <g id="Page-1" stroke="none" stroke-width="1" fill="none" fill-rule="evenodd" sketch:type="MSPage">
        <g id="bigtopin" sketch:type="MSLayerGroup">
            <path d="M135,124.037 C135,125.694 105.45,127.037 69,127.037 C32.549,127.037 3,125.694 3,124.037 C3,122.38 32.549,121.037 69,121.037 C105.45,121.037 135,122.38 135,124.037" id="Fill-1" fill="#D3EDFF" sketch:type="MSShapeGroup"></path>
            <path d="M75.286,101 L63.834,101 C63.834,101 61.3,116.421 54.698,122.248 C54.003,122.861 54.421,124 55.349,124 L83.772,124 C84.699,124 85.118,122.861 84.423,122.248 C77.82,116.421 75.286,101 75.286,101" id="Fill-2" fill="#5FCEF6" sketch:type="MSShapeGroup"></path>
            <path d="M140,103 C140,105.209 138.209,107 136,107 L4,107 C1.791,107 0,105.209 0,103 L0,4 C0,1.791 1.791,0 4,0 L136,0 C138.209,0 140,1.791 140,4 L140,103" id="Fill-3" fill="#A7E3FA" sketch:type="MSShapeGroup"></path>
            <path d="M0,19 L0,4 C0,1.791 1.791,0 4,0 L136,0 C138.209,0 140,1.791 140,4 L140,19 L0,19 Z" id="titlebar" fill="#5FCEF6" sketch:type="MSShapeGroup"></path>
            <path d="M27,19 L113,19 L113,107 L27,107 L27,19 L27,19 Z" id="middle" fill="#EBF8FF" sketch:type="MSShapeGroup"></path>
            <path d="M1,37.5 L140,37.5 M26.5,106 L26.5,19 M113.723,105.999 L113.297,19" id="lines" stroke="#3899EC" stroke-dasharray="1,3" sketch:type="MSShapeGroup"></path>
            <path d="M12.233,9.353 C12.233,10.734 11.114,11.854 9.733,11.854 C8.352,11.854 7.233,10.734 7.233,9.353 C7.233,7.973 8.352,6.853 9.733,6.853 C11.114,6.853 12.233,7.973 12.233,9.353" id="Fill-9" fill="#FFFFFF" sketch:type="MSShapeGroup"></path>
            <path d="M21.053,9.353 C21.053,10.734 19.933,11.854 18.553,11.854 C17.172,11.854 16.052,10.734 16.052,9.353 C16.052,7.973 17.172,6.853 18.553,6.853 C19.933,6.853 21.053,7.973 21.053,9.353" id="Fill-10" fill="#FFFFFF" sketch:type="MSShapeGroup"></path>
            <path d="M132,9.562 C132,10.929 130.892,12.037 129.525,12.037 L27.475,12.037 C26.108,12.037 25,10.929 25,9.562 L25,9.512 C25,8.145 26.108,7.037 27.475,7.037 L129.525,7.037 C130.892,7.037 132,8.145 132,9.512 L132,9.562" id="Fill-11" fill="#FFFFFF" sketch:type="MSShapeGroup"></path>
            <path d="M98,100.266 C98,101.224 97.088,102 96.256,102 L43.507,102 C42.675,102 42,101.224 42,100.266 L42,73.733 C42,72.776 42.675,72 43.507,72 L96.256,72 C97.088,72 98,72.776 98,73.733 L98,100.266" id="Fill-13" fill="#5FCEF6" sketch:type="MSShapeGroup"></path>
            <path d="M38.5,68.5 L101.5,68.5 L101.5,105.5 L38.5,105.5 L38.5,68.5 L38.5,68.5 Z" id="Stroke-14" stroke="#5FCEF6" sketch:type="MSShapeGroup"></path>
            <path d="M40.56,68 C40.56,69.104 39.665,70 38.56,70 C37.455,70 36.56,69.104 36.56,68 C36.56,66.896 37.455,66 38.56,66 C39.665,66 40.56,66.896 40.56,68" id="Fill-15" fill="#5FCEF6" sketch:type="MSShapeGroup"></path>
            <path d="M40.56,105 C40.56,106.104 39.665,107 38.56,107 C37.455,107 36.56,106.104 36.56,105 C36.56,103.895 37.455,103 38.56,103 C39.665,103 40.56,103.895 40.56,105" id="Fill-16" fill="#5FCEF6" sketch:type="MSShapeGroup"></path>
            <path d="M103.56,68 C103.56,69.104 102.665,70 101.56,70 C100.455,70 99.56,69.104 99.56,68 C99.56,66.896 100.455,66 101.56,66 C102.665,66 103.56,66.896 103.56,68" id="Fill-17" fill="#5FCEF6" sketch:type="MSShapeGroup"></path>
            <path d="M103.56,105 C103.56,106.104 102.665,107 101.56,107 C100.455,107 99.56,106.104 99.56,105 C99.56,103.895 100.455,103 101.56,103 C102.665,103 103.56,103.895 103.56,105" id="Fill-18" fill="#5FCEF6" sketch:type="MSShapeGroup"></path>
        </g>
    </g>
</svg>
