<svg xmlns="http://www.w3.org/2000/svg" width="140" height="128" viewBox="0 0 140 128"><g fill="none" fill-rule="evenodd"><path fill="#D3EDFF" d="M135 124.037c0 1.657-29.55 3-66 3s-66-1.343-66-3 29.55-3 66-3 66 1.343 66 3"/><path fill="#5FCEF6" d="M75.286 101H63.834s-2.534 15.42-9.136 21.248c-.695.613-.277 1.752.65 1.752h28.424c.927 0 1.346-1.14.65-1.752C77.82 116.42 75.287 101 75.287 101"/><path fill="#A7E3FA" d="M140 103a4 4 0 0 1-4 4H4a4 4 0 0 1-4-4V4a4 4 0 0 1 4-4h132a4 4 0 0 1 4 4v99"/><path fill="#5FCEF6" d="M0 19V4a4 4 0 0 1 4-4h132a4 4 0 0 1 4 4v15H0z"/><path fill="#EBF8FF" d="M27 19h86v88H27V19z"/><path stroke="#3899EC" d="M1 37.5h139M26.5 106V19m87.223 87l-.426-87" stroke-dasharray="1 3"/><path fill="#FFF" d="M12.233 9.353a2.5 2.5 0 1 1-5 0 2.5 2.5 0 0 1 5 0M21.053 9.353a2.5 2.5 0 1 1-5.002 0 2.5 2.5 0 0 1 5.003 0M132 9.562a2.475 2.475 0 0 1-2.475 2.475H27.475A2.475 2.475 0 0 1 25 9.562v-.05a2.475 2.475 0 0 1 2.475-2.475h102.05A2.475 2.475 0 0 1 132 9.512v.05"/><path fill="#5FCEF6" d="M98 100.266c0 .958-.912 1.734-1.744 1.734h-52.75c-.83 0-1.506-.776-1.506-1.734V73.733c0-.957.675-1.733 1.507-1.733h52.75c.83 0 1.743.776 1.743 1.733v26.533"/><path stroke="#5FCEF6" d="M38.5 68.5h63v37h-63v-37z"/><path fill="#5FCEF6" d="M40.56 68a2 2 0 1 1-4 0 2 2 0 0 1 4 0M40.56 105a2 2 0 1 1-4 0 2 2 0 0 1 4 0M103.56 68a2 2 0 1 1-4 0 2 2 0 0 1 4 0M103.56 105a2 2 0 1 1-4 0 2 2 0 0 1 4 0"/></g></svg>