<?xml version="1.0" encoding="utf-8"?>
<svg xmlns="http://www.w3.org/2000/svg"
	xmlns:xlink="http://www.w3.org/1999/xlink"
	width="14px" height="14px" viewBox="0 0 14 14">
<path fill-rule="evenodd" d="M 12.15 8.04C 12.15 8.04 12.15 5.36 12.15 5.36 12.15 5.36 14.15 5.36 14.15 5.36 14.15 5.36 14.15 8.04 14.15 8.04 14.15 8.04 12.15 8.04 12.15 8.04ZM 10.85 2.04C 10.85 2.04 10.85 0.04 10.85 0.04 12.51 0.04 13.85 1.39 13.85 3.04 13.85 3.04 11.85 3.04 11.85 3.04 11.85 2.49 11.41 2.04 10.85 2.04ZM 5.55-0.04C 5.55-0.04 8.75-0.04 8.75-0.04 8.75-0.04 8.75 1.96 8.75 1.96 8.75 1.96 5.55 1.96 5.55 1.96 5.55 1.96 5.55-0.04 5.55-0.04ZM 8.75 13.96C 8.75 13.96 5.55 13.96 5.55 13.96 5.55 13.96 5.55 11.96 5.55 11.96 5.55 11.96 8.75 11.96 8.75 11.96 8.75 11.96 8.75 13.96 8.75 13.96ZM-0.15 11.04C-0.15 11.04 1.85 11.04 1.85 11.04 1.85 11.59 2.3 12.04 2.85 12.04 2.85 12.04 2.85 14.04 2.85 14.04 1.2 14.04-0.15 12.7-0.15 11.04ZM 2.15 8.24C 2.15 8.24 0.15 8.24 0.15 8.24 0.15 8.24 0.15 5.36 0.15 5.36 0.15 5.36 2.15 5.36 2.15 5.36 2.15 5.36 2.15 8.24 2.15 8.24ZM 1.85 3.04C 1.85 3.04-0.15 3.04-0.15 3.04-0.15 1.39 1.2 0.04 2.85 0.04 2.85 0.04 2.85 2.04 2.85 2.04 2.3 2.04 1.85 2.49 1.85 3.04ZM 11.85 11.04C 11.85 11.04 13.85 11.04 13.85 11.04 13.85 12.7 12.51 14.04 10.85 14.04 10.85 14.04 10.85 12.04 10.85 12.04 11.41 12.04 11.85 11.59 11.85 11.04Z"/>
</svg>