<svg xmlns="http://www.w3.org/2000/svg" xmlns:xlink="http://www.w3.org/1999/xlink" width="51" height="51" viewBox="0 0 51 51">
  
  <g id="group-1">
    <path d="M30.500,35.000 C30.500,35.000 30.500,30.000 30.500,30.000 C30.500,30.000 35.500,30.000 35.500,30.000 C35.500,30.000 35.500,35.000 35.500,35.000 C35.500,35.000 30.500,35.000 30.500,35.000 ZM34.500,28.000 C34.500,28.000 17.500,28.000 17.500,28.000 C16.948,28.000 16.500,27.552 16.500,27.000 C16.500,27.000 16.500,17.000 16.500,17.000 C16.500,16.448 16.948,16.000 17.500,16.000 C17.500,16.000 34.500,16.000 34.500,16.000 C35.052,16.000 35.500,16.448 35.500,17.000 C35.500,17.000 35.500,27.000 35.500,27.000 C35.500,27.552 35.052,28.000 34.500,28.000 ZM21.500,35.000 C21.500,35.000 16.500,35.000 16.500,35.000 C16.500,35.000 16.500,30.000 16.500,30.000 C16.500,30.000 21.500,30.000 21.500,30.000 C21.500,30.000 21.500,35.000 21.500,35.000 ZM28.500,35.000 C28.500,35.000 23.500,35.000 23.500,35.000 C23.500,35.000 23.500,30.000 23.500,30.000 C23.500,30.000 28.500,30.000 28.500,30.000 C28.500,30.000 28.500,35.000 28.500,35.000 Z" id="path-1" class="cls-5" fill-rule="evenodd"/>
  </g>
</svg>
