<svg xmlns="http://www.w3.org/2000/svg" width="22" height="22" preserveAspectRatio="xMidYMid" viewBox="0 0 22 22"><path fill-rule="evenodd" d="M20.358 9.44h-3.12V6.32c0-.86-.686-1.56-1.547-1.56h-.01-3.12V1.643c0-.86-.7-1.56-1.56-1.56H1.642c-.86 0-1.56.7-1.56 1.56V11c0 .86.7 1.56 1.56 1.56h3.12v3.12c0 .86.698 1.56 1.56 1.56H9.44v3.118c0 .86.7 1.56 1.56 1.56h9.358c.86 0 1.56-.7 1.56-1.56V11c0-.86-.7-1.56-1.56-1.56zM18.026 11L11 18.026V14.12l.387.385 3.12-3.12-.388-.385h3.906zM11 13.347V11h2.347L11 13.347zM4.76 6.32V11H1.643V1.642H11v3.12H6.32c-.86 0-1.56.698-1.56 1.56zM9.44 11v4.68H6.32V6.32h9.36v3.12H11c-.86 0-1.56.7-1.56 1.56zM11 18.798l.387.386 7.798-7.8-.387-.384h1.56v3.12l-.387-.386-6.237 6.24.386.384H11v-1.56zm9.358-3.907V18.8l-.387-.385-1.558 1.56.386.385H14.89l5.468-5.467zm-.788 5.468l.788-.788v.788h-.788z" class="cls-4"/></svg>