<svg xmlns="http://www.w3.org/2000/svg" xmlns:xlink="http://www.w3.org/1999/xlink" preserveAspectRatio="xMidYMid" width="22" height="22" viewBox="0 0 22 22">
    <path d="M20.358,9.440 C20.358,9.440 17.239,9.440 17.239,9.440 C17.239,9.440 17.239,6.321 17.239,6.321 C17.239,5.460 16.552,4.761 15.691,4.761 C15.691,4.761 15.679,4.761 15.679,4.761 C15.679,4.761 12.560,4.761 12.560,4.761 C12.560,4.761 12.560,1.642 12.560,1.642 C12.560,0.781 11.861,0.082 11.000,0.082 C11.000,0.082 1.642,0.082 1.642,0.082 C0.781,0.082 0.082,0.781 0.082,1.642 C0.082,1.642 0.082,11.000 0.082,11.000 C0.082,11.861 0.781,12.560 1.642,12.560 C1.642,12.560 4.761,12.560 4.761,12.560 C4.761,12.560 4.761,15.679 4.761,15.679 C4.761,16.540 5.460,17.239 6.321,17.239 C6.321,17.239 9.440,17.239 9.440,17.239 C9.440,17.239 9.440,20.358 9.440,20.358 C9.440,21.219 10.139,21.918 11.000,21.918 C11.000,21.918 20.358,21.918 20.358,21.918 C21.219,21.918 21.918,21.219 21.918,20.358 C21.918,20.358 21.918,11.000 21.918,11.000 C21.918,10.139 21.219,9.440 20.358,9.440 ZM18.026,11.000 C18.026,11.000 11.000,18.026 11.000,18.026 C11.000,18.026 11.000,14.119 11.000,14.119 C11.000,14.119 11.387,14.505 11.387,14.505 C11.387,14.505 14.506,11.385 14.506,11.385 C14.506,11.385 14.119,11.000 14.119,11.000 C14.119,11.000 18.026,11.000 18.026,11.000 ZM11.000,13.347 C11.000,13.347 11.000,11.000 11.000,11.000 C11.000,11.000 13.347,11.000 13.347,11.000 C13.347,11.000 11.000,13.347 11.000,13.347 ZM4.761,6.321 C4.761,6.321 4.761,11.000 4.761,11.000 C4.761,11.000 1.642,11.000 1.642,11.000 C1.642,11.000 1.642,1.642 1.642,1.642 C1.642,1.642 11.000,1.642 11.000,1.642 C11.000,1.642 11.000,4.761 11.000,4.761 C11.000,4.761 6.321,4.761 6.321,4.761 C5.460,4.761 4.761,5.460 4.761,6.321 ZM9.440,11.000 C9.440,11.000 9.440,15.679 9.440,15.679 C9.440,15.679 6.321,15.679 6.321,15.679 C6.321,15.679 6.321,6.321 6.321,6.321 C6.321,6.321 15.679,6.321 15.679,6.321 C15.679,6.321 15.679,9.440 15.679,9.440 C15.679,9.440 11.000,9.440 11.000,9.440 C10.139,9.440 9.440,10.139 9.440,11.000 ZM11.000,18.798 C11.000,18.798 11.387,19.184 11.387,19.184 C11.387,19.184 19.185,11.385 19.185,11.385 C19.185,11.385 18.798,11.000 18.798,11.000 C18.798,11.000 20.358,11.000 20.358,11.000 C20.358,11.000 20.358,14.119 20.358,14.119 C20.358,14.119 19.971,13.734 19.971,13.734 C19.971,13.734 13.733,19.973 13.733,19.973 C13.733,19.973 14.119,20.358 14.119,20.358 C14.119,20.358 11.000,20.358 11.000,20.358 C11.000,20.358 11.000,18.798 11.000,18.798 ZM20.358,14.891 C20.358,14.891 20.358,18.798 20.358,18.798 C20.358,18.798 19.971,18.413 19.971,18.413 C19.971,18.413 18.412,19.973 18.412,19.973 C18.412,19.973 18.798,20.358 18.798,20.358 C18.798,20.358 14.891,20.358 14.891,20.358 C14.891,20.358 20.358,14.891 20.358,14.891 ZM19.570,20.358 C19.570,20.358 20.358,19.570 20.358,19.570 C20.358,19.570 20.358,20.358 20.358,20.358 C20.358,20.358 19.570,20.358 19.570,20.358 Z" id="path-1" class="cls-4" fill-rule="evenodd"/>
</svg>
