<?xml version="1.0" encoding="utf-8"?>
<svg xmlns="http://www.w3.org/2000/svg"
	xmlns:xlink="http://www.w3.org/1999/xlink"
	width="14px" height="14px" viewBox="0 0 14 14" >
<path fill="rgb(55,153,235)" fill-rule="evenodd" d="M 12 13.97C 12 13.97 2 13.97 2 13.97 0.9 13.97 0 12.85 0 11.75 0 11.75 0 4.06 0 4.06 0 2.96 0.9 2.16 2 2.16 2 2.16 4 2.16 4 2.16 4 2.16 4 0.72 4 0.72 4 0.44 4.22 0.22 4.5 0.22 4.78 0.22 5 0.44 5 0.72 5 0.72 5 2.16 5 2.16 5 2.16 9 2.16 9 2.16 9 2.16 9 0.72 9 0.72 9 0.44 9.22 0.22 9.5 0.22 9.78 0.22 10 0.44 10 0.72 10 0.72 10 2.16 10 2.16 10 2.16 12 2.16 12 2.16 13.1 2.16 14 2.96 14 4.06 14 4.06 14 11.75 14 11.75 14 12.85 13.1 13.97 12 13.97ZM 13 4.06C 13 3.51 12.55 3.16 12 3.16 12 3.16 10 3.16 10 3.16 10 3.16 10 3.53 10 3.53 10 3.81 9.78 4.03 9.5 4.03 9.22 4.03 9 3.81 9 3.53 9 3.53 9 3.16 9 3.16 9 3.16 5 3.16 5 3.16 5 3.16 5 3.53 5 3.53 5 3.81 4.78 4.03 4.5 4.03 4.22 4.03 4 3.81 4 3.53 4 3.53 4 3.16 4 3.16 4 3.16 2 3.16 2 3.16 1.45 3.16 1 3.51 1 4.06 1 4.06 1 11.75 1 11.75 1 12.3 1.45 12.97 2 12.97 2 12.97 12 12.97 12 12.97 12.55 12.97 13 12.3 13 11.75 13 11.75 13 4.06 13 4.06ZM 9 9.06C 9 9.06 11 9.06 11 9.06 11 9.06 11 11 11 11 11 11 9 11 9 11 9 11 9 9.06 9 9.06ZM 9 6.09C 9 6.09 11 6.09 11 6.09 11 6.09 11 8.09 11 8.09 11 8.09 9 8.09 9 8.09 9 8.09 9 6.09 9 6.09ZM 6 9.06C 6 9.06 8 9.06 8 9.06 8 9.06 8 11 8 11 8 11 6 11 6 11 6 11 6 9.06 6 9.06ZM 6 6.09C 6 6.09 8 6.09 8 6.09 8 6.09 8 8.09 8 8.09 8 8.09 6 8.09 6 8.09 6 8.09 6 6.09 6 6.09ZM 3 9.06C 3 9.06 5 9.06 5 9.06 5 9.06 5 11 5 11 5 11 3 11 3 11 3 11 3 9.06 3 9.06ZM 3 6.09C 3 6.09 5 6.09 5 6.09 5 6.09 5 8.09 5 8.09 5 8.09 3 8.09 3 8.09 3 8.09 3 6.09 3 6.09Z"/>
</svg>