<svg xmlns="http://www.w3.org/2000/svg" width="14" height="14" viewBox="0 0 14 14"><path fill="#3799EB" fill-rule="evenodd" d="M12 13.97H2c-1.1 0-2-1.12-2-2.22V4.06c0-1.1.9-1.9 2-1.9h2V.72c0-.28.22-.5.5-.5s.5.22.5.5v1.44h4V.72c0-.28.22-.5.5-.5s.5.22.5.5v1.44h2c1.1 0 2 .8 2 1.9v7.69c0 1.1-.9 2.22-2 2.22zm1-9.91c0-.55-.45-.9-1-.9h-2v.37c0 .28-.22.5-.5.5s-.5-.22-.5-.5v-.37H5v.37c0 .28-.22.5-.5.5s-.5-.22-.5-.5v-.37H2c-.55 0-1 .35-1 .9v7.69c0 .55.45 1.22 1 1.22h10c.55 0 1-.67 1-1.22V4.06zm-4 5h2V11H9V9.06zm0-2.97h2v2H9v-2zM6 9.06h2V11H6V9.06zm0-2.97h2v2H6v-2zM3 9.06h2V11H3V9.06zm0-2.97h2v2H3v-2z"/></svg>