<svg xmlns="http://www.w3.org/2000/svg" width="55" height="42" viewBox="0 0 55 42"><path fill="#5B99E7" fill-rule="evenodd" d="M46.06 14.94c1.11 0 2-.89 2-1.99 0-1.09-.89-1.98-2-1.98-1.1 0-2 .89-2 1.98 0 1.1.9 1.99 2 1.99m0 2c-2.21 0-4-1.79-4-3.99s1.79-3.98 4-3.98 4 1.78 4 3.98-1.79 3.99-4 3.99z"/><path fill="#5B99E7" fill-rule="evenodd" d="M50.06 39.94c1.66 0 3-1.35 3-3V8.97c0-1.66-1.34-3-3-3H5.09c-1.65 0-3 1.34-3 3v27.97c0 1.65 1.35 3 3 3h44.97m0 2H5.09c-2.76 0-5-2.24-5-5V8.97c0-2.76 2.24-5 5-5h44.97c2.76 0 5 2.24 5 5v27.97c0 2.76-2.24 5-5 5z"/><path fill="#5B99E7" fill-rule="evenodd" d="M28.08 34.94c6.61 0 11.98-5.38 11.98-11.99s-5.37-11.98-11.98-11.98-11.99 5.37-11.99 11.98 5.38 11.99 11.99 11.99m0 2c-7.73 0-13.99-6.26-13.99-13.99 0-7.72 6.26-13.98 13.99-13.98 7.72 0 13.98 6.26 13.98 13.98 0 7.73-6.26 13.99-13.98 13.99zM38.89 3.97a2.99 2.99 0 0 0-2.83-2H19.09c-1.3 0-2.41.83-2.82 2h22.62m2.17 2H14.09v-1c0-2.76 2.24-5 5-5h16.97c2.76 0 5 2.24 5 5v1z"/></svg>