<?xml version="1.0" encoding="utf-8"?>
<svg xmlns="http://www.w3.org/2000/svg"
	xmlns:xlink="http://www.w3.org/1999/xlink"
	width="55px" height="42px" viewBox="0 0 55 42">
<path fill="rgb(91,153,231)" fill-rule="evenodd" d="M 46.06 14.94C 47.17 14.94 48.06 14.05 48.06 12.95 48.06 11.86 47.17 10.97 46.06 10.97 44.96 10.97 44.06 11.86 44.06 12.95 44.06 14.05 44.96 14.94 46.06 14.94M 46.06 16.94C 43.85 16.94 42.06 15.15 42.06 12.95 42.06 10.75 43.85 8.97 46.06 8.97 48.27 8.97 50.06 10.75 50.06 12.95 50.06 15.15 48.27 16.94 46.06 16.94 46.06 16.94 46.06 16.94 46.06 16.94Z"/>
<path fill="rgb(91,153,231)" fill-rule="evenodd" d="M 50.06 39.94C 51.72 39.94 53.06 38.59 53.06 36.94 53.06 36.94 53.06 8.97 53.06 8.97 53.06 7.31 51.72 5.97 50.06 5.97 50.06 5.97 5.09 5.97 5.09 5.97 3.44 5.97 2.09 7.31 2.09 8.97 2.09 8.97 2.09 36.94 2.09 36.94 2.09 38.59 3.44 39.94 5.09 39.94 5.09 39.94 50.06 39.94 50.06 39.94M 50.06 41.94C 50.06 41.94 5.09 41.94 5.09 41.94 2.33 41.94 0.09 39.7 0.09 36.94 0.09 36.94 0.09 8.97 0.09 8.97 0.09 6.21 2.33 3.97 5.09 3.97 5.09 3.97 50.06 3.97 50.06 3.97 52.82 3.97 55.06 6.21 55.06 8.97 55.06 8.97 55.06 36.94 55.06 36.94 55.06 39.7 52.82 41.94 50.06 41.94 50.06 41.94 50.06 41.94 50.06 41.94Z"/>
<path fill="rgb(91,153,231)" fill-rule="evenodd" d="M 28.08 34.94C 34.69 34.94 40.06 29.56 40.06 22.95 40.06 16.34 34.69 10.97 28.08 10.97 21.47 10.97 16.09 16.34 16.09 22.95 16.09 29.56 21.47 34.94 28.08 34.94M 28.08 36.94C 20.35 36.94 14.09 30.68 14.09 22.95 14.09 15.23 20.35 8.97 28.08 8.97 35.8 8.97 42.06 15.23 42.06 22.95 42.06 30.68 35.8 36.94 28.08 36.94 28.08 36.94 28.08 36.94 28.08 36.94Z"/>
<path fill="rgb(91,153,231)" fill-rule="evenodd" d="M 38.89 3.97C 38.48 2.8 37.37 1.97 36.06 1.97 36.06 1.97 19.09 1.97 19.09 1.97 17.79 1.97 16.68 2.8 16.27 3.97 16.27 3.97 38.89 3.97 38.89 3.97M 41.06 5.97C 41.06 5.97 14.09 5.97 14.09 5.97 14.09 5.97 14.09 4.97 14.09 4.97 14.09 2.21 16.33-0.03 19.09-0.03 19.09-0.03 36.06-0.03 36.06-0.03 38.82-0.03 41.06 2.21 41.06 4.97 41.06 4.97 41.06 5.97 41.06 5.97 41.06 5.97 41.06 5.97 41.06 5.97Z"/>
</svg>