<?xml version="1.0" encoding="utf-8"?>
<svg xmlns="http://www.w3.org/2000/svg"
	xmlns:xlink="http://www.w3.org/1999/xlink"
	width="11px" height="10px" viewBox="0 0 11 10">
<path fill-rule="evenodd" d="M 10.47 0.28C 10.03-0.05 9.4 0.04 9.07 0.48 9.07 0.48 3.84 7.4 3.84 7.4 3.84 7.4 1.87 5.1 1.87 5.1 1.52 4.68 0.89 4.63 0.46 4.98 0.04 5.34-0.01 5.96 0.35 6.38 0.35 6.38 3.12 9.62 3.12 9.62 3.15 9.65 3.18 9.66 3.2 9.68 3.23 9.71 3.25 9.75 3.29 9.77 3.33 9.8 3.37 9.82 3.41 9.84 3.45 9.86 3.48 9.88 3.52 9.89 3.64 9.94 3.76 9.97 3.88 9.97 3.88 9.97 3.89 9.97 3.89 9.97 3.89 9.97 3.89 9.97 3.89 9.97 4.02 9.97 4.15 9.94 4.28 9.88 4.32 9.87 4.35 9.84 4.39 9.82 4.43 9.79 4.49 9.77 4.53 9.74 4.57 9.71 4.58 9.67 4.61 9.64 4.63 9.61 4.66 9.6 4.68 9.58 4.68 9.58 10.67 1.66 10.67 1.66 11 1.23 10.91 0.61 10.47 0.28Z"/>
</svg>