<?xml version="1.0" encoding="utf-8"?>
<!-- Generator: Adobe Illustrator 19.0.0, SVG Export Plug-In . SVG Version: 6.00 Build 0)  -->
<svg version="1.1" id="Layer_3" xmlns="http://www.w3.org/2000/svg" xmlns:xlink="http://www.w3.org/1999/xlink" x="0px" y="0px"
	 width="134.7px" height="108.3px" viewBox="0 0 134.7 108.3" enable-background="new 0 0 134.7 108.3" xml:space="preserve">
<g>
	<ellipse fill="#D3EDFF" cx="61.5" cy="104.5" rx="61.5" ry="3.8"/>
	<path fill="#5FCEF5" d="M46.5,82.8h29.9c2.9,0,5.8-1.1,7.9-3.1C109.1,56.9,111.6,0,111.6,0H61.8h-0.6H11.4c0,0,2.5,56.9,27.2,79.7
		C40.8,81.7,43.6,82.8,46.5,82.8z"/>
	<path fill="none" stroke="#5FCEF5" stroke-width="7" stroke-miterlimit="10" d="M131.2,34.5c0,0.7-0.1,1.4-0.2,2.2
		c-2,16-21.1,27.8-36.2,27.8c-15,0-14.4-12.2-14.4-27.1c0-15,12.2-27.1,27.1-27.1C120.9,10.2,131.6,21.4,131.2,34.5z"/>
	<polygon fill="#4EB7F5" points="74.2,0 49.2,0 59.1,19.2 40.5,32.1 61.2,64.5 60.4,34.2 78,22.2 	"/>
	<polygon fill="#4599ED" points="69.8,27.8 46.7,27.8 40.5,32.1 61.2,64.5 60.4,34.2 	"/>
	<path fill="#A7E3FA" d="M28.8,3.8H16.9c0,0,3.1,36.9,12,53.4C37.4,73,43.5,77,43.5,77S29.9,51.5,28.8,3.8z"/>
</g>
</svg>
