<svg xmlns="http://www.w3.org/2000/svg" width="134.7" height="108.3" viewBox="0 0 134.7 108.3"><ellipse cx="61.5" cy="104.5" fill="#D3EDFF" rx="61.5" ry="3.8"/><path fill="#5FCEF5" d="M46.5 82.8h29.9c2.9 0 5.8-1.1 7.9-3.1C109.1 56.9 111.6 0 111.6 0H11.4s2.5 56.9 27.2 79.7c2.2 2 5 3.1 7.9 3.1z"/><path fill="none" stroke="#5FCEF5" stroke-width="7" stroke-miterlimit="10" d="M131.2 34.5c0 .7-.1 1.4-.2 2.2-2 16-21.1 27.8-36.2 27.8-15 0-14.4-12.2-14.4-27.1 0-15 12.2-27.1 27.1-27.1 13.4-.1 24.1 11.1 23.7 24.2z"/><path fill="#4EB7F5" d="M74.2 0h-25l9.9 19.2-18.6 12.9 20.7 32.4-.8-30.3 17.6-12z"/><path fill="#4599ED" d="M69.8 27.8H46.7l-6.2 4.3 20.7 32.4-.8-30.3z"/><path fill="#A7E3FA" d="M28.8 3.8H16.9s3.1 36.9 12 53.4C37.4 73 43.5 77 43.5 77S29.9 51.5 28.8 3.8z"/></svg>