<svg xmlns="http://www.w3.org/2000/svg" width="154" height="97" viewBox="0 0 154 97"><g fill="none" fill-rule="evenodd"><path fill="#E6EBED" d="M135 93.5c0 1.934-36.297 3.5-64.655 3.5C41.988 97 19 95.434 19 93.5c0-1.933 22.988-3.5 51.345-3.5C98.703 90 135 91.567 135 93.5"/><path fill="#81CCF7" d="M94.323 39.6a7.046 7.046 0 0 0-4.825-1.902c-3.908 0-7.075 2.168-7.075 6.075 0 3.24 2.177 5.97 5.15 6.81C88.182 50.754 98 53 98 53l-8 11 5 8v-4l11-16S95.707 40.89 94.323 39.6"/><path fill="#2B5672" d="M61.1 39.6a7.046 7.046 0 0 1 4.825-1.902c3.908 0 7.075 2.168 7.075 6.075 0 3.24-2.177 5.97-5.148 6.81-.613.172-10.43 2.417-10.43 2.417l7.79 11L60 72v-4L49.21 52S59.717 40.89 61.1 39.6"/><path stroke="#7992A5" stroke-width="2" d="M43.856 56h65.82" stroke-linecap="round" stroke-linejoin="round"/><path stroke="#2B5672" stroke-width="2" d="M105 77c0-8.284 6.716-15 15-15 8.284 0 15 6.716 15 15 0 8.284-6.716 15-15 15-8.284 0-15-6.716-15-15z"/><path fill="#7992A5" d="M116.732 77.052a2.982 2.982 0 0 1 2.978-2.986 2.982 2.982 0 0 1 2.978 2.986 2.982 2.982 0 0 1-2.978 2.986 2.982 2.982 0 0 1-2.978-2.986"/><path stroke="#2B5672" stroke-width="2" d="M19 77c0-8.284 6.716-15 15-15 8.284 0 15 6.716 15 15 0 8.284-6.716 15-15 15-8.284 0-15-6.716-15-15z"/><path fill="#7992A5" d="M31.732 77.052a2.982 2.982 0 0 1 2.978-2.986 2.982 2.982 0 0 1 2.978 2.986 2.982 2.982 0 0 1-2.978 2.986 2.982 2.982 0 0 1-2.978-2.986"/><path stroke="#7992A5" stroke-width="2" d="M108 49l12.468 28" stroke-linecap="round" stroke-linejoin="round"/><path stroke="#2B5672" stroke-width="2" d="M115.8 55.4a3.2 3.2 0 0 0 0-6.4H108" stroke-linecap="round" stroke-linejoin="round"/><path stroke="#2B5672" stroke-width="2" d="M82 49h9" stroke-linecap="round"/><path fill="#B1DDF8" d="M121 22.397c0 3.094-2.334 5.603-5.5 5.603s-5.5-2.51-5.5-5.603V19h11v3.397"/><path fill="#81CCF7" d="M110 19c0-2.917 3.134-7 7-7 3.867 0 7 4.083 7 7h-14"/><path stroke="#7992A5" stroke-width="2" d="M65.504 56L78 77l11.468-21m-42.523-7L34.477 77" stroke-linecap="round" stroke-linejoin="round"/><path stroke="#2B5672" stroke-width="2" d="M39.172 55.4a3.212 3.212 0 0 1-3.213-3.2c0-1.768 1.418-3.2 3.185-3.2H47" stroke-linecap="round" stroke-linejoin="round"/><path stroke="#2B5672" stroke-width="2" d="M73 49h-9" stroke-linecap="round"/><path stroke="#7992A5" stroke-width="2" d="M110.5 56.038c-5.318 12.32-18.09 21-33 21s-27.683-8.68-33-21" stroke-linecap="round" stroke-linejoin="round"/><path fill="#B1DDF8" d="M119 54c-.735-.848-8.98-9.805-8.98-9.805V30.223c0-3.89-2.228-5.463-5.41-5.463-10.61 0-22.885 6.865-22.885 18.457 0 2.2.964 4.177 2.492 5.528.51.452 9.783 11.62 9.783 11.62L90 81l7 3-3-4 7-21s-4.313-15.976-4.313-15.993C96.687 39.25 101 37 104.304 37c.3 4.584.716 8.57.716 8.57S115.688 54.687 117 56c.417.417 1.5.5 2 0 .625-.625.542-1.375 0-2"/><path fill="#7992A5" d="M36.126 54c.735-.848 8.98-9.805 8.98-9.805V30.223c0-3.89 2.228-5.463 5.41-5.463 10.61 0 22.884 6.865 22.884 18.457a7.36 7.36 0 0 1-2.49 5.528c-.512.452-9.784 11.62-9.784 11.62l4 20.635-7 3 3-4-7-21s4.313-15.976 4.313-15.993c0-3.757-4.314-6.007-7.62-6.007-.3 4.584-.715 8.57-.715 8.57S39.438 54.687 38.125 56c-.416.417-1.5.5-2 0-.624-.625-.54-1.375 0-2M34 22.397C34 25.49 36.334 28 39.5 28s5.5-2.51 5.5-5.603V19H34v3.397"/><path fill="#2B5672" d="M45 19c0-2.917-3.134-7-7-7s-7 4.083-7 7h14"/></g></svg>