<svg xmlns="http://www.w3.org/2000/svg" width="108" height="91" viewBox="0 0 108 91"><g fill="none" fill-rule="evenodd"><path fill="#B372D8" d="M17.577 8.352l-2.45-.914L17.887 0l2.45.914-2.76 7.438"/><path fill="#C593E5" d="M5.11 32.84l1.694-1L9.758 37l-1.695 1-2.954-5.16"/><path fill="#ED4E4D" d="M3.485 12.882a1.507 1.507 0 0 1-1.506 1.505 1.507 1.507 0 0 1-1.485-1.53c.006-.837.68-1.51 1.506-1.504.828.006 1.49.69 1.485 1.53"/><path fill="#5FCEF6" d="M38.144 8.396c-.01 1.117-.908 2.016-2.01 2.008-1.1-.01-1.985-.922-1.976-2.04.008-1.116.907-2.014 2.008-2.006 1.1.01 1.986.92 1.978 2.038"/><path fill="#6DD0F2" d="M75.633 74.18H24.26a3.964 3.964 0 0 1-3.95-3.953V34.634h70.142V59.35l-14.82 14.83"/><path fill="#3899EC" d="M20.31 34.634v-8.898a3.964 3.964 0 0 1 3.95-3.954H86.5a3.964 3.964 0 0 1 3.952 3.954v8.898H20.31"/><path fill="#FFF" d="M30.567 28.702c0 1.1-.895 1.993-2 1.993-1.106 0-2-.892-2-1.993 0-1.1.894-1.993 2-1.993 1.105 0 2 .892 2 1.992M37.617 28.702c0 1.1-.895 1.993-2 1.993-1.106 0-2-.892-2-1.993 0-1.1.894-1.993 2-1.993 1.105 0 2 .892 2 1.992"/><path fill="#D3EDFF" d="M106.19 59.743L88.664 25.016a2.98 2.98 0 0 0-3.99-1.316l-52.08 25.976a2.948 2.948 0 0 0-1.324 3.967L48.795 88.37a2.98 2.98 0 0 0 3.99 1.316l52.08-25.977a2.947 2.947 0 0 0 1.325-3.967zM84.75 36.796a3.172 3.172 0 0 1-4.245-1.4 3.136 3.136 0 0 1 1.408-4.222 3.173 3.173 0 0 1 4.246 1.4 3.137 3.137 0 0 1-1.408 4.222z"/><path fill="#3899EC" d="M49.41 61.664l.933-.465 6.067 6.896.026-.012-1.78-9.036 1.083-.54 6.233 6.814.026-.013-1.922-8.966.867-.433 2.057 10.31-.92.46-6.398-6.954-.026.012 1.794 9.252-.944.47-7.097-7.796M60.983 55.892l.932-.465 6.068 6.897.024-.012-1.78-9.036 1.085-.54 6.234 6.814.024-.013-1.92-8.965.867-.433 2.057 10.31-.918.458-6.4-6.954-.025.012 1.794 9.252-.944.47-7.097-7.796M72.556 50.12l.93-.465 6.069 6.898.025-.013-1.78-9.035 1.084-.54 6.234 6.813.025-.013-1.92-8.965.867-.433 2.056 10.31-.92.46-6.398-6.955-.025.013 1.793 9.25-.943.472-7.097-7.797M86.5 34.323c0-1.91-1.55-3.552-3.458-3.552-1.91 0-3.458 1.688-3.458 3.6 0 .168.027.63.05.63h6.816c.023 0 .05-.508.05-.677"/><path fill="#6DD0F2" d="M79.634 35c.242 2 1.667 2.966 3.408 2.966 1.74 0 3.166-.966 3.408-2.966h-6.816"/><path stroke="#2B81CB" stroke-width="2" d="M83.676 33.14c.652.16 1.33.25 2.03.265 5.11.104 9.34-3.932 9.444-9.014.104-5.08-3.955-9.284-9.067-9.388a9.255 9.255 0 0 0-9.032 6.473" stroke-linecap="round" stroke-linejoin="round"/></g></svg>