<?xml version="1.0" encoding="UTF-8" standalone="no"?>
<svg width="108px" height="91px" viewBox="0 0 108 91" version="1.1" xmlns="http://www.w3.org/2000/svg" xmlns:xlink="http://www.w3.org/1999/xlink" xmlns:sketch="http://www.bohemiancoding.com/sketch/ns">
    <!-- Generator: Sketch 3.3.2 (12043) - http://www.bohemiancoding.com/sketch -->
    <title>Connect</title>
    <desc>Created with Sketch.</desc>
    <defs></defs>
    <g id="Page-1" stroke="none" stroke-width="1" fill="none" fill-rule="evenodd" sketch:type="MSPage">
        <g id="Connect" sketch:type="MSArtboardGroup">
            <path d="M17.5767315,8.352 L15.1266296,7.438 L17.8878241,0 L20.3379259,0.914 L17.5767315,8.352" id="Fill-1" fill="#B372D8" sketch:type="MSShapeGroup"></path>
            <path d="M5.10925,32.839 L6.80440741,31.839 L9.75780556,37.001 L8.06264815,38 L5.10925,32.839" id="Fill-2" fill="#C593E5" sketch:type="MSShapeGroup"></path>
            <path d="M3.48542593,12.882 C3.47849074,13.719 2.8037963,14.393 1.97850926,14.387 C1.15322222,14.38 0.489425926,13.696 0.49537037,12.858 C0.501314815,12.02 1.17600926,11.347 2.0012963,11.353 C2.82757407,11.359 3.49137037,12.044 3.48542593,12.882" id="Fill-3" fill="#ED4E4D" sketch:type="MSShapeGroup"></path>
            <path d="M38.1435185,8.396 C38.1346019,9.513 37.236,10.412 36.135287,10.404 C35.0345741,10.395 34.1488519,9.482 34.1577685,8.365 C34.1656944,7.248 35.065287,6.35 36.166,6.358 C37.266713,6.367 38.1524352,7.279 38.1435185,8.396" id="Fill-4" fill="#5FCEF6" sketch:type="MSShapeGroup"></path>
            <path d="M75.6331481,74.181 L24.2612593,74.181 C22.0885648,74.181 20.3101852,72.402 20.3101852,70.227 L20.3101852,34.634 L90.4516574,34.634 L90.4516574,59.351 L75.6331481,74.181" id="Fill-5" fill="#6DD0F2" sketch:type="MSShapeGroup"></path>
            <path d="M20.3101852,34.634 L20.3101852,25.736 C20.3101852,23.561 22.0885648,21.782 24.2612593,21.782 L86.4995926,21.782 C88.6732778,21.782 90.4516574,23.561 90.4516574,25.736 L90.4516574,34.634 L20.3101852,34.634" id="Fill-6" fill="#3899EC" sketch:type="MSShapeGroup"></path>
            <path d="M30.5673241,28.702 C30.5673241,29.803 29.6716944,30.695 28.5670185,30.695 C27.4613519,30.695 26.5657222,29.803 26.5657222,28.702 C26.5657222,27.602 27.4613519,26.709 28.5670185,26.709 C29.6716944,26.709 30.5673241,27.602 30.5673241,28.702" id="Fill-7" fill="#FFFFFF" sketch:type="MSShapeGroup"></path>
            <path d="M37.6174352,28.702 C37.6174352,29.803 36.7218056,30.695 35.6161389,30.695 C34.511463,30.695 33.6158333,29.803 33.6158333,28.702 C33.6158333,27.602 34.511463,26.709 35.6161389,26.709 C36.7218056,26.709 37.6174352,27.602 37.6174352,28.702" id="Fill-8" fill="#FFFFFF" sketch:type="MSShapeGroup"></path>
            <path d="M106.188583,59.743 L88.6653519,25.016 C87.9282407,23.557 86.1429259,22.968 84.6756389,23.7 L32.5943796,49.676 C31.1270926,50.408 30.5346296,52.184 31.27075,53.643 L48.7939815,88.369 C49.5301019,89.828 51.3164074,90.417 52.7836944,89.686 L104.864954,63.709 C106.33125,62.978 106.924704,61.202 106.188583,59.743 L106.188583,59.743 Z M84.7519259,36.796 C83.1905185,37.574 81.289287,36.947 80.5066019,35.395 C79.7229259,33.843 80.3540278,31.953 81.9154352,31.174 C83.4768426,30.396 85.3770833,31.023 86.1607593,32.575 C86.9434444,34.127 86.3133333,36.017 84.7519259,36.796 L84.7519259,36.796 Z" id="Fill-9" fill="#D3EDFF" sketch:type="MSShapeGroup"></path>
            <path d="M49.411213,61.664 L50.3425093,61.199 L56.4098056,68.096 L56.4355648,68.084 L54.6552037,59.048 L55.7390741,58.507 L61.9728148,65.322 L61.9985741,65.309 L60.0775278,56.344 L60.9454167,55.911 L63.0021944,66.221 L62.082787,66.68 L55.6835926,59.726 L55.6578333,59.738 L57.4520648,68.99 L56.5078889,69.46 L49.411213,61.664" id="Fill-10" fill="#3899EC" sketch:type="MSShapeGroup"></path>
            <path d="M60.9830648,55.892 L61.9153519,55.427 L67.9826481,62.324 L68.0074167,62.312 L66.2270556,53.276 L67.3119167,52.736 L73.5456574,59.55 L73.5704259,59.537 L71.6493796,50.572 L72.5172685,50.139 L74.5740463,60.449 L73.6556296,60.908 L67.2554444,53.954 L67.2306759,53.966 L69.0239167,63.218 L68.0797407,63.689 L60.9830648,55.892" id="Fill-11" fill="#3899EC" sketch:type="MSShapeGroup"></path>
            <path d="M72.5559074,50.12 L73.4872037,49.655 L79.5545,56.553 L79.5802593,56.54 L77.7989074,47.505 L78.8837685,46.964 L85.1175093,53.778 L85.1432685,53.765 L83.2222222,44.8 L84.0901111,44.367 L86.1458981,54.678 L85.2274815,55.136 L78.828287,48.182 L78.8025278,48.195 L80.5957685,57.446 L79.6525833,57.917 L72.5559074,50.12" id="Fill-12" fill="#3899EC" sketch:type="MSShapeGroup"></path>
            <path d="M86.4995926,34.323 C86.4995926,32.412 84.9510648,30.771 83.0419074,30.771 C81.13275,30.771 79.5842222,32.458 79.5842222,34.369 C79.5842222,34.538 79.6109722,35 79.6337593,35 L86.4500556,35 C86.4728426,35 86.4995926,34.492 86.4995926,34.323" id="Fill-13" fill="#3899EC" sketch:type="MSShapeGroup"></path>
            <path d="M79.6337593,35 C79.8755,37 81.3011759,37.966 83.0419074,37.966 C84.7826389,37.966 86.2083148,37 86.4500556,35 L79.6337593,35" id="Fill-14" fill="#6DD0F2" sketch:type="MSShapeGroup"></path>
            <path d="M83.6759815,33.141 C84.3278889,33.3 85.0065463,33.391 85.7060093,33.405 C90.8172407,33.509 95.0457222,29.473 95.14975,24.391 C95.2537778,19.309 91.194713,15.106 86.0834815,15.002 C81.8609444,14.916 78.2407778,17.655 77.0508981,21.475" id="Stroke-15" stroke="#2B81CB" stroke-width="2" stroke-linecap="round" stroke-linejoin="round" sketch:type="MSShapeGroup"></path>
        </g>
    </g>
</svg>