<svg xmlns="http://www.w3.org/2000/svg" width="58" height="58" viewBox="0 0 58 58"><g fill="none" fill-rule="evenodd"><path fill="#6DD0F2" d="M57.508 29c0 15.745-12.763 28.508-28.508 28.508S.492 44.745.492 29 13.255.492 29 .492 57.508 13.255 57.508 29"/><path fill="#D3EDFF" d="M52.102 29c0 12.76-10.343 23.102-23.102 23.102C16.24 52.102 5.898 41.76 5.898 29 5.898 16.24 16.24 5.898 29 5.898 41.76 5.898 52.102 16.24 52.102 29z"/><path stroke="#3899EC" d="M52.102 29c0 12.76-10.343 23.102-23.102 23.102C16.24 52.102 5.898 41.76 5.898 29 5.898 16.24 16.24 5.898 29 5.898 41.76 5.898 52.102 16.24 52.102 29z" stroke-linecap="round" stroke-linejoin="round" stroke-dasharray="1 3"/><path fill="#3899EC" d="M40.305 19.66h-2.703s.492 4.44-3.4 4.44c-3.894 0-3.36-4.44-3.36-4.44H28.14s.65 4.41-3.294 4.41c-3.943 0-3.465-4.41-3.465-4.41H18.68l1.352 15.73h18.923l1.352-15.73M20.153 36.62H38.83v2.948H20.154v-2.95z"/></g></svg>