<?xml version="1.0" encoding="UTF-8" standalone="no"?>
<svg width="58px" height="58px" viewBox="0 0 58 58" version="1.1" xmlns="http://www.w3.org/2000/svg" xmlns:xlink="http://www.w3.org/1999/xlink" xmlns:sketch="http://www.bohemiancoding.com/sketch/ns">
    <!-- Generator: Sketch 3.3.2 (12043) - http://www.bohemiancoding.com/sketch -->
    <title>Connect Your Own</title>
    <desc>Created with Sketch.</desc>
    <defs></defs>
    <g id="Page-1" stroke="none" stroke-width="1" fill="none" fill-rule="evenodd" sketch:type="MSPage">
        <g id="Connect-Your-Own" sketch:type="MSArtboardGroup">
            <path d="M57.5084746,29 C57.5084746,44.7445424 44.7445424,57.5084746 29,57.5084746 C13.2554576,57.5084746 0.491525424,44.7445424 0.491525424,29 C0.491525424,13.2554576 13.2554576,0.491525424 29,0.491525424 C44.7445424,0.491525424 57.5084746,13.2554576 57.5084746,29" id="Fill-1" fill="#6DD0F2" sketch:type="MSShapeGroup"></path>
            <path d="M52.1016949,29 C52.1016949,41.7590169 41.7590169,52.1016949 29,52.1016949 C16.2409831,52.1016949 5.89830508,41.7590169 5.89830508,29 C5.89830508,16.2409831 16.2409831,5.89830508 29,5.89830508 C41.7590169,5.89830508 52.1016949,16.2409831 52.1016949,29 L52.1016949,29 Z" id="Fill-2" fill="#D3EDFF" sketch:type="MSShapeGroup"></path>
            <path d="M52.1016949,29 C52.1016949,41.7590169 41.7590169,52.1016949 29,52.1016949 C16.2409831,52.1016949 5.89830508,41.7590169 5.89830508,29 C5.89830508,16.2409831 16.2409831,5.89830508 29,5.89830508 C41.7590169,5.89830508 52.1016949,16.2409831 52.1016949,29 L52.1016949,29 Z" id="Stroke-3" stroke="#3899EC" stroke-linecap="round" stroke-linejoin="round" stroke-dasharray="1,3" sketch:type="MSShapeGroup"></path>
            <path d="M40.3050847,19.6610169 L37.6016949,19.6610169 C37.6016949,19.6610169 38.0942034,24.0994915 34.201322,24.0994915 C30.3084407,24.0994915 30.8432203,19.6610169 30.8432203,19.6610169 L28.1398305,19.6610169 C28.1398305,19.6610169 28.7896271,24.0690169 24.8456271,24.0690169 C20.9026102,24.0690169 21.3813559,19.6610169 21.3813559,19.6610169 L18.6779661,19.6610169 L20.029661,35.3898305 L38.9533898,35.3898305 L40.3050847,19.6610169" id="Fill-4" fill="#3899EC" sketch:type="MSShapeGroup"></path>
            <path d="M20.1525424,36.6186441 L38.8305085,36.6186441 L38.8305085,39.5677966 L20.1525424,39.5677966 L20.1525424,36.6186441 Z" id="Fill-5" fill="#3899EC" sketch:type="MSShapeGroup"></path>
        </g>
    </g>
</svg>