<?xml version="1.0" encoding="UTF-8" standalone="no"?>
<svg width="63px" height="54px" viewBox="0 0 63 54" version="1.1" xmlns="http://www.w3.org/2000/svg" xmlns:xlink="http://www.w3.org/1999/xlink" xmlns:sketch="http://www.bohemiancoding.com/sketch/ns">
    <!-- Generator: Sketch 3.3.2 (12043) - http://www.bohemiancoding.com/sketch -->
    <title>Get Domain</title>
    <desc>Created with Sketch.</desc>
    <defs></defs>
    <g id="Page-1" stroke="none" stroke-width="1" fill="none" fill-rule="evenodd" sketch:type="MSPage">
        <g id="Get-Domain" sketch:type="MSArtboardGroup">
            <path d="M40.296375,42.0534643 L3.3350625,42.0534643 C1.771875,42.0534643 0.4921875,40.81725 0.4921875,39.3071786 L0.4921875,14.5963929 L50.9571562,14.5963929 L50.9571562,31.7568214 L40.296375,42.0534643" id="Fill-1" fill="#6DD0F2" sketch:type="MSShapeGroup"></path>
            <path d="M0.4921875,14.5963929 L0.4921875,8.41821429 C0.4921875,6.90814286 1.771875,5.67289286 3.3350625,5.67289286 L48.1142813,5.67289286 C49.6784531,5.67289286 50.9571562,6.90814286 50.9571562,8.41821429 L50.9571562,14.5963929 L0.4921875,14.5963929" id="Fill-2" fill="#3899EC" sketch:type="MSShapeGroup"></path>
            <path d="M7.87204687,10.4779286 C7.87204687,11.2416429 7.22728125,11.8616786 6.43289062,11.8616786 C5.63751563,11.8616786 4.99275,11.2416429 4.99275,10.4779286 C4.99275,9.71325 5.63751563,9.09417857 6.43289062,9.09417857 C7.22728125,9.09417857 7.87204687,9.71325 7.87204687,10.4779286" id="Fill-3" fill="#FFFFFF" sketch:type="MSShapeGroup"></path>
            <path d="M12.9445313,10.4779286 C12.9445313,11.2416429 12.2997656,11.8616786 11.5043906,11.8616786 C10.71,11.8616786 10.0652344,11.2416429 10.0652344,10.4779286 C10.0652344,9.71325 10.71,9.09417857 11.5043906,9.09417857 C12.2997656,9.09417857 12.9445313,9.71325 12.9445313,10.4779286" id="Fill-4" fill="#FFFFFF" sketch:type="MSShapeGroup"></path>
            <path d="M62.2804219,32.02875 L49.6725469,7.91871429 C49.1429531,6.90525 47.8573594,6.49639286 46.8021094,7.00457143 L9.33089063,25.0396071 C8.27465625,25.5477857 7.84842188,26.7801429 8.37801563,27.7936071 L20.9858906,51.9036429 C21.5154844,52.9161429 22.8010781,53.3259643 23.8563281,52.8177857 L61.3275469,34.78275 C62.3837813,34.2745714 62.8100156,33.04125 62.2804219,32.02875 L62.2804219,32.02875 Z M46.8572344,16.0968214 C45.7340625,16.6368214 44.3657812,16.2019286 43.8027187,15.1238571 C43.2386719,14.04675 43.6924688,12.7343571 44.8156406,12.1933929 C45.9397969,11.6533929 47.3070938,12.0882857 47.8701563,13.1663571 C48.4342031,14.2444286 47.9804063,15.5558571 46.8572344,16.0968214 L46.8572344,16.0968214 Z" id="Fill-5" fill="#FFFFFF" sketch:type="MSShapeGroup"></path>
            <path d="M21.4298437,33.3623571 L22.1002031,33.0393214 L26.4659062,37.8279643 L26.483625,37.8192857 L25.2029531,31.5466071 L25.9835625,31.1705357 L30.468375,35.9022857 L30.4860938,35.8936071 L29.1040312,29.6681786 L29.728125,29.3682857 L31.2076406,36.5261786 L30.547125,36.8443929 L25.9422187,32.0162143 L25.9245,32.0258571 L27.2150156,38.448 L26.5357969,38.7758571 L21.4298437,33.3623571" id="Fill-6" fill="#3899EC" sketch:type="MSShapeGroup"></path>
            <path d="M29.7556875,29.3547857 L30.4260469,29.0327143 L34.79175,33.8213571 L34.8094688,33.8126786 L33.5287969,27.5390357 L34.3094062,27.1629643 L38.7942187,31.8947143 L38.8119375,31.8860357 L37.429875,25.6615714 L38.0549531,25.3607143 L39.5344688,32.5195714 L38.8729687,32.8377857 L34.2690469,28.0096071 L34.2503438,28.0182857 L35.5408594,34.4413929 L34.8616406,34.7682857 L29.7556875,29.3547857" id="Fill-7" fill="#3899EC" sketch:type="MSShapeGroup"></path>
            <path d="M38.0815312,25.3472143 L38.7518906,25.0251429 L43.1175937,29.8137857 L43.1362969,29.8051071 L41.8546406,23.5314643 L42.63525,23.1563571 L47.1200625,27.8871429 L47.1387656,27.8784643 L45.7567031,21.654 L46.3807969,21.3531429 L47.8603125,28.512 L47.1988125,28.8302143 L42.5948906,24.0020357 L42.5761875,24.0107143 L43.8667031,30.4338214 L43.1874844,30.7607143 L38.0815312,25.3472143" id="Fill-8" fill="#3899EC" sketch:type="MSShapeGroup"></path>
            <path d="M46.0835156,13.5588214 C46.5520781,13.6697143 47.0403281,13.7333571 47.5433437,13.743 C51.2209687,13.8143571 54.2636719,11.0131071 54.3384844,7.48478571 C54.4132969,3.95646429 51.4926562,1.03757143 47.8150312,0.96525 C44.77725,0.906428571 42.1725937,2.808 41.3161875,5.45978571" id="Stroke-9" stroke="#2B81CB" stroke-width="2" stroke-linecap="round" stroke-linejoin="round" sketch:type="MSShapeGroup"></path>
        </g>
    </g>
</svg>