<?xml version="1.0" encoding="UTF-8" standalone="no"?>
<svg width="88px" height="100px" viewBox="0 0 88 100" version="1.1" xmlns="http://www.w3.org/2000/svg" xmlns:xlink="http://www.w3.org/1999/xlink" xmlns:sketch="http://www.bohemiancoding.com/sketch/ns">
    <g id="Page-1" stroke="none" stroke-width="1" fill="none" fill-rule="evenodd" sketch:type="MSPage">
        <g id="connect_domain_illustration_personal_sale" sketch:type="MSArtboardGroup">
            <g id="Imported-Layers" sketch:type="MSLayerGroup">
                <path d="M67.612,17.66 L16.631,0.397 C15.195,-0.09 13.654,0.674 13.19,2.103 L2.133,36.122 C1.668,37.551 2.456,39.104 3.893,39.59 L54.873,56.853 C56.31,57.34 57.85,56.576 58.315,55.147 L68.371,24.205 L68.625,23.428 L69.371,21.128 C69.836,19.699 69.048,18.146 67.612,17.66 L67.612,17.66 Z M65.026,24.161 C64.601,25.469 63.233,26.183 61.912,25.835 C61.853,25.82 61.793,25.814 61.734,25.794 C61.734,25.794 61.725,25.79 61.721,25.788 C61.103,25.575 60.62,25.151 60.308,24.628 C60.27,24.563 60.246,24.492 60.213,24.424 C59.923,23.833 59.833,23.145 60.051,22.476 C60.495,21.109 61.969,20.378 63.343,20.844 C63.676,20.957 63.959,21.143 64.21,21.361 C64.251,21.397 64.301,21.426 64.34,21.464 C64.808,21.919 65.083,22.531 65.128,23.18 C65.13,23.22 65.141,23.258 65.142,23.298 C65.149,23.584 65.12,23.875 65.026,24.161 L65.026,24.161 Z" id="Fill-1" fill="#3899EC" sketch:type="MSShapeGroup"></path>
                <path d="M64.34,21.464 C64.301,21.426 64.251,21.397 64.21,21.361 C62.55,21.894 61.145,22.991 60.213,24.424 C59.449,25.599 59,26.997 59,28.5 C59,29.053 59.447,29.5 60,29.5 C60.553,29.5 61,29.053 61,28.5 C61,27.514 61.265,26.59 61.721,25.788 C62.449,24.512 63.672,23.556 65.128,23.18 C65.083,22.531 64.808,21.919 64.34,21.464" id="Fill-2" fill="#2B81CB" sketch:type="MSShapeGroup"></path>
                <path d="M17.007,11.991 L17.933,12.305 L17.423,20.887 L17.449,20.896 L22.22,13.756 L23.298,14.121 L22.953,22.76 L22.979,22.768 L27.61,15.581 L28.472,15.873 L23.045,24.037 L22.132,23.728 L22.457,14.887 L22.433,14.878 L17.528,22.169 L16.59,21.852 L17.007,11.991" id="Fill-3" fill="#FFFFFF" sketch:type="MSShapeGroup"></path>
                <path d="M28.511,15.886 L29.437,16.199 L28.927,24.782 L28.952,24.79 L33.723,17.651 L34.801,18.016 L34.457,26.654 L34.482,26.663 L39.113,19.476 L39.976,19.768 L34.548,27.931 L33.635,27.622 L33.961,18.781 L33.935,18.773 L29.031,26.064 L28.093,25.746 L28.511,15.886" id="Fill-4" fill="#FFFFFF" sketch:type="MSShapeGroup"></path>
                <path d="M40.013,19.78 L40.94,20.094 L40.43,28.676 L40.455,28.685 L45.226,21.545 L46.305,21.91 L45.96,30.549 L45.985,30.557 L50.617,23.37 L51.479,23.662 L46.051,31.826 L45.138,31.517 L45.464,22.676 L45.439,22.667 L40.535,29.958 L39.596,29.64 L40.013,19.78" id="Fill-5" fill="#FFFFFF" sketch:type="MSShapeGroup"></path>
                <path d="M71,74.814 C71,76.574 69.573,78 67.813,78 L3.187,78 C1.426,78 0,76.574 0,74.814 L0,30.186 C0,28.427 1.426,27 3.187,27 L67.813,27 C69.573,27 71,28.427 71,30.186 L71,74.814" id="Fill-6" fill="#D3EDFF" sketch:type="MSShapeGroup"></path>
                <g id="Group-9" transform="translate(0.000000, 27.000000)">
                    <mask id="mask-2" sketch:name="Clip 8" fill="white">
                         <path id="path-1" d="M0.06,48.4327199 C0.347907377,49.8964273 1.63782646,51 3.187,51 L67.813,51 C69.573,51 71,49.574 71,47.814 L71,3.186 C71,1.427 69.573,0 67.813,0 L3.187,0 C1.63782646,0 0.347907377,1.10434661 0.06,2.56755938 L0.06,48.4327199 L0.06,48.4327199 Z"></path>
                    </mask>
                    <g id="Clip-8"></g>
                    <path d="M0.06,0 L71,0 L71,11 L0.06,11 L0.06,0 Z" id="Fill-7" fill="#6DD0F2" sketch:type="MSShapeGroup" mask="url(#mask-2)"></path>
                </g>
                <path d="M8.517,33.028 C8.517,33.988 7.739,34.766 6.779,34.766 C5.819,34.766 5.041,33.988 5.041,33.028 C5.041,32.068 5.819,31.289 6.779,31.289 C7.739,31.289 8.517,32.068 8.517,33.028" id="Fill-10" fill="#FFFFFF" sketch:type="MSShapeGroup"></path>
                <path d="M14.061,33.028 C14.061,33.988 13.283,34.766 12.322,34.766 C11.362,34.766 10.584,33.988 10.584,33.028 C10.584,32.068 11.362,31.289 12.322,31.289 C13.283,31.289 14.061,32.068 14.061,33.028" id="Fill-11" fill="#FFFFFF" sketch:type="MSShapeGroup"></path>
                <path d="M86.865,60.343 L70.877,28.957 C70.205,27.639 68.575,27.106 67.237,27.768 L19.719,51.245 C18.381,51.906 17.84,53.511 18.511,54.83 L34.5,86.215 C35.171,87.533 36.801,88.066 38.139,87.404 L85.657,63.928 C86.995,63.266 87.536,61.661 86.865,60.343 L86.865,60.343 Z M68.034,37.549 C66.733,38.191 65.15,37.674 64.498,36.393 C63.846,35.112 64.371,33.553 65.671,32.91 C66.972,32.268 68.555,32.785 69.207,34.066 C69.86,35.347 69.334,36.906 68.034,37.549 L68.034,37.549 Z" id="Fill-12" fill="#C593E5" sketch:type="MSShapeGroup"></path>
                <path d="M65,97.9994979 C65,99.1041928 52.0158037,100 35.9995013,100 C19.9831989,100 7,99.1041928 7,97.9994979 C7,96.8948029 19.9831989,96 35.9995013,96 C52.0158037,96 65,96.8948029 65,97.9994979" id="Fill-13" fill="#A2DBF4" sketch:type="MSShapeGroup"></path>
                <path d="M34.404,65.505 C34.476,64.789 34.891,64.297 35.636,63.926 C37.023,63.233 38.11,64.014 38.802,65.402 L39.66,67.119 C40.381,68.565 40.278,69.973 38.747,70.736 C37.23,71.493 36.044,70.727 35.322,69.281 L35.051,68.738 L35.681,68.424 L35.966,68.996 C36.502,70.069 37.339,70.67 38.425,70.129 C39.527,69.578 39.55,68.549 39.016,67.476 L38.174,65.787 C37.638,64.714 36.801,64.113 35.699,64.662 C34.969,65.026 34.668,65.677 34.84,66.521 L34.925,66.692 L34.309,67 L31.898,61.519 L35.66,59.643 L35.968,60.256 L32.806,61.834 L34.404,65.505" id="Fill-14" fill="#FFFFFF" sketch:type="MSShapeGroup"></path>
                <path d="M38.523,61.288 C37.788,59.814 37.932,58.42 39.464,57.655 C40.994,56.891 42.194,57.616 42.93,59.09 L45.484,64.213 C46.213,65.672 46.076,67.08 44.546,67.844 C43.015,68.607 41.807,67.87 41.078,66.411 L38.523,61.288 L38.523,61.288 Z M41.752,66.111 C42.301,67.214 43.143,67.793 44.246,67.243 C45.347,66.694 45.392,65.672 44.842,64.569 L42.25,59.375 C41.709,58.287 40.864,57.708 39.763,58.257 C38.661,58.807 38.617,59.829 39.16,60.917 L41.752,66.111 L41.752,66.111 Z" id="Fill-15" fill="#FFFFFF" sketch:type="MSShapeGroup"></path>
                <path d="M46.625,56.174 L48.145,59.223 C48.595,60.123 48.566,61.031 47.593,61.517 C46.634,61.994 45.891,61.473 45.441,60.571 L43.921,57.523 C43.472,56.622 43.5,55.713 44.459,55.235 C45.433,54.75 46.176,55.273 46.625,56.174 L46.625,56.174 Z M44.357,57.287 L45.899,60.379 C46.213,61.008 46.699,61.444 47.386,61.102 C48.058,60.766 48.016,60.109 47.702,59.479 L46.16,56.389 C45.839,55.744 45.34,55.314 44.666,55.65 C43.98,55.993 44.036,56.644 44.357,57.287 L44.357,57.287 Z M49.074,52.951 L50.129,64.951 L49.699,65.166 L48.644,53.166 L49.074,52.951 L49.074,52.951 Z M53.396,57.567 L54.896,60.572 C55.345,61.475 55.338,62.391 54.364,62.875 C53.391,63.361 52.64,62.824 52.191,61.922 L50.691,58.916 C50.242,58.016 50.266,57.092 51.238,56.607 C52.211,56.121 52.947,56.666 53.396,57.567 L53.396,57.567 Z M51.136,58.659 L52.664,61.723 C52.977,62.351 53.485,62.796 54.157,62.461 C54.843,62.117 54.78,61.452 54.467,60.823 L52.938,57.76 C52.617,57.117 52.138,56.695 51.452,57.037 C50.78,57.373 50.814,58.016 51.136,58.659 L51.136,58.659 Z" id="Fill-16" fill="#FFFFFF" sketch:type="MSShapeGroup"></path>
                <path d="M55.359,52.891 C54.631,51.43 54.768,50.021 56.285,49.265 C57.831,48.494 59.038,49.231 59.766,50.691 L62.322,55.815 C63.05,57.274 62.913,58.682 61.367,59.453 C59.851,60.209 58.642,59.473 57.914,58.014 L55.359,52.891 L55.359,52.891 Z M58.593,57.728 C59.137,58.815 59.965,59.402 61.067,58.853 C62.183,58.296 62.227,57.274 61.685,56.186 L59.086,50.977 C58.545,49.889 57.7,49.309 56.585,49.866 C55.482,50.416 55.453,51.431 55.996,52.519 L58.593,57.728 L58.593,57.728 Z" id="Fill-17" fill="#FFFFFF" sketch:type="MSShapeGroup"></path>
                <path d="M65.676,50.781 L65.976,51.383 L63.385,52.674 L65.648,57.211 L64.99,57.539 L59.993,47.524 L63.8,45.624 L64.099,46.224 L60.951,47.795 L63.085,52.074 L65.676,50.781" id="Fill-18" fill="#FFFFFF" sketch:type="MSShapeGroup"></path>
                <path d="M70.844,48.203 L71.144,48.805 L68.553,50.096 L70.816,54.633 L70.158,54.961 L65.162,44.945 L68.969,43.047 L69.268,43.646 L66.119,45.217 L68.253,49.496 L70.844,48.203" id="Fill-19" fill="#FFFFFF" sketch:type="MSShapeGroup"></path>
                <path d="M69.242,21.526 L68.625,23.428 C70.605,24.261 72,26.22 72,28.5 C72,31.532 69.532,34 66.5,34 C65.947,34 65.5,34.447 65.5,35 C65.5,35.553 65.947,36 66.5,36 C70.635,36 74,32.636 74,28.5 C74,25.333 72.024,22.624 69.242,21.526" id="Fill-20" fill="#2B81CB" sketch:type="MSShapeGroup"></path>
            </g>
        </g>
    </g>
</svg>