<svg xmlns="http://www.w3.org/2000/svg" width="63" height="54" viewBox="0 0 63 54"><g fill="none" fill-rule="evenodd"><path fill="#6DD0F2" d="M40.296 42.053H3.336C1.77 42.053.49 40.817.49 39.307v-24.71h50.465v17.16l-10.66 10.296"/><path fill="#3899EC" d="M.492 14.596V8.418c0-1.51 1.28-2.745 2.843-2.745h44.78c1.563 0 2.842 1.235 2.842 2.745v6.178H.492"/><path fill="#FFF" d="M7.872 10.478c0 .764-.645 1.384-1.44 1.384-.794 0-1.44-.62-1.44-1.384 0-.765.646-1.384 1.44-1.384.795 0 1.44.62 1.44 1.384M12.945 10.478c0 .764-.645 1.384-1.44 1.384-.795 0-1.44-.62-1.44-1.384 0-.765.645-1.384 1.44-1.384.795 0 1.44.62 1.44 1.384M62.28 32.03L49.673 7.92c-.53-1.015-1.816-1.424-2.87-.915L9.33 25.04c-1.055.508-1.482 1.74-.952 2.754l12.608 24.11c.53 1.012 1.815 1.422 2.87.914l37.472-18.035c1.056-.508 1.482-1.742.952-2.754zM46.857 16.096c-1.123.54-2.49.105-3.054-.973-.564-1.077-.11-2.39 1.013-2.93 1.124-.54 2.49-.106 3.054.972.564 1.078.11 2.39-1.013 2.93z"/><path fill="#3899EC" d="M21.43 33.362l.67-.323 4.366 4.788.018-.01-1.28-6.27.78-.377 4.484 4.732.018-.008-1.382-6.226.624-.3 1.48 7.158-.66.318-4.606-4.828-.018.01 1.29 6.422-.678.328-5.106-5.414M29.756 29.355l.67-.322 4.366 4.788.017-.007-1.28-6.274.78-.377 4.484 4.732.018-.01-1.382-6.223.625-.3 1.48 7.158-.662.318-4.604-4.828-.02.008 1.29 6.423-.678.328-5.106-5.413M38.082 25.347l.67-.322 4.366 4.79.018-.01-1.28-6.274.78-.374 4.484 4.73.02-.008-1.383-6.224.624-.3 1.48 7.158-.66.318-4.605-4.828-.02.01 1.292 6.422-.68.327-5.105-5.413"/><path stroke="#2B81CB" stroke-width="2" d="M46.084 13.56c.468.11.956.173 1.46.183 3.677.07 6.72-2.73 6.794-6.258.075-3.53-2.845-6.447-6.523-6.52-3.038-.06-5.642 1.843-6.5 4.495" stroke-linecap="round" stroke-linejoin="round"/></g></svg>