<svg xmlns="http://www.w3.org/2000/svg" width="88" height="100" viewBox="0 0 88 100"><g fill="none" fill-rule="evenodd"><path fill="#3899EC" d="M67.612 17.66L16.632.397a2.692 2.692 0 0 0-3.442 1.706L2.133 36.123c-.465 1.428.323 2.98 1.76 3.467l50.98 17.263a2.693 2.693 0 0 0 3.442-1.706L68.37 24.205l.255-.777.746-2.3c.466-1.43-.322-2.982-1.758-3.468zm-2.586 6.5c-.425 1.31-1.793 2.023-3.114 1.675-.06-.015-.12-.02-.178-.04l-.013-.007a2.65 2.65 0 0 1-1.412-1.16c-.038-.065-.062-.136-.095-.204-.29-.59-.38-1.28-.162-1.948a2.575 2.575 0 0 1 3.293-1.632c.333.113.616.3.867.517.04.037.09.066.13.104a2.64 2.64 0 0 1 .788 1.716c.002.04.013.078.014.118.007.286-.022.577-.116.863z"/><path fill="#2B81CB" d="M64.34 21.464c-.04-.038-.09-.067-.13-.103a7.52 7.52 0 0 0-3.997 3.064A7.453 7.453 0 0 0 59 28.5a1 1 0 0 0 2 0c0-.986.265-1.91.72-2.712a5.52 5.52 0 0 1 3.408-2.608 2.64 2.64 0 0 0-.788-1.716"/><path fill="#FFF" d="M17.007 11.99l.926.315-.51 8.582.026.01 4.77-7.14 1.078.364-.345 8.64.026.008 4.63-7.187.862.293-5.427 8.164-.913-.31.325-8.84-.024-.01-4.905 7.292-.938-.318.417-9.86M28.51 15.886l.927.313-.51 8.582.025.008 4.77-7.14 1.08.366-.345 8.638.025.01 4.63-7.188.864.292-5.428 8.163-.913-.308.326-8.84-.025-.01-4.904 7.292-.937-.318.418-9.86M40.013 19.78l.927.314-.51 8.582.025.01 4.77-7.14 1.08.364-.345 8.64.025.007 4.632-7.187.862.292-5.43 8.164-.912-.31.326-8.84-.025-.01-4.905 7.292-.94-.318.418-9.86"/><path fill="#D3EDFF" d="M71 74.814A3.186 3.186 0 0 1 67.813 78H3.187A3.186 3.186 0 0 1 0 74.814V30.186A3.186 3.186 0 0 1 3.187 27h64.626A3.187 3.187 0 0 1 71 30.186v44.628"/><g transform="translate(0 27)"><mask id="a" fill="#fff"><path d="M.06 48.433A3.187 3.187 0 0 0 3.187 51h64.626A3.186 3.186 0 0 0 71 47.814V3.186A3.187 3.187 0 0 0 67.813 0H3.187A3.188 3.188 0 0 0 .06 2.568v45.865z"/></mask><path fill="#6DD0F2" d="M.06 0H71v11H.06V0z" mask="url(#a)"/></g><path fill="#FFF" d="M8.517 33.028a1.738 1.738 0 1 1-3.476 0 1.738 1.738 0 0 1 3.477 0M14.06 33.028a1.738 1.738 0 1 1-3.475 0 1.738 1.738 0 0 1 3.476 0"/><path fill="#C593E5" d="M86.865 60.343L70.877 28.957c-.672-1.318-2.302-1.85-3.64-1.19L19.72 51.246a2.653 2.653 0 0 0-1.21 3.585L34.5 86.215c.67 1.318 2.3 1.85 3.64 1.19l47.517-23.477a2.654 2.654 0 0 0 1.208-3.585zM68.035 37.55c-1.302.64-2.885.124-3.537-1.157a2.578 2.578 0 0 1 1.173-3.483c1.302-.642 2.885-.125 3.537 1.156a2.577 2.577 0 0 1-1.173 3.483z"/><path fill="#A2DBF4" d="M65 98c0 1.104-12.984 2-29 2-16.017 0-29-.896-29-2 0-1.105 12.983-2 29-2 16.016 0 29 .895 29 2"/><path fill="#FFF" d="M34.404 65.505c.072-.716.487-1.208 1.232-1.58 1.387-.692 2.474.09 3.166 1.477l.858 1.717c.72 1.445.618 2.853-.913 3.616-1.517.757-2.703-.01-3.425-1.455l-.27-.542.63-.314.284.572c.536 1.073 1.373 1.674 2.46 1.133 1.1-.552 1.124-1.58.59-2.654l-.842-1.69c-.536-1.072-1.373-1.673-2.475-1.124-.73.364-1.032 1.015-.86 1.86l.085.17-.616.308-2.412-5.48 3.762-1.877.308.613-3.162 1.578 1.598 3.67M38.523 61.288c-.735-1.474-.59-2.868.94-3.633 1.53-.764 2.73-.04 3.467 1.435l2.554 5.123c.73 1.46.592 2.867-.938 3.63-1.53.764-2.74.027-3.468-1.432l-2.555-5.122zm3.23 4.823c.548 1.104 1.39 1.683 2.493 1.133 1.1-.55 1.146-1.57.596-2.674l-2.592-5.195c-.54-1.088-1.386-1.667-2.487-1.118-1.102.55-1.146 1.572-.603 2.66l2.592 5.194zM46.625 56.174l1.52 3.05c.45.9.42 1.807-.552 2.293-.96.477-1.702-.044-2.152-.946l-1.52-3.047c-.448-.9-.42-1.81.54-2.288.973-.485 1.716.038 2.165.94zm-2.268 1.113L45.9 60.38c.313.628.8 1.064 1.486.722.672-.336.63-.993.316-1.623l-1.542-3.09c-.32-.646-.82-1.076-1.494-.74-.686.343-.63.994-.31 1.637zm4.717-4.336l1.055 12-.43.216-1.056-12 .43-.215zm4.322 4.617l1.5 3.005c.45.903.442 1.82-.532 2.303-.973.486-1.724-.05-2.173-.953l-1.5-3.006c-.448-.9-.424-1.824.548-2.31.973-.485 1.71.06 2.158.96zm-2.26 1.092l1.528 3.063c.313.628.82 1.073 1.493.738.686-.343.623-1.008.31-1.637l-1.53-3.063c-.32-.643-.8-1.065-1.485-.723-.672.336-.638.98-.316 1.622zM55.36 52.89c-.73-1.46-.592-2.87.925-3.625 1.546-.77 2.753-.034 3.48 1.426l2.557 5.125c.728 1.46.59 2.867-.955 3.638-1.516.756-2.725.02-3.453-1.44l-2.555-5.122zm3.233 4.838c.544 1.087 1.372 1.674 2.474 1.125 1.116-.557 1.16-1.58.618-2.667l-2.6-5.21c-.54-1.087-1.385-1.667-2.5-1.11-1.103.55-1.132 1.565-.59 2.653l2.598 5.208zM65.676 50.78l.3.603-2.59 1.29 2.262 4.538-.658.33-4.997-10.016 3.807-1.9.3.6-3.15 1.57 2.135 4.28 2.59-1.293M70.844 48.203l.3.602-2.59 1.29 2.262 4.538-.658.328-4.996-10.015 3.807-1.898.298.6-3.15 1.57 2.135 4.28 2.59-1.294"/><path fill="#2B81CB" d="M69.242 21.526l-.617 1.902A5.508 5.508 0 0 1 72 28.5c0 3.032-2.468 5.5-5.5 5.5a1 1 0 0 0 0 2c4.135 0 7.5-3.364 7.5-7.5 0-3.167-1.976-5.876-4.758-6.974"/></g></svg>