<?xml version="1.0" encoding="utf-8"?>
<svg xmlns="http://www.w3.org/2000/svg"
	xmlns:xlink="http://www.w3.org/1999/xlink"
	width="14px" height="14px" viewBox="0 0 14 14">
<path fill-rule="evenodd" d="M 10.54 13.5C 10.54 13.5 8 13.5 8 13.5 8 13.5 8 11.5 8 11.5 8 11.5 10.54 11.5 10.54 11.5 11.17 11.5 12 10.88 12 10.42 12 10.42 12 7.5 12 7.5 12 7.5 14 7.5 14 7.5 14 7.5 14 10.42 14 10.42 14 12.15 12.14 13.5 10.54 13.5ZM 12 2.42C 12 2 11.21 1.5 10.54 1.5 10.54 1.5 8 1.5 8 1.5 8 1.5 8-0.5 8-0.5 8-0.5 10.54-0.5 10.54-0.5 12.18-0.5 14 0.7 14 2.42 14 2.42 14 5.5 14 5.5 14 5.5 12 5.5 12 5.5 12 5.5 12 2.42 12 2.42ZM 0 10.42C 0 10.42 0 7.5 0 7.5 0 7.5 2 7.5 2 7.5 2 7.5 2 10.42 2 10.42 2 10.91 2.09 11.5 2.54 11.5 2.54 11.5 6 11.5 6 11.5 6 11.5 6 13.5 6 13.5 6 13.5 2.54 13.5 2.54 13.5 1 13.5 0 12.29 0 10.42ZM 2 2.42C 2 2.42 2 5.5 2 5.5 2 5.5 0 5.5 0 5.5 0 5.5 0 2.42 0 2.42 0 0.62 0.97-0.5 2.54-0.5 2.54-0.5 6-0.5 6-0.5 6-0.5 6 1.5 6 1.5 6 1.5 2.54 1.5 2.54 1.5 2.31 1.5 2 1.5 2 2.42Z"/>
</svg>