<svg width="408px" height="149px" viewBox="0 0 408 149" version="1.1">
    <title>add-another-text-box-clipart</title>
    <desc>Created with Sketch.</desc>
    <defs></defs>
    <g id="Page-1" stroke="none" stroke-width="1" fill="none" fill-rule="evenodd" >
        <g id="add-another-text-box-clipart" >
            <path d="M245,18.998 C245,17.895 244.105,17 243,17 L168,17 C166.896,17 166,17.895 166,18.998 L166,125.002 C166,126.105 166.896,127 168,127 L243,127 C244.105,127 245,126.105 245,125.002 L245,18.998" id="Fill-1" fill="#2B81CB"></path>
            <path d="M239,21 L172,21 C170.896,21 170,21.8947669 170,22.999714 L170,116.999285 C170,118.104232 170.896,119 172,119 L239,119 C240.104,119 241,118.104232 241,116.999285 L241,22.999714 C241,21.8947669 240.104,21 239,21" id="Fill-2" fill="#D3EDFF" ></path>
            <path d="M239,21 L172,21 C170.9,21 170,21.8997712 170,22.999714 L170,116.999285 C170,118.104232 170.896,119 172,119 L218,119 L241,95.9992851 L241,22.999714 C241,21.8997712 240.1,21 239,21" id="Fill-3" fill="#FFFFFF" ></path>
            <path d="M194.172,27.973 C194.161,27.931 194.143,27.894 194.13,27.853 C193.754,26.628 192.629,25.73 191.28,25.73 C190.682,25.73 190.128,25.909 189.66,26.21 C189.601,26.248 189.555,26.301 189.499,26.344 C189.202,26.57 188.943,26.84 188.747,27.159 C188.629,27.352 188.523,27.554 188.45,27.772 C188.424,27.848 188.407,27.927 188.388,28.005 C188.376,28.053 188.361,28.099 188.35,28.147 C188.309,28.335 188.28,28.527 188.28,28.727 C188.28,30.382 189.623,31.724 191.28,31.724 C192.388,31.724 193.346,31.118 193.865,30.224 C193.914,30.138 193.965,30.054 194.006,29.963 C194.023,29.927 194.032,29.888 194.047,29.851 C194.128,29.647 194.188,29.432 194.225,29.21 C194.253,29.052 194.28,28.893 194.28,28.727 C194.28,28.465 194.235,28.215 194.172,27.973" id="Fill-4" fill="#2B81CB"></path>
            <path d="M193.864,11.403 C188.872,11.403 184.81,15.646 184.81,20.634 C184.81,23.565 186.219,26.259 188.388,27.913 C189.911,29.074 191.805,29.818 193.864,29.818 C193.926,29.818 193.985,29.829 194.047,29.828 C194.128,29.624 194.188,29.421 194.225,29.199 C194.253,29.04 194.28,28.888 194.28,28.721 C194.28,28.459 194.235,28.212 194.172,27.97 C194.161,27.928 194.143,27.892 194.13,27.852 C194.041,27.855 193.954,27.865 193.864,27.865 C192.216,27.865 190.701,27.293 189.499,26.343 C187.864,25.052 186.81,23.057 186.81,20.818 C186.81,16.931 189.974,13.401 193.864,13.401 C196.646,13.401 199.051,15 200.199,17 L202.366,17 C201.101,13 197.773,11.403 193.864,11.403" id="Fill-5" fill="#7FCCF8"></path>
            <path d="M209.172,27.973 C209.161,27.931 209.143,27.894 209.13,27.853 C208.754,26.628 207.629,25.73 206.28,25.73 C205.682,25.73 205.128,25.909 204.66,26.21 C204.601,26.248 204.555,26.301 204.499,26.344 C204.202,26.57 203.943,26.84 203.747,27.159 C203.629,27.352 203.523,27.554 203.45,27.772 C203.424,27.848 203.407,27.927 203.388,28.005 C203.376,28.053 203.361,28.099 203.35,28.147 C203.309,28.335 203.28,28.527 203.28,28.727 C203.28,30.382 204.623,31.724 206.28,31.724 C207.388,31.724 208.346,31.118 208.865,30.224 C208.914,30.138 208.965,30.054 209.006,29.963 C209.023,29.927 209.032,29.888 209.047,29.851 C209.128,29.647 209.188,29.432 209.225,29.21 C209.253,29.052 209.28,28.893 209.28,28.727 C209.28,28.465 209.235,28.215 209.172,27.973" id="Fill-6" fill="#2B81CB"></path>
            <path d="M208.864,11.403 C203.872,11.403 199.81,15.646 199.81,20.634 C199.81,23.565 201.219,26.259 203.388,27.913 C204.911,29.074 206.805,29.818 208.864,29.818 C208.926,29.818 208.985,29.829 209.047,29.828 C209.128,29.624 209.188,29.421 209.225,29.199 C209.253,29.04 209.28,28.888 209.28,28.721 C209.28,28.459 209.235,28.212 209.172,27.97 C209.161,27.928 209.143,27.892 209.13,27.852 C209.041,27.855 208.954,27.865 208.864,27.865 C207.216,27.865 205.701,27.293 204.499,26.343 C202.864,25.052 201.81,23.057 201.81,20.818 C201.81,16.931 204.974,13.401 208.864,13.401 C211.646,13.401 214.051,15 215.199,17 L217.366,17 C216.101,13 212.773,11.403 208.864,11.403" id="Fill-7" fill="#7FCCF8"></path>
            <path d="M224.172,27.973 C224.161,27.931 224.143,27.894 224.13,27.853 C223.754,26.628 222.629,25.73 221.28,25.73 C220.682,25.73 220.128,25.909 219.66,26.21 C219.601,26.248 219.555,26.301 219.499,26.344 C219.202,26.57 218.943,26.84 218.747,27.159 C218.629,27.352 218.523,27.554 218.45,27.772 C218.424,27.848 218.407,27.927 218.388,28.005 C218.376,28.053 218.361,28.099 218.35,28.147 C218.309,28.335 218.28,28.527 218.28,28.727 C218.28,30.382 219.623,31.724 221.28,31.724 C222.388,31.724 223.346,31.118 223.865,30.224 C223.914,30.138 223.965,30.054 224.006,29.963 C224.023,29.927 224.032,29.888 224.047,29.851 C224.128,29.647 224.188,29.432 224.225,29.21 C224.253,29.052 224.28,28.893 224.28,28.727 C224.28,28.465 224.235,28.215 224.172,27.973" id="Fill-8" fill="#2B81CB"></path>
            <path d="M223.864,11.403 C218.872,11.403 214.81,15.646 214.81,20.634 C214.81,23.565 216.219,26.259 218.388,27.913 C219.911,29.074 221.805,29.818 223.864,29.818 C223.926,29.818 223.985,29.829 224.047,29.828 C224.128,29.624 224.188,29.421 224.225,29.199 C224.253,29.04 224.28,28.888 224.28,28.721 C224.28,28.459 224.235,28.212 224.172,27.97 C224.161,27.928 224.143,27.892 224.13,27.852 C224.041,27.855 223.954,27.865 223.864,27.865 C222.216,27.865 220.701,27.293 219.499,26.343 C217.864,25.052 216.81,23.057 216.81,20.818 C216.81,16.931 219.974,13.401 223.864,13.401 C226.646,13.401 229.051,15 230.199,17 L232.366,17 C231.101,13 227.773,11.403 223.864,11.403" id="Fill-9" fill="#7FCCF8"></path>
            <path d="M187,46.5 L225,46.5 M187,57.5 L225,57.5 M187,68.5 L225,68.5 M187,79.5 L225,79.5 M187,90.5 L225,90.5 M187,101.5 L225,101.5" id="Stroke-10" stroke="#4EB7F6" stroke-linecap="round" stroke-linejoin="round" stroke-dasharray="1,3"></path>
            <path d="M218,119 L218,98.0006527 C218,96.9007441 218.9,96 220,96 L241,96 L218,119" id="Fill-11" fill="#7FCCF8"></path>
            <path d="M161,6.00050045 L164.831,4.8304474 L166,1 L167.17,4.8304474 L171,6.00050045 L167.17,7.1695526 L166,11 L164.831,7.1695526 L161,6.00050045" id="Fill-12" fill="#FFFFFF"></path>
            <path d="M153,38 L156.83,36.8300641 L158,33 L159.169,36.8300641 L163,38 L159.169,39.1689351 L158,43 L156.83,39.1689351 L153,38" id="Fill-13" fill="#FFFFFF"></path>
            <path d="M142,20 L148.895,17.895129 L151,11 L153.105,17.895129 L160,20 L153.105,22.104871 L151,29 L148.895,22.104871 L142,20" id="Fill-14" fill="#FFFFFF"></path>
            <path d="M231,112.5 L238,112.5 M234.5,116 L234.5,109" id="Stroke-15" stroke="#2B81CB"></path>
            <path d="M242,144.998 C242,146.653 225.658,147.995 205.5,147.995 C185.341,147.995 169,146.653 169,144.998 C169,143.342 185.341,142 205.5,142 C225.658,142 242,143.342 242,144.998" id="Fill-16" fill="#D3EDFF"></path>
        </g>
    </g>
</svg>