<svg width="408" height="149" viewBox="0 0 408 149"><g fill="none" fill-rule="evenodd"><path fill="#2B81CB" d="M245 18.998A2 2 0 0 0 243 17h-75a2 2 0 0 0-2 1.998v106.004a2 2 0 0 0 2 1.998h75a2 2 0 0 0 2-1.998V18.998"/><path fill="#D3EDFF" d="M239 21h-67a2 2 0 0 0-2 2v94a2 2 0 0 0 2 2h67a2 2 0 0 0 2-2V23a2 2 0 0 0-2-2"/><path fill="#FFF" d="M239 21h-67c-1.1 0-2 .9-2 2v94a2 2 0 0 0 2 2h46l23-23V23c0-1.1-.9-2-2-2"/><path fill="#2B81CB" d="M194.172 27.973c-.01-.042-.03-.08-.042-.12a2.985 2.985 0 0 0-2.85-2.123c-.598 0-1.152.18-1.62.48-.06.038-.105.09-.16.134a3.01 3.01 0 0 0-.753.815 3.02 3.02 0 0 0-.297.612c-.026.076-.043.155-.062.233-.012.048-.027.094-.038.142-.04.188-.07.38-.07.58a3 3 0 0 0 3 2.997 2.985 2.985 0 0 0 2.585-1.5c.05-.086.1-.17.14-.26.018-.037.027-.076.042-.113.08-.203.14-.418.178-.64.028-.158.055-.317.055-.483 0-.262-.045-.512-.108-.754"/><path fill="#7FCCF8" d="M193.864 11.403c-4.992 0-9.054 4.243-9.054 9.23 0 2.932 1.41 5.626 3.578 7.28 1.523 1.16 3.417 1.905 5.476 1.905.062 0 .12.01.183.01.08-.204.14-.407.178-.63.028-.158.055-.31.055-.477 0-.26-.045-.508-.108-.75-.01-.042-.03-.078-.042-.118-.09.003-.176.013-.266.013a7.018 7.018 0 0 1-4.365-1.522 7.028 7.028 0 0 1-2.69-5.525c0-3.887 3.164-7.417 7.054-7.417 2.782 0 5.187 1.6 6.335 3.6h2.166c-1.265-4-4.593-5.597-8.502-5.597"/><path fill="#2B81CB" d="M209.172 27.973c-.01-.042-.03-.08-.042-.12a2.985 2.985 0 0 0-2.85-2.123c-.598 0-1.152.18-1.62.48-.06.038-.105.09-.16.134a3.01 3.01 0 0 0-.753.815 3.02 3.02 0 0 0-.297.612c-.026.076-.043.155-.062.233-.012.048-.027.094-.038.142-.04.188-.07.38-.07.58a3 3 0 0 0 3 2.997 2.985 2.985 0 0 0 2.585-1.5c.05-.086.1-.17.14-.26.018-.037.027-.076.042-.113.08-.203.14-.418.178-.64.028-.158.055-.317.055-.483 0-.262-.045-.512-.108-.754"/><path fill="#7FCCF8" d="M208.864 11.403c-4.992 0-9.054 4.243-9.054 9.23 0 2.932 1.41 5.626 3.578 7.28 1.523 1.16 3.417 1.905 5.476 1.905.062 0 .12.01.183.01.08-.204.14-.407.178-.63.028-.158.055-.31.055-.477 0-.26-.045-.508-.108-.75-.01-.042-.03-.078-.042-.118-.09.003-.176.013-.266.013a7.018 7.018 0 0 1-4.365-1.522 7.028 7.028 0 0 1-2.69-5.525c0-3.887 3.164-7.417 7.054-7.417 2.782 0 5.187 1.6 6.335 3.6h2.166c-1.265-4-4.593-5.597-8.502-5.597"/><path fill="#2B81CB" d="M224.172 27.973c-.01-.042-.03-.08-.042-.12a2.985 2.985 0 0 0-2.85-2.123c-.598 0-1.152.18-1.62.48-.06.038-.105.09-.16.134a3.01 3.01 0 0 0-.753.815 3.02 3.02 0 0 0-.297.612c-.026.076-.043.155-.062.233-.012.048-.027.094-.038.142-.04.188-.07.38-.07.58a3 3 0 0 0 3 2.997 2.985 2.985 0 0 0 2.585-1.5c.05-.086.1-.17.14-.26.018-.037.027-.076.042-.113.08-.203.14-.418.178-.64.028-.158.055-.317.055-.483 0-.262-.045-.512-.108-.754"/><path fill="#7FCCF8" d="M223.864 11.403c-4.992 0-9.054 4.243-9.054 9.23 0 2.932 1.41 5.626 3.578 7.28 1.523 1.16 3.417 1.905 5.476 1.905.062 0 .12.01.183.01.08-.204.14-.407.178-.63.028-.158.055-.31.055-.477 0-.26-.045-.508-.108-.75-.01-.042-.03-.078-.042-.118-.09.003-.176.013-.266.013a7.018 7.018 0 0 1-4.365-1.522 7.028 7.028 0 0 1-2.69-5.525c0-3.887 3.164-7.417 7.054-7.417 2.782 0 5.187 1.6 6.335 3.6h2.166c-1.265-4-4.593-5.597-8.502-5.597"/><path stroke="#4EB7F6" d="M187 46.5h38m-38 11h38m-38 11h38m-38 11h38m-38 11h38m-38 11h38" stroke-linecap="round" stroke-linejoin="round" stroke-dasharray="1 3"/><path fill="#7FCCF8" d="M218 119V98c0-1.1.9-2 2-2h21l-23 23"/><path fill="#FFF" d="M161 6l3.83-1.17L166 1l1.17 3.83L171 6l-3.83 1.17L166 11l-1.17-3.83L161 6M153 38l3.83-1.17L158 33l1.17 3.83L163 38l-3.83 1.17L158 43l-1.17-3.83L153 38M142 20l6.895-2.105L151 11l2.105 6.895L160 20l-6.895 2.105L151 29l-2.105-6.895L142 20"/><path stroke="#2B81CB" d="M231 112.5h7m-3.5 3.5v-7"/><path fill="#D3EDFF" d="M242 144.998c0 1.655-16.342 2.997-36.5 2.997-20.16 0-36.5-1.342-36.5-2.997 0-1.656 16.34-2.998 36.5-2.998 20.158 0 36.5 1.342 36.5 2.998"/></g></svg>