<?xml version="1.0" encoding="utf-8"?>
<!DOCTYPE svg PUBLIC "-//W3C//DTD SVG 1.1//EN" "http://www.w3.org/Graphics/SVG/1.1/DTD/svg11.dtd">
<svg version="1.1" baseProfile="full"
 xmlns="http://www.w3.org/2000/svg"
 xmlns:xlink="http://www.w3.org/1999/xlink"
 xmlns:ev="http://www.w3.org/2001/xml-events" 
  height="11px" 
  width="14px"
 viewBox="0 0 14 11"
>
<path fill="rgb( 96, 188, 87 )"
 d="M4.995,10.994 C4.98699999999997,10.994 4.97900000000004,10.994 4.97199999999998,10.994 C4.67200000000003,10.987 4.38999999999999,10.849 4.20600000000002,10.617 C4.20600000000002,10.617 1.21000000000004,6.85300000000001 1.21000000000004,6.85300000000001 C0.87099999999998,6.42700000000002 0.95000000000005,5.81400000000002 1.38499999999999,5.483 C1.82100000000003,5.15300000000002 2.44799999999998,5.22899999999998 2.78700000000003,5.654 C2.78700000000003,5.654 5.02999999999997,8.47300000000001 5.02999999999997,8.47300000000001 C5.02999999999997,8.47300000000001 11.254,1.33999999999997 11.254,1.33999999999997 C11.612,0.93099999999998 12.242,0.88099999999997 12.662,1.23000000000002 C13.082,1.58100000000002 13.1319999999999,2.197 12.774,2.60700000000003 C12.774,2.60700000000003 5.755,10.651 5.755,10.651 C5.56500000000005,10.869 5.28700000000003,10.994 4.995,10.994 Z "/>
</svg>
