<?xml version="1.0" encoding="utf-8"?>
<!DOCTYPE svg PUBLIC "-//W3C//DTD SVG 1.1//EN" "http://www.w3.org/Graphics/SVG/1.1/DTD/svg11.dtd">
<svg version="1.1" baseProfile="full"
 xmlns="http://www.w3.org/2000/svg"
 xmlns:xlink="http://www.w3.org/1999/xlink"
 xmlns:ev="http://www.w3.org/2001/xml-events" 
  height="10px" 
  width="11px"
 viewBox="0 0 11 10"
>
<path fill="rgb( 238, 89, 81 )"
 d="M6.60400000000004,5.49400000000003 C6.60400000000004,5.49400000000003 9.75599999999997,2.33600000000001 9.75599999999997,2.33600000000001 C10.063,2.02800000000002 10.063,1.52999999999997 9.75599999999997,1.22199999999998 C9.44799999999998,0.91399999999999 8.95100000000002,0.91399999999999 8.64400000000001,1.22199999999998 C8.64400000000001,1.22199999999998 5.49199999999996,4.38 5.49199999999996,4.38 C5.49199999999996,4.38 2.34100000000001,1.22199999999998 2.34100000000001,1.22199999999998 C2.03399999999999,0.91399999999999 1.53599999999994,0.91399999999999 1.22900000000004,1.22199999999998 C0.92200000000003,1.52999999999997 0.92200000000003,2.02800000000002 1.22900000000004,2.33600000000001 C1.22900000000004,2.33600000000001 4.38,5.49400000000003 4.38,5.49400000000003 C4.38,5.49400000000003 1.22900000000004,8.65199999999999 1.22900000000004,8.65199999999999 C0.92200000000003,8.95999999999998 0.92200000000003,9.45800000000003 1.22900000000004,9.76600000000002 C1.38199999999995,9.92000000000002 1.58399999999995,9.99700000000001 1.78499999999997,9.99700000000001 C1.98599999999999,9.99700000000001 2.18700000000001,9.92000000000002 2.34100000000001,9.76600000000002 C2.34100000000001,9.76600000000002 5.49199999999996,6.608 5.49199999999996,6.608 C5.49199999999996,6.608 8.64400000000001,9.76600000000002 8.64400000000001,9.76600000000002 C8.79700000000003,9.92000000000002 8.99800000000005,9.99700000000001 9.20000000000005,9.99700000000001 C9.40099999999995,9.99700000000001 9.60199999999998,9.92000000000002 9.75599999999997,9.76600000000002 C10.063,9.45800000000003 10.063,8.95999999999998 9.75599999999997,8.65199999999999 C9.75599999999997,8.65199999999999 6.60400000000004,5.49400000000003 6.60400000000004,5.49400000000003 Z "/>
</svg>
