<?xml version="1.0" encoding="utf-8"?>
<svg xmlns="http://www.w3.org/2000/svg"
	xmlns:xlink="http://www.w3.org/1999/xlink"
	width="13px" height="15px" viewBox="0 0 13 15">
<path fill="rgb(55, 153, 235)"
 d="M12,3 C12,3 12,12 12,12 C12,13.657 10.657,15 9,15 C9,15 4,15 4,15 C2.34300000000002,15 1,13.657 1,12 C1,12 1,3 1,3 C1,3 0,3 0,3 C0,3 0,2 0,2 C0,2 4,2 4,2 C4,2 4,1.5 4,1.5 C4,0.673 4.68400000000003,0 5.52499999999998,0 C5.52499999999998,0 7.392,0 7.392,0 C8.24900000000002,0 9,0.70099999999999 9,1.5 C9,1.5 9,2 9,2 C9,2 13,2 13,2 C13,2 13,3 13,3 C13,3 12,3 12,3 ZM8,1.5 C8,1.25200000000001 7.69299999999998,1 7.392,1 C7.392,1 5.52499999999998,1 5.52499999999998,1 C5.24000000000001,1 5,1.22900000000001 5,1.5 C5,1.5 5,2 5,2 C5,2 8,2 8,2 C8,2 8,1.5 8,1.5 ZM11,3 C11,3 9,3 9,3 C9,3 4,3 4,3 C4,3 2,3 2,3 C2,3 2,12 2,12 C2,13.105 2.89499999999998,14 4,14 C4,14 9,14 9,14 C10.105,14 11,13.105 11,12 C11,12 11,3 11,3 ZM8,5 C8,5 9,5 9,5 C9,5 9,11 9,11 C9,11 8,11 8,11 C8,11 8,5 8,5 ZM6,5 C6,5 7,5 7,5 C7,5 7,11 7,11 C7,11 6,11 6,11 C6,11 6,5 6,5 ZM4,5 C4,5 5,5 5,5 C5,5 5,11 5,11 C5,11 4,11 4,11 C4,11 4,5 4,5 Z "/>
</svg>