<svg xmlns="http://www.w3.org/2000/svg" width="101" height="140" class="symbol-uninstal-special-app-page-clipart" viewBox="0 0 101 140"><path fill="#2b5672" d="M52.498 34.8c-.15-.61-.76-.978-1.36-.825-.598.154-.96.77-.81 1.38l2.41 9.697c.15.61.76.977 1.36.824.598-.154.96-.77.81-1.38l-2.41-9.697z"/><path fill="#ffb5b3" d="M55.407 40.87c-.335-1.347-1.68-2.163-3.007-1.823-1.326.34-2.13 1.707-1.795 3.054l5.333 21.46c.335 1.348 1.68 2.164 3.007 1.824 1.326-.34 2.13-1.707 1.795-3.054-.2-.8-5.134-20.658-5.333-21.46z"/><path fill="#2b5672" d="M78.37 56.947a1.15 1.15 0 0 0-.114-1.603 1.106 1.106 0 0 0-1.578.116l-6.443 7.562a1.15 1.15 0 0 0 .114 1.603c.466.41 1.173.36 1.577-.116l6.443-7.563z"/><path fill="#ffb5b3" d="M75.138 62.848a2.543 2.543 0 0 0-.252-3.548 2.45 2.45 0 0 0-3.493.256c-.533.625-9.025 10.78-9.557 11.404a2.543 2.543 0 0 0 .252 3.548 2.45 2.45 0 0 0 3.493-.256c.533-.625 9.025-10.78 9.558-11.404z"/><path fill="#2b5672" d="M39.824 42.376a1.11 1.11 0 0 0-1.56-.276 1.147 1.147 0 0 0-.27 1.583l5.664 8.18a1.11 1.11 0 0 0 1.56.276c.504-.362.626-1.07.27-1.584l-5.664-8.18z"/><path fill="#ffb5b3" d="M44.678 46.99a2.452 2.452 0 0 0-3.45-.61 2.54 2.54 0 0 0-.6 3.504L53.16 67.988a2.452 2.452 0 0 0 3.45.61 2.54 2.54 0 0 0 .6-3.504c-.467-.677-12.066-17.428-12.534-18.104z"/><path fill="#2b5672" d="M34.63 53.766a1.107 1.107 0 0 0-1.576.14 1.148 1.148 0 0 0 .14 1.602c.28.24 7.264 6.182 7.546 6.422.474.403 1.18.34 1.576-.14a1.148 1.148 0 0 0-.14-1.602c-.28-.24-7.264-6.182-7.546-6.422z"/><path fill="#ffb5b3" d="M40.49 56.954a2.45 2.45 0 0 0-3.488.313 2.543 2.543 0 0 0 .308 3.543l16.703 14.213a2.45 2.45 0 0 0 3.488-.313 2.543 2.543 0 0 0-.307-3.543L40.49 56.954z"/><path fill="#ffb5b3" d="M51.886 72.64c-2.737-4.496-1.29-10.343 3.194-13.09 4.484-2.746 10.3-1.417 13.04 3.08 2.736 4.496 1.273 10.316-3.21 13.062h-.002c-4.484 2.748-10.284 1.445-13.022-3.052z"/><linearGradient id="a" x1="53.382" x2="65.277" y1="63.87" y2="63.87" gradientUnits="userSpaceOnUse"><stop offset="0" stop-color="#FFF"/><stop offset="1" stop-color="#FFF"/></linearGradient><path fill="none" stroke="url(#a)" stroke-miterlimit="10" d="M53.882 66.637c0-3.056 2.44-5.533 5.447-5.533s5.446 2.477 5.446 5.533" stroke-linecap="round" stroke-dasharray="1 3"/><path fill="#2b5672" d="M52.5 101.123l13 .02V75s-3.723 3-3.723 0c0-2-3.998 3-3.998 0 0-5-2.28.42-5.28-.933v27.056z"/><path fill="#ffb5b3" d="M33.586 8.183L16.586 0 0 35.333l25.052 12.06 12.76-27.18z"/><path fill="#7992a5" d="M30.653 16.767l7.158 3.445-4.223-12.03-3.403 7.248c-.235.5-.025 1.1.47 1.337z"/><path fill="none" stroke="#FFF" stroke-miterlimit="10" d="M14.468 16.196l16.105 7.752M12.342 20.726l16.104 7.752M10.215 25.256l16.105 7.752"/><ellipse cx="58.706" cy="137.504" fill="#d9e1e8" rx="29.851" ry="2.496"/><path fill="#7992a5" d="M49.185 138h20.043c6.03 0 10.916-4.873 10.91-10.97L80.105 90H38.308l-.033 37.03c-.005 6.097 4.88 10.97 10.91 10.97z"/><path fill="none" stroke="#2b5672" stroke-width="3" stroke-miterlimit="10" d="M82.5 90.5h-47"/><path fill="none" stroke="#f0f3f5" stroke-miterlimit="10" d="M67 100v28M59 100v28M51 100v28"/><path fill="none" stroke="#2b5672" stroke-width="3" stroke-miterlimit="10" d="M87.12 38.533l3.752-4.547c1.654-2.005 1.424-5.017-.513-6.728l-6.03-5.327c-1.938-1.71-4.85-1.473-6.503.532l-3.752 4.547M100 49.91L61.194 15.63"/></svg>