<svg class="symbol-uninstal-special-app-page-clipart" version="1.1" xmlns="http://www.w3.org/2000/svg" xmlns:xlink="http://www.w3.org/1999/xlink" width="101px" height="140px" viewBox="0 0 101 140">
  <path style="fill:#2B5672;" d="M52.498,34.799c-0.151-0.609-0.759-0.977-1.359-0.824c-0.599,0.154-0.962,0.771-0.811,1.38
                                 c0.09,0.362,2.32,9.335,2.41,9.697c0.151,0.609,0.76,0.977,1.359,0.824c0.599-0.154,0.962-0.771,0.811-1.38
                                 C54.818,44.133,52.588,35.161,52.498,34.799z"/>
  <path style="fill:#FFB5B3;" d="M55.407,40.87c-0.335-1.347-1.681-2.163-3.007-1.823c-1.326,0.34-2.129,1.707-1.795,3.054
                                 c0.199,0.802,5.134,20.658,5.333,21.46c0.335,1.347,1.681,2.163,3.007,1.823c1.326-0.34,2.129-1.707,1.795-3.054
                                 C60.54,61.529,55.606,41.672,55.407,40.87z"/>
  <path style="fill:#2B5672;" d="M78.37,56.947c0.404-0.475,0.353-1.192-0.114-1.603c-0.467-0.411-1.174-0.359-1.578,0.116
                                 c-0.241,0.282-6.202,7.28-6.443,7.562c-0.404,0.475-0.353,1.192,0.114,1.603c0.467,0.411,1.174,0.359,1.578-0.116
                                 C72.168,64.227,78.129,57.23,78.37,56.947z"/>
  <path style="fill:#FFB5B3;" d="M75.138,62.848c0.895-1.05,0.782-2.639-0.252-3.548c-1.034-0.909-2.598-0.794-3.493,0.256
                                 c-0.533,0.625-9.025,10.779-9.557,11.404c-0.895,1.05-0.782,2.639,0.252,3.548c1.034,0.909,2.598,0.794,3.493-0.256
                                 C66.113,73.627,74.605,63.473,75.138,62.848z"/>
  <path style="fill:#2B5672;" d="M39.824,42.376c-0.356-0.513-1.053-0.637-1.559-0.276c-0.505,0.361-0.627,1.07-0.271,1.583
                                 c0.212,0.306,5.453,7.875,5.664,8.18c0.356,0.513,1.053,0.637,1.559,0.276c0.505-0.361,0.627-1.07,0.271-1.583
                                 C45.276,50.251,40.035,42.682,39.824,42.376z"/>
  <path style="fill:#FFB5B3;" d="M44.678,46.99c-0.787-1.136-2.331-1.409-3.45-0.61c-1.118,0.799-1.388,2.368-0.601,3.504
                                 c0.468,0.676,12.067,17.427,12.535,18.104c0.787,1.136,2.331,1.409,3.45,0.61c1.119-0.799,1.388-2.368,0.601-3.504
                                 C56.745,64.417,45.146,47.666,44.678,46.99z"/>
  <path style="fill:#2B5672;" d="M34.63,53.766c-0.474-0.403-1.179-0.34-1.576,0.141c-0.397,0.481-0.335,1.198,0.139,1.601
                                 c0.282,0.24,7.265,6.182,7.547,6.422c0.474,0.403,1.179,0.34,1.576-0.141c0.397-0.481,0.335-1.198-0.139-1.601
                                 C41.896,59.948,34.912,54.006,34.63,53.766z"/>
  <path style="fill:#FFB5B3;" d="M40.49,56.954c-1.048-0.892-2.61-0.752-3.488,0.313c-0.878,1.065-0.74,2.651,0.308,3.543
                                 c0.624,0.531,16.079,13.682,16.703,14.213c1.048,0.892,2.61,0.752,3.488-0.313c0.878-1.065,0.74-2.651-0.308-3.543
                                 C56.569,70.636,41.114,57.485,40.49,56.954z"/>
  <path style="fill:#FFB5B3;" d="M51.886,72.64c-2.737-4.496-1.291-10.343,3.194-13.091c4.484-2.745,10.301-1.416,13.039,3.081
                                 c2.737,4.496,1.274,10.316-3.209,13.062l-0.002,0.001C60.424,78.44,54.624,77.137,51.886,72.64z"/>
  <linearGradient id="SVGID_2_" gradientUnits="userSpaceOnUse" x1="53.3823" y1="63.8703" x2="65.2769" y2="63.8703">
    <stop  offset="0" style="stop-color:#FFFFFF"/>
    <stop  offset="1" style="stop-color:#FFFFFF"/>
  </linearGradient>
  <path style="fill:none;stroke:url(#SVGID_2_);stroke-linecap:round;stroke-miterlimit:10;stroke-dasharray:1,3;" d="
                                                                                                                   M53.882,66.637c0-3.056,2.439-5.533,5.447-5.533s5.447,2.477,5.447,5.533"/>
  <path style="fill:#2B5672;" d="M52.5,101.123l13,0.02V75c0,0-3.723,3-3.723,0c0-2-3.998,3-3.998,0c0-5-2.279,0.42-5.279-0.933
                                 C52.5,75.42,52.5,101.123,52.5,101.123z"/>
  <polygon style="fill:#FFB5B3;" points="33.586,8.183 16.587,0 0,35.333 25.052,47.392 37.811,20.213 		"/>
  <path style="fill:#7992A5;" d="M30.653,16.767l7.158,3.445l-4.224-12.03l-3.403,7.248C29.949,15.931,30.159,16.529,30.653,16.767z"/>
  <line style="fill:none;stroke:#FFFFFF;stroke-miterlimit:10;" x1="14.468" y1="16.196" x2="30.573" y2="23.948"/>
  <line style="fill:none;stroke:#FFFFFF;stroke-miterlimit:10;" x1="12.342" y1="20.726" x2="28.446" y2="28.478"/>
  <line style="fill:none;stroke:#FFFFFF;stroke-miterlimit:10;" x1="10.215" y1="25.256" x2="26.32" y2="33.008"/>
  <ellipse style="fill:#D9E1E8;" cx="58.706" cy="137.504" rx="29.851" ry="2.496"/>
  <path style="fill:#7992A5;" d="M49.185,138h20.043c6.029,0,10.916-4.873,10.91-10.97L80.105,90H38.308l-0.033,37.03
                                 C38.27,133.127,43.156,138,49.185,138z"/>
  <line style="fill:none;stroke:#2B5672;stroke-width:3;stroke-miterlimit:10;" x1="82.5" y1="90.5" x2="35.5" y2="90.5"/>
  <line style="fill:none;stroke:#F0F3F5;stroke-miterlimit:10;" x1="67" y1="100" x2="67" y2="128"/>
  <line style="fill:none;stroke:#F0F3F5;stroke-miterlimit:10;" x1="59" y1="100" x2="59" y2="128"/>
  <line style="fill:none;stroke:#F0F3F5;stroke-miterlimit:10;" x1="51" y1="100" x2="51" y2="128"/>
  <path style="fill:none;stroke:#2B5672;stroke-width:3;stroke-miterlimit:10;" d="M87.12,38.533l3.752-4.547
                                                                                 c1.654-2.005,1.424-5.017-0.513-6.728l-6.03-5.327c-1.937-1.711-4.849-1.474-6.502,0.531l-3.752,4.547"/>
  <line style="fill:none;stroke:#2B5672;stroke-width:3;stroke-miterlimit:10;" x1="100" y1="49.91" x2="61.194" y2="15.631"/>
</svg>