<?xml version="1.0" encoding="utf-8"?>
<svg xmlns="http://www.w3.org/2000/svg"
	xmlns:xlink="http://www.w3.org/1999/xlink"
	width="18px" height="16px" viewBox="0 0 18 16">
<path fill="rgb(45,65,79)" fill-rule="evenodd" d="M 14.16 6.77C 12.47 8.46 10.05 9.82 8.04 10.71 8.29 11.62 8.01 12.7 7.17 13.62 5.7 15.26 1.93 15.43 0.37 15.43-0.07 15.43-0.33 15.42-0.33 15.42 4 13.23 0.97 12.03 3.27 9.73 3.88 9.12 4.64 8.85 5.38 8.85 5.64 8.85 5.89 8.89 6.13 8.96 7.03 6.91 8.42 4.39 10.14 2.66 14.06-1.26 15.4-0.58 16.46 0.44 17.48 1.49 18.09 2.85 14.16 6.77ZM 5.38 9.85C 5.01 9.85 4.46 9.95 3.98 10.43 3.29 11.12 3.28 11.56 3.25 12.23 3.23 12.94 3.15 13.62 2.7 14.3 4.29 14.1 5.77 13.69 6.43 12.95 6.98 12.34 7.19 11.68 7.09 11.12 6.25 11.46 5.53 11.71 5.06 11.83 5.18 11.39 5.41 10.71 5.73 9.92 5.61 9.9 5.5 9.85 5.38 9.85ZM 5.05 11.84C 5.05 11.84 5.06 11.84 5.06 11.83 5.06 11.84 5.06 11.85 5.06 11.85 5.06 11.85 5.05 11.84 5.05 11.84ZM 16.39 0.36C 16.39 0.36 16.54 0.51 16.54 0.51 16.51 0.48 16.49 0.46 16.46 0.44 16.44 0.41 16.41 0.38 16.39 0.36Z"/>
</svg>