<svg xmlns="http://www.w3.org/2000/svg" width="20" height="18" viewBox="0 0 20 18"><path fill="#1D2D3C" fill-rule="evenodd" d="M18.547.984c-1.553-1.603-3.226-1.267-4.88 1.15-.322.47-.57.99-.81 1.49-.547 1.147-1.026 2.148-2.27 2.61L9.426 5.04a1.5 1.5 0 0 0-2.153 0L2.638 9.82a.987.987 0 0 1-1.423.004l-.002-.003-.713.736 6.628 6.836c.393.405.91.608 1.425.608.516 0 1.033-.203 1.426-.608l4.7-4.848a1.513 1.513 0 0 0 0-2.088l-1.22-1.26c.452-1.308 1.417-1.792 2.523-2.347.487-.245.99-.498 1.45-.832 1.307-.95 1.98-1.874 2.06-2.82.062-.758-.256-1.503-.946-2.214zM9.27 16.652a.997.997 0 0 1-1.435 0l-.853-.88 1.582-.815-.45-.93-1.883.97-1.263-1.304 1.58-.815-.45-.93-1.882.97-1.77-1.824c.333-.09.646-.27.906-.538L6.18 7.64l5.916 6.1-2.823 2.912zM16.85 5.17c-.39.284-.836.508-1.308.744-1.225.615-2.614 1.31-3.14 3.29l-.08.29 1.608 1.658a.506.506 0 0 1 0 .696l-1.123 1.158-5.916-6.1 1.103-1.137a.5.5 0 0 1 .718 0l1.585 1.634.283-.08c1.89-.532 2.578-1.97 3.185-3.24.23-.487.45-.947.727-1.35C15.758.88 16.703.554 17.835 1.72c.476.49.69.945.653 1.388-.05.614-.602 1.307-1.637 2.06z"/></svg>