<svg xmlns="http://www.w3.org/2000/svg" width="18" height="16" viewBox="0 0 18 16"><path fill="#2D414F" fill-rule="evenodd" d="M14.16 6.77c-1.69 1.69-4.11 3.05-6.12 3.94.25.91-.03 1.99-.87 2.91-1.47 1.64-5.24 1.81-6.8 1.81-.44 0-.7-.01-.7-.01C4 13.23.97 12.03 3.27 9.73c.61-.61 1.37-.88 2.11-.88.26 0 .51.04.75.11.9-2.05 2.29-4.57 4.01-6.3C14.06-1.26 15.4-.58 16.46.44c1.02 1.05 1.63 2.41-2.3 6.33zM5.38 9.85c-.37 0-.92.1-1.4.58-.69.69-.7 1.13-.73 1.8-.02.71-.1 1.39-.55 2.07 1.59-.2 3.07-.61 3.73-1.35.55-.61.76-1.27.66-1.83-.84.34-1.56.59-2.03.71.12-.44.35-1.12.67-1.91-.12-.02-.23-.07-.35-.07zm-.33 1.99s.01 0 .01-.01v.02l-.01-.01zM16.39.36l.15.15a.5.5 0 0 0-.08-.07c-.02-.03-.05-.06-.07-.08z"/></svg>