<?xml version="1.0" encoding="UTF-8" standalone="no"?>
<svg width="20px" height="18px" viewBox="0 0 20 18" version="1.1" xmlns="http://www.w3.org/2000/svg" xmlns:xlink="http://www.w3.org/1999/xlink" xmlns:sketch="http://www.bohemiancoding.com/sketch/ns">
    <!-- Generator: Sketch 3.3 (11970) - http://www.bohemiancoding.com/sketch -->
    <title>L_Design</title>
    <desc>Created with Sketch.</desc>
    <defs></defs>
    <g id="Page-1" stroke="none" stroke-width="1" fill="none" fill-rule="evenodd" sketch:type="MSPage">
        <path d="M18.547,0.984 C16.994,-0.619 15.321,-0.283 13.667,2.134 C13.345,2.605 13.098,3.123 12.858,3.624 C12.31,4.771 11.831,5.772 10.586,6.233 L9.428,5.04 C8.839,4.432 7.864,4.432 7.274,5.04 L2.638,9.821 C2.247,10.226 1.609,10.227 1.215,9.824 L1.213,9.821 L0.5,10.556 L7.128,17.392 C7.521,17.797 8.037,18 8.553,18 C9.069,18 9.586,17.797 9.979,17.392 L14.68,12.544 C15.237,11.97 15.237,11.03 14.68,10.456 L13.459,9.197 C13.912,7.888 14.877,7.404 15.983,6.849 C16.47,6.605 16.974,6.352 17.433,6.018 C18.74,5.067 19.414,4.144 19.492,3.197 C19.555,2.44 19.237,1.695 18.547,0.984 L18.547,0.984 Z M9.271,16.652 C8.876,17.059 8.23,17.059 7.835,16.652 L6.982,15.772 L8.564,14.957 L8.113,14.027 L6.231,14.997 L4.967,13.693 L6.548,12.878 L6.097,11.948 L4.215,12.918 L2.446,11.094 C2.778,11.003 3.091,10.824 3.351,10.556 L6.178,7.64 L12.094,13.741 L9.271,16.652 L9.271,16.652 Z M16.851,5.169 C16.46,5.454 16.014,5.678 15.542,5.914 C14.317,6.529 12.928,7.225 12.401,9.203 L12.323,9.495 L13.93,11.152 C14.115,11.343 14.115,11.656 13.93,11.848 L12.807,13.006 L6.891,6.905 L7.993,5.769 C8.189,5.567 8.514,5.567 8.711,5.769 L10.295,7.404 L10.578,7.325 C12.469,6.792 13.156,5.353 13.763,4.083 C13.994,3.597 14.214,3.137 14.49,2.734 C15.758,0.881 16.703,0.553 17.835,1.719 C18.311,2.211 18.525,2.665 18.488,3.108 C18.437,3.722 17.886,4.415 16.851,5.169 L16.851,5.169 Z" id="L_Design" fill="#1D2D3C" sketch:type="MSShapeGroup"></path>
    </g>
</svg>