<?xml version="1.0" encoding="UTF-8" standalone="no"?>
<svg width="34px" height="34px" viewBox="0 0 34 34" version="1.1" xmlns="http://www.w3.org/2000/svg">
    <g stroke="none" stroke-width="1" fill="none" fill-rule="evenodd">
        <g class="icon">
            <g transform="translate(5.000000, 7.000000)">
                <path d="M22,1 C23.103,1 24,1.897 24,3 L24,15 C24,16.103 22.664,17 21.561,17 L3.105,17 C2.002,17 1,16.103 1,15 L1,3 C1,1.897 2.002,1 3.105,1 L22,1 M21.561,0 L3.105,0 C1.448,0 0,1.343 0,3 L0,15 C0,16.657 1.448,18 3.105,18 L21.561,18 C23.218,18 25,16.657 25,15 L25,3 C25,1.343 23.438,0 21.781,0 L21.561,0"></path>
                <path d="M9,22 L16,22 L16,22.94 L9,22.94 L9,22 Z"></path>
                <path d="M12,18 L13,18 L13,22 L12,22 L12,18 Z"></path>
                <path d="M1,13 L24,13 L24,14 L1,14 L1,13 Z"></path>
            </g>
        </g>
    </g>
</svg>
