<?xml version="1.0" encoding="utf-8"?>
<svg xmlns="http://www.w3.org/2000/svg"
	xmlns:xlink="http://www.w3.org/1999/xlink"
	width="17px" height="17px" viewBox="0 0 17 17">
<path fill="rgb(121,145,165)" fill-rule="evenodd" d="M 13.9 3.02C 13.9 3.02 3.9 3.02 3.9 3.02 2.8 3.02 2.32 2.91 2.32 4.01 2.32 4.01 2.32 9.97 2.32 9.97 2.32 9.97 2.32 10.97 2.32 10.97 2.32 12.06 3.22 12.95 4.32 12.95 4.32 12.95 8.32 12.95 8.32 12.95 8.32 12.95 8.32 14.94 8.32 14.94 8.32 14.94 6.32 14.94 6.32 14.94 6.32 14.94 6.32 16.93 6.32 16.93 6.32 16.93 9.32 16.93 9.32 16.93 9.32 16.93 12.32 16.93 12.32 16.93 12.32 16.93 12.32 14.94 12.32 14.94 12.32 14.94 10.32 14.94 10.32 14.94 10.32 14.94 10.32 12.95 10.32 12.95 10.32 12.95 14.32 12.95 14.32 12.95 15.42 12.95 16.32 12.06 16.32 10.97 16.32 10.97 16.32 9.97 16.32 9.97 16.32 9.97 16.32 4.01 16.32 4.01 16.32 2.91 15.01 3.02 13.9 3.02ZM 4.32 9.97C 4.32 9.97 4.32 5.01 4.32 5.01 4.32 5.01 14.32 5.01 14.32 5.01 14.32 5.01 14.32 9.97 14.32 9.97 14.32 9.97 4.32 9.97 4.32 9.97Z"/>
<path fill="rgb(207,65,125)" fill-rule="evenodd" d="M 0.04 0.42C 0.04 0.42 0.6-0.42 0.6-0.42 0.6-0.42 16.6 15.58 16.6 15.58 16.6 15.58 16.04 16.42 16.04 16.42 16.04 16.42 0.04 0.42 0.04 0.42Z"/>
</svg>