<?xml version="1.0" encoding="utf-8"?>
<svg xmlns="http://www.w3.org/2000/svg"
	xmlns:xlink="http://www.w3.org/1999/xlink"
	width="15px" height="14px" viewBox="0 0 15 14">
<path fill="rgb(121,145,165)" fill-rule="evenodd" d="M 12.21 0.02C 12.21 0.02 2.21 0.02 2.21 0.02 1.1 0.02 0.63-0.09 0.63 1.01 0.63 1.01 0.63 6.97 0.63 6.97 0.63 6.97 0.63 7.97 0.63 7.97 0.63 9.06 1.52 9.95 2.63 9.95 2.63 9.95 6.63 9.95 6.63 9.95 6.63 9.95 6.63 11.94 6.63 11.94 6.63 11.94 4.63 11.94 4.63 11.94 4.63 11.94 4.63 13.93 4.63 13.93 4.63 13.93 7.63 13.93 7.63 13.93 7.63 13.93 10.63 13.93 10.63 13.93 10.63 13.93 10.63 11.94 10.63 11.94 10.63 11.94 8.63 11.94 8.63 11.94 8.63 11.94 8.63 9.95 8.63 9.95 8.63 9.95 12.63 9.95 12.63 9.95 13.73 9.95 14.63 9.06 14.63 7.97 14.63 7.97 14.63 6.97 14.63 6.97 14.63 6.97 14.63 1.01 14.63 1.01 14.63-0.09 13.31 0.02 12.21 0.02ZM 2.63 6.97C 2.63 6.97 2.63 2.01 2.63 2.01 2.63 2.01 12.63 2.01 12.63 2.01 12.63 2.01 12.63 6.97 12.63 6.97 12.63 6.97 2.63 6.97 2.63 6.97Z"/>
</svg>