<svg xmlns="http://www.w3.org/2000/svg"
    xmlns:xlink="http://www.w3.org/1999/xlink"
        preserveAspectRatio="xMidYMid" viewBox="0 0 28 16" width="28" height="16">
  <path d="M26.500,16.000 C26.500,16.000 21.500,16.000 21.500,16.000 C20.673,16.000 20.000,15.327 20.000,14.500 C20.000,14.500 20.000,4.500 20.000,4.500 C20.000,3.673 20.673,3.000 21.500,3.000 C21.500,3.000 26.500,3.000 26.500,3.000 C27.327,3.000 28.000,3.673 28.000,4.500 C28.000,4.500 28.000,14.500 28.000,14.500 C28.000,15.327 27.327,16.000 26.500,16.000 ZM27.000,4.500 C27.000,4.224 26.776,4.000 26.500,4.000 C26.500,4.000 21.500,4.000 21.500,4.000 C21.224,4.000 21.000,4.224 21.000,4.500 C21.000,4.500 21.000,14.500 21.000,14.500 C21.000,14.776 21.224,15.000 21.500,15.000 C21.500,15.000 26.500,15.000 26.500,15.000 C26.776,15.000 27.000,14.776 27.000,14.500 C27.000,14.500 27.000,4.500 27.000,4.500 ZM24.000,14.000 C23.448,14.000 23.000,13.552 23.000,13.000 C23.000,12.448 23.448,12.000 24.000,12.000 C24.552,12.000 25.000,12.448 25.000,13.000 C25.000,13.552 24.552,14.000 24.000,14.000 ZM15.500,13.000 C15.500,13.000 9.000,13.000 9.000,13.000 C9.000,13.000 9.000,15.000 9.000,15.000 C9.000,15.000 11.000,15.000 11.000,15.000 C11.000,15.000 11.000,16.000 11.000,16.000 C11.000,16.000 6.000,16.000 6.000,16.000 C6.000,16.000 6.000,15.000 6.000,15.000 C6.000,15.000 8.000,15.000 8.000,15.000 C8.000,15.000 8.000,13.000 8.000,13.000 C8.000,13.000 1.500,13.000 1.500,13.000 C0.673,13.000 0.000,12.327 0.000,11.500 C0.000,11.500 0.000,1.500 0.000,1.500 C0.000,0.673 0.673,0.000 1.500,0.000 C1.500,0.000 15.500,0.000 15.500,0.000 C16.327,0.000 17.000,0.673 17.000,1.500 C17.000,1.500 17.000,11.500 17.000,11.500 C17.000,12.327 16.327,13.000 15.500,13.000 ZM16.000,1.500 C16.000,1.224 15.776,1.000 15.500,1.000 C15.500,1.000 1.500,1.000 1.500,1.000 C1.224,1.000 1.000,1.224 1.000,1.500 C1.000,1.500 1.000,9.000 1.000,9.000 C1.000,9.000 16.000,9.000 16.000,9.000 C16.000,9.000 16.000,1.500 16.000,1.500 ZM16.000,10.000 C16.000,10.000 1.000,10.000 1.000,10.000 C1.000,10.000 1.000,11.500 1.000,11.500 C1.000,11.776 1.224,12.000 1.500,12.000 C1.500,12.000 15.500,12.000 15.500,12.000 C15.776,12.000 16.000,11.776 16.000,11.500 C16.000,11.500 16.000,10.000 16.000,10.000 Z" id="path-1" class="cls-2" fill-rule="evenodd"/>
</svg>
