<svg xmlns="http://www.w3.org/2000/svg" width="28" height="16" preserveAspectRatio="xMidYMid" viewBox="0 0 28 16"><path fill-rule="evenodd" d="M26.5 16h-5c-.827 0-1.5-.673-1.5-1.5v-10c0-.827.673-1.5 1.5-1.5h5c.827 0 1.5.673 1.5 1.5v10c0 .827-.673 1.5-1.5 1.5zM27 4.5a.5.5 0 0 0-.5-.5h-5a.5.5 0 0 0-.5.5v10a.5.5 0 0 0 .5.5h5a.5.5 0 0 0 .5-.5v-10zM24 14a1 1 0 1 1 0-2 1 1 0 0 1 0 2zm-8.5-1H9v2h2v1H6v-1h2v-2H1.5C.673 13 0 12.327 0 11.5v-10C0 .673.673 0 1.5 0h14c.827 0 1.5.673 1.5 1.5v10c0 .827-.673 1.5-1.5 1.5zM16 1.5a.5.5 0 0 0-.5-.5h-14a.5.5 0 0 0-.5.5V9h15V1.5zm0 8.5H1v1.5a.5.5 0 0 0 .5.5h14a.5.5 0 0 0 .5-.5V10z" class="cls-2"/></svg>