<?xml version="1.0" encoding="utf-8"?><!DOCTYPE svg PUBLIC "-//W3C//DTD SVG 1.1//EN" "http://www.w3.org/Graphics/SVG/1.1/DTD/svg11.dtd"><svg version="1.1" baseProfile="full" xmlns="http://www.w3.org/2000/svg" xmlns:xlink="http://www.w3.org/1999/xlink" xmlns:ev="http://www.w3.org/2001/xml-events"   height="12px"   width="8px" viewBox="0 0 8 12"><path fill="rgb( 56, 153, 236 )" d="M6,11.979 C6,11.979 6,9.979 6,9.979 C6,9.979 8,9.979 8,9.979 C8,9.979 8,11.979 8,11.979 C8,11.979 6,11.979 6,11.979 ZM6,6.979 C6,6.979 8,6.979 8,6.979 C8,6.979 8,8.979 8,8.979 C8,8.979 6,8.979 6,8.979 C6,8.979 6,6.979 6,6.979 ZM6,3.979 C6,3.979 8,3.979 8,3.979 C8,3.979 8,5.979 8,5.979 C8,5.979 6,5.979 6,5.979 C6,5.979 6,3.979 6,3.979 ZM6,0.979 C6,0.979 8,0.979 8,0.979 C8,0.979 8,2.979 8,2.979 C8,2.979 6,2.979 6,2.979 C6,2.979 6,0.979 6,0.979 ZM3,9.979 C3,9.979 5,9.979 5,9.979 C5,9.979 5,11.979 5,11.979 C5,11.979 3,11.979 3,11.979 C3,11.979 3,9.979 3,9.979 ZM3,6.979 C3,6.979 5,6.979 5,6.979 C5,6.979 5,8.979 5,8.979 C5,8.979 3,8.979 3,8.979 C3,8.979 3,6.979 3,6.979 ZM3,3.979 C3,3.979 5,3.979 5,3.979 C5,3.979 5,5.979 5,5.979 C5,5.979 3,5.979 3,5.979 C3,5.979 3,3.979 3,3.979 ZM3,0.979 C3,0.979 5,0.979 5,0.979 C5,0.979 5,2.979 5,2.979 C5,2.979 3,2.979 3,2.979 C3,2.979 3,0.979 3,0.979 ZM0,9.979 C0,9.979 2,9.979 2,9.979 C2,9.979 2,11.979 2,11.979 C2,11.979 0,11.979 0,11.979 C0,11.979 0,9.979 0,9.979 ZM0,6.979 C0,6.979 2,6.979 2,6.979 C2,6.979 2,8.979 2,8.979 C2,8.979 0,8.979 0,8.979 C0,8.979 0,6.979 0,6.979 ZM0,3.979 C0,3.979 2,3.979 2,3.979 C2,3.979 2,5.979 2,5.979 C2,5.979 0,5.979 0,5.979 C0,5.979 0,3.979 0,3.979 ZM0,2.96899999999999 C0,2.96899999999999 0,0.979 0,0.979 C0,0.979 0,0.96899999999999 0,0.96899999999999 C0,0.96899999999999 2,0.96899999999999 2,0.96899999999999 C2,0.96899999999999 2,0.979 2,0.979 C2,0.979 2,2.96899999999999 2,2.96899999999999 C2,2.96899999999999 2,2.979 2,2.979 C2,2.979 0,2.979 0,2.979 C0,2.979 0,2.96899999999999 0,2.96899999999999 Z "/></svg>