<svg xmlns="http://www.w3.org/2000/svg" width="15" height="23" preserveAspectRatio="xMidYMid" viewBox="0 0 15 23"><path fill-rule="evenodd" d="M11.47 21.906v-2.812h2.75v2.812h-2.75zm0-8.812h2.75v2.812h-2.75v-2.812zm0-6h2.75v2.812h-2.75V7.094zm0-6h2.75v2.812h-2.75V1.094zm-5 18h2.75v2.812H6.47v-2.812zm0-6h2.75v2.812H6.47v-2.812zm0-6h2.75v2.812H6.47V7.094zm0-6h2.75v2.812H6.47V1.094zm-5 18h2.75v2.812H1.47v-2.812zm0-6h2.75v2.812H1.47v-2.812zm0-6h2.75v2.812H1.47V7.094zm0-6h2.75v2.812H1.47V1.094z" class="cls-4"/></svg>