<svg xmlns="http://www.w3.org/2000/svg" xmlns:xlink="http://www.w3.org/1999/xlink" preserveAspectRatio="xMidYMid" width="15" height="23" viewBox="0 0 15 23">
  
  <g id="i">
    <path d="M11.469,21.906 C11.469,21.906 11.469,19.094 11.469,19.094 C11.469,19.094 14.219,19.094 14.219,19.094 C14.219,19.094 14.219,21.906 14.219,21.906 C14.219,21.906 11.469,21.906 11.469,21.906 ZM11.469,13.094 C11.469,13.094 14.219,13.094 14.219,13.094 C14.219,13.094 14.219,15.906 14.219,15.906 C14.219,15.906 11.469,15.906 11.469,15.906 C11.469,15.906 11.469,13.094 11.469,13.094 ZM11.469,7.094 C11.469,7.094 14.219,7.094 14.219,7.094 C14.219,7.094 14.219,9.906 14.219,9.906 C14.219,9.906 11.469,9.906 11.469,9.906 C11.469,9.906 11.469,7.094 11.469,7.094 ZM11.469,1.094 C11.469,1.094 14.219,1.094 14.219,1.094 C14.219,1.094 14.219,3.906 14.219,3.906 C14.219,3.906 11.469,3.906 11.469,3.906 C11.469,3.906 11.469,1.094 11.469,1.094 ZM6.469,19.094 C6.469,19.094 9.219,19.094 9.219,19.094 C9.219,19.094 9.219,21.906 9.219,21.906 C9.219,21.906 6.469,21.906 6.469,21.906 C6.469,21.906 6.469,19.094 6.469,19.094 ZM6.469,13.094 C6.469,13.094 9.219,13.094 9.219,13.094 C9.219,13.094 9.219,15.906 9.219,15.906 C9.219,15.906 6.469,15.906 6.469,15.906 C6.469,15.906 6.469,13.094 6.469,13.094 ZM6.469,7.094 C6.469,7.094 9.219,7.094 9.219,7.094 C9.219,7.094 9.219,9.906 9.219,9.906 C9.219,9.906 6.469,9.906 6.469,9.906 C6.469,9.906 6.469,7.094 6.469,7.094 ZM6.469,1.094 C6.469,1.094 9.219,1.094 9.219,1.094 C9.219,1.094 9.219,3.906 9.219,3.906 C9.219,3.906 6.469,3.906 6.469,3.906 C6.469,3.906 6.469,1.094 6.469,1.094 ZM1.469,19.094 C1.469,19.094 4.219,19.094 4.219,19.094 C4.219,19.094 4.219,21.906 4.219,21.906 C4.219,21.906 1.469,21.906 1.469,21.906 C1.469,21.906 1.469,19.094 1.469,19.094 ZM1.469,13.094 C1.469,13.094 4.219,13.094 4.219,13.094 C4.219,13.094 4.219,15.906 4.219,15.906 C4.219,15.906 1.469,15.906 1.469,15.906 C1.469,15.906 1.469,13.094 1.469,13.094 ZM1.469,7.094 C1.469,7.094 4.219,7.094 4.219,7.094 C4.219,7.094 4.219,9.906 4.219,9.906 C4.219,9.906 1.469,9.906 1.469,9.906 C1.469,9.906 1.469,7.094 1.469,7.094 ZM1.469,1.094 C1.469,1.094 4.219,1.094 4.219,1.094 C4.219,1.094 4.219,3.906 4.219,3.906 C4.219,3.906 1.469,3.906 1.469,3.906 C1.469,3.906 1.469,1.094 1.469,1.094 Z" id="path-1" class="cls-4" fill-rule="evenodd"/>
  </g>
</svg>