<?xml version="1.0" encoding="utf-8"?>
<svg xmlns="http://www.w3.org/2000/svg"
	xmlns:xlink="http://www.w3.org/1999/xlink"
	width="12px" height="14px" viewBox="0 0 12 14">
<path fill="rgb(43,85,113)" fill-rule="evenodd" d="M 7.5 0C 7.5 0 4.58 0 4.58 0 4.03 0 3 0.01 3 0.56 3 0.56 3 3 3 3 3 3 1.58 3 1.58 3 1.03 3 0 3.01 0 3.56 0 3.56 0 12.5 0 12.5 0 13.05 1.03 14 1.58 14 1.58 14 8.42 14 8.42 14 8.97 14 9 13.05 9 12.5 9 12.5 9 11 9 11 9 11 11.42 11 11.42 11 11.97 11 12 10.05 12 9.5 12 9.5 12 4.5 12 4.5 12 4.5 7.5 0 7.5 0ZM 8 1.98C 8 1.98 10.5 5 10.5 5 10.5 5 8 5 8 5 8 5 8 1.98 8 1.98ZM 8 13C 8 13 1 13 1 13 1 13 1 4 1 4 1 4 3 4 3 4 3 4 3 9.5 3 9.5 3 10.05 4.03 11 4.58 11 4.58 11 8 11 8 11 8 11 8 13 8 13ZM 11 10C 11 10 4 10 4 10 4 10 4 1 4 1 4 1 7 1 7 1 7 1 7 6 7 6 7 6 11 6 11 6 11 6 11 10 11 10Z"/>
</svg>