<?xml version="1.0" encoding="utf-8"?>
<svg xmlns="http://www.w3.org/2000/svg"
	xmlns:xlink="http://www.w3.org/1999/xlink"
	width="18px" height="18px" viewBox="0 0 18 18">
<path fill="rgb(43,63,79)" fill-rule="evenodd" d="M 15 15C 15 15 15 18 15 18 15 18 12 18 12 18 12 18 12 14 12 14 12 14 12 12 12 12 12 12 12 7 12 7 12 6.45 11.55 6 11 6 11 6 7 6 7 6 7 6 7 3 7 3 7 3 11 3 11 3 12.65 3 15 4.35 15 6 15 6 15 12 15 12 15 12 18 12 18 12 18 12 18 15 18 15 18 15 15 15 15 15ZM 11 12C 11 12 11 15 11 15 11 15 6 15 6 15 4.35 15 3 13.65 3 12 3 12 3 6 3 6 3 6-0 6-0 6-0 6-0 3-0 3-0 3 3 3 3 3 3 3 3 0 3 0 3 0 6 0 6 0 6 0 6 4 6 4 6 4 6 6 6 6 6 6 6 11 6 11 6 11.55 6.45 12 7 12 7 12 11 12 11 12Z"/>
</svg>