<?xml version="1.0" encoding="utf-8"?>
<svg width="19px" height="20px" viewBox="0 0 19 20" version="1.1" xmlns="http://www.w3.org/2000/svg" xmlns:xlink="http://www.w3.org/1999/xlink">
  <path d="M9,11 L7,9 L9,7 L11,9 L9,11 Z M18.293,14.293 L9.707,5.707 C9.317,5.317 8.683,5.317 8.293,5.707 L5.707,8.293 C5.317,8.683 5.317,9.317 5.707,9.707 L14.293,18.293 C14.683,18.683 15.317,18.683 15.707,18.293 L18.293,15.707 C18.683,15.317 18.683,14.683 18.293,14.293 L18.293,14.293 Z M3.586,3.172 C3.195,2.781 2.562,2.781 2.172,3.172 C1.781,3.562 1.781,4.195 2.172,4.586 L2.879,5.293 C3.269,5.683 3.902,5.683 4.293,5.293 C4.683,4.902 4.683,4.269 4.293,3.879 L3.586,3.172 Z M13.586,4.828 L14.293,4.121 C14.683,3.731 14.683,3.098 14.293,2.707 C13.902,2.317 13.269,2.317 12.879,2.707 L12.172,3.414 C11.781,3.805 11.781,4.438 12.172,4.828 C12.562,5.219 13.195,5.219 13.586,4.828 L13.586,4.828 Z M2,8 L1,8 C0.448,8 0,8.448 0,9 C0,9.552 0.448,10 1,10 L2,10 C2.552,10 3,9.552 3,9 C3,8.448 2.552,8 2,8 L2,8 Z M8,3 C8.552,3 9,2.552 9,2 L9,1 C9,0.448 8.552,0 8,0 C7.448,0 7,0.448 7,1 L7,2 C7,2.552 7.448,3 8,3 L8,3 Z"></path>
</svg>