<?xml version="1.0" encoding="utf-8"?>
<svg xmlns="http://www.w3.org/2000/svg"
	xmlns:xlink="http://www.w3.org/1999/xlink"
	width="48px" height="52px" viewBox="0 0 48 52">
<path fill="rgb(55,153,235)" fill-rule="evenodd" d="M 47.82 46.75C 47.82 46.87 47.79 46.99 47.75 47.24 44.59 47.24 41 47.24 37.75 47.24 37.75 48.89 37.75 50.66 37.75 52.28 27.21 52.28 17.4 52.28 6.87 52.28 6.87 37.65 6.87 23.08 6.87 8.25 10.1 8.25 13.59 8.25 16.82 8.25 16.82 6.64 16.82 4.95 16.82 3.25 17.3 3.25 17.26 3.25 17.65 3.25 24.24 3.25 30.75 3.23 37.34 3.29 37.98 3.29 38.75 3.7 39.22 4.14 41.93 6.74 44.51 9.4 47.15 12.08 47.48 12.41 47.8 12.95 47.8 13.39 47.83 24.6 47.82 35.55 47.82 46.75ZM 7.84 9.19C 7.84 23.16 7.84 37.42 7.84 51.28 17.55 51.28 27.19 51.28 36.84 51.28 36.84 40.39 36.84 29.16 36.84 18.23 36.37 18.23 35.97 18.23 35.57 18.23 33.51 18.23 31.53 18.24 29.47 18.23 27.89 18.23 27.89 18.23 27.88 16.59 27.88 15.9 27.88 15.47 27.88 14.78 27.88 13.02 27.88 11 27.88 9.19 21.14 9.19 14.49 9.19 7.84 9.19ZM 46.79 13.29C 46.26 13.29 45.9 13.29 45.46 13.29 43.32 13.29 41.09 13.26 38.95 13.31 38.05 13.33 37.72 12.99 37.75 12.1 37.79 10.61 37.76 9.44 37.76 7.95 37.76 6.83 37.76 5.39 37.76 4.25 30.99 4.25 24.33 4.25 17.7 4.25 17.7 5.47 17.7 7.03 17.7 8.15 17.85 8.2 17.92 8.25 17.99 8.26 21.27 8.26 24.46 8.24 27.73 8.31 28.3 8.32 28.98 8.52 29.41 8.9 30.73 10.09 31.95 11.38 33.22 12.63 34.4 13.8 35.41 15.39 36.83 15.98 38.25 16.58 40.08 16.16 41.73 16.19 41.81 16.19 41.91 16.16 41.97 16.19 42.32 16.36 42.66 16.54 43 16.72 42.67 16.87 42.34 17.14 42.01 17.15 40.69 17.2 38.88 17.17 37.59 17.17 37.66 17.8 37.72 18.72 37.78 19.32 38.72 19.32 40.11 19.24 40.98 19.34 41.66 19.42 42.55 18.83 43 19.85 42.31 20.01 41.63 20.24 40.93 20.3 40.06 20.38 38.67 20.32 37.78 20.32 37.78 20.97 37.78 21.63 37.78 22.22 39.07 22.22 40.78 22.18 41.99 22.25 42.34 22.27 42.67 22.61 43 22.8 42.67 22.96 42.34 23.23 42 23.25 40.76 23.3 39.02 23.27 37.79 23.27 37.79 23.93 37.79 24.6 37.79 25.17 39.09 25.17 40.8 25.14 42.01 25.19 42.35 25.2 42.67 25.47 43 25.62 42.66 25.8 42.32 26.13 41.97 26.15 40.74 26.21 39 26.17 37.79 26.17 37.79 26.84 37.79 27.67 37.79 28.22 38.77 28.22 40.16 28.16 41.04 28.24 41.7 28.3 42.35 28.53 43 28.69 42.55 29.72 41.66 29.1 40.99 29.18 40.09 29.29 38.67 29.21 37.8 29.21 37.8 29.9 37.8 30.65 37.8 31.2 39.02 31.2 40.66 31.16 41.78 31.23 42.2 31.25 42.6 31.53 43.01 31.7 42.62 31.87 42.23 32.18 41.83 32.2 40.65 32.27 38.95 32.23 37.76 32.23 37.76 32.91 37.76 33.54 37.76 34.16 39.01 34.16 40.71 34.12 41.91 34.18 42.28 34.2 42.64 34.47 43 34.63 42.64 34.81 42.3 35.11 41.94 35.13 40.7 35.19 38.97 35.15 37.76 35.15 37.76 35.82 37.76 36.54 37.76 37.13 39.01 37.13 40.72 37.1 41.92 37.15 42.29 37.17 42.64 37.46 43 37.62 42.65 37.78 42.3 38.08 41.94 38.1 40.71 38.16 38.97 38.12 37.77 38.12 37.77 41.54 37.77 43.01 37.77 46.25 40.6 46.25 44.03 46.25 46.79 46.25 46.79 35.35 46.79 24.21 46.79 13.29ZM 29.42 28.49C 29.42 29.21 28.84 29.79 28.13 29.79 27.41 29.79 26.83 29.21 26.83 28.49 26.83 27.78 27.41 27.2 28.13 27.2 28.84 27.2 29.42 27.78 29.42 28.49ZM 22.04 39.62C 19.45 39.62 17.96 37.77 17.9 37.69 17.7 37.43 17.74 37.04 18 36.84 18.27 36.63 18.65 36.68 18.86 36.94 18.91 37 20.06 38.41 22.04 38.41 24.19 38.41 25.16 37.03 25.2 36.97 25.39 36.7 25.76 36.63 26.04 36.81 26.31 37 26.39 37.37 26.2 37.65 26.15 37.73 24.86 39.62 22.04 39.62ZM 15.76 29.55C 15.04 29.55 14.46 28.97 14.46 28.25 14.46 27.54 15.04 26.96 15.76 26.96 16.47 26.96 17.05 27.54 17.05 28.25 17.05 28.97 16.47 29.55 15.76 29.55ZM 9.19 2.55C 8.56 2.55 8.05 2.04 8.05 1.41 8.05 0.78 8.56 0.27 9.19 0.27 9.82 0.27 10.33 0.78 10.33 1.41 10.33 2.04 9.82 2.55 9.19 2.55ZM 4.66 8.51C 4.66 8.51 3.98 5.88 3.98 5.88 3.98 5.88 1.35 5.13 1.35 5.13 1.35 5.13 3.98 4.46 3.98 4.46 3.98 4.46 4.73 1.83 4.73 1.83 4.73 1.83 5.41 4.46 5.41 4.46 5.41 4.46 8.04 5.21 8.04 5.21 8.04 5.21 5.41 5.88 5.41 5.88 5.41 5.88 4.66 8.51 4.66 8.51ZM 0.59 8.05C 0.21 8.05-0.11 7.73-0.11 7.35-0.11 6.96 0.21 6.65 0.59 6.65 0.98 6.65 1.29 6.96 1.29 7.35 1.29 7.73 0.98 8.05 0.59 8.05ZM 2.42 11.34C 2.42 11.34 3.55 9.9 3.55 9.9 3.55 9.9 3.3 11.7 3.3 11.7 3.3 11.7 4.74 12.84 4.74 12.84 4.74 12.84 2.93 12.59 2.93 12.59 2.93 12.59 1.8 14.03 1.8 14.03 1.8 14.03 2.04 12.31 2.04 12.31 2.04 12.31 1.68 12.75 1.68 12.75 1.68 12.75 1.98 12.17 1.98 12.17 1.98 12.17 0.61 11.08 0.61 11.08 0.61 11.08 2.42 11.34 2.42 11.34Z"/>
</svg>