<?xml version="1.0" encoding="utf-8"?>
<svg xmlns="http://www.w3.org/2000/svg"
	xmlns:xlink="http://www.w3.org/1999/xlink"
	width="70px" height="51px" viewBox="0 0 70 51">
<path fill="rgb(55,153,235)" fill-rule="evenodd" d="M 47.27 51.09C 47.27 51.09 5.66 51.09 5.66 51.09 5.2 51.09 4.84 50.73 4.84 50.27 4.84 50.27 4.84 26.71 4.84 26.71 4.84 26.71 3.86 27.05 3.86 27.05 3.77 27.09 3.68 27.1 3.59 27.1 3.47 27.1 3.35 27.08 3.24 27.02 3.04 26.93 2.89 26.76 2.82 26.56 2.82 26.56-0.22 18.07-0.22 18.07-0.38 17.64-0.15 17.17 0.27 17.02 0.27 17.02 20.09 9.92 20.09 9.92 20.09 9.92 20.09 9.92 20.09 9.92 19.75 9.96 19.41 9.99 19.06 9.99 18.21 9.99 17.47 9.85 16.86 9.56 14.48 8.44 13.39 6.47 14.19 4.77 14.67 3.74 15.71 3.15 17.04 3.15 17.84 3.15 18.7 3.37 19.59 3.78 19.87 3.92 20.14 4.1 20.39 4.29 20.4 4.3 20.42 4.31 20.43 4.32 20.67 4.51 20.89 4.73 21.1 4.96 21.12 4.98 21.14 4.99 21.15 5.01 21.35 5.24 21.53 5.47 21.7 5.71 21.72 5.75 21.75 5.78 21.77 5.81 21.85 5.93 21.92 6.04 21.99 6.16 21.99 6.16 21.99 6.16 21.99 6.16 21.96 5.93 21.94 5.69 21.92 5.45 21.92 5.35 21.92 5.26 21.91 5.16 21.91 4.97 21.91 4.79 21.92 4.6 21.93 4.42 21.96 4.25 21.98 4.08 22 3.95 22.01 3.82 22.04 3.69 22.11 3.38 22.2 3.08 22.33 2.8 23.2 0.97 24.57-0.12 25.99-0.12 26.39-0.12 26.77-0.04 27.13 0.13 28.83 0.94 29.23 3.16 28.11 5.53 28 5.75 27.87 5.96 27.73 6.16 27.7 6.2 27.67 6.24 27.64 6.27 27.5 6.47 27.34 6.65 27.16 6.83 27.15 6.84 27.13 6.86 27.11 6.88 26.93 7.06 26.73 7.22 26.53 7.38 26.53 7.38 26.53 7.38 26.53 7.39 26.31 7.55 26.09 7.71 25.87 7.85 25.87 7.85 42.5 1.89 42.5 1.89 42.71 1.82 42.93 1.83 43.13 1.92 43.33 2.02 43.48 2.19 43.55 2.39 43.55 2.39 46.59 10.88 46.59 10.88 46.74 11.31 46.52 11.78 46.09 11.93 46.09 11.93 31.54 17.14 31.54 17.14 31.54 17.14 47.26 17.09 47.26 17.09 47.26 17.09 47.26 17.09 47.27 17.09 47.48 17.09 47.69 17.17 47.84 17.33 48 17.48 48.09 17.69 48.09 17.91 48.09 17.91 48.09 50.27 48.09 50.27 48.09 50.73 47.72 51.09 47.27 51.09ZM 19.35 4.28C 18.55 3.9 17.75 3.7 17.04 3.7 15.93 3.7 15.07 4.17 14.68 5 14.02 6.41 15.01 8.08 17.09 9.06 17.63 9.32 18.29 9.45 19.06 9.45 20.56 9.45 22.06 8.96 22.62 8.75 22.33 7.92 21.24 5.17 19.35 4.28ZM 27.61 5.3C 28.6 3.21 28.3 1.29 26.89 0.63 26.61 0.49 26.3 0.42 25.99 0.42 24.78 0.42 23.6 1.4 22.83 3.03 21.94 4.92 22.84 7.74 23.14 8.57 23.97 8.27 26.72 7.18 27.61 5.3ZM 44.77 10.66C 44.77 10.66 42.28 3.72 42.28 3.72 42.28 3.72 25.41 9.76 25.41 9.76 25.41 9.76 30.19 12.01 30.19 12.01 30.19 12.01 29.95 12.51 29.95 12.51 29.95 12.51 24.68 10.02 24.68 10.02 24.68 10.02 22.36 10.85 22.36 10.85 22.36 10.85 19.87 16.12 19.87 16.12 19.87 16.12 19.38 15.89 19.38 15.89 19.38 15.89 21.64 11.11 21.64 11.11 21.64 11.11 1.6 18.29 1.6 18.29 1.6 18.29 4.08 25.23 4.08 25.23 4.08 25.23 5.8 24.62 5.8 24.62 5.8 24.62 24.15 17.21 24.15 17.21 24.23 17.18 24.32 17.17 24.42 17.17 24.42 17.17 26.63 17.16 26.63 17.16 26.63 17.16 44.77 10.66 44.77 10.66ZM 46.2 18.99C 46.2 18.99 26.21 19.05 26.21 19.05 26.21 19.05 6.81 26 6.81 26 6.81 26 6.81 49.29 6.81 49.29 6.81 49.29 46.2 49.29 46.2 49.29 46.2 49.29 46.2 18.99 46.2 18.99ZM 19.15 33.62C 20 33.62 20.69 34.31 20.69 35.16 20.69 36.01 20 36.7 19.15 36.7 18.3 36.7 17.61 36.01 17.61 35.16 17.61 34.31 18.3 33.62 19.15 33.62ZM 22.83 40.57C 22.9 40.65 24.26 42.31 26.62 42.31 29.17 42.31 30.33 40.68 30.37 40.61 30.6 40.28 31.05 40.2 31.37 40.42 31.7 40.64 31.79 41.08 31.57 41.41 31.51 41.51 29.97 43.76 26.62 43.76 23.54 43.76 21.77 41.55 21.7 41.46 21.45 41.15 21.51 40.69 21.82 40.45 22.14 40.2 22.59 40.26 22.83 40.57ZM 33.85 33.91C 34.7 33.91 35.39 34.6 35.39 35.45 35.39 36.3 34.7 36.99 33.85 36.99 33 36.99 32.32 36.3 32.32 35.45 32.32 34.6 33 33.91 33.85 33.91Z"/>
<path fill="rgb(0,153,239)" fill-rule="evenodd" d="M 69.83 9.65C 69.83 9.65 64.98 10.9 64.98 10.9 64.98 10.9 63.6 15.75 63.6 15.75 63.6 15.75 62.35 10.9 62.35 10.9 62.35 10.9 62.35 10.91 62.35 10.91 62.35 10.91 57.51 9.52 57.51 9.52 57.51 9.52 62.35 8.27 62.35 8.27 62.35 8.27 62.35 8.28 62.35 8.28 62.35 8.28 63.74 3.44 63.74 3.44 63.74 3.44 64.98 8.28 64.98 8.28 64.98 8.28 64.98 8.27 64.98 8.27 64.98 8.27 69.83 9.65 69.83 9.65ZM 55.74 23.29C 55.74 23.29 58.73 23.71 58.73 23.71 58.73 23.71 58.72 23.71 58.72 23.71 58.72 23.71 60.61 21.33 60.61 21.33 60.61 21.33 60.19 24.32 60.19 24.32 60.19 24.32 60.19 24.31 60.19 24.31 60.19 24.31 62.58 26.19 62.58 26.19 62.58 26.19 59.59 25.77 59.59 25.77 59.59 25.77 57.71 28.16 57.71 28.16 57.71 28.16 58.12 25.17 58.12 25.17 58.12 25.17 58.12 25.18 58.12 25.18 58.12 25.18 55.74 23.29 55.74 23.29ZM 54.52 15.67C 53.84 15.67 53.29 15.12 53.29 14.44 53.29 13.77 53.84 13.22 54.52 13.22 55.19 13.22 55.74 13.77 55.74 14.44 55.74 15.12 55.19 15.67 54.52 15.67Z"/>
</svg>