<svg xmlns="http://www.w3.org/2000/svg" width="48" height="52" viewBox="0 0 48 52"><path fill="#3799EB" fill-rule="evenodd" d="M47.82 46.75c0 .12-.03.24-.07.49h-10v5.04H6.87V8.25h9.95v-5h.83c6.59 0 13.1-.02 19.69.04.64 0 1.41.41 1.88.85 2.71 2.6 5.29 5.26 7.93 7.94.33.33.65.87.65 1.31.03 11.21.02 22.16.02 33.36zM7.84 9.19v42.09h29V18.23h-1.27c-2.06 0-4.04.01-6.1 0-1.58 0-1.58 0-1.59-1.64v-1.81-5.59H7.84zm38.95 4.1h-1.33c-2.14 0-4.37-.03-6.51.02-.9.02-1.23-.32-1.2-1.21.04-1.49.01-2.66.01-4.15v-3.7H17.7v3.9c.15.05.22.1.29.11 3.28 0 6.47-.02 9.74.05.57.01 1.25.21 1.68.59 1.32 1.19 2.54 2.48 3.81 3.73 1.18 1.17 2.19 2.76 3.61 3.35 1.42.6 3.25.18 4.9.21.08 0 .18-.03.24 0 .35.17.69.35 1.03.53-.33.15-.66.42-.99.43-1.32.05-3.13.02-4.42.02.07.63.13 1.55.19 2.15.94 0 2.33-.08 3.2.02.68.08 1.57-.51 2.02.51-.69.16-1.37.39-2.07.45-.87.08-2.26.02-3.15.02v1.9c1.29 0 3-.04 4.21.03.35.02.68.36 1.01.55-.33.16-.66.43-1 .45-1.24.05-2.98.02-4.21.02v1.9c1.3 0 3.01-.03 4.22.02.34.01.66.28.99.43-.34.18-.68.51-1.03.53-1.23.06-2.97.02-4.18.02v2.05c.98 0 2.37-.06 3.25.02.66.06 1.31.29 1.96.45-.45 1.03-1.34.41-2.01.49-.9.11-2.32.03-3.19.03v1.99c1.22 0 2.86-.04 3.98.03.42.02.82.3 1.23.47-.39.17-.78.48-1.18.5-1.18.07-2.88.03-4.07.03v1.93c1.25 0 2.95-.04 4.15.02.37.02.73.29 1.09.45-.36.18-.7.48-1.06.5-1.24.06-2.97.02-4.18.02v1.98c1.25 0 2.96-.03 4.16.02.37.02.72.31 1.08.47-.35.16-.7.46-1.06.48-1.23.06-2.97.02-4.17.02v8.13h9.02V13.29zm-17.37 15.2a1.295 1.295 0 1 1-2.59.01 1.295 1.295 0 0 1 2.59-.01zm-7.38 11.13c-2.59 0-4.08-1.85-4.14-1.93-.2-.26-.16-.65.1-.85.27-.21.65-.16.86.1.05.06 1.2 1.47 3.18 1.47 2.15 0 3.12-1.38 3.16-1.44.19-.27.56-.34.84-.16.27.19.35.56.16.84-.05.08-1.34 1.97-4.16 1.97zm-6.28-10.07a1.295 1.295 0 1 1-.01-2.59 1.295 1.295 0 0 1 .01 2.59zm-6.57-27a1.14 1.14 0 1 1 0-2.28 1.14 1.14 0 0 1 0 2.28zM4.66 8.51l-.68-2.63-2.63-.75 2.63-.67.75-2.63.68 2.63 2.63.75-2.63.67-.75 2.63zM.59 8.05a.71.71 0 0 1-.7-.7c0-.39.32-.7.7-.7.39 0 .7.31.7.7 0 .38-.31.7-.7.7zm1.83 3.29L3.55 9.9l-.25 1.8 1.44 1.14-1.81-.25-1.13 1.44.24-1.72-.36.44.3-.58-1.37-1.09 1.81.26z"/></svg>