<svg xmlns="http://www.w3.org/2000/svg" width="70" height="51" viewBox="0 0 70 51"><path fill="#3799EB" fill-rule="evenodd" d="M47.27 51.09H5.66a.81.81 0 0 1-.82-.82V26.71l-.98.34c-.09.04-.18.05-.27.05a.72.72 0 0 1-.35-.08.792.792 0 0 1-.42-.46l-3.04-8.49c-.16-.43.07-.9.49-1.05l19.82-7.1c-.34.04-.68.07-1.03.07-.85 0-1.59-.14-2.2-.43-2.38-1.12-3.47-3.09-2.67-4.79.48-1.03 1.52-1.62 2.85-1.62.8 0 1.66.22 2.55.63.28.14.55.32.8.51.01.01.03.02.04.03.24.19.46.41.67.64.02.02.04.03.05.05.2.23.38.46.55.7.02.04.05.07.07.1.08.12.15.23.22.35-.03-.23-.05-.47-.07-.71 0-.1 0-.19-.01-.29 0-.19 0-.37.01-.56.01-.18.04-.35.06-.52.02-.13.03-.26.06-.39.07-.31.16-.61.29-.89.87-1.83 2.24-2.92 3.66-2.92.4 0 .78.08 1.14.25 1.7.81 2.1 3.03.98 5.4-.11.22-.24.43-.38.63-.03.04-.06.08-.09.11-.14.2-.3.38-.48.56l-.05.05c-.18.18-.38.34-.58.5v.01c-.22.16-.44.32-.66.46L42.5 1.89c.21-.07.43-.06.63.03.2.1.35.27.42.47l3.04 8.49c.15.43-.07.9-.5 1.05l-14.55 5.21 15.72-.05h.01c.21 0 .42.08.57.24.16.15.25.36.25.58v32.36c0 .46-.37.82-.82.82zM19.35 4.28c-.8-.38-1.6-.58-2.31-.58-1.11 0-1.97.47-2.36 1.3-.66 1.41.33 3.08 2.41 4.06.54.26 1.2.39 1.97.39 1.5 0 3-.49 3.56-.7-.29-.83-1.38-3.58-3.27-4.47zm8.26 1.02c.99-2.09.69-4.01-.72-4.67-.28-.14-.59-.21-.9-.21-1.21 0-2.39.98-3.16 2.61-.89 1.89.01 4.71.31 5.54.83-.3 3.58-1.39 4.47-3.27zm17.16 5.36l-2.49-6.94-16.87 6.04 4.78 2.25-.24.5-5.27-2.49-2.32.83-2.49 5.27-.49-.23 2.26-4.78L1.6 18.29l2.48 6.94 1.72-.61 18.35-7.41c.08-.03.17-.04.27-.04l2.21-.01 18.14-6.5zm1.43 8.33l-19.99.06L6.81 26v23.29H46.2v-30.3zM19.15 33.62a1.54 1.54 0 1 1 0 3.08 1.54 1.54 0 0 1 0-3.08zm3.68 6.95c.07.08 1.43 1.74 3.79 1.74 2.55 0 3.71-1.63 3.75-1.7.23-.33.68-.41 1-.19.33.22.42.66.2.99-.06.1-1.6 2.35-4.95 2.35-3.08 0-4.85-2.21-4.92-2.3a.717.717 0 0 1 .12-1.01c.32-.25.77-.19 1.01.12zm11.02-6.66a1.54 1.54 0 0 1 0 3.08c-.85 0-1.53-.69-1.53-1.54 0-.85.68-1.54 1.53-1.54z"/><path fill="#0099EF" fill-rule="evenodd" d="M69.83 9.65l-4.85 1.25-1.38 4.85-1.25-4.85v.01l-4.84-1.39 4.84-1.25v.01l1.39-4.84 1.24 4.84v-.01l4.85 1.38zM55.74 23.29l2.99.42h-.01l1.89-2.38-.42 2.99v-.01l2.39 1.88-2.99-.42-1.88 2.39.41-2.99v.01l-2.38-1.89zm-1.22-7.62c-.68 0-1.23-.55-1.23-1.23a1.225 1.225 0 1 1 1.23 1.23z"/></svg>