<svg class="symbol-fix-header-clipart" version="1.1" xmlns="http://www.w3.org/2000/svg" xmlns:xlink="http://www.w3.org/1999/xlink" width="158px" height="112px" viewBox="0 0 158 112">
  <defs>
    <path id="SVGID-195-" d="M157,108c0,2.209-1.791,4-4,4H4c-2.209,0-4-1.791-4-4V4c0-2.209,1.791-4,4-4h149c2.209,0,4,1.791,4,4
                             V108z"/>
  </defs>
  <use xlink:href="#SVGID-195-"  style="overflow:visible;fill:#FDD87B;"/>
  <clipPath id="SVGID-2-">
    <use xlink:href="#SVGID-195-"  style="overflow:visible;"/>
  </clipPath>
  <rect style="clip-path:url(#SVGID-2-);fill:#F4E5C1;" width="157" height="20"/>
  <path style="fill:#F5C400;" d="M22.76,8.889c0.968,2.215-1.156,4.339-3.371,3.371c-0.507-0.222-0.926-0.641-1.148-1.148
                                 c-0.968-2.215,1.156-4.339,3.371-3.371C22.119,7.962,22.538,8.381,22.76,8.889z"/>
  <circle style="fill:#F5C400;" cx="11.5" cy="10" r="2.5"/>
  <path style="fill:#F5C400;" d="M149,10.53c0,1.364-1.106,2.47-2.47,2.47H29.47C28.106,13,27,11.894,27,10.53v-0.06
                                 C27,9.106,28.106,8,29.47,8h117.06c1.364,0,2.47,1.106,2.47,2.47V10.53z"/>
  <rect x="62" y="37" style="fill:#F6C403;" width="70" height="2"/>
  <rect x="62" y="44" style="fill:#F6C403;" width="55" height="2"/>
  <rect x="62" y="30" style="fill:#F6C403;" width="70" height="2"/>
  <circle style="fill:#F6C403;" cx="40.5" cy="43" r="16"/>
  <path style="fill:#F6C403;" d="M85,56c0,1.657-1.343,3-3,3H65c-1.657,0-3-1.343-3-3l0,0c0-1.657,1.343-3,3-3h17
                                 C83.657,53,85,54.343,85,56L85,56z"/>
  <rect x="62" y="79" style="fill:#F6C403;" width="70" height="2"/>
  <rect x="62" y="86" style="fill:#F6C403;" width="55" height="2"/>
  <rect x="62" y="72" style="fill:#F6C403;" width="70" height="2"/>
  <circle style="fill:#F6C403;" cx="40.5" cy="85" r="16"/>
  <path style="fill:#F6C403;" d="M85,98c0,1.657-1.343,3-3,3H65c-1.657,0-3-1.343-3-3l0,0c0-1.657,1.343-3,3-3h17C83.657,95,85,96.343,85,98L85,98z"/>
  <rect y="20" style="fill:#FFFFFF;" width="157" height="12"/>
  <circle style="fill:none;stroke:#F7D045;stroke-miterlimit:10;" cx="28.5" cy="26" r="3"/>
  <rect x="62" y="25" style="fill:#F7D045;" width="14" height="2"/>
  <rect x="81" y="25" style="fill:#F7D045;" width="13" height="2"/>
  <rect x="100" y="25" style="fill:#F7D045;" width="13" height="2"/>
  <rect x="118" y="25" style="fill:#F7D045;" width="14" height="2"/>
  <line style="fill:none;stroke:#F6C403;stroke-linecap:round;stroke-miterlimit:10;stroke-dasharray:1,3;" x1="149.5" y1="104" x2="149.5" y2="87"/>
  <path style="fill:none;stroke:#F6C403;stroke-miterlimit:10;" d="M147,86.429l2.51-3.189c0.251-0.319,0.73-0.319,0.981,0l2.51,3.189"/>
  <path style="fill:none;stroke:#F6C403;stroke-miterlimit:10;" d="M153,105l-2.51,3.189c-0.251,0.319-0.73,0.319-0.981,0L147,105"/>
</svg>
