<svg xmlns="http://www.w3.org/2000/svg" width="62" height="112" xmlns:xlink="http://www.w3.org/1999/xlink" viewBox="0 0 62 112"><circle cx="3.732" cy="3.732" r="3.732" fill="#3899ec"/><defs><path id="a" d="M62 106a6 6 0 0 1-6 6H6a6 6 0 0 1-6-6V6a6 6 0 0 1 6-6h50a6 6 0 0 1 6 6v100z"/></defs><use fill="#4eb7f5" xlink:href="#a" overflow="visible"/><clipPath id="b"><use xlink:href="#a" overflow="visible"/></clipPath><path fill="#3899ec" d="M49 48a1 1 0 0 1-1 1H14a1 1 0 0 1-1-1V21a1 1 0 0 1 1-1h34a1 1 0 0 1 1 1v27zM49 100a1 1 0 0 1-1 1H14a1 1 0 0 1-1-1V73a1 1 0 0 1 1-1h34a1 1 0 0 1 1 1v27z" clip-path="url(#b)"/><g fill="#3899ec" clip-path="url(#b)"><path d="M13 56h36v2H13zM13 63h29v2H13z"/></g><path fill="#6dd0f2" d="M0 93h62v19H0zM70-2a8 8 0 0 1-8 8H-4a8 8 0 0 1-8-8v-22a8 8 0 0 1 8-8h66a8 8 0 0 1 8 8v22z" clip-path="url(#b)"/><circle cx="31" cy="102" r="3.5" fill="#3899ec"/><g><path fill="#FFF" d="M54 28a2 2 0 0 1-2 2H40a2 2 0 0 1-2-2V16a2 2 0 0 1 2-2h12a2 2 0 0 1 2 2v12z"/><g fill="#3899ec"><path d="M42 24h8v2h-8zM42 19h8v2h-8z"/></g></g></svg>