<svg class="symbol-fix-footer-clipart" version="1.1" xmlns="http://www.w3.org/2000/svg" xmlns:xlink="http://www.w3.org/1999/xlink" width="158px" height="112px" viewBox="0 0 158 112">
  <g>
    <g>
      <defs>
        <path id="SVGID-197-" d="M157,108c0,2.209-1.791,4-4,4H4c-2.209,0-4-1.791-4-4V4c0-2.209,1.791-4,4-4h149c2.209,0,4,1.791,4,4
                                 V108z"/>
      </defs>
      <use xlink:href="#SVGID-197-"  style="overflow:visible;fill:#FDD87B;"/>
      <clipPath id="SVGID-2-">
        <use xlink:href="#SVGID-197-"  style="overflow:visible;"/>
      </clipPath>
      <g style="clip-path:url(#SVGID-2-);">
        <g>
          <g>
            <rect x="62" y="43" style="fill:#F6C403;" width="70" height="2"/>
            <rect x="62" y="50" style="fill:#F6C403;" width="55" height="2"/>
            <rect x="62" y="36" style="fill:#F6C403;" width="70" height="2"/>
          </g>
          <circle style="fill:#F6C403;" cx="40.5" cy="49" r="16"/>
          <path style="fill:#F6C403;" d="M85,62c0,1.657-1.343,3-3,3H65c-1.657,0-3-1.343-3-3l0,0c0-1.657,1.343-3,3-3h17
                                         C83.657,59,85,60.343,85,62L85,62z"/>
        </g>
      </g>
      <g style="clip-path:url(#SVGID-2-);">
        <g>
          <g>
            <rect x="62" y="85" style="fill:#F6C403;" width="70" height="2"/>
            <rect x="62" y="92" style="fill:#F6C403;" width="55" height="2"/>
            <rect x="62" y="78" style="fill:#F6C403;" width="70" height="2"/>
          </g>
          <circle style="fill:#F6C403;" cx="40.5" cy="91" r="16"/>
          <path style="fill:#F6C403;" d="M85,104c0,1.657-1.343,3-3,3H65c-1.657,0-3-1.343-3-3l0,0c0-1.657,1.343-3,3-3h17
                                         C83.657,101,85,102.343,85,104L85,104z"/>
        </g>
      </g>
      <rect style="clip-path:url(#SVGID-2-);fill:#F4E5C1;" width="157" height="20"/>
      <g style="clip-path:url(#SVGID-2-);">
        <rect y="100" style="fill:#FFFFFF;" width="157" height="12"/>
        <g>
          <rect x="43" y="105" style="fill:#F7D045;" width="14" height="2"/>
          <rect x="62" y="105" style="fill:#F7D045;" width="13" height="2"/>
          <rect x="81" y="105" style="fill:#F7D045;" width="13" height="2"/>
          <rect x="99" y="105" style="fill:#F7D045;" width="14" height="2"/>
        </g>
      </g>
    </g>
    <path style="fill:#F5C400;" d="M22.76,8.889c0.968,2.215-1.156,4.339-3.371,3.371c-0.507-0.222-0.926-0.641-1.148-1.148
                                   c-0.968-2.215,1.156-4.339,3.371-3.371C22.119,7.962,22.538,8.381,22.76,8.889z"/>
    <circle style="fill:#F5C400;" cx="11.5" cy="10" r="2.5"/>
    <path style="fill:#F5C400;" d="M149,10.53c0,1.364-1.106,2.47-2.47,2.47H29.47C28.106,13,27,11.894,27,10.53v-0.06
                                   C27,9.106,28.106,8,29.47,8h117.06c1.364,0,2.47,1.106,2.47,2.47V10.53z"/>
    <g>

      <line style="fill:none;stroke:#F6C403;stroke-linecap:round;stroke-miterlimit:10;stroke-dasharray:1,3;" x1="149.5" y1="47" x2="149.5" y2="30"/>
      <g>
        <path style="fill:none;stroke:#F6C403;stroke-miterlimit:10;" d="M147,29.429l2.51-3.189c0.251-0.319,0.73-0.319,0.981,0
                                                                        l2.51,3.189"/>
        <path style="fill:none;stroke:#F6C403;stroke-miterlimit:10;" d="M153,48l-2.51,3.189c-0.251,0.319-0.73,0.319-0.981,0L147,48"/>
      </g>
    </g>
  </g>
</svg>
