<svg xmlns="http://www.w3.org/2000/svg" width="158" height="112" class="symbol-fix-footer-clipart" xmlns:xlink="http://www.w3.org/1999/xlink" viewBox="0 0 158 112"><defs><path id="a" d="M157 108a4 4 0 0 1-4 4H4a4 4 0 0 1-4-4V4a4 4 0 0 1 4-4h149a4 4 0 0 1 4 4v104z"/></defs><use fill="#fdd87b" xlink:href="#a" overflow="visible"/><clipPath id="b"><use xlink:href="#a" overflow="visible"/></clipPath><g fill="#f6c403" clip-path="url(#b)"><path d="M62 43h70v2H62zM62 50h55v2H62zM62 36h70v2H62z"/><circle cx="40.5" cy="49" r="16"/><path d="M85 62a3 3 0 0 1-3 3H65a3 3 0 0 1 0-6h17a3 3 0 0 1 3 3z"/></g><g fill="#f6c403" clip-path="url(#b)"><path d="M62 85h70v2H62zM62 92h55v2H62zM62 78h70v2H62z"/><circle cx="40.5" cy="91" r="16"/><path d="M85 104a3 3 0 0 1-3 3H65a3 3 0 0 1 0-6h17a3 3 0 0 1 3 3z"/></g><path fill="#f4e5c1" d="M0 0h157v20H0z" clip-path="url(#b)"/><g clip-path="url(#b)"><path fill="#FFF" d="M0 100h157v12H0z"/><g fill="#f7d045"><path d="M43 105h14v2H43zM62 105h13v2H62zM81 105h13v2H81zM99 105h14v2H99z"/></g></g><path fill="#f5c400" d="M22.76 8.89c.968 2.214-1.156 4.338-3.37 3.37a2.255 2.255 0 0 1-1.15-1.148c-.967-2.215 1.157-4.34 3.372-3.37.507.22.926.64 1.148 1.147z"/><circle cx="11.5" cy="10" r="2.5" fill="#f5c400"/><path fill="#f5c400" d="M149 10.53a2.47 2.47 0 0 1-2.47 2.47H29.47A2.47 2.47 0 0 1 27 10.53v-.06A2.47 2.47 0 0 1 29.47 8h117.06a2.47 2.47 0 0 1 2.47 2.47v.06z"/><g fill="none" stroke="#f6c403" stroke-miterlimit="10"><path d="M149.5 47V30" stroke-linecap="round" stroke-dasharray="1 3"/><path d="M147 29.43l2.51-3.19c.25-.32.73-.32.98 0l2.51 3.19M153 48l-2.51 3.19c-.25.318-.73.318-.98 0L147 48"/></g></svg>