<svg xmlns="http://www.w3.org/2000/svg" width="158" height="112" class="symbol-fix-header-clipart" xmlns:xlink="http://www.w3.org/1999/xlink" viewBox="0 0 158 112"><defs><path id="a" d="M157 108a4 4 0 0 1-4 4H4a4 4 0 0 1-4-4V4a4 4 0 0 1 4-4h149a4 4 0 0 1 4 4v104z"/></defs><use fill="#fdd87b" xlink:href="#a" overflow="visible"/><clipPath id="b"><use xlink:href="#a" overflow="visible"/></clipPath><path fill="#f4e5c1" d="M0 0h157v20H0z" clip-path="url(#b)"/><path fill="#f5c400" d="M22.76 8.89c.968 2.214-1.156 4.338-3.37 3.37a2.255 2.255 0 0 1-1.15-1.148c-.967-2.215 1.157-4.34 3.372-3.37.507.22.926.64 1.148 1.147z"/><circle cx="11.5" cy="10" r="2.5" fill="#f5c400"/><path fill="#f5c400" d="M149 10.53a2.47 2.47 0 0 1-2.47 2.47H29.47A2.47 2.47 0 0 1 27 10.53v-.06A2.47 2.47 0 0 1 29.47 8h117.06a2.47 2.47 0 0 1 2.47 2.47v.06z"/><path fill="#f6c403" d="M62 37h70v2H62zM62 44h55v2H62zM62 30h70v2H62z"/><circle cx="40.5" cy="43" r="16" fill="#f6c403"/><path fill="#f6c403" d="M85 56a3 3 0 0 1-3 3H65a3 3 0 0 1 0-6h17a3 3 0 0 1 3 3zM62 79h70v2H62zM62 86h55v2H62zM62 72h70v2H62z"/><circle cx="40.5" cy="85" r="16" fill="#f6c403"/><path fill="#f6c403" d="M85 98a3 3 0 0 1-3 3H65a3 3 0 0 1 0-6h17a3 3 0 0 1 3 3z"/><path fill="#FFF" d="M0 20h157v12H0z"/><circle cx="28.5" cy="26" r="3" fill="none" stroke="#f7d045" stroke-miterlimit="10"/><path fill="#f7d045" d="M62 25h14v2H62zM81 25h13v2H81zM100 25h13v2h-13zM118 25h14v2h-14z"/><path fill="none" stroke="#f6c403" stroke-miterlimit="10" d="M149.5 104V87" stroke-linecap="round" stroke-dasharray="1 3"/><path fill="none" stroke="#f6c403" stroke-miterlimit="10" d="M147 86.43l2.51-3.19c.25-.32.73-.32.98 0l2.51 3.19M153 105l-2.51 3.19c-.25.318-.73.318-.98 0L147 105"/></svg>