<svg class="symbol-general-delete-clipart" version="1.1" xmlns="http://www.w3.org/2000/svg" xmlns:xlink="http://www.w3.org/1999/xlink" width="132px" height="84px" viewBox="0 0 132 84">
  <path style="fill:#E6EAED;" d="M102,59c0,1.657-31.916,3-56.851,3S0,60.657,0,59s20.214-3,45.149-3S102,57.343,102,59z"/>
  <path style="fill:#2B5672;" d="M86,34h15.362c1.785,0,2.692,2.17,1.42,3.426L86,54V34z"/>
  <path style="fill:#2B5672;" d="M40.17,38H34V11H17.246c-0.703,0-1.315,0.401-1.483,1.085L8.152,43H6.803
                                 c-0.698,0-1.308,0.505-1.48,1.183L2.484,54h8.511L11,53.979V54h74V38H40.17z"/>
  <ellipse style="fill:#7992A5;" cx="73.313" cy="51" rx="8.978" ry="9"/>
  <ellipse style="fill:#2B5672;" cx="73.313" cy="51" rx="4.298" ry="4.308"/>
  <ellipse style="fill:#7992A5;" cx="22.436" cy="51" rx="8.978" ry="9"/>
  <ellipse style="fill:#2B5672;" cx="22.436" cy="51" rx="4.298" ry="4.308"/>
  <defs>
    <path id="SVGID_182_" d="M34,6v50.963C34,57.515,34.854,58,35.405,58h25.937C61.893,58,62,57.515,62,56.963v-16
                             C62,40.411,62.786,40,63.337,40h19.952C83.838,40,84,40.413,84,40.963V54h2.282l9.307-19.913
                             c0.984-2.022,1.032-4.191,0.13-6.25L86.081,6H34z"/>  </defs>
  <use xlink:href="#SVGID_182_"  style="overflow:visible;fill:#FFB5B3;"/>
  <clipPath id="SVGID_2_">
    <use xlink:href="#SVGID_182_"  style="overflow:visible;"/>
  </clipPath>
  <path style="clip-path:url(#SVGID_2_);fill:none;stroke:#7992A5;stroke-linecap:round;stroke-miterlimit:10;stroke-dasharray:1,3;" d="
                                                                                                                                     M85.239,38.963l2.436-5.004c0.764-1.595,0.795-3.915,0.13-6.434L79.339,7.963"/>
  <polygon style="fill:#FFFFFF;" points="30,15 19.665,15 16.718,29 30,29 			"/>
  <path style="fill:#FFB5B3;" d="M75.011,0H35.405C34.856,0,34,0.413,34,0.963V5h44.02L75.011,0z"/>
  <line style="fill:none;stroke:#7992A5;stroke-linecap:round;stroke-miterlimit:10;stroke-dasharray:1,3;" x1="39" y1="50.5" x2="58" y2="50.5"/>
  <ellipse style="fill:#D9E1E8;" cx="107" cy="82" rx="25" ry="2"/>
  <path style="fill:#7992A5;" d="M109.23,82h13.472c4.053,0,7.337-3.483,7.333-7.473L130.013,50h-28.094l-0.022,24.527
                                 C101.893,78.517,105.177,82,109.23,82z"/>
  <line style="fill:none;stroke:#2B5672;stroke-width:3;stroke-miterlimit:10;" x1="132" y1="49.5" x2="100" y2="49.5"/>
  <line style="fill:none;stroke:#F0F3F5;stroke-miterlimit:10;" x1="121.5" y1="56" x2="121.5" y2="74"/>
  <line style="fill:none;stroke:#F0F3F5;stroke-miterlimit:10;" x1="115.5" y1="56" x2="115.5" y2="74"/>
  <line style="fill:none;stroke:#F0F3F5;stroke-miterlimit:10;" x1="110.5" y1="56" x2="110.5" y2="74"/>
  <path style="fill:none;stroke:#2B5672;stroke-width:3;stroke-miterlimit:10;" d="M93.125,75.098l1.555,3.256
                                                                                 c0.686,1.436,2.415,2.048,3.863,1.368l4.507-2.116c1.448-0.68,2.066-2.395,1.38-3.83l-1.555-3.256"/>
  <line style="fill:none;stroke:#2B5672;stroke-width:3;stroke-miterlimit:10;" x1="83.5" y1="79.618" x2="112.5" y2="66"/>
</svg>
