<svg xmlns="http://www.w3.org/2000/svg" width="132" height="84" class="symbol-general-delete-clipart" xmlns:xlink="http://www.w3.org/1999/xlink" viewBox="0 0 132 84"><path fill="#e6eaed" d="M102 59c0 1.657-31.916 3-56.85 3S0 60.657 0 59s20.214-3 45.15-3S102 57.343 102 59z"/><path fill="#2b5672" d="M86 34h15.362c1.785 0 2.692 2.17 1.42 3.426L86 54V34zM40.17 38H34V11H17.246c-.703 0-1.315.4-1.483 1.085L8.153 43h-1.35c-.698 0-1.308.505-1.48 1.183L2.483 54h8.512l.005-.02V54h74V38H40.17z"/><ellipse cx="73.313" cy="51" fill="#7992a5" rx="8.978" ry="9"/><ellipse cx="73.313" cy="51" fill="#2b5672" rx="4.298" ry="4.308"/><ellipse cx="22.436" cy="51" fill="#7992a5" rx="8.978" ry="9"/><ellipse cx="22.436" cy="51" fill="#2b5672" rx="4.298" ry="4.308"/><defs><path id="a" d="M34 6v50.963c0 .552.854 1.037 1.405 1.037h25.937c.55 0 .658-.485.658-1.037v-16c0-.552.786-.963 1.337-.963H83.29c.548 0 .71.413.71.963V54h2.282l9.307-19.913c.983-2.022 1.03-4.19.13-6.25L86.08 6H34z"/></defs><use fill="#ffb5b3" xlink:href="#a" overflow="visible"/><clipPath id="b"><use xlink:href="#a" overflow="visible"/></clipPath><path fill="none" stroke="#7992a5" stroke-miterlimit="10" d="M85.24 38.963l2.435-5.004c.764-1.596.795-3.916.13-6.435L79.34 7.963" clip-path="url(#b)" stroke-linecap="round" stroke-dasharray="1 3"/><path fill="#FFF" d="M30 15H19.665l-2.947 14H30z"/><path fill="#ffb5b3" d="M75.01 0H35.406C34.855 0 34 .413 34 .963V5h44.02l-3.01-5z"/><path fill="none" stroke="#7992a5" stroke-miterlimit="10" d="M39 50.5h19" stroke-linecap="round" stroke-dasharray="1 3"/><ellipse cx="107" cy="82" fill="#d9e1e8" rx="25" ry="2"/><path fill="#7992a5" d="M109.23 82h13.472c4.053 0 7.337-3.483 7.333-7.473L130.013 50H101.92l-.023 24.527c-.004 3.99 3.28 7.473 7.333 7.473z"/><path fill="none" stroke="#2b5672" stroke-width="3" stroke-miterlimit="10" d="M132 49.5h-32"/><path fill="none" stroke="#f0f3f5" stroke-miterlimit="10" d="M121.5 56v18M115.5 56v18M110.5 56v18"/><path fill="none" stroke="#2b5672" stroke-width="3" stroke-miterlimit="10" d="M93.125 75.098l1.555 3.256a2.91 2.91 0 0 0 3.863 1.368l4.507-2.116a2.865 2.865 0 0 0 1.38-3.83l-1.555-3.256M83.5 79.618L112.5 66"/></svg>