<?xml version="1.0" encoding="UTF-8" standalone="no"?>
<svg width="21px" height="18px" viewBox="0 0 21 18" version="1.1" xmlns="http://www.w3.org/2000/svg" xmlns:xlink="http://www.w3.org/1999/xlink" xmlns:sketch="http://www.bohemiancoding.com/sketch/ns">
    <!-- Generator: Sketch 3.4.4 (17249) - http://www.bohemiancoding.com/sketch -->
    <title>gfpp_stretch_up_reg</title>
    <desc>Created with Sketch.</desc>
    <defs></defs>
    <g id="Page-1" stroke="none" stroke-width="1" fill="none" fill-rule="evenodd" sketch:type="MSPage">
        <g id="gfpp_stretch_up_reg" sketch:type="MSArtboardGroup" fill="#1D2D3C">
            <path d="M16.4985615,4.25181881 C16.0910708,3.70210772 15.311869,3.58679762 14.7602657,3.99435919 C14.2086624,4.40291481 14.0943663,5.18225206 14.5028509,5.73295721 L16.1894649,8.00536148 L4.86420463,8.00536148 L6.5577758,5.73494531 C6.96824816,5.18523422 6.85494586,4.40689102 6.30433645,3.99634729 C5.75571481,3.58679762 4.97452529,3.69912556 4.5660407,4.24983071 L1,9.02923567 L4.50243239,13.7480034 C4.74593294,14.0760408 5.1216195,14.25 5.50128158,14.25 C5.75770257,14.25 6.01809907,14.1704758 6.24072815,14.0054631 C6.79133755,13.5959134 6.90662761,12.8175702 6.49714913,12.266865 L4.81152901,9.99346671 L16.1357954,9.99346671 L14.4432181,12.2648769 C14.0327457,12.813594 14.146048,13.5919372 14.6966574,14.003475 C14.9182926,14.1694817 15.179683,14.25 15.4380918,14.25 C15.8157661,14.25 16.1904588,14.0770348 16.4349532,13.7499915 L20,8.97058657 L16.4985615,4.25181881 Z" id="Fill-17" sketch:type="MSShapeGroup"></path>
        </g>
    </g>
</svg>