<?xml version="1.0" encoding="utf-8"?>
<!-- Generated by IcoMoon.io -->
<!DOCTYPE svg PUBLIC "-//W3C//DTD SVG 1.1//EN" "http://www.w3.org/Graphics/SVG/1.1/DTD/svg11.dtd">
<svg version="1.1" xmlns="http://www.w3.org/2000/svg" xmlns:xlink="http://www.w3.org/1999/xlink" width="18" height="16" viewBox="0 0 29 26">
<path d="M24.151 20.331c3.392-3.207 4.785-7.232 4.785-7.232s-3.798-11.311-14.311-11.311c-3.064 0-5.542 0.974-7.538 2.335 0 0-3.408-3.237-3.408-3.237-0.498-0.476-1.288-0.453-1.76 0.044-0.475 0.499-0.453 1.287 0.046 1.76 0 0 3.171 3.013 3.171 3.013-3.419 3.269-4.821 7.396-4.821 7.396s3.798 11.114 14.311 11.114c3.077 0 5.563-0.964 7.563-2.311 0 0 3.382 3.213 3.382 3.213 0.242 0.231 0.55 0.343 0.858 0.343 0.33 0 0.659-0.13 0.904-0.388 0.473-0.499 0.453-1.287-0.046-1.76 0 0-3.135-2.979-3.135-2.979zM14.589 6.607c3.586 0 6.491 2.907 6.491 6.491 0 1.246-0.368 2.4-0.977 3.389 0 0-1.887-1.793-1.887-1.793 0.203-0.459 0.319-0.965 0.319-1.499 0-2.065-1.674-3.737-3.738-3.737-0.601 0-1.161 0.155-1.665 0.407 0 0-2.22-2.109-2.22-2.109 1.045-0.721 2.311-1.148 3.677-1.148zM14.589 19.59c-3.585 0-6.491-2.907-6.491-6.491 0-1.317 0.399-2.539 1.072-3.563 0 0 2.229 2.118 2.229 2.118-0.214 0.471-0.34 0.99-0.34 1.542 0 2.064 1.673 3.738 3.738 3.738 0.619 0 1.193-0.165 1.706-0.431 0 0 1.913 1.818 1.913 1.818-1.076 0.79-2.391 1.271-3.827 1.271z" fill="#444444"></path>
</svg>
