<?xml version="1.0" encoding="utf-8"?>
<!-- Generated by IcoMoon.io -->
<!DOCTYPE svg PUBLIC "-//W3C//DTD SVG 1.1//EN" "http://www.w3.org/Graphics/SVG/1.1/DTD/svg11.dtd">
<svg version="1.1" xmlns="http://www.w3.org/2000/svg" xmlns:xlink="http://www.w3.org/1999/xlink" width="18" height="18" viewBox="0 0 45 45">
<path d="M22.5 1.324c-11.695 0-21.176 9.482-21.176 21.176s9.482 21.176 21.176 21.176c11.695 0 21.176-9.482 21.176-21.176s-9.482-21.176-21.176-21.176zM25.115 35.735c0 0-5.294 0-5.294 0s0-5.294 0-5.294c0 0 5.294 0 5.294 0s0 5.294 0 5.294zM31.357 18.103c-0.175 0.654-0.408 1.223-0.704 1.705s-0.63 0.903-1.001 1.26c-0.371 0.36-0.754 0.686-1.149 0.982s-0.791 0.588-1.186 0.871c-0.394 0.286-0.76 0.593-1.093 0.926s-0.503 0.704-0.749 1.112c-0.246 0.408-0.36 0.884-0.36 1.427 0 0 0 1.408 0 1.408s-5.294 0-5.294 0c0 0 0-1.668 0-1.668 0-0.815 0.204-1.519 0.413-2.112s0.476-1.117 0.773-1.575c0.294-0.455 0.627-0.852 0.987-1.186 0.357-0.334 0.725-0.649 1.096-0.945s0.717-0.574 1.038-0.834c0.323-0.259 0.606-0.543 0.855-0.852 0.246-0.31 0.445-0.649 0.593-1.019s0.222-0.802 0.222-1.297c0-1.136-0.278-1.975-0.834-2.52-0.556-0.543-1.329-0.815-2.316-0.815-0.667 0-1.241 0.13-1.723 0.389s-0.876 0.606-1.186 1.038c-0.31 0.431-0.537 0.649-0.686 1.228s-0.222 1.58-0.222 1.58c0 0-5.448 0-5.448 0 0.024 0 0.251-2.266 0.686-3.378 0.431-1.112 1.038-1.93 1.816-2.745s1.715-1.379 2.816-1.837c1.099-0.455 2.327-0.649 3.687-0.649 1.755 0 3.216 0.259 4.391 0.741 1.173 0.482 2.118 1.091 2.835 1.805 0.715 0.717 1.228 1.496 1.538 2.321 0.31 0.829 0.463 1.604 0.463 2.319 0 0.889-0.087 1.665-0.259 2.319z" fill="#444444"></path>
</svg>
