<svg xmlns="http://www.w3.org/2000/svg" width="18" height="18" viewBox="0 0 45 45"><path fill="#444" d="M22.5 1.324c-11.695 0-21.176 9.482-21.176 21.176S10.806 43.676 22.5 43.676c11.695 0 21.176-9.482 21.176-21.176S34.194 1.324 22.5 1.324zm2.615 34.41H19.82v-5.293h5.295v5.295zm6.242-17.63c-.175.653-.408 1.222-.704 1.704s-.63.903-1 1.26c-.372.36-.755.686-1.15.982s-.79.588-1.186.87c-.394.287-.76.594-1.093.927s-.503.704-.75 1.112c-.245.407-.36.883-.36 1.426v1.408h-5.293v-1.668c0-.815.205-1.52.414-2.112s.476-1.117.773-1.575c.294-.456.627-.853.987-1.187.357-.334.725-.65 1.096-.945s.717-.574 1.038-.834c.323-.26.606-.543.855-.852.246-.31.445-.65.593-1.02s.222-.8.222-1.296c0-1.136-.278-1.975-.834-2.52-.556-.543-1.33-.815-2.316-.815-.667 0-1.24.13-1.723.39s-.876.606-1.186 1.038c-.31.43-.538.65-.687 1.228s-.222 1.58-.222 1.58h-5.447c.024 0 .25-2.266.686-3.378.43-1.112 1.037-1.93 1.815-2.745S17.6 9.703 18.7 9.246c1.1-.455 2.328-.65 3.688-.65 1.755 0 3.216.26 4.39.742 1.174.482 2.12 1.09 2.836 1.805.715.717 1.228 1.496 1.538 2.32.31.83.463 1.605.463 2.32 0 .89-.087 1.665-.26 2.32z"/></svg>