<svg xmlns="http://www.w3.org/2000/svg" width="18" height="16" viewBox="0 0 29 26"><path fill="#444" d="M24.15 20.33c3.393-3.206 4.786-7.23 4.786-7.23S25.138 1.787 14.626 1.787c-3.065 0-5.543.974-7.54 2.335L3.68.886A1.244 1.244 0 1 0 1.964 2.69l3.17 3.013C1.718 8.973.316 13.1.316 13.1s3.798 11.113 14.31 11.113c3.078 0 5.564-.964 7.564-2.31l3.38 3.212c.243.23.55.343.86.343a1.245 1.245 0 0 0 .858-2.148l-3.136-2.98zM14.59 6.608a6.49 6.49 0 0 1 6.49 6.49 6.44 6.44 0 0 1-.977 3.39l-1.887-1.793c.203-.46.32-.965.32-1.5a3.737 3.737 0 0 0-3.74-3.736c-.6 0-1.16.155-1.664.407l-2.22-2.11A6.455 6.455 0 0 1 14.59 6.61zm0 12.983a6.49 6.49 0 0 1-6.492-6.49c0-1.318.4-2.54 1.072-3.564l2.23 2.118c-.215.47-.34.99-.34 1.542a3.738 3.738 0 0 0 3.737 3.738c.62 0 1.193-.165 1.706-.43l1.913 1.817a6.44 6.44 0 0 1-3.827 1.272z"/></svg>