<svg xmlns="http://www.w3.org/2000/svg" width="40" height="13" viewBox="0 0 40 13"><g fill="#FFF" fill-rule="evenodd"><path d="M5.124 6.01V4.65H9.68c.045.24.073.525.073.834 0 1.02-.28 2.283-1.18 3.182-.873.91-1.99 1.397-3.473 1.397-2.745 0-5.053-2.235-5.053-4.98C.047 2.338 2.355.103 5.1.103c1.52 0 2.6.595 3.414 1.372l-.96.96A3.47 3.47 0 0 0 5.1 1.463c-2.004 0-3.57 1.615-3.57 3.62 0 2.004 1.566 3.62 3.57 3.62 1.3 0 2.04-.523 2.515-.996.386-.386.64-.94.74-1.697h-3.23zM15.285 6.856c0-1.154-.838-1.944-1.81-1.944-.972 0-1.81.79-1.81 1.944 0 1.142.838 1.943 1.81 1.943.972 0 1.81-.802 1.81-1.944m1.41 0c0 1.846-1.446 3.207-3.22 3.207-1.773 0-3.22-1.36-3.22-3.207 0-1.858 1.447-3.207 3.22-3.207 1.774 0 3.22 1.348 3.22 3.206M22.307 6.856c0-1.154-.838-1.944-1.81-1.944-.972 0-1.81.79-1.81 1.944 0 1.142.838 1.943 1.81 1.943.972 0 1.81-.802 1.81-1.944m1.41 0c0 1.846-1.446 3.207-3.22 3.207-1.773 0-3.22-1.36-3.22-3.207 0-1.858 1.447-3.207 3.22-3.207 1.774 0 3.22 1.348 3.22 3.206M29.208 6.868c0-1.13-.753-1.956-1.713-1.956-.972 0-1.785.826-1.785 1.956 0 1.118.813 1.93 1.785 1.93.96 0 1.713-.812 1.713-1.93zm1.24-3.025V9.6c0 2.37-1.398 3.342-3.05 3.342-1.555 0-2.49-1.045-2.842-1.895l1.227-.51c.218.522.753 1.14 1.615 1.14 1.057 0 1.713-.655 1.713-1.882v-.46h-.048c-.316.388-.923.728-1.688.728-1.604 0-3.073-1.397-3.073-3.195 0-1.81 1.47-3.22 3.074-3.22.765 0 1.372.34 1.688.718h.05v-.523h1.335zM32.833 9.868h-1.41V.473h1.41v9.395zM34.91 6.76l2.867-1.19c-.158-.402-.632-.682-1.19-.682-.717 0-1.713.632-1.677 1.87m3.365 1.155l1.093.73c-.352.52-1.203 1.42-2.672 1.42-1.822 0-3.183-1.41-3.183-3.207 0-1.907 1.373-3.207 3.025-3.207 1.664 0 2.478 1.323 2.745 2.04l.146.364-4.29 1.774c.33.644.84.972 1.556.972.716 0 1.214-.353 1.58-.887"/></g></svg>