<?xml version="1.0" encoding="UTF-8" standalone="no"?>
<svg width="40px" height="13px" viewBox="0 0 40 13" version="1.1" xmlns="http://www.w3.org/2000/svg" xmlns:xlink="http://www.w3.org/1999/xlink">
    <g stroke="none" stroke-width="1" fill="none" fill-rule="evenodd">
        <g fill="#FFFFFF">
            <g>
                <path d="M5.1243,6.0098 L5.1243,4.6498 L9.6793,4.6498 C9.7253,4.8888 9.7533,5.1748 9.7533,5.4838 C9.7533,6.5038 9.4733,7.7668 8.5743,8.6658 C7.7003,9.5768 6.5823,10.0628 5.1003,10.0628 C2.3553,10.0628 0.0473,7.8278 0.0473,5.0828 C0.0473,2.3378 2.3553,0.1018 5.1003,0.1018 C6.6193,0.1018 7.7003,0.6978 8.5143,1.4748 L7.5543,2.4348 C6.9713,1.8878 6.1813,1.4628 5.1003,1.4628 C3.0963,1.4628 1.5293,3.0778 1.5293,5.0828 C1.5293,7.0868 3.0963,8.7028 5.1003,8.7028 C6.4003,8.7028 7.1413,8.1798 7.6153,7.7068 C8.0013,7.3208 8.2553,6.7668 8.3543,6.0098 L5.1243,6.0098 Z"></path>
                <path d="M15.2849,6.8561 C15.2849,5.7021 14.4469,4.9121 13.4749,4.9121 C12.5029,4.9121 11.6649,5.7021 11.6649,6.8561 C11.6649,7.9981 12.5029,8.7991 13.4749,8.7991 C14.4469,8.7991 15.2849,7.9981 15.2849,6.8561 M16.6939,6.8561 C16.6939,8.7021 15.2489,10.0631 13.4749,10.0631 C11.7019,10.0631 10.2559,8.7021 10.2559,6.8561 C10.2559,4.9981 11.7019,3.6491 13.4749,3.6491 C15.2489,3.6491 16.6939,4.9981 16.6939,6.8561"></path>
                <path d="M22.307,6.8561 C22.307,5.7021 21.469,4.9121 20.497,4.9121 C19.525,4.9121 18.687,5.7021 18.687,6.8561 C18.687,7.9981 19.525,8.7991 20.497,8.7991 C21.469,8.7991 22.307,7.9981 22.307,6.8561 M23.716,6.8561 C23.716,8.7021 22.271,10.0631 20.497,10.0631 C18.724,10.0631 17.278,8.7021 17.278,6.8561 C17.278,4.9981 18.724,3.6491 20.497,3.6491 C22.271,3.6491 23.716,4.9981 23.716,6.8561"></path>
                <path d="M29.2078,6.8682 C29.2078,5.7382 28.4548,4.9122 27.4948,4.9122 C26.5228,4.9122 25.7098,5.7382 25.7098,6.8682 C25.7098,7.9862 26.5228,8.7992 27.4948,8.7992 C28.4548,8.7992 29.2078,7.9862 29.2078,6.8682 L29.2078,6.8682 Z M30.4468,3.8432 L30.4468,9.6012 C30.4468,11.9702 29.0498,12.9422 27.3978,12.9422 C25.8428,12.9422 24.9078,11.8972 24.5558,11.0472 L25.7828,10.5362 C26.0008,11.0592 26.5358,11.6782 27.3978,11.6782 C28.4548,11.6782 29.1108,11.0222 29.1108,9.7952 L29.1108,9.3342 L29.0618,9.3342 C28.7458,9.7232 28.1388,10.0632 27.3738,10.0632 C25.7698,10.0632 24.3008,8.6662 24.3008,6.8682 C24.3008,5.0582 25.7698,3.6492 27.3738,3.6492 C28.1388,3.6492 28.7458,3.9892 29.0618,4.3662 L29.1108,4.3662 L29.1108,3.8432 L30.4468,3.8432 Z"></path>
                <path d="M32.833,9.868 L31.424,9.868 L31.424,0.473 L32.833,0.473 L32.833,9.868 Z"></path>
                <path d="M34.9098,6.7589 L37.7768,5.5689 C37.6188,5.1679 37.1448,4.8879 36.5858,4.8879 C35.8698,4.8879 34.8738,5.5199 34.9098,6.7589 M38.2748,7.9129 L39.3678,8.6419 C39.0158,9.1639 38.1648,10.0629 36.6958,10.0629 C34.8738,10.0629 33.5128,8.6539 33.5128,6.8559 C33.5128,4.9489 34.8858,3.6489 36.5378,3.6489 C38.2018,3.6489 39.0158,4.9729 39.2828,5.6899 L39.4288,6.0539 L35.1408,7.8279 C35.4688,8.4719 35.9788,8.7999 36.6958,8.7999 C37.4118,8.7999 37.9098,8.4469 38.2748,7.9129"></path>
            </g>
        </g>
    </g>
</svg>