<?xml version="1.0" encoding="UTF-8" standalone="no"?>
<svg width="13px" height="15px" viewBox="0 0 13 15" version="1.1" xmlns="http://www.w3.org/2000/svg" xmlns:xlink="http://www.w3.org/1999/xlink" xmlns:sketch="http://www.bohemiancoding.com/sketch/ns">
    <defs>
        <path id="path-1" d="M1,1 L12,1 L12,14 L1,14 L1,1 Z"></path>
    </defs>
    <g id="Page-1" stroke="none" stroke-width="1" fill-rule="evenodd" sketch:type="MSPage">
        <path d="M9.9999,11 C9.9999,12.104 9.1049,13 7.9999,13 L4.9999,13 C3.8959,13 2.9999,12.104 2.9999,11 L2.9999,4 L3.9999,4 L8.9999,4 L9.9999,4 L9.9999,11 Z M4.9999,2.5 C4.9999,2.229 5.2399,2 5.5249,2 L7.3919,2 C7.6929,2 7.9999,2.252 7.9999,2.5 L7.9999,3 L4.9999,3 L4.9999,2.5 Z M8.9999,3 L8.9999,2.5 C8.9999,1.701 8.2489,1 7.3919,1 L5.5249,1 C4.6839,1 3.9999,1.673 3.9999,2.5 L3.9999,3 L0.9999,3 L0.9999,4 L1.9999,4 L1.9999,11 C1.9999,12.657 3.3429,14 4.9999,14 L7.9999,14 C9.6569,14 10.9999,12.657 10.9999,11 L10.9999,4 L11.9999,4 L11.9999,3 L8.9999,3 Z M5.9999,11 L6.9999,11 L6.9999,6 L5.9999,6 L5.9999,11 Z M7.9999,11 L8.9999,11 L8.9999,6 L7.9999,6 L7.9999,11 Z M3.9999,11 L4.9999,11 L4.9999,6 L3.9999,6 L3.9999,11 Z" id="Fill-1" sketch:type="MSShapeGroup" mask="url(#mask-2)"></path>
    </g>
</svg>