<svg xmlns="http://www.w3.org/2000/svg" xmlns:xlink="http://www.w3.org/1999/xlink" preserveAspectRatio="xMidYMid" width="90" height="49" viewBox="0 0 90 49">
  
  <g id="hangon">
    <path d="M2.000,47.000 C2.000,47.000 60.000,47.000 60.000,47.000 C60.000,47.000 60.000,41.000 60.000,41.000 C60.000,41.000 23.000,41.000 23.000,41.000 C23.000,41.000 23.000,14.000 23.000,14.000 C23.000,14.000 2.000,14.000 2.000,14.000 C2.000,14.000 2.000,47.000 2.000,47.000 Z" id="path-1" class="cls-4" fill-rule="evenodd"/>
    <path d="M25.000,40.000 C25.000,40.000 25.000,9.000 25.000,9.000 C25.000,9.000 75.000,9.000 75.000,9.000 C75.000,9.000 75.000,40.000 75.000,40.000 C75.000,40.000 25.000,40.000 25.000,40.000 ZM24.000,13.000 C24.000,13.000 2.000,13.000 2.000,13.000 C2.000,13.000 2.000,2.000 2.000,2.000 C2.000,2.000 60.000,2.000 60.000,2.000 C60.000,2.000 60.000,8.000 60.000,8.000 C60.000,8.000 24.000,8.000 24.000,8.000 C24.000,8.000 24.000,13.000 24.000,13.000 Z" id="path-2" class="cls-5" fill-rule="evenodd"/>
    <path d="M90.000,23.996 C90.000,23.996 90.000,25.004 90.000,25.004 C90.000,25.004 77.000,25.004 77.000,25.004 C77.000,25.004 77.000,30.991 77.000,30.991 C77.000,30.991 83.001,30.991 83.001,30.991 C83.001,30.991 83.001,32.000 83.001,32.000 C83.001,32.000 77.000,32.000 77.000,32.000 C77.000,32.000 77.000,39.644 77.000,39.644 C77.000,40.943 75.933,42.000 74.620,42.000 C74.620,42.000 62.000,42.000 62.000,42.000 C62.000,42.000 62.000,46.400 62.000,46.400 C62.000,47.834 60.835,49.000 59.404,49.000 C59.404,49.000 2.597,49.000 2.597,49.000 C1.165,49.000 0.000,47.834 0.000,46.400 C0.000,46.400 0.000,2.599 0.000,2.599 C0.000,1.166 1.165,-0.000 2.597,-0.000 C2.597,-0.000 59.404,-0.000 59.404,-0.000 C60.835,-0.000 62.000,1.166 62.000,2.599 C62.000,2.599 62.000,7.000 62.000,7.000 C62.000,7.000 74.620,7.000 74.620,7.000 C75.933,7.000 77.000,8.041 77.000,9.320 C77.000,9.320 77.000,17.000 77.000,17.000 C77.000,17.000 88.010,17.000 88.010,17.000 C88.010,17.000 88.010,18.009 88.010,18.009 C88.010,18.009 77.000,18.009 77.000,18.009 C77.000,18.009 77.000,23.996 77.000,23.996 C77.000,23.996 90.000,23.996 90.000,23.996 ZM2.000,46.400 C2.000,46.731 2.268,47.000 2.597,47.000 C2.597,47.000 59.404,47.000 59.404,47.000 C59.733,47.000 60.000,46.731 60.000,46.400 C60.000,46.400 60.000,42.000 60.000,42.000 C60.000,42.000 25.379,42.000 25.379,42.000 C24.067,42.000 23.000,40.943 23.000,39.644 C23.000,39.644 23.000,14.000 23.000,14.000 C23.000,14.000 2.000,14.000 2.000,14.000 C2.000,14.000 2.000,46.400 2.000,46.400 ZM60.000,2.599 C60.000,2.268 59.733,2.000 59.404,2.000 C59.404,2.000 2.597,2.000 2.597,2.000 C2.268,2.000 2.000,2.268 2.000,2.599 C2.000,2.599 2.000,13.000 2.000,13.000 C2.000,13.000 23.000,13.000 23.000,13.000 C23.000,13.000 23.000,9.320 23.000,9.320 C23.000,8.041 24.067,7.000 25.379,7.000 C25.379,7.000 60.000,7.000 60.000,7.000 C60.000,7.000 60.000,2.599 60.000,2.599 ZM75.000,9.320 C75.000,9.138 74.830,8.991 74.620,8.991 C74.620,8.991 25.379,8.991 25.379,8.991 C25.170,8.991 25.000,9.138 25.000,9.320 C25.000,9.320 25.000,13.000 25.000,13.000 C25.000,13.000 25.004,13.000 25.004,13.000 C25.004,13.000 25.004,14.000 25.004,14.000 C25.004,14.000 25.000,14.000 25.000,14.000 C25.000,14.000 25.000,39.644 25.000,39.644 C25.000,39.829 25.170,39.980 25.379,39.980 C25.379,39.980 74.620,39.980 74.620,39.980 C74.830,39.980 75.000,39.829 75.000,39.644 C75.000,39.644 75.000,9.320 75.000,9.320 ZM65.768,30.000 C65.768,30.000 63.230,20.798 63.230,20.798 C63.230,20.798 60.706,30.000 60.706,30.000 C60.706,30.000 59.401,30.000 59.401,30.000 C59.401,30.000 59.369,29.885 59.369,29.885 C59.369,29.885 56.608,19.659 56.608,19.659 C56.608,19.659 53.829,30.000 53.829,30.000 C53.829,30.000 52.552,30.000 52.552,30.000 C52.552,30.000 50.015,20.797 50.015,20.797 C50.015,20.797 47.491,30.000 47.491,30.000 C47.491,30.000 46.186,30.000 46.186,30.000 C46.186,30.000 46.155,29.885 46.155,29.885 C46.155,29.885 43.393,19.658 43.393,19.658 C43.393,19.658 40.614,30.000 40.614,30.000 C40.614,30.000 39.338,30.000 39.338,30.000 C39.338,30.000 36.800,20.798 36.800,20.798 C36.800,20.798 34.276,30.000 34.276,30.000 C34.276,30.000 32.970,30.000 32.970,30.000 C32.970,30.000 32.939,29.885 32.939,29.885 C32.939,29.885 30.000,19.000 30.000,19.000 C30.000,19.000 31.379,19.000 31.379,19.000 C31.379,19.000 31.409,19.118 31.409,19.118 C31.409,19.118 33.642,27.968 33.642,27.968 C33.642,27.968 36.074,19.000 36.074,19.000 C36.074,19.000 37.540,19.000 37.540,19.000 C37.540,19.000 39.986,27.971 39.986,27.971 C39.986,27.971 42.264,19.000 42.264,19.000 C42.264,19.000 43.216,19.000 43.216,19.000 C43.216,19.000 43.570,19.000 43.570,19.000 C43.570,19.000 44.594,19.000 44.594,19.000 C44.594,19.000 44.624,19.118 44.624,19.118 C44.624,19.118 46.858,27.970 46.858,27.970 C46.858,27.970 49.289,19.000 49.289,19.000 C49.289,19.000 50.755,19.000 50.755,19.000 C50.755,19.000 53.201,27.973 53.201,27.973 C53.201,27.973 55.480,19.000 55.480,19.000 C55.480,19.000 56.430,19.000 56.430,19.000 C56.430,19.000 56.786,19.000 56.786,19.000 C56.786,19.000 57.809,19.000 57.809,19.000 C57.809,19.000 57.840,19.118 57.840,19.118 C57.840,19.118 60.073,27.968 60.073,27.968 C60.073,27.968 62.504,19.000 62.504,19.000 C62.504,19.000 63.970,19.000 63.970,19.000 C63.970,19.000 66.416,27.971 66.416,27.971 C66.416,27.971 68.694,19.000 68.694,19.000 C68.694,19.000 70.000,19.000 70.000,19.000 C70.000,19.000 67.044,30.000 67.044,30.000 C67.044,30.000 65.768,30.000 65.768,30.000 ZM17.834,9.351 C16.824,9.351 16.005,8.522 16.005,7.499 C16.005,6.477 16.824,5.648 17.834,5.648 C18.843,5.648 19.662,6.477 19.662,7.499 C19.662,8.522 18.843,9.351 17.834,9.351 ZM12.620,9.351 C11.610,9.351 10.792,8.522 10.792,7.499 C10.792,6.477 11.610,5.648 12.620,5.648 C13.629,5.648 14.448,6.477 14.448,7.499 C14.448,8.522 13.629,9.351 12.620,9.351 ZM7.406,9.351 C6.397,9.351 5.579,8.522 5.579,7.499 C5.579,6.477 6.397,5.648 7.406,5.648 C8.416,5.648 9.234,6.477 9.234,7.499 C9.234,8.522 8.416,9.351 7.406,9.351 Z" id="path-3" class="cls-6" fill-rule="evenodd"/>
  </g>
</svg>
