<svg xmlns="http://www.w3.org/2000/svg" width="90" height="49" preserveAspectRatio="xMidYMid" viewBox="0 0 90 49"><g fill-rule="evenodd"><path d="M2 47h58v-6H23V14H2v33z" class="cls-4"/><path d="M25 40V9h50v31H25zm-1-27H2V2h58v6H24v5z" class="cls-5"/><path d="M90 23.996v1.008H77v5.987h6V32h-6v7.644c0 1.3-1.067 2.356-2.38 2.356H62v4.4a2.6 2.6 0 0 1-2.596 2.6H2.597A2.6 2.6 0 0 1 0 46.4V2.6A2.6 2.6 0 0 1 2.597 0h56.807A2.6 2.6 0 0 1 62 2.6V7h12.62C75.933 7 77 8.04 77 9.32V17h11.01v1.01H77v5.986h13zM2 46.4c0 .33.268.6.597.6h56.807c.33 0 .596-.27.596-.6V42H25.38C24.066 42 23 40.943 23 39.644V14H2v32.4zM60 2.6c0-.332-.267-.6-.596-.6H2.597A.598.598 0 0 0 2 2.6V13h21V9.32C23 8.04 24.067 7 25.38 7H60V2.6zm15 6.72c0-.182-.17-.33-.38-.33H25.38c-.21 0-.38.148-.38.33V13h.004v1H25v25.644c0 .185.17.336.38.336h49.24c.21 0 .38-.15.38-.336V9.32zM65.768 30l-2.538-9.202L60.706 30H59.4l-.03-.115-2.762-10.226L53.828 30h-1.276l-2.537-9.203L47.49 30h-1.304l-.03-.115-2.763-10.227L40.613 30H39.34L36.8 20.798 34.276 30H32.97l-.03-.115L30 19h1.38l.03.118 2.232 8.85L36.074 19h1.466l2.446 8.97L42.264 19h2.33l.03.118 2.234 8.852 2.43-8.97h1.467l2.446 8.973L55.48 19H57.81l.03.118 2.233 8.85L62.503 19h1.467l2.446 8.97L68.694 19H70l-2.956 11h-1.276zM17.834 9.35a1.84 1.84 0 0 1-1.83-1.85c0-1.023.82-1.852 1.83-1.852 1.01 0 1.828.83 1.828 1.85a1.84 1.84 0 0 1-1.828 1.853zm-5.214 0a1.84 1.84 0 0 1-1.828-1.85 1.84 1.84 0 0 1 1.828-1.852c1.01 0 1.828.83 1.828 1.85a1.84 1.84 0 0 1-1.828 1.853zm-5.214 0c-1.01 0-1.827-.828-1.827-1.85a1.84 1.84 0 0 1 1.826-1.852c1.01 0 1.828.83 1.828 1.85a1.84 1.84 0 0 1-1.828 1.853z" class="cls-6"/></g></svg>