<svg xmlns="http://www.w3.org/2000/svg" width="28" height="28" preserveAspectRatio="xMidYMid" viewBox="0 0 28 28"><path fill-rule="evenodd" d="M14.5 28.5c-7.732 0-14-6.268-14-14s6.268-14 14-14 14 6.268 14 14-6.268 14-14 14zm0-26.444c-6.873 0-12.444 5.57-12.444 12.444 0 6.873 5.57 12.444 12.444 12.444 6.873 0 12.444-5.57 12.444-12.444 0-6.873-5.57-12.444-12.444-12.444zm2.585 12.702c-.465.465-.828.82-1.09 1.068-.26.247-.456.497-.587.75-.13.255-.218.556-.26.905-.045.35-.074.857-.088 1.525h-1.372c-.015-.668.022-1.23.11-1.688.086-.457.23-.863.434-1.22.203-.355.465-.7.784-1.034.32-.333.71-.71 1.176-1.132a5.447 5.447 0 0 0 1.013-1.262 3.04 3.04 0 0 0 .403-1.546 2.83 2.83 0 0 0-.926-2.124 3.183 3.183 0 0 0-.99-.6 3.31 3.31 0 0 0-1.198-.216c-.596 0-1.115.1-1.558.304-.443.204-.81.483-1.1.84-.29.355-.508.772-.653 1.25a4.965 4.965 0 0 0-.196 1.57H9.615c0-.77.113-1.47.338-2.102a4.57 4.57 0 0 1 .958-1.612 4.23 4.23 0 0 1 1.547-1.034c.617-.247 1.318-.37 2.102-.37.61 0 1.178.09 1.708.272.53.18.998.446 1.405.794.406.35.726.774.958 1.274.233.5.35 1.064.35 1.688 0 .813-.178 1.503-.534 2.07a8.453 8.453 0 0 1-1.36 1.632zM15.3 22.903h-1.83v-2.308h1.83v2.308z" class="cls-2"/></svg>