<svg xmlns="http://www.w3.org/2000/svg"
    xmlns:xlink="http://www.w3.org/1999/xlink"
    preserveAspectRatio="xMidYMid" viewBox="0 0 28 28" width="28" height="28">
  <path d="M14.500,28.500 C6.768,28.500 0.500,22.232 0.500,14.500 C0.500,6.768 6.768,0.500 14.500,0.500 C22.232,0.500 28.500,6.768 28.500,14.500 C28.500,22.232 22.232,28.500 14.500,28.500 ZM14.500,2.056 C7.627,2.056 2.056,7.627 2.056,14.500 C2.056,21.373 7.627,26.944 14.500,26.944 C21.373,26.944 26.944,21.373 26.944,14.500 C26.944,7.627 21.373,2.056 14.500,2.056 ZM17.085,14.758 C16.620,15.223 16.257,15.579 15.996,15.826 C15.735,16.073 15.539,16.323 15.408,16.577 C15.278,16.831 15.190,17.132 15.147,17.481 C15.103,17.829 15.074,18.337 15.060,19.005 C15.060,19.005 13.688,19.005 13.688,19.005 C13.673,18.337 13.710,17.775 13.797,17.317 C13.884,16.860 14.029,16.454 14.232,16.098 C14.435,15.742 14.697,15.397 15.016,15.063 C15.335,14.730 15.727,14.352 16.192,13.931 C16.598,13.553 16.936,13.133 17.205,12.668 C17.473,12.203 17.608,11.688 17.608,11.122 C17.608,10.686 17.524,10.287 17.357,9.924 C17.190,9.561 16.965,9.252 16.682,8.998 C16.399,8.744 16.069,8.545 15.691,8.399 C15.314,8.254 14.914,8.182 14.494,8.182 C13.898,8.182 13.379,8.283 12.936,8.486 C12.493,8.690 12.127,8.969 11.837,9.325 C11.546,9.681 11.328,10.098 11.183,10.577 C11.038,11.056 10.973,11.579 10.987,12.145 C10.987,12.145 9.615,12.145 9.615,12.145 C9.615,11.376 9.728,10.675 9.953,10.044 C10.178,9.412 10.497,8.875 10.911,8.432 C11.325,7.989 11.840,7.645 12.457,7.398 C13.074,7.151 13.775,7.027 14.559,7.027 C15.169,7.027 15.738,7.118 16.268,7.300 C16.798,7.481 17.266,7.746 17.673,8.094 C18.079,8.443 18.399,8.868 18.631,9.368 C18.863,9.869 18.980,10.432 18.980,11.056 C18.980,11.869 18.802,12.559 18.446,13.125 C18.090,13.691 17.637,14.236 17.085,14.758 ZM15.299,22.903 C15.299,22.903 13.470,22.903 13.470,22.903 C13.470,22.903 13.470,20.595 13.470,20.595 C13.470,20.595 15.299,20.595 15.299,20.595 C15.299,20.595 15.299,22.903 15.299,22.903 Z" id="path-1" class="cls-2" fill-rule="evenodd"/>
</svg>
