<svg xmlns="http://www.w3.org/2000/svg" width="108" height="100" viewBox="0 0 108 100"><g fill="#4eb7f5"><path d="M16.98 20h6.04c1.094 0 1.98.85 1.98 1.943v.04C25 23.076 24.114 24 23.02 24h-2.04c-1.094 0-1.98.85-1.98 1.943v.04c0 1.093.886 2.017 1.98 2.017h.04c1.094 0 1.98.85 1.98 1.943v.04C23 31.076 22.114 32 21.02 32h-8.04c-1.094 0-1.98.85-1.98 1.943v.04c0 1.093.886 2.017 1.98 2.017h1.04c1.094 0 1.98.85 1.98 1.943v.04C16 39.076 15.114 40 14.02 40H4.98C3.886 40 3 40.85 3 41.943v.04C3 43.076 3.886 44 4.98 44h8.04c1.094 0 1.98.85 1.98 1.943v.04C15 47.076 14.114 48 13.02 48h-2.04C9.886 48 9 48.85 9 49.943v.04C9 51.076 9.886 52 10.98 52h6.04c1.094 0 1.98.85 1.98 1.943v.04C19 55.076 18.114 56 17.02 56h-1.04c-1.094 0-1.98.85-1.98 1.943v.04c0 1.093.886 2.017 1.98 2.017h1.04c1.094 0 1.98.85 1.98 1.943v.04C19 63.076 18.114 64 17.02 64H6.98C5.886 64 5 64.85 5 65.943v.04C5 67.076 5.886 68 6.98 68h13.04c1.094 0 1.98.85 1.98 1.943v.04C22 71.076 21.114 72 20.02 72h-8.04c-1.094 0-1.98.85-1.98 1.943v.04c0 1.093.886 2.017 1.98 2.017h21.04c1.094 0 1.98.85 1.98 1.943v.04C35 79.076 34.114 80 33.02 80h-2.04c-1.094 0-1.98.85-1.98 1.943v.04c0 1.093.886 2.017 1.98 2.017h11.04c1.094 0 1.98.85 1.98 1.943v.04C44 87.076 43.114 88 42.02 88h-2.04c-1.094 0-1.98.85-1.98 1.943v.04c0 1.093.886 2.017 1.98 2.017h19.04c1.094 0 1.98.85 1.98 1.943v.04C61 95.076 60.114 96 59.02 96h-3.04c-1.094 0-1.98.85-1.98 1.943v.04c0 1.094.886 2.017 1.98 2.017h11.04c1.094 0 1.98-.924 1.98-2.017v-.04C69 96.85 68.114 96 67.02 96h-.04c-1.094 0-1.98-.924-1.98-2.017v-.04C65 92.85 65.886 92 66.98 92h8.04c1.094 0 1.98-.924 1.98-2.017v-.04C77 88.85 76.114 88 75.02 88h-4.04c-1.094 0-1.98-.924-1.98-2.017v-.04C69 84.85 69.886 84 70.98 84h23.04c1.094 0 1.98-.924 1.98-2.017v-.04C96 80.85 95.114 80 94.02 80h-9.04c-1.094 0-1.98-.924-1.98-2.017v-.04C83 76.85 83.886 76 84.98 76h5.04c1.094 0 1.98-.924 1.98-2.017v-.04C92 72.85 91.114 72 90.02 72h-.04c-1.094 0-1.98-.924-1.98-2.017v-.04C88 68.85 88.886 68 89.98 68h5.04c1.094 0 1.98-.924 1.98-2.017v-.04C97 64.85 96.114 64 95.02 64h-.04c-1.094 0-1.98-.924-1.98-2.017v-.04C93 60.85 93.886 60 94.98 60h5.04c1.094 0 1.98-.924 1.98-2.017v-.04c0-1.094-.886-1.943-1.98-1.943h-3.04c-1.094 0-1.98-.924-1.98-2.017v-.04C95 52.85 95.886 52 96.98 52h.04c1.094 0 1.98-.924 1.98-2.017v-.04C99 48.85 98.114 48 97.02 48h-2.04c-1.094 0-1.98-.924-1.98-2.017v-.04C93 44.85 93.886 44 94.98 44h7.04c1.094 0 1.98-.924 1.98-2.017v-.04c0-1.094-.886-1.943-1.98-1.943h-4.04c-1.094 0-1.98-.924-1.98-2.017v-.04C96 36.85 96.886 36 97.98 36h8.04c1.094 0 1.98-.924 1.98-2.017v-.04c0-1.094-.886-1.943-1.98-1.943H91.98c-1.094 0-1.98-.924-1.98-2.017v-.04C90 28.85 90.886 28 91.98 28h8.04c1.094 0 1.98-.924 1.98-2.017v-.04c0-1.094-.886-1.943-1.98-1.943H86.98c-1.094 0-1.98-.924-1.98-2.017v-.04C85 20.85 85.886 20 86.98 20h2.04c1.094 0 1.98-.924 1.98-2.017v-.04C91 16.85 90.114 16 89.02 16H76.98c-1.094 0-1.98-.924-1.98-2.017v-.04C75 12.85 75.886 12 76.98 12h.04c1.094 0 1.98-.924 1.98-2.017v-.04C79 8.85 78.114 8 77.02 8h-4.04C71.886 8 71 7.076 71 5.983v-.04C71 4.85 71.886 4 72.98 4h.04C74.114 4 75 3.076 75 1.983v-.04C75 .85 74.114 0 73.02 0H62.98C61.886 0 61 .85 61 1.943v.04C61 3.076 61.886 4 62.98 4h1.04C65.114 4 66 4.85 66 5.943v.04C66 7.076 65.114 8 64.02 8H47.98C46.886 8 46 7.076 46 5.983v-.04C46 4.85 46.886 4 47.98 4h5.04C54.114 4 55 3.076 55 1.983v-.04C55 .85 54.114 0 53.02 0H37.98C36.886 0 36 .85 36 1.943v.04C36 3.076 36.886 4 37.98 4h1.04C40.114 4 41 4.85 41 5.943v.04C41 7.076 40.114 8 39.02 8H27.98C26.886 8 26 8.85 26 9.943v.04c0 1.093.886 2.017 1.98 2.017h.04c1.094 0 1.98.85 1.98 1.943v.04C30 15.076 29.114 16 28.02 16H16.98c-1.094 0-1.98.85-1.98 1.943v.04c0 1.093.886 2.017 1.98 2.017z"/><path d="M13 21.98A1.98 1.98 0 0 0 11.02 20H8.98A1.98 1.98 0 0 0 7 21.98v.04A1.98 1.98 0 0 0 8.98 24h2.04A1.98 1.98 0 0 0 13 22.02v-.04zM22 5.98A1.98 1.98 0 0 0 20.02 4h-4.04A1.98 1.98 0 0 0 14 5.98v.04A1.98 1.98 0 0 0 15.98 8h4.04A1.98 1.98 0 0 0 22 6.02v-.04zM16 85.98A1.98 1.98 0 0 0 14.02 84H8.98A1.98 1.98 0 0 0 7 85.98v.04A1.98 1.98 0 0 0 8.98 88h5.04A1.98 1.98 0 0 0 16 86.02v-.04zM97 9.98A1.98 1.98 0 0 0 95.02 8h-2.04A1.98 1.98 0 0 0 91 9.98v.04A1.98 1.98 0 0 0 92.98 12h2.04A1.98 1.98 0 0 0 97 10.02v-.04zM105 17.98a1.98 1.98 0 0 0-1.98-1.98h-1.04a1.98 1.98 0 0 0-1.98 1.98v.04a1.98 1.98 0 0 0 1.98 1.98h1.04a1.98 1.98 0 0 0 1.98-1.98v-.04zM105 69.98a1.98 1.98 0 0 0-1.98-1.98h-2.04A1.98 1.98 0 0 0 99 69.98v.04a1.98 1.98 0 0 0 1.98 1.98h2.04a1.98 1.98 0 0 0 1.98-1.98v-.04zM31 93.98A1.98 1.98 0 0 0 29.02 92h-3.04A1.98 1.98 0 0 0 24 93.98v.04A1.98 1.98 0 0 0 25.98 96h3.04A1.98 1.98 0 0 0 31 94.02v-.04zM6 77.98A1.98 1.98 0 0 0 4.02 76H1.98A1.98 1.98 0 0 0 0 77.98v.04A1.98 1.98 0 0 0 1.98 80h2.04A1.98 1.98 0 0 0 6 78.02v-.04zM100 89.98A1.98 1.98 0 0 0 98.02 88h-4.04A1.98 1.98 0 0 0 92 89.98v.04A1.98 1.98 0 0 0 93.98 92h4.04a1.98 1.98 0 0 0 1.98-1.98v-.04z"/></g><path fill="#eaf7ff" d="M24.5 45c0 17.397 14.103 31.5 31.5 31.5S87.5 62.397 87.5 45 73.397 13.5 56 13.5 24.5 27.603 24.5 45zm48.504 0c0 9.39-7.613 17.005-17.004 17.005S38.996 54.39 38.996 45 46.61 27.996 56 27.996 73.004 35.61 73.004 45z"/><path fill="#2b81cb" d="M63.954 60.025l10.498 10.498.013.013c.737.737 1.93.737 2.667 0l5.11-5.11a1.885 1.885 0 0 0 0-2.668l-.132-.133L71.485 52a17.056 17.056 0 0 1-7.53 8.025zM30.464 23.867a1.885 1.885 0 0 0 0 2.667l.013.013 10.498 10.498A17.058 17.058 0 0 1 49 29.515L38.375 18.888l-.133-.134a1.885 1.885 0 0 0-2.667 0l-5.11 5.11zM40.975 52.954L30.477 63.452l-.013.013a1.885 1.885 0 0 0 0 2.667l5.11 5.11c.738.738 1.932.738 2.668 0l.133-.132L49 60.485a17.068 17.068 0 0 1-8.025-7.53zM74.452 19.477L63.954 29.975A17.056 17.056 0 0 1 71.484 38l10.627-10.625.134-.133a1.885 1.885 0 0 0 0-2.667l-5.11-5.11a1.885 1.885 0 0 0-2.668 0l-.014.012z"/></svg>