<?xml version="1.0" encoding="utf-8"?><!DOCTYPE svg PUBLIC "-//W3C//DTD SVG 1.1//EN"
        "http://www.w3.org/Graphics/SVG/1.1/DTD/svg11.dtd">
<svg version="1.1" id="Layer_1" xmlns="http://www.w3.org/2000/svg" xmlns:xlink="http://www.w3.org/1999/xlink" x="0px" y="0px" width="108px" height="100px" viewBox="0 0 108 100" style="enable-background:new 0 0 108 100;" xml:space="preserve"><g><g><path style="fill:#4EB7F5;" d="M16.98,20h6.04c1.094,0,1.98,0.849,1.98,1.943v0.04C25,23.076,24.114,24,23.02,24h-2.04C19.886,24,19,24.849,19,25.943v0.04C19,27.076,19.886,28,20.98,28h0.04c1.094,0,1.98,0.849,1.98,1.943v0.04C23,31.076,22.114,32,21.02,32h-8.04C11.886,32,11,32.849,11,33.943v0.04C11,35.076,11.886,36,12.98,36h1.04c1.094,0,1.98,0.849,1.98,1.943v0.04C16,39.076,15.114,40,14.02,40H4.98C3.886,40,3,40.849,3,41.943v0.04C3,43.076,3.886,44,4.98,44h8.04c1.094,0,1.98,0.849,1.98,1.943v0.04C15,47.076,14.114,48,13.02,48h-2.04C9.886,48,9,48.849,9,49.943v0.04C9,51.076,9.886,52,10.98,52h6.04c1.094,0,1.98,0.849,1.98,1.943v0.04C19,55.076,18.114,56,17.02,56h-1.04C14.886,56,14,56.849,14,57.943v0.04C14,59.076,14.886,60,15.98,60h1.04c1.094,0,1.98,0.849,1.98,1.943v0.04C19,63.076,18.114,64,17.02,64H6.98C5.886,64,5,64.849,5,65.943v0.04C5,67.076,5.886,68,6.98,68h13.04c1.094,0,1.98,0.849,1.98,1.943v0.04C22,71.076,21.114,72,20.02,72h-8.04C10.886,72,10,72.849,10,73.943v0.04C10,75.076,10.886,76,11.98,76h21.04c1.094,0,1.98,0.849,1.98,1.943v0.04C35,79.076,34.114,80,33.02,80h-2.04C29.886,80,29,80.849,29,81.943v0.04C29,83.076,29.886,84,30.98,84h11.04c1.094,0,1.98,0.849,1.98,1.943v0.04C44,87.076,43.114,88,42.02,88h-2.04C38.886,88,38,88.849,38,89.943v0.04C38,91.076,38.886,92,39.98,92h19.04c1.094,0,1.98,0.849,1.98,1.943v0.04C61,95.076,60.114,96,59.02,96h-3.04C54.886,96,54,96.849,54,97.943v0.04c0,1.094,0.886,2.017,1.98,2.017h11.04c1.094,0,1.98-0.924,1.98-2.017v-0.04C69,96.849,68.114,96,67.02,96h-0.04C65.886,96,65,95.076,65,93.983v-0.04C65,92.849,65.886,92,66.98,92h8.04c1.094,0,1.98-0.924,1.98-2.017v-0.04C77,88.849,76.114,88,75.02,88h-4.04C69.886,88,69,87.076,69,85.983v-0.04C69,84.849,69.886,84,70.98,84h23.04c1.094,0,1.98-0.924,1.98-2.017v-0.04C96,80.849,95.114,80,94.02,80h-9.04C83.886,80,83,79.076,83,77.983v-0.04C83,76.849,83.886,76,84.98,76h5.04c1.094,0,1.98-0.924,1.98-2.017v-0.04C92,72.849,91.114,72,90.02,72h-0.04C88.886,72,88,71.076,88,69.983v-0.04C88,68.849,88.886,68,89.98,68h5.04c1.094,0,1.98-0.924,1.98-2.017v-0.04C97,64.849,96.114,64,95.02,64h-0.04C93.886,64,93,63.076,93,61.983v-0.04C93,60.849,93.886,60,94.98,60h5.04c1.094,0,1.98-0.924,1.98-2.017v-0.04c0-1.094-0.886-1.943-1.98-1.943h-3.04C95.886,56,95,55.076,95,53.983v-0.04C95,52.849,95.886,52,96.98,52h0.04c1.094,0,1.98-0.924,1.98-2.017v-0.04C99,48.849,98.114,48,97.02,48h-2.04C93.886,48,93,47.076,93,45.983v-0.04C93,44.849,93.886,44,94.98,44h7.04c1.094,0,1.98-0.924,1.98-2.017v-0.04c0-1.094-0.886-1.943-1.98-1.943h-4.04C96.886,40,96,39.076,96,37.983v-0.04C96,36.849,96.886,36,97.98,36h8.04c1.094,0,1.98-0.924,1.98-2.017v-0.04c0-1.094-0.886-1.943-1.98-1.943H91.98C90.886,32,90,31.076,90,29.983v-0.04C90,28.849,90.886,28,91.98,28h8.04c1.094,0,1.98-0.924,1.98-2.017v-0.04c0-1.094-0.886-1.943-1.98-1.943H86.98C85.886,24,85,23.076,85,21.983v-0.04C85,20.849,85.886,20,86.98,20h2.04c1.094,0,1.98-0.924,1.98-2.017v-0.04C91,16.849,90.114,16,89.02,16H76.98C75.886,16,75,15.076,75,13.983v-0.04C75,12.849,75.886,12,76.98,12h0.04C78.114,12,79,11.076,79,9.983v-0.04C79,8.849,78.114,8,77.02,8h-4.04C71.886,8,71,7.076,71,5.983v-0.04C71,4.849,71.886,4,72.98,4h0.04C74.114,4,75,3.076,75,1.983v-0.04C75,0.849,74.114,0,73.02,0H62.98C61.886,0,61,0.849,61,1.943v0.04C61,3.076,61.886,4,62.98,4h1.04C65.114,4,66,4.849,66,5.943v0.04C66,7.076,65.114,8,64.02,8H47.98C46.886,8,46,7.076,46,5.983v-0.04C46,4.849,46.886,4,47.98,4h5.04C54.114,4,55,3.076,55,1.983v-0.04C55,0.849,54.114,0,53.02,0H37.98C36.886,0,36,0.849,36,1.943v0.04C36,3.076,36.886,4,37.98,4h1.04C40.114,4,41,4.849,41,5.943v0.04C41,7.076,40.114,8,39.02,8H27.98C26.886,8,26,8.849,26,9.943v0.04C26,11.076,26.886,12,27.98,12h0.04c1.094,0,1.98,0.849,1.98,1.943v0.04C30,15.076,29.114,16,28.02,16H16.98C15.886,16,15,16.849,15,17.943v0.04C15,19.076,15.886,20,16.98,20z"/><path style="fill:#4EB7F5;" d="M13,21.98c0-1.094-0.886-1.98-1.98-1.98H8.98C7.886,20,7,20.886,7,21.98v0.04C7,23.114,7.886,24,8.98,24h2.04c1.094,0,1.98-0.886,1.98-1.98V21.98z"/><path style="fill:#4EB7F5;" d="M22,5.98C22,4.886,21.114,4,20.02,4h-4.04C14.886,4,14,4.886,14,5.98v0.04C14,7.114,14.886,8,15.98,8h4.04C21.114,8,22,7.114,22,6.02V5.98z"/><path style="fill:#4EB7F5;" d="M16,85.98c0-1.094-0.886-1.98-1.98-1.98H8.98C7.886,84,7,84.886,7,85.98v0.04C7,87.114,7.886,88,8.98,88h5.04c1.094,0,1.98-0.886,1.98-1.98V85.98z"/><path style="fill:#4EB7F5;" d="M97,9.98C97,8.886,96.114,8,95.02,8h-2.04C91.886,8,91,8.886,91,9.98v0.04c0,1.094,0.886,1.98,1.98,1.98h2.04c1.094,0,1.98-0.886,1.98-1.98V9.98z"/><path style="fill:#4EB7F5;" d="M105,17.98c0-1.094-0.886-1.98-1.98-1.98h-1.04c-1.094,0-1.98,0.886-1.98,1.98v0.04c0,1.094,0.886,1.98,1.98,1.98h1.04c1.094,0,1.98-0.886,1.98-1.98V17.98z"/><path style="fill:#4EB7F5;" d="M105,69.98c0-1.094-0.886-1.98-1.98-1.98h-2.04C99.886,68,99,68.886,99,69.98v0.04c0,1.094,0.886,1.98,1.98,1.98h2.04c1.094,0,1.98-0.886,1.98-1.98V69.98z"/><path style="fill:#4EB7F5;" d="M31,93.98c0-1.094-0.886-1.98-1.98-1.98h-3.04C24.886,92,24,92.886,24,93.98v0.04c0,1.094,0.886,1.98,1.98,1.98h3.04c1.094,0,1.98-0.886,1.98-1.98V93.98z"/><path style="fill:#4EB7F5;" d="M6,77.98C6,76.886,5.114,76,4.02,76H1.98C0.886,76,0,76.886,0,77.98v0.04C0,79.114,0.886,80,1.98,80h2.04C5.114,80,6,79.114,6,78.02V77.98z"/><path style="fill:#4EB7F5;" d="M100,89.98c0-1.094-0.886-1.98-1.98-1.98h-4.04C92.886,88,92,88.886,92,89.98v0.04c0,1.094,0.886,1.98,1.98,1.98h4.04c1.094,0,1.98-0.886,1.98-1.98V89.98z"/></g><g><path style="fill:#EAF7FF;" d="M24.5,45c0,17.397,14.103,31.5,31.5,31.5S87.5,62.397,87.5,45c0-17.397-14.103-31.5-31.5-31.5S24.5,27.603,24.5,45z M73.004,45c0,9.391-7.613,17.005-17.004,17.005S38.996,54.391,38.996,45S46.609,27.996,56,27.996S73.004,35.609,73.004,45z"/><path style="fill:#2B81CB;" d="M63.954,60.025l10.498,10.498l0.013,0.013c0.737,0.737,1.931,0.737,2.667,0l5.111-5.111c0.737-0.737,0.737-1.931,0-2.667l-0.133-0.133L71.485,51.999C69.929,55.436,67.272,58.265,63.954,60.025z"/><path style="fill:#2B81CB;" d="M30.464,23.867c-0.737,0.737-0.737,1.931,0,2.667l0.013,0.013l10.498,10.498c1.76-3.318,4.589-5.975,8.025-7.531L38.375,18.889l-0.133-0.133c-0.737-0.737-1.931-0.737-2.667,0L30.464,23.867z"/><path style="fill:#2B81CB;" d="M40.975,52.954L30.477,63.452l-0.013,0.013c-0.737,0.737-0.737,1.931,0,2.667l5.111,5.111c0.737,0.737,1.931,0.737,2.667,0l0.133-0.133L49,60.485C45.564,58.928,42.736,56.272,40.975,52.954z"/><path style="fill:#2B81CB;" d="M74.452,19.477L63.954,29.975c3.318,1.76,5.975,4.589,7.531,8.026l10.626-10.626l0.133-0.133c0.737-0.737,0.737-1.931,0-2.667l-5.111-5.111c-0.737-0.737-1.931-0.737-2.667,0L74.452,19.477z"/></g></g></svg>