<svg xmlns="http://www.w3.org/2000/svg" xmlns:xlink="http://www.w3.org/1999/xlink" preserveAspectRatio="xMidYMid" width="51" height="51" viewBox="0 0 51 51">
  
  <g id="group-1">
    <path d="M17.313,36.519 C17.313,36.519 11.391,26.519 11.391,26.519 C11.019,25.891 11.019,25.109 11.391,24.481 C11.391,24.481 17.313,14.481 17.313,14.481 C17.673,13.873 18.327,13.500 19.034,13.500 C19.034,13.500 30.967,13.500 30.967,13.500 C31.673,13.500 32.327,13.873 32.687,14.481 C32.687,14.481 38.609,24.481 38.609,24.481 C38.981,25.109 38.981,25.891 38.609,26.519 C38.609,26.519 32.687,36.519 32.687,36.519 C32.327,37.127 31.673,37.500 30.967,37.500 C30.967,37.500 19.034,37.500 19.034,37.500 C18.327,37.500 17.673,37.127 17.313,36.519 Z" id="path-1" class="cls-5" fill-rule="evenodd"/>
  </g>
</svg>
