<svg xmlns="http://www.w3.org/2000/svg" width="26" height="23" viewBox="0 0 26 23"><path fill="#2D414F" fill-rule="evenodd" d="M21.79 17.77c3.13-2.96 4.42-6.68 4.42-6.68S22.7.65 13 .65c-2.83 0-5.12.9-6.96 2.16L2.9-.18c-.46-.44-1.19-.42-1.63.04-.44.46-.42 1.19.04 1.62l2.93 2.78C1.08 7.28-.21 11.09-.21 11.09S3.3 21.35 13 21.35c2.84 0 5.14-.89 6.98-2.13l3.12 2.96a1.146 1.146 0 0 0 1.63-.04c.44-.46.42-1.19-.04-1.62l-2.9-2.75zM12.97 5.1c3.31 0 5.99 2.68 5.99 5.99 0 1.15-.34 2.22-.9 3.13l-1.74-1.66c.18-.42.29-.89.29-1.38a3.45 3.45 0 0 0-3.45-3.45c-.56 0-1.07.14-1.54.38L9.57 6.16a5.96 5.96 0 0 1 3.4-1.06zm0 11.98c-3.31 0-5.99-2.68-5.99-5.99 0-1.21.36-2.34.99-3.29l2.05 1.96c-.19.43-.31.91-.31 1.42 0 1.91 1.54 3.45 3.45 3.45.57 0 1.1-.15 1.57-.4l1.77 1.68c-.99.73-2.21 1.17-3.53 1.17z"/></svg>