<?xml version="1.0" encoding="utf-8"?>
<svg xmlns="http://www.w3.org/2000/svg"
	xmlns:xlink="http://www.w3.org/1999/xlink"
	width="17px" height="15px" viewBox="0 0 17 15">
<path fill="rgb(203,216,226)" fill-rule="evenodd" d="M 16.96 7.97C 16.96 7.97 17.04 7.77 17.04 7.77 17.04 7.77 16.96 7.58 16.96 7.58 16.86 7.33 14.32 1.5 8.5 1.5 6.82 1.5 5.41 2 4.26 2.69 4.26 2.69 1.78 0.22 1.78 0.22 1.78 0.22 1.22 0.78 1.22 0.78 1.22 0.78 3.58 3.15 3.58 3.15 1.22 4.89 0.11 7.42 0.04 7.58 0.04 7.58-0.04 7.77-0.04 7.77-0.04 7.77 0.04 7.97 0.04 7.97 0.14 8.22 2.68 14.05 8.5 14.05 10.35 14.05 11.87 13.46 13.08 12.64 13.08 12.64 15.22 14.78 15.22 14.78 15.22 14.78 15.78 14.22 15.78 14.22 15.78 14.22 13.73 12.17 13.73 12.17 15.89 10.44 16.9 8.12 16.96 7.97ZM 8.5 13.05C 3.91 13.05 1.53 8.75 1.05 7.77 1.35 7.16 2.41 5.22 4.31 3.87 4.31 3.87 6.25 5.81 6.25 5.81 5.79 6.34 5.5 7.02 5.5 7.77 5.5 9.43 6.85 10.77 8.5 10.77 9.25 10.77 9.93 10.48 10.46 10.03 10.46 10.03 12.34 11.91 12.34 11.91 11.3 12.57 10.02 13.05 8.5 13.05ZM 10.26 8.7C 10.26 8.7 7.58 6.01 7.58 6.01 7.85 5.86 8.16 5.77 8.5 5.77 9.6 5.77 10.5 6.67 10.5 7.77 10.5 8.11 10.41 8.42 10.26 8.7ZM 9.75 9.32C 9.41 9.6 8.98 9.77 8.5 9.77 7.4 9.77 6.5 8.88 6.5 7.77 6.5 7.3 6.67 6.86 6.95 6.52 6.95 6.52 9.75 9.32 9.75 9.32ZM 13 11.44C 13 11.44 11 9.43 11 9.43 11.31 8.96 11.5 8.39 11.5 7.77 11.5 6.12 10.15 4.77 8.5 4.77 7.89 4.77 7.32 4.96 6.84 5.28 6.84 5.28 5 3.43 5 3.43 5.98 2.88 7.14 2.5 8.5 2.5 13.09 2.5 15.47 6.8 15.95 7.77 15.66 8.35 14.7 10.11 13 11.44Z"/>
</svg>