<svg xmlns="http://www.w3.org/2000/svg" width="17" height="15" viewBox="0 0 17 15"><path fill="#CBD8E2" fill-rule="evenodd" d="M16.96 7.97l.08-.2-.08-.19c-.1-.25-2.64-6.08-8.46-6.08-1.68 0-3.09.5-4.24 1.19L1.78.22l-.56.56 2.36 2.37C1.22 4.89.11 7.42.04 7.58l-.08.19.08.2c.1.25 2.64 6.08 8.46 6.08 1.85 0 3.37-.59 4.58-1.41l2.14 2.14.56-.56-2.05-2.05c2.16-1.73 3.17-4.05 3.23-4.2zM8.5 13.05c-4.59 0-6.97-4.3-7.45-5.28.3-.61 1.36-2.55 3.26-3.9l1.94 1.94c-.46.53-.75 1.21-.75 1.96 0 1.66 1.35 3 3 3 .75 0 1.43-.29 1.96-.74l1.88 1.88c-1.04.66-2.32 1.14-3.84 1.14zm1.76-4.35L7.58 6.01c.27-.15.58-.24.92-.24 1.1 0 2 .9 2 2 0 .34-.09.65-.24.93zm-.51.62c-.34.28-.77.45-1.25.45a2 2 0 0 1-2-2c0-.47.17-.91.45-1.25l2.8 2.8zM13 11.44l-2-2.01c.31-.47.5-1.04.5-1.66 0-1.65-1.35-3-3-3-.61 0-1.18.19-1.66.51L5 3.43c.98-.55 2.14-.93 3.5-.93 4.59 0 6.97 4.3 7.45 5.27-.29.58-1.25 2.34-2.95 3.67z"/></svg>