<?xml version="1.0" encoding="utf-8"?>
<svg xmlns="http://www.w3.org/2000/svg"
	xmlns:xlink="http://www.w3.org/1999/xlink"
	width="26px" height="23px" viewBox="0 0 26 23">
<path fill="rgb(45,65,79)" fill-rule="evenodd" d="M 21.79 17.77C 24.92 14.81 26.21 11.09 26.21 11.09 26.21 11.09 22.7 0.65 13 0.65 10.17 0.65 7.88 1.55 6.04 2.81 6.04 2.81 2.9-0.18 2.9-0.18 2.44-0.62 1.71-0.6 1.27-0.14 0.83 0.32 0.85 1.05 1.31 1.48 1.31 1.48 4.24 4.26 4.24 4.26 1.08 7.28-0.21 11.09-0.21 11.09-0.21 11.09 3.3 21.35 13 21.35 15.84 21.35 18.14 20.46 19.98 19.22 19.98 19.22 23.1 22.18 23.1 22.18 23.33 22.4 23.61 22.5 23.9 22.5 24.2 22.5 24.5 22.38 24.73 22.14 25.17 21.68 25.15 20.95 24.69 20.52 24.69 20.52 21.79 17.77 21.79 17.77ZM 12.97 5.1C 16.28 5.1 18.96 7.78 18.96 11.09 18.96 12.24 18.62 13.31 18.06 14.22 18.06 14.22 16.32 12.56 16.32 12.56 16.5 12.14 16.61 11.67 16.61 11.18 16.61 9.27 15.06 7.73 13.16 7.73 12.6 7.73 12.09 7.87 11.62 8.11 11.62 8.11 9.57 6.16 9.57 6.16 10.54 5.49 11.71 5.1 12.97 5.1ZM 12.97 17.08C 9.66 17.08 6.98 14.4 6.98 11.09 6.98 9.88 7.34 8.75 7.97 7.8 7.97 7.8 10.02 9.76 10.02 9.76 9.83 10.19 9.71 10.67 9.71 11.18 9.71 13.09 11.25 14.63 13.16 14.63 13.73 14.63 14.26 14.48 14.73 14.23 14.73 14.23 16.5 15.91 16.5 15.91 15.51 16.64 14.29 17.08 12.97 17.08Z"/>
</svg>