<?xml version="1.0" encoding="utf-8"?>
<svg xmlns="http://www.w3.org/2000/svg"
	xmlns:xlink="http://www.w3.org/1999/xlink"
	width="13px" height="10px" viewBox="0 0 13 10">
<path fill="rgb(119,119,119)" fill-rule="evenodd" d="M 6.5-0.5C 6.5-0.5 0 4.5 0 4.5 0 4.5 2 4.5 2 4.5 2 4.5 2 9.5 2 9.5 2 9.5 11 9.5 11 9.5 11 9.5 11 4.5 11 4.5 11 4.5 13 4.5 13 4.5 13 4.5 6.5-0.5 6.5-0.5ZM 7 8.5C 7 8.5 6 8.5 6 8.5 6 8.5 6 6.5 6 6.5 6 6.5 7 6.5 7 6.5 7 6.5 7 8.5 7 8.5ZM 10 8.5C 10 8.5 8 8.5 8 8.5 8 8.5 8 5.5 8 5.5 8 5.5 5 5.5 5 5.5 5 5.5 5 8.5 5 8.5 5 8.5 3 8.5 3 8.5 3 8.5 3 3.5 3 3.5 3 3.5 6.5 0.88 6.5 0.88 6.5 0.88 10 3.5 10 3.5 10 3.5 10 8.5 10 8.5Z"/>
</svg>