<svg xmlns="http://www.w3.org/2000/svg" xmlns:xlink="http://www.w3.org/1999/xlink" preserveAspectRatio="xMidYMid" width="49" height="42" viewBox="0 0 49 42">
  
  <g id="group-1">
    <path d="M46.500,40.000 C46.500,40.000 17.500,40.000 17.500,40.000 C16.948,40.000 16.500,39.552 16.500,39.000 C16.500,39.000 16.500,29.000 16.500,29.000 C16.500,28.448 16.948,28.000 17.500,28.000 C17.500,28.000 46.500,28.000 46.500,28.000 C47.052,28.000 47.500,28.448 47.500,29.000 C47.500,29.000 47.500,39.000 47.500,39.000 C47.500,39.552 47.052,40.000 46.500,40.000 ZM46.500,13.000 C46.500,13.000 28.500,13.000 28.500,13.000 C27.948,13.000 27.500,12.552 27.500,12.000 C27.500,12.000 27.500,2.000 27.500,2.000 C27.500,1.448 27.948,1.000 28.500,1.000 C28.500,1.000 46.500,1.000 46.500,1.000 C47.052,1.000 47.500,1.448 47.500,2.000 C47.500,2.000 47.500,12.000 47.500,12.000 C47.500,12.552 47.052,13.000 46.500,13.000 ZM24.500,13.000 C24.500,13.000 2.500,13.000 2.500,13.000 C1.948,13.000 1.500,12.552 1.500,12.000 C1.500,12.000 1.500,2.000 1.500,2.000 C1.500,1.448 1.948,1.000 2.500,1.000 C2.500,1.000 24.500,1.000 24.500,1.000 C25.052,1.000 25.500,1.448 25.500,2.000 C25.500,2.000 25.500,12.000 25.500,12.000 C25.500,12.552 25.052,13.000 24.500,13.000 ZM2.500,15.000 C2.500,15.000 13.500,15.000 13.500,15.000 C14.052,15.000 14.500,15.448 14.500,16.000 C14.500,16.000 14.500,39.000 14.500,39.000 C14.500,39.552 14.052,40.000 13.500,40.000 C13.500,40.000 2.500,40.000 2.500,40.000 C1.948,40.000 1.500,39.552 1.500,39.000 C1.500,39.000 1.500,16.000 1.500,16.000 C1.500,15.448 1.948,15.000 2.500,15.000 Z" id="path-1" class="cls-4" fill-rule="evenodd"/>
    <path d="M34.500,26.000 C34.500,26.000 17.500,26.000 17.500,26.000 C16.948,26.000 16.500,25.552 16.500,25.000 C16.500,25.000 16.500,16.000 16.500,16.000 C16.500,15.448 16.948,15.000 17.500,15.000 C17.500,15.000 34.500,15.000 34.500,15.000 C35.052,15.000 35.500,15.448 35.500,16.000 C35.500,16.000 35.500,25.000 35.500,25.000 C35.500,25.552 35.052,26.000 34.500,26.000 Z" id="path-2" class="cls-5" fill-rule="evenodd"/>
    <path d="M37.500,16.000 C37.500,16.000 37.500,25.000 37.500,25.000 C37.500,25.552 37.948,26.000 38.500,26.000 C38.500,26.000 46.500,26.000 46.500,26.000 C47.052,26.000 47.500,25.552 47.500,25.000 C47.500,25.000 47.500,16.000 47.500,16.000 C47.500,15.448 47.052,15.000 46.500,15.000 C46.500,15.000 38.500,15.000 38.500,15.000 C37.948,15.000 37.500,15.448 37.500,16.000 Z" id="path-3" class="cls-5" fill-rule="evenodd"/>
  </g>
</svg>
