<svg xmlns="http://www.w3.org/2000/svg" width="49" height="42" preserveAspectRatio="xMidYMid" viewBox="0 0 49 42"><g fill-rule="evenodd"><path d="M46.5 40h-29a1 1 0 0 1-1-1V29a1 1 0 0 1 1-1h29a1 1 0 0 1 1 1v10a1 1 0 0 1-1 1zm0-27h-18a1 1 0 0 1-1-1V2a1 1 0 0 1 1-1h18a1 1 0 0 1 1 1v10a1 1 0 0 1-1 1zm-22 0h-22a1 1 0 0 1-1-1V2a1 1 0 0 1 1-1h22a1 1 0 0 1 1 1v10a1 1 0 0 1-1 1zm-22 2h11a1 1 0 0 1 1 1v23a1 1 0 0 1-1 1h-11a1 1 0 0 1-1-1V16a1 1 0 0 1 1-1z" class="cls-4"/><path d="M34.5 26h-17a1 1 0 0 1-1-1v-9a1 1 0 0 1 1-1h17a1 1 0 0 1 1 1v9a1 1 0 0 1-1 1zM37.5 16v9a1 1 0 0 0 1 1h8a1 1 0 0 0 1-1v-9a1 1 0 0 0-1-1h-8a1 1 0 0 0-1 1z" class="cls-5"/></g></svg>