<?xml version="1.0" encoding="UTF-8" standalone="no"?>
<svg width="34px" height="34px" viewBox="0 0 34 34" version="1.1" xmlns="http://www.w3.org/2000/svg" xmlns:xlink="http://www.w3.org/1999/xlink" xmlns:sketch="http://www.bohemiancoding.com/sketch/ns">
    <!-- Generator: Sketch 3.3.2 (12043) - http://www.bohemiancoding.com/sketch -->
    <title>idea-bulb</title>
    <desc>Created with Sketch.</desc>
    <defs></defs>
    <g id="Page-1" stroke="none" stroke-width="1" fill="none" fill-rule="evenodd" sketch:type="MSPage">
        <g id="Artboard-1" sketch:type="MSArtboardGroup" fill="#2D4150">
            <g id="idea-bulb" sketch:type="MSLayerGroup" transform="translate(2.000000, 2.000000)">
                <path d="M25.2631579,12.6315789 L29.9368421,12.6315789 L29.9368421,14.2105263 L25.2631579,14.2105263 L25.2631579,12.6315789 Z" id="Fill-1" sketch:type="MSShapeGroup"></path>
                <path d="M0,12.3821053 L4.73684211,12.3821053 L4.73684211,13.9610526 L0,13.9610526 L0,12.3821053 Z" id="Fill-2" sketch:type="MSShapeGroup"></path>
                <path d="M14.2105263,0 L15.7894737,0 L15.7894737,4.73684211 L14.2105263,4.73684211 L14.2105263,0 Z" id="Fill-3" sketch:type="MSShapeGroup"></path>
                <path d="M4.63894737,3.15789474 L3.52263158,4.27421053 L6.46578947,7.21736842 L7.58210526,6.10105263 L4.63894737,3.15789474 Z" id="Fill-4" sketch:type="MSShapeGroup"></path>
                <path d="M22.2552632,21.6773684 L25.1968421,24.6205263 L26.3147368,23.5042105 L23.3715789,20.5626316 L22.2552632,21.6773684" id="Fill-5" sketch:type="MSShapeGroup"></path>
                <path d="M3.52263158,23.2547368 L4.63894737,24.3710526 L7.58210526,21.4278947 L6.46578947,20.3115789 L3.52263158,23.2547368" id="Fill-6" sketch:type="MSShapeGroup"></path>
                <path d="M26.3147368,4.52368421 L25.1968421,3.40736842 L22.2536842,6.35210526 L23.37,7.46684211 L26.3147368,4.52368421" id="Fill-7" sketch:type="MSShapeGroup"></path>
                <path d="M15,6.31578947 C8.53105263,6.31578947 6.30947368,10.5063158 6.30947368,14.2105263 C6.30947368,17.8436842 7.74789474,19.6057895 9.12315789,21.1815789 C9.83842105,22.0010526 11.0526316,22.7763158 11.0526316,23.8594737 L11.0526316,27.33 L11.3036842,27.5652632 C13.1415789,29.1805263 14.4031579,30 15.0710526,30 C15.7436842,30 16.9563158,29.1773684 18.7168421,27.5510526 L18.9473684,27.3173684 L18.9473684,23.7821053 C18.9473684,22.5805263 20.0131579,21.7673684 20.8578947,20.8294737 C22.1715789,19.3721053 23.67,17.5878947 23.67,14.2105263 C23.67,10.3294737 21.3442105,6.31578947 15,6.31578947 L15,6.31578947 Z M15.0584211,28.4021053 C14.6984211,28.2552632 13.8047368,27.6063158 12.8857895,26.8421053 L17.1410526,26.8421053 C16.2742105,27.5968421 15.4073684,28.2521053 15.0584211,28.4021053 L15.0584211,28.4021053 Z M12.6315789,23.6842105 L17.3684211,23.6842105 L17.3684211,25.2631579 L12.6315789,25.2631579 L12.6315789,23.6842105 Z M19.6878947,19.7778947 C19.0578947,20.4757895 18.4278947,21.2036842 17.9557895,22.1052632 L11.8389474,22.1052632 C11.3573684,21.3663158 10.83,20.7442105 10.3105263,20.1489474 C9.01894737,18.6678947 7.90263158,17.2547368 7.90263158,14.2105263 C7.90263158,11.0921053 9.71210526,7.89473684 15,7.89473684 C21.5052632,7.89473684 22.1052632,12.6978947 22.1052632,14.2105263 C22.1052632,16.9847368 20.9210526,18.4105263 19.6878947,19.7778947 L19.6878947,19.7778947 Z" id="Fill-8" sketch:type="MSShapeGroup"></path>
                <path d="M17.67,13.4668421 C17.2578947,13.3136842 16.7984211,13.5157895 16.6436842,13.9247368 L15,18.2605263 L13.3563158,13.8978947 C13.2015789,13.4905263 12.7405263,13.2489474 12.33,13.4021053 C11.9178947,13.5552632 11.7094737,13.9405263 11.8642105,14.3494737 L14.2531579,20.5263158 L15.7452632,20.5263158 L18.1357895,14.3463158 C18.2905263,13.9389474 18.0821053,13.62 17.67,13.4668421" id="Fill-9" sketch:type="MSShapeGroup"></path>
            </g>
        </g>
    </g>
</svg>