<svg xmlns="http://www.w3.org/2000/svg" width="34" height="34" viewBox="0 0 34 34"><g fill="#2D4150" fill-rule="evenodd"><path d="M27.263 14.632h4.674v1.58h-4.674v-1.58zM2 14.382h4.737v1.58H2v-1.58zM16.21 2h1.58v4.737h-1.58V2zM6.64 5.158L5.522 6.274l2.943 2.943L9.582 8.1 6.64 5.16zM24.255 23.677l2.942 2.944 1.118-1.116-2.943-2.94-1.117 1.113M5.523 25.255L6.64 26.37 9.58 23.43l-1.116-1.116-2.943 2.943M28.315 6.524l-1.118-1.117-2.943 2.945 1.116 1.115 2.945-2.943M17 8.316c-6.47 0-8.69 4.19-8.69 7.895 0 3.634 1.438 5.396 2.813 6.972.715.82 1.93 1.594 1.93 2.677v3.47l.25.235c1.84 1.616 3.1 2.435 3.768 2.435.674 0 1.886-.823 3.647-2.45l.23-.233v-3.535c0-1.2 1.066-2.015 1.91-2.953 1.315-1.458 2.813-3.242 2.813-6.62 0-3.88-2.326-7.894-8.67-7.894zm.058 22.086c-.36-.147-1.253-.796-2.172-1.56h4.255c-.866.755-1.733 1.41-2.082 1.56zm-2.426-4.718h4.736v1.58h-4.736v-1.58zm7.056-3.906c-.63.698-1.26 1.426-1.732 2.327H13.84c-.483-.74-1.01-1.36-1.53-1.956-1.29-1.482-2.407-2.895-2.407-5.94 0-3.118 1.81-6.315 7.097-6.315 6.505 0 7.105 4.803 7.105 6.316 0 2.775-1.184 4.2-2.417 5.568z"/><path d="M19.67 15.467a.797.797 0 0 0-1.026.458L17 20.26 15.356 15.9c-.154-.407-.615-.65-1.026-.496-.412.153-.62.54-.466.947l2.39 6.176h1.49l2.392-6.18c.155-.407-.054-.726-.466-.88"/></g></svg>