<?xml version="1.0" encoding="utf-8"?>
<svg xmlns="http://www.w3.org/2000/svg"
	xmlns:xlink="http://www.w3.org/1999/xlink"
	viewBox="0 0 70 70" width="14" height="14">
<path fill="rgb(55,153,235)" fill-rule="evenodd" d="M 62.5 67.5C 62.5 67.5 62.5 50.83 62.5 50.83 62.5 50.83 51.67 66.91 31.39 66.91 12.75 66.91-2.42 52.5-2.42 32.5-2.42 32.5 2.58 32.5 2.58 32.5 2.58 47.5 15.5 61.91 31.39 61.91 41.88 61.91 53.64 56.14 58.75 47.08 58.75 47.08 42.5 46.88 42.5 46.88 42.5 46.88 42.5 42.5 42.5 42.5 42.5 42.5 67.5 42.5 67.5 42.5 67.5 42.5 67.5 67.5 67.5 67.5 67.5 67.5 62.5 67.5 62.5 67.5ZM 33.67 3.09C 23.18 3.09 11.4 8.86 6.29 17.92 6.29 17.92 22.5 18.12 22.5 18.12 22.5 18.12 22.5 22.5 22.5 22.5 22.5 22.5-2.5 22.5-2.5 22.5-2.5 22.5-2.5-2.5-2.5-2.5-2.5-2.5 2.5-2.5 2.5-2.5 2.5-2.5 2.5 14.17 2.5 14.17 2.5 14.17 13.37-1.91 33.65-1.91 52.29-1.91 67.5 12.5 67.5 32.5 67.5 32.5 62.5 32.5 62.5 32.5 62.5 17.5 49.56 3.09 33.67 3.09Z"/>
</svg>