<?xml version="1.0" encoding="UTF-8" standalone="no"?>
<svg width="128px" height="125px" viewBox="0 0 128 125" version="1.1" xmlns="http://www.w3.org/2000/svg"
     xmlns:xlink="http://www.w3.org/1999/xlink">
    <defs>
        <filter x="-50%" y="-50%" width="200%" height="200%" filterUnits="objectBoundingBox" id="blur">
            <feGaussianBlur stdDeviation="2" in="SourceGraphic" result="blur"></feGaussianBlur>
        </filter>
    </defs>
    <g stroke="none" stroke-width="1" fill="none" fill-rule="evenodd">
        <path d="M94,122.5 C94,123.881 76.763,125 55.5,125 C34.237,125 17,123.881 17,122.5 C17,121.119 34.237,120 55.5,120 C76.763,120 94,121.119 94,122.5"
              fill="#A2DBF4"></path>
        <path d="M11,99 C7.686,99 5,96.314 5,93 L5,30 C5,26.686 7.686,24 11,24 L101,24 C104.314,24 107,26.686 107,30 L107,93 C107,96.314 104.314,99 101,99 L11,99 Z"
              fill="#FFFFFF"></path>
        <path d="M93.9644,33 L17.9644,33 C15.7554,33 14.0004,34.369 14.0004,36.579 L14.0004,85.579 C14.0004,87.788 15.7554,90 17.9644,90 L93.9644,90 C96.1734,90 98.0004,87.788 98.0004,85.579 L98.0004,36.579 C98.0004,34.369 96.1734,33 93.9644,33"
              fill="#6DD0F2"></path>
        <path d="M98,78.4822298 L77.59904,61.9055133 C75.75004,60.3839968 72.98604,60.815576 71.69104,62.8286133 L65.077,72.7867829 L38.474,50.8991234 C37.743,50.2977097 36.87,50.0129873 36,50 L36,90 L54,90 L86,90 L93.964,90 C96.173,90 98,87.7901546 98,85.5833063 L98,78.4822298 Z"
              fill="#D1EDFF"></path>
        <path d="M35.468,50.0284935 C35.352,50.0414803 35.238,50.0634581 35.123,50.0864348 C34.983,50.1154054 34.845,50.151369 34.709,50.1953245 C34.593,50.232287 34.479,50.2742445 34.366,50.321197 C34.207,50.3891281 34.051,50.4650512 33.9,50.5539611 C33.838,50.5909237 33.775,50.6258883 33.714,50.6658478 C33.522,50.7937183 33.341,50.9375725 33.171,51.1004076 C33.131,51.1383691 33.094,51.1793276 33.056,51.2182881 C32.879,51.4031009 32.71,51.5999016 32.566,51.8236749 L14,80.6754463 L14,85.5824752 C14,87.7892396 15.755,90 17.964,90 L36,90 L36,50.0005218 C35.822,49.9975249 35.645,50.0075147 35.468,50.0284935"
              fill="#3899EC"></path>
        <path d="M75,61 C73.6858813,61.0039588 72.39091,61.6205463 71.6169505,62.8022565 L65.0192871,72.7734375 L75.0192871,80.8613235 L75,61 Z"
              fill="#3899EC"></path>
        <path d="M91,44.9461 C91,47.7211 88.75,49.9711 85.975,49.9711 C83.2,49.9711 80.951,47.7211 80.951,44.9461 C80.951,42.1711 83.2,39.9211 85.975,39.9211 C88.75,39.9211 91,42.1711 91,44.9461"
              fill="#FFFFFF"></path>
        <g transform="translate(0.000000, 18.000000)">
            <path d="M55.8051758,81 L11,81 C7.686,81 5,78.314 5,75 L5,12 C5,8.686 7.686,6 11,6 L55.8095703,6 L55.8051758,81 Z"
                  fill="#FFFFFF" filter="url(#blur)"></path>
            <path d="M55.6547852,15 L17.9644,15 C15.7554,15 14.0004,16.369 14.0004,18.579 L14.0004,67.579 C14.0004,69.788 15.7554,72 17.9644,72 L55.7666016,72"
                  fill="#A2DBF4" filter="url(#blur)"></path>
            <path d="M55.9465775,47.2747136 L38.474,32.8991234 C37.743,32.2977097 36.87,32.0129873 36,32 L36,72 L55.9465771,72 L55.9465775,47.2747136 Z"
                  fill="#D1EDFF" filter="url(#blur)"></path>
            <path d="M35.468,32.0284935 C35.352,32.0414803 35.238,32.0634581 35.123,32.0864348 C34.983,32.1154054 34.845,32.151369 34.709,32.1953245 C34.593,32.232287 34.479,32.2742445 34.366,32.321197 C34.207,32.3891281 34.051,32.4650512 33.9,32.5539611 C33.838,32.5909237 33.775,32.6258883 33.714,32.6658478 C33.522,32.7937183 33.341,32.9375725 33.171,33.1004076 C33.131,33.1383691 33.094,33.1793276 33.056,33.2182881 C32.879,33.4031009 32.71,33.5999016 32.566,33.8236749 L14,62.6754463 L14,67.5824752 C14,69.7892396 15.755,72 17.964,72 L36,72 L36,32.0005218 C35.822,31.9975249 35.645,32.0075147 35.468,32.0284935"
                  fill="#6DD0F2" filter="url(#blur)"></path>
        </g>
        <path d="M100,8.5 L106.512,6.512 L108.5,0 L110.488,6.512 L117,8.5 L110.488,10.488 L108.5,17 L106.512,10.488 L100,8.5 Z"
              fill="#3899EC"></path>
        <path d="M117,21.5 L121.214,20.214 L122.5,16 L123.786,20.214 L128,21.5 L123.786,22.786 L122.5,27 L121.214,22.786 L117,21.5 Z"
              fill="#3899EC"></path>
        <path d="M113,37 L116.064,36.064 L117,33 L117.936,36.064 L121,37 L117.936,37.936 L117,41 L116.064,37.936 L113,37 Z"
              fill="#3899EC"></path>
        <path d="M56,19 L56,104" stroke="#3899EC" stroke-width="2" stroke-linecap="square"></path>
    </g>
</svg>