<?xml version="1.0" encoding="utf-8"?>
<svg xmlns="http://www.w3.org/2000/svg"
	xmlns:xlink="http://www.w3.org/1999/xlink"
	viewBox="0 0 16 16" width="16px" height="16px">
<path fill="rgb(55,153,235)" fill-rule="evenodd" d="M 12.5 12.83C 12.5 12.83 12.5 15.83 12.5 15.83 12.5 15.83 11.5 15.83 11.5 15.83 11.5 15.83 11.5 12.83 11.5 12.83 11.5 12.83 5 12.83 5 12.83 3.62 12.83 2.5 11.71 2.5 10.33 2.5 10.33 2.5 3.83 2.5 3.83 2.5 3.83-0.5 3.83-0.5 3.83-0.5 3.83-0.5 2.83-0.5 2.83-0.5 2.83 2.5 2.83 2.5 2.83 2.5 2.83 2.5-0.17 2.5-0.17 2.5-0.17 3.5-0.17 3.5-0.17 3.5-0.17 3.5 2.83 3.5 2.83 3.5 2.83 10 2.83 10 2.83 11.57 2.83 12.5 3.58 12.5 4.83 12.5 4.83 12.5 9.83 12.5 9.83 12.5 9.83 12.5 10.83 12.5 10.83 12.5 10.83 12.5 11.83 12.5 11.83 12.5 11.83 15.5 11.83 15.5 11.83 15.5 11.83 15.5 12.83 15.5 12.83 15.5 12.83 12.5 12.83 12.5 12.83ZM 11.5 10.83C 11.5 10.83 11.5 9.83 11.5 9.83 11.5 9.83 11.5 4.83 11.5 4.83 11.5 4.59 11.5 3.83 10 3.83 10 3.83 3.5 3.83 3.5 3.83 3.5 3.83 3.5 10.33 3.5 10.33 3.5 11.16 4.17 11.83 5 11.83 5 11.83 11.5 11.83 11.5 11.83 11.5 11.83 11.5 10.83 11.5 10.83Z"/>
</svg>