<?xml version="1.0" encoding="UTF-8" standalone="no"?>
<svg width="13px" height="13px" viewBox="0 0 13 13" version="1.1" xmlns="http://www.w3.org/2000/svg" xmlns:xlink="http://www.w3.org/1999/xlink" xmlns:sketch="http://www.bohemiancoding.com/sketch/ns">
    <!-- Generator: Sketch 3.4.4 (17249) - http://www.bohemiancoding.com/sketch -->
    <title>Reset</title>
    <desc>Created with Sketch.</desc>
    <defs></defs>
    <g id="Page-1" stroke="none" stroke-width="1" fill="none" fill-rule="evenodd" sketch:type="MSPage">
        <g id="Reset" sketch:type="MSLayerGroup" fill="#FFFFFF">
            <path d="M0,1.0003 L0,5.0003 L4,5.0003 L4,4.0003 L1,4.0003 L1,1.0003 L0,1.0003 Z" id="Fill-1" sketch:type="MSShapeGroup"></path>
            <path d="M6.5,0 C3.802,0 1.483,1.654 0.502,4 L1.607,4 C2.52,2.222 4.368,1 6.5,1 C9.532,1 12,3.468 12,6.5 C12,9.532 9.532,12 6.5,12 C4.796,12 3.271,11.221 2.261,10 C2.261,10 1.422,10.594 1.445,10.574 C2.637,12.051 4.458,13 6.5,13 C10.084,13 13,10.084 13,6.5 C13,2.916 10.084,0 6.5,0" id="Fill-2" sketch:type="MSShapeGroup"></path>
        </g>
    </g>
</svg>