<svg xmlns="http://www.w3.org/2000/svg" width="128" height="125" viewBox="0 0 128 125"><defs><filter id="a" width="200%" height="200%" x="-50%" y="-50%" filterUnits="objectBoundingBox"><feGaussianBlur stdDeviation="2" in="SourceGraphic" result="blur"/></filter></defs><g fill="none" fill-rule="evenodd"><path fill="#A2DBF4" d="M94 122.5c0 1.38-17.237 2.5-38.5 2.5S17 123.88 17 122.5s17.237-2.5 38.5-2.5 38.5 1.12 38.5 2.5"/><path fill="#FFF" d="M11 99a6 6 0 0 1-6-6V30a6 6 0 0 1 6-6h90a6 6 0 0 1 6 6v63a6 6 0 0 1-6 6H11z"/><path fill="#6DD0F2" d="M93.964 33h-76C15.754 33 14 34.37 14 36.58v49c0 2.208 1.755 4.42 3.964 4.42h76C96.174 90 98 87.788 98 85.58v-49c0-2.21-1.827-3.58-4.036-3.58"/><path fill="#D1EDFF" d="M98 78.482L77.6 61.906a4.002 4.002 0 0 0-5.91.923l-6.613 9.957L38.474 50.9A3.957 3.957 0 0 0 36 50v40h57.964C96.174 90 98 87.79 98 85.583v-7.1z"/><path fill="#3899EC" d="M35.468 50.028a4.074 4.074 0 0 0-.76.167 4.052 4.052 0 0 0-.81.36c-.06.037-.123.072-.184.112a3.936 3.936 0 0 0-.543.434c-.04.038-.076.08-.114.118a4.04 4.04 0 0 0-.49.606L14 80.674v4.908C14 87.79 15.755 90 17.964 90H36V50a3.947 3.947 0 0 0-.532.028M75 61c-1.314.004-2.61.62-3.383 1.802l-6.598 9.97 10 8.09L75 61z"/><path fill="#FFF" d="M91 44.946a5.025 5.025 0 1 1-10.05 0 5.025 5.025 0 0 1 10.05 0"/><path fill="#FFF" d="M55.805 81H11a6 6 0 0 1-6-6V12a6 6 0 0 1 6-6h44.81l-.005 75z" filter="url(#a)" transform="translate(0 18)"/><path fill="#A2DBF4" d="M55.655 15h-37.69C15.754 15 14 16.37 14 18.58v49c0 2.208 1.755 4.42 3.964 4.42h37.803" filter="url(#a)" transform="translate(0 18)"/><path fill="#D1EDFF" d="M55.947 47.275L38.474 32.9A3.957 3.957 0 0 0 36 32v40h19.947V47.275z" filter="url(#a)" transform="translate(0 18)"/><path fill="#6DD0F2" d="M35.468 32.028a4.074 4.074 0 0 0-.76.167 4.052 4.052 0 0 0-.81.36c-.06.037-.123.072-.184.112a3.936 3.936 0 0 0-.543.434c-.04.038-.076.08-.114.118a4.04 4.04 0 0 0-.49.606L14 62.674v4.908C14 69.79 15.755 72 17.964 72H36V32a3.947 3.947 0 0 0-.532.028" filter="url(#a)" transform="translate(0 18)"/><path fill="#3899EC" d="M100 8.5l6.512-1.988L108.5 0l1.988 6.512L117 8.5l-6.512 1.988L108.5 17l-1.988-6.512L100 8.5zM117 21.5l4.214-1.286L122.5 16l1.286 4.214L128 21.5l-4.214 1.286L122.5 27l-1.286-4.214L117 21.5zM113 37l3.064-.936L117 33l.936 3.064L121 37l-3.064.936L117 41l-.936-3.064L113 37z"/><path stroke="#3899EC" stroke-width="2" d="M56 19v85" stroke-linecap="square"/></g></svg>