<svg xmlns="http://www.w3.org/2000/svg" xmlns:xlink="http://www.w3.org/1999/xlink" preserveAspectRatio="xMidYMid" viewBox="1.5 1.5 18 18" width="18" height="18">
  <g id="infoIconSvg">
    <circle cx="10.5" cy="10.5" r="8px"></circle>
    <path d="M10.500,19.500 C5.529,19.500 1.500,15.471 1.500,10.500 C1.500,5.529 5.529,1.500 10.500,1.500 C15.471,1.500 19.500,5.529 19.500,10.500 C19.500,15.471 15.471,19.500 10.500,19.500 ZM2.500,10.500 C2.500,14.911 6.089,18.500 10.500,18.500 C14.911,18.500 18.500,14.911 18.500,10.500 C18.500,6.089 14.911,2.500 10.500,2.500 C6.089,2.500 2.500,6.089 2.500,10.500 ZM12.500,15.500 C12.500,15.500 8.500,15.500 8.500,15.500 C8.500,15.500 9.500,13.500 9.500,13.500 C9.500,13.500 9.500,13.500 9.500,13.500 C9.500,13.500 9.500,10.500 9.500,10.500 C9.500,10.500 8.500,10.500 8.500,10.500 C8.500,10.500 9.500,8.500 9.500,8.500 C9.500,8.500 11.500,8.500 11.500,8.500 C11.500,8.500 11.500,13.500 11.500,13.500 C11.500,13.500 11.500,13.500 11.500,13.500 C11.500,13.500 12.500,15.500 12.500,15.500 ZM9.500,5.500 C9.500,5.500 11.500,5.500 11.500,5.500 C11.500,5.500 11.500,7.500 11.500,7.500 C11.500,7.500 9.500,7.500 9.500,7.500 C9.500,7.500 9.500,5.500 9.500,5.500 Z" id="path-1" fill-rule="evenodd"/>
  </g>
</svg>