<?xml version="1.0" encoding="UTF-8" standalone="no"?>
<svg width="18px" height="18px" viewBox="0 0 18 18" version="1.1" xmlns="http://www.w3.org/2000/svg" xmlns:xlink="http://www.w3.org/1999/xlink" xmlns:sketch="http://www.bohemiancoding.com/sketch/ns">
    <!-- Generator: Sketch 3.3 (11970) - http://www.bohemiancoding.com/sketch -->
    <title>L_Info_Panel</title>
    <desc>Created with Sketch.</desc>
    <defs></defs>
    <g id="Page-1" stroke="none" stroke-width="1" fill="none" fill-rule="evenodd" sketch:type="MSPage">
        <path fill="#7a92a5" d="M9,0 C4.029,0 0,4.029 0,9 C0,13.971 4.029,18 9,18 C13.971,18 18,13.971 18,9 C18,4.029 13.971,0 9,0 L9,0 Z M9,17 C4.589,17 1,13.411 1,9 C1,4.589 4.589,1 9,1 C13.411,1 17,4.589 17,9 C17,13.411 13.411,17 9,17 L9,17 Z M8,6 L10,6 L10,4 L8,4 L8,6 Z M10,12 L10,7 L8,7 L7,9 L8,9 L8,12 L7,13 L7,14 L11,14 L11,13 L10,12 L10,12 Z" id="L_Info_Panel" sketch:type="MSShapeGroup"></path>
    </g>
</svg>
