<?xml version="1.0" encoding="utf-8"?>
<svg xmlns="http://www.w3.org/2000/svg"
	xmlns:xlink="http://www.w3.org/1999/xlink"
	width="14px" height="14px" viewBox="0 0 14 14">
<path fill="rgb(65,83,97)" fill-rule="evenodd" d="M 10.64 14C 10.64 14 5 14 5 14 5 14 5 6 5 6 5 6 14 6 14 6 14 6 14 10.94 14 10.94 14 12.59 12.3 14 10.64 14ZM 0 2.94C 0 1.28 0.98 0 2.64 0 2.64 0 10.64 0 10.64 0 12.3 0 14 1.28 14 2.94 14 2.94 14 4 14 4 14 4 0 4 0 4 0 4 0 2.94 0 2.94ZM 3 14C 3 14 2.64 14 2.64 14 0.98 14 0 12.59 0 10.94 0 10.94 0 6 0 6 0 6 3 6 3 6 3 6 3 14 3 14Z"/>
</svg>