<?xml version="1.0" encoding="utf-8"?><!DOCTYPE svg PUBLIC "-//W3C//DTD SVG 1.1//EN" "http://www.w3.org/Graphics/SVG/1.1/DTD/svg11.dtd"><svg version="1.1" baseProfile="full"     xmlns="http://www.w3.org/2000/svg"     xmlns:xlink="http://www.w3.org/1999/xlink"     xmlns:ev="http://www.w3.org/2001/xml-events"     height="79px" width="94px" viewBox="0 0 94 79">    <path fill="rgb( 140, 209, 249 )"          d="M92.857,62.89 C92.857,62.89 92.857,63.148 92.857,63.148 C92.857,63.148 92.7639999999999,63.148 92.7639999999999,63.148 C92.251,64.297 91.1020000000001,65.102 89.7650000000001,65.102 C89.7650000000001,65.102 57.9639999999999,65.102 57.9639999999999,65.102 C57.856,67.543 58.02,71.353 59.453,72.996 C59.953,73.57 60.2180000000001,74.159 61.0599999999999,74.159 C61.0599999999999,74.159 63.0709999999999,74.159 63.0709999999999,74.159 C63.0709999999999,74.159 63.0709999999999,78.105 63.0709999999999,78.105 C63.0709999999999,78.105 29.9450000000001,78.105 29.9450000000001,78.105 C29.9450000000001,78.105 29.9450000000001,74.159 29.9450000000001,74.159 C29.9450000000001,74.159 31.955,74.159 31.955,74.159 C32.797,74.159 33.396,73.57 33.896,72.996 C35.328,71.353 35.4930000000001,67.543 35.385,65.102 C35.385,65.102 4.25,65.102 4.25,65.102 C2.43700000000001,65.102 0.96199999999999,63.627 0.96199999999999,61.814 C0.96199999999999,61.814 0.96199999999999,3.46100000000001 0.96199999999999,3.46100000000001 C0.96199999999999,1.64800000000002 2.43700000000001,0.173 4.25,0.173 C4.25,0.173 89.7650000000001,0.173 89.7650000000001,0.173 C91.578,0.173 93.0530000000001,1.64800000000002 93.0530000000001,3.46100000000001 C93.0530000000001,3.46100000000001 93.0530000000001,61.814 93.0530000000001,61.814 C93.0530000000001,62.193 92.9760000000001,62.551 92.857,62.89 ZM55.377,74.159 C54.026,71.326 53.903,67.518 54.011,65.102 C54.011,65.102 39.338,65.102 39.338,65.102 C39.446,67.518 39.323,71.326 37.972,74.159 C37.972,74.159 55.377,74.159 55.377,74.159 ZM89.1079999999999,4.11799999999999 C89.1079999999999,4.11799999999999 4.90800000000002,4.11799999999999 4.90800000000002,4.11799999999999 C4.90800000000002,4.11799999999999 4.90800000000002,61.156 4.90800000000002,61.156 C4.90800000000002,61.156 89.1079999999999,61.156 89.1079999999999,61.156 C89.1079999999999,61.156 89.1079999999999,4.11799999999999 89.1079999999999,4.11799999999999 Z "/>    <path fill="rgb( 211, 237, 255 )"          d="M5,5.09399999999999 C5,5.09399999999999 89,5.09399999999999 89,5.09399999999999 C89,5.09399999999999 89,60.094 89,60.094 C89,60.094 5,60.094 5,60.094 C5,60.094 5,5.09399999999999 5,5.09399999999999 Z "/></svg>