<?xml version="1.0" encoding="utf-8"?><!DOCTYPE svg PUBLIC "-//W3C//DTD SVG 1.1//EN" "http://www.w3.org/Graphics/SVG/1.1/DTD/svg11.dtd"><svg version="1.1" baseProfile="full" xmlns="http://www.w3.org/2000/svg" xmlns:xlink="http://www.w3.org/1999/xlink" xmlns:ev="http://www.w3.org/2001/xml-events"   height="79px"   width="93px" viewBox="0 0 93 79"><path fill="rgb( 140, 209, 249 )" d="M92.7950000000001,62.821 C92.7950000000001,62.821 92.7950000000001,63.077 92.7950000000001,63.077 C92.7950000000001,63.077 92.703,63.077 92.703,63.077 C92.191,64.227 91.0429999999999,65.034 89.7059999999999,65.034 C89.7059999999999,65.034 57.9369999999999,65.034 57.9369999999999,65.034 C57.829,67.476 57.9939999999999,71.287 59.424,72.931 C59.924,73.505 60.1890000000001,74.094 61.03,74.094 C61.03,74.094 63.039,74.094 63.039,74.094 C63.039,74.094 63.039,78.041 63.039,78.041 C63.039,78.041 29.9459999999999,78.041 29.9459999999999,78.041 C29.9459999999999,78.041 29.9459999999999,74.094 29.9459999999999,74.094 C29.9459999999999,74.094 31.9549999999999,74.094 31.9549999999999,74.094 C32.796,74.094 33.394,73.505 33.894,72.931 C35.325,71.287 35.489,67.476 35.3810000000001,65.034 C35.3810000000001,65.034 4.27800000000002,65.034 4.27800000000002,65.034 C2.4670000000001,65.034 0.99299999999994,63.558 0.99299999999994,61.744 C0.99299999999994,61.744 0.99299999999994,3.36799999999999 0.99299999999994,3.36799999999999 C0.99299999999994,1.55500000000001 2.4670000000001,0.07900000000001 4.27800000000002,0.07900000000001 C4.27800000000002,0.07900000000001 89.7059999999999,0.07900000000001 89.7059999999999,0.07900000000001 C91.5170000000001,0.07900000000001 92.991,1.55500000000001 92.991,3.36799999999999 C92.991,3.36799999999999 92.991,61.744 92.991,61.744 C92.991,62.123 92.914,62.482 92.7950000000001,62.821 ZM55.3530000000001,74.094 C54.0029999999999,71.26 53.8800000000001,67.451 53.9880000000001,65.034 C53.9880000000001,65.034 39.3299999999999,65.034 39.3299999999999,65.034 C39.4380000000001,67.451 39.3150000000001,71.26 37.9659999999999,74.094 C37.9659999999999,74.094 55.3530000000001,74.094 55.3530000000001,74.094 ZM89.049,4.02600000000001 C89.049,4.02600000000001 4.93499999999995,4.02600000000001 4.93499999999995,4.02600000000001 C4.93499999999995,4.02600000000001 4.93499999999995,61.086 4.93499999999995,61.086 C4.93499999999995,61.086 89.049,61.086 89.049,61.086 C89.049,61.086 89.049,4.02600000000001 89.049,4.02600000000001 Z "/><path stroke="rgb( 255, 255, 255 )" stroke-width="1px" stroke-linecap="butt" stroke-linejoin="miter" fill="rgb( 211, 237, 255 )" d="M5.01299999999992,14.187 C5.01299999999992,14.187 88.9359999999999,14.187 88.9359999999999,14.187 C88.9359999999999,14.187 88.9359999999999,51.18 88.9359999999999,51.18 C88.9359999999999,51.18 5.01299999999992,51.18 5.01299999999992,51.18 C5.01299999999992,51.18 5.01299999999992,14.187 5.01299999999992,14.187 Z "/><path stroke="rgb( 255, 255, 255 )" stroke-width="1px" stroke-linecap="butt" stroke-linejoin="miter" fill="rgb( 211, 237, 255 )" d="M5.01299999999992,60.032 C5.01299999999992,60.032 5.01299999999992,50.996 5.01299999999992,50.996 C5.01299999999992,50.996 88.9359999999999,50.996 88.9359999999999,50.996 C88.9359999999999,50.996 88.9359999999999,60.032 88.9359999999999,60.032 C88.9359999999999,60.032 5.01299999999992,60.032 5.01299999999992,60.032 ZM5.01299999999992,4.99299999999999 C5.01299999999992,4.99299999999999 88.9359999999999,4.99299999999999 88.9359999999999,4.99299999999999 C88.9359999999999,4.99299999999999 88.9359999999999,13.97 88.9359999999999,13.97 C88.9359999999999,13.97 5.01299999999992,13.97 5.01299999999992,13.97 C5.01299999999992,13.97 5.01299999999992,4.99299999999999 5.01299999999992,4.99299999999999 Z "/></svg>