<svg xmlns="http://www.w3.org/2000/svg" width="93" height="79" baseProfile="full" viewBox="0 0 93 79"><path fill="#0099EF" d="M92.795 62.82v.257h-.092a3.285 3.285 0 0 1-2.997 1.957h-31.77c-.107 2.442.058 6.253 1.488 7.897.5.575.765 1.164 1.606 1.164h2.01v3.947H29.945v-3.946h2.01c.84 0 1.438-.59 1.938-1.163 1.43-1.643 1.595-5.454 1.487-7.896H4.28a3.292 3.292 0 0 1-3.285-3.29V3.368A3.29 3.29 0 0 1 4.278.078h85.428a3.29 3.29 0 0 1 3.285 3.29v58.376c0 .38-.076.738-.195 1.077zM55.353 74.095c-1.35-2.834-1.473-6.643-1.365-9.06H39.33c.108 2.417-.015 6.226-1.364 9.06h17.387zM89.05 4.026H4.934v57.06H89.05V4.026z"/><path fill="#80CCF7" stroke="#FFF" d="M5.013 14.187h83.923V51.18H5.013V14.187z"/><path fill="#FFA773" stroke="#FFF" d="M5.013 60.032v-9.036h83.923v9.036H5.013zm0-55.04h83.923v8.978H5.013V4.993z"/></svg>