<?xml version="1.0" encoding="utf-8"?><!DOCTYPE svg PUBLIC "-//W3C//DTD SVG 1.1//EN" "http://www.w3.org/Graphics/SVG/1.1/DTD/svg11.dtd"><svg version="1.1" baseProfile="full" xmlns="http://www.w3.org/2000/svg" xmlns:xlink="http://www.w3.org/1999/xlink" xmlns:ev="http://www.w3.org/2001/xml-events"   height="27px"   width="22px" viewBox="0 0 22 27"><path fill="rgb( 0, 0, 0 )" d="M19.5,5.99600000000009 C19.5,5.99600000000009 15.5,5.99600000000009 15.5,5.99600000000009 C15.5,5.99600000000009 15.5,9.98800000000006 15.5,9.98800000000006 C15.5,10.2650000000001 14.276,10.4880000000001 14,10.4880000000001 C13.724,10.4880000000001 13.5,10.2650000000001 13.5,9.98800000000006 C13.5,9.98800000000006 13.5,5.99600000000009 13.5,5.99600000000009 C13.5,5.99600000000009 15.5,5.99600000000009 15.5,5.99600000000009 C15.5,5.99600000000009 15.5,4.03700000000003 15.5,4.03700000000003 C15.529,3.68900000000008 15.563,2.40499999999997 14.625,1.34099999999989 C13.842,0.45399999999995 12.644,0.00399999999991 11.063,0.00399999999991 C9.48700000000002,0.00399999999991 8.27800000000002,0.45000000000005 7.46899999999999,1.32999999999993 C6.404,2.4860000000001 6.49000000000001,3.91300000000001 6.5,3.98800000000006 C6.5,3.98800000000006 6.5,5.99600000000009 6.5,5.99600000000009 C6.5,5.99600000000009 8.5,5.99600000000009 8.5,5.99600000000009 C8.5,5.99600000000009 8.5,9.98800000000006 8.5,9.98800000000006 C8.5,10.2650000000001 8.27600000000001,10.4880000000001 8,10.4880000000001 C7.72399999999999,10.4880000000001 6.5,10.2650000000001 6.5,9.98800000000006 C6.5,9.98800000000006 6.5,5.99600000000009 6.5,5.99600000000009 C6.5,5.99600000000009 2.5,5.99600000000009 2.5,5.99600000000009 C2.5,5.99600000000009 0.709,24.806 0.709,24.806 C0.59699999999998,25.981 1.51999999999998,26.9960000000001 2.69999999999999,26.9960000000001 C2.69999999999999,26.9960000000001 19.301,26.9960000000001 19.301,26.9960000000001 C20.48,26.9960000000001 21.403,25.981 21.291,24.806 C21.291,24.806 19.5,5.99600000000009 19.5,5.99600000000009 ZM8.5,5.99600000000009 C8.5,5.99600000000009 8.49700000000001,3.92200000000003 8.49700000000001,3.92200000000003 C8.49700000000001,3.91399999999999 8.46199999999999,3.19100000000003 8.95400000000001,2.67100000000005 C9.37099999999998,2.23000000000002 10.081,2.00500000000011 11.063,2.00500000000011 C12.034,2.00500000000011 12.725,2.22199999999998 13.113,2.65200000000004 C13.57,3.15599999999995 13.508,3.86699999999996 13.508,3.86699999999996 C13.508,3.86699999999996 13.5,5.99600000000009 13.5,5.99600000000009 C13.5,5.99600000000009 8.5,5.99600000000009 8.5,5.99600000000009 Z "/></svg>