<svg xmlns="http://www.w3.org/2000/svg" xmlns:xlink="http://www.w3.org/1999/xlink" width="51" height="51" viewBox="0 0 51 51">
  
  <g id="group-1">
    <path d="M34.500,35.000 C34.500,35.000 24.500,35.000 24.500,35.000 C23.948,35.000 23.500,34.552 23.500,34.000 C23.500,34.000 23.500,17.000 23.500,17.000 C23.500,16.448 23.948,16.000 24.500,16.000 C24.500,16.000 34.500,16.000 34.500,16.000 C35.052,16.000 35.500,16.448 35.500,17.000 C35.500,17.000 35.500,34.000 35.500,34.000 C35.500,34.552 35.052,35.000 34.500,35.000 ZM16.500,30.000 C16.500,30.000 21.500,30.000 21.500,30.000 C21.500,30.000 21.500,35.000 21.500,35.000 C21.500,35.000 16.500,35.000 16.500,35.000 C16.500,35.000 16.500,30.000 16.500,30.000 ZM16.500,23.000 C16.500,23.000 21.500,23.000 21.500,23.000 C21.500,23.000 21.500,28.000 21.500,28.000 C21.500,28.000 16.500,28.000 16.500,28.000 C16.500,28.000 16.500,23.000 16.500,23.000 ZM16.500,16.000 C16.500,16.000 21.500,16.000 21.500,16.000 C21.500,16.000 21.500,21.000 21.500,21.000 C21.500,21.000 16.500,21.000 16.500,21.000 C16.500,21.000 16.500,16.000 16.500,16.000 Z" id="path-1" class="cls-5" fill-rule="evenodd"/>
  </g>
</svg>
