<?xml version="1.0" encoding="utf-8"?><!DOCTYPE svg PUBLIC "-//W3C//DTD SVG 1.1//EN" "http://www.w3.org/Graphics/SVG/1.1/DTD/svg11.dtd"><svg version="1.1" baseProfile="full" xmlns="http://www.w3.org/2000/svg" xmlns:xlink="http://www.w3.org/1999/xlink" xmlns:ev="http://www.w3.org/2001/xml-events"   height="21px"   width="28px" viewBox="0 0 28 21"><path fill="rgb( 0, 0, 0 )" d="M21.536,7.18599999999992 C20.573,3.27199999999993 17.05,0.36599999999999 12.839,0.36599999999999 C7.88799999999998,0.36599999999999 3.87400000000002,4.38000000000011 3.87400000000002,9.3309999999999 C3.87400000000002,10.624 4.15199999999999,11.8489999999999 4.64400000000001,12.9590000000001 C4.43099999999998,12.924 4.21699999999998,12.893 3.99299999999999,12.893 C1.78800000000001,12.893 0,14.558 0,16.7639999999999 C0,18.9690000000001 1.78800000000001,20.634 3.99299999999999,20.634 C5.14400000000001,20.634 8.63999999999999,20.634 12.64,20.634 C12.64,20.634 12.64,11.4659999999999 12.64,11.4659999999999 C12.64,11.4659999999999 10.109,13.6089999999999 10.109,13.6089999999999 C9.709,13.99 8.93700000000001,14.4059999999999 8.33699999999999,13.9259999999999 C7.89999999999998,13.576 8.47399999999999,12.3689999999999 8.661,12.155 C8.661,12.155 13.64,7.63400000000001 13.64,7.63400000000001 C13.64,7.63400000000001 18.633,12.165 18.633,12.165 C19.034,12.5440000000001 19.057,13.1769999999999 18.677,13.578 C18.48,13.7860000000001 18.219,13.8900000000001 17.954,13.8900000000001 C17.707,13.8900000000001 17.281,13.799 17.087,13.616 C17.087,13.616 14.64,11.4659999999999 14.64,11.4659999999999 C14.64,11.4659999999999 14.64,20.634 14.64,20.634 C17.64,20.634 20.233,20.634 21.143,20.634 C24.93,20.634 28,17.6869999999999 28,13.9000000000001 C28,10.2460000000001 25.139,7.3900000000001 21.536,7.18599999999992 Z "/></svg>