<svg xmlns="http://www.w3.org/2000/svg" width="28" height="27" baseProfile="full" viewBox="0 0 28 27"><path d="M19.5 22v5l-6.667-5H8.5a8 8 0 0 1-8-8V8a8 8 0 0 1 8-8h11a8 8 0 0 1 8 8v6a8 8 0 0 1-8 8zm-1.117-10.505c-.303-.443-.763-.754-1.38-.93.44-.215.775-.493 1.01-.834.232-.34.35-.757.35-1.252 0-.466-.078-.86-.232-1.176a1.933 1.933 0 0 0-.65-.763 2.83 2.83 0 0 0-1.008-.414A6.225 6.225 0 0 0 15.17 6H10.5v10h4.81c.448 0 .884-.058 1.31-.17a3.503 3.503 0 0 0 1.133-.52 2.56 2.56 0 0 0 .79-.903c.197-.37.295-.804.295-1.31 0-.624-.152-1.16-.455-1.602zm-2.233 2.448c-.15.098-.65.057-.65.057h-.484H12.5v-2h2.558c.476 0 .86-.127 1.148.092.29.22.434.35.434.862 0 .26-.044.458-.133.626a.958.958 0 0 1-.357.363zm-.294-4.2c-.252.187-.574.257-.966.257H12.5V8h2.222c.196 0 .596-.032.778 0 .182.033.524.127.608.276.084.15.392.49.392.724 0 .42-.392.556-.644.743z"/></svg>