<svg xmlns="http://www.w3.org/2000/svg" width="22" height="27" baseProfile="full" viewBox="0 0 22 27"><path d="M19.5 5.996h-4v3.992c0 .277-1.224.5-1.5.5a.5.5 0 0 1-.5-.5V5.996h2v-1.96c.03-.347.063-1.63-.875-2.695-.783-.886-1.98-1.336-3.562-1.336C9.487.004 8.278.45 7.47 1.33c-1.066 1.156-.98 2.583-.97 2.658v2.008h2v3.992a.5.5 0 0 1-.5.5c-.276 0-1.5-.223-1.5-.5V5.996h-4L.71 24.806a2 2 0 0 0 1.99 2.19h16.6a2 2 0 0 0 1.99-2.19L19.5 5.996zm-11 0l-.003-2.074c0-.008-.035-.73.457-1.25.417-.442 1.127-.667 2.11-.667.97 0 1.66.217 2.05.647.456.504.394 1.215.394 1.215l-.008 2.13h-5z"/></svg>