<?xml version="1.0" encoding="utf-8"?><!DOCTYPE svg PUBLIC "-//W3C//DTD SVG 1.1//EN" "http://www.w3.org/Graphics/SVG/1.1/DTD/svg11.dtd"><svg version="1.1" baseProfile="full" xmlns="http://www.w3.org/2000/svg" xmlns:xlink="http://www.w3.org/1999/xlink" xmlns:ev="http://www.w3.org/2001/xml-events"   height="23px"   width="24px" viewBox="0 0 24 23"><path fill="rgb( 0, 0, 0 )" d="M2.5,0 C2.5,0 21.5,0 21.5,0 C21.5,0 24,6 24,6 C24,6 0,6 0,6 C0,6 2.5,0 2.5,0 ZM21,10 C19.343,10 18,9 18,7 C18,7 24,7 24,7 C24,9 22.657,10 21,10 ZM15,10 C13.343,10 12,9 12,7 C12,7 18,7 18,7 C18,9 16.657,10 15,10 ZM9,10 C7.34299999999999,10 6,9 6,7 C6,7 12,7 12,7 C12,9 10.657,10 9,10 ZM3,10 C1.34299999999999,10 0,9 0,7 C0,7 6,7 6,7 C6,9 4.65700000000001,10 3,10 ZM5.5,17 C5.5,17 18.5,17 18.5,17 C18.5,17 18.5,11 18.5,11 C18.5,11 22.5,11 22.5,11 C22.5,11 22.5,20 22.5,20 C22.5,21.6569999999999 21.157,23 19.5,23 C19.5,23 4.5,23 4.5,23 C2.84299999999999,23 1.5,21.6569999999999 1.5,20 C1.5,20 1.5,11 1.5,11 C1.5,11 5.5,11 5.5,11 C5.5,11 5.5,17 5.5,17 Z "/></svg>