<?xml version="1.0" encoding="utf-8"?><!DOCTYPE svg PUBLIC "-//W3C//DTD SVG 1.1//EN" "http://www.w3.org/Graphics/SVG/1.1/DTD/svg11.dtd"><svg version="1.1" baseProfile="full" xmlns="http://www.w3.org/2000/svg" xmlns:xlink="http://www.w3.org/1999/xlink" xmlns:ev="http://www.w3.org/2001/xml-events"   height="25px"   width="26px" viewBox="0 0 26 25"><path fill="rgb( 0, 0, 0 )" d="M12.99,0 C6.18899999999999,0 0.50999999999999,5.67800000000011 0.50999999999999,12.479 C0.50999999999999,19.28 6.18899999999999,25 12.99,25 C19.79,25 25.49,19.3009999999999 25.49,12.5 C25.49,5.69900000000007 19.79,0 12.99,0 ZM19.666,14 C19.666,14 14.666,14 14.666,14 C14.666,14 14.666,19 14.666,19 C14.666,19 11.666,19 11.666,19 C11.666,19 11.666,14 11.666,14 C11.666,14 6.666,14 6.666,14 C6.666,14 6.666,11 6.666,11 C6.666,11 11.666,11 11.666,11 C11.666,11 11.666,6 11.666,6 C11.666,6 14.666,6 14.666,6 C14.666,6 14.666,11 14.666,11 C14.666,11 19.666,11 19.666,11 C19.666,11 19.666,14 19.666,14 Z "/></svg>