<?xml version="1.0" encoding="utf-8"?><!DOCTYPE svg PUBLIC "-//W3C//DTD SVG 1.1//EN" "http://www.w3.org/Graphics/SVG/1.1/DTD/svg11.dtd"><svg version="1.1" baseProfile="full" xmlns="http://www.w3.org/2000/svg" xmlns:xlink="http://www.w3.org/1999/xlink" xmlns:ev="http://www.w3.org/2001/xml-events"   height="25px"   width="25px" viewBox="0 0 25 25"><path fill="rgb( 0, 0, 0 )" d="M19.5,5.5 C19.5,5.5 19.5,19.5 19.5,19.5 C19.5,19.5 5.5,19.5 5.5,19.5 C5.5,19.5 5.5,5.5 5.5,5.5 C5.5,5.5 19.5,5.5 19.5,5.5 M19.5,0.5 C19.5,0.5 5.5,0.5 5.5,0.5 C2.739,0.5 0.5,2.73800000000006 0.5,5.5 C0.5,5.5 0.5,19.5 0.5,19.5 C0.5,22.2619999999999 2.739,24.5 5.5,24.5 C5.5,24.5 19.5,24.5 19.5,24.5 C22.261,24.5 24.5,22.2619999999999 24.5,19.5 C24.5,19.5 24.5,5.5 24.5,5.5 C24.5,2.73800000000006 22.261,0.5 19.5,0.5 C19.5,0.5 19.5,0.5 19.5,0.5 Z "/></svg>