<svg xmlns="http://www.w3.org/2000/svg" width="28" height="21" baseProfile="full" viewBox="0 0 28 21"><path d="M21.536 7.186C20.573 3.272 17.05.366 12.84.366A8.965 8.965 0 0 0 3.873 9.33c0 1.294.278 2.52.77 3.63a3.978 3.978 0 0 0-.65-.067C1.787 12.893 0 14.558 0 16.763c0 2.206 1.788 3.87 3.993 3.87h8.647v-9.167l-2.53 2.143c-.4.38-1.173.796-1.773.316-.437-.35.137-1.557.324-1.77l4.98-4.522 4.993 4.53a1 1 0 0 1 .044 1.414.99.99 0 0 1-.723.312c-.247 0-.673-.09-.867-.274l-2.447-2.15v9.168h6.503C24.93 20.634 28 17.687 28 13.9c0-3.654-2.86-6.51-6.464-6.714z"/></svg>