<?xml version="1.0" encoding="utf-8"?><!DOCTYPE svg PUBLIC "-//W3C//DTD SVG 1.1//EN" "http://www.w3.org/Graphics/SVG/1.1/DTD/svg11.dtd"><svg version="1.1" baseProfile="full" xmlns="http://www.w3.org/2000/svg" xmlns:xlink="http://www.w3.org/1999/xlink" xmlns:ev="http://www.w3.org/2001/xml-events"   height="27px"   width="28px" viewBox="0 0 28 27"><path fill="rgb( 0, 0, 0 )" d="M19.5,22 C19.5,22 19.5,27 19.5,27 C19.5,27 12.833,22 12.833,22 C12.833,22 8.5,22 8.5,22 C4.08199999999999,22 0.5,18.4179999999999 0.5,14 C0.5,14 0.5,8 0.5,8 C0.5,3.58200000000011 4.08199999999999,0 8.5,0 C8.5,0 19.5,0 19.5,0 C23.918,0 27.5,3.58200000000011 27.5,8 C27.5,8 27.5,14 27.5,14 C27.5,18.4179999999999 23.918,22 19.5,22 ZM18.383,11.4949999999999 C18.08,11.0519999999999 17.62,10.741 17.004,10.5640000000001 C17.442,10.3499999999999 17.778,10.0719999999999 18.012,9.73099999999999 C18.245,9.39100000000008 18.362,8.97299999999996 18.362,8.47800000000007 C18.362,8.01199999999994 18.285,7.61899999999991 18.131,7.30199999999991 C17.977,6.9849999999999 17.76,6.73099999999999 17.481,6.53899999999999 C17.2,6.34799999999996 16.864,6.21000000000004 16.472,6.12599999999998 C16.08,6.04199999999992 15.646,6 15.17,6 C15.17,6 10.5,6 10.5,6 C10.5,6 10.5,16 10.5,16 C10.5,16 15.31,16 15.31,16 C15.758,16 16.194,15.942 16.619,15.8299999999999 C17.044,15.7180000000001 17.422,15.5440000000001 17.753,15.3109999999999 C18.084,15.077 18.348,14.7760000000001 18.544,14.4069999999999 C18.74,14.038 18.838,13.6030000000001 18.838,13.098 C18.838,12.473 18.686,11.9380000000001 18.383,11.4949999999999 ZM16.15,13.943 C16.001,14.0409999999999 15.5,14 15.5,14 C15.5,14 15.231,14 15.016,14 C15.016,14 12.5,14 12.5,14 C12.5,14 12.5,12 12.5,12 C12.5,12 15.058,12 15.058,12 C15.534,12 15.917,11.873 16.206,12.0920000000001 C16.495,12.3119999999999 16.64,12.441 16.64,12.954 C16.64,13.2149999999999 16.596,13.412 16.507,13.5799999999999 C16.418,13.748 16.299,13.845 16.15,13.943 ZM15.856,9.74299999999994 C15.604,9.93000000000006 15.282,10 14.89,10 C14.89,10 12.5,10 12.5,10 C12.5,10 12.5,8 12.5,8 C12.5,8 14.722,8 14.722,8 C14.918,8 15.318,7.96800000000007 15.5,8 C15.682,8.0329999999999 16.024,8.12699999999995 16.108,8.27600000000007 C16.192,8.42599999999993 16.5,8.76700000000005 16.5,9 C16.5,9.42000000000007 16.108,9.55600000000004 15.856,9.74299999999994 Z "/></svg>