<svg xmlns="http://www.w3.org/2000/svg" width="105" height="94" class="symbol-link-panel-top-clipart" viewBox="0 0 105 94"><path fill="#D3EDFF" d="M0 26.662v55.333c0 2.2 1.8 4 4 4h97c2.2 0 4-1.8 4-4V26.662H0z"/><path fill="#5FCEF5" d="M105 4c0-2.2-1.8-4-4-4H4C1.8 0 0 1.8 0 4v10.667h105V4z"/><circle cx="8" cy="6" r="2" fill="#FFF"/><circle cx="14" cy="6" r="2" fill="#FFF"/><path fill="#A7E3FA" d="M0 14.667h105v12H0z"/><path fill="#FFF" d="M98 8H19c-.55 0-1-.45-1-1V5c0-.55.45-1 1-1h79c.55 0 1 .45 1 1v2c0 .55-.45 1-1 1z"/><path fill="#4EB7F5" d="M80 55.666c0 1.112.79 2.013 1.765 2.013h1.47c.976 0 1.766-.902 1.766-2.014h-5zM80 59.673c0 1.112.79 2.013 1.765 2.013h1.47c.976 0 1.766-.9 1.766-2.013h-5z"/><path fill="#7FCCF7" d="M80 63.686c0 1.112.79 2.013 1.765 2.013h1.47c.976 0 1.766-.902 1.766-2.014h-5z" opacity=".5"/><path fill="#3899EC" d="M92.267 41.4L84.27 33.4a2.544 2.544 0 0 0-.385-.315c-.057-.038-.118-.063-.177-.096-.083-.045-.164-.095-.253-.132-.08-.033-.162-.05-.244-.076-.073-.022-.144-.05-.22-.066a2.52 2.52 0 0 0-.98 0c-.077.015-.147.044-.22.066-.083.024-.166.043-.246.076-.09.037-.17.086-.252.133-.06.034-.12.06-.178.098a2.474 2.474 0 0 0-.385.315L72.73 41.4a2.498 2.498 0 0 0 0 3.535c.977.977 2.56.977 3.535 0L80 41.202v9.965a2.5 2.5 0 0 0 5 0v-9.965l3.732 3.732c.488.488 1.128.732 1.768.732s1.28-.244 1.768-.732a2.5 2.5 0 0 0 0-3.535z"/><ellipse cx="52.5" cy="92.002" fill="#D3EDFF" rx="40.759" ry="1.998"/></svg>