<svg xmlns="http://www.w3.org/2000/svg" width="105" height="94" class="symbol-link-panel-bottom-clipart" viewBox="0 0 105 94"><path fill="#5FCEF5" d="M105 4c0-2.2-1.8-4-4-4H4C1.8 0 0 1.8 0 4v10.667h105V4z"/><ellipse cx="52.5" cy="92.002" fill="#D3EDFF" rx="40.759" ry="1.998"/><circle cx="8" cy="6" r="2" fill="#FFF"/><circle cx="14" cy="6" r="2" fill="#FFF"/><path fill="#FFF" d="M98 8H19c-.55 0-1-.45-1-1V5c0-.55.45-1 1-1h79c.55 0 1 .45 1 1v2c0 .55-.45 1-1 1z"/><path fill="#A7E3FA" d="M0 81.995c0 2.2 1.8 4 4 4h97c2.2 0 4-1.8 4-4v-8H0v8z"/><path fill="#D3EDFF" d="M0 14.667h105v59.328H0z"/><path fill="#4EB7F5" d="M85 45.193c0-1.112-.79-2.013-1.765-2.013h-1.47c-.975 0-1.765.9-1.765 2.013h5zM85 41.186c0-1.112-.79-2.013-1.765-2.013h-1.47c-.976 0-1.766.9-1.766 2.013h5z"/><path fill="#7FCCF7" d="M85 37.173c0-1.112-.79-2.013-1.765-2.013h-1.47c-.975 0-1.765.9-1.765 2.013h5z" opacity=".5"/><path fill="#3899EC" d="M72.732 59.46l7.997 7.997c.116.117.245.222.384.315.057.038.118.063.177.096.084.046.165.096.254.133.08.034.162.052.244.077.074.022.145.05.222.066.323.064.656.064.98 0 .076-.015.146-.044.22-.066.082-.024.165-.043.245-.076.09-.036.17-.085.252-.132.06-.033.12-.06.178-.097.138-.09.268-.196.385-.314l7.997-7.997a2.498 2.498 0 0 0 0-3.536 2.498 2.498 0 0 0-3.535 0L85 59.657v-9.965a2.5 2.5 0 0 0-5 0v9.965l-3.732-3.732c-.488-.488-1.128-.732-1.768-.732s-1.28.244-1.768.732a2.5 2.5 0 0 0 0 3.535z"/></svg>