<svg xmlns="http://www.w3.org/2000/svg" width="16" height="16" viewBox="0 0 16 16"><path fill="#2B3F4F" fill-rule="evenodd" d="M14.59 6.92l-3.29 3.29c-.75.75-1.73 1.16-2.76 1.16-1.03 0-2.01-.41-2.76-1.16-.2-.2-.31-.47-.31-.76 0-.29.11-.56.31-.77.41-.4 1.12-.4 1.53 0 .34.34.78.53 1.23.53.45 0 .89-.19 1.23-.53l3.29-3.28c.71-.72.73-1.82.04-2.51-.32-.32-.75-.5-1.21-.5-.48 0-.94.19-1.29.55l-.88.88c-.41.41-1.12.41-1.53 0-.2-.21-.31-.48-.31-.77 0-.29.11-.56.31-.76l.88-.88A3.97 3.97 0 0 1 11.89.22c1.03 0 2 .41 2.74 1.15 1.55 1.54 1.53 3.98-.04 5.55zm-4.42.43c-.41.41-1.12.41-1.53 0-.35-.35-.79-.54-1.24-.54-.43 0-.85.18-1.18.51L2.94 10.6c-.35.35-.55.8-.56 1.27 0 .47.18.9.51 1.24.32.32.76.5 1.21.5.48 0 .94-.19 1.29-.55l.81-.81c.41-.4 1.12-.4 1.53 0 .42.43.42 1.11 0 1.53l-.81.81a3.97 3.97 0 0 1-2.82 1.19c-1.03 0-2-.41-2.74-1.15a3.86 3.86 0 0 1-1.14-2.79c.02-1.04.44-2.02 1.19-2.76l3.28-3.29c.75-.74 1.71-1.15 2.71-1.15 1.02 0 2.01.42 2.77 1.18.42.43.42 1.11 0 1.53z"/></svg>