<svg width="24px" height="24px" viewBox="0 0 24 24" version="1.1" xmlns="http://www.w3.org/2000/svg" xmlns:xlink="http://www.w3.org/1999/xlink">
    <path d="M17.0999619,6.90003811 C15.8487306,5.64880678 13.9026131,5.70880479 12.5739298,7.03857898 L11.6870501,7.92545873 L12.2924846,8.53089325 L13.1782734,7.6440135 C14.1796949,6.64259208 15.5738306,6.58477581 16.4956182,7.50547263 C17.4163151,8.42507857 17.3574079,9.82030514 16.3559865,10.8217266 L14.6618607,12.5169432 C14.1840584,12.9936547 13.58626,13.2740091 12.9786437,13.3045535 C12.357937,13.3307345 11.7928647,13.1136507 11.3401524,12.6609384 L10.7347179,13.2652821 C11.3172441,13.8478083 12.0688556,14.1630706 12.8662838,14.1630706 C12.9186457,14.1630706 12.9699167,14.1630706 13.0222786,14.1597979 C13.8426151,14.1172539 14.6400433,13.7485388 15.2662044,13.1212868 L16.961421,11.4271611 C18.2911952,10.096296 18.3511932,8.15017857 17.0999619,6.90003811 L17.0999619,6.90003811 Z M10.8219878,16.3557253 C10.3452763,16.8324368 9.7496596,17.1106094 9.14313422,17.1411539 C8.53988145,17.1815162 7.95953701,16.9480693 7.50573384,16.4942662 C7.05193067,16.040463 6.82830171,15.4753908 6.85884615,14.8568658 C6.88939059,14.2514313 7.16865408,13.6547237 7.64427471,13.1780122 L9.33949136,11.4827956 C10.3354584,10.4857377 11.7295941,10.4290123 12.6502909,11.3497091 L13.2557254,10.7453654 C12.0034032,9.49413411 10.0594675,9.55085951 8.73405684,10.8784519 L7.03993107,12.5725777 C6.41158822,13.1998297 6.04396402,13.996167 6.00360172,14.8154126 C5.96214854,15.6684753 6.27959259,16.4789939 6.90029932,17.0997007 C7.50137035,17.7007717 8.26389058,17.9996709 9.04059215,17.9996709 C9.87947349,17.9996709 10.7368997,17.6516824 11.4274223,16.9611598 L12.2924846,16.0950066 L11.6870501,15.490663 L10.8219878,16.3557253 Z"></path>
</svg>