<svg xmlns="http://www.w3.org/2000/svg" width="17" height="8" viewBox="0 0 17 8"><path fill="#FFF" fill-rule="evenodd" d="M14.5 7.68h-3c-1.38 0-2.5-1.1-2.5-2.45V5H8v.23c0 1.35-1.12 2.45-2.5 2.45h-3C1.12 7.68 0 6.58 0 5.23V3.09C0 1.74 1.12.64 2.5.64h3c1.35 0 2.45 1.05 2.49 2.37h1.02C9.05 1.69 10.15.64 11.5.64h3c1.38 0 2.5 1.1 2.5 2.45v2.14c0 1.35-1.12 2.45-2.5 2.45zM6.5 5H5c-.55 0-1-.45-1-1s.45-.99 1-.99h1.48c-.04-.5-.46-.9-.98-.9h-3c-.55 0-1 .44-1 .98v2.14c0 .54.45.98 1 .98h3c.55 0 1-.44 1-.98V5zm9-1.91c0-.54-.45-.98-1-.98h-3c-.52 0-.94.4-.98.9H12c.55 0 1 .44 1 .99s-.45 1-1 1h-1.5v.23c0 .54.45.98 1 .98h3c.55 0 1-.44 1-.98V3.09z"/></svg>