<?xml version="1.0" encoding="utf-8"?>
<svg xmlns="http://www.w3.org/2000/svg"
	xmlns:xlink="http://www.w3.org/1999/xlink"
	width="16px" height="16px" viewBox="0 0 16 16">
<path fill="rgb(43,63,79)" fill-rule="evenodd" d="M 14.59 6.92C 14.59 6.92 11.3 10.21 11.3 10.21 10.55 10.96 9.57 11.37 8.54 11.37 7.51 11.37 6.53 10.96 5.78 10.21 5.58 10.01 5.47 9.74 5.47 9.45 5.47 9.16 5.58 8.89 5.78 8.68 6.19 8.28 6.9 8.28 7.31 8.68 7.65 9.02 8.09 9.21 8.54 9.21 8.99 9.21 9.43 9.02 9.77 8.68 9.77 8.68 13.06 5.4 13.06 5.4 13.77 4.68 13.79 3.58 13.1 2.89 12.78 2.57 12.35 2.39 11.89 2.39 11.41 2.39 10.95 2.58 10.6 2.94 10.6 2.94 9.72 3.82 9.72 3.82 9.31 4.23 8.6 4.23 8.19 3.82 7.99 3.61 7.88 3.34 7.88 3.05 7.88 2.76 7.99 2.49 8.19 2.29 8.19 2.29 9.07 1.41 9.07 1.41 9.84 0.64 10.84 0.22 11.89 0.22 12.92 0.22 13.89 0.63 14.63 1.37 16.18 2.91 16.16 5.35 14.59 6.92ZM 10.17 7.35C 9.76 7.76 9.05 7.76 8.64 7.35 8.29 7 7.85 6.81 7.4 6.81 6.97 6.81 6.55 6.99 6.22 7.32 6.22 7.32 2.94 10.6 2.94 10.6 2.59 10.95 2.39 11.4 2.38 11.87 2.38 12.34 2.56 12.77 2.89 13.11 3.21 13.43 3.65 13.61 4.1 13.61 4.58 13.61 5.04 13.42 5.39 13.06 5.39 13.06 6.2 12.25 6.2 12.25 6.61 11.85 7.32 11.85 7.73 12.25 8.15 12.68 8.15 13.36 7.73 13.78 7.73 13.78 6.92 14.59 6.92 14.59 6.15 15.36 5.15 15.78 4.1 15.78 3.07 15.78 2.1 15.37 1.36 14.63 0.61 13.88 0.21 12.89 0.22 11.84 0.24 10.8 0.66 9.82 1.41 9.08 1.41 9.08 4.69 5.79 4.69 5.79 5.44 5.05 6.4 4.64 7.4 4.64 8.42 4.64 9.41 5.06 10.17 5.82 10.59 6.25 10.59 6.93 10.17 7.35Z"/>
</svg>