<svg xmlns="http://www.w3.org/2000/svg" width="24" height="24" viewBox="0 0 24 24"><path d="M17.1 6.9c-1.25-1.25-3.197-1.19-4.526.14l-.887.885.605.606.886-.886c1.002-1 2.396-1.06 3.318-.14.92.92.86 2.316-.14 3.318l-1.694 1.695c-.478.477-1.076.757-1.683.788a2.132 2.132 0 0 1-1.64-.644l-.605.605a2.99 2.99 0 0 0 2.13.898c.054 0 .105 0 .157-.003.82-.043 1.618-.41 2.244-1.04l1.695-1.693c1.33-1.33 1.39-3.277.14-4.527zm-6.278 9.456c-.477.476-1.072.755-1.68.785-.602.042-1.182-.192-1.636-.646-.454-.454-.678-1.02-.647-1.637.03-.606.31-1.202.784-1.68l1.695-1.694c.995-.997 2.39-1.054 3.31-.133l.606-.605c-1.253-1.25-3.197-1.194-4.522.133L7.04 12.573c-.628.627-.996 1.423-1.036 2.242-.042.853.276 1.664.896 2.285.6.6 1.364.9 2.14.9.84 0 1.697-.348 2.387-1.04l.865-.865-.605-.604-.865.866z"/></svg>