<svg class="symbol-link-panel-none-clipart" version="1.1" xmlns="http://www.w3.org/2000/svg" xmlns:xlink="http://www.w3.org/1999/xlink" width="219px" height="41px" viewBox="0 0 219 41">
  <path fill="#D3EDFF" d="M62.59,9.78c0.217-1.021,0.617-1.956,1.143-2.793c-5.682-1.013-13.393-1.945-19.313-1.945
                          C20.627,5.041,3.26,15.14,3.26,15.14c-1.938,1.162-3.9,3.087-3.06,4.877c0.861,1.836,2.984,2.314,4.839,1.288
                          c0,0,13.772-9.991,39.383-9.991c6.606,0,12.703,0.737,18.125,1.825C62.347,12.056,62.348,10.92,62.59,9.78z"/>
  <path fill="#5FCEF5" d="M72.146,19.686l3.207-15.059c0.071-0.335,0.177-0.655,0.31-0.957l-2.753-0.586
                          C68.231,2.087,63.587,5.1,62.59,9.78c-0.997,4.679,2.017,9.324,6.696,10.32l2.753,0.586
                          C72.041,20.356,72.075,20.021,72.146,19.686z M69.182,13.939c-1.455-0.31-2.384-1.741-2.074-3.197
                          c0.31-1.455,1.741-2.384,3.197-2.074c1.455,0.31,2.384,1.741,2.074,3.197C72.069,13.32,70.637,14.249,69.182,13.939z"/>
  <path fill="#3899EC" d="M94.597,3.852l-5.196,24.397c-0.365,1.712-2.063,2.814-3.775,2.449l-0.035-0.007
                          c-1.712-0.365-2.814-2.063-2.449-3.775l5.196-24.397c0.365-1.712,2.063-2.814,3.775-2.449l0.035,0.007
                          C93.859,0.442,94.961,2.14,94.597,3.852z"/>
  <path fill="#D9E1E8" d="M100.831,9.112l-7.035-1.498l-0.957,4.492l7.035,1.498c1.235,0.263,2.461-0.532,2.725-1.768v0
                          C102.862,10.601,102.066,9.375,100.831,9.112z"/>
  <path fill="#D9E1E8" d="M97.153,26.379c1.235,0.263,2.461-0.532,2.725-1.768c0.263-1.235-0.532-2.462-1.768-2.725l-7.035-1.498
                          l-0.957,4.492L97.153,26.379z"/>
  <path fill="#4EB7F5" d="M83.137,26.951c0.002-0.012,0.001-0.023,0.004-0.035l5.196-24.397c0.003-0.016,0.011-0.03,0.015-0.046
                          c-0.309-0.138-0.635-0.25-0.98-0.323l-6.174-1.315c-2.65-0.565-5.281,1.142-5.845,3.792l-3.207,15.059
                          c-0.565,2.65,1.142,5.281,3.792,5.845l6.174,1.315C82.456,26.919,82.799,26.951,83.137,26.951z"/>
  <path fill="#D3EDFF" d="M218.26,20.375c-0.861-1.836-2.984-2.314-4.839-1.288c0,0-13.772,9.991-39.383,9.991
                          c-5.618,0-10.865-0.535-15.647-1.363c0.109,0.89,0.086,1.81-0.098,2.735c-0.245,1.233-0.749,2.35-1.436,3.316
                          c5.38,0.864,11.972,1.586,17.18,1.586c23.794,0,41.161-10.099,41.161-10.099C217.138,24.091,219.099,22.166,218.26,20.375z"/>
  <path fill="#5FCEF5" d="M151.459,20.221l-2.761-0.549c0.003,0.33-0.026,0.666-0.093,1.002l-3.004,15.1
                          c-0.067,0.336-0.168,0.657-0.297,0.961l2.761,0.549c4.693,0.934,9.296-2.142,10.229-6.834
                          C159.227,25.758,156.152,21.155,151.459,20.221z M153.763,29.549c-0.29,1.459-1.709,2.407-3.168,2.117s-2.407-1.709-2.117-3.168
                          c0.29-1.459,1.709-2.407,3.168-2.117S154.054,28.089,153.763,29.549z"/>
  <path fill="#3899EC" d="M132.766,11.209l-5.268,26.481c-0.275,1.383,0.631,2.74,2.014,3.015l0,0
                          c1.383,0.275,2.74-0.631,3.015-2.014l5.268-26.481c0.275-1.383-0.631-2.74-2.014-3.015v0
                          C134.397,8.92,133.041,9.826,132.766,11.209z"/>
  <path fill="#4EB7F5" d="M144.734,14.88l-6.191-1.232c-0.341-0.068-0.681-0.096-1.017-0.092l-4.885,24.552
                          c0.308,0.132,0.633,0.237,0.974,0.304l6.191,1.232c2.658,0.529,5.265-1.213,5.793-3.871l3.004-15.1
                          C149.134,18.016,147.392,15.409,144.734,14.88z"/>
</svg>