<svg class="symbol-link-panel-top-clipart" version="1.1" xmlns="http://www.w3.org/2000/svg" xmlns:xlink="http://www.w3.org/1999/xlink" width="105px" height="94px" viewBox="0 0 105 94">
  <path fill="#D3EDFF" d="M0,26.662v55.333c0,2.2,1.8,4,4,4h97c2.2,0,4-1.8,4-4V26.662H0z"/>
  <path fill="#5FCEF5" d="M105,4c0-2.2-1.8-4-4-4H4C1.8,0,0,1.8,0,4v10.667h105V4z"/>
  <circle fill="#FFFFFF" cx="8" cy="6" r="2"/>
  <circle fill="#FFFFFF" cx="14" cy="6" r="2"/>
  <rect y="14.667" fill="#A7E3FA" width="105" height="12"/>
  <path fill="#FFFFFF" d="M98,8H19c-0.55,0-1-0.45-1-1V5c0-0.55,0.45-1,1-1h79c0.55,0,1,0.45,1,1v2C99,7.55,98.55,8,98,8z"/>
  <path fill="#4EB7F5" d="M80,55.666c0,1.112,0.79,2.013,1.765,2.013h1.471c0.975,0,1.765-0.901,1.765-2.013H80z"/>
  <path fill="#4EB7F5" d="M80,59.673c0,1.112,0.79,2.013,1.765,2.013h1.471c0.975,0,1.765-0.901,1.765-2.013H80z"/>
  <path opacity="0.5" fill="#7FCCF7" d="M80,63.686c0,1.112,0.79,2.013,1.765,2.013h1.471c0.975,0,1.765-0.901,1.765-2.013H80z"/>
  <path fill="#3899EC" d="M92.267,41.399l-7.997-7.997c-0.117-0.117-0.246-0.222-0.385-0.315c-0.057-0.038-0.118-0.063-0.177-0.096
                          c-0.083-0.046-0.164-0.096-0.253-0.133c-0.079-0.033-0.162-0.051-0.244-0.076c-0.074-0.022-0.145-0.051-0.222-0.066
                          c-0.323-0.064-0.656-0.064-0.979,0c-0.077,0.015-0.147,0.044-0.221,0.066c-0.082,0.024-0.165,0.043-0.245,0.076
                          c-0.089,0.037-0.169,0.086-0.252,0.133c-0.059,0.033-0.121,0.059-0.178,0.097c-0.138,0.092-0.268,0.197-0.385,0.315l-7.997,7.997
                          c-0.977,0.976-0.977,2.559,0,3.535c0.977,0.977,2.559,0.977,3.535,0L80,41.202v9.965c0,1.381,1.119,2.5,2.5,2.5s2.5-1.119,2.5-2.5
                          v-9.965l3.732,3.732c0.488,0.488,1.128,0.732,1.768,0.732s1.279-0.244,1.768-0.732C93.244,43.958,93.244,42.375,92.267,41.399z"/>
  <ellipse fill="#D3EDFF" cx="52.5" cy="92.002" rx="40.759" ry="1.998"/>
</svg>
