<svg xmlns="http://www.w3.org/2000/svg" xmlns:xlink="http://www.w3.org/1999/xlink" width="17px" height="8px"
     viewBox="0 0 17 8">
    <path fill="rgb(255,255,255)" fill-rule="evenodd"
          d="M 14.5 7.68C 14.5 7.68 11.5 7.68 11.5 7.68 10.12 7.68 9 6.58 9 5.23 9 5.23 9 5 9 5 9 5 8 5 8 5 8 5 8 5.23 8 5.23 8 6.58 6.88 7.68 5.5 7.68 5.5 7.68 2.5 7.68 2.5 7.68 1.12 7.68 0 6.58 0 5.23 0 5.23 0 3.09 0 3.09 0 1.74 1.12 0.64 2.5 0.64 2.5 0.64 5.5 0.64 5.5 0.64 6.85 0.64 7.95 1.69 7.99 3.01 7.99 3.01 9.01 3.01 9.01 3.01 9.05 1.69 10.15 0.64 11.5 0.64 11.5 0.64 14.5 0.64 14.5 0.64 15.88 0.64 17 1.74 17 3.09 17 3.09 17 5.23 17 5.23 17 6.58 15.88 7.68 14.5 7.68ZM 6.5 5C 6.5 5 5 5 5 5 4.45 5 4 4.55 4 4 4 3.45 4.45 3.01 5 3.01 5 3.01 6.48 3.01 6.48 3.01 6.44 2.51 6.02 2.11 5.5 2.11 5.5 2.11 2.5 2.11 2.5 2.11 1.95 2.11 1.5 2.55 1.5 3.09 1.5 3.09 1.5 5.23 1.5 5.23 1.5 5.77 1.95 6.21 2.5 6.21 2.5 6.21 5.5 6.21 5.5 6.21 6.05 6.21 6.5 5.77 6.5 5.23 6.5 5.23 6.5 5 6.5 5ZM 15.5 3.09C 15.5 2.55 15.05 2.11 14.5 2.11 14.5 2.11 11.5 2.11 11.5 2.11 10.98 2.11 10.56 2.51 10.52 3.01 10.52 3.01 12 3.01 12 3.01 12.55 3.01 13 3.45 13 4 13 4.55 12.55 5 12 5 12 5 10.5 5 10.5 5 10.5 5 10.5 5.23 10.5 5.23 10.5 5.77 10.95 6.21 11.5 6.21 11.5 6.21 14.5 6.21 14.5 6.21 15.05 6.21 15.5 5.77 15.5 5.23 15.5 5.23 15.5 3.09 15.5 3.09Z"/>
</svg>