<?xml version="1.0" encoding="utf-8"?>
<svg xmlns="http://www.w3.org/2000/svg"
	xmlns:xlink="http://www.w3.org/1999/xlink"
	width="15px" height="15px" viewBox="0 0 15 15">
<path fill="rgb(55,153,235)" fill-rule="evenodd" d="M 14.25 13.54C 14.25 13.54 11.41 10.69 11.41 10.69 12.43 9.52 13.06 8.02 13.06 6.39 13.06 2.8 10.02-0.25 6.43-0.25 2.84-0.25-0.25 2.8-0.25 6.39-0.25 9.98 2.81 13.02 6.4 13.02 8.02 13.02 9.52 12.4 10.7 11.4 10.7 11.4 13.55 14.25 13.55 14.25 13.55 14.25 14.25 13.54 14.25 13.54ZM 6.4 12.05C 3.37 12.05 0.78 9.43 0.78 6.39 0.78 3.36 3.32 0.75 6.35 0.75 9.39 0.75 12 3.36 12 6.39 12 9.43 9.43 12.05 6.4 12.05Z"/>
</svg>