<svg xmlns="http://www.w3.org/2000/svg" width="17" height="15" viewBox="0 0 17 15"><path fill="#7991A5" fill-rule="evenodd" d="M14.98 7.99c-2.58 0-2.5-1.97-2.5-1.97s0 .74-.5 1.29V12h-7V7.27c-.46-.54-.46-1.23-.46-1.23S4.6 8 2.02 8c-2.04 0-2-3-2-3l1-5h14.96l1 5s-.06 2.99-2 2.99zm-9 3.01h5V7.83c-.15.03-.31.06-.51.06-1.63 0-1.92-1.26-1.97-1.72-.05.46-.34 1.72-1.97 1.72-.21 0-.38-.03-.55-.06V11zm9-10h-13l-1 4c0 .88.22 2.12 1 2.12 1.64 0 1.54-1.05 1.59-1.23.1-.47.49-.82.96-.82.03 0 .05-.01.08-.01.51.04.9.46.91.97.01.22.06.47.21.66l.15.14c.15.1.36.17.65.17.79 0 .97-.55.99-.99 0-.54.43-1.01.98-1.01s.98.47.98 1.01c.02.44.2.99.99.99.25 0 .43-.05.57-.13l.28-.25c.11-.18.16-.39.16-.59.01-.51.4-.93.91-.97.03 0 .05.01.08.01.47 0 .86.35.96.82.05.18-.08 1.23 1.55 1.23.79 0 1-1.24 1-2.12l-1-4zm-12 12.5c0 .28.23.5.5.5h10c.28 0 .5-.22.5-.5V8h1v6c0 .55-.44 1-1 1h-11c-.55 0-1-.45-1-1V8h1v5.5z"/></svg>