<?xml version="1.0" encoding="utf-8"?>
<svg xmlns="http://www.w3.org/2000/svg"
	xmlns:xlink="http://www.w3.org/1999/xlink"
	width="17px" height="15px" viewBox="0 0 17 15">
<path fill="rgb(121,145,165)" fill-rule="evenodd" d="M 14.98 7.99C 12.4 7.99 12.48 6.02 12.48 6.02 12.48 6.02 12.48 6.76 11.98 7.31 11.98 7.31 11.98 12 11.98 12 11.98 12 4.98 12 4.98 12 4.98 12 4.98 7.27 4.98 7.27 4.52 6.73 4.52 6.04 4.52 6.04 4.52 6.04 4.6 8 2.02 8-0.02 8 0.02 5 0.02 5 0.02 5 1.02-0 1.02-0 1.02-0 15.98-0 15.98-0 15.98-0 16.98 5 16.98 5 16.98 5 16.92 7.99 14.98 7.99ZM 5.98 11C 5.98 11 10.98 11 10.98 11 10.98 11 10.98 7.83 10.98 7.83 10.83 7.86 10.67 7.89 10.47 7.89 8.84 7.89 8.55 6.63 8.5 6.17 8.45 6.63 8.16 7.89 6.53 7.89 6.32 7.89 6.15 7.86 5.98 7.83 5.98 7.83 5.98 11 5.98 11ZM 14.98 1C 14.98 1 1.98 1 1.98 1 1.98 1 0.98 5 0.98 5 0.98 5.88 1.2 7.12 1.98 7.12 3.62 7.12 3.52 6.07 3.57 5.89 3.67 5.42 4.06 5.07 4.53 5.07 4.56 5.07 4.58 5.06 4.61 5.06 5.12 5.1 5.51 5.52 5.52 6.03 5.53 6.25 5.58 6.5 5.73 6.69 5.73 6.69 5.88 6.83 5.88 6.83 6.03 6.93 6.24 7 6.53 7 7.32 7 7.5 6.45 7.52 6.01 7.52 5.47 7.95 5 8.5 5 9.05 5 9.48 5.47 9.48 6.01 9.5 6.45 9.68 7 10.47 7 10.72 7 10.9 6.95 11.04 6.87 11.04 6.87 11.32 6.62 11.32 6.62 11.43 6.44 11.48 6.23 11.48 6.03 11.49 5.52 11.88 5.1 12.39 5.06 12.42 5.06 12.44 5.07 12.47 5.07 12.94 5.07 13.33 5.42 13.43 5.89 13.48 6.07 13.35 7.12 14.98 7.12 15.77 7.12 15.98 5.88 15.98 5 15.98 5 14.98 1 14.98 1ZM 2.98 13.5C 2.98 13.78 3.21 14 3.48 14 3.48 14 13.48 14 13.48 14 13.76 14 13.98 13.78 13.98 13.5 13.98 13.5 13.98 8 13.98 8 13.98 8 14.98 8 14.98 8 14.98 8 14.98 14 14.98 14 14.98 14.55 14.54 15 13.98 15 13.98 15 2.98 15 2.98 15 2.43 15 1.98 14.55 1.98 14 1.98 14 1.98 8 1.98 8 1.98 8 2.02 8 2.02 8 2.02 8 2.98 8 2.98 8 2.98 8 2.98 13.5 2.98 13.5Z"/>
</svg>