<?xml version="1.0" encoding="UTF-8" standalone="no"?>
<svg width="94px" height="98px" viewBox="0 0 94 98" version="1.1" xmlns="http://www.w3.org/2000/svg" xmlns:xlink="http://www.w3.org/1999/xlink" xmlns:sketch="http://www.bohemiancoding.com/sketch/ns">
    <g id="Page-1" stroke="none" stroke-width="1" fill="none" fill-rule="evenodd" sketch:type="MSPage">
        <g id="my_site_illustration" sketch:type="MSArtboardGroup">
            <g id="Imported-Layers" sketch:type="MSLayerGroup">
                <path d="M69,96 C69,97.105 58.926,98 46.5,98 C34.074,98 24,97.105 24,96 C24,94.896 34.074,94 46.5,94 C58.926,94 69,94.896 69,96" id="Fill-1" fill="#A2DBF4" sketch:type="MSShapeGroup"></path>
                <path d="M51,44 L4,44 C1.791,44 0,42.209 0,40 L0,13 L55,13 L55,40 C55,42.209 53.209,44 51,44" id="Fill-2" fill="#A2DBF4" sketch:type="MSShapeGroup"></path>
                <path d="M55,13 L0,13 L0,4 C0,1.791 1.791,0 4,0 L51,0 C53.209,0 55,1.791 55,4 L55,13" id="Fill-3" fill="#A2DBF4" sketch:type="MSShapeGroup"></path>
                <path d="M8.693,6.52 C8.693,7.726 7.716,8.703 6.511,8.703 C5.305,8.703 4.328,7.726 4.328,6.52 C4.328,5.315 5.305,4.338 6.511,4.338 C7.716,4.338 8.693,5.315 8.693,6.52" id="Fill-4" fill="#D1EDFF" sketch:type="MSShapeGroup"></path>
                <path d="M15.652,6.52 C15.652,7.726 14.674,8.703 13.469,8.703 C12.263,8.703 11.287,7.726 11.287,6.52 C11.287,5.315 12.263,4.338 13.469,4.338 C14.674,4.338 15.652,5.315 15.652,6.52" id="Fill-5" fill="#D1EDFF" sketch:type="MSShapeGroup"></path>
                <path d="M0,13.5 L55,13.5" id="Stroke-6" stroke="#D1EDFF" sketch:type="MSShapeGroup"></path>
                <path d="M90,51 L43,51 C40.791,51 39,49.209 39,47 L39,20 L94,20 L94,47 C94,49.209 92.209,51 90,51" id="Fill-7" fill="#6DD0F2" sketch:type="MSShapeGroup"></path>
                <path d="M94,20 L39,20 L39,11 C39,8.791 40.791,7 43,7 L90,7 C92.209,7 94,8.791 94,11 L94,20" id="Fill-8" fill="#6DD0F2" sketch:type="MSShapeGroup"></path>
                <path d="M47.693,13.52 C47.693,14.726 46.716,15.703 45.511,15.703 C44.305,15.703 43.328,14.726 43.328,13.52 C43.328,12.315 44.305,11.338 45.511,11.338 C46.716,11.338 47.693,12.315 47.693,13.52" id="Fill-9" fill="#D1EDFF" sketch:type="MSShapeGroup"></path>
                <path d="M54.652,13.52 C54.652,14.726 53.674,15.703 52.469,15.703 C51.263,15.703 50.287,14.726 50.287,13.52 C50.287,12.315 51.263,11.338 52.469,11.338 C53.674,11.338 54.652,12.315 54.652,13.52" id="Fill-10" fill="#D1EDFF" sketch:type="MSShapeGroup"></path>
                <path d="M39,20.5 L94,20.5" id="Stroke-11" stroke="#D1EDFF" sketch:type="MSShapeGroup"></path>
                <path d="M70.5,71 L23.5,71 C21.291,71 19,69.209 19,67 L19,40 L74,40 L74,67 C74,69.209 72.709,71 70.5,71" id="Fill-12" fill="#FFFFFF" sketch:type="MSShapeGroup"></path>
                <path d="M74,40 L19,40 L19,31 C19,28.791 21.291,27 23.5,27 L70.5,27 C72.709,27 74,28.791 74,31 L74,40" id="Fill-13" fill="#3899EC" sketch:type="MSShapeGroup"></path>
                <path d="M28.193,33.52 C28.193,34.726 27.216,35.703 26.011,35.703 C24.805,35.703 23.828,34.726 23.828,33.52 C23.828,32.315 24.805,31.338 26.011,31.338 C27.216,31.338 28.193,32.315 28.193,33.52" id="Fill-14" fill="#FFFFFF" sketch:type="MSShapeGroup"></path>
                <path d="M35.152,33.52 C35.152,34.726 34.174,35.703 32.969,35.703 C31.763,35.703 30.787,34.726 30.787,33.52 C30.787,32.315 31.763,31.338 32.969,31.338 C34.174,31.338 35.152,32.315 35.152,33.52" id="Fill-15" fill="#FFFFFF" sketch:type="MSShapeGroup"></path>
                <path d="M40.446,57.475 C39.99,57.281 39.947,56.721 40.363,56.453 C42.189,55.28 43.357,53.215 43.253,50.863 C43.159,50.868 43.068,50.877 42.975,50.877 C40.637,50.877 38.631,49.476 37.74,47.469 C37.199,50.392 34.641,52.608 31.56,52.608 C31.296,52.608 31.037,52.586 30.782,52.555 C31.17,54.295 32.263,55.771 33.758,56.644 C34.181,56.891 34.173,57.5 33.731,57.709 C29.804,59.566 27,64.255 27,69.98 C27,70.387 27.016,71 27.044,71 L47.452,71 C47.48,71 47.496,70.387 47.496,69.981 C47.496,64.102 44.539,59.214 40.446,57.475" id="Fill-16" fill="#6DD0F2" sketch:type="MSShapeGroup"></path>
                <path d="M37.74,47.469 C38.631,49.476 40.637,50.877 42.975,50.877 C43.068,50.877 43.159,50.868 43.253,50.863 C43.244,50.684 43.246,50.508 43.223,50.326 C42.861,47.48 40.535,45.202 37.685,44.879 C33.858,44.447 30.617,47.434 30.617,51.173 C30.617,51.649 30.682,52.109 30.782,52.555 C31.037,52.586 31.296,52.608 31.56,52.608 C34.641,52.608 37.199,50.392 37.74,47.469" id="Fill-17" fill="#3899EC" sketch:type="MSShapeGroup"></path>
            </g>
        </g>
    </g>
</svg>