<?xml version="1.0" encoding="UTF-8" standalone="no"?>
<svg width="112px" height="96px" viewBox="0 0 112 96" version="1.1" xmlns="http://www.w3.org/2000/svg" xmlns:xlink="http://www.w3.org/1999/xlink" xmlns:sketch="http://www.bohemiancoding.com/sketch/ns">
    <g id="Page-1" stroke="none" stroke-width="1" fill="none" fill-rule="evenodd" sketch:type="MSPage">
        <g id="editor_mobile_illustration" sketch:type="MSArtboardGroup">
            <g id="Imported-Layers" sketch:type="MSLayerGroup" transform="translate(1.000000, 1.000000)">
                <path d="M69,92.9994281 C69,94.1043752 62.5084554,95 54.5,95 C46.4925373,95 40,94.1043752 40,92.9994281 C40,91.8956248 46.4925373,91 54.5,91 C62.5084554,91 69,91.8956248 69,92.9994281" id="Fill-1" fill="#A2DBF4" sketch:type="MSShapeGroup"></path>
                <path d="M109.5,74.613 C109.5,76.822 107.709,78.613 105.5,78.613 L4.5,78.613 C2.291,78.613 0.5,76.822 0.5,74.613 L0.5,4 C0.5,1.791 2.291,0 4.5,0 L105.5,0 C107.709,0 109.5,1.791 109.5,4 L109.5,74.613 L109.5,74.613 Z" id="Stroke-2" stroke="#6DD0F2" stroke-width="2" stroke-linecap="round" stroke-linejoin="round" stroke-dasharray="0.995,3.982" sketch:type="MSShapeGroup"></path>
                <path d="M16.093,13.102 C16.093,15.281 14.333,17.047 12.16,17.047 C9.987,17.047 8.226,15.281 8.226,13.102 C8.226,10.923 9.987,9.156 12.16,9.156 C14.333,9.156 16.093,10.923 16.093,13.102" id="Fill-3" fill="#6DD0F2" sketch:type="MSShapeGroup"></path>
                <path d="M16.093,24.555 C16.093,26.734 14.333,28.5 12.16,28.5 C9.987,28.5 8.226,26.734 8.226,24.555 C8.226,22.376 9.987,20.609 12.16,20.609 C14.333,20.609 16.093,22.376 16.093,24.555" id="Fill-4" fill="#6DD0F2" sketch:type="MSShapeGroup"></path>
                <path d="M16.093,36.008 C16.093,38.187 14.333,39.953 12.16,39.953 C9.987,39.953 8.226,38.187 8.226,36.008 C8.226,33.829 9.987,32.062 12.16,32.062 C14.333,32.062 16.093,33.829 16.093,36.008" id="Fill-5" fill="#6DD0F2" sketch:type="MSShapeGroup"></path>
                <path d="M16.093,47.461 C16.093,49.64 14.333,51.406 12.16,51.406 C9.987,51.406 8.226,49.64 8.226,47.461 C8.226,45.282 9.987,43.515 12.16,43.515 C14.333,43.515 16.093,45.282 16.093,47.461" id="Fill-6" fill="#6DD0F2" sketch:type="MSShapeGroup"></path>
                <path d="M70,62.374 C70,65.144 67.732,67 64.97,67 L42.97,67 C40.209,67 38,65.144 38,62.374 L38,14.233 C38,11.463 40.209,9 42.97,9 L64.97,9 C67.732,9 70,11.463 70,14.233 L70,62.374" id="Fill-7" fill="#3899EC" sketch:type="MSShapeGroup"></path>
                <path d="M68,55.354 C68,56.462 67.075,57 65.97,57 L41.97,57 C40.866,57 40,56.462 40,55.354 L40,16.239 C40,15.131 40.866,14 41.97,14 L65.97,14 C67.075,14 68,15.131 68,16.239 L68,55.354" id="Fill-8" fill="#FFFFFF" sketch:type="MSShapeGroup"></path>
                <path d="M45,19 L63,19 L63,40 L45,40 L45,19 Z" id="Fill-9" fill="#A2DBF4" sketch:type="MSShapeGroup"></path>
                <path d="M45,44 L63,44 L63,45 L45,45 L45,44 Z" id="Fill-10" fill="#A2DBF4" sketch:type="MSShapeGroup"></path>
                <path d="M45,47 L63,47 L63,48 L45,48 L45,47 Z" id="Fill-11" fill="#A2DBF4" sketch:type="MSShapeGroup"></path>
                <path d="M45,50 L63,50 L63,51 L45,51 L45,50 Z" id="Fill-12" fill="#A2DBF4" sketch:type="MSShapeGroup"></path>
                <path d="M57,62 C57,62.552 56.552,63 56,63 L53,63 C52.448,63 52,62.552 52,62 L52,60 C52,59.448 52.448,59 53,59 L56,59 C56.552,59 57,59.448 57,60 L57,62" id="Fill-13" fill="#FFFFFF" sketch:type="MSShapeGroup"></path>
            </g>
        </g>
    </g>
</svg>
