<?xml version="1.0" encoding="UTF-8" standalone="no"?>
<svg width="102px" height="104px" viewBox="0 0 102 104" version="1.1" xmlns="http://www.w3.org/2000/svg" xmlns:xlink="http://www.w3.org/1999/xlink" xmlns:sketch="http://www.bohemiancoding.com/sketch/ns">
    <g id="Page-1" stroke="none" stroke-width="1" fill="none" fill-rule="evenodd" sketch:type="MSPage">
        <g id="editor_desktop_illustration" sketch:type="MSArtboardGroup">
            <g id="Imported-Layers" sketch:type="MSLayerGroup">
                <path d="M97.5,77 L4.5,77 C2.291,77 0.5,75.209 0.5,73 L0.5,13 L101.5,13 L101.5,73 C101.5,75.209 99.709,77 97.5,77" id="Fill-1" fill="#FFFFFF" sketch:type="MSShapeGroup"></path>
                <path d="M38,65 C38,65.552 37.552,66 37,66 L22,66 C21.448,66 21,65.552 21,65 L21,55 C21,54.448 21.448,54 22,54 L37,54 C37.552,54 38,54.448 38,55 L38,65" id="Fill-2" fill="#A2DBF4" sketch:type="MSShapeGroup"></path>
                <path d="M60,65 C60,65.552 59.552,66 59,66 L44,66 C43.448,66 43,65.552 43,65 L43,55 C43,54.448 43.448,54 44,54 L59,54 C59.552,54 60,54.448 60,55 L60,65" id="Fill-3" fill="#A2DBF4" sketch:type="MSShapeGroup"></path>
                <path d="M82,65 C82,65.552 81.552,66 81,66 L66,66 C65.448,66 65,65.552 65,65 L65,55 C65,54.448 65.448,54 66,54 L81,54 C81.552,54 82,54.448 82,55 L82,65" id="Fill-4" fill="#A2DBF4" sketch:type="MSShapeGroup"></path>
                <path d="M82,48 C82,48.552 81.552,49 81,49 L22,49 C21.448,49 21,48.552 21,48 L21,24 C21,23.448 21.448,23 22,23 L81,23 C81.552,23 82,23.448 82,24 L82,48" id="Fill-5" fill="#A2DBF4" sketch:type="MSShapeGroup"></path>
                <path d="M91,101.5 C91,102.88 73.0919255,104 51,104 C28.9090683,104 11,102.88 11,101.5 C11,100.119 28.9090683,99 51,99 C73.0919255,99 91,100.119 91,101.5" id="Fill-6" fill="#A2DBF4" sketch:type="MSShapeGroup"></path>
                <path d="M15.123,26.872 C15.123,29.045 13.362,30.806 11.189,30.806 C9.017,30.806 7.256,29.045 7.256,26.872 C7.256,24.7 9.017,22.938 11.189,22.938 C13.362,22.938 15.123,24.7 15.123,26.872" id="Fill-7" fill="#6DD0F2" sketch:type="MSShapeGroup"></path>
                <path d="M15.123,38.292 C15.123,40.464 13.362,42.225 11.189,42.225 C9.017,42.225 7.256,40.464 7.256,38.292 C7.256,36.119 9.017,34.358 11.189,34.358 C13.362,34.358 15.123,36.119 15.123,38.292" id="Fill-8" fill="#6DD0F2" sketch:type="MSShapeGroup"></path>
                <path d="M15.123,49.711 C15.123,51.883 13.362,53.645 11.189,53.645 C9.017,53.645 7.256,51.883 7.256,49.711 C7.256,47.538 9.017,45.777 11.189,45.777 C13.362,45.777 15.123,47.538 15.123,49.711" id="Fill-9" fill="#6DD0F2" sketch:type="MSShapeGroup"></path>
                <path d="M15.123,61.13 C15.123,63.303 13.362,65.064 11.189,65.064 C9.017,65.064 7.256,63.303 7.256,61.13 C7.256,58.958 9.017,57.196 11.189,57.196 C13.362,57.196 15.123,58.958 15.123,61.13" id="Fill-10" fill="#6DD0F2" sketch:type="MSShapeGroup"></path>
                <path d="M101.5,13.5 L0.5,13.5 L0.5,5.5 C0.5,2.739 2.739,0.5 5.5,0.5 L97.5,0.5 C99.709,0.5 101.5,2.291 101.5,4.5 L101.5,13.5" id="Fill-11" fill="#3899EC" sketch:type="MSShapeGroup"></path>
                <path d="M10.193,6.599 C10.193,7.805 9.216,8.782 8.011,8.782 C6.806,8.782 5.828,7.805 5.828,6.599 C5.828,5.394 6.806,4.417 8.011,4.417 C9.216,4.417 10.193,5.394 10.193,6.599" id="Fill-12" fill="#FFFFFF" sketch:type="MSShapeGroup"></path>
                <path d="M17.152,6.599 C17.152,7.805 16.174,8.782 14.969,8.782 C13.764,8.782 12.787,7.805 12.787,6.599 C12.787,5.394 13.764,4.417 14.969,4.417 C16.174,4.417 17.152,5.394 17.152,6.599" id="Fill-13" fill="#FFFFFF" sketch:type="MSShapeGroup"></path>
            </g>
        </g>
    </g>
</svg>
