<svg xmlns="http://www.w3.org/2000/svg" width="94" height="98" viewBox="0 0 94 98"><g fill="none" fill-rule="evenodd"><path fill="#A2DBF4" d="M69 96c0 1.105-10.074 2-22.5 2S24 97.105 24 96c0-1.104 10.074-2 22.5-2s22.5.896 22.5 2M51 44H4a4 4 0 0 1-4-4V13h55v27a4 4 0 0 1-4 4M55 13H0V4a4 4 0 0 1 4-4h47a4 4 0 0 1 4 4v9"/><path fill="#D1EDFF" d="M8.693 6.52a2.182 2.182 0 1 1-4.365 0 2.182 2.182 0 0 1 4.365 0M15.652 6.52a2.183 2.183 0 1 1-4.366 0 2.183 2.183 0 0 1 4.366 0"/><path stroke="#D1EDFF" d="M0 13.5h55"/><path fill="#6DD0F2" d="M90 51H43a4 4 0 0 1-4-4V20h55v27a4 4 0 0 1-4 4M94 20H39v-9a4 4 0 0 1 4-4h47a4 4 0 0 1 4 4v9"/><path fill="#D1EDFF" d="M47.693 13.52a2.182 2.182 0 1 1-4.365 0 2.182 2.182 0 0 1 4.365 0M54.652 13.52a2.183 2.183 0 1 1-4.366 0 2.183 2.183 0 0 1 4.366 0"/><path stroke="#D1EDFF" d="M39 20.5h55"/><path fill="#FFF" d="M70.5 71h-47c-2.21 0-4.5-1.79-4.5-4V40h55v27c0 2.21-1.29 4-3.5 4"/><path fill="#3899EC" d="M74 40H19v-9c0-2.21 2.29-4 4.5-4h47c2.21 0 3.5 1.79 3.5 4v9"/><path fill="#FFF" d="M28.193 33.52a2.182 2.182 0 1 1-4.365 0 2.182 2.182 0 0 1 4.365 0M35.152 33.52a2.183 2.183 0 1 1-4.366 0 2.183 2.183 0 0 1 4.366 0"/><path fill="#6DD0F2" d="M40.446 57.475c-.456-.194-.5-.754-.083-1.022a6.272 6.272 0 0 0 2.89-5.59c-.094.005-.185.014-.278.014a5.725 5.725 0 0 1-5.235-3.408 6.288 6.288 0 0 1-6.18 5.138c-.264 0-.523-.022-.778-.053a6.33 6.33 0 0 0 2.976 4.09c.423.246.415.855-.027 1.064C29.805 59.565 27 64.254 27 69.98c0 .407.016 1.02.044 1.02h20.408c.028 0 .044-.613.044-1.02 0-5.878-2.957-10.766-7.05-12.505"/><path fill="#3899EC" d="M37.74 47.47a5.725 5.725 0 0 0 5.235 3.407c.093 0 .184-.01.278-.014-.01-.18-.007-.355-.03-.537-.362-2.846-2.688-5.124-5.538-5.447a6.336 6.336 0 0 0-7.068 6.293c0 .476.065.936.165 1.382.255.03.514.053.778.053 3.08 0 5.64-2.216 6.18-5.14"/></g></svg>