<?xml version="1.0" encoding="UTF-8" standalone="no"?>
<svg width="76px" height="100px" viewBox="0 0 76 100" version="1.1" xmlns="http://www.w3.org/2000/svg" xmlns:xlink="http://www.w3.org/1999/xlink" xmlns:sketch="http://www.bohemiancoding.com/sketch/ns">
    <g id="Page-1" stroke="none" stroke-width="1" fill="none" fill-rule="evenodd" sketch:type="MSPage">
        <g id="help_center_illustration" sketch:type="MSArtboardGroup">
            <g id="Imported-Layers" sketch:type="MSLayerGroup">
                <path d="M11.483,11.483 C-3.161,26.128 -3.161,49.872 11.483,64.517 C26.129,79.161 49.872,79.161 64.516,64.516 C79.161,49.872 79.161,26.128 64.516,11.484 C49.872,-3.161 26.128,-3.161 11.483,11.483 L11.483,11.483 Z M52.314,52.314 C44.409,60.22 31.591,60.22 23.685,52.314 C15.78,44.409 15.78,31.591 23.686,23.686 C31.591,15.78 44.409,15.78 52.314,23.686 C60.22,31.591 60.22,44.409 52.314,52.314 L52.314,52.314 Z" id="Fill-1" fill="#FFFFFF" sketch:type="MSShapeGroup"></path>
                <path d="M47.168,20.154 C49.008,21.093 50.738,22.322 52.277,23.861 C53.817,25.4 55.045,27.13 55.984,28.97 L68.947,16.007 C69.722,15.231 69.722,13.974 68.947,13.198 L62.94,7.191 C62.164,6.416 60.907,6.416 60.131,7.191 L47.168,20.154" id="Fill-2" fill="#6DD0F2" sketch:type="MSShapeGroup"></path>
                <path d="M20.016,47.306 L7.053,60.269 C6.278,61.045 6.278,62.302 7.053,63.078 L13.06,69.085 C13.836,69.86 15.093,69.86 15.869,69.085 L28.832,56.122 C26.992,55.184 25.262,53.955 23.723,52.416 C22.183,50.876 20.955,49.146 20.016,47.306" id="Fill-3" fill="#6DD0F2" sketch:type="MSShapeGroup"></path>
                <path d="M7.053,16.007 L20.016,28.97 C20.955,27.13 22.184,25.4 23.723,23.861 C25.262,22.321 26.992,21.093 28.831,20.154 L15.869,7.191 C15.093,6.416 13.836,6.416 13.06,7.191 L7.053,13.198 C6.278,13.974 6.278,15.231 7.053,16.007" id="Fill-4" fill="#3899EC" sketch:type="MSShapeGroup"></path>
                <path d="M52.277,52.415 C50.738,53.955 49.008,55.184 47.168,56.122 L60.131,69.085 C60.907,69.861 62.164,69.861 62.94,69.085 L68.947,63.078 C69.722,62.302 69.722,61.045 68.947,60.269 L55.984,47.306 C55.045,49.146 53.817,50.876 52.277,52.415" id="Fill-5" fill="#3899EC" sketch:type="MSShapeGroup"></path>
                <path d="M64,97.5005164 C64,98.8803966 52.1349671,100 37.5,100 C22.8640376,100 11,98.8803966 11,97.5005164 C11,96.1196034 22.8640376,95 37.5,95 C52.1349671,95 64,96.1196034 64,97.5005164" id="Fill-6" fill="#A2DBF4" sketch:type="MSShapeGroup"></path>
            </g>
        </g>
    </g>
</svg>
