<?xml version="1.0" encoding="UTF-8" standalone="no"?>
<svg width="86px" height="104px" viewBox="0 0 86 104" version="1.1" xmlns="http://www.w3.org/2000/svg" xmlns:xlink="http://www.w3.org/1999/xlink" xmlns:sketch="http://www.bohemiancoding.com/sketch/ns">
    <g id="Page-1" stroke="none" stroke-width="1" fill="none" fill-rule="evenodd" sketch:type="MSPage">
        <g id="save_illustration" sketch:type="MSArtboardGroup">
            <g id="Imported-Layers" sketch:type="MSLayerGroup">
                <path d="M66,72.3047619 C66,75.5872 63.314,78.247619 60,78.247619 L6,78.247619 C2.686,78.247619 0,75.5872 0,72.3047619 L0,21.7904762 C0,18.5080381 2.686,15.847619 6,15.847619 L60,15.847619 C63.314,15.847619 66,18.5080381 66,21.7904762 L66,72.3047619" id="Fill-1" fill="#3899EC" sketch:type="MSShapeGroup"></path>
                <path d="M49,78.247619 L17,78.247619 L17,54.4761905 C17,52.2882286 18.791,50.5142857 21,50.5142857 L45,50.5142857 C47.209,50.5142857 49,52.2882286 49,54.4761905 L49,78.247619" id="Fill-2" fill="#FFFFFF" sketch:type="MSShapeGroup"></path>
                <path d="M23,63.3904762 L43,63.3904762 L43,66.3619048 L23,66.3619048 L23,63.3904762 Z" id="Fill-3" fill="#6DD0F2" sketch:type="MSShapeGroup"></path>
                <path d="M77.367,19.8917333 C76.607,16.076419 73.204,13.1971048 69.118,13.1971048 C68.546,13.1971048 67.989,13.2545524 67.449,13.3625143 C65.833,6.26971429 59.427,0.965714286 51.755,0.965714286 C44.737,0.965714286 38.785,5.408 36.582,11.5935238 C29.582,11.9055238 24,17.2600381 24,24.2488381 C24,31.4367238 29.845,36.647619 37.125,36.647619 L38.148,36.647619 L77.027,36.647619 C81.983,36.647619 86,33.1542095 86,28.2612571 C86,23.481219 82.164,20.0690286 77.367,19.8917333" id="Fill-4" fill="#FFFFFF" sketch:type="MSShapeGroup"></path>
                <path d="M47,28.7238095 L48.52,28.7238095 C48.139,28.7238095 47.78,28.6515048 47.531,28.3622857 L42.838,23.1305905 C42.342,22.5600762 42.399,21.7181714 42.963,21.216 C43.526,20.7158095 44.385,20.7871238 44.881,21.3566476 L48.6,25.5295238 L57.884,15.2751238 C58.407,14.7293714 59.267,14.7164952 59.806,15.2454095 C60.346,15.7733333 60.359,16.6449524 59.838,17.1907048 L49.528,28.4098286 C49.271,28.6792381 48.17,28.7238095 47.802,28.7238095" id="Fill-5" fill="#6DD0F2" sketch:type="MSShapeGroup"></path>
                <path d="M64.5,101.130629 C64.5,102.510629 51.292,103.630629 35,103.630629 C18.708,103.630629 5.5,102.510629 5.5,101.130629 C5.5,99.7496286 18.708,98.6306286 35,98.6306286 C51.292,98.6306286 64.5,99.7496286 64.5,101.130629" id="Fill-6" fill="#A2DBF4" sketch:type="MSShapeGroup"></path>
            </g>
        </g>
    </g>
</svg>
