<svg xmlns="http://www.w3.org/2000/svg" width="102" height="104" viewBox="0 0 102 104"><g fill="none" fill-rule="evenodd"><path fill="#FFF" d="M97.5 77h-93a4 4 0 0 1-4-4V13h101v60a4 4 0 0 1-4 4"/><path fill="#A2DBF4" d="M38 65a1 1 0 0 1-1 1H22a1 1 0 0 1-1-1V55a1 1 0 0 1 1-1h15a1 1 0 0 1 1 1v10M60 65a1 1 0 0 1-1 1H44a1 1 0 0 1-1-1V55a1 1 0 0 1 1-1h15a1 1 0 0 1 1 1v10M82 65a1 1 0 0 1-1 1H66a1 1 0 0 1-1-1V55a1 1 0 0 1 1-1h15a1 1 0 0 1 1 1v10M82 48a1 1 0 0 1-1 1H22a1 1 0 0 1-1-1V24a1 1 0 0 1 1-1h59a1 1 0 0 1 1 1v24M91 101.5c0 1.38-17.908 2.5-40 2.5-22.09 0-40-1.12-40-2.5S28.91 99 51 99c22.092 0 40 1.12 40 2.5"/><path fill="#6DD0F2" d="M15.123 26.872a3.934 3.934 0 1 1-7.867 0 3.934 3.934 0 0 1 7.867 0M15.123 38.292a3.933 3.933 0 1 1-7.867 0 3.933 3.933 0 0 1 7.867 0M15.123 49.71a3.934 3.934 0 1 1-7.868 0 3.934 3.934 0 0 1 7.868 0M15.123 61.13a3.934 3.934 0 1 1-7.867 0 3.934 3.934 0 0 1 7.867 0"/><path fill="#3899EC" d="M101.5 13.5H.5v-8a5 5 0 0 1 5-5h92a4 4 0 0 1 4 4v9"/><path fill="#FFF" d="M10.193 6.6a2.182 2.182 0 1 1-4.365 0 2.182 2.182 0 0 1 4.365 0M17.152 6.6a2.183 2.183 0 1 1-4.366 0 2.183 2.183 0 0 1 4.366 0"/></g></svg>