<svg xmlns="http://www.w3.org/2000/svg" width="104" height="91" viewBox="0 0 104 91"><g fill="none" fill-rule="evenodd"><path fill="#A2DBF4" d="M97 88.5c0 1.38-17.013 2.5-38 2.5s-38-1.12-38-2.5S38.013 86 59 86s38 1.12 38 2.5"/><path fill="#FFF" d="M103 61.704A2.296 2.296 0 0 1 100.704 64H17.296A2.296 2.296 0 0 1 15 61.704V2.296A2.296 2.296 0 0 1 17.296 0h83.408A2.296 2.296 0 0 1 103 2.296v59.408"/><g transform="translate(15)"><mask id="a" fill="#fff"><path d="M87.96 62.133A2.297 2.297 0 0 1 85.704 64H2.296A2.296 2.296 0 0 1 0 61.704V2.296A2.296 2.296 0 0 1 2.296 0h83.408c1.12 0 2.055.804 2.256 1.867v60.266z"/></mask><path fill="#6DD0F2" d="M0 0h87.96v13H0V0z" mask="url(#a)"/></g><path fill="#3899EC" d="M34 55.514V48.66c0-.52-.24-.66-.758-.66h-1.425c-.402 0-.75-.4-.885-.777-.152-.422-.323-.908-.514-1.317-.17-.363-.108-.826.176-1.11l1.006-1.023a.952.952 0 0 0 0-1.34l-4.846-4.85a.942.942 0 0 0-1.33-.002l-1.007 1.006a.946.946 0 0 1-1.075.175c-.408-.19-1.054-.36-1.475-.513-.38-.136-.867-.483-.867-.886v-1.423c0-.52.038-.937-.482-.937h-6.853c-.52 0-.665.417-.665.937v1.424c0 .404-.397.75-.775.887-.422.15-.907.322-1.316.513-.364.17-.826.108-1.11-.175L8.777 37.58a.953.953 0 0 0-1.34 0l-4.85 4.845a.942.942 0 0 0-.002 1.33l1.004 1.006a.945.945 0 0 1 .175 1.076c-.19.41-.363.965-.514 1.387-.135.378-.482.777-.885.777H.94c-.52 0-.94.14-.94.66v6.854c0 .52.42.486.94.486h1.425c.403 0 .75.486.886.865.152.42.323.95.514 1.36.17.363.108.848-.175 1.132L2.582 60.39a.958.958 0 0 0 0 1.345l4.846 4.853a.94.94 0 0 0 1.33.004l1.005-1.004a.948.948 0 0 1 1.075-.175c.41.192.963.363 1.385.514.378.136.775.484.775.886v1.425c0 .52.145.762.665.762h6.853c.52 0 .482-.243.482-.762v-1.425c0-.402.488-.75.867-.885.42-.152.952-.323 1.36-.514.364-.17.85-.108 1.133.176l1.034 1.006a.96.96 0 0 0 1.345 0l4.852-4.846a.94.94 0 0 0 .004-1.33l-1.004-1.006a.947.947 0 0 1-.175-1.076c.19-.408.363-1.052.514-1.473.137-.38.485-.865.887-.865h1.425c.52 0 .758.033.758-.486"/><path fill="#D1EDFF" d="M17.09 45.91a6.176 6.176 0 1 0 6.177 6.176 6.176 6.176 0 0 0-6.176-6.175"/><path fill="#6DD0F2" d="M47.218 49.483l3.394-1.954a.538.538 0 0 0 .197-.736l-.407-.705a.54.54 0 0 1 .063-.62c.166-.196.323-.4.47-.61.132-.19.362-.28.583-.22l.784.21a.538.538 0 0 0 .66-.38l1.017-3.78a.536.536 0 0 0-.378-.66l-.785-.21a.54.54 0 0 1-.393-.482 8.444 8.444 0 0 0-.1-.764.54.54 0 0 1 .255-.568l.705-.406a.538.538 0 0 0 .197-.735l-1.953-3.393a.538.538 0 0 0-.736-.198l-.705.406a.538.538 0 0 1-.62-.063 8.525 8.525 0 0 0-.61-.47.538.538 0 0 1-.22-.583l.21-.785a.538.538 0 0 0-.38-.66l-3.78-1.018a.538.538 0 0 0-.66.38l-.21.784a.54.54 0 0 1-.483.394c-.257.022-.51.056-.763.1a.54.54 0 0 1-.568-.256L41.6 30.8a.537.537 0 0 0-.735-.2l-3.393 1.955a.537.537 0 0 0-.198.734l.406.705c.115.2.086.445-.063.62a8.227 8.227 0 0 0-.47.61.54.54 0 0 1-.583.22l-.785-.212a.536.536 0 0 0-.66.38l-1.018 3.78a.538.538 0 0 0 .38.66l.784.21a.54.54 0 0 1 .394.483c.02.257.055.512.1.764a.54.54 0 0 1-.256.568l-.705.406a.537.537 0 0 0-.2.734l1.955 3.394a.537.537 0 0 0 .734.197l.704-.407a.543.543 0 0 1 .62.063c.196.166.4.323.61.47.188.133.28.362.22.584l-.21.784a.536.536 0 0 0 .378.66l3.78 1.017a.536.536 0 0 0 .66-.378l.212-.785a.538.538 0 0 1 .482-.393c.257-.022.512-.056.764-.1a.54.54 0 0 1 .568.255l.406.705a.538.538 0 0 0 .734.198"/><path fill="#FFF" d="M47.1 38.28a3.53 3.53 0 1 0-6.118 3.522 3.53 3.53 0 0 0 6.118-3.52M25.693 6.52a2.183 2.183 0 1 1-4.365 0 2.183 2.183 0 0 1 4.365 0M32.65 6.52a2.182 2.182 0 1 1-4.364 0 2.182 2.182 0 0 1 4.365 0"/></g></svg>