<svg xmlns="http://www.w3.org/2000/svg" width="90" height="92" viewBox="0 0 90 92"><g fill="none" fill-rule="evenodd"><path fill="#6DD0F2" d="M86.5 0h-82C2.29 0 0 1.79 0 4v9h90V4c0-2.21-1.29-4-3.5-4"/><path fill="#FFF" d="M86.5 64h-82C2.29 64 0 62.21 0 60V13h90v47c0 2.21-1.29 4-3.5 4M10.193 7.1a2.182 2.182 0 1 1-4.365 0 2.182 2.182 0 0 1 4.365 0M17.152 7.1a2.183 2.183 0 1 1-4.366 0 2.183 2.183 0 0 1 4.366 0"/><path fill="#A2DBF4" d="M81 89.5c0 1.38-16.34 2.5-36.5 2.5C24.342 92 8 90.88 8 89.5S24.342 87 44.5 87C64.66 87 81 88.12 81 89.5"/><path stroke="#6DD0F2" stroke-width="2" d="M13 62V13m64 49V13m-3 9H17m70 0h-6M9 22H2" stroke-linecap="round" stroke-linejoin="round" stroke-dasharray="1 4"/></g></svg>