<?xml version="1.0" encoding="UTF-8" standalone="no"?>
<svg version="1.1" x="0px" y="0px" width="68.3px" height="94.9px" viewBox="0 0 68.3 94.9" enable-background="new 0 0 68.3 94.9" xml:space="preserve">
	<g>
		<circle fill="#FFFFFF" cx="34.1" cy="34" r="34" />
		<ellipse opacity="0.5" fill="#D3EDFF" cx="17" cy="25.6" rx="7.3" ry="1.8" />
		<ellipse opacity="0.5" fill="#D3EDFF" cx="50.3" cy="25.6" rx="6.4" ry="1.8" />
		<path fill="#3899EC" d="M35,45.1c7.5,0,12.6-3.6,14.4-7.6c1-2.1-0.8-4.5-3.2-4.2l-5.4,0.7c-4.3,0.5-8.7,0.5-13,0L22,33.2c-2.3-0.3-4.1,2-3.2,4.2C20.5,41.4,25.7,45.1,35,45.1z" />
		<g>
			<path fill="#3899EC" d="M22.3,21.7c-0.4,0-0.8-0.2-0.9-0.6c0-0.1-1-2.4-5.4-2.4c-2.6,0-3.5,2.1-3.6,2.2c-0.2,0.5-0.8,0.7-1.3,0.5c-0.5-0.2-0.7-0.8-0.5-1.3c0.1-0.1,1.5-3.3,5.3-3.3c5.8,0,7.1,3.5,7.2,3.6c0.2,0.5-0.1,1.1-0.6,1.2C22.5,21.7,22.4,21.7,22.3,21.7z" />
		</g>
		<g>
			<path fill="#3899EC" d="M55.9,21.7c-0.4,0-0.8-0.2-0.9-0.6c0-0.1-1-2.4-5.4-2.4c-2.6,0-3.5,2.1-3.6,2.2c-0.2,0.5-0.8,0.7-1.3,0.5c-0.5-0.2-0.7-0.8-0.5-1.3c0.1-0.1,1.5-3.3,5.3-3.3c5.8,0,7.1,3.5,7.2,3.6c0.2,0.5-0.1,1.1-0.6,1.2C56.1,21.7,56,21.7,55.9,21.7z" />
		</g>
		<ellipse fill="#B2DBF3" cx="34.1" cy="92.4" rx="34.1" ry="2.5" />
	</g>
</svg>
