<?xml version="1.0" encoding="utf-8"?>
<!-- Generator: Adobe Illustrator 19.0.0, SVG Export Plug-In . SVG Version: 6.00 Build 0)  -->
<svg version="1.1" id="Layer_1" xmlns="http://www.w3.org/2000/svg" xmlns:xlink="http://www.w3.org/1999/xlink" x="0px" y="0px"
	 width="90.3px" height="110.6px" viewBox="0 0 90.3 110.6" enable-background="new 0 0 90.3 110.6" xml:space="preserve">
<g id="XMLID_38_">
	<ellipse id="XMLID_218_" fill="#D3EDFF" cx="286.9" cy="371.4" rx="58.3" ry="4.7"/>
	<g id="XMLID_215_">
		<defs>
			<path id="XMLID_34_" d="M353,346.7c0,2.2-2,4-4.2,4h-78.1l-8.1,8.6l-9-8.6h-28.5c-2.2,0-4.1-1.8-4.1-4v-92.5
				c0-2.2,1.9-4.5,4.1-4.5h123.7c2.2,0,4.2,2.3,4.2,4.5V346.7z"/>
		</defs>
		<use xlink:href="#XMLID_34_"  overflow="visible" fill="#D9EEFF"/>
		<clipPath id="XMLID_416_">
			<use xlink:href="#XMLID_34_"  overflow="visible"/>
		</clipPath>
		<rect id="XMLID_35_" x="216" y="244.7" clip-path="url(#XMLID_416_)" fill="#5FCEF5" width="150" height="24"/>
	</g>
	<g id="XMLID_211_">
		<circle id="XMLID_214_" fill="#FFFFFF" cx="227.3" cy="259.6" r="2.2"/>
		<circle id="XMLID_213_" fill="#FFFFFF" cx="235.6" cy="259.6" r="2.2"/>
		<path id="XMLID_33_" fill="#FFFFFF" d="M345,258.7c0,1.1-0.9,2-2,2h-99c-1.1,0-2-0.9-2-2l0,0c0-1.1,0.9-2,2-2h99
			C344.1,256.7,345,257.6,345,258.7L345,258.7z"/>
	</g>
	<g id="XMLID_203_">
		<defs>
			<circle id="XMLID_205_" cx="286.8" cy="308.5" r="29.5"/>
		</defs>
		<use xlink:href="#XMLID_205_"  overflow="visible" fill="#2B81CB"/>
		<clipPath id="XMLID_417_">
			<use xlink:href="#XMLID_205_"  overflow="visible"/>
		</clipPath>
		<g id="XMLID_206_" clip-path="url(#XMLID_417_)">
			<path id="XMLID_210_" fill="#FFFFFF" d="M271,336c0-3.9,1.8-7.4,4.6-9.9c-1.3-2.6-2.4-5.9-3.1-9.6c-1.9-9.4-0.5-17.4,3.1-18
				c3.6-0.6,8,6.6,9.9,15.9c0.5,2.7,0.8,5.2,0.8,7.5c0.2,0,0.3,0,0.5,0s0.3,0,0.5,0c0-2.3,0.3-4.9,0.8-7.5
				c1.9-9.4,6.3-16.5,9.9-15.9c3.6,0.6,5,8.6,3.1,18c-0.7,3.6-1.8,6.9-3.1,9.6c2.9,2.5,4.6,6,4.6,9.9c0,0-0.6,10.5-15.8,10.5
				C271.6,346.5,271,336,271,336z"/>
			<g id="XMLID_207_">
				<circle id="XMLID_209_" fill="#2B81CB" cx="281.9" cy="333.2" r="2"/>
				<circle id="XMLID_208_" fill="#2B81CB" cx="291.6" cy="333.2" r="2"/>
			</g>
		</g>
	</g>
</g>
<g id="XMLID_141_">
	<g id="XMLID_200_">
		<defs>
			<path id="XMLID_31_" d="M-110,87.7c0,2.2-2,4-4.2,4h-78.1l-8.1,8.6l-9-8.6h-28.5c-2.2,0-4.1-1.8-4.1-4V-4.8
				c0-2.2,1.9-4.5,4.1-4.5h123.7c2.2,0,4.2,2.3,4.2,4.5V87.7z"/>
		</defs>
		<use xlink:href="#XMLID_31_"  overflow="visible" fill="#D3EDFF"/>
		<clipPath id="XMLID_418_">
			<use xlink:href="#XMLID_31_"  overflow="visible"/>
		</clipPath>
		<rect id="XMLID_32_" x="-247" y="-14.3" clip-path="url(#XMLID_418_)" fill="#5FCEF5" width="150" height="24"/>
	</g>
	<g id="XMLID_192_">
		<g id="XMLID_198_">
			<line id="XMLID_30_" fill="none" stroke="#4EB7F5" stroke-miterlimit="10" x1="-169" y1="43.2" x2="-133" y2="43.2"/>
		</g>
		<g id="XMLID_196_">
			<line id="XMLID_29_" fill="none" stroke="#4EB7F5" stroke-miterlimit="10" x1="-169" y1="36.2" x2="-133" y2="36.2"/>
		</g>
		<line id="XMLID_28_" fill="none" stroke="#4EB7F5" stroke-miterlimit="10" x1="-169" y1="50.2" x2="-133" y2="50.2"/>
		<g id="XMLID_193_">
			<line id="XMLID_27_" fill="none" stroke="#4EB7F5" stroke-miterlimit="10" x1="-169" y1="57.2" x2="-142" y2="57.2"/>
		</g>
	</g>
	<g id="XMLID_179_">
		<g id="XMLID_181_">
			<defs>
				<circle id="XMLID_183_" cx="-200.1" cy="48.8" r="20.8"/>
			</defs>
			<use xlink:href="#XMLID_183_"  overflow="visible" fill="#2B81CB"/>
			<clipPath id="XMLID_419_">
				<use xlink:href="#XMLID_183_"  overflow="visible"/>
			</clipPath>
			<g id="XMLID_184_" clip-path="url(#XMLID_419_)">
				<defs>
					<path id="XMLID_26_" d="M-195.8,52.8c1.1-0.6,2.1-1.5,2.8-2.6l2.3,1.8c0.2,0.3,0.6,0.3,0.8-0.1l1.2-3.7
						c0.2-0.3-0.1-0.7-0.4-0.7c0,0-2.7,0.1-2.6-0.3c0.1-0.6,0.2-1.3,0.2-2c0-4.8-3.9-8.7-8.7-8.7s-8.7,3.9-8.7,8.7
						c0,0.7,0.1,1.3,0.2,2c0.1,0.4-2.6,0.3-2.6,0.3c-0.3,0-0.6,0.3-0.4,0.7l1.2,3.7c0.2,0.3,0.6,0.3,0.8,0.1l2.3-1.8
						c0.7,1,1.7,1.9,2.8,2.6l0,0c0.3,0.2,0.6,0.3,0.9,0.5l0,0.3c-6.2,2.2-10.8,10.2-10.8,19.2h28.5c0-9-4.6-17-10.8-19.2l0-0.3
						C-196.4,53-196.1,52.9-195.8,52.8L-195.8,52.8z"/>
				</defs>
				<use xlink:href="#XMLID_26_"  overflow="visible" fill="#FFFFFF"/>
				<clipPath id="XMLID_420_">
					<use xlink:href="#XMLID_26_"  overflow="visible"/>
				</clipPath>
				<circle id="XMLID_191_" clip-path="url(#XMLID_420_)" fill="#5FCEF5" cx="-189.6" cy="50" r="4.2"/>
				<circle id="XMLID_190_" clip-path="url(#XMLID_420_)" fill="#5FCEF5" cx="-209.6" cy="50" r="4.2"/>
				<ellipse id="XMLID_189_" clip-path="url(#XMLID_420_)" fill="#FFFFFF" cx="-200.2" cy="45.3" rx="8.7" ry="8.7"/>
				<circle id="XMLID_188_" clip-path="url(#XMLID_420_)" fill="#5FCEF5" cx="-188" cy="34.2" r="13.7"/>
				<circle id="XMLID_187_" clip-path="url(#XMLID_420_)" fill="#5FCEF5" cx="-212.1" cy="36" r="11.9"/>
			</g>
		</g>
		<path id="XMLID_180_" fill="none" stroke="#5FCEF5" stroke-linecap="round" stroke-miterlimit="10" d="M-202.7,49.2
			c0.6,0.8,1.5,1.3,2.6,1.3c1.1,0,2-0.5,2.6-1.3"/>
	</g>
	<ellipse id="XMLID_178_" fill="#D3EDFF" cx="-166.1" cy="139.4" rx="74.2" ry="4.7"/>
	
		<circle id="XMLID_177_" fill="none" stroke="#2B5672" stroke-width="3" stroke-linejoin="round" stroke-miterlimit="10" cx="-114" cy="38.6" r="6.5"/>
	
		<line id="XMLID_25_" fill="none" stroke="#2B5672" stroke-width="3" stroke-linejoin="round" stroke-miterlimit="10" x1="-113.5" y1="49.7" x2="-113.5" y2="39.7"/>
	<g id="XMLID_144_">
		<defs>
			<circle id="XMLID_162_" cx="-113" cy="78.6" r="29.5"/>
		</defs>
		<use xlink:href="#XMLID_162_"  overflow="visible" fill="#2B5672"/>
		<clipPath id="XMLID_421_">
			<use xlink:href="#XMLID_162_"  overflow="visible"/>
		</clipPath>
		<g id="XMLID_163_" clip-path="url(#XMLID_421_)">
			<linearGradient id="XMLID_422_" gradientUnits="userSpaceOnUse" x1="-114.5" y1="50.0514" x2="-113.4689" y2="50.0514">
				<stop  offset="0" style="stop-color:#FFFFFF"/>
				<stop  offset="1" style="stop-color:#FFFFFF"/>
			</linearGradient>
			<line id="XMLID_175_" fill="none" stroke="url(#XMLID_422_)" stroke-miterlimit="10" x1="-114" y1="47.1" x2="-114" y2="53"/>
			<linearGradient id="XMLID_423_" gradientUnits="userSpaceOnUse" x1="-114" y1="106.1824" x2="-113" y2="106.1824">
				<stop  offset="0" style="stop-color:#FFFFFF"/>
				<stop  offset="1" style="stop-color:#FFFFFF"/>
			</linearGradient>
			
				<line id="XMLID_24_" fill="none" stroke="url(#XMLID_423_)" stroke-miterlimit="10" x1="-113.5" y1="102.7" x2="-113.5" y2="109.7"/>
			<linearGradient id="XMLID_424_" gradientUnits="userSpaceOnUse" x1="-144.5027" y1="79.5585" x2="-138.6739" y2="79.5585">
				<stop  offset="0" style="stop-color:#FFFFFF"/>
				<stop  offset="1" style="stop-color:#FFFFFF"/>
			</linearGradient>
			
				<line id="XMLID_173_" fill="none" stroke="url(#XMLID_424_)" stroke-miterlimit="10" x1="-144.5" y1="79.6" x2="-138.7" y2="79.5"/>
			<linearGradient id="XMLID_425_" gradientUnits="userSpaceOnUse" x1="-87.3261" y1="79.5585" x2="-81.4973" y2="79.5585">
				<stop  offset="0" style="stop-color:#FFFFFF"/>
				<stop  offset="1" style="stop-color:#FFFFFF"/>
			</linearGradient>
			
				<line id="XMLID_172_" fill="none" stroke="url(#XMLID_425_)" stroke-miterlimit="10" x1="-87.3" y1="79.5" x2="-81.5" y2="79.6"/>
			<linearGradient id="XMLID_426_" gradientUnits="userSpaceOnUse" x1="-139.9582" y1="64.7739" x2="-135.1611" y2="64.7739">
				<stop  offset="0" style="stop-color:#FFFFFF"/>
				<stop  offset="1" style="stop-color:#FFFFFF"/>
			</linearGradient>
			
				<line id="XMLID_171_" fill="none" stroke="url(#XMLID_426_)" stroke-miterlimit="10" x1="-139.7" y1="63.5" x2="-135.4" y2="66"/>
			<linearGradient id="XMLID_427_" gradientUnits="userSpaceOnUse" x1="-90.819" y1="93.0825" x2="-86.0179" y2="93.0825">
				<stop  offset="0" style="stop-color:#FFFFFF"/>
				<stop  offset="1" style="stop-color:#FFFFFF"/>
			</linearGradient>
			
				<line id="XMLID_170_" fill="none" stroke="url(#XMLID_427_)" stroke-miterlimit="10" x1="-90.6" y1="91.8" x2="-86.3" y2="94.3"/>
			<linearGradient id="XMLID_428_" gradientUnits="userSpaceOnUse" x1="-128.8491" y1="103.4442" x2="-125.5007" y2="103.4442">
				<stop  offset="0" style="stop-color:#FFFFFF"/>
				<stop  offset="1" style="stop-color:#FFFFFF"/>
			</linearGradient>
			
				<line id="XMLID_169_" fill="none" stroke="url(#XMLID_428_)" stroke-miterlimit="10" x1="-128.4" y1="105.6" x2="-125.9" y2="101.3"/>
			<linearGradient id="XMLID_429_" gradientUnits="userSpaceOnUse" x1="-100.4772" y1="54.4122" x2="-97.1293" y2="54.4122">
				<stop  offset="0" style="stop-color:#FFFFFF"/>
				<stop  offset="1" style="stop-color:#FFFFFF"/>
			</linearGradient>
			<line id="XMLID_168_" fill="none" stroke="url(#XMLID_429_)" stroke-miterlimit="10" x1="-100" y1="56.6" x2="-97.6" y2="52.3"/>
			<linearGradient id="XMLID_430_" gradientUnits="userSpaceOnUse" x1="-128.8485" y1="54.4122" x2="-125.5013" y2="54.4122">
				<stop  offset="0" style="stop-color:#FFFFFF"/>
				<stop  offset="1" style="stop-color:#FFFFFF"/>
			</linearGradient>
			
				<line id="XMLID_167_" fill="none" stroke="url(#XMLID_430_)" stroke-miterlimit="10" x1="-128.4" y1="52.3" x2="-125.9" y2="56.6"/>
			<linearGradient id="XMLID_431_" gradientUnits="userSpaceOnUse" x1="-100.4777" y1="103.4442" x2="-97.1287" y2="103.4442">
				<stop  offset="0" style="stop-color:#FFFFFF"/>
				<stop  offset="1" style="stop-color:#FFFFFF"/>
			</linearGradient>
			
				<line id="XMLID_166_" fill="none" stroke="url(#XMLID_431_)" stroke-miterlimit="10" x1="-100" y1="101.3" x2="-97.6" y2="105.6"/>
			<linearGradient id="XMLID_432_" gradientUnits="userSpaceOnUse" x1="-139.9599" y1="93.0825" x2="-135.1594" y2="93.0825">
				<stop  offset="0" style="stop-color:#FFFFFF"/>
				<stop  offset="1" style="stop-color:#FFFFFF"/>
			</linearGradient>
			
				<line id="XMLID_165_" fill="none" stroke="url(#XMLID_432_)" stroke-miterlimit="10" x1="-139.7" y1="94.3" x2="-135.4" y2="91.8"/>
			<linearGradient id="XMLID_433_" gradientUnits="userSpaceOnUse" x1="-90.8174" y1="64.7739" x2="-86.0196" y2="64.7739">
				<stop  offset="0" style="stop-color:#FFFFFF"/>
				<stop  offset="1" style="stop-color:#FFFFFF"/>
			</linearGradient>
			<line id="XMLID_164_" fill="none" stroke="url(#XMLID_433_)" stroke-miterlimit="10" x1="-90.6" y1="66" x2="-86.3" y2="63.5"/>
		</g>
	</g>
	<path id="XMLID_143_" fill="#A7E3FA" d="M-93.1,80.7c1.3-12.6-9.3-23.2-21.9-21.9c-9.4,0.9-16.9,8.5-17.9,17.9
		c-1.3,12.6,9.3,23.2,21.9,21.9C-101.6,97.6-94,90-93.1,80.7z"/>
	
		<polyline id="XMLID_23_" fill="none" stroke="#2B5672" stroke-width="3" stroke-linecap="round" stroke-linejoin="round" stroke-miterlimit="10" points="
		-108,85.2 -114.5,81.4 -114.5,68.7 	"/>
</g>
<g id="XMLID_79_">
	<path id="XMLID_133_" fill="#D8ECF9" d="M307.7,148.8c30.4,0,56.1,3.4,60.6,7.1L278.2,10.3l-43.3,14.5l12,131.7
		C249.5,152.6,275.8,148.8,307.7,148.8z"/>
	<path id="XMLID_131_" fill="#A9DFF6" d="M368.6,156.6c0,4.3-27.2,7.7-60.8,7.7s-60.9-3.5-60.9-7.7c0-4.3,27.3-7.7,60.9-7.7
		S368.6,152.3,368.6,156.6z"/>
	<path id="XMLID_130_" fill="#A9DFF6" d="M234.5,25c0,0-2.6-18.1,16.1-24.4s28,9.6,28,9.6l-44.3,14.9"/>
	<path id="XMLID_129_" fill="#FFFFFF" d="M252,125.8c0,1.6,1.3,2.8,2.8,2.8h16.8l6,5.8l6.4-5.8h53.3c1.5,0,2.7-1.2,2.7-2.7V73.7h-88
		V125.8z"/>
	<path id="XMLID_124_" fill="#62CCF2" d="M337.2,60.7h-82.3c-1.6,0-2.8,1.3-2.8,2.8v10.2h88V63.5C340,62,338.7,60.7,337.2,60.7z"/>
	<g id="XMLID_109_">
		<g id="XMLID_122_">
			<line id="XMLID_123_" fill="none" stroke="#5CB3E4" stroke-miterlimit="10" x1="298" y1="95.2" x2="323" y2="95.2"/>
		</g>
		<g id="XMLID_117_">
			<line id="XMLID_17_" fill="none" stroke="#5CB3E4" stroke-miterlimit="10" x1="298" y1="90.2" x2="323" y2="90.2"/>
		</g>
		<line id="XMLID_115_" fill="none" stroke="#5CB3E4" stroke-miterlimit="10" x1="298" y1="100.2" x2="323" y2="100.2"/>
		<g id="XMLID_110_">
			<line id="XMLID_113_" fill="none" stroke="#5CB3E4" stroke-miterlimit="10" x1="298" y1="105.2" x2="316" y2="105.2"/>
		</g>
	</g>
	<g id="XMLID_105_">
		<g id="XMLID_106_">
			<defs>
				<circle id="XMLID_108_" cx="278.9" cy="98.5" r="13.9"/>
			</defs>
			<use xlink:href="#XMLID_108_"  overflow="visible" fill="#3180C2"/>
			<clipPath id="XMLID_434_">
				<use xlink:href="#XMLID_108_"  overflow="visible"/>
			</clipPath>
		</g>
	</g>
	<polygon id="XMLID_104_" fill="#A9DFF6" points="278.9,90 281.5,95.1 287.2,95.9 283.1,99.9 284,105.6 278.9,102.9 273.9,105.6 
		274.8,99.9 270.7,95.9 276.4,95.1 	"/>
	
		<rect id="XMLID_103_" x="241.1" y="-12" transform="matrix(0.948 -0.3183 0.3183 0.948 13.3727 79.5553)" fill="#A9DFF6" width="18" height="21.6"/>
	<polygon id="XMLID_102_" fill="#A9DFF6" points="317.4,73.7 340,110.1 340,73.7 	"/>
	<path id="XMLID_101_" fill="#5CB3E4" d="M340,63.5c0-1.6-1.3-2.8-2.8-2.8h-27.8l8.1,13H340V63.5z"/>
</g>
<g id="XMLID_56_">
	<ellipse id="XMLID_78_" fill="#A2DBF4" cx="46" cy="108.1" rx="36.5" ry="2.5"/>
	<rect id="XMLID_77_" x="8.8" y="77" fill="#FFFFFF" width="72.7" height="14.2"/>
	<path id="XMLID_76_" fill="#FFFFFF" d="M90.3,82.3H0V6.3C0,2.8,2.8,0,6.3,0h77.8c3.5,0,6.3,2.8,6.3,6.3V82.3z"/>
	<path id="XMLID_75_" fill="#A7E3FA" d="M78.1,59.2H12c-2.6,0-4.7-2.1-4.7-4.7V12.2c0-2.6,2.1-4.7,4.7-4.7h66.1
		c2.6,0,4.7,2.1,4.7,4.7v42.4C82.8,57.1,80.7,59.2,78.1,59.2z"/>
	<path id="XMLID_74_" fill="#D3EDFF" d="M76.1,57.5c2.4-0.2,4.3-2.2,4.3-4.6v-39c0-3.2-2.1-4.7-4.7-4.7h-48
		C43.9,25.2,60,41.4,76.1,57.5z"/>
	<rect id="XMLID_73_" x="13.3" y="15.3" fill="#FFFFFF" width="5.7" height="5.7"/>
	<rect id="XMLID_72_" x="13.3" y="23.9" fill="#FFFFFF" width="5.7" height="5.7"/>
	<rect id="XMLID_71_" x="13.3" y="32.5" fill="#FFFFFF" width="5.7" height="5.7"/>
	<rect id="XMLID_70_" x="13.3" y="41.1" fill="#FFFFFF" width="5.7" height="5.7"/>
	<rect id="XMLID_69_" x="48.5" y="69" fill="#A2DBF4" width="32.3" height="2.7"/>
	<rect id="XMLID_68_" x="10.5" y="69" fill="#A2DBF4" width="8.4" height="2.7"/>
	<g id="XMLID_62_">
		<g id="XMLID_65_">
			<linearGradient id="XMLID_435_" gradientUnits="userSpaceOnUse" x1="29.8001" y1="33.336" x2="63.9411" y2="33.336">
				<stop  offset="0" style="stop-color:#FFFFFF"/>
				<stop  offset="1" style="stop-color:#FFFFFF"/>
			</linearGradient>
			
				<path id="XMLID_67_" fill="none" stroke="url(#XMLID_435_)" stroke-width="2.5" stroke-linecap="round" stroke-miterlimit="10" d="
				M31.1,33.3c0-8.7,7.1-15.8,15.8-15.8s15.8,7.1,15.8,15.8s-7.1,15.8-15.8,15.8"/>
			<linearGradient id="XMLID_436_" gradientUnits="userSpaceOnUse" x1="26.1839" y1="33.1197" x2="36.2252" y2="33.1197">
				<stop  offset="0" style="stop-color:#FFFFFF"/>
				<stop  offset="1" style="stop-color:#FFFFFF"/>
			</linearGradient>
			
				<path id="XMLID_66_" fill="none" stroke="url(#XMLID_436_)" stroke-width="2.5" stroke-linecap="round" stroke-miterlimit="10" d="
				M35,31.1c-0.9,0.9-3.9,3.6-3.9,3.6l-3.6-3.6"/>
		</g>
		<linearGradient id="XMLID_437_" gradientUnits="userSpaceOnUse" x1="44.6137" y1="30.9295" x2="47.1137" y2="30.9295">
			<stop  offset="0" style="stop-color:#FFFFFF"/>
			<stop  offset="1" style="stop-color:#FFFFFF"/>
		</linearGradient>
		
			<line id="XMLID_64_" fill="none" stroke="url(#XMLID_437_)" stroke-width="2.5" stroke-linecap="round" stroke-miterlimit="10" x1="45.9" y1="26.9" x2="45.9" y2="35"/>
		<linearGradient id="XMLID_438_" gradientUnits="userSpaceOnUse" x1="44.8964" y1="37.5039" x2="54.4656" y2="37.5039">
			<stop  offset="0" style="stop-color:#FFFFFF"/>
			<stop  offset="1" style="stop-color:#FFFFFF"/>
		</linearGradient>
		
			<line id="XMLID_63_" fill="none" stroke="url(#XMLID_438_)" stroke-width="2.5" stroke-linecap="round" stroke-miterlimit="10" x1="46.1" y1="35.1" x2="53.2" y2="39.9"/>
	</g>
	<path id="XMLID_57_" fill="#EAF7FF" d="M81.5,82.3H8.8v4.6l72.7-2.6C81.5,84.3,81.3,82.1,81.5,82.3z"/>
</g>
<g id="XMLID_36_">
	<g id="XMLID_138_">
		<defs>
			<path id="XMLID_21_" d="M12,284.7c0,2.2-2,4-4.2,4h-78.1l-8.1,8.6l-9-8.6h-28.5c-2.2,0-4.1-1.8-4.1-4v-92.5
				c0-2.2,1.9-4.5,4.1-4.5H7.8c2.2,0,4.2,2.3,4.2,4.5V284.7z"/>
		</defs>
		<use xlink:href="#XMLID_21_"  overflow="visible" fill="#D3EDFF"/>
		<clipPath id="XMLID_439_">
			<use xlink:href="#XMLID_21_"  overflow="visible"/>
		</clipPath>
		<rect id="XMLID_22_" x="-125" y="182.7" clip-path="url(#XMLID_439_)" fill="#5FCEF5" width="150" height="24"/>
	</g>
	<g id="XMLID_114_">
		<defs>
			<circle id="XMLID_118_" cx="-78.1" cy="245.8" r="20.8"/>
		</defs>
		<use xlink:href="#XMLID_118_"  overflow="visible" fill="#2B81CB"/>
		<clipPath id="XMLID_440_">
			<use xlink:href="#XMLID_118_"  overflow="visible"/>
		</clipPath>
		<g id="XMLID_119_" clip-path="url(#XMLID_440_)">
			<defs>
				<path id="XMLID_20_" d="M-73.8,249.8c1.1-0.6,2.1-1.5,2.8-2.6l2.3,1.8c0.2,0.3,0.6,0.3,0.8-0.1l1.2-3.7c0.2-0.3-0.1-0.7-0.4-0.7
					c0,0-2.7,0.1-2.6-0.3c0.1-0.6,0.2-1.3,0.2-2c0-4.8-3.9-8.7-8.7-8.7c-4.8,0-8.7,3.9-8.7,8.7c0,0.7,0.1,1.3,0.2,2
					c0.1,0.4-2.6,0.3-2.6,0.3c-0.3,0-0.6,0.3-0.4,0.7l1.2,3.7c0.2,0.3,0.6,0.3,0.8,0.1l2.3-1.8c0.7,1,1.7,1.9,2.8,2.6l0,0
					c0.3,0.2,0.6,0.3,0.9,0.5l0,0.3c-6.2,2.2-10.8,10.2-10.8,19.2h28.5c0-9-4.6-17-10.8-19.2l0-0.3C-74.4,250-74.1,249.9-73.8,249.8
					L-73.8,249.8z"/>
			</defs>
			<use xlink:href="#XMLID_20_"  overflow="visible" fill="#FFFFFF"/>
			<clipPath id="XMLID_441_">
				<use xlink:href="#XMLID_20_"  overflow="visible"/>
			</clipPath>
			<circle id="XMLID_137_" clip-path="url(#XMLID_441_)" fill="#5FCEF5" cx="-67.6" cy="247" r="4.2"/>
			<circle id="XMLID_136_" clip-path="url(#XMLID_441_)" fill="#5FCEF5" cx="-87.6" cy="247" r="4.2"/>
			<ellipse id="XMLID_135_" clip-path="url(#XMLID_441_)" fill="#FFFFFF" cx="-78.2" cy="242.3" rx="8.7" ry="8.7"/>
			<circle id="XMLID_134_" clip-path="url(#XMLID_441_)" fill="#5FCEF5" cx="-66" cy="231.2" r="13.7"/>
			<circle id="XMLID_132_" clip-path="url(#XMLID_441_)" fill="#5FCEF5" cx="-90.1" cy="233" r="11.9"/>
		</g>
	</g>
	<path id="XMLID_112_" fill="none" stroke="#5FCEF5" stroke-linecap="round" stroke-miterlimit="10" d="M-80.7,246.2
		c0.6,0.8,1.5,1.3,2.6,1.3c1.1,0,2-0.5,2.6-1.3"/>
	<ellipse id="XMLID_111_" fill="#D3EDFF" cx="-44.1" cy="336.4" rx="74.2" ry="4.7"/>
	<circle id="XMLID_55_" fill="#EAF7FF" cx="7.6" cy="280.4" r="22.4"/>
	<g id="XMLID_46_">
		<path id="XMLID_49_" fill="#2B81CB" d="M13.4,281.9l-7.1-7.1l-6.4,6.4l-4,11.1l11.1-4l0,0L13.4,281.9z M-1.5,289.7l2-5.7l3.6,3.6
			L-1.5,289.7z"/>
		<path id="XMLID_48_" fill="#2B81CB" d="M15.6,279.8l3.1-3.1c0.6-0.6,0.6-1.6,0-2.2l-4.9-4.9c-0.6-0.6-1.6-0.6-2.2,0l-3.1,3.1
			L15.6,279.8z"/>
	</g>
	
		<path id="XMLID_45_" fill="none" stroke="#3899EC" stroke-linecap="round" stroke-linejoin="round" stroke-miterlimit="10" stroke-dasharray="1,4" d="
		M-41,224.6h33.8c0,0,3.7,0.8,3.7,3.3c0,1.1-0.2,2-0.4,2.6c-0.3,0.8-1,1.3-1.8,1.3h-29.8c-5,0-5.5,1.2-5.5,4.2
		c0,2.1,1.1,2.1,1.9,2.5c0.4,0.2,0.8,0.3,1.2,0.3h28.5c3.2,0,5.8,0,5.8,3.3c0,4.1-3.5,3.5-3.5,3.5s-26.5,0-29.3,0
		c-2.8,0-4.7,1-4.7,3.3c0,2.3,4,3.3,4,3.3H8.1h0c16.3,0,29.4,13.7,28.4,30.2c-0.9,14.1-12.4,25.7-26.5,26.5
		c-16.5,1-30.2-12.1-30.2-28.4c0-3.6,0.7-7.1,1.9-10.3"/>
	<g id="XMLID_41_">
		<circle id="XMLID_44_" fill="#FFFFFF" cx="-110.7" cy="198.6" r="2.2"/>
		<circle id="XMLID_43_" fill="#FFFFFF" cx="-102.4" cy="198.6" r="2.2"/>
		<path id="XMLID_19_" fill="#FFFFFF" d="M7,197.7c0,1.1-0.9,2-2,2h-99c-1.1,0-2-0.9-2-2l0,0c0-1.1,0.9-2,2-2H5
			C6.1,195.7,7,196.6,7,197.7L7,197.7z"/>
	</g>
</g>
<g id="XMLID_37_">
	<circle id="XMLID_40_" fill="#FFFFFF" cx="-234.7" cy="0.6" r="2.2"/>
	<circle id="XMLID_39_" fill="#FFFFFF" cx="-226.4" cy="0.6" r="2.2"/>
	<path id="XMLID_18_" fill="#FFFFFF" d="M-117-0.3c0,1.1-0.9,2-2,2h-99c-1.1,0-2-0.9-2-2l0,0c0-1.1,0.9-2,2-2h99
		C-117.9-2.3-117-1.4-117-0.3L-117-0.3z"/>
</g>
</svg>
