<svg class="symbol-wix-hosting-clipart" version="1.1" xmlns="http://www.w3.org/2000/svg"
    xmlns:xlink="http://www.w3.org/1999/xlink"
    width="122px" height="54px" viewBox="0 0 122 54">
  <path style="fill:#A2DBF4;" d="M9.278,28.809c0.758-3.854,4.152-6.762,8.228-6.762c0.57,0,1.127,0.058,1.665,0.166
                                 C20.782,15.048,27.173,9.69,34.825,9.69c7,0,12.938,4.487,15.135,10.736c6.982,0.315,12.55,6.059,12.55,13.119
                                 c0,7.262-6.029,13.149-13.291,13.149c-0.363,0-0.219-0.025-1.219-0.054V47H9.617c-4.943,0-8.951-4.161-8.951-9.104
                                 C0.667,33.067,4.493,28.989,9.278,28.809z"/>
  <path style="fill:#FFFFFF;" d="M108.494,28.14c-1.114-5.664-6.102-9.938-12.092-9.938c-0.838,0-1.656,0.085-2.447,0.245
                                 C91.586,7.915,82.194,0.041,70.947,0.041c-10.288,0-19.014,6.595-22.244,15.778c-10.261,0.464-18.444,8.905-18.444,19.28
                                 c0,10.673,8.569,18.9,19.242,18.9C50.035,54,51,54,51,54h56.995c7.265,0,13.155-5.677,13.155-12.942
                                 C121.15,33.961,115.526,28.404,108.494,28.14z"/>
  <path style="fill:#5FCEF5;" d="M83,41.511c-0.604,0-1-0.472-1-1.051v-2.895c0,1.181-4.062,3.746-8.358,3.746
                                 c-5.321,0-9.572-3.864-9.916-8.989c-0.018-0.275,0.09-0.539,0.29-0.743c0.203-0.207,0.494-0.326,0.79-0.326
                                 c0.621,0,1.082,0.414,1.13,0.962c0.335,3.769,3.814,6.953,7.595,6.953c2.589,0,5.458-1.364,6.887-3.26l-2.788,0.004
                                 c-0.273,0-0.529-0.102-0.722-0.286c-0.192-0.185-0.298-0.409-0.298-0.67c0-0.539,0.457-0.956,1.018-0.956h4.587
                                 C83.349,34,84,34.843,84,35.931v4.529C84,41.039,83.604,41.511,83,41.511z M65,21.253c0.604,0,1,0.472,1,1.051v2.895
                                 c0-1.181,3.923-3.746,8.22-3.746c5.321,0,9.503,3.864,9.847,8.989c0.018,0.275-0.125,0.539-0.324,0.743
                                 c-0.203,0.207-0.511,0.326-0.807,0.326c-0.621,0-1.09-0.414-1.138-0.962c-0.335-3.769-3.818-6.953-7.6-6.953
                                 c-2.589,0-5.46,1.364-6.889,3.26l2.787-0.004c0.273,0,0.528,0.102,0.721,0.286c0.192,0.185,0.297,0.527,0.297,0.789
                                 c0,0.539-0.457,1.075-1.018,1.075h-4.587C64.375,29,64,27.921,64,26.833v-4.529C64,21.724,64.396,21.253,65,21.253z"/>
</svg>
