<svg xmlns="http://www.w3.org/2000/svg" width="90.3" height="110.6" xmlns:xlink="http://www.w3.org/1999/xlink" viewBox="0 0 90.3 110.6"><ellipse cx="286.9" cy="371.4" fill="#D3EDFF" rx="58.3" ry="4.7"/><defs><path id="a" d="M353 346.7c0 2.2-2 4-4.2 4h-78.1l-8.1 8.6-9-8.6h-28.5c-2.2 0-4.1-1.8-4.1-4v-92.5c0-2.2 1.9-4.5 4.1-4.5h123.7c2.2 0 4.2 2.3 4.2 4.5v92.5z"/></defs><use fill="#D9EEFF" xlink:href="#a" overflow="visible"/><clipPath id="b"><use xlink:href="#a" overflow="visible"/></clipPath><path fill="#5FCEF5" d="M216 244.7h150v24H216z" clip-path="url(#b)"/><g fill="#FFF"><circle cx="227.3" cy="259.6" r="2.2"/><circle cx="235.6" cy="259.6" r="2.2"/><path d="M345 258.7c0 1.1-.9 2-2 2h-99c-1.1 0-2-.9-2-2s.9-2 2-2h99c1.1 0 2 .9 2 2z"/></g><g><defs><circle id="c" cx="286.8" cy="308.5" r="29.5"/></defs><use fill="#2B81CB" xlink:href="#c" overflow="visible"/><clipPath id="d"><use xlink:href="#c" overflow="visible"/></clipPath><g clip-path="url(#d)"><path fill="#FFF" d="M271 336c0-3.9 1.8-7.4 4.6-9.9-1.3-2.6-2.4-5.9-3.1-9.6-1.9-9.4-.5-17.4 3.1-18 3.6-.6 8 6.6 9.9 15.9.5 2.7.8 5.2.8 7.5h1c0-2.3.3-4.9.8-7.5 1.9-9.4 6.3-16.5 9.9-15.9 3.6.6 5 8.6 3.1 18-.7 3.6-1.8 6.9-3.1 9.6 2.9 2.5 4.6 6 4.6 9.9 0 0-.6 10.5-15.8 10.5-15.2 0-15.8-10.5-15.8-10.5z"/><g fill="#2B81CB"><circle cx="281.9" cy="333.2" r="2"/><circle cx="291.6" cy="333.2" r="2"/></g></g></g><g><defs><path id="e" d="M-110 87.7c0 2.2-2 4-4.2 4h-78.1l-8.1 8.6-9-8.6h-28.5c-2.2 0-4.1-1.8-4.1-4V-4.8c0-2.2 1.9-4.5 4.1-4.5h123.7c2.2 0 4.2 2.3 4.2 4.5v92.5z"/></defs><use fill="#D3EDFF" xlink:href="#e" overflow="visible"/><clipPath id="f"><use xlink:href="#e" overflow="visible"/></clipPath><path fill="#5FCEF5" d="M-247-14.3h150v24h-150z" clip-path="url(#f)"/><path fill="none" stroke="#4EB7F5" stroke-miterlimit="10" d="M-169 43.2h36M-169 36.2h36M-169 50.2h36M-169 57.2h27"/><defs><circle id="g" cx="-200.1" cy="48.8" r="20.8"/></defs><use fill="#2B81CB" xlink:href="#g" overflow="visible"/><clipPath id="h"><use xlink:href="#g" overflow="visible"/></clipPath><g clip-path="url(#h)"><defs><path id="i" d="M-195.8 52.8c1.1-.6 2.1-1.5 2.8-2.6l2.3 1.8c.2.3.6.3.8-.1l1.2-3.7c.2-.3-.1-.7-.4-.7 0 0-2.7.1-2.6-.3.1-.6.2-1.3.2-2 0-4.8-3.9-8.7-8.7-8.7s-8.7 3.9-8.7 8.7c0 .7.1 1.3.2 2 .1.4-2.6.3-2.6.3-.3 0-.6.3-.4.7l1.2 3.7c.2.3.6.3.8.1l2.3-1.8c.7 1 1.7 1.9 2.8 2.6.3.2.6.3.9.5v.3c-6.2 2.2-10.8 10.2-10.8 19.2h28.5c0-9-4.6-17-10.8-19.2v-.3c.4-.3.7-.4 1-.5z"/></defs><use fill="#FFF" xlink:href="#i" overflow="visible"/><clipPath id="j"><use xlink:href="#i" overflow="visible"/></clipPath><circle cx="-189.6" cy="50" r="4.2" fill="#5FCEF5" clip-path="url(#j)"/><circle cx="-209.6" cy="50" r="4.2" fill="#5FCEF5" clip-path="url(#j)"/><ellipse cx="-200.2" cy="45.3" fill="#FFF" clip-path="url(#j)" rx="8.7" ry="8.7"/><circle cx="-188" cy="34.2" r="13.7" fill="#5FCEF5" clip-path="url(#j)"/><circle cx="-212.1" cy="36" r="11.9" fill="#5FCEF5" clip-path="url(#j)"/></g><path fill="none" stroke="#5FCEF5" stroke-miterlimit="10" d="M-202.7 49.2c.6.8 1.5 1.3 2.6 1.3s2-.5 2.6-1.3" stroke-linecap="round"/><ellipse cx="-166.1" cy="139.4" fill="#D3EDFF" rx="74.2" ry="4.7"/><circle cx="-114" cy="38.6" r="6.5" fill="none" stroke="#2B5672" stroke-width="3" stroke-miterlimit="10" stroke-linejoin="round"/><path fill="none" stroke="#2B5672" stroke-width="3" stroke-miterlimit="10" d="M-113.5 49.7v-10" stroke-linejoin="round"/><g><defs><circle id="k" cx="-113" cy="78.6" r="29.5"/></defs><use fill="#2B5672" xlink:href="#k" overflow="visible"/><clipPath id="l"><use xlink:href="#k" overflow="visible"/></clipPath><g clip-path="url(#l)"><linearGradient id="m" x1="-114.5" x2="-113.469" y1="50.051" y2="50.051" gradientUnits="userSpaceOnUse"><stop offset="0" stop-color="#FFF"/><stop offset="1" stop-color="#FFF"/></linearGradient><path fill="none" stroke="url(#m)" stroke-miterlimit="10" d="M-114 47.1V53"/><linearGradient id="n" x1="-114" x2="-113" y1="106.182" y2="106.182" gradientUnits="userSpaceOnUse"><stop offset="0" stop-color="#FFF"/><stop offset="1" stop-color="#FFF"/></linearGradient><path fill="none" stroke="url(#n)" stroke-miterlimit="10" d="M-113.5 102.7v7"/><linearGradient id="o" x1="-144.503" x2="-138.674" y1="79.558" y2="79.558" gradientUnits="userSpaceOnUse"><stop offset="0" stop-color="#FFF"/><stop offset="1" stop-color="#FFF"/></linearGradient><path fill="none" stroke="url(#o)" stroke-miterlimit="10" d="M-144.5 79.6l5.8-.1"/><linearGradient id="p" x1="-87.326" x2="-81.497" y1="79.558" y2="79.558" gradientUnits="userSpaceOnUse"><stop offset="0" stop-color="#FFF"/><stop offset="1" stop-color="#FFF"/></linearGradient><path fill="none" stroke="url(#p)" stroke-miterlimit="10" d="M-87.3 79.5l5.8.1"/><linearGradient id="q" x1="-139.958" x2="-135.161" y1="64.774" y2="64.774" gradientUnits="userSpaceOnUse"><stop offset="0" stop-color="#FFF"/><stop offset="1" stop-color="#FFF"/></linearGradient><path fill="none" stroke="url(#q)" stroke-miterlimit="10" d="M-139.7 63.5l4.3 2.5"/><linearGradient id="r" x1="-90.819" x2="-86.018" y1="93.082" y2="93.082" gradientUnits="userSpaceOnUse"><stop offset="0" stop-color="#FFF"/><stop offset="1" stop-color="#FFF"/></linearGradient><path fill="none" stroke="url(#r)" stroke-miterlimit="10" d="M-90.6 91.8l4.3 2.5"/><linearGradient id="s" x1="-128.849" x2="-125.501" y1="103.444" y2="103.444" gradientUnits="userSpaceOnUse"><stop offset="0" stop-color="#FFF"/><stop offset="1" stop-color="#FFF"/></linearGradient><path fill="none" stroke="url(#s)" stroke-miterlimit="10" d="M-128.4 105.6l2.5-4.3"/><linearGradient id="t" x1="-100.477" x2="-97.129" y1="54.412" y2="54.412" gradientUnits="userSpaceOnUse"><stop offset="0" stop-color="#FFF"/><stop offset="1" stop-color="#FFF"/></linearGradient><path fill="none" stroke="url(#t)" stroke-miterlimit="10" d="M-100 56.6l2.4-4.3"/><linearGradient id="u" x1="-128.849" x2="-125.501" y1="54.412" y2="54.412" gradientUnits="userSpaceOnUse"><stop offset="0" stop-color="#FFF"/><stop offset="1" stop-color="#FFF"/></linearGradient><path fill="none" stroke="url(#u)" stroke-miterlimit="10" d="M-128.4 52.3l2.5 4.3"/><linearGradient id="v" x1="-100.478" x2="-97.129" y1="103.444" y2="103.444" gradientUnits="userSpaceOnUse"><stop offset="0" stop-color="#FFF"/><stop offset="1" stop-color="#FFF"/></linearGradient><path fill="none" stroke="url(#v)" stroke-miterlimit="10" d="M-100 101.3l2.4 4.3"/><linearGradient id="w" x1="-139.96" x2="-135.159" y1="93.082" y2="93.082" gradientUnits="userSpaceOnUse"><stop offset="0" stop-color="#FFF"/><stop offset="1" stop-color="#FFF"/></linearGradient><path fill="none" stroke="url(#w)" stroke-miterlimit="10" d="M-139.7 94.3l4.3-2.5"/><linearGradient id="x" x1="-90.817" x2="-86.02" y1="64.774" y2="64.774" gradientUnits="userSpaceOnUse"><stop offset="0" stop-color="#FFF"/><stop offset="1" stop-color="#FFF"/></linearGradient><path fill="none" stroke="url(#x)" stroke-miterlimit="10" d="M-90.6 66l4.3-2.5"/></g></g><path fill="#A7E3FA" d="M-93.1 80.7c1.3-12.6-9.3-23.2-21.9-21.9-9.4.9-16.9 8.5-17.9 17.9-1.3 12.6 9.3 23.2 21.9 21.9 9.4-1 17-8.6 17.9-17.9z"/><path fill="none" stroke="#2B5672" stroke-width="3" stroke-miterlimit="10" d="M-108 85.2l-6.5-3.8V68.7" stroke-linecap="round" stroke-linejoin="round"/></g><g><path fill="#D8ECF9" d="M307.7 148.8c30.4 0 56.1 3.4 60.6 7.1L278.2 10.3l-43.3 14.5 12 131.7c2.6-3.9 28.9-7.7 60.8-7.7z"/><path fill="#A9DFF6" d="M368.6 156.6c0 4.3-27.2 7.7-60.8 7.7s-60.9-3.5-60.9-7.7c0-4.3 27.3-7.7 60.9-7.7s60.8 3.4 60.8 7.7zM234.5 25S231.9 6.9 250.6.6s28 9.6 28 9.6l-44.3 14.9"/><path fill="#FFF" d="M252 125.8c0 1.6 1.3 2.8 2.8 2.8h16.8l6 5.8 6.4-5.8h53.3c1.5 0 2.7-1.2 2.7-2.7V73.7h-88v52.1z"/><path fill="#62CCF2" d="M337.2 60.7h-82.3c-1.6 0-2.8 1.3-2.8 2.8v10.2h88V63.5c-.1-1.5-1.4-2.8-2.9-2.8z"/><path fill="none" stroke="#5CB3E4" stroke-miterlimit="10" d="M298 95.2h25M298 90.2h25M298 100.2h25M298 105.2h18"/><defs><circle id="y" cx="278.9" cy="98.5" r="13.9"/></defs><use fill="#3180C2" xlink:href="#y" overflow="visible"/><path fill="#A9DFF6" d="M278.9 90l2.6 5.1 5.7.8-4.1 4 .9 5.7-5.1-2.7-5 2.7.9-5.7-4.1-4 5.7-.8zM238.116-8.563l17.064-5.73 6.875 20.478-17.064 5.73zM317.4 73.7l22.6 36.4V73.7z"/><path fill="#5CB3E4" d="M340 63.5c0-1.6-1.3-2.8-2.8-2.8h-27.8l8.1 13H340V63.5z"/></g><g><ellipse cx="46" cy="108.1" fill="#A2DBF4" rx="36.5" ry="2.5"/><path fill="#FFF" d="M8.8 77h72.7v14.2H8.8z"/><path fill="#FFF" d="M90.3 82.3H0v-76C0 2.8 2.8 0 6.3 0h77.8c3.5 0 6.3 2.8 6.3 6.3v76z"/><path fill="#A7E3FA" d="M78.1 59.2H12c-2.6 0-4.7-2.1-4.7-4.7V12.2c0-2.6 2.1-4.7 4.7-4.7h66.1c2.6 0 4.7 2.1 4.7 4.7v42.4c0 2.5-2.1 4.6-4.7 4.6z"/><path fill="#D3EDFF" d="M76.1 57.5c2.4-.2 4.3-2.2 4.3-4.6v-39c0-3.2-2.1-4.7-4.7-4.7h-48c16.2 16 32.3 32.2 48.4 48.3z"/><path fill="#FFF" d="M13.3 15.3H19V21h-5.7zM13.3 23.9H19v5.7h-5.7zM13.3 32.5H19v5.7h-5.7zM13.3 41.1H19v5.7h-5.7z"/><path fill="#A2DBF4" d="M48.5 69h32.3v2.7H48.5zM10.5 69h8.4v2.7h-8.4z"/><linearGradient id="z" x1="29.8" x2="63.941" y1="33.336" y2="33.336" gradientUnits="userSpaceOnUse"><stop offset="0" stop-color="#FFF"/><stop offset="1" stop-color="#FFF"/></linearGradient><path fill="none" stroke="url(#z)" stroke-width="2.5" stroke-miterlimit="10" d="M31.1 33.3c0-8.7 7.1-15.8 15.8-15.8s15.8 7.1 15.8 15.8-7.1 15.8-15.8 15.8" stroke-linecap="round"/><linearGradient id="A" x1="26.184" x2="36.225" y1="33.12" y2="33.12" gradientUnits="userSpaceOnUse"><stop offset="0" stop-color="#FFF"/><stop offset="1" stop-color="#FFF"/></linearGradient><path fill="none" stroke="url(#A)" stroke-width="2.5" stroke-miterlimit="10" d="M35 31.1c-.9.9-3.9 3.6-3.9 3.6l-3.6-3.6" stroke-linecap="round"/><linearGradient id="B" x1="44.614" x2="47.114" y1="30.93" y2="30.93" gradientUnits="userSpaceOnUse"><stop offset="0" stop-color="#FFF"/><stop offset="1" stop-color="#FFF"/></linearGradient><path fill="none" stroke="url(#B)" stroke-width="2.5" stroke-miterlimit="10" d="M45.9 26.9V35" stroke-linecap="round"/><linearGradient id="C" x1="44.896" x2="54.466" y1="37.504" y2="37.504" gradientUnits="userSpaceOnUse"><stop offset="0" stop-color="#FFF"/><stop offset="1" stop-color="#FFF"/></linearGradient><path fill="none" stroke="url(#C)" stroke-width="2.5" stroke-miterlimit="10" d="M46.1 35.1l7.1 4.8" stroke-linecap="round"/><path fill="#EAF7FF" d="M81.5 82.3H8.8v4.6l72.7-2.6s-.2-2.2 0-2z"/></g><g><defs><path id="D" d="M12 284.7c0 2.2-2 4-4.2 4h-78.1l-8.1 8.6-9-8.6h-28.5c-2.2 0-4.1-1.8-4.1-4v-92.5c0-2.2 1.9-4.5 4.1-4.5H7.8c2.2 0 4.2 2.3 4.2 4.5v92.5z"/></defs><use fill="#D3EDFF" xlink:href="#D" overflow="visible"/><clipPath id="E"><use xlink:href="#D" overflow="visible"/></clipPath><path fill="#5FCEF5" d="M-125 182.7H25v24h-150z" clip-path="url(#E)"/><defs><circle id="F" cx="-78.1" cy="245.8" r="20.8"/></defs><use fill="#2B81CB" xlink:href="#F" overflow="visible"/><clipPath id="G"><use xlink:href="#F" overflow="visible"/></clipPath><g clip-path="url(#G)"><defs><path id="H" d="M-73.8 249.8c1.1-.6 2.1-1.5 2.8-2.6l2.3 1.8c.2.3.6.3.8-.1l1.2-3.7c.2-.3-.1-.7-.4-.7 0 0-2.7.1-2.6-.3.1-.6.2-1.3.2-2 0-4.8-3.9-8.7-8.7-8.7-4.8 0-8.7 3.9-8.7 8.7 0 .7.1 1.3.2 2 .1.4-2.6.3-2.6.3-.3 0-.6.3-.4.7l1.2 3.7c.2.3.6.3.8.1l2.3-1.8c.7 1 1.7 1.9 2.8 2.6.3.2.6.3.9.5v.3c-6.2 2.2-10.8 10.2-10.8 19.2H-64c0-9-4.6-17-10.8-19.2v-.3c.4-.3.7-.4 1-.5z"/></defs><use fill="#FFF" xlink:href="#H" overflow="visible"/><clipPath id="I"><use xlink:href="#H" overflow="visible"/></clipPath><circle cx="-67.6" cy="247" r="4.2" fill="#5FCEF5" clip-path="url(#I)"/><circle cx="-87.6" cy="247" r="4.2" fill="#5FCEF5" clip-path="url(#I)"/><ellipse cx="-78.2" cy="242.3" fill="#FFF" clip-path="url(#I)" rx="8.7" ry="8.7"/><circle cx="-66" cy="231.2" r="13.7" fill="#5FCEF5" clip-path="url(#I)"/><circle cx="-90.1" cy="233" r="11.9" fill="#5FCEF5" clip-path="url(#I)"/></g><path fill="none" stroke="#5FCEF5" stroke-miterlimit="10" d="M-80.7 246.2c.6.8 1.5 1.3 2.6 1.3s2-.5 2.6-1.3" stroke-linecap="round"/><ellipse cx="-44.1" cy="336.4" fill="#D3EDFF" rx="74.2" ry="4.7"/><circle cx="7.6" cy="280.4" r="22.4" fill="#EAF7FF"/><g fill="#2B81CB"><path d="M13.4 281.9l-7.1-7.1-6.4 6.4-4 11.1 11.1-4 6.4-6.4zm-14.9 7.8l2-5.7 3.6 3.6-5.6 2.1zM15.6 279.8l3.1-3.1c.6-.6.6-1.6 0-2.2l-4.9-4.9c-.6-.6-1.6-.6-2.2 0l-3.1 3.1 7.1 7.1z"/></g><path fill="none" stroke="#3899EC" stroke-miterlimit="10" d="M-41 224.6h33.8s3.7.8 3.7 3.3c0 1.1-.2 2-.4 2.6-.3.8-1 1.3-1.8 1.3h-29.8c-5 0-5.5 1.2-5.5 4.2 0 2.1 1.1 2.1 1.9 2.5.4.2.8.3 1.2.3h28.5c3.2 0 5.8 0 5.8 3.3 0 4.1-3.5 3.5-3.5 3.5h-29.3c-2.8 0-4.7 1-4.7 3.3s4 3.3 4 3.3H8.1c16.3 0 29.4 13.7 28.4 30.2-.9 14.1-12.4 25.7-26.5 26.5-16.5 1-30.2-12.1-30.2-28.4 0-3.6.7-7.1 1.9-10.3" stroke-linecap="round" stroke-linejoin="round" stroke-dasharray="1 4"/><g fill="#FFF"><circle cx="-110.7" cy="198.6" r="2.2"/><circle cx="-102.4" cy="198.6" r="2.2"/><path d="M7 197.7c0 1.1-.9 2-2 2h-99c-1.1 0-2-.9-2-2s.9-2 2-2H5c1.1 0 2 .9 2 2z"/></g></g><g fill="#FFF"><circle cx="-234.7" cy=".6" r="2.2"/><circle cx="-226.4" cy=".6" r="2.2"/><path d="M-117-.3c0 1.1-.9 2-2 2h-99c-1.1 0-2-.9-2-2s.9-2 2-2h99c1.1 0 2 .9 2 2z"/></g></svg>