<svg xmlns="http://www.w3.org/2000/svg" width="112" height="96" viewBox="0 0 112 96"><g fill="none" fill-rule="evenodd"><path fill="#A2DBF4" d="M70 94c0 1.104-6.492 2-14.5 2-8.007 0-14.5-.896-14.5-2s6.493-2 14.5-2c8.008 0 14.5.896 14.5 2"/><path stroke="#6DD0F2" stroke-width="2" d="M110.5 75.613a4 4 0 0 1-4 4H5.5a4 4 0 0 1-4-4V5a4 4 0 0 1 4-4h101a4 4 0 0 1 4 4v70.613z" stroke-linecap="round" stroke-linejoin="round" stroke-dasharray=".995 3.982"/><path fill="#6DD0F2" d="M17.093 14.102c0 2.18-1.76 3.945-3.933 3.945a3.94 3.94 0 0 1-3.934-3.945 3.94 3.94 0 0 1 3.934-3.946 3.94 3.94 0 0 1 3.933 3.946M17.093 25.555c0 2.18-1.76 3.945-3.933 3.945a3.94 3.94 0 0 1-3.934-3.945 3.94 3.94 0 0 1 3.934-3.946 3.94 3.94 0 0 1 3.933 3.945M17.093 37.008c0 2.18-1.76 3.945-3.933 3.945a3.94 3.94 0 0 1-3.934-3.945 3.94 3.94 0 0 1 3.934-3.946 3.94 3.94 0 0 1 3.933 3.946M17.093 48.46c0 2.18-1.76 3.946-3.933 3.946a3.94 3.94 0 0 1-3.934-3.945 3.94 3.94 0 0 1 3.934-3.945 3.94 3.94 0 0 1 3.933 3.946"/><path fill="#3899EC" d="M71 63.374C71 66.144 68.732 68 65.97 68h-22C41.21 68 39 66.144 39 63.374v-48.14C39 12.463 41.21 10 43.97 10h22c2.762 0 5.03 2.463 5.03 5.233v48.14"/><path fill="#FFF" d="M69 56.354C69 57.462 68.075 58 66.97 58h-24c-1.104 0-1.97-.538-1.97-1.646V17.24c0-1.11.866-2.24 1.97-2.24h24c1.105 0 2.03 1.13 2.03 2.24v39.114"/><path fill="#A2DBF4" d="M46 20h18v21H46V20zM46 45h18v1H46v-1zM46 48h18v1H46v-1zM46 51h18v1H46v-1z"/><path fill="#FFF" d="M58 63a1 1 0 0 1-1 1h-3a1 1 0 0 1-1-1v-2a1 1 0 0 1 1-1h3a1 1 0 0 1 1 1v2"/></g></svg>