<?xml version="1.0" encoding="UTF-8" standalone="no"?>
<svg width="96px" height="112px" viewBox="0 0 96 112" version="1.1" xmlns="http://www.w3.org/2000/svg" xmlns:xlink="http://www.w3.org/1999/xlink" xmlns:sketch="http://www.bohemiancoding.com/sketch/ns">
    <g id="Page-1" stroke="none" stroke-width="1" fill="none" fill-rule="evenodd" sketch:type="MSPage">
        <g id="Publish_illustration" sketch:type="MSArtboardGroup">
            <g id="Imported-Layers" sketch:type="MSLayerGroup" transform="translate(0.000000, 1.000000)">
                <path d="M82.5,108 C82.5,109.381 65.263,110.5 44,110.5 C22.737,110.5 5.5,109.381 5.5,108 C5.5,106.619 22.737,105.5 44,105.5 C65.263,105.5 82.5,106.619 82.5,108" id="Fill-1" fill="#A2DBF4" sketch:type="MSShapeGroup"></path>
                <path d="M88,80.704 C88,81.972 86.972,83 85.704,83 L2.296,83 C1.028,83 0,81.972 0,80.704 L0,21.296 C0,20.028 1.028,19 2.296,19 L85.704,19 C86.972,19 88,20.028 88,21.296 L88,80.704" id="Fill-2" fill="#FFFFFF" sketch:type="MSShapeGroup"></path>
                <g id="Group-5" transform="translate(0.000000, 19.000000)">
                    <mask id="mask-2" sketch:name="Clip 4" fill="white">
                        <path id="path-1" d="M88,61.704 C88,62.972 86.972,64 85.704,64 L2.296,64 C1.028,64 0,62.972 0,61.704 L0,2.296 C0,1.028 1.028,0 2.296,0 L85.704,0 C86.972,0 88,1.028 88,2.296 L88,61.704"></path>
                    </mask>
                    <g id="Clip-4"></g>
                    <path d="M96,11.47 C96,12.315 95.315,13 94.47,13 L-1.47,13 C-2.315,13 -3,12.315 -3,11.47 L-3,-1.47 C-3,-2.315 -2.315,-3 -1.47,-3 L94.47,-3 C95.315,-3 96,-2.315 96,-1.47 L96,11.47" id="Fill-3" fill="#6DD0F2" sketch:type="MSShapeGroup" mask="url(#mask-2)"></path>
                </g>
                <path d="M10.693,25.699 C10.693,26.904 9.716,27.881 8.51,27.881 C7.305,27.881 6.328,26.904 6.328,25.699 C6.328,24.494 7.305,23.517 8.51,23.517 C9.716,23.517 10.693,24.494 10.693,25.699" id="Fill-6" fill="#FFFFFF" sketch:type="MSShapeGroup"></path>
                <path d="M17.651,25.699 C17.651,26.904 16.674,27.881 15.469,27.881 C14.264,27.881 13.287,26.904 13.287,25.699 C13.287,24.494 14.264,23.517 15.469,23.517 C16.674,23.517 17.651,24.494 17.651,25.699" id="Fill-7" fill="#FFFFFF" sketch:type="MSShapeGroup"></path>
                <path d="M69.743,57.322 L74.777,51.993 L79.81,57.322" id="Stroke-8" stroke="#3899EC" stroke-width="2" stroke-linecap="round" stroke-linejoin="round" sketch:type="MSShapeGroup"></path>
                <path d="M35,16 L35,6.086 C35,2.947 37.691,0.424 40.83,0.424 C43.969,0.424 46.62,3.078 46.62,6.217 L46.898,80.502 C46.898,88.155 53.095,94.399 60.748,94.399 C68.4,94.399 74.555,88.255 74.555,80.603 L74.464,58.216" id="Stroke-9" stroke="#3899EC" stroke-width="2" stroke-linecap="round" stroke-linejoin="round" stroke-dasharray="1,4" sketch:type="MSShapeGroup"></path>
                <path d="M95.5,26.921 C95.5,38.243 86.322,47.421 75,47.421 C63.678,47.421 54.5,38.243 54.5,26.921 C54.5,15.599 63.678,6.421 75,6.421 C86.322,6.421 95.5,15.599 95.5,26.921" id="Fill-10" fill="#3899EC" sketch:type="MSShapeGroup"></path>
                <path d="M77.056,20.002 C77.049,19.988 77.093,19.849 77.132,19.862 C77.156,19.87 77.147,19.883 77.178,19.885 C77.208,19.888 77.226,19.852 77.257,19.858 C77.307,19.866 77.34,19.912 77.393,19.914 C77.432,19.915 77.455,19.876 77.493,19.873 C77.52,19.87 77.545,19.888 77.573,19.881 C77.602,19.875 77.624,19.856 77.648,19.841 C77.696,19.813 77.69,19.838 77.745,19.832 C77.763,19.83 77.778,19.82 77.794,19.817 C77.798,19.817 77.802,19.816 77.805,19.817 C77.83,19.819 77.84,19.834 77.835,19.864 C77.823,19.928 77.771,19.976 77.762,20.042 C77.757,20.084 77.812,20.108 77.798,20.154 C77.763,20.27 77.73,20.276 77.708,20.279 C77.676,20.285 77.654,20.275 77.64,20.268 C77.601,20.249 77.573,20.213 77.536,20.19 C77.516,20.178 77.493,20.175 77.472,20.166 C77.407,20.138 77.218,20.008 77.159,20.012 C77.139,20.013 77.121,20.029 77.1,20.027 L77.098,20.027 C77.087,20.026 77.069,20.023 77.056,20.002 L77.056,20.002 Z M73.115,14.376 L73.115,14.376 C73.111,14.382 73.107,14.388 73.104,14.394 C73.098,14.406 73.102,14.42 73.113,14.427 C73.125,14.435 73.139,14.433 73.148,14.422 C73.158,14.41 73.171,14.394 73.189,14.374 C73.205,14.354 73.21,14.348 73.234,14.337 C73.253,14.329 73.272,14.322 73.292,14.315 C73.299,14.313 73.307,14.314 73.313,14.319 C73.32,14.324 73.323,14.331 73.323,14.339 C73.321,14.383 73.336,14.432 73.291,14.467 C73.266,14.487 73.245,14.503 73.23,14.516 C73.215,14.528 73.211,14.55 73.22,14.567 C73.23,14.584 73.25,14.593 73.269,14.587 C73.268,14.587 73.269,14.587 73.271,14.589 C73.273,14.59 73.274,14.592 73.274,14.594 C73.287,14.647 73.289,14.647 73.358,14.605 C73.361,14.603 73.363,14.603 73.365,14.604 C73.365,14.604 73.368,14.605 73.368,14.606 C73.378,14.625 73.393,14.639 73.412,14.648 C73.438,14.661 73.457,14.685 73.463,14.714 C73.464,14.716 73.464,14.718 73.465,14.72 C73.465,14.721 73.466,14.723 73.466,14.725 C73.49,14.797 73.471,14.877 73.417,14.931 C73.363,14.985 73.283,15.004 73.21,14.979 C73.198,14.975 73.185,14.98 73.178,14.99 C73.17,15.001 73.171,15.015 73.179,15.025 C73.186,15.034 73.195,15.042 73.194,15.054 C73.193,15.099 73.136,15.082 73.119,15.112 L73.118,15.113 C73.117,15.115 73.116,15.118 73.116,15.121 C73.115,15.126 73.118,15.132 73.122,15.136 C73.126,15.14 73.132,15.142 73.138,15.14 C73.164,15.135 73.185,15.113 73.213,15.11 C73.264,15.107 73.225,15.237 73.208,15.256 C73.189,15.277 73.058,15.324 73.016,15.33 C72.99,15.334 72.972,15.336 72.963,15.346 C72.955,15.355 72.949,15.41 72.986,15.428 C73.043,15.454 73.095,15.405 73.15,15.42 C73.203,15.433 73.251,15.462 73.288,15.501 C73.291,15.505 73.295,15.507 73.299,15.508 C73.317,15.515 73.338,15.515 73.355,15.508 C73.36,15.506 73.364,15.503 73.368,15.5 C73.382,15.487 73.398,15.482 73.414,15.482 C73.425,15.481 73.437,15.489 73.44,15.5 C73.444,15.512 73.44,15.524 73.43,15.532 C73.39,15.561 73.349,15.59 73.292,15.584 C73.262,15.58 73.232,15.58 73.201,15.583 C73.108,15.593 73.021,15.634 72.954,15.702 C72.931,15.724 72.907,15.748 72.886,15.77 C72.874,15.782 72.873,15.801 72.884,15.814 C72.894,15.827 72.912,15.83 72.926,15.821 C72.936,15.815 72.947,15.897 72.958,15.89 C72.998,15.865 73.072,16 73.111,16 L73.113,16 C73.119,16 73.125,15.913 73.13,15.909 C73.184,15.869 73.211,15.75 73.29,15.743 C73.346,15.739 73.387,15.771 73.444,15.759 C73.509,15.746 73.562,15.686 73.631,15.689 C73.658,15.691 73.728,15.704 73.735,15.708 C73.754,15.72 73.754,15.717 73.859,15.719 C73.903,15.72 73.935,15.754 73.976,15.761 C74.027,15.769 74.073,15.738 74.123,15.742 L74.124,15.742 C74.125,15.742 74.274,15.713 74.272,15.651 C74.272,15.65 74.271,15.649 74.27,15.648 L74.268,15.647 C74.216,15.616 74.181,15.562 74.174,15.502 C74.173,15.497 74.176,15.493 74.18,15.491 C74.185,15.49 74.19,15.491 74.195,15.494 C74.198,15.497 74.201,15.499 74.204,15.501 C74.22,15.512 74.23,15.513 74.235,15.509 C74.272,15.483 74.31,15.459 74.348,15.438 C74.369,15.426 74.381,15.292 74.393,15.247 C74.396,15.233 74.409,15 74.319,15 L74.317,15 C74.31,15 74.141,15.02 74.094,15.046 C74.062,15.063 74.062,15.118 74.004,15.088 C74.001,15.079 74.005,15.098 74.012,15.093 C74.078,15.041 74.078,15.054 74.077,15.04 C74.074,15.008 74.04,14.992 74.021,14.971 C74.005,14.953 74,14.929 74,14.908 L74,14.909 C74,14.892 73.964,14.75 73.963,14.749 C73.958,14.744 73.965,14.742 73.965,14.742 C73.928,14.744 73.903,14.872 73.875,14.872 C73.875,14.872 73.871,15 73.864,15 L74,15 L74,14.864 C74,14.829 73.905,14.743 73.902,14.711 C73.899,14.678 73.873,14.615 73.876,14.583 C73.879,14.554 73.858,14.505 73.849,14.474 C73.815,14.358 73.812,14.228 73.853,14.118 C73.871,14.072 73.89,14.024 73.918,13.984 C73.985,13.892 73.685,13.902 73.629,13.905 C73.624,13.906 73.619,13.903 73.617,13.899 C73.615,13.895 73.614,13.89 73.617,13.886 C73.631,13.864 73.633,13.836 73.653,13.817 C73.68,13.791 73.717,13.782 73.748,13.763 C73.817,13.721 73.759,13.694 73.734,13.688 C73.675,13.672 73.612,13.664 73.55,13.664 C73.526,13.664 73.503,13.667 73.479,13.676 C73.464,13.682 73.446,13.701 73.428,13.727 C73.39,13.779 73.346,13.825 73.296,13.865 C73.293,13.867 73.29,13.869 73.288,13.871 C73.274,13.882 73.256,13.884 73.24,13.877 C73.231,13.873 73.22,13.873 73.211,13.877 C73.209,13.878 73.208,13.879 73.208,13.879 C73.189,13.889 73.176,13.902 73.167,13.917 C73.155,13.935 73.158,13.959 73.173,13.975 C73.188,13.991 73.211,13.995 73.23,13.985 L73.231,13.986 C73.233,13.992 73.233,13.999 73.231,14.005 C73.219,14.03 73.216,14.057 73.206,14.081 C73.205,14.084 73.203,14.086 73.203,14.086 C73.195,14.087 73.19,14.054 73.188,14.05 C73.175,14.03 73.169,14 73.161,14 L73.159,14 C73.122,14 73.098,14.122 73.099,14.146 C73.1,14.155 73.102,14.176 73.106,14.181 C73.152,14.231 73.156,14.322 73.115,14.376 L73.115,14.376 Z M81.718,17.178 C81.717,17.123 81.809,17.124 81.818,17.057 C81.822,17.026 81.808,16.995 81.782,16.978 C81.75,16.955 81.735,16.962 81.694,16.98 C81.671,16.991 81.644,17.003 81.615,17.003 C81.591,17.003 81.57,16.986 81.566,16.962 C81.562,16.941 81.573,16.921 81.591,16.91 C81.598,16.906 81.6,16.898 81.597,16.891 C81.594,16.885 81.589,16.882 81.584,16.88 C81.521,16.865 81.467,16.856 81.423,16.85 C81.341,16.84 81.256,16.847 81.176,16.869 C81.11,16.887 81.106,16.898 81.091,16.942 C81.05,17.055 81.034,17.101 81.019,17.121 C80.964,17.194 80.924,17.053 80.902,17.141 C80.894,17.175 80.877,17 80.837,17 C80.837,17 80.837,17 80.833,17 C80.833,17 80.81,17.429 80.812,17.451 C80.815,17.498 80.973,17.654 80.956,17.703 C80.942,17.745 81,17.847 81,17.888 L81,17.89 C81,17.959 80.874,18.065 80.891,18.135 C80.893,18.141 80.824,18.074 80.819,18.077 C80.813,18.08 80.773,18 80.773,18 L80.752,18 C80.723,18 80.7,17.97 80.692,17.982 C80.687,17.992 80.683,18 80.689,18 L80.688,18 L80.718,18.205 C80.803,18.325 81,18.46 81,18.517 L81,18.539 C81,18.571 81.198,18.532 81.271,18.54 C81.353,18.55 81.461,18.541 81.542,18.541 C81.57,18.541 81.778,18.535 81.814,18.52 C81.843,18.507 82,18.489 82,18.465 L82,18.459 C82,18.438 81.866,18.436 81.957,18.364 C82.022,18.312 82.033,18.285 82.099,18.233 C82.21,18.146 82.318,18.062 82.438,18.025 C82.466,18.017 82.81,18 82.834,18 L82.836,18 C82.947,18 83.246,18.22 83.317,18.24 C83.346,18.248 83.389,18.344 83.432,18.343 C83.434,18.342 83.437,18.383 83.44,18.382 C83.499,18.354 83.537,18.283 83.619,18.324 C83.762,18.396 84.165,18.344 84.067,18.01 C84.014,17.829 83.775,17.736 83.703,17.71 C83.487,17.632 83.345,17.449 83.155,17.332 C83.071,17.28 82.973,17.328 82.886,17.293 C82.69,17.215 82.69,17.216 82.68,17.16 C82.679,17.156 82.781,17.151 82.784,17.147 C82.836,17.073 83,16.992 83,16.905 L83,16.903 C83,16.872 82.921,16.856 82.887,16.834 C82.843,16.806 82.707,16.833 82.699,16.76 C82.692,16.702 82.793,16.637 82.844,16.607 C82.887,16.582 82.893,16.549 82.901,16.529 C82.913,16.496 82.867,16.672 82.849,16.674 C82.789,16.681 82.622,17 82.598,17 L82.595,17 C82.588,17 83,16.566 83,16.57 L83,16.676 L82.196,17 L82.194,17 C82.127,17 82.091,17.024 82.097,17.106 C82.103,17.189 82.009,17.21 82.082,17.249 C82.113,17.266 82,17.248 82,17.279 L82,17.266 C82,17.282 81.929,17.47 81.907,17.473 C81.852,17.479 81.904,17.449 81.9,17.441 C81.898,17.437 81.932,17.432 81.93,17.428 C81.898,17.336 81.842,17.259 81.737,17.227 C81.716,17.221 81.719,17.2 81.718,17.178 L81.718,17.178 Z M93.248,27.013 C93.248,25.119 92.924,23.205 92.592,22.194 C92.488,21.877 92.248,21.623 91.937,21.502 C91.626,21.381 91.277,21.407 90.987,21.571 C90.254,21.986 90.277,22.038 90.021,22.025 C89.904,22.019 89.379,22.369 89.19,21.968 C89.155,21.893 88.97,21.553 88.714,22.022 C88.645,22.149 88.266,22.053 88.141,21.983 C87.772,21.777 87.318,21.296 87.206,21.175 L87.205,21.175 C87.079,21.029 86.714,21.229 86.982,21.628 C87.879,22.965 88.037,22.977 88.291,23.11 C88.411,23.02 88.508,22.992 88.664,22.97 C88.76,22.956 89,22.896 89,22.808 L89,22.806 C89,22.705 89.029,22.632 89.139,22.61 C89.249,22.587 89.307,22.617 89.392,22.69 C89.392,22.69 89.365,22.691 89.366,22.692 C89.521,22.826 89.708,22.702 89.872,22.781 C90.292,22.978 90.125,23.45 90.041,23.924 C90.041,23.925 90.034,24 90.034,24 L90.029,24 C89.99,24 89.954,23.95 89.953,23.989 C89.952,24.14 90.048,24.244 90.019,24.397 C90.017,24.403 90.014,24.389 90.009,24.392 C89.959,24.417 89.914,24.441 89.875,24.482 C89.755,24.609 89.747,24.766 89.643,24.909 C89.546,25.046 89.651,25.347 89.416,25.349 C89.327,25.35 89.027,25.521 88.981,25.718 C88.926,25.951 88.798,26.159 88.615,26.313 C88.48,26.427 88.297,26.574 88.044,26.772 C87.924,26.865 87.438,27.39 87.019,27.488 C86.961,27.501 86.901,27.479 86.866,27.432 C86.864,27.429 86.862,27.426 86.86,27.423 C86.584,26.995 86.527,26.481 86.31,26.03 C86.054,25.496 85.361,25.355 85.168,24.763 C85.006,24.263 84.937,24.053 84.709,23.924 C84.55,23.834 84.417,23.709 84.319,23.555 C84.159,23.304 83.916,22.947 83.717,22.754 C83.626,22.667 83.566,22.554 83.545,22.43 C83.536,22.374 83.454,22.378 83.451,22.435 C83.439,22.634 83.476,22.696 83.421,22.738 C83.374,22.773 83.396,22.754 83.355,22.712 C83.213,22.565 83,22.298 83,22.149 L83,22.151 C83,22.209 82.917,22.271 82.951,22.32 C83.26,22.759 84.722,24.928 84.76,25.134 C85.01,26.499 86.048,26.826 86.587,27.329 C86.689,27.424 86.745,27.546 86.771,27.678 C86.796,27.804 86.851,27.913 86.946,27.999 C87.045,28.091 87.142,28.079 87.706,28.008 C87.799,27.996 87.859,27.929 87.923,27.87 C87.979,27.818 88.436,27.657 88.495,27.619 C88.619,27.539 88.465,27.586 88.749,27.452 C88.86,27.398 88.99,27.064 88.968,27.443 C88.963,27.541 89.018,27.629 89.008,27.727 C88.949,28.303 88.9,28.399 88.868,28.51 C88.823,28.657 88.765,28.799 88.729,28.949 C88.556,29.654 88.283,30.407 87.808,30.964 C87.798,30.976 87.788,30.986 87.776,30.997 C87.514,31.24 87.034,31.69 86.644,32.454 C86.399,32.934 86.052,33.352 85.795,33.825 C85.709,33.986 85.688,34.026 85.764,34.242 C85.819,34.396 85.982,35.109 86.007,36.023 C86.034,37.019 85.873,37.182 85.554,37.413 C85.044,37.783 84.695,38.036 84.456,38.213 C84.176,38.42 84.008,38.746 84.004,39.094 C84.003,39.223 83.972,39.384 83.885,39.579 L83.885,39.58 C83.904,39.615 83.227,39.954 82.994,40.23 C82.992,40.237 82.993,40.244 82.995,40.25 C83.152,40.743 81.157,42.174 80.742,42.171 C80.442,42.169 79.706,42.286 79.356,42.436 C79.119,42.537 78.48,42.32 78.433,42.184 C78.426,42.163 78.424,42.126 78.44,42.112 C78.597,41.983 78.069,41.22 77.943,41.133 C77.862,41.077 77.709,40.721 77.647,40.632 C77.454,40.36 77.785,39.976 77.57,39.705 C77.559,39.691 77.547,39.676 77.537,39.661 L76.915,38.792 C76.818,38.657 76.543,38.498 76.542,38.332 L76.542,38.331 C76.54,38.15 76.864,37.276 76.89,37.239 C76.919,37.197 76.947,37.151 76.97,37.104 C76.984,37.078 77.008,37.059 77.056,37.034 C77.214,36.954 77.44,36.754 77.181,36.332 C77.167,36.307 77.167,36.418 77.084,35.832 C77.031,35.448 76.525,34.576 76.439,34.485 C76.439,34.485 75.853,34.205 75.584,33.653 C75.598,33.621 75.618,33.594 75.645,33.573 C75.893,33.374 75.881,33.125 75.954,32.59 C75.957,32.563 76,32.536 76,32.51 L76,32.506 L76,32.47 L76,32 L75.973,32 C75.995,32 76.009,32.013 75.865,31.795 C75.84,31.757 75.781,32 75.736,32 L75.731,32 C75.65,32 76,31.896 76,31.817 L76,31.814 C76,31.812 75.785,31.812 75.784,31.811 C75.668,31.764 75.432,31.758 75.312,31.793 C75.048,31.87 74.433,31.985 74.37,31.621 C74.285,31.133 73.924,31.026 73.76,31.037 C73.062,31.086 72.458,31.686 71.737,31.637 C71.705,31.636 71.657,31.62 71.627,31.609 C71.005,31.374 70.33,31.369 69.697,31.248 C69.482,31.206 69.171,31.102 69.016,30.949 L68.128,30.077 C68.07,30.02 68.019,29.958 67.975,29.89 C67.693,29.458 67.588,28.506 67.513,28.336 C67.502,28.311 67.49,28.286 67.478,28.263 L67.401,28.118 C67.4,28.117 67.399,28.115 67.398,28.114 L67.398,28.113 C67.191,27.843 67.127,27.489 67.225,27.164 L67.575,25.999 C67.581,25.982 67.586,25.964 67.59,25.946 C67.599,25.909 67.607,25.871 67.612,25.834 C67.695,25.255 67.585,25.044 67.53,24.94 C67.429,24.746 67.34,24.746 67.841,24.049 C68.751,22.779 69,22.894 69,22.821 L69,23 L69.18,23 C69.576,23 70.326,22.384 70.312,22.121 C70.308,22.037 70.299,21.773 70.447,21.54 C70.504,21.45 70.576,21.324 70.659,21.257 L71.475,20.57 C71.627,20.447 72,20.425 72,20.532 L72,20.527 C72,20.488 72.234,20.49 72.341,20.537 C72.482,20.599 72.572,20.555 72.616,20.534 C73.112,20.296 73.654,20.223 76.167,20.063 C76.253,20.057 76.335,20.094 76.387,20.161 L76.389,20.163 C76.537,20.354 76.426,20.33 76.594,20.612 C76.658,20.72 76.595,20.801 76.394,21.004 C76.318,21.081 76.331,21.204 76.355,21.208 C76.424,21.211 76.588,21.254 76.723,21.324 C76.901,21.417 77.183,21.509 77.416,21.577 C77.629,21.638 77.818,21.762 77.96,21.932 C78.052,22.043 79.296,22.786 79.246,21.775 C79.243,21.705 79.312,21.582 79.428,21.488 C79.832,21.159 80.128,21.761 80.239,21.786 C80.418,21.827 80.441,22 80.561,22 L80.564,22 C80.563,22 80.565,22 80.565,22 C80.676,22 80.727,21.953 81.083,21.929 C81.696,21.888 82.316,21.896 82.928,21.788 C82.997,21.776 83.092,21.71 83.146,21.665 C83.824,21.105 83.137,20.397 83.242,19.779 C83.242,19.777 83.241,19.89 83.24,19.888 C83.239,19.887 83.237,20 83.237,20 L83.235,20 C83.026,20 82.827,19.975 82.668,20.111 C82.611,20.161 82.541,20.134 82.444,20.144 C82.275,20.161 82.238,20.019 82.09,19.963 C82.016,19.935 82,19.941 82,20.015 L82,20.017 C82,20.155 81.2,20.297 81.007,19.974 C80.948,19.875 80.812,20 80.706,20 L80.681,20 C80.681,20 80.674,19.751 80.676,19.749 C80.867,19.57 80.569,19.309 80.537,19.169 C80.521,19.1 80.555,18.968 80.621,18.941 L80.623,18.909 C80.782,18.848 81.058,18.747 81.026,18.771 C80.959,18.82 81,18.841 81,18.846 L81,18.842 C81,18.845 80.707,18.833 80.668,18.812 C80.575,18.759 80.366,18.731 80.258,18.731 C80.13,18.731 79.948,18.791 79.921,18.918 C79.916,18.942 79.877,19 79.857,19 L79.844,19 C79.828,19 79.8,18.991 79.781,18.982 C79.749,18.967 79.713,18.959 79.688,18.977 C79.661,18.995 79.646,19.018 79.649,19.058 C79.659,19.169 79.958,19.28 79.715,19.392 L79.713,19.392 C79.713,19.392 79.608,19.452 79.599,19.457 C79.499,19.506 79.369,19.196 79.282,19.191 C79.254,19.189 79.226,19 79.197,19 L79.195,19 L79.164,19 L79.162,19 C79.154,19 79.06,19.104 79.045,19.078 C79.009,19.015 79.005,19.106 78.985,19.086 C78.97,19.069 79.023,19.097 79.001,19.082 C78.954,19.048 79,19.02 79,18.962 L79,18.974 C79,18.929 78.911,18.871 78.903,18.802 C78.884,18.646 78.765,18.508 78.644,18.409 C78.612,18.384 78.552,18.372 78.512,18.374 C78.487,18.375 78.451,18.233 78.429,18.218 C78.326,18.15 78.253,18 78.253,18 L78.25,18 L77.445,17.55 C77.399,17.516 77.342,17.568 77.285,17.571 C77.239,17.574 77.213,17.564 77.187,17.525 C77.135,17.446 77.038,17.427 76.947,17.454 C76.944,17.455 76.94,17.465 76.936,17.466 C76.879,17.488 76.853,17.561 76.883,17.616 C76.9,17.646 76.919,17.678 76.938,17.707 L77.405,18.388 C77.483,18.5 77.612,18.567 77.748,18.566 C77.804,18.566 77.851,18.608 77.857,18.663 C77.86,18.69 77.875,18.715 77.9,18.73 C78.123,18.858 78.627,18.877 78.781,19.119 C78.783,19.121 79,19.124 79,19.127 L79,19.129 L79,19.13 C79,19.148 78.773,19.206 78.764,19.224 C78.747,19.254 78.58,19.268 78.563,19.252 C78.551,19.241 78.498,19.214 78.499,19.185 C78.499,19.177 78.47,19.166 78.465,19.154 C78.442,19.089 78.38,19.076 78.318,19.049 C78.232,19.013 78.126,19.051 78.087,19.135 C78.086,19.136 78.083,19.137 78.082,19.138 C78.081,19.14 78.078,19.143 78.077,19.145 C78.04,19.242 78.101,19.271 78.135,19.287 C78.187,19.312 78.265,19.349 78.244,19.462 C78.235,19.51 78.182,19.493 78.155,19.513 C78.155,19.513 78.172,19.497 78.079,19.684 C78.046,19.747 78.077,19.762 77.995,19.804 C77.925,19.838 77.893,19.794 77.884,19.779 C77.854,19.728 77.895,19.682 77.894,19.633 C77.893,19.611 77.893,19.591 77.957,19.564 C78.049,19.526 77.952,19.375 77.897,19.29 C77.896,19.289 77.895,19.288 77.895,19.287 C77.782,19.092 77.857,19.25 77.727,19.129 C77.647,19.054 77.437,18.928 77.396,18.877 C77.12,18.535 76.667,18.373 76.43,17.992 C76.382,17.915 76.312,17.853 76.23,17.815 C76.176,17.791 76.112,17.773 76.04,17.776 C75.972,17.78 75.646,17.965 75.385,18.115 C75.138,18.256 74.96,17.923 74.72,18.018 C74.461,18.121 74.614,18.46 74.395,18.586 C74.145,18.729 73.846,18.776 73.625,18.978 C73.616,18.986 73.609,18.998 73.604,19.011 C73.536,19.167 73.418,19.234 73.41,19.273 C73.403,19.305 73.401,19.319 73.414,19.363 C73.444,19.457 73.414,19.559 73.34,19.623 C73.291,19.666 73.331,19.8 73.288,19.824 C73.206,19.866 73.118,19.82 73.034,19.844 C72.909,19.879 72.903,20.041 72.78,20.079 C72.621,20.127 72.465,20.026 72.306,20.061 C71.946,20.14 71.946,20.14 71.932,20.172 C71.919,20.202 71.89,20.251 71.84,20.251 C71.653,20.247 71.722,20.013 71.633,19.912 C71.538,19.802 71.511,19.814 71.468,19.832 C71.409,19.857 71.312,19.9 71.281,19.882 C71.241,19.857 71.21,19.82 71.163,19.807 C71.131,19.798 71.104,19.776 71.089,19.746 C71.063,19.693 71.129,19.48 71.144,19.418 C71.153,19.382 71.151,19.343 71.137,19.307 C71.121,19.265 71.082,19.237 71.037,19.236 C71.029,19.236 71.02,19.232 71.014,19.226 C70.962,19.168 71.177,18.951 71.237,18.84 C71.246,18.823 71.256,18.798 71.263,18.78 C71.446,18.31 71.446,18.15 71.408,17.993 C71.392,17.924 71.442,17.857 71.513,17.853 C71.553,17.851 71.594,17.849 71.627,17.847 C71.704,17.759 71.831,17.733 71.935,17.786 C72.077,17.858 72.36,17.961 72.843,17.984 C72.96,17.989 73.077,18.014 73.186,18.056 C73.289,18.094 73.376,18.005 73.414,17.956 C73.504,17.841 73.49,17.698 73.508,17.564 C73.518,17.493 73.558,17.429 73.618,17.39 C73.634,17.379 73.642,17.304 73.638,17.286 C73.634,17.26 73.613,17 73.588,17 L73.585,17 C73.385,17 73.448,16.777 73.317,16.694 C73.206,16.623 73.211,16.603 72.934,16.573 C72.895,16.569 72.989,16.39 73.149,16.339 C73.159,16.336 73.169,16.344 73.178,16.348 C73.276,16.398 73.387,16.425 73.497,16.42 C73.538,16.418 73.766,16.398 73.79,16.364 C73.815,16.331 74,16.289 74,16.249 L74,16.247 C74,16.205 73.836,16.14 73.883,16.171 C73.975,16.232 73.927,16.271 74.086,16.247 C74.126,16.242 74.111,16.212 74.12,16.173 C74.124,16.155 74.112,16.139 74.129,16.13 C74.309,16.028 74.373,15.982 74.409,15.941 C74.494,15.843 74.589,15.761 74.703,15.698 C74.865,15.607 74.942,15.548 75.097,15.407 C75.164,15.347 75.242,15.305 75.33,15.284 C75.357,15.278 75.373,15.252 75.369,15.225 C75.369,15.22 75.369,15.214 75.373,15.21 C75.402,15.172 75.446,15.147 75.495,15.143 C75.608,15.132 75.675,15.132 75.723,15.132 C75.723,15.131 75.724,15.131 75.724,15.13 C75.757,15.093 75.805,15.072 75.855,15.073 C75.973,15.076 76.129,15.131 76.104,14.806 C76.067,14.513 76.164,14.218 76.368,14.005 L76.369,14.004 C76.461,14.043 76.441,14.137 76.456,14.236 C76.466,14.296 76.448,14.356 76.408,14.401 C76.408,14.401 76.642,14.402 76.641,14.403 C76.251,14.835 77,14.821 77,14.932 L77,14.934 C77,14.953 76.777,14.969 76.793,14.979 C76.809,14.989 76.71,14.991 76.728,14.985 C76.745,14.979 77.071,14.818 77.087,14.828 C77.16,14.874 77.075,14.897 77.133,14.951 L77.12,14.952 C77.207,15.032 77.328,15.049 77.433,14.993 C77.654,14.876 77.905,14.611 78.151,14.656 C78.273,14.679 78.571,15 78.515,14 L78.514,14 C78.48,14 78.474,14.021 78.497,13.919 C78.511,13.855 78.485,13.933 78.558,13.885 C78.594,13.86 78.641,13.913 78.681,13.931 C78.732,13.954 78.807,13.984 78.861,13.961 C78.931,13.931 79,13.892 79,13.815 L79,13.813 C79,13.798 78.979,13.783 78.966,13.775 C78.899,13.733 78.855,13.656 78.865,13.577 C78.876,13.489 78.939,13.419 79.027,13.403 C79.282,13.356 79.326,13.5 79.568,13.284 C79.583,13.271 79.588,13.251 79.583,13.232 C79.578,13.213 79.562,13.198 79.543,13.194 C79.342,13.151 79.28,13.164 79.087,13.232 L79,13.157 L79,13 L79,13.158 C79,13.183 78.765,13.274 78.718,13.27 C78.555,13.257 78.378,13.142 78.315,12.971 C78.24,12.773 78.229,12.57 78.345,12.393 C78.402,12.305 78.412,12.202 78.476,12.12 C78.503,12.087 78.504,12.048 78.494,12.006 C78.468,11.889 78.259,11.839 78.146,11.864 C77.919,11.915 78.068,12.188 77.977,12.33 C77.925,12.412 77.705,12.47 77.686,12.582 C77.638,12.868 77.613,13.018 77.632,13.118 C77.673,13.33 77.652,13.549 77.569,13.749 C77.569,13.751 77.568,13.752 77.568,13.753 C77.503,13.924 77.636,14.103 77.547,14.272 C77.443,14.47 77.202,14.314 77.146,14.552 C77.123,14.652 76.927,14.504 76.86,14.437 C76.853,14.241 76.777,14.151 76.722,13.997 C76.677,13.873 76.576,13.778 76.45,13.74 C76.114,13.64 76.045,13.968 75.748,13.877 C75.509,13.803 75.341,13.587 75.328,13.337 C75.316,13.087 75.461,12.855 75.691,12.758 L75.692,12.758 C76.478,12.427 76.624,12.212 76.677,12.025 C76.689,11.983 76.721,12 76.763,12 L77,12 L77,11.938 C77,11.895 76.912,11.825 76.944,11.796 C77.025,11.721 76.923,11.606 76.995,11.523 C77.075,11.432 77,11.285 77,11.285 L77,11.281 C77,11.281 77.505,10.88 77.935,10.744 C78.134,10.682 78.329,10.814 78.376,10.823 C78.426,10.833 78.524,11 78.64,11 L78.652,11 C78.652,11 78.662,10.948 78.686,10.979 C78.74,11.052 78.922,10.968 79.137,11.068 C79.386,11.183 79.687,11.116 79.956,11.172 C80.066,11.195 80.141,11.281 80.128,11.393 C80.115,11.504 80.02,11.579 79.908,11.576 C79.83,11.573 79.76,11.617 79.733,11.69 C79.707,11.763 79.73,11.843 79.791,11.891 C79.887,11.967 79.997,12.026 80.112,12.067 C80.248,12.115 80.468,12.149 80.372,12.043 C80.338,12.005 80.289,11.983 80.238,11.983 C80.052,11.982 80.111,11.811 80.211,11.856 C80.322,11.907 80.632,11.94 80.417,11.733 C80.39,11.707 80.387,11.666 80.41,11.637 C80.446,11.592 80.475,11.541 80.496,11.488 C80.54,11.374 80.532,11.411 80.678,11.455 C80.703,11.463 80.729,11.458 80.749,11.444 C80.79,11.415 80.846,11.393 80.805,11.362 C80.771,11.336 80.841,11.277 80.866,11.285 C80.908,11.3 80.955,11.286 80.983,11.251 C81.005,11.224 81.011,11.188 81.002,11.155 C80.977,11.072 81.046,10.845 81.165,10.801 C81.195,10.79 81.226,10.789 81.256,10.798 C81.281,10.775 81.31,10.757 81.342,10.746 C81.395,10.726 81.486,10.9 81.551,10.845 C81.616,10.788 81.706,11 81.791,11 L81.792,11 C81.819,11 81.818,10.712 81.791,10.684 C81.74,10.634 81.569,10.439 81.594,10.373 C81.603,10.351 81.709,10.272 81.723,10.181 C81.733,10.119 81.698,10.032 81.64,10.009 C79.868,9.313 77.962,8.874 75.971,8.765 C75.604,8.992 75.237,9.238 74.907,9.512 C73.701,10.511 71.797,10.921 71.84,10.81 C71.658,10.812 71.61,10.874 71.61,10.874 C71.55,10.89 71.498,11 71.448,11 L71.447,11 C71.447,11 71.438,10.84 71.419,10.827 C71.355,10.784 71.23,10.828 70.928,10.981 L70.925,10.954 C70.92,10.957 70.914,10.946 70.909,10.949 C70.781,11.016 70.639,11.025 70.542,11.027 C70.472,11.028 70.405,11.037 70.34,11.063 C70.33,11.067 70.319,11.062 70.313,11.053 C70.291,11.017 70.402,10.976 70.441,10.961 C70.477,10.947 70.46,10.906 70.309,10.992 C70.277,11.011 70.238,11.016 70.201,11.006 C70.05,10.968 69.869,11.089 69.749,11.189 C69.73,11.204 69.706,11.213 69.677,11.201 C69.635,11.183 69.598,11.189 69.611,11.254 C69.625,11.324 69.226,11.5 69.219,11.47 C69.211,11.448 69.189,11.436 69.166,11.44 C69.114,11.451 69.051,11.494 69.016,11.56 C68.952,11.68 68.779,11.701 68.694,11.771 C68.607,11.844 68.477,11.916 68.477,11.916 C68.43,11.971 68.397,12.002 68.346,12.004 C68.297,12.006 68.268,11.919 68.29,11.886 C68.303,11.865 68.399,11.772 68.375,11.767 C68.366,11.765 68.358,11.759 68.354,11.75 C68.337,11.719 68.412,11.686 68.393,11.648 C68.38,11.622 68.235,11.614 68.224,11.601 C68.216,11.591 67.993,11.578 67.998,11.566 C68.088,11.384 68,11.372 68,11.252 L68,11.251 C68,11.231 68.208,11.206 68.221,11.187 C68.289,11.088 68.625,10.791 68.888,10.755 C68.958,10.745 68.968,10.731 68.968,10.731 C68.902,10.705 68.846,10.686 68.894,10.634 C68.988,10.533 69.145,10.397 69.304,10.318 C69.381,10.28 69.46,10.224 69.526,10.169 C69.591,10.116 69.814,10 70.052,10 L70.055,10 C70.253,10 71,9.639 71,9.634 L71,9.638 C71,9.623 70.9,9.572 70.895,9.545 C70.893,9.533 70.845,9.523 70.855,9.518 C70.906,9.49 70.939,9.481 70.992,9.457 C70.999,9.454 70.991,9.448 70.992,9.44 C70.995,9.42 70.965,9.407 70.946,9.415 C70.838,9.455 70.789,9.472 70.763,9.479 C70.749,9.483 70.733,9.477 70.726,9.465 C70.719,9.452 70.721,9.437 70.732,9.427 C70.857,9.32 71.024,9.318 71.172,9.267 C71.237,9.244 71.132,9.108 70.998,9.13 C70.335,9.239 70,9.436 69,9.644 L69,9.645 C69,9.664 68.949,9.726 68.933,9.742 C68.925,9.75 69,9.762 69,9.774 L69,9.776 C69,9.777 69.04,9.786 69.034,9.791 C69.009,9.81 68.977,9.791 68.963,9.817 C68.946,9.849 69.013,9.882 69.024,9.904 C69.033,9.921 69.034,10 69.021,10 L69.022,10 C69.003,10 68.906,10.018 68.891,10 C68.877,9.983 68.875,9.946 68.855,9.958 C68.785,10.004 68.741,10.019 68.701,10.027 C68.559,10.051 68.379,10.121 68.379,10.121 C68.401,10.103 68.468,10.037 68.479,10.013 C68.518,9.935 68.56,9.909 68.607,9.896 C68.641,9.887 68.646,9.839 68.494,9.897 C68.357,9.948 68.231,10.027 68.124,10.128 C68.035,10.212 67.93,10.303 67.854,10.343 C67.868,10.318 67.857,10.312 67.847,10.317 C67.838,10.322 67.766,10.387 67.737,10.379 C67.647,10.355 67.765,10.303 67.765,10.213 C67.775,10.198 67.787,10.186 67.8,10.175 L67.799,10.175 C67.696,10.219 67.603,10.285 67.527,10.368 C67.466,10.435 67.415,10.514 67.35,10.449 C67.318,10.419 67.271,10.41 67.23,10.429 C66.978,10.547 66.729,10.67 66.483,10.799 C66.457,10.813 66.433,10.829 66.41,10.848 C66.393,10.863 66.382,10.883 66.379,10.905 C66.375,10.931 66.33,10.989 66.314,11.017 C66.306,11.029 66.306,11.045 66.314,11.057 C66.337,11.092 66.412,11.066 66.451,11.053 C66.508,11.035 66.569,11.058 66.6,11.109 C66.63,11.158 66.622,11.222 66.581,11.263 C66.548,11.297 66.516,11.335 66.487,11.373 C66.426,11.454 66.37,11.538 66.283,11.593 C66.23,11.626 66.18,11.634 66.133,11.676 C65.659,12.101 65.644,13 65.295,13 L65.293,13 C65.025,13 64.932,13.047 64.612,13.166 C64.549,13.19 64.33,13.188 64.271,13.172 C64.221,13.159 64,13.13 64,13.082 L64,13.086 C64,12.908 63.89,12.871 63.711,12.941 C63.681,12.953 63.811,13 63.776,13 L64,13 L64,12.95 C64,12.966 63.514,13.061 63.54,13.114 C63.54,13.114 64,12.9 64,13.257 L64,13.251 C64,13.258 63.894,13.272 63.883,13.296 C63.867,13.33 63.817,13.191 63.762,13.204 C63.699,13.218 63.617,13 63.569,13 L63.561,13 C63.527,13 63.508,13.244 63.521,13.267 C63.539,13.297 63.624,13.374 63.534,13.43 C63.481,13.462 63.408,13.518 63.384,13.576 C63.356,13.645 63.321,13.73 63.28,13.791 C63.237,13.856 63.33,13.886 63.257,13.945 C63.17,14.016 62.87,13.952 62.765,13.972 C62.765,13.972 62.584,13.992 62.475,14.03 C62.367,14.068 62.171,14.118 62.063,14.248 C61.878,14.473 61.894,14.521 61.676,14.46 C61.664,14.457 61.651,14.461 61.642,14.47 C59.429,16.818 57.831,19.752 57.103,23.014 C57.103,23.016 57.102,23.019 57.101,23.022 C57.053,23.23 56.999,23.484 56.918,23.961 C56.917,23.972 56.917,23.983 56.919,23.994 C56.93,24.047 56.94,24.061 57.008,24.061 C57.169,24.061 57.307,24.175 57.336,24.333 C57.344,24.379 57.371,24.411 57.408,24.426 C57.444,24.44 57.485,24.437 57.523,24.41 C57.547,24.393 57.684,24.513 57.693,24.659 C57.698,24.738 57.728,24.828 57.744,24.906 C57.762,25 57.738,25.097 57.676,25.171 C57.667,25.182 57.664,25.198 57.667,25.212 C57.744,25.513 58.093,26.793 58.165,26.86 C58.206,26.852 58.24,26.866 58.263,26.891 C58.967,27.685 59.762,28.98 59.739,29.386 C59.58,29.684 59.597,29.668 59.729,29.829 C59.974,30.131 59.97,30.145 59.877,30.455 L59.877,30.454 C59.931,30.366 60.027,30.313 60.131,30.313 C60.234,30.313 60.33,30.367 60.384,30.455 C60.424,30.52 60.465,30.585 60.52,30.634 C60.665,30.764 60.74,30.956 60.722,31.149 C60.722,31.15 60.945,31.152 61.254,31.384 C61.646,31.678 63.028,33.261 63.082,33.695 C63.106,33.888 63.027,34.077 62.928,34.245 C62.814,34.438 62.445,34.839 62.383,35.055 C62.351,35.162 62.18,35.211 62.181,35.275 C62.183,35.363 62.209,35.545 62.336,35.906 C62.373,36.013 62.46,36.803 62.417,37.122 C62.392,37.309 62.392,37.342 62.438,37.548 C62.453,37.612 62.292,37.795 62.181,37.716 C62.042,37.616 61.927,37.631 61.912,37.66 L61.912,37.661 C61.72,37.975 61.03,38.031 61.183,38.366 C61.229,38.465 61.275,38.564 61.314,38.665 C61.361,38.783 61.386,38.91 61.39,39.037 C61.391,39.092 61.583,39.495 61.735,39.654 C65.065,43.137 69.757,45.307 74.956,45.307 C85.059,45.306 93.248,37.116 93.248,27.013 L93.248,27.013 Z M72.252,15.355 C72.328,15.322 72.399,15.277 72.479,15.255 L72.482,15.255 C72.592,15.224 72.69,15.254 72.723,15.212 C72.756,15.171 72.811,15.095 72.838,15.034 C72.85,15.004 72.818,14.962 72.858,14.94 C72.903,14.916 72.864,14.869 72.875,14.835 C72.906,14.743 72.926,14.741 72.963,14.736 C72.998,14.73 73.031,14.726 73.043,14.707 C73.101,14.622 72.897,14.378 72.77,14.411 C72.639,14.445 72.533,14.637 72.488,14.635 C72.432,14.632 72.407,14.63 72.369,14.659 C72.34,14.682 72.337,14.718 72.315,14.745 C72.29,14.778 72.257,14.803 72.231,14.835 C72.21,14.861 72.202,14.885 72.232,14.912 C72.254,14.932 72.266,14.943 72.201,15.027 C72.146,15.097 72.057,15.134 72.019,15.22 C72.006,15.251 72.008,15.313 72.012,15.338 C72.029,15.428 72.168,15.392 72.252,15.355 L72.252,15.355 Z" id="Fill-11" fill="#D1EDFF" sketch:type="MSShapeGroup"></path>
            </g>
        </g>
    </g>
</svg>
