<?xml version="1.0" encoding="UTF-8" standalone="no"?>
<svg width="110px" height="125px" viewBox="0 0 110 125" version="1.1" xmlns="http://www.w3.org/2000/svg" xmlns:xlink="http://www.w3.org/1999/xlink" xmlns:sketch="http://www.bohemiancoding.com/sketch/ns">
    <g id="Page-1" stroke="none" stroke-width="1" fill="none" fill-rule="evenodd" sketch:type="MSPage">
        <g id="upgrade_illustration" sketch:type="MSArtboardGroup">
            <g id="Imported-Layers" sketch:type="MSLayerGroup">
                <path d="M76.752,17.334 C73.446,11.006 68.283,8.834 64.39,10.892 C60.497,12.951 59.347,18.461 62.653,24.789 C65.959,31.118 76.362,33.81 76.362,33.81 C76.362,33.81 80.058,23.663 76.752,17.334" id="Fill-1" fill="#C593E5" sketch:type="MSShapeGroup"></path>
                <path d="M79.591,18.163 C85.751,14.597 91.267,15.543 93.46,19.377 C95.653,23.213 93.692,28.486 87.533,32.051 C81.372,35.617 71.153,32.289 71.153,32.289 C71.153,32.289 73.431,21.729 79.591,18.163" id="Fill-2" fill="#B372D8" sketch:type="MSShapeGroup"></path>
                <path d="M84.722,22.527 C86.833,15.7 84.71,10.491 80.51,9.177 C76.31,7.864 71.625,10.942 69.514,17.769 C67.404,24.597 72.867,33.901 72.867,33.901 C72.867,33.901 82.612,29.354 84.722,22.527 L84.722,22.527 Z" id="Stroke-3" stroke="#E1C9F1" stroke-linecap="round" stroke-linejoin="round" sketch:type="MSShapeGroup"></path>
                <path d="M104.884,60.132 L32.266,38.936 L36.981,22.594 C37.287,21.532 38.391,20.921 39.446,21.229 L108.242,41.309 C109.298,41.617 109.905,42.728 109.598,43.79 L104.884,60.132" id="Fill-4" fill="#FFFFFF" sketch:type="MSShapeGroup"></path>
                <path d="M72.397,50.649 L64.753,48.418 L70.022,30.154 L77.666,32.385 L72.397,50.649" id="Fill-5" fill="#C593E5" sketch:type="MSShapeGroup"></path>
                <path d="M25.521,19.467 C22.066,21.852 21.186,26.604 23.557,30.081 C25.927,33.558 30.651,34.442 34.107,32.057 C37.562,29.671 42.286,30.556 44.656,34.033 C47.027,37.509 46.148,42.261 42.692,44.647 L42.634,44.629 C39.178,47.015 38.299,51.767 40.669,55.243 C43.04,58.719 47.763,59.604 51.219,57.219 C54.675,54.834 59.399,55.718 61.769,59.195 C64.14,62.671 63.26,67.423 59.804,69.809" id="Stroke-6" stroke="#B372D8" stroke-linecap="round" stroke-linejoin="round" stroke-dasharray="1,3" sketch:type="MSShapeGroup"></path>
                <path d="M101,66 L35,66 L35,99.122 C35,101.331 36.513,103 38.722,103 L96.941,103 C99.15,103 101,101.331 101,99.122 L101,66" id="Fill-7" fill="#FFFFFF" sketch:type="MSShapeGroup"></path>
                <path d="M44.193,68.167 L41.873,69.054 L39.227,62.054 L41.546,61.167 L44.193,68.167" id="Fill-8" fill="#B372D8" sketch:type="MSShapeGroup"></path>
                <path d="M3.109,34.904 L7.638,31.205 L18.668,44.872 L14.14,48.572 L3.109,34.904" id="Fill-9" fill="#ED4E4D" sketch:type="MSShapeGroup"></path>
                <path d="M40.141,0.402 L45.971,0.213 L46.533,17.81 L40.702,17.999 L40.141,0.402" id="Fill-10" fill="#F6C400" sketch:type="MSShapeGroup"></path>
                <path d="M5.827,19.145 L7.439,18.204 L10.245,23.067 L8.634,24.009 L5.827,19.145" id="Fill-11" fill="#FFFFFF" sketch:type="MSShapeGroup"></path>
                <path d="M26.27,53.262 C26.264,54.052 25.623,54.687 24.838,54.68 C24.054,54.674 23.423,54.03 23.429,53.24 C23.435,52.451 24.076,51.816 24.861,51.822 C25.645,51.828 26.276,52.473 26.27,53.262" id="Fill-12" fill="#FFFFFF" sketch:type="MSShapeGroup"></path>
                <path d="M30.669,25.531 C30.663,26.321 30.021,26.956 29.237,26.95 C28.452,26.944 27.821,26.299 27.827,25.51 C27.833,24.72 28.474,24.085 29.259,24.091 C30.044,24.098 30.675,24.742 30.669,25.531" id="Fill-13" fill="#ED4E4D" sketch:type="MSShapeGroup"></path>
                <path d="M3.949,52.209 C3.94,53.261 3.086,54.108 2.04,54.1 C0.994,54.092 0.152,53.232 0.16,52.18 C0.168,51.127 1.023,50.281 2.069,50.289 C3.115,50.297 3.957,51.157 3.949,52.209" id="Fill-14" fill="#5FCEF6" sketch:type="MSShapeGroup"></path>
                <path d="M49.791,38.963 L53.579,39.005 L53.455,50.438 L49.666,50.397 L49.791,38.963" id="Fill-15" fill="#5FCEF6" sketch:type="MSShapeGroup"></path>
                <path id="Stroke-16" stroke="#3898EC" stroke-width="3" stroke-linejoin="round" sketch:type="MSShapeGroup"></path>
                <path d="M95,123 C95,124.104682 82.9116033,125 67.9994907,125 C53.0883967,125 41,124.104682 41,123 C41,121.895318 53.0883967,121 67.9994907,121 C82.9116033,121 95,121.895318 95,123" id="Fill-17" fill="#E3CEF4" sketch:type="MSShapeGroup"></path>
                <path d="M65,66 L72,66 L72,103 L65,103 L65,66 Z" id="Fill-18" fill="#C593E5" sketch:type="MSShapeGroup"></path>
                <path d="M38,74.5 L99,74.5" id="Stroke-19" stroke="#B372D8" stroke-linecap="round" stroke-linejoin="round" stroke-dasharray="1,3" sketch:type="MSShapeGroup"></path>
            </g>
        </g>
    </g>
</svg>
