<?xml version="1.0" encoding="UTF-8" standalone="no"?>
<svg width="122px" height="126px" viewBox="0 0 122 126" version="1.1" xmlns="http://www.w3.org/2000/svg" xmlns:xlink="http://www.w3.org/1999/xlink" xmlns:sketch="http://www.bohemiancoding.com/sketch/ns">
    <g id="Page-1" stroke="none" stroke-width="1" fill="none" fill-rule="evenodd" sketch:type="MSPage">
        <g id="preview_illustration" sketch:type="MSArtboardGroup">
            <g id="Imported-Layers" sketch:type="MSLayerGroup">
                <path d="M97,99 L5,99 C2.239,99 0,96.761 0,94 L0,28 C0,25.239 2.239,23 5,23 L97,23 C99.761,23 102,25.239 102,28 L102,94 C102,96.761 99.761,99 97,99" id="Fill-1" fill="#FFFFFF" sketch:type="MSShapeGroup"></path>
                <path d="M92.5,9 L99.012,7.012 L101,0.5 L102.988,7.012 L109.5,9 L102.988,10.988 L101,17.5 L99.012,10.988 L92.5,9" id="Fill-2" fill="#3899EC" sketch:type="MSShapeGroup"></path>
                <path d="M109.5,22 L113.714,20.714 L115,16.5 L116.286,20.714 L120.5,22 L116.286,23.286 L115,27.5 L113.714,23.286 L109.5,22" id="Fill-3" fill="#3899EC" sketch:type="MSShapeGroup"></path>
                <path d="M106,37 L109.064,36.065 L110,33 L110.936,36.065 L114,37 L110.936,37.936 L110,41 L109.064,37.936 L106,37" id="Fill-4" fill="#3899EC" sketch:type="MSShapeGroup"></path>
                <path d="M35,83 C35,84.105 34.104,85 33,85 L17,85 C15.895,85 15,84.105 15,83 L15,73 C15,71.895 15.895,71 17,71 L33,71 C34.104,71 35,71.895 35,73 L35,83" id="Fill-5" fill="#6DD0F2" sketch:type="MSShapeGroup"></path>
                <path d="M61,83 C61,84.105 60.104,85 59,85 L43,85 C41.895,85 41,84.105 41,83 L41,73 C41,71.895 41.895,71 43,71 L59,71 C60.104,71 61,71.895 61,73 L61,83" id="Fill-6" fill="#6DD0F2" sketch:type="MSShapeGroup"></path>
                <path d="M87,83 C87,84.105 86.104,85 85,85 L69,85 C67.895,85 67,84.105 67,83 L67,73 C67,71.895 67.895,71 69,71 L85,71 C86.104,71 87,71.895 87,73 L87,83" id="Fill-7" fill="#6DD0F2" sketch:type="MSShapeGroup"></path>
                <path d="M88,64 C88,65.105 87.104,66 86,66 L17,66 C15.895,66 15,65.105 15,64 L15,38 C15,36.895 15.895,36 17,36 L86,36 C87.104,36 88,36.895 88,38 L88,64" id="Fill-8" fill="#6DD0F2" sketch:type="MSShapeGroup"></path>
                <path d="M81.903,46.613 C81.903,48.827 80.09,50.622 77.855,50.622 C75.619,50.622 73.807,48.827 73.807,46.613 C73.807,44.4 75.619,42.605 77.855,42.605 C80.09,42.605 81.903,44.4 81.903,46.613" id="Fill-9" fill="#FFFFFF" sketch:type="MSShapeGroup"></path>
                <path d="M73.64,57.446 C72.447,56.436 70.632,56.91 69.764,58.204 L64.777,66 L83.064,66 L73.64,57.446" id="Fill-10" fill="#3899EC" sketch:type="MSShapeGroup"></path>
                <path d="M57.147,53.781 C55.404,52.305 52.75,52.206 51.481,54.098 L45.391,63.722 L44.159,66 L70.811,66 L57.147,53.781" id="Fill-11" fill="#3899EC" sketch:type="MSShapeGroup"></path>
                <path d="M51.651,64.052 L35.556,50.378 C33.987,49.078 31.628,49.591 30.479,51.267 L20.788,66 L53.326,66 L51.651,64.052" id="Fill-12" fill="#3899EC" sketch:type="MSShapeGroup"></path>
                <path d="M90.75,123.079 C90.75,124.459 72.8409317,125.579 50.75,125.579 C28.6580745,125.579 10.75,124.459 10.75,123.079 C10.75,121.698 28.6580745,120.579 50.75,120.579 C72.8409317,120.579 90.75,121.698 90.75,123.079" id="Fill-13" fill="#A2DBF4" sketch:type="MSShapeGroup"></path>
            </g>
        </g>
    </g>
</svg>
