<svg xmlns="http://www.w3.org/2000/svg" width="110" height="125" viewBox="0 0 110 125"><g fill="none" fill-rule="evenodd"><path fill="#C593E5" d="M76.752 17.334c-3.306-6.328-8.47-8.5-12.362-6.44-3.893 2.057-5.043 7.567-1.737 13.895 3.306 6.328 13.71 9.02 13.71 9.02s3.695-10.147.39-16.476"/><path fill="#B372D8" d="M79.59 18.163c6.16-3.565 11.677-2.62 13.87 1.214 2.193 3.836.232 9.11-5.927 12.674-6.16 3.567-16.38.24-16.38.24s2.278-10.56 8.438-14.127"/><path stroke="#E1C9F1" d="M84.722 22.527c2.11-6.827-.012-12.036-4.212-13.35-4.2-1.313-8.885 1.765-10.996 8.592-2.11 6.827 3.353 16.13 3.353 16.13s9.745-4.546 11.855-11.373z" stroke-linecap="round" stroke-linejoin="round"/><path fill="#FFF" d="M104.884 60.132L32.266 38.936l4.715-16.342a1.988 1.988 0 0 1 2.466-1.365l68.796 20.08a2.003 2.003 0 0 1 1.356 2.48l-4.714 16.342"/><path fill="#C593E5" d="M72.397 50.65l-7.644-2.232 5.27-18.265 7.643 2.232-5.27 18.264"/><path stroke="#B372D8" d="M25.52 19.467c-3.454 2.385-4.334 7.138-1.963 10.614a7.56 7.56 0 0 0 10.55 1.977c3.455-2.385 8.18-1.5 10.55 1.976 2.37 3.476 1.49 8.228-1.965 10.614l-.058-.018c-3.456 2.385-4.335 7.137-1.965 10.613 2.37 3.477 7.093 4.36 10.55 1.976a7.56 7.56 0 0 1 10.55 1.975c2.37 3.476 1.49 8.228-1.966 10.614" stroke-linecap="round" stroke-linejoin="round" stroke-dasharray="1 3"/><path fill="#B372D8" d="M37 92.248V73h-2.213C32.742 73 31 74.52 31 76.564v13.958l6 1.726"/><path fill="#FFF" d="M101 66H35v33.122c0 2.21 1.513 3.878 3.722 3.878h58.22c2.208 0 4.058-1.67 4.058-3.878V66"/><path fill="#B372D8" d="M44.193 68.167l-2.32.887-2.646-7 2.32-.887 2.646 7"/><path fill="#ED4E4D" d="M3.11 34.904l4.528-3.7 11.03 13.668-4.528 3.7L3.11 34.904"/><path fill="#F6C400" d="M40.14.402l5.83-.19.563 17.598-5.83.19L40.14.4"/><path fill="#FFF" d="M5.827 19.146l1.612-.942 2.805 4.863-1.61.942-2.808-4.864M26.27 53.262a1.424 1.424 0 0 1-1.432 1.418 1.424 1.424 0 0 1-1.41-1.44 1.425 1.425 0 0 1 1.433-1.418c.785.006 1.416.65 1.41 1.44"/><path fill="#ED4E4D" d="M30.67 25.53a1.426 1.426 0 0 1-1.433 1.42 1.425 1.425 0 0 1-1.41-1.44 1.425 1.425 0 0 1 1.432-1.42c.784.007 1.415.652 1.41 1.44"/><path fill="#5FCEF6" d="M3.95 52.21a1.9 1.9 0 0 1-1.91 1.89 1.9 1.9 0 0 1-1.88-1.92 1.9 1.9 0 0 1 1.91-1.89 1.9 1.9 0 0 1 1.88 1.92M49.79 38.963l3.79.04-.125 11.435-3.79-.04.126-11.435"/><path fill="#C593E5" d="M91 107H35.047C32.86 107 31 105.4 31 103.212V76.01c0 2.044 1.742 3.99 3.787 3.99h57.455c2.187 0 4.207 1.542 4.207 3.73"/><path fill="#B372D8" d="M90 87h2.5c2.044 0 3.5-1.6 3.5-3.646v26.844c0 2.044-1.456 3.802-3.5 3.802H90V87"/><path fill="#FFF" d="M41.613 92.982c.408-.646 1.037-.918 1.92-.918 1.65 0 2.314 1.257 2.314 2.907v2.04c0 1.718-.766 3.01-2.584 3.01-1.802 0-2.568-1.292-2.568-3.01v-.646h.748v.68c0 1.275.51 2.244 1.802 2.244 1.31 0 1.82-.97 1.82-2.244v-2.006c0-1.274-.51-2.243-1.82-2.243-.866 0-1.462.476-1.7 1.36v.204h-.73L41.12 88h4.47v.732h-3.755l-.222 4.25M47.53 90.925c0-1.75.798-3.01 2.617-3.01 1.82 0 2.618 1.26 2.618 3.01v6.086c0 1.734-.8 3.01-2.618 3.01-1.82 0-2.618-1.276-2.618-3.01v-6.085zm.78 6.12c0 1.31.528 2.26 1.837 2.26 1.31 0 1.835-.95 1.835-2.26v-6.17c0-1.293-.526-2.245-1.835-2.245-1.31 0-1.836.952-1.836 2.244v6.17zM57.66 89.905v3.62c0 1.072-.458 1.92-1.613 1.92-1.14 0-1.6-.848-1.6-1.92v-3.62c0-1.07.46-1.92 1.6-1.92 1.155 0 1.614.85 1.614 1.92zm-2.685-.017v3.672c0 .748.255 1.393 1.072 1.393.8 0 1.07-.645 1.07-1.393v-3.672c0-.765-.27-1.41-1.07-1.41-.817 0-1.072.645-1.072 1.41zM61.52 88l-4.692 11.917h-.51L61.01 88h.51zm1.92 6.443v3.57c0 1.07-.44 1.938-1.597 1.938-1.156 0-1.614-.866-1.614-1.936v-3.57c0-1.07.457-1.938 1.613-1.938s1.597.867 1.597 1.937zm-2.668-.034v3.637c0 .748.272 1.41 1.07 1.41.817 0 1.072-.662 1.072-1.41V94.41c0-.765-.255-1.394-1.07-1.394-.8 0-1.072.63-1.072 1.393zM67.52 90.925c0-1.734.8-3.01 2.602-3.01 1.836 0 2.635 1.276 2.635 3.01v6.086c0 1.734-.8 3.01-2.635 3.01-1.802 0-2.6-1.276-2.6-3.01v-6.085zm.784 6.137c0 1.292.51 2.243 1.818 2.243 1.326 0 1.852-.95 1.852-2.243v-6.188c0-1.292-.526-2.244-1.852-2.244-1.31 0-1.818.952-1.818 2.244v6.188zM78.333 93.815v.713h-3.076v5.39h-.782v-11.9h4.52v.714h-3.738v5.083h3.076M84.47 93.815v.713h-3.076v5.39h-.783v-11.9h4.523v.714h-3.74v5.083h3.077"/><path fill="#E3CEF4" d="M94 123c0 1.105-11.865 2-26.5 2s-26.5-.895-26.5-2 11.865-2 26.5-2 26.5.895 26.5 2"/></g></svg>