<svg xmlns="http://www.w3.org/2000/svg" width="122" height="54" class="symbol-wix-hosting-clipart" viewBox="0 0 122 54"><path fill="#a2dbf4" d="M9.278 28.81c.758-3.855 4.152-6.763 8.228-6.763.57 0 1.127.058 1.665.166C20.783 15.048 27.174 9.69 34.826 9.69c7 0 12.938 4.487 15.135 10.736 6.982.315 12.55 6.06 12.55 13.12 0 7.26-6.03 13.148-13.29 13.148-.364 0-.22-.025-1.22-.054V47H9.617c-4.943 0-8.95-4.16-8.95-9.104 0-4.83 3.826-8.907 8.61-9.087z"/><path fill="#FFF" d="M108.494 28.14c-1.114-5.664-6.102-9.938-12.092-9.938-.838 0-1.656.085-2.447.245C91.585 7.915 82.195.04 70.947.04 60.66.04 51.933 6.637 48.703 15.82c-10.26.463-18.444 8.904-18.444 19.28C30.26 45.77 38.827 54 49.5 54h58.495c7.265 0 13.155-5.677 13.155-12.942 0-7.097-5.624-12.654-12.656-12.918z"/><path fill="#5fcef5" d="M83 41.51c-.604 0-1-.47-1-1.05v-2.895c0 1.18-4.062 3.746-8.358 3.746-5.32 0-9.572-3.863-9.916-8.988a.97.97 0 0 1 .29-.743c.203-.208.494-.327.79-.327.62 0 1.082.414 1.13.962.335 3.77 3.814 6.953 7.595 6.953 2.59 0 5.46-1.364 6.888-3.26l-2.788.004a1.04 1.04 0 0 1-.722-.286.907.907 0 0 1-.298-.67c0-.54.457-.956 1.018-.956h4.587C83.35 34 84 34.843 84 35.93v4.53c0 .58-.396 1.05-1 1.05zM65 21.254c.604 0 1 .472 1 1.05V25.2c0-1.182 3.923-3.747 8.22-3.747 5.32 0 9.503 3.864 9.847 8.99.018.274-.125.538-.324.742-.203.207-.51.326-.807.326-.62 0-1.09-.413-1.138-.96-.335-3.77-3.818-6.954-7.6-6.954-2.59 0-5.46 1.364-6.89 3.26l2.788-.004c.273 0 .528.102.72.286.193.185.298.527.298.79 0 .538-.457 1.074-1.018 1.074H65.51C64.374 29 64 27.922 64 26.832v-4.528c0-.58.396-1.05 1-1.05z"/></svg>