<svg xmlns="http://www.w3.org/2000/svg" width="90" height="92" viewBox="0 0 90 92"><g fill="none" fill-rule="evenodd"><path fill="#6DD0F2" d="M86.5 0h-82C2.29 0 0 1.79 0 4v9h90V4c0-2.21-1.29-4-3.5-4"/><path fill="#FFF" d="M86.5 64h-82C2.29 64 0 62.21 0 60V13h90v47c0 2.21-1.29 4-3.5 4M10 7a2 2 0 1 1-4 0 2 2 0 0 1 4 0M17 7a2 2 0 1 1-4 0 2 2 0 0 1 4 0"/><path fill="#3899EC" d="M77 25a1 1 0 0 1-1 1H14a1 1 0 0 1-1-1v-1a1 1 0 0 1 1-1h62a1 1 0 0 1 1 1v1"/><path fill="#3899EC" d="M20 56a1 1 0 0 1-1 1h-1a1 1 0 0 1-1-1V19a1 1 0 0 1 1-1h1a1 1 0 0 1 1 1v37"/><path fill="#FFF" d="M17 44h3v1h-3v-1zM17 31h3v1h-3v-1zM25 23h1v3h-1v-3zM38 23h1v3h-1v-3zM51 23h1v3h-1v-3zM64 23h1v3h-1v-3z"/><path stroke="#6DD0F2" stroke-width="2" d="M38 29v27" stroke-linecap="round" stroke-linejoin="round" stroke-dasharray="1 4"/><path fill="#A2DBF4" d="M81 89.5c0 1.38-16.34 2.5-36.5 2.5C24.343 92 8 90.88 8 89.5S24.342 87 44.5 87C64.66 87 81 88.12 81 89.5"/></g></svg>