<?xml version="1.0" encoding="UTF-8" standalone="no"?>
<svg width="91px" height="114px" viewBox="0 0 91 114" version="1.1" xmlns="http://www.w3.org/2000/svg" xmlns:xlink="http://www.w3.org/1999/xlink" xmlns:sketch="http://www.bohemiancoding.com/sketch/ns">
    <g id="Page-1" stroke="none" stroke-width="1" fill="none" fill-rule="evenodd" sketch:type="MSPage">
        <g id="site_history_illustration" sketch:type="MSArtboardGroup">
            <g id="Imported-Layers" sketch:type="MSLayerGroup" transform="translate(2.000000, 1.000000)">
                <path d="M80.368,62.444 C80.368,83.636 61.941,100.816 40.184,100.816 C18.427,100.816 0,83.636 0,62.444 L0,22.973 C0,20.351 2.386,18.228 5.004,18.23 C7.621,18.232 10,20.359 10,22.981 L10,22.8 L10.61,24.399 C10.612,27.145 13.133,29.368 15.875,29.365 C18.618,29.363 20.781,27.131 20.779,24.385 L20.936,9.311 C20.936,4.318 25.398,0.248 30.383,0.244 C35.368,0.24 39.802,4.244 39.806,9.238 L39.776,17.84" id="Stroke-1" stroke="#6DD0F2" stroke-width="2" stroke-linecap="round" stroke-linejoin="round" stroke-dasharray="1,4" sketch:type="MSShapeGroup"></path>
                <path d="M61.948,110.91 C61.948,112.04 52.797,112.955 41.507,112.955 C30.218,112.955 21.066,112.04 21.066,110.91 C21.066,109.782 30.218,108.866 41.507,108.866 C52.797,108.866 61.948,109.782 61.948,110.91" id="Fill-2" fill="#A2DBF4" sketch:type="MSShapeGroup"></path>
                <path d="M42,37.074 L42,35.074 C45.265,34.321 47.709,31.395 47.709,27.904 C47.709,23.844 44.406,20.541 40.346,20.541 C36.285,20.541 32.981,23.844 32.981,27.904 C32.981,31.505 35.581,34.505 39,35.14 L39,37.106 C26.478,37.985 16.591,48.414 16.591,61.16 C16.591,74.481 27.39,85.28 40.712,85.28 C54.033,85.28 64.832,74.481 64.832,61.16 C64.832,48.27 54.722,37.743 42,37.074 L42,37.074 Z M35.981,27.904 C35.981,25.498 37.939,23.541 40.346,23.541 C42.752,23.541 44.709,25.498 44.709,27.904 C44.709,29.725 43.587,31.285 42,31.938 L42,30 L39,30 L39,32.034 C37.254,31.463 35.981,29.838 35.981,27.904 L35.981,27.904 Z" id="Fill-3" fill="#3899EC" sketch:type="MSShapeGroup"></path>
                <path d="M41,40 L41,37.046 C40.903,37.045 40.808,37.039 40.712,37.039 C40.473,37.039 40.237,37.05 40,37.057 L40,40 L41,40" id="Fill-4" fill="#FFFFFF" sketch:type="MSShapeGroup"></path>
                <g id="Group-11" transform="translate(40.000000, 37.000000)">
                    <g id="Group-7">
                        <mask id="mask-2" sketch:name="Clip 6" fill="white">
                            <path id="path-1" d="M1,3 L1,0.046 C0.903,0.045 0.808,0.039 0.712,0.039 C0.473,0.039 0.237,0.05 0,0.057 L0,3 L1,3"></path>
                        </mask>
                        <g id="Clip-6"></g>
                        <path d="M1,3 L1,0.046 C0.903,0.045 0.808,0.039 0.712,0.039 C0.473,0.039 0.237,0.05 0,0.057 L0,3 L1,3" id="Fill-5" sketch:type="MSShapeGroup" mask="url(#mask-2)"></path>
                    </g>
                    <g id="Group-10">
                        <mask id="mask-4" sketch:name="Clip 9" fill="white">
                            <path id="path-3" d="M1,3 L1,0.046 C0.903,0.045 0.808,0.039 0.712,0.039 C0.473,0.039 0.237,0.05 0,0.057 L0,3 L1,3"></path>
                        </mask>
                        <g id="Clip-9"></g>
                        <path d="M1,3 L1,0.046 C0.903,0.045 0.808,0.039 0.712,0.039 C0.473,0.039 0.237,0.05 0,0.057 L0,3 L1,3" id="Fill-8" sketch:type="MSShapeGroup" mask="url(#mask-4)"></path>
                    </g>
                </g>
                <g id="Group-14" transform="translate(40.000000, 85.000000)">
                    <mask id="mask-6" sketch:name="Clip 13" fill="white">
                        <path id="path-5" d="M0,0.262 L0,2 L1,2 L1,0.273 C0.903,0.274 0.808,0.28 0.712,0.28 C0.473,0.28 0.237,0.269 0,0.262"></path>
                    </mask>
                    <g id="Clip-13"></g>
                    <path d="M0,0.262 L0,2 L1,2 L1,0.273 C0.903,0.274 0.808,0.28 0.712,0.28 C0.473,0.28 0.237,0.269 0,0.262" id="Fill-12" sketch:type="MSShapeGroup" mask="url(#mask-6)"></path>
                </g>
                <path d="M40,82 L40,85.262 C40.237,85.269 40.473,85.28 40.712,85.28 C40.808,85.28 40.903,85.274 41,85.273 L41,82 L40,82" id="Fill-15" fill="#FFFFFF" sketch:type="MSShapeGroup"></path>
                <g id="Group-22" transform="translate(40.000000, 82.000000)">
                    <g id="Group-18">
                        <mask id="mask-8" sketch:name="Clip 17" fill="white">
                            <path id="path-7" d="M0,0 L0,3.262 C0.237,3.269 0.473,3.28 0.712,3.28 C0.808,3.28 0.903,3.274 1,3.273 L1,0 L0,0"></path>
                        </mask>
                        <g id="Clip-17"></g>
                        <path d="M0,0 L0,3.262 C0.237,3.269 0.473,3.28 0.712,3.28 C0.808,3.28 0.903,3.274 1,3.273 L1,0 L0,0" id="Fill-16" sketch:type="MSShapeGroup" mask="url(#mask-8)"></path>
                    </g>
                    <g id="Group-21">
                        <mask id="mask-10" sketch:name="Clip 20" fill="white">
                            <path id="path-9" d="M0,0 L0,3.262 C0.237,3.269 0.473,3.28 0.712,3.28 C0.808,3.28 0.903,3.274 1,3.273 L1,0 L0,0"></path>
                        </mask>
                        <g id="Clip-20"></g>
                        <path d="M0,0 L0,3.262 C0.237,3.269 0.473,3.28 0.712,3.28 C0.808,3.28 0.903,3.274 1,3.273 L1,0 L0,0" id="Fill-19" sketch:type="MSShapeGroup" mask="url(#mask-10)"></path>
                    </g>
                </g>
                <path d="M30.433,42.563 L28.996,40.075 C28.705,40.237 28.415,40.403 28.132,40.577 L29.567,43.063 L30.433,42.563" id="Fill-23" fill="#FFFFFF" sketch:type="MSShapeGroup"></path>
                <g id="Group-26" transform="translate(28.000000, 40.000000)">
                    <mask id="mask-12" sketch:name="Clip 25" fill="white">
                        <path id="path-11" d="M2.433,2.563 L0.996,0.075 C0.705,0.237 0.415,0.403 0.132,0.577 L1.567,3.063 L2.433,2.563"></path>
                    </mask>
                    <g id="Clip-25"></g>
                    <path d="M2.433,2.563 L0.996,0.075 C0.705,0.237 0.415,0.403 0.132,0.577 L1.567,3.063 L2.433,2.563" id="Fill-24" sketch:type="MSShapeGroup" mask="url(#mask-12)"></path>
                </g>
                <path d="M50.567,79.436 L52.247,82.347 C52.54,82.187 52.829,82.02 53.114,81.849 L51.433,78.937 L50.567,79.436" id="Fill-27" fill="#FFFFFF" sketch:type="MSShapeGroup"></path>
                <g id="Group-30" transform="translate(50.000000, 78.000000)">
                    <mask id="mask-14" sketch:name="Clip 29" fill="white">
                        <path id="path-13" d="M0.567,1.436 L2.247,4.347 C2.54,4.187 2.829,4.02 3.114,3.849 L1.433,0.937 L0.567,1.436"></path>
                    </mask>
                    <g id="Clip-29"></g>
                    <path d="M0.567,1.436 L2.247,4.347 C2.54,4.187 2.829,4.02 3.114,3.849 L1.433,0.937 L0.567,1.436" id="Fill-28" sketch:type="MSShapeGroup" mask="url(#mask-14)"></path>
                </g>
                <path d="M22.563,50.067 L20.091,48.64 C19.918,48.924 19.753,49.214 19.592,49.506 L22.063,50.933 L22.563,50.067" id="Fill-31" fill="#FFFFFF" sketch:type="MSShapeGroup"></path>
                <g id="Group-34" transform="translate(19.000000, 48.000000)">
                    <mask id="mask-16" sketch:name="Clip 33" fill="white">
                        <path id="path-15" d="M3.563,2.067 L1.091,0.64 C0.918,0.924 0.753,1.214 0.592,1.506 L3.063,2.933 L3.563,2.067"></path>
                    </mask>
                    <g id="Clip-33"></g>
                    <path d="M3.563,2.067 L1.091,0.64 C0.918,0.924 0.753,1.214 0.592,1.506 L3.063,2.933 L3.563,2.067" id="Fill-32" sketch:type="MSShapeGroup" mask="url(#mask-16)"></path>
                </g>
                <path d="M58.437,71.933 L61.365,73.624 C61.538,73.339 61.703,73.049 61.864,72.757 L58.936,71.067 L58.437,71.933" id="Fill-35" fill="#FFFFFF" sketch:type="MSShapeGroup"></path>
                <g id="Group-38" transform="translate(58.000000, 71.000000)">
                    <mask id="mask-18" sketch:name="Clip 37" fill="white">
                        <path id="path-17" d="M0.437,0.933 L3.365,2.624 C3.538,2.339 3.703,2.049 3.864,1.757 L0.936,0.067 L0.437,0.933"></path>
                    </mask>
                    <g id="Clip-37"></g>
                    <path d="M0.437,0.933 L3.365,2.624 C3.538,2.339 3.703,2.049 3.864,1.757 L0.936,0.067 L0.437,0.933" id="Fill-36" sketch:type="MSShapeGroup" mask="url(#mask-18)"></path>
                </g>
                <path d="M51.433,43.063 L52.976,40.391 C52.689,40.221 52.4,40.055 52.106,39.897 L50.567,42.563 L51.433,43.063" id="Fill-39" fill="#FFFFFF" sketch:type="MSShapeGroup"></path>
                <g id="Group-42" transform="translate(50.000000, 39.000000)">
                    <mask id="mask-20" sketch:name="Clip 41" fill="white">
                        <path id="path-19" d="M1.433,4.063 L2.976,1.391 C2.689,1.221 2.4,1.055 2.106,0.897 L0.567,3.563 L1.433,4.063"></path>
                    </mask>
                    <g id="Clip-41"></g>
                    <path d="M1.433,4.063 L2.976,1.391 C2.689,1.221 2.4,1.055 2.106,0.897 L0.567,3.563 L1.433,4.063" id="Fill-40" sketch:type="MSShapeGroup" mask="url(#mask-20)"></path>
                </g>
                <path d="M29.567,78.937 L27.997,81.656 C28.28,81.831 28.567,82 28.858,82.164 L30.433,79.436 L29.567,78.937" id="Fill-43" fill="#FFFFFF" sketch:type="MSShapeGroup"></path>
                <g id="Group-46" transform="translate(27.000000, 78.000000)">
                    <mask id="mask-22" sketch:name="Clip 45" fill="white">
                        <path id="path-21" d="M2.567,0.937 L0.997,3.656 C1.28,3.831 1.567,4 1.858,4.164 L3.433,1.436 L2.567,0.937"></path>
                    </mask>
                    <g id="Clip-45"></g>
                    <path d="M2.567,0.937 L0.997,3.656 C1.28,3.831 1.567,4 1.858,4.164 L3.433,1.436 L2.567,0.937" id="Fill-44" sketch:type="MSShapeGroup" mask="url(#mask-22)"></path>
                </g>
                <path d="M58.936,50.933 L61.726,49.322 C61.562,49.032 61.393,48.744 61.218,48.461 L58.437,50.067 L58.936,50.933" id="Fill-47" fill="#FFFFFF" sketch:type="MSShapeGroup"></path>
                <g id="Group-50" transform="translate(58.000000, 48.000000)">
                    <mask id="mask-24" sketch:name="Clip 49" fill="white">
                        <path id="path-23" d="M0.936,2.933 L3.726,1.322 C3.562,1.032 3.393,0.744 3.218,0.461 L0.437,2.067 L0.936,2.933"></path>
                    </mask>
                    <g id="Clip-49"></g>
                    <path d="M0.936,2.933 L3.726,1.322 C3.562,1.032 3.393,0.744 3.218,0.461 L0.437,2.067 L0.936,2.933" id="Fill-48" sketch:type="MSShapeGroup" mask="url(#mask-24)"></path>
                </g>
                <path d="M22.063,71.067 L19.458,72.571 C19.616,72.865 19.783,73.154 19.952,73.44 L22.563,71.933 L22.063,71.067" id="Fill-51" fill="#FFFFFF" sketch:type="MSShapeGroup"></path>
                <g id="Group-54" transform="translate(19.000000, 71.000000)">
                    <mask id="mask-26" sketch:name="Clip 53" fill="white">
                        <path id="path-25" d="M3.063,0.067 L0.458,1.571 C0.616,1.865 0.783,2.154 0.952,2.44 L3.563,0.933 L3.063,0.067"></path>
                    </mask>
                    <g id="Clip-53"></g>
                    <path d="M3.063,0.067 L0.458,1.571 C0.616,1.865 0.783,2.154 0.952,2.44 L3.563,0.933 L3.063,0.067" id="Fill-52" sketch:type="MSShapeGroup" mask="url(#mask-26)"></path>
                </g>
                <path d="M61,62 L64.811,62 C64.821,61.721 64.832,61.441 64.832,61.16 C64.832,61.106 64.829,61.053 64.828,61 L61,61 L61,62" id="Fill-55" fill="#FFFFFF" sketch:type="MSShapeGroup"></path>
                <g id="Group-62" transform="translate(61.000000, 61.000000)">
                    <g id="Group-58">
                        <mask id="mask-28" sketch:name="Clip 57" fill="white">
                            <path id="path-27" d="M0,1 L3.811,1 C3.821,0.721 3.832,0.441 3.832,0.16 C3.832,0.106 3.829,0.053 3.828,0 L0,0 L0,1"></path>
                        </mask>
                        <g id="Clip-57"></g>
                        <path d="M0,1 L3.811,1 C3.821,0.721 3.832,0.441 3.832,0.16 C3.832,0.106 3.829,0.053 3.828,0 L0,0 L0,1" id="Fill-56" sketch:type="MSShapeGroup" mask="url(#mask-28)"></path>
                    </g>
                    <g id="Group-61">
                        <mask id="mask-30" sketch:name="Clip 60" fill="white">
                            <path id="path-29" d="M0,1 L3.811,1 C3.821,0.721 3.832,0.441 3.832,0.16 C3.832,0.106 3.829,0.053 3.828,0 L0,0 L0,1"></path>
                        </mask>
                        <g id="Clip-60"></g>
                        <path d="M0,1 L3.811,1 C3.821,0.721 3.832,0.441 3.832,0.16 C3.832,0.106 3.829,0.053 3.828,0 L0,0 L0,1" id="Fill-59" sketch:type="MSShapeGroup" mask="url(#mask-30)"></path>
                    </g>
                </g>
                <path d="M19,61 L16.595,61 C16.595,61.053 16.591,61.106 16.591,61.16 C16.591,61.441 16.602,61.721 16.612,62 L19,62 L19,61" id="Fill-63" fill="#FFFFFF" sketch:type="MSShapeGroup"></path>
                <g id="Group-70" transform="translate(16.000000, 61.000000)">
                    <g id="Group-66">
                        <mask id="mask-32" sketch:name="Clip 65" fill="white">
                            <path id="path-31" d="M3,0 L0.595,0 C0.595,0.053 0.591,0.106 0.591,0.16 C0.591,0.441 0.602,0.721 0.612,1 L3,1 L3,0"></path>
                        </mask>
                        <g id="Clip-65"></g>
                        <path d="M3,0 L0.595,0 C0.595,0.053 0.591,0.106 0.591,0.16 C0.591,0.441 0.602,0.721 0.612,1 L3,1 L3,0" id="Fill-64" sketch:type="MSShapeGroup" mask="url(#mask-32)"></path>
                    </g>
                    <g id="Group-69">
                        <mask id="mask-34" sketch:name="Clip 68" fill="white">
                            <path id="path-33" d="M3,0 L0.595,0 C0.595,0.053 0.591,0.106 0.591,0.16 C0.591,0.441 0.602,0.721 0.612,1 L3,1 L3,0"></path>
                        </mask>
                        <g id="Clip-68"></g>
                        <path d="M3,0 L0.595,0 C0.595,0.053 0.591,0.106 0.591,0.16 C0.591,0.441 0.602,0.721 0.612,1 L3,1 L3,0" id="Fill-67" sketch:type="MSShapeGroup" mask="url(#mask-34)"></path>
                    </g>
                </g>
                <path d="M56.982,62.828 C58.006,52.486 49.386,43.865 39.043,44.889 C31.39,45.647 25.199,51.838 24.441,59.491 C23.417,69.834 32.038,78.454 42.38,77.43 C50.034,76.672 56.224,70.482 56.982,62.828" id="Fill-71" fill="#FFFFFF" sketch:type="MSShapeGroup"></path>
                <path d="M44.814,68.482 C44.527,68.482 44.239,68.401 43.983,68.231 L38.669,64.696 C38.251,64.418 38,63.949 38,63.447 L38,54 C38,53.172 38.672,52.5 39.5,52.5 C40.328,52.5 41,53.172 41,54 L41,62.644 L45.646,65.733 C46.335,66.192 46.522,67.123 46.063,67.813 C45.774,68.247 45.298,68.482 44.814,68.482" id="Fill-72" fill="#6DD0F2" sketch:type="MSShapeGroup"></path>
                <path d="M73.827,64.43 L80.777,57.071 L87.727,64.43" id="Stroke-73" stroke="#6DD0F2" stroke-width="2" stroke-linecap="round" stroke-linejoin="round" sketch:type="MSShapeGroup"></path>
            </g>
        </g>
    </g>
</svg>
