<?xml version="1.0" encoding="UTF-8" standalone="no"?>
<svg width="90px" height="111px" viewBox="0 0 90 111" version="1.1" xmlns="http://www.w3.org/2000/svg" xmlns:xlink="http://www.w3.org/1999/xlink" xmlns:sketch="http://www.bohemiancoding.com/sketch/ns">
    <!-- Generator: Sketch 3.3.2 (12043) - http://www.bohemiancoding.com/sketch -->
    <title>Back to old editor</title>
    <desc>Created with Sketch.</desc>
    <defs></defs>
    <g id="Page-1" stroke="none" stroke-width="1" fill="none" fill-rule="evenodd" sketch:type="MSPage">
        <g id="Back-to-old-editor" sketch:type="MSArtboardGroup">
            <path d="M81,108.5 C81,109.881 64.882,111 45,111 C25.117,111 9,109.881 9,108.5 C9,107.12 25.117,106 45,106 C64.882,106 81,107.12 81,108.5" id="Fill-1" fill="#A2DBF4" sketch:type="MSShapeGroup"></path>
            <path d="M8,77 L81,77 L81,91 L8,91 L8,77 Z" id="Fill-2" fill="#FFFFFF" sketch:type="MSShapeGroup"></path>
            <path d="M90,82 L0,82 L0,6.067 C0,2.754 2.353,0 5.667,0 L84,0 C87.314,0 90,2.754 90,6.067 L90,82" id="Fill-3" fill="#FFFFFF" sketch:type="MSShapeGroup"></path>
            <path d="M76,60 L14,60 C11.791,60 10,58.209 10,56 L10,14 C10,11.791 11.791,10 14,10 L76,10 C78.209,10 80,11.791 80,14 L80,56 C80,58.209 78.209,60 76,60" id="Fill-4" fill="#6DD0F2" sketch:type="MSShapeGroup"></path>
            <path d="M75,57 L65,57 L27,13 L75,13 C76.104,13 77,13.895 77,15 L77,55 C77,56.105 76.104,57 75,57" id="Fill-5" fill="#A2DBF4" sketch:type="MSShapeGroup"></path>
            <path d="M15,16 L20,16 L20,21 L15,21 L15,16 Z" id="Fill-6" fill="#FFFFFF" sketch:type="MSShapeGroup"></path>
            <path d="M15,24 L20,24 L20,29 L15,29 L15,24 Z" id="Fill-7" fill="#FFFFFF" sketch:type="MSShapeGroup"></path>
            <path d="M15,32 L20,32 L20,37 L15,37 L15,32 Z" id="Fill-8" fill="#FFFFFF" sketch:type="MSShapeGroup"></path>
            <path d="M15,40 L20,40 L20,45 L15,45 L15,40 Z" id="Fill-9" fill="#FFFFFF" sketch:type="MSShapeGroup"></path>
            <path d="M47,69 L80,69 L80,72 L47,72 L47,69 Z" id="Fill-10" fill="#3899EC" sketch:type="MSShapeGroup"></path>
            <path d="M10,69 L19,69 L19,72 L10,72 L10,69 Z" id="Fill-11" fill="#3899EC" sketch:type="MSShapeGroup"></path>
            <path d="M30.717,34.821 C30.717,26.083 37.8,19 46.537,19 C55.275,19 62.358,26.083 62.358,34.821 C62.358,43.558 55.275,50.641 46.537,50.641 M34.642,32.56 C33.738,33.465 30.717,36.177 30.717,36.177 L27.101,32.56 M52.882,41.392 L45.813,36.585 L45.813,27.417" id="Stroke-12" stroke="#FFFFFF" stroke-width="2" stroke-linecap="round" sketch:type="MSShapeGroup"></path>
            <path d="M81.167,82 L8,82 L8,86.943 L80.917,84.128 C80.917,84.128 80.979,82 81.167,82" id="Fill-13" fill="#EBF8FF" sketch:type="MSShapeGroup"></path>
        </g>
    </g>
</svg>
