<svg xmlns="http://www.w3.org/2000/svg" width="76" height="100" viewBox="0 0 76 100"><g fill="none" fill-rule="evenodd"><path fill="#FFF" d="M11.483 11.483c-14.644 14.645-14.644 38.39 0 53.034 14.646 14.644 38.39 14.644 53.033 0 14.645-14.645 14.645-38.39 0-53.033-14.644-14.645-38.388-14.645-53.033 0zm40.83 40.83c-7.904 7.907-20.722 7.907-28.628 0-7.905-7.904-7.905-20.722 0-28.627 7.906-7.906 20.724-7.906 28.63 0 7.905 7.905 7.905 20.723 0 28.628z"/><path fill="#6DD0F2" d="M47.168 20.154a20.17 20.17 0 0 1 5.11 3.707 20.147 20.147 0 0 1 3.706 5.11l12.963-12.963a1.988 1.988 0 0 0 0-2.81L62.94 7.192a1.988 1.988 0 0 0-2.81 0L47.17 20.155M20.016 47.306L7.053 60.27a1.988 1.988 0 0 0 0 2.808l6.007 6.007a1.988 1.988 0 0 0 2.81 0L28.83 56.122a20.143 20.143 0 0 1-5.11-3.706 20.17 20.17 0 0 1-3.706-5.11"/><path fill="#3899EC" d="M7.053 16.007L20.016 28.97a20.17 20.17 0 0 1 3.707-5.11 20.16 20.16 0 0 1 5.108-3.706L15.87 7.19a1.988 1.988 0 0 0-2.81 0L7.053 13.2a1.988 1.988 0 0 0 0 2.81M52.277 52.415a20.122 20.122 0 0 1-5.11 3.707l12.964 12.963a1.986 1.986 0 0 0 2.81 0l6.007-6.007a1.988 1.988 0 0 0 0-2.81L55.984 47.307a20.147 20.147 0 0 1-3.707 5.11"/><path fill="#A2DBF4" d="M64 97.5c0 1.38-11.865 2.5-26.5 2.5-14.636 0-26.5-1.12-26.5-2.5S22.864 95 37.5 95C52.135 95 64 96.12 64 97.5"/></g></svg>