<svg class="symbol-upgrade-clipart" version="1.1" xmlns="http://www.w3.org/2000/svg"
    xmlns:xlink="http://www.w3.org/1999/xlink"
    width="110px" height="127px" viewBox="0 0 110 127">
  <ellipse style="fill:#E3CEF4;" cx="69.428" cy="124.506" rx="29" ry="2"/>
  <polygon style="fill:#B372D8;" points="45.484,69.306 43.045,70.24 40.262,62.877 42.701,61.944 		"/>
  <polygon style="fill:#ED4E4D;" points="3.395,32.072 8.158,28.181 19.761,42.557 14.997,46.448 		"/>
  <polygon style="fill:#F5C400;" points="42.346,0.276 48.479,0.078 49.069,18.587 42.937,18.785 		"/>
  <path style="fill:#C593E5;" d="M76.36,19.906c-3.31-6.337-8.48-8.512-12.378-6.45s-5.05,7.578-1.739,13.915
                                 s13.727,9.032,13.727,9.032S79.671,26.243,76.36,19.906z"/>
  <path style="fill:#B372D8;" d="M79.203,20.736c6.168-3.57,11.692-2.624,13.888,1.216s0.232,9.12-5.936,12.69
                                 s-16.401,0.239-16.401,0.239S73.035,24.306,79.203,20.736z"/>
  <path style="fill:none;stroke:#E1C9F1;stroke-linecap:round;stroke-linejoin:round;stroke-miterlimit:10;" d="M84.342,25.106
                                                                                                             c2.113-6.836-0.013-12.051-4.218-13.367c-4.205-1.315-8.897,1.767-11.01,8.603C67,27.178,72.47,36.495,72.47,36.495
                                                                                                             S82.228,31.942,84.342,25.106z"/>
  <path style="fill:#EBDBF6;" d="M104.53,62.761L31.816,41.537l4.72-16.364c0.307-1.063,1.412-1.675,2.469-1.367l68.887,20.107
                                 c1.057,0.308,1.665,1.42,1.358,2.484L104.53,62.761z"/>
  <polygon style="fill:#C593E5;" points="72,53.266 64.346,51.032 69.622,32.743 77.276,34.977 		"/>
  <polygon style="fill:#C593E5;" points="6.254,15.497 7.949,14.506 10.901,19.622 9.206,20.612 		"/>
  <ellipse transform="matrix(1 0.0077 -0.0077 1 0.397 -0.201)" style="fill:#8DC86F;" cx="26.262" cy="51.37" rx="1.494" ry="1.503"/>
  <ellipse transform="matrix(1 0.0077 -0.0077 1 0.1376 -0.2551)" style="fill:#ED4E4D;" cx="33.136" cy="17.708" rx="1.494" ry="1.503"/>
  <ellipse transform="matrix(1 0.0077 -0.0077 1 0.3877 -0.0161)" style="fill:#5FCEF5;" cx="2.285" cy="50.259" rx="1.992" ry="2.005"/>
  <rect x="49.06" y="38.61" transform="matrix(-0.9999 -0.0109 0.0109 -0.9999 101.6148 89.8025)" style="fill:#5FCEF5;" width="3.985" height="12.027"/>
  <path style="fill:none;stroke:#B372D8;stroke-linecap:round;stroke-linejoin:round;stroke-miterlimit:10;stroke-dasharray:1,3;" d="
                                                                                                                                  M23.598,18.082c-3.635,2.509-4.56,7.507-2.067,11.164s7.462,4.587,11.097,2.078s8.603-1.579,11.097,2.078
                                                                                                                                  c2.494,3.657,1.568,8.655-2.067,11.164l-0.06-0.018c-3.635,2.509-4.56,7.507-2.067,11.164c2.494,3.657,7.462,4.587,11.097,2.078
                                                                                                                                  c3.635-2.509,8.603-1.579,11.097,2.078c2.494,3.657,1.568,8.655-2.067,11.164"/>
  <path style="fill:#EBDBF6;" d="M99.148,113.344l-59.773-0.461c-1.1-0.008-2.05-0.823-2.042-1.93l0.332-43.085l63.998,0.494
                                 l-0.332,43.085C101.324,112.554,100.249,113.353,99.148,113.344z"/>
  <rect x="65.492" y="68.115" transform="matrix(1 0.0077 -0.0077 1 0.701 -0.5333)" style="fill:#C593E5;" width="8" height="45"/>
  <line style="fill:none;stroke:#B372D8;stroke-linecap:round;stroke-linejoin:round;stroke-miterlimit:10;stroke-dasharray:1,3;" x1="38.593" y1="77.376" x2="101.591" y2="77.862"/>
</svg>
