<svg xmlns="http://www.w3.org/2000/svg" width="112" height="92" viewBox="0 0 112 92"><g fill="none" fill-rule="evenodd"><path fill="#FFF" d="M84 0H4a4 4 0 0 0-4 4v56c0 2.2 1.8 4 4 4h80c2.2 0 4-1.8 4-4V4a4 4 0 0 0-4-4"/><path fill="#A2DBF4" d="M83 89.5c0 1.38-17.237 2.5-38.5 2.5S6 90.88 6 89.5 23.237 87 44.5 87 83 88.12 83 89.5M84 64h-2V0h2a4 4 0 0 1 4 4v56a4 4 0 0 1-4 4M4 24H3a.5.5 0 0 0 0 1h1a.5.5 0 0 0 0-1m4 0H7a.5.5 0 0 0 0 1h1a.5.5 0 0 0 0-1m4 0h-1a.5.5 0 0 0 0 1h1a.5.5 0 0 0 0-1m4 0h-1a.5.5 0 0 0 0 1h1a.5.5 0 0 0 0-1m4 0h-1a.5.5 0 0 0 0 1h1a.5.5 0 0 0 0-1m4 0h-1a.5.5 0 0 0 0 1h1a.5.5 0 0 0 0-1m4 0h-1a.5.5 0 0 0 0 1h1a.5.5 0 0 0 0-1m4 0h-1a.5.5 0 0 0 0 1h1a.5.5 0 0 0 0-1m4 0h-1a.5.5 0 0 0 0 1h1a.5.5 0 0 0 0-1m4 0h-1a.5.5 0 0 0 0 1h1a.5.5 0 0 0 0-1m4 0h-1a.5.5 0 0 0 0 1h1a.5.5 0 0 0 0-1m4 0h-1a.5.5 0 0 0 0 1h1a.5.5 0 0 0 0-1m4 0h-1a.5.5 0 0 0 0 1h1a.5.5 0 0 0 0-1m4 0h-1a.5.5 0 0 0 0 1h1a.5.5 0 0 0 0-1m4 0h-1a.5.5 0 0 0 0 1h1a.5.5 0 0 0 0-1m4 0h-1a.5.5 0 0 0 0 1h1a.5.5 0 0 0 0-1m4 0h-1a.5.5 0 0 0 0 1h1a.5.5 0 0 0 0-1M4 39H3a.5.5 0 0 0 0 1h1a.5.5 0 0 0 0-1m4 0H7a.5.5 0 0 0 0 1h1a.5.5 0 0 0 0-1m4 0h-1a.5.5 0 0 0 0 1h1a.5.5 0 0 0 0-1m4 0h-1a.5.5 0 0 0 0 1h1a.5.5 0 0 0 0-1m4 0h-1a.5.5 0 0 0 0 1h1a.5.5 0 0 0 0-1m4 0h-1a.5.5 0 0 0 0 1h1a.5.5 0 0 0 0-1m4 0h-1a.5.5 0 0 0 0 1h1a.5.5 0 0 0 0-1m4 0h-1a.5.5 0 0 0 0 1h1a.5.5 0 0 0 0-1m4 0h-1a.5.5 0 0 0 0 1h1a.5.5 0 0 0 0-1m4 0h-1a.5.5 0 0 0 0 1h1a.5.5 0 0 0 0-1m4 0h-1a.5.5 0 0 0 0 1h1a.5.5 0 0 0 0-1m4 0h-1a.5.5 0 0 0 0 1h1a.5.5 0 0 0 0-1m4 0h-1a.5.5 0 0 0 0 1h1a.5.5 0 0 0 0-1m4 0h-1a.5.5 0 0 0 0 1h1a.5.5 0 0 0 0-1m4 0h-1a.5.5 0 0 0 0 1h1a.5.5 0 0 0 0-1m4 0h-1a.5.5 0 0 0 0 1h1a.5.5 0 0 0 0-1m4 0h-1a.5.5 0 0 0 0 1h1a.5.5 0 0 0 0-1"/><path fill="#5FCEF6" d="M93.374 49.702l12.654 12.654a3.5 3.5 0 1 0 4.95-4.95L98.323 44.753a3.5 3.5 0 1 0-4.95 4.95"/><g transform="translate(59 10)"><mask id="a" fill="#fff"><path d="M6.395 36.08c8.158 8.157 21.383 8.157 29.54 0 8.158-8.158 8.158-21.384 0-29.54-8.157-8.16-21.382-8.16-29.54 0-8.157 8.156-8.157 21.382 0 29.54z"/></mask><path fill="#FFF" d="M-1.762-1.62h45.856v45.857H-1.762V-1.62z" mask="url(#a)"/><path fill="#D1EDFF" d="M32-1.62h12.093v45.857H32V-1.62z" mask="url(#a)"/><path fill="#6DD0F2" d="M19 10h1a1 1 0 0 0 0-2h-1a1 1 0 0 0 0 2m-5 0h1a1 1 0 0 0 0-2h-1a1 1 0 0 0 0 2m-5 0h1a1 1 0 0 0 0-2H9a1 1 0 0 0 0 2m-5 0h1a1 1 0 0 0 0-2H4a1 1 0 0 0 0 2m-5 0h1a1 1 0 0 0 0-2h-1a1 1 0 0 0 0 2M19 35h1a1 1 0 0 0 0-2h-1a1 1 0 0 0 0 2m-5 0h1a1 1 0 0 0 0-2h-1a1 1 0 0 0 0 2m-5 0h1a1 1 0 0 0 0-2H9a1 1 0 0 0 0 2m-5 0h1a1 1 0 0 0 0-2H4a1 1 0 0 0 0 2m-5 0h1a1 1 0 0 0 0-2h-1a1 1 0 0 0 0 2" mask="url(#a)"/><path fill="#A2DBF4" d="M18-1.62h14v45.857H18V-1.62z" mask="url(#a)"/><path fill="#3899EC" d="M18 8h14v27H18V8z" mask="url(#a)"/><path fill="#FFF" d="M22.707 17.682L25 15.39l2.293 2.292a1 1 0 1 0 1.414-1.414L25 12.56l-3.707 3.708a1 1 0 1 0 1.414 1.414M27.293 25.693L25 27.986l-2.293-2.293a1 1 0 1 0-1.414 1.414L25 30.814l3.707-3.707a1 1 0 1 0-1.414-1.414" mask="url(#a)"/><path fill="#D9E1E8" d="M18 .66A20.797 20.797 0 0 0 6.395 6.54c-.47.47-.916.96-1.333 1.462A1 1 0 0 1 5 10H4a.99.99 0 0 1-.36-.066 20.744 20.744 0 0 0-2.366 4.984C-.65 20.925.21 27.628 3.857 33.01c.047-.006.095-.01.143-.01h.3a19.697 19.697 0 0 1-1.72-8.086A19.624 19.624 0 0 1 8.364 10.95c.33-.33.67-.647 1.02-.95H9a1 1 0 0 1 0-2h1a1 1 0 0 1 .97.757A19.626 19.626 0 0 1 18 5.653V.66" mask="url(#a)"/><path fill="#D1E1E8" d="M32 3.444v4.253a19.7 19.7 0 0 1 4.29 3.253c3.28 3.282 5.264 7.515 5.694 12.076.484-5.902-1.532-11.97-6.048-16.487A20.91 20.91 0 0 0 32 3.443" mask="url(#a)"/><path fill="#6DD0E8" d="M5.062 8.002c-.515.623-.99 1.267-1.42 1.932A.99.99 0 0 0 4 10h1a1 1 0 0 0 .062-1.998M10 8H9a1 1 0 0 0 0 2h.383a19.6 19.6 0 0 1 1.587-1.243A1 1 0 0 0 10 8M4.3 33H4c-.048 0-.096.004-.143.01a20.92 20.92 0 0 0 1.384 1.82A19.357 19.357 0 0 1 4.3 33" mask="url(#a)"/><path fill="#A2DBE8" d="M21.166.42C20.106.42 19.05.5 18 .66v4.993a19.905 19.905 0 0 1 4.327-.475c3.34 0 6.68.84 9.673 2.52V3.443A20.883 20.883 0 0 0 21.166.42" mask="url(#a)"/></g><path fill="#5FCEF6" d="M64.575 46.9l-1.415 1.414a23.984 23.984 0 0 0 17.005 7.044 23.987 23.987 0 0 0 17.006-7.044 23.977 23.977 0 0 0 7.044-17.005 23.98 23.98 0 0 0-7.043-17.006A23.987 23.987 0 0 0 80.166 7.26a23.984 23.984 0 0 0-17.005 7.044 23.984 23.984 0 0 0-7.044 17.005 23.983 23.983 0 0 0 7.044 17.004l2.83-2.828a19.98 19.98 0 0 1-5.874-14.177A19.98 19.98 0 0 1 65.99 17.13a19.978 19.978 0 0 1 14.175-5.872 19.978 19.978 0 0 1 14.177 5.872 19.98 19.98 0 0 1 5.873 14.177 19.98 19.98 0 0 1-5.873 14.176 19.978 19.978 0 0 1-14.177 5.872 19.978 19.978 0 0 1-14.176-5.872L64.574 46.9"/></g></svg>