<?xml version="1.0" encoding="UTF-8" standalone="no"?>
<svg width="129px" height="113px" viewBox="0 0 129 113" version="1.1" xmlns="http://www.w3.org/2000/svg" xmlns:xlink="http://www.w3.org/1999/xlink" xmlns:sketch="http://www.bohemiancoding.com/sketch/ns">
    <g id="Page-1" stroke="none" stroke-width="1" fill="none" fill-rule="evenodd" sketch:type="MSPage">
        <g id="connect_domain_illustration" sketch:type="MSArtboardGroup">
            <g id="Imported-Layers" sketch:type="MSLayerGroup" transform="translate(1.000000, 0.000000)">
                <path d="M108,82.667 C108,84.876 106.209,87 104,87 L24,87 C21.791,87 20,84.876 20,82.667 L20,36 L108,36 L108,82.667" id="Fill-1" fill="#FFFFFF" sketch:type="MSShapeGroup"></path>
                <path d="M108,36 L20,36 L20,26.667 C20,24.458 21.791,23 24,23 L104,23 C106.209,23 108,24.458 108,26.667 L108,36" id="Fill-2" fill="#6DD0F2" sketch:type="MSShapeGroup"></path>
                <path d="M30.193,29.366 C30.193,30.571 29.216,31.548 28.01,31.548 C26.805,31.548 25.828,30.571 25.828,29.366 C25.828,28.16 26.805,27.183 28.01,27.183 C29.216,27.183 30.193,28.16 30.193,29.366" id="Fill-3" fill="#FFFFFF" sketch:type="MSShapeGroup"></path>
                <path d="M37.151,29.366 C37.151,30.571 36.174,31.548 34.969,31.548 C33.764,31.548 32.787,30.571 32.787,29.366 C32.787,28.16 33.764,27.183 34.969,27.183 C36.174,27.183 37.151,28.16 37.151,29.366" id="Fill-4" fill="#FFFFFF" sketch:type="MSShapeGroup"></path>
                <path d="M125.823,60.799 L107.499,24.828 C106.729,23.318 104.861,22.707 103.327,23.465 L48.868,50.372 C47.334,51.13 46.714,52.969 47.484,54.48 L65.808,90.451 C66.577,91.961 68.445,92.572 69.979,91.814 L124.438,64.907 C125.973,64.149 126.592,62.31 125.823,60.799 L125.823,60.799 Z M104.683,35.097 C103.297,35.782 101.61,35.231 100.915,33.866 C100.219,32.501 100.779,30.839 102.165,30.155 C103.551,29.47 105.238,30.021 105.934,31.386 C106.629,32.751 106.069,34.412 104.683,35.097 L104.683,35.097 Z" id="Fill-5" fill="#3899EC" sketch:type="MSShapeGroup"></path>
                <path d="M67.568,61.53 L68.546,61.047 L74.915,68.22 L74.941,68.207 L73.072,58.81 L74.211,58.248 L80.754,65.334 L80.781,65.321 L78.764,55.998 L79.675,55.547 L81.834,66.27 L80.869,66.747 L74.152,59.515 L74.125,59.528 L76.008,69.149 L75.017,69.639 L67.568,61.53" id="Fill-6" fill="#FFFFFF" sketch:type="MSShapeGroup"></path>
                <path d="M79.715,55.528 L80.693,55.044 L87.062,62.217 L87.089,62.204 L85.22,52.808 L86.359,52.245 L92.902,59.332 L92.928,59.319 L90.912,49.995 L91.823,49.545 L93.982,60.267 L93.017,60.744 L86.299,53.512 L86.273,53.525 L88.156,63.146 L87.165,63.636 L79.715,55.528" id="Fill-7" fill="#FFFFFF" sketch:type="MSShapeGroup"></path>
                <path d="M91.863,49.525 L92.841,49.042 L99.21,56.215 L99.236,56.201 L97.368,46.805 L98.506,46.242 L105.049,53.329 L105.076,53.316 L103.06,43.992 L103.971,43.542 L106.129,54.265 L105.165,54.741 L98.447,47.509 L98.421,47.522 L100.303,57.144 L99.312,57.633 L91.863,49.525" id="Fill-8" fill="#FFFFFF" sketch:type="MSShapeGroup"></path>
                <path d="M17.278,10.55 L14.154,9.396 L17.674,0 L20.799,1.155 L17.278,10.55" id="Fill-9" fill="#B372D8" sketch:type="MSShapeGroup"></path>
                <path d="M7.382,31.48 L9.544,30.218 L13.309,36.738 L11.148,38 L7.382,31.48" id="Fill-10" fill="#C593E5" sketch:type="MSShapeGroup"></path>
                <path d="M4.312,18.271 C4.303,19.33 3.443,20.181 2.391,20.173 C1.338,20.165 0.492,19.3 0.5,18.242 C0.508,17.184 1.368,16.332 2.421,16.341 C3.473,16.349 4.32,17.213 4.312,18.271" id="Fill-11" fill="#ED4E4D" sketch:type="MSShapeGroup"></path>
                <path d="M36.5,12.606 C36.489,14.017 35.342,15.152 33.939,15.141 C32.535,15.131 31.407,13.978 31.418,12.567 C31.429,11.156 32.575,10.021 33.979,10.032 C35.382,10.042 36.511,11.195 36.5,12.606" id="Fill-12" fill="#5FCEF6" sketch:type="MSShapeGroup"></path>
                <path d="M101,110.5 C101,111.881 84.658,113 64.5,113 C44.341,113 28,111.881 28,110.5 C28,109.119 44.341,108 64.5,108 C84.658,108 101,109.119 101,110.5" id="Fill-13" fill="#A2DBF4" sketch:type="MSShapeGroup"></path>
                <path d="M103.5,15 C98.773,15 94.853,18.474 94.13,23 L96.151,23 C96.848,19.581 99.878,17 103.5,17 C107.636,17 111,20.364 111,24.5 C111,28.636 107.636,32 103.5,32 C102.947,32 102.5,32.447 102.5,33 C102.5,33.553 102.947,34 103.5,34 C108.738,34 113,29.738 113,24.5 C113,19.262 108.738,15 103.5,15" id="Fill-14" fill="#A2DBF4" sketch:type="MSShapeGroup"></path>
            </g>
        </g>
    </g>
</svg>
