<svg xmlns="http://www.w3.org/2000/svg" width="90" height="92" viewBox="0 0 90 92"><g fill="none" fill-rule="evenodd"><path fill="#6DD0F2" d="M86 0H4a4 4 0 0 0-4 4v9h90V4a4 4 0 0 0-4-4"/><path fill="#FFF" d="M86 64H4a4 4 0 0 1-4-4V13h90v47a4 4 0 0 1-4 4M9.693 7.1a2.182 2.182 0 1 1-4.365 0 2.182 2.182 0 0 1 4.365 0M16.65 7.1a2.182 2.182 0 1 1-4.362.002A2.182 2.182 0 0 1 16.65 7.1"/><path fill="#3899EC" d="M77 54h-8a1 1 0 0 1-1-1V24a1 1 0 0 1 1-1h8a1 1 0 0 1 1 1v29a1 1 0 0 1-1 1"/><path fill="#FFF" d="M70 28h2v2h-2v-2zM74 28h2v2h-2v-2zM70 32h2v2h-2v-2zM74 32h2v2h-2v-2zM70 36h2v2h-2v-2zM74 36h2v2h-2v-2zM70 42h6v2h-6v-2zM70 46h6v2h-6v-2z"/><path fill="#A2DBF4" d="M81 89.5c0 1.38-16.342 2.5-36.5 2.5S8 90.88 8 89.5 24.342 87 44.5 87 81 88.12 81 89.5"/></g></svg>