<svg xmlns="http://www.w3.org/2000/svg" width="94" height="85" viewBox="0 0 94 85"><g fill="none" fill-rule="evenodd"><path fill="#FFF" d="M21 17h-8a1 1 0 0 1-1-1V8a1 1 0 0 1 1-1h8a1 1 0 0 1 1 1v8a1 1 0 0 1-1 1M24 29h-8a1 1 0 0 1-1-1v-8a1 1 0 0 1 1-1h8a1 1 0 0 1 1 1v8a1 1 0 0 1-1 1M28 41h-8a1 1 0 0 1-1-1v-8a1 1 0 0 1 1-1h8a1 1 0 0 1 1 1v8a1 1 0 0 1-1 1M40 41h-8a1 1 0 0 1-1-1v-8a1 1 0 0 1 1-1h8a1 1 0 0 1 1 1v8a1 1 0 0 1-1 1M52 41h-8a1 1 0 0 1-1-1v-8a1 1 0 0 1 1-1h8a1 1 0 0 1 1 1v8a1 1 0 0 1-1 1M64 41h-8a1 1 0 0 1-1-1v-8a1 1 0 0 1 1-1h8a1 1 0 0 1 1 1v8a1 1 0 0 1-1 1M76 41h-8a1 1 0 0 1-1-1v-8a1 1 0 0 1 1-1h8a1 1 0 0 1 1 1v8a1 1 0 0 1-1 1M81 53h-8a1 1 0 0 1-1-1v-8a1 1 0 0 1 1-1h8a1 1 0 0 1 1 1v8a1 1 0 0 1-1 1M36 29h-8a1 1 0 0 1-1-1v-8a1 1 0 0 1 1-1h8a1 1 0 0 1 1 1v8a1 1 0 0 1-1 1M48 29h-8a1 1 0 0 1-1-1v-8a1 1 0 0 1 1-1h8a1 1 0 0 1 1 1v8a1 1 0 0 1-1 1M72 29h-8a1 1 0 0 1-1-1v-8a1 1 0 0 1 1-1h8a1 1 0 0 1 1 1v8a1 1 0 0 1-1 1"/><path fill="#5FCEF6" d="M60 29h-8a1 1 0 0 1-1-1v-8a1 1 0 0 1 1-1h8a1 1 0 0 1 1 1v8a1 1 0 0 1-1 1"/><path fill="#FFF" d="M9 17H1a1 1 0 0 1-1-1V8a1 1 0 0 1 1-1h8a1 1 0 0 1 1 1v8a1 1 0 0 1-1 1M93 29H76a1 1 0 0 1-1-1v-8a1 1 0 0 1 1-1h17a1 1 0 0 1 1 1v8a1 1 0 0 1-1 1"/><path fill="#3899EC" d="M10 52a1 1 0 0 1-1 1H1a1 1 0 0 1-1-1v-8a1 1 0 0 1 1-1h8a1 1 0 0 1 1 1v8M22 52a1 1 0 0 1-1 1h-8a1 1 0 0 1-1-1v-8a1 1 0 0 1 1-1h8a1 1 0 0 1 1 1v8"/><path fill="#FFF" d="M58 52a1 1 0 0 1-1 1H25a1 1 0 0 1-1-1v-8a1 1 0 0 1 1-1h32a1 1 0 0 1 1 1v8M70 52a1 1 0 0 1-1 1h-8a1 1 0 0 1-1-1v-3a1 1 0 0 1 1-1h8a1 1 0 0 1 1 1v3M94 52a1 1 0 0 1-1 1h-8a1 1 0 0 1-1-1v-3a1 1 0 0 1 1-1h8a1 1 0 0 1 1 1v3M10 4a1 1 0 0 1-1 1H1a1 1 0 0 1-1-1V1a1 1 0 0 1 1-1h8a1 1 0 0 1 1 1v3M22 4a1 1 0 0 1-1 1h-8a1 1 0 0 1-1-1V1a1 1 0 0 1 1-1h8a1 1 0 0 1 1 1v3M34 16a1 1 0 0 1-1 1h-8a1 1 0 0 1-1-1V8a1 1 0 0 1 1-1h8a1 1 0 0 1 1 1v8M34 4a1 1 0 0 1-1 1h-8a1 1 0 0 1-1-1V1a1 1 0 0 1 1-1h8a1 1 0 0 1 1 1v3M46 16a1 1 0 0 1-1 1h-8a1 1 0 0 1-1-1V8a1 1 0 0 1 1-1h8a1 1 0 0 1 1 1v8M46 4a1 1 0 0 1-1 1h-8a1 1 0 0 1-1-1V1a1 1 0 0 1 1-1h8a1 1 0 0 1 1 1v3M58 16a1 1 0 0 1-1 1h-8a1 1 0 0 1-1-1V8a1 1 0 0 1 1-1h8a1 1 0 0 1 1 1v8M58 4a1 1 0 0 1-1 1h-8a1 1 0 0 1-1-1V1a1 1 0 0 1 1-1h8a1 1 0 0 1 1 1v3M70 16a1 1 0 0 1-1 1h-8a1 1 0 0 1-1-1V8a1 1 0 0 1 1-1h8a1 1 0 0 1 1 1v8M70 4a1 1 0 0 1-1 1h-8a1 1 0 0 1-1-1V1a1 1 0 0 1 1-1h8a1 1 0 0 1 1 1v3M82 16a1 1 0 0 1-1 1h-8a1 1 0 0 1-1-1V8a1 1 0 0 1 1-1h8a1 1 0 0 1 1 1v8M82 4a1 1 0 0 1-1 1h-8a1 1 0 0 1-1-1V1a1 1 0 0 1 1-1h8a1 1 0 0 1 1 1v3M94 16a1 1 0 0 1-1 1h-8a1 1 0 0 1-1-1V8a1 1 0 0 1 1-1h8a1 1 0 0 1 1 1v8M94 4a1 1 0 0 1-1 1h-8a1 1 0 0 1-1-1V1a1 1 0 0 1 1-1h8a1 1 0 0 1 1 1v3M13 28a1 1 0 0 1-1 1H1a1 1 0 0 1-1-1v-8a1 1 0 0 1 1-1h11a1 1 0 0 1 1 1v8M17 40a1 1 0 0 1-1 1H1a1 1 0 0 1-1-1v-8a1 1 0 0 1 1-1h15a1 1 0 0 1 1 1v8M94 40a1 1 0 0 1-1 1H80a1 1 0 0 1-1-1v-8a1 1 0 0 1 1-1h13a1 1 0 0 1 1 1v8"/><path fill="#A2DBF4" d="M89 82c0 1.38-18.804 2.5-42 2.5S5 83.38 5 82s18.804-2.5 42-2.5 42 1.12 42 2.5"/></g></svg>