<?xml version="1.0" encoding="UTF-8" standalone="no"?>
<svg width="104px" height="91px" viewBox="0 0 104 91" version="1.1" xmlns="http://www.w3.org/2000/svg" xmlns:xlink="http://www.w3.org/1999/xlink" xmlns:sketch="http://www.bohemiancoding.com/sketch/ns">
    <g id="Page-1" stroke="none" stroke-width="1" fill="none" fill-rule="evenodd" sketch:type="MSPage">
        <g id="setting_illustration" sketch:type="MSArtboardGroup">
            <g id="Imported-Layers" sketch:type="MSLayerGroup">
                <path d="M97,88.4994555 C97,89.8804182 79.9868535,91 59,91 C38.0131465,91 21,89.8804182 21,88.4994555 C21,87.1195818 38.0131465,86 59,86 C79.9868535,86 97,87.1195818 97,88.4994555" id="Fill-1" fill="#A2DBF4" sketch:type="MSShapeGroup"></path>
                <path d="M103,61.704 C103,62.972 101.972,64 100.704,64 L17.296,64 C16.028,64 15,62.972 15,61.704 L15,2.296 C15,1.028 16.028,0 17.296,0 L100.704,0 C101.972,0 103,1.028 103,2.296 L103,61.704" id="Fill-2" fill="#FFFFFF" sketch:type="MSShapeGroup"></path>
                <g id="Group-5" transform="translate(15.000000, 0.000000)">
                    <mask id="mask-2" sketch:name="Clip 4" fill="white">
                        <path id="path-1" d="M87.96,62.1329284 C87.7591046,63.1959486 86.8254104,64 85.704,64 L2.296,64 C1.028,64 0,62.972 0,61.704 L0,2.296 C0,1.028 1.028,0 2.296,0 L85.704,0 C86.8254104,0 87.7591046,0.804051383 87.96,1.86707164 L87.96,62.1329284 L87.96,62.1329284 Z"></path>
                    </mask>
                    <g id="Clip-4"></g>
                    <path d="M0,0 L87.96,0 L87.96,13 L0,13 L0,0 Z" id="Fill-3" fill="#6DD0F2" sketch:type="MSShapeGroup" mask="url(#mask-2)"></path>
                </g>
                <path d="M34,55.514 L34,48.661 C34,48.141 33.761,48 33.242,48 L31.817,48 C31.415,48 31.068,47.601 30.932,47.223 C30.78,46.801 30.609,46.315 30.418,45.906 C30.248,45.543 30.31,45.08 30.594,44.796 L31.6,43.773 C31.967,43.406 31.967,42.801 31.6,42.434 L26.754,37.583 C26.386,37.216 25.79,37.214 25.423,37.581 L24.417,38.586 C24.134,38.869 23.706,38.931 23.342,38.761 C22.934,38.57 22.288,38.399 21.867,38.247 C21.488,38.111 21,37.764 21,37.361 L21,35.937 C21,35.417 21.038,35 20.518,35 L13.665,35 C13.145,35 13,35.417 13,35.937 L13,37.361 C13,37.764 12.603,38.111 12.225,38.247 C11.803,38.398 11.318,38.569 10.909,38.76 C10.546,38.93 10.084,38.868 9.8,38.585 L8.777,37.579 C8.409,37.212 7.805,37.212 7.437,37.579 L2.587,42.425 C2.22,42.792 2.218,43.388 2.585,43.756 L3.589,44.761 C3.873,45.045 3.935,45.473 3.765,45.836 C3.574,46.245 3.402,46.801 3.251,47.223 C3.115,47.601 2.768,48 2.365,48 L0.941,48 C0.421,48 0,48.141 0,48.661 L0,55.514 C0,56.033 0.421,56 0.941,56 L2.365,56 C2.768,56 3.115,56.486 3.251,56.865 C3.402,57.286 3.573,57.816 3.764,58.225 C3.934,58.588 3.872,59.073 3.589,59.357 L2.583,60.391 C2.216,60.758 2.216,61.368 2.583,61.735 L7.429,66.588 C7.796,66.956 8.392,66.959 8.76,66.592 L9.765,65.588 C10.049,65.305 10.477,65.244 10.84,65.413 C11.249,65.605 11.803,65.776 12.225,65.927 C12.603,66.063 13,66.411 13,66.813 L13,68.238 C13,68.757 13.145,69 13.665,69 L20.518,69 C21.038,69 21,68.757 21,68.238 L21,66.813 C21,66.411 21.488,66.064 21.867,65.928 C22.288,65.776 22.819,65.605 23.228,65.414 C23.591,65.244 24.076,65.306 24.36,65.59 L25.394,66.596 C25.762,66.963 26.372,66.963 26.739,66.596 L31.592,61.75 C31.96,61.382 31.963,60.786 31.596,60.419 L30.592,59.414 C30.308,59.13 30.248,58.702 30.417,58.338 C30.608,57.93 30.78,57.286 30.931,56.865 C31.067,56.486 31.415,56 31.817,56 L33.242,56 C33.761,56 34,56.033 34,55.514" id="Fill-6" fill="#3899EC" sketch:type="MSShapeGroup"></path>
                <path d="M17.091,45.911 C13.68,45.911 10.915,48.676 10.915,52.087 C10.915,55.499 13.68,58.264 17.091,58.264 C20.503,58.264 23.268,55.499 23.268,52.087 C23.268,48.676 20.503,45.911 17.091,45.911" id="Fill-7" fill="#D1EDFF" sketch:type="MSShapeGroup"></path>
                <path d="M47.218,49.483 L50.612,47.529 C50.869,47.38 50.958,47.052 50.809,46.794 L50.403,46.089 C50.288,45.89 50.318,45.644 50.466,45.469 C50.632,45.274 50.789,45.07 50.937,44.859 C51.068,44.671 51.298,44.58 51.519,44.64 L52.304,44.851 C52.591,44.928 52.886,44.758 52.963,44.471 L53.981,40.69 C54.059,40.403 53.889,40.108 53.602,40.031 L52.817,39.82 C52.596,39.76 52.443,39.566 52.424,39.338 C52.402,39.081 52.368,38.826 52.323,38.574 C52.282,38.348 52.38,38.121 52.579,38.006 L53.285,37.6 C53.542,37.452 53.631,37.123 53.482,36.865 L51.529,33.472 C51.38,33.214 51.052,33.126 50.794,33.274 L50.089,33.68 C49.89,33.795 49.644,33.766 49.469,33.617 C49.274,33.452 49.07,33.294 48.859,33.146 C48.671,33.015 48.58,32.785 48.64,32.564 L48.851,31.779 C48.928,31.492 48.758,31.197 48.471,31.12 L44.69,30.102 C44.403,30.025 44.108,30.195 44.031,30.482 L43.82,31.266 C43.76,31.488 43.566,31.64 43.337,31.66 C43.08,31.682 42.826,31.716 42.574,31.761 C42.348,31.801 42.12,31.703 42.006,31.504 L41.599,30.799 C41.451,30.541 41.123,30.453 40.865,30.601 L37.472,32.555 C37.214,32.703 37.126,33.032 37.274,33.289 L37.68,33.995 C37.795,34.194 37.766,34.44 37.617,34.615 C37.451,34.81 37.294,35.013 37.146,35.224 C37.015,35.412 36.785,35.504 36.564,35.444 L35.779,35.233 C35.492,35.155 35.197,35.325 35.12,35.612 L34.102,39.393 C34.025,39.68 34.195,39.975 34.481,40.052 L35.266,40.264 C35.487,40.323 35.64,40.517 35.66,40.746 C35.681,41.003 35.715,41.258 35.761,41.51 C35.801,41.736 35.703,41.963 35.504,42.078 L34.799,42.484 C34.541,42.632 34.453,42.961 34.601,43.218 L36.555,46.612 C36.703,46.869 37.032,46.958 37.289,46.809 L37.994,46.403 C38.194,46.289 38.439,46.318 38.615,46.466 C38.81,46.632 39.013,46.789 39.224,46.937 C39.412,47.069 39.503,47.298 39.444,47.52 L39.233,48.304 C39.155,48.591 39.325,48.886 39.612,48.963 L43.393,49.981 C43.68,50.059 43.975,49.889 44.052,49.602 L44.264,48.817 C44.323,48.596 44.517,48.443 44.746,48.424 C45.003,48.402 45.258,48.368 45.51,48.323 C45.735,48.282 45.963,48.38 46.078,48.579 L46.484,49.285 C46.632,49.542 46.961,49.631 47.218,49.483" id="Fill-8" fill="#6DD0F2" sketch:type="MSShapeGroup"></path>
                <path d="M47.1,38.281 C46.128,36.591 43.97,36.01 42.281,36.983 C40.591,37.956 40.01,40.114 40.983,41.803 C41.955,43.492 44.113,44.073 45.803,43.101 C47.492,42.128 48.073,39.97 47.1,38.281" id="Fill-9" fill="#FFFFFF" sketch:type="MSShapeGroup"></path>
                <path d="M25.693,6.52 C25.693,7.726 24.716,8.703 23.51,8.703 C22.305,8.703 21.328,7.726 21.328,6.52 C21.328,5.315 22.305,4.338 23.51,4.338 C24.716,4.338 25.693,5.315 25.693,6.52" id="Fill-10" fill="#FFFFFF" sketch:type="MSShapeGroup"></path>
                <path d="M32.651,6.52 C32.651,7.726 31.674,8.703 30.469,8.703 C29.264,8.703 28.287,7.726 28.287,6.52 C28.287,5.315 29.264,4.338 30.469,4.338 C31.674,4.338 32.651,5.315 32.651,6.52" id="Fill-11" fill="#FFFFFF" sketch:type="MSShapeGroup"></path>
            </g>
        </g>
    </g>
</svg>
