<?xml version="1.0" encoding="UTF-8" standalone="no"?>
<svg width="94px" height="85px" viewBox="0 0 94 85" version="1.1" xmlns="http://www.w3.org/2000/svg" xmlns:xlink="http://www.w3.org/1999/xlink" xmlns:sketch="http://www.bohemiancoding.com/sketch/ns">
    <!-- Generator: Sketch 3.3.2 (12043) - http://www.bohemiancoding.com/sketch -->
    <title>keyboard_shortcut_illustration</title>
    <desc>Created with Sketch.</desc>
    <defs></defs>
    <g id="Page-1" stroke="none" stroke-width="1" fill="none" fill-rule="evenodd" sketch:type="MSPage">
        <g id="keyboard_shortcut_illustration" sketch:type="MSArtboardGroup">
            <path d="M21,17 L13,17 C12.448,17 12,16.552 12,16 L12,8 C12,7.448 12.448,7 13,7 L21,7 C21.552,7 22,7.448 22,8 L22,16 C22,16.552 21.552,17 21,17" id="Fill-1" fill="#FFFFFF" sketch:type="MSShapeGroup"></path>
            <path d="M24,29 L16,29 C15.448,29 15,28.552 15,28 L15,20 C15,19.448 15.448,19 16,19 L24,19 C24.552,19 25,19.448 25,20 L25,28 C25,28.552 24.552,29 24,29" id="Fill-2" fill="#FFFFFF" sketch:type="MSShapeGroup"></path>
            <path d="M28,41 L20,41 C19.448,41 19,40.552 19,40 L19,32 C19,31.448 19.448,31 20,31 L28,31 C28.552,31 29,31.448 29,32 L29,40 C29,40.552 28.552,41 28,41" id="Fill-3" fill="#FFFFFF" sketch:type="MSShapeGroup"></path>
            <path d="M40,41 L32,41 C31.448,41 31,40.552 31,40 L31,32 C31,31.448 31.448,31 32,31 L40,31 C40.552,31 41,31.448 41,32 L41,40 C41,40.552 40.552,41 40,41" id="Fill-4" fill="#FFFFFF" sketch:type="MSShapeGroup"></path>
            <path d="M52,41 L44,41 C43.448,41 43,40.552 43,40 L43,32 C43,31.448 43.448,31 44,31 L52,31 C52.552,31 53,31.448 53,32 L53,40 C53,40.552 52.552,41 52,41" id="Fill-5" fill="#FFFFFF" sketch:type="MSShapeGroup"></path>
            <path d="M64,41 L56,41 C55.448,41 55,40.552 55,40 L55,32 C55,31.448 55.448,31 56,31 L64,31 C64.552,31 65,31.448 65,32 L65,40 C65,40.552 64.552,41 64,41" id="Fill-6" fill="#FFFFFF" sketch:type="MSShapeGroup"></path>
            <path d="M76,41 L68,41 C67.448,41 67,40.552 67,40 L67,32 C67,31.448 67.448,31 68,31 L76,31 C76.552,31 77,31.448 77,32 L77,40 C77,40.552 76.552,41 76,41" id="Fill-7" fill="#FFFFFF" sketch:type="MSShapeGroup"></path>
            <path d="M81,53 L73,53 C72.448,53 72,52.552 72,52 L72,44 C72,43.448 72.448,43 73,43 L81,43 C81.552,43 82,43.448 82,44 L82,52 C82,52.552 81.552,53 81,53" id="Fill-8" fill="#FFFFFF" sketch:type="MSShapeGroup"></path>
            <path d="M36,29 L28,29 C27.448,29 27,28.552 27,28 L27,20 C27,19.448 27.448,19 28,19 L36,19 C36.552,19 37,19.448 37,20 L37,28 C37,28.552 36.552,29 36,29" id="Fill-9" fill="#FFFFFF" sketch:type="MSShapeGroup"></path>
            <path d="M48,29 L40,29 C39.448,29 39,28.552 39,28 L39,20 C39,19.448 39.448,19 40,19 L48,19 C48.552,19 49,19.448 49,20 L49,28 C49,28.552 48.552,29 48,29" id="Fill-10" fill="#FFFFFF" sketch:type="MSShapeGroup"></path>
            <path d="M72,29 L64,29 C63.448,29 63,28.552 63,28 L63,20 C63,19.448 63.448,19 64,19 L72,19 C72.552,19 73,19.448 73,20 L73,28 C73,28.552 72.552,29 72,29" id="Fill-11" fill="#FFFFFF" sketch:type="MSShapeGroup"></path>
            <path d="M60,29 L52,29 C51.448,29 51,28.552 51,28 L51,20 C51,19.448 51.448,19 52,19 L60,19 C60.552,19 61,19.448 61,20 L61,28 C61,28.552 60.552,29 60,29" id="Fill-12" fill="#5FCEF6" sketch:type="MSShapeGroup"></path>
            <path d="M9,17 L1,17 C0.448,17 0,16.552 0,16 L0,8 C0,7.448 0.448,7 1,7 L9,7 C9.552,7 10,7.448 10,8 L10,16 C10,16.552 9.552,17 9,17" id="Fill-13" fill="#FFFFFF" sketch:type="MSShapeGroup"></path>
            <path d="M93,29 L76,29 C75.448,29 75,28.552 75,28 L75,20 C75,19.448 75.448,19 76,19 L93,19 C93.552,19 94,19.448 94,20 L94,28 C94,28.552 93.552,29 93,29" id="Fill-14" fill="#FFFFFF" sketch:type="MSShapeGroup"></path>
            <path d="M10,52 C10,52.552 9.552,53 9,53 L1,53 C0.448,53 0,52.552 0,52 L0,44 C0,43.448 0.448,43 1,43 L9,43 C9.552,43 10,43.448 10,44 L10,52" id="Fill-15" fill="#3899EC" sketch:type="MSShapeGroup"></path>
            <path d="M22,52 C22,52.552 21.552,53 21,53 L13,53 C12.448,53 12,52.552 12,52 L12,44 C12,43.448 12.448,43 13,43 L21,43 C21.552,43 22,43.448 22,44 L22,52" id="Fill-16" fill="#3899EC" sketch:type="MSShapeGroup"></path>
            <path d="M58,52 C58,52.552 57.552,53 57,53 L25,53 C24.448,53 24,52.552 24,52 L24,44 C24,43.448 24.448,43 25,43 L57,43 C57.552,43 58,43.448 58,44 L58,52" id="Fill-17" fill="#FFFFFF" sketch:type="MSShapeGroup"></path>
            <path d="M70,52 C70,52.552 69.552,53 69,53 L61,53 C60.448,53 60,52.552 60,52 L60,49 C60,48.448 60.448,48 61,48 L69,48 C69.552,48 70,48.448 70,49 L70,52" id="Fill-18" fill="#FFFFFF" sketch:type="MSShapeGroup"></path>
            <path d="M94,52 C94,52.552 93.552,53 93,53 L85,53 C84.448,53 84,52.552 84,52 L84,49 C84,48.448 84.448,48 85,48 L93,48 C93.552,48 94,48.448 94,49 L94,52" id="Fill-19" fill="#FFFFFF" sketch:type="MSShapeGroup"></path>
            <path d="M10,4 C10,4.552 9.552,5 9,5 L1,5 C0.448,5 0,4.552 0,4 L0,1 C0,0.448 0.448,0 1,0 L9,0 C9.552,0 10,0.448 10,1 L10,4" id="Fill-20" fill="#FFFFFF" sketch:type="MSShapeGroup"></path>
            <path d="M22,4 C22,4.552 21.552,5 21,5 L13,5 C12.448,5 12,4.552 12,4 L12,1 C12,0.448 12.448,0 13,0 L21,0 C21.552,0 22,0.448 22,1 L22,4" id="Fill-21" fill="#FFFFFF" sketch:type="MSShapeGroup"></path>
            <path d="M34,16 C34,16.552 33.552,17 33,17 L25,17 C24.448,17 24,16.552 24,16 L24,8 C24,7.448 24.448,7 25,7 L33,7 C33.552,7 34,7.448 34,8 L34,16" id="Fill-22" fill="#FFFFFF" sketch:type="MSShapeGroup"></path>
            <path d="M34,4 C34,4.552 33.552,5 33,5 L25,5 C24.448,5 24,4.552 24,4 L24,1 C24,0.448 24.448,0 25,0 L33,0 C33.552,0 34,0.448 34,1 L34,4" id="Fill-23" fill="#FFFFFF" sketch:type="MSShapeGroup"></path>
            <path d="M46,16 C46,16.552 45.552,17 45,17 L37,17 C36.448,17 36,16.552 36,16 L36,8 C36,7.448 36.448,7 37,7 L45,7 C45.552,7 46,7.448 46,8 L46,16" id="Fill-24" fill="#FFFFFF" sketch:type="MSShapeGroup"></path>
            <path d="M46,4 C46,4.552 45.552,5 45,5 L37,5 C36.448,5 36,4.552 36,4 L36,1 C36,0.448 36.448,0 37,0 L45,0 C45.552,0 46,0.448 46,1 L46,4" id="Fill-25" fill="#FFFFFF" sketch:type="MSShapeGroup"></path>
            <path d="M58,16 C58,16.552 57.552,17 57,17 L49,17 C48.448,17 48,16.552 48,16 L48,8 C48,7.448 48.448,7 49,7 L57,7 C57.552,7 58,7.448 58,8 L58,16" id="Fill-26" fill="#FFFFFF" sketch:type="MSShapeGroup"></path>
            <path d="M58,4 C58,4.552 57.552,5 57,5 L49,5 C48.448,5 48,4.552 48,4 L48,1 C48,0.448 48.448,0 49,0 L57,0 C57.552,0 58,0.448 58,1 L58,4" id="Fill-27" fill="#FFFFFF" sketch:type="MSShapeGroup"></path>
            <path d="M70,16 C70,16.552 69.552,17 69,17 L61,17 C60.448,17 60,16.552 60,16 L60,8 C60,7.448 60.448,7 61,7 L69,7 C69.552,7 70,7.448 70,8 L70,16" id="Fill-28" fill="#FFFFFF" sketch:type="MSShapeGroup"></path>
            <path d="M70,4 C70,4.552 69.552,5 69,5 L61,5 C60.448,5 60,4.552 60,4 L60,1 C60,0.448 60.448,0 61,0 L69,0 C69.552,0 70,0.448 70,1 L70,4" id="Fill-29" fill="#FFFFFF" sketch:type="MSShapeGroup"></path>
            <path d="M82,16 C82,16.552 81.552,17 81,17 L73,17 C72.448,17 72,16.552 72,16 L72,8 C72,7.448 72.448,7 73,7 L81,7 C81.552,7 82,7.448 82,8 L82,16" id="Fill-30" fill="#FFFFFF" sketch:type="MSShapeGroup"></path>
            <path d="M82,4 C82,4.552 81.552,5 81,5 L73,5 C72.448,5 72,4.552 72,4 L72,1 C72,0.448 72.448,0 73,0 L81,0 C81.552,0 82,0.448 82,1 L82,4" id="Fill-31" fill="#FFFFFF" sketch:type="MSShapeGroup"></path>
            <path d="M94,16 C94,16.552 93.552,17 93,17 L85,17 C84.448,17 84,16.552 84,16 L84,8 C84,7.448 84.448,7 85,7 L93,7 C93.552,7 94,7.448 94,8 L94,16" id="Fill-32" fill="#FFFFFF" sketch:type="MSShapeGroup"></path>
            <path d="M94,4 C94,4.552 93.552,5 93,5 L85,5 C84.448,5 84,4.552 84,4 L84,1 C84,0.448 84.448,0 85,0 L93,0 C93.552,0 94,0.448 94,1 L94,4" id="Fill-33" fill="#FFFFFF" sketch:type="MSShapeGroup"></path>
            <path d="M13,28 C13,28.552 12.552,29 12,29 L1,29 C0.448,29 0,28.552 0,28 L0,20 C0,19.448 0.448,19 1,19 L12,19 C12.552,19 13,19.448 13,20 L13,28" id="Fill-34" fill="#FFFFFF" sketch:type="MSShapeGroup"></path>
            <path d="M17,40 C17,40.552 16.552,41 16,41 L1,41 C0.448,41 0,40.552 0,40 L0,32 C0,31.448 0.448,31 1,31 L16,31 C16.552,31 17,31.448 17,32 L17,40" id="Fill-35" fill="#FFFFFF" sketch:type="MSShapeGroup"></path>
            <path d="M94,40 C94,40.552 93.552,41 93,41 L80,41 C79.448,41 79,40.552 79,40 L79,32 C79,31.448 79.448,31 80,31 L93,31 C93.552,31 94,31.448 94,32 L94,40" id="Fill-36" fill="#FFFFFF" sketch:type="MSShapeGroup"></path>
            <path d="M89,82 C89,83.381 70.196,84.5 47,84.5 C23.804,84.5 5,83.381 5,82 C5,80.619 23.804,79.5 47,79.5 C70.196,79.5 89,80.619 89,82" id="Fill-37" fill="#A2DBF4" sketch:type="MSShapeGroup"></path>
        </g>
    </g>
</svg>