<svg xmlns="http://www.w3.org/2000/svg" width="139" height="98" viewBox="0 0 139 98"><g fill="none" fill-rule="evenodd"><path fill="#FFF" d="M113 52.137C113 59.24 107.24 65 100.137 65H12.863C5.76 65 0 59.24 0 52.137v-.274C0 44.76 5.76 39 12.863 39h87.274C107.24 39 113 44.76 113 51.863v.274"/><path fill="#3899EC" d="M108.138.457c-14.104 2.652-23.36 16.088-20.675 30.01 1.04 5.396 3.734 10.057 7.45 13.608L95.134 53l9.3-3.124a26.16 26.16 0 0 0 13.427 1.002c14.104-2.652 23.36-16.088 20.675-30.01-2.686-13.924-16.295-23.06-30.4-20.41"/><path fill="#A2DBF4" d="M136 95c0 1.658-9.85 3-22 3s-22-1.342-22-3c0-1.656 9.85-3 22-3s22 1.344 22 3"/><path fill="#FFF" d="M113 16c3.813 0 6 2.687 6 6 0 4.958-5 6.042-5 9v2h-2v-2c0-3.917 5-5.042 5-9 0-2.293-1.493-4-4-4-2.507 0-3.958 2-4 5h-2c0-3.958 2.187-7 6-7zm-1 19h2v2h-2v-2z"/></g></svg>