<svg xmlns="http://www.w3.org/2000/svg" width="110" height="125" viewBox="0 0 110 125"><g fill="none" fill-rule="evenodd"><path fill="#C593E5" d="M76.752 17.334c-3.306-6.328-8.47-8.5-12.362-6.442-3.893 2.06-5.043 7.57-1.737 13.897 3.306 6.328 13.71 9.02 13.71 9.02s3.695-10.147.39-16.476"/><path fill="#B372D8" d="M79.59 18.163c6.16-3.566 11.677-2.62 13.87 1.214 2.193 3.836.232 9.11-5.927 12.674-6.16 3.567-16.38.24-16.38.24s2.278-10.56 8.438-14.127"/><path stroke="#E1C9F1" d="M84.722 22.527c2.11-6.827-.012-12.036-4.212-13.35-4.2-1.313-8.885 1.765-10.996 8.592-2.11 6.827 3.353 16.13 3.353 16.13s9.745-4.546 11.855-11.373z" stroke-linecap="round" stroke-linejoin="round"/><path fill="#FFF" d="M104.884 60.132L32.266 38.936l4.715-16.342a1.988 1.988 0 0 1 2.466-1.365l68.796 20.08a2.003 2.003 0 0 1 1.356 2.48l-4.714 16.342"/><path fill="#C593E5" d="M72.397 50.65l-7.644-2.232 5.27-18.264 7.643 2.23-5.27 18.265"/><path stroke="#B372D8" d="M25.52 19.467c-3.454 2.385-4.334 7.137-1.963 10.614a7.56 7.56 0 0 0 10.55 1.977c3.455-2.386 8.18-1.5 10.55 1.976 2.37 3.476 1.49 8.228-1.965 10.614l-.058-.018c-3.456 2.385-4.335 7.137-1.965 10.613s7.093 4.36 10.55 1.976a7.56 7.56 0 0 1 10.55 1.975c2.37 3.476 1.49 8.228-1.966 10.614" stroke-linecap="round" stroke-linejoin="round" stroke-dasharray="1 3"/><path fill="#FFF" d="M101 66H35v33.122c0 2.21 1.513 3.878 3.722 3.878h58.22c2.208 0 4.058-1.67 4.058-3.878V66"/><path fill="#B372D8" d="M44.193 68.167l-2.32.887-2.646-7 2.32-.887 2.646 7"/><path fill="#ED4E4D" d="M3.11 34.904l4.528-3.7 11.03 13.668-4.528 3.7L3.11 34.904"/><path fill="#F6C400" d="M40.14.402l5.83-.19.563 17.598-5.83.19L40.14.4"/><path fill="#FFF" d="M5.827 19.145l1.612-.94 2.805 4.862-1.61.942-2.808-4.865M26.27 53.262a1.424 1.424 0 0 1-1.432 1.418 1.424 1.424 0 0 1-1.41-1.44 1.425 1.425 0 0 1 1.433-1.418c.785.006 1.416.65 1.41 1.44"/><path fill="#ED4E4D" d="M30.67 25.53a1.426 1.426 0 0 1-1.433 1.42 1.425 1.425 0 0 1-1.41-1.44 1.425 1.425 0 0 1 1.432-1.42c.784.008 1.415.652 1.41 1.44"/><path fill="#5FCEF6" d="M3.95 52.21a1.9 1.9 0 0 1-1.91 1.89 1.9 1.9 0 0 1-1.88-1.92 1.9 1.9 0 0 1 1.91-1.89 1.9 1.9 0 0 1 1.88 1.92M49.79 38.963l3.79.042-.125 11.433-3.79-.04.126-11.435"/><path fill="#E3CEF4" d="M95 123c0 1.105-12.088 2-27 2s-27-.895-27-2 12.088-2 27-2 27 .895 27 2"/><path fill="#C593E5" d="M65 66h7v37h-7V66z"/><path stroke="#B372D8" d="M38 74.5h61" stroke-linecap="round" stroke-linejoin="round" stroke-dasharray="1 3"/></g></svg>