<svg xmlns="http://www.w3.org/2000/svg" width="96" height="112" viewBox="0 0 96 112"><g fill="none" fill-rule="evenodd"><path fill="#A2DBF4" d="M82.5 109c0 1.38-17.237 2.5-38.5 2.5S5.5 110.38 5.5 109s17.237-2.5 38.5-2.5 38.5 1.12 38.5 2.5"/><path fill="#FFF" d="M88 81.704A2.296 2.296 0 0 1 85.704 84H2.296A2.296 2.296 0 0 1 0 81.704V22.296A2.296 2.296 0 0 1 2.296 20h83.408A2.296 2.296 0 0 1 88 22.296v59.408"/><g transform="translate(0 20)"><mask id="a" fill="#fff"><path d="M88 61.704A2.296 2.296 0 0 1 85.704 64H2.296A2.296 2.296 0 0 1 0 61.704V2.296A2.296 2.296 0 0 1 2.296 0h83.408A2.296 2.296 0 0 1 88 2.296v59.408"/></mask><path fill="#6DD0F2" d="M96 11.47A1.53 1.53 0 0 1 94.47 13H-1.47A1.53 1.53 0 0 1-3 11.47V-1.47C-3-2.315-2.315-3-1.47-3h95.94c.845 0 1.53.685 1.53 1.53v12.94" mask="url(#a)"/></g><path fill="#FFF" d="M10.693 26.7a2.182 2.182 0 1 1-4.365-.002 2.182 2.182 0 0 1 4.365 0M17.65 26.7a2.182 2.182 0 1 1-4.363 0 2.182 2.182 0 0 1 4.364 0"/><path stroke="#3899EC" stroke-width="2" d="M69.743 58.322l5.034-5.33 5.033 5.33" stroke-linecap="round" stroke-linejoin="round"/><path stroke="#3899EC" stroke-width="2" d="M35 17V7.086c0-3.14 2.69-5.662 5.83-5.662s5.79 2.654 5.79 5.793l.278 74.285c0 7.653 6.197 13.897 13.85 13.897a13.764 13.764 0 0 0 13.807-13.797l-.09-22.387" stroke-linecap="round" stroke-linejoin="round" stroke-dasharray="1 4"/><path fill="#3899EC" d="M95.5 27.92c0 11.323-9.178 20.5-20.5 20.5s-20.5-9.177-20.5-20.5c0-11.32 9.178-20.5 20.5-20.5s20.5 9.18 20.5 20.5"/><path fill="#D1EDFF" d="M77.056 21.002c-.007-.014.037-.153.076-.14.024.008.015.02.046.023.03.003.048-.033.08-.027.05.008.082.054.135.056.04 0 .062-.038.1-.04.027-.004.052.014.08.007.03-.005.05-.024.075-.04.048-.027.042-.002.097-.008.018-.002.033-.012.05-.015h.01c.025.002.035.017.03.047-.012.064-.064.112-.073.178-.005.042.05.066.036.112-.035.116-.068.122-.09.125a.1.1 0 0 1-.068-.012c-.04-.02-.067-.055-.104-.078-.02-.012-.043-.015-.064-.024-.065-.028-.254-.158-.313-.154-.02 0-.04.017-.06.015h-.002a.05.05 0 0 1-.042-.025zm-3.94-5.626c-.005.006-.01.012-.012.018a.025.025 0 0 0 .01.033.025.025 0 0 0 .034-.005l.04-.048a.096.096 0 0 1 .046-.037.995.995 0 0 1 .058-.022.023.023 0 0 1 .02.004c.008.004.01.01.01.02 0 .043.014.092-.03.127-.026.02-.047.036-.062.05a.04.04 0 0 0-.01.05c.01.017.03.026.05.02-.002 0 0 0 0 .002.003 0 .004.002.004.004.013.053.015.053.084.01h.007s.003 0 .003.002c.01.02.025.033.044.042a.095.095 0 0 1 .05.066l.003.006v.005a.202.202 0 0 1-.255.254.028.028 0 0 0-.032.01.03.03 0 0 0 0 .035c.008.01.017.017.016.03 0 .044-.058.027-.075.057h-.002a.02.02 0 0 0-.002.01c0 .004.002.01.006.014s.01.006.016.004c.026-.005.047-.027.075-.03.05-.003.012.127-.005.146a.636.636 0 0 1-.192.074c-.026.004-.044.006-.053.016-.008.01-.014.064.023.082.057.026.11-.023.164-.008.053.013.1.042.138.08a.02.02 0 0 0 .01.008c.02.007.04.007.057 0a.057.057 0 0 0 .013-.008.066.066 0 0 1 .046-.018c.01 0 .023.007.026.018a.028.028 0 0 1-.01.032c-.04.03-.08.058-.138.052a.406.406 0 0 0-.338.118 2.18 2.18 0 0 0-.068.068.032.032 0 0 0-.002.044.03.03 0 0 0 .042.007c.01-.005.02.077.032.07.04-.025.114.11.153.11h.003c.006 0 .012-.087.017-.09.054-.04.08-.16.16-.167.056-.004.097.028.154.016.065-.014.118-.074.187-.07a.658.658 0 0 1 .105.018c.02.012.02.01.124.01.043.002.075.036.116.043.05.01.097-.022.147-.018.002 0 .15-.03.15-.09 0-.002-.002-.003-.003-.004h-.002a.196.196 0 0 1-.094-.146c0-.005.002-.01.006-.01.005-.002.01 0 .015.002a.055.055 0 0 0 .01.007c.015.012.025.013.03.01.037-.027.075-.05.113-.072.02-.012.033-.146.045-.19.003-.015.016-.248-.074-.248h-.003a.976.976 0 0 0-.223.046c-.032.017-.032.072-.09.042-.003-.01 0 .01.008.005.066-.052.066-.04.065-.053-.003-.032-.037-.048-.056-.07a.094.094 0 0 1-.02-.062c0-.016-.036-.158-.037-.16-.005-.004.002-.006.002-.006-.037.002-.062.13-.09.13 0 0-.004.128-.01.128H74v-.136c0-.035-.095-.12-.098-.153-.003-.032-.03-.095-.026-.127.003-.03-.018-.078-.027-.11a.577.577 0 0 1 .068-.49c.067-.09-.233-.08-.29-.078a.01.01 0 0 1-.01-.006c-.003-.005-.004-.01 0-.014.013-.022.015-.05.035-.07.027-.025.064-.034.095-.053.07-.042.01-.07-.014-.075a.71.71 0 0 0-.184-.024.196.196 0 0 0-.07.012.143.143 0 0 0-.052.05.72.72 0 0 1-.132.14c-.003 0-.006.003-.008.005a.046.046 0 0 1-.048.007.037.037 0 0 0-.03 0l-.002.002a.1.1 0 0 0-.04.037.047.047 0 0 0 .005.058c.015.016.038.02.057.01a.03.03 0 0 1 0 .02c-.01.025-.014.052-.024.076 0 .004-.003.006-.003.006-.008 0-.013-.032-.015-.036-.013-.02-.02-.05-.027-.05-.038 0-.062.122-.06.146 0 .01.002.03.006.035.046.05.05.142.01.196zm8.602 2.802c0-.055.09-.054.1-.12a.082.082 0 0 0-.036-.08c-.032-.023-.047-.016-.088.002a.187.187 0 0 1-.08.023.05.05 0 0 1-.023-.093.015.015 0 0 0 .007-.02.023.023 0 0 0-.013-.01 1.652 1.652 0 0 0-.16-.03.644.644 0 0 0-.248.02c-.066.017-.07.028-.085.072-.04.113-.056.16-.07.18-.056.072-.096-.07-.118.02-.008.033-.025-.142-.065-.142h-.004s-.023.43-.02.45c.002.048.16.204.143.253-.014.042.044.144.044.185v.002c0 .07-.126.175-.11.245.003.006-.066-.06-.07-.058a.402.402 0 0 1-.047-.077h-.02c-.03 0-.053-.03-.06-.018-.006.01-.01.018-.004.018h-.002l.03.205c.085.12.282.255.282.312v.022c0 .03.198-.008.27 0 .083.01.19 0 .272 0 .028 0 .236-.005.272-.02.03-.013.186-.03.186-.055v-.006c0-.022-.134-.024-.043-.096.065-.052.076-.08.142-.13.11-.088.218-.172.338-.21.028-.007.372-.024.396-.024h.002c.11 0 .41.22.48.24.03.008.073.104.116.103.002 0 .005.04.008.04.06-.03.097-.1.18-.06.142.073.545.02.447-.313-.053-.18-.292-.274-.364-.3-.216-.078-.358-.26-.548-.378-.084-.052-.182-.004-.27-.04-.195-.077-.195-.076-.205-.132 0-.004.1-.01.104-.013.052-.074.216-.155.216-.242v-.002c0-.03-.08-.047-.113-.07-.044-.027-.18 0-.188-.073-.008-.058.093-.123.144-.153.043-.025.05-.058.057-.078.013-.034-.033.142-.05.144-.06.007-.228.326-.252.326h-.003c-.007 0 .405-.434.405-.43v.106l-.804.324h-.002c-.067 0-.103.024-.097.106.006.083-.088.104-.015.143.03.016-.082-.002-.082.03v-.014c0 .016-.07.204-.093.207-.055.006-.003-.024-.007-.032-.002-.003.032-.008.03-.012-.032-.092-.088-.17-.193-.2-.02-.007-.018-.028-.02-.05zm11.53 9.835c0-1.894-.324-3.808-.656-4.82a1.115 1.115 0 0 0-1.605-.622c-.733.416-.71.468-.966.455-.116-.006-.64.344-.83-.057-.035-.075-.22-.415-.476.054-.07.127-.448.03-.573-.04-.368-.205-.822-.686-.934-.807-.127-.146-.492.054-.224.453.897 1.337 1.055 1.35 1.31 1.482a.707.707 0 0 1 .372-.14c.096-.014.336-.074.336-.162v-.002c0-.1.03-.174.14-.196.11-.023.167.007.252.08 0 0-.027 0-.026.002.155.134.342.01.506.09.42.196.253.668.17 1.142l-.008.076h-.005c-.04 0-.076-.05-.077-.01 0 .15.095.254.066.407-.003.006-.006-.008-.01-.005a.45.45 0 0 0-.135.09c-.12.127-.128.284-.232.427-.097.136.008.437-.227.44-.09 0-.39.17-.435.368a1.11 1.11 0 0 1-.365.595c-.135.114-.318.26-.57.46-.12.092-.607.617-1.026.715a.15.15 0 0 1-.154-.056l-.006-.01c-.276-.427-.333-.94-.55-1.392-.256-.534-.95-.675-1.142-1.267-.162-.5-.23-.71-.46-.84a1.103 1.103 0 0 1-.39-.368c-.16-.25-.402-.608-.6-.8a.58.58 0 0 1-.173-.325c-.01-.056-.09-.052-.094.005-.01.2.026.26-.03.303-.046.035-.024.016-.065-.026-.142-.147-.355-.414-.355-.563 0 .06-.083.12-.05.17.31.44 1.772 2.608 1.81 2.814.25 1.365 1.288 1.692 1.827 2.195a.63.63 0 0 1 .184.348c.026.126.08.235.176.32.1.093.196.08.76.01.093-.012.153-.08.217-.138.056-.052.513-.213.572-.25.124-.08-.03-.034.254-.168.11-.054.24-.388.218-.01-.005.1.05.187.04.285-.06.576-.108.672-.14.783-.045.147-.103.29-.14.44-.172.704-.445 1.457-.92 2.014a.33.33 0 0 1-.032.033 5.03 5.03 0 0 0-1.132 1.457c-.245.48-.592.898-.85 1.37-.085.162-.106.202-.03.418.055.154.218.867.243 1.78.027.997-.134 1.16-.453 1.39-.51.37-.86.624-1.098.8-.28.208-.448.534-.452.882 0 .13-.032.29-.12.485.02.035-.657.374-.89.65a.034.034 0 0 0 0 .02c.158.493-1.837 1.924-2.252 1.92-.3 0-1.036.116-1.386.266-.237.1-.876-.116-.923-.252-.007-.02-.01-.058.007-.072.157-.13-.37-.892-.497-.98-.08-.055-.234-.41-.296-.5-.193-.272.138-.656-.077-.927l-.033-.044-.622-.868c-.097-.135-.372-.294-.373-.46-.002-.182.322-1.056.348-1.093.03-.043.057-.09.08-.136.014-.026.038-.045.086-.07.158-.08.384-.28.125-.702-.013-.025-.013.086-.096-.5-.053-.384-.56-1.256-.645-1.347 0 0-.587-.28-.856-.832a.202.202 0 0 1 .06-.08c.25-.2.237-.448.31-.983.003-.027.046-.054.046-.08V33h-.027c.022 0 .036.013-.108-.205-.025-.038-.084.205-.13.205h-.004c-.08 0 .27-.104.27-.183v-.003c0-.002-.215-.002-.216-.003a.92.92 0 0 0-.472-.017c-.264.077-.88.192-.942-.172-.085-.487-.446-.594-.61-.583-.698.05-1.302.65-2.023.6a.424.424 0 0 1-.11-.028c-.622-.236-1.297-.24-1.93-.362-.215-.042-.526-.146-.68-.3l-.89-.87a1.096 1.096 0 0 1-.152-.188c-.282-.432-.387-1.384-.462-1.554a1.237 1.237 0 0 0-.035-.073l-.077-.145s0-.003-.002-.004a1.06 1.06 0 0 1-.173-.95l.35-1.165a1.107 1.107 0 0 0 .037-.165c.083-.58-.027-.79-.082-.895-.1-.194-.19-.194.31-.89.91-1.27 1.16-1.156 1.16-1.23V24h.18c.396 0 1.146-.616 1.132-.88a1.008 1.008 0 0 1 .135-.58c.057-.09.13-.216.212-.283l.815-.687c.152-.123.525-.145.525-.038v-.005c0-.04.234-.037.34.01.142.062.232.018.276-.003.496-.238 1.038-.31 3.55-.47a.255.255 0 0 1 .22.097l.003.003c.147.19.036.167.204.45.064.107 0 .188-.2.39-.076.078-.063.2-.04.205.07.003.234.046.37.116.177.093.46.185.692.253.213.06.402.185.544.355.092.11 1.336.854 1.286-.157-.003-.07.066-.193.182-.287.404-.33.7.273.81.298.18.04.203.214.323.214h.004c.112 0 .163-.047.52-.07.612-.042 1.232-.034 1.844-.142a.585.585 0 0 0 .218-.123c.678-.56-.01-1.268.096-1.886 0-.003 0 .11-.002.108l-.003.112h-.002c-.21 0-.408-.025-.567.11-.057.05-.127.024-.224.034-.17.017-.206-.125-.354-.18-.074-.03-.09-.023-.09.05v.003c0 .138-.8.28-.993-.043-.06-.1-.195.026-.3.026h-.026s-.006-.25-.004-.25c.19-.18-.107-.44-.14-.58-.015-.07.02-.202.085-.23l.003-.03c.16-.062.435-.163.403-.14-.067.05-.026.07-.026.076v-.004c0 .003-.293-.01-.332-.03-.093-.053-.302-.08-.41-.08-.128 0-.31.06-.337.186-.004.024-.043.082-.063.082h-.013a.184.184 0 0 1-.063-.018c-.03-.015-.067-.023-.092-.005a.08.08 0 0 0-.04.08c.01.112.31.223.067.335h-.002l-.114.065c-.1.05-.23-.26-.318-.266-.028 0-.056-.19-.085-.19h-.035c-.008 0-.102.104-.117.078-.036-.063-.04.028-.06.008-.015-.017.038.01.016-.004-.046-.034 0-.062 0-.12v.012c0-.045-.09-.103-.097-.172-.02-.156-.138-.294-.26-.393a.226.226 0 0 0-.13-.036c-.026 0-.062-.14-.084-.156-.104-.068-.177-.218-.177-.218h-.003l-.805-.45c-.046-.034-.103.018-.16.02-.046.004-.072-.006-.098-.045-.052-.08-.15-.098-.24-.07-.003 0-.007.01-.01.01a.108.108 0 0 0-.054.15c.017.03.036.063.055.092l.467.68c.078.113.207.18.343.18a.11.11 0 0 1 .11.096.09.09 0 0 0 .042.067c.223.128.727.147.88.39.003 0 .22.004.22.007v.002c0 .018-.227.076-.236.094-.017.03-.184.044-.2.028-.013-.01-.066-.038-.065-.067 0-.008-.03-.02-.035-.03-.023-.066-.085-.08-.147-.106a.18.18 0 0 0-.23.085l-.006.003c0 .002-.004.005-.005.007-.037.097.024.126.058.142.052.025.13.062.11.175-.01.048-.063.03-.09.05 0 0 .017-.015-.076.172-.034.063-.003.078-.085.12-.07.034-.102-.01-.11-.025-.03-.052.01-.098.01-.147-.002-.022-.002-.042.062-.07.092-.037-.005-.188-.06-.273l-.002-.003c-.113-.195-.038-.037-.168-.158-.08-.076-.29-.202-.33-.253-.277-.342-.73-.504-.967-.885a.47.47 0 0 0-.2-.177.422.422 0 0 0-.19-.04c-.068.005-.394.19-.655.34-.247.14-.425-.192-.665-.097-.26.103-.106.442-.325.568-.25.143-.55.19-.77.392a.085.085 0 0 0-.02.033c-.07.157-.187.224-.195.263a.14.14 0 0 0 .004.09c.03.094 0 .196-.074.26-.05.043-.01.177-.052.2-.082.043-.17-.003-.254.02-.125.036-.13.198-.254.236-.16.047-.315-.054-.474-.02-.36.08-.36.08-.374.112-.013.03-.042.08-.092.08-.187-.005-.118-.24-.207-.34-.095-.11-.122-.098-.165-.08-.06.025-.156.068-.187.05-.04-.025-.07-.062-.117-.075a.12.12 0 0 1-.074-.06c-.027-.054.04-.267.054-.33a.184.184 0 0 0-.007-.11.11.11 0 0 0-.1-.07.034.034 0 0 1-.023-.01c-.052-.06.163-.276.223-.387a.64.64 0 0 0 .026-.06c.183-.47.183-.63.145-.787a.114.114 0 0 1 .105-.14l.114-.006a.256.256 0 0 1 .308-.06c.142.07.425.174.908.197.117.005.234.03.343.072.103.038.19-.05.228-.1.09-.115.076-.258.094-.392a.25.25 0 0 1 .11-.174c.016-.01.024-.086.02-.104-.004-.026-.025-.286-.05-.286h-.003c-.2 0-.137-.223-.268-.306-.11-.07-.106-.09-.383-.12-.04-.005.055-.184.215-.235.01-.004.02.004.028.008.098.05.21.077.32.072.04-.002.268-.022.292-.056.025-.033.21-.075.21-.115v-.003c0-.042-.164-.107-.117-.076.092.062.044.1.203.077.04-.005.025-.035.034-.074.004-.018-.008-.034.01-.043.18-.102.243-.148.28-.19.084-.097.18-.18.293-.242.162-.09.24-.15.394-.29a.53.53 0 0 1 .233-.124.052.052 0 0 0 .04-.06c0-.004 0-.01.003-.014a.17.17 0 0 1 .122-.067c.113-.01.18-.01.228-.01v-.003a.17.17 0 0 1 .132-.057c.118.003.274.058.25-.267a.98.98 0 0 1 .263-.8v-.002c.093.04.073.133.088.232.01.06-.008.12-.048.165 0 0 .234.002.233.003-.39.432.36.418.36.53 0 .02-.223.036-.207.046.016.01-.083.01-.065.005.017-.006.343-.167.36-.157.072.046-.013.07.045.123l-.013.002c.087.08.208.097.313.04.22-.116.472-.38.718-.336.123.023.42.344.365-.656-.035 0-.04.02-.018-.08.014-.065-.012.013.06-.035.037-.025.084.028.124.046.052.024.127.054.18.03.07-.03.14-.068.14-.145v-.002c0-.015-.02-.03-.034-.038a.21.21 0 0 1-.1-.198.198.198 0 0 1 .16-.174c.256-.047.3.097.542-.12a.05.05 0 0 0 .015-.05.053.053 0 0 0-.04-.04c-.2-.042-.263-.03-.456.04L79 14.156V14v.158c0 .025-.235.116-.282.112a.485.485 0 0 1-.403-.3c-.075-.197-.086-.4.03-.577.057-.088.067-.19.13-.273.028-.033.03-.072.02-.114-.027-.117-.236-.167-.35-.142-.226.05-.077.324-.168.466-.052.082-.272.14-.29.252-.05.286-.074.436-.055.536.04.212.02.43-.063.63 0 .003-.002.004-.002.005-.065.17.068.35-.02.52-.105.197-.346.04-.402.28-.023.1-.22-.05-.286-.116-.007-.196-.083-.286-.138-.44a.417.417 0 0 0-.272-.257c-.336-.1-.405.228-.702.137a.597.597 0 0 1-.057-1.12c.788-.33.934-.545.987-.732.012-.042.044-.025.086-.025H77v-.062c0-.043-.088-.113-.056-.142.08-.075-.02-.19.05-.273.08-.09.006-.238.006-.238v-.004s.505-.4.935-.536c.2-.062.394.07.44.08.05.01.15.176.265.176h.012s.01-.052.034-.02c.054.072.236-.012.45.088.25.115.55.048.82.104.11.023.185.11.172.22a.21.21 0 0 1-.22.184.176.176 0 0 0-.117.315c.097.077.207.136.322.177.136.048.356.082.26-.024a.18.18 0 0 0-.134-.06c-.186 0-.127-.172-.027-.127.112.05.422.084.207-.123a.07.07 0 0 1-.007-.096.584.584 0 0 0 .086-.15c.044-.113.036-.076.182-.032a.08.08 0 0 0 .07-.01c.042-.03.098-.052.057-.083-.034-.026.036-.085.06-.077.043.015.09 0 .118-.034a.107.107 0 0 0 .02-.095c-.026-.083.043-.31.162-.354.03-.01.06-.01.09-.002a.245.245 0 0 1 .087-.052c.053-.02.144.154.21.1.064-.058.154.154.24.154.027 0 .026-.288 0-.316-.052-.05-.223-.245-.198-.31.01-.023.115-.102.13-.193.01-.06-.026-.148-.084-.17a18.216 18.216 0 0 0-5.67-1.245 9.444 9.444 0 0 0-1.063.747c-1.206 1-3.11 1.41-3.067 1.298-.182.002-.23.064-.23.064-.06.016-.112.126-.162.126 0 0-.01-.16-.03-.173-.063-.043-.188 0-.49.154l-.003-.026c-.005.003-.01-.008-.016-.005a.826.826 0 0 1-.368.077c-.07 0-.137.01-.202.036-.01.004-.02 0-.027-.01-.022-.036.09-.077.128-.092.037-.013.02-.054-.13.032a.14.14 0 0 1-.11.014c-.15-.038-.33.083-.45.183-.02.014-.044.023-.073.01-.042-.017-.08-.01-.066.054.015.07-.384.246-.39.216a.047.047 0 0 0-.054-.03.238.238 0 0 0-.15.12c-.064.12-.237.14-.322.21-.087.074-.217.146-.217.146-.047.055-.08.086-.13.088-.05.002-.08-.085-.057-.118.013-.02.11-.114.085-.12a.03.03 0 0 1-.02-.016c-.018-.03.057-.064.038-.102-.013-.026-.158-.034-.17-.047-.007-.01-.23-.022-.225-.034.09-.182.002-.194.002-.314 0-.02.208-.046.22-.065.07-.1.405-.396.668-.432.07-.01.08-.024.08-.024-.066-.025-.122-.044-.074-.096.094-.1.25-.237.41-.316a1.18 1.18 0 0 0 .222-.15.965.965 0 0 1 .526-.168h.003c.198 0 .945-.36.945-.366v.004c0-.015-.1-.066-.105-.093-.002-.012-.05-.022-.04-.027.05-.028.084-.037.137-.06.007-.004 0-.01 0-.018.003-.02-.027-.033-.046-.025-.108.04-.157.057-.183.064a.033.033 0 0 1-.037-.015.03.03 0 0 1 .006-.038c.125-.107.292-.11.44-.16.065-.023-.04-.16-.174-.137-.663.11-.998.306-1.998.514 0 .02-.05.082-.067.098-.008.008.067.02.067.032v.002s.04.01.034.015c-.025.02-.057 0-.07.027-.018.032.05.065.06.087.01.017.01.096-.003.096h.002c-.02 0-.116.018-.13 0-.015-.017-.017-.054-.037-.042a.413.413 0 0 1-.154.07c-.14.023-.32.093-.32.093a.597.597 0 0 0 .1-.107c.038-.078.08-.104.127-.117.034-.01.04-.057-.113 0a1.1 1.1 0 0 0-.37.232c-.09.084-.194.175-.27.215.014-.025.003-.03-.007-.026-.01.005-.08.07-.11.062-.09-.025.028-.077.028-.167a.182.182 0 0 1 .035-.038.79.79 0 0 0-.273.193c-.06.067-.112.146-.177.08a.108.108 0 0 0-.12-.02c-.252.12-.5.242-.747.37a.444.444 0 0 0-.073.05.093.093 0 0 0-.03.057c-.005.026-.05.084-.066.112a.036.036 0 0 0 0 .04c.023.035.098.01.137-.004a.128.128 0 0 1 .15.056c.03.048.022.112-.02.153a1.24 1.24 0 0 0-.093.11c-.06.08-.117.165-.204.22-.053.033-.103.04-.15.083-.474.425-.49 1.324-.838 1.324h-.002c-.268 0-.36.047-.68.166a.98.98 0 0 1-.342.006c-.05-.013-.27-.042-.27-.09v.004c0-.178-.11-.215-.29-.145-.03.013.1.06.066.06H64v-.05c0 .016-.486.11-.46.164 0 0 .46-.214.46.143v-.006c0 .008-.106.022-.117.046-.016.034-.066-.105-.12-.092-.064.014-.146-.204-.194-.204h-.01c-.033 0-.052.244-.04.267.02.03.104.107.014.163-.053.032-.126.088-.15.146-.028.07-.063.154-.104.215-.043.066.05.096-.023.155-.087.07-.387.007-.492.027 0 0-.18.02-.29.058-.108.038-.304.088-.412.218-.185.225-.17.273-.387.212a.036.036 0 0 0-.034.01 18.254 18.254 0 0 0-4.54 8.544v.008c-.05.208-.103.462-.184.94v.032c.012.053.022.067.09.067.16 0 .3.115.328.273a.118.118 0 0 0 .072.093.12.12 0 0 0 .115-.016c.024-.017.16.103.17.25.005.078.035.168.05.246a.318.318 0 0 1-.067.265c-.01.012-.012.028-.01.042.078.3.427 1.58.5 1.648a.102.102 0 0 1 .097.03c.704.795 1.5 2.09 1.476 2.496-.16.298-.143.282-.01.443.244.3.24.315.147.625a.297.297 0 0 1 .507 0c.04.065.08.13.136.18.145.13.22.32.202.514 0 0 .223.002.532.234.392.294 1.774 1.877 1.828 2.31.024.194-.055.383-.154.55-.114.194-.483.595-.545.81-.032.108-.203.157-.202.22.003.09.03.27.156.632.037.107.124.897.08 1.216a.878.878 0 0 0 .022.426c.015.064-.146.247-.257.168-.138-.1-.253-.085-.268-.056-.192.315-.882.37-.73.706.047.1.093.198.132.3.047.117.072.244.076.37 0 .056.193.46.345.618a18.236 18.236 0 0 0 13.22 5.653c10.104 0 18.293-8.19 18.293-18.294zM72.252 16.355c.076-.033.147-.078.227-.1h.002c.11-.03.208 0 .24-.043a.943.943 0 0 0 .116-.178c.012-.03-.02-.072.02-.094.045-.024.006-.07.017-.105.03-.092.05-.094.088-.1.035-.005.068-.01.08-.028.058-.085-.146-.33-.273-.296-.13.035-.237.227-.282.225-.056-.003-.08-.005-.12.024-.028.022-.03.058-.053.085-.025.033-.058.058-.084.09-.02.026-.028.05.002.077.022.02.034.03-.03.115-.056.07-.145.107-.183.193a.283.283 0 0 0-.008.118c.017.09.156.054.24.017z"/></g></svg>