<svg xmlns="http://www.w3.org/2000/svg" width="90" height="111" viewBox="0 0 90 111"><g fill="none" fill-rule="evenodd"><path fill="#A2DBF4" d="M81 108.5c0 1.38-16.118 2.5-36 2.5-19.883 0-36-1.12-36-2.5s16.117-2.5 36-2.5c19.882 0 36 1.12 36 2.5"/><path fill="#FFF" d="M8 77h73v14H8V77z"/><path fill="#FFF" d="M90 82H0V6.067C0 2.754 2.353 0 5.667 0H84c3.314 0 6 2.754 6 6.067V82"/><path fill="#6DD0F2" d="M76 60H14a4 4 0 0 1-4-4V14a4 4 0 0 1 4-4h62a4 4 0 0 1 4 4v42a4 4 0 0 1-4 4"/><path fill="#A2DBF4" d="M75 57H65L27 13h48a2 2 0 0 1 2 2v40a2 2 0 0 1-2 2"/><path fill="#FFF" d="M15 16h5v5h-5v-5zM15 24h5v5h-5v-5zM15 32h5v5h-5v-5zM15 40h5v5h-5v-5z"/><path fill="#3899EC" d="M47 69h33v3H47v-3zM10 69h9v3h-9v-3z"/><path stroke="#FFF" stroke-width="2" d="M30.717 34.82c0-8.737 7.083-15.82 15.82-15.82 8.738 0 15.82 7.083 15.82 15.82 0 8.738-7.082 15.82-15.82 15.82M34.642 32.56c-.904.905-3.925 3.617-3.925 3.617L27.1 32.56m25.782 8.832l-7.07-4.807v-9.168" stroke-linecap="round"/><path fill="#EBF8FF" d="M81.167 82H8v4.943l72.917-2.815S80.98 82 81.167 82"/></g></svg>