<?xml version="1.0" encoding="UTF-8" standalone="no"?>
<svg width="110px" height="125px" viewBox="0 0 110 125" version="1.1" xmlns="http://www.w3.org/2000/svg" xmlns:xlink="http://www.w3.org/1999/xlink" xmlns:sketch="http://www.bohemiancoding.com/sketch/ns">
    <g id="Page-1" stroke="none" stroke-width="1" fill="none" fill-rule="evenodd" sketch:type="MSPage">
        <g id="upgrade_illustration_personal_sale" sketch:type="MSArtboardGroup">
            <g id="Imported-Layers" sketch:type="MSLayerGroup">
                <path d="M76.752,17.334 C73.446,11.006 68.283,8.834 64.39,10.893 C60.497,12.951 59.347,18.461 62.653,24.789 C65.959,31.118 76.362,33.81 76.362,33.81 C76.362,33.81 80.058,23.663 76.752,17.334" id="Fill-1" fill="#C593E5" sketch:type="MSShapeGroup"></path>
                <path d="M79.591,18.163 C85.751,14.598 91.267,15.542 93.46,19.377 C95.653,23.213 93.692,28.486 87.533,32.051 C81.372,35.617 71.153,32.29 71.153,32.29 C71.153,32.29 73.431,21.729 79.591,18.163" id="Fill-2" fill="#B372D8" sketch:type="MSShapeGroup"></path>
                <path d="M84.722,22.527 C86.833,15.7 84.71,10.491 80.51,9.178 C76.31,7.864 71.625,10.942 69.514,17.769 C67.404,24.597 72.867,33.9 72.867,33.9 C72.867,33.9 82.612,29.354 84.722,22.527 L84.722,22.527 Z" id="Stroke-3" stroke="#E1C9F1" stroke-linecap="round" stroke-linejoin="round" sketch:type="MSShapeGroup"></path>
                <path d="M104.884,60.132 L32.266,38.936 L36.981,22.594 C37.287,21.532 38.391,20.921 39.446,21.229 L108.242,41.309 C109.298,41.617 109.905,42.728 109.598,43.79 L104.884,60.132" id="Fill-4" fill="#FFFFFF" sketch:type="MSShapeGroup"></path>
                <path d="M72.397,50.649 L64.753,48.418 L70.022,30.153 L77.666,32.385 L72.397,50.649" id="Fill-5" fill="#C593E5" sketch:type="MSShapeGroup"></path>
                <path d="M25.521,19.467 C22.066,21.852 21.186,26.605 23.557,30.081 C25.927,33.558 30.651,34.442 34.107,32.057 C37.562,29.672 42.286,30.556 44.656,34.033 C47.027,37.509 46.148,42.261 42.692,44.647 L42.634,44.629 C39.178,47.015 38.299,51.767 40.669,55.243 C43.04,58.72 47.763,59.604 51.219,57.219 C54.675,54.834 59.399,55.718 61.769,59.195 C64.14,62.671 63.26,67.423 59.804,69.809" id="Stroke-6" stroke="#B372D8" stroke-linecap="round" stroke-linejoin="round" stroke-dasharray="1,3" sketch:type="MSShapeGroup"></path>
                <path d="M37,92.248 L37,73 L34.787,73 C32.742,73 31,74.519 31,76.564 L31,90.522 L37,92.248" id="Fill-7" fill="#B372D8" sketch:type="MSShapeGroup"></path>
                <path d="M101,66 L35,66 L35,99.122 C35,101.331 36.513,103 38.722,103 L96.941,103 C99.15,103 101,101.331 101,99.122 L101,66" id="Fill-8" fill="#FFFFFF" sketch:type="MSShapeGroup"></path>
                <path d="M44.193,68.167 L41.873,69.054 L39.227,62.054 L41.546,61.167 L44.193,68.167" id="Fill-9" fill="#B372D8" sketch:type="MSShapeGroup"></path>
                <path d="M3.109,34.904 L7.638,31.205 L18.668,44.872 L14.14,48.572 L3.109,34.904" id="Fill-10" fill="#ED4E4D" sketch:type="MSShapeGroup"></path>
                <path d="M40.141,0.402 L45.971,0.213 L46.533,17.81 L40.702,17.999 L40.141,0.402" id="Fill-11" fill="#F6C400" sketch:type="MSShapeGroup"></path>
                <path d="M5.827,19.146 L7.439,18.204 L10.245,23.067 L8.634,24.009 L5.827,19.146" id="Fill-12" fill="#FFFFFF" sketch:type="MSShapeGroup"></path>
                <path d="M26.27,53.262 C26.264,54.052 25.623,54.687 24.838,54.68 C24.054,54.674 23.423,54.03 23.429,53.24 C23.435,52.451 24.076,51.816 24.861,51.822 C25.645,51.828 26.276,52.473 26.27,53.262" id="Fill-13" fill="#FFFFFF" sketch:type="MSShapeGroup"></path>
                <path d="M30.669,25.531 C30.663,26.321 30.021,26.956 29.237,26.95 C28.452,26.944 27.821,26.299 27.827,25.51 C27.833,24.72 28.474,24.085 29.259,24.091 C30.044,24.097 30.675,24.742 30.669,25.531" id="Fill-14" fill="#ED4E4D" sketch:type="MSShapeGroup"></path>
                <path d="M3.949,52.209 C3.94,53.261 3.086,54.108 2.04,54.1 C0.994,54.092 0.152,53.232 0.16,52.18 C0.168,51.127 1.023,50.281 2.069,50.289 C3.115,50.297 3.957,51.156 3.949,52.209" id="Fill-15" fill="#5FCEF6" sketch:type="MSShapeGroup"></path>
                <path d="M49.791,38.963 L53.579,39.004 L53.455,50.438 L49.666,50.397 L49.791,38.963" id="Fill-16" fill="#5FCEF6" sketch:type="MSShapeGroup"></path>
                <path id="Stroke-17" stroke="#3898EC" stroke-width="3" stroke-linejoin="round" sketch:type="MSShapeGroup"></path>
                <path d="M91,107 L35.047,107 C32.859,107 31,105.4 31,103.212 L31,76.01 C31,78.054 32.742,80 34.787,80 L92.242,80 C94.429,80 96.449,81.542 96.449,83.729" id="Fill-18" fill="#C593E5" sketch:type="MSShapeGroup"></path>
                <path d="M90,87 L92.499,87 C94.544,87 96,85.399 96,83.354 L96,110.198 C96,112.242 94.544,114 92.499,114 L90,114 L90,87" id="Fill-19" fill="#B372D8" sketch:type="MSShapeGroup"></path>
                <path d="M41.613,92.982 C42.021,92.336 42.65,92.064 43.534,92.064 C45.184,92.064 45.847,93.321 45.847,94.971 L45.847,97.011 C45.847,98.728 45.081,100.019 43.263,100.019 C41.461,100.019 40.695,98.728 40.695,97.011 L40.695,96.364 L41.443,96.364 L41.443,97.044 C41.443,98.319 41.953,99.288 43.245,99.288 C44.555,99.288 45.064,98.319 45.064,97.044 L45.064,95.038 C45.064,93.764 44.555,92.795 43.245,92.795 C42.379,92.795 41.783,93.271 41.546,94.154 L41.546,94.359 L40.814,94.359 L41.121,88.001 L45.591,88.001 L45.591,88.732 L41.835,88.732 L41.613,92.982" id="Fill-20" fill="#FFFFFF" sketch:type="MSShapeGroup"></path>
                <path d="M47.529,90.925 C47.529,89.174 48.328,87.916 50.147,87.916 C51.966,87.916 52.765,89.174 52.765,90.925 L52.765,97.011 C52.765,98.744 51.966,100.019 50.147,100.019 C48.328,100.019 47.529,98.744 47.529,97.011 L47.529,90.925 L47.529,90.925 Z M48.311,97.044 C48.311,98.354 48.838,99.305 50.147,99.305 C51.456,99.305 51.982,98.354 51.982,97.044 L51.982,90.874 C51.982,89.582 51.456,88.63 50.147,88.63 C48.838,88.63 48.311,89.582 48.311,90.874 L48.311,97.044 L48.311,97.044 Z" id="Fill-21" fill="#FFFFFF" sketch:type="MSShapeGroup"></path>
                <path d="M57.661,89.905 L57.661,93.525 C57.661,94.597 57.202,95.446 56.047,95.446 C54.907,95.446 54.448,94.597 54.448,93.525 L54.448,89.905 C54.448,88.834 54.907,87.984 56.047,87.984 C57.202,87.984 57.661,88.834 57.661,89.905 L57.661,89.905 Z M54.975,89.888 L54.975,93.56 C54.975,94.308 55.23,94.953 56.047,94.953 C56.846,94.953 57.117,94.308 57.117,93.56 L57.117,89.888 C57.117,89.123 56.846,88.478 56.047,88.478 C55.23,88.478 54.975,89.123 54.975,89.888 L54.975,89.888 Z M61.519,88.001 L56.828,99.917 L56.318,99.917 L61.01,88.001 L61.519,88.001 L61.519,88.001 Z M63.44,94.443 L63.44,98.014 C63.44,99.084 62.999,99.951 61.843,99.951 C60.687,99.951 60.229,99.084 60.229,98.014 L60.229,94.443 C60.229,93.373 60.687,92.506 61.843,92.506 C62.999,92.506 63.44,93.373 63.44,94.443 L63.44,94.443 Z M60.772,94.409 L60.772,98.047 C60.772,98.795 61.044,99.458 61.843,99.458 C62.659,99.458 62.914,98.795 62.914,98.047 L62.914,94.409 C62.914,93.645 62.659,93.016 61.843,93.016 C61.044,93.016 60.772,93.645 60.772,94.409 L60.772,94.409 Z" id="Fill-22" fill="#FFFFFF" sketch:type="MSShapeGroup"></path>
                <path d="M67.521,90.925 C67.521,89.191 68.32,87.916 70.122,87.916 C71.958,87.916 72.757,89.191 72.757,90.925 L72.757,97.011 C72.757,98.744 71.958,100.019 70.122,100.019 C68.32,100.019 67.521,98.744 67.521,97.011 L67.521,90.925 L67.521,90.925 Z M68.304,97.062 C68.304,98.354 68.813,99.305 70.122,99.305 C71.448,99.305 71.974,98.354 71.974,97.062 L71.974,90.874 C71.974,89.582 71.448,88.63 70.122,88.63 C68.813,88.63 68.304,89.582 68.304,90.874 L68.304,97.062 L68.304,97.062 Z" id="Fill-23" fill="#FFFFFF" sketch:type="MSShapeGroup"></path>
                <path d="M78.333,93.815 L78.333,94.528 L75.257,94.528 L75.257,99.917 L74.475,99.917 L74.475,88.019 L78.996,88.019 L78.996,88.732 L75.257,88.732 L75.257,93.815 L78.333,93.815" id="Fill-24" fill="#FFFFFF" sketch:type="MSShapeGroup"></path>
                <path d="M84.47,93.815 L84.47,94.528 L81.394,94.528 L81.394,99.917 L80.611,99.917 L80.611,88.019 L85.133,88.019 L85.133,88.732 L81.394,88.732 L81.394,93.815 L84.47,93.815" id="Fill-25" fill="#FFFFFF" sketch:type="MSShapeGroup"></path>
                <path d="M94,123 C94,124.104682 82.1354625,125 67.4995001,125 C52.8645375,125 41,124.104682 41,123 C41,121.895318 52.8645375,121 67.4995001,121 C82.1354625,121 94,121.895318 94,123" id="Fill-26" fill="#E3CEF4" sketch:type="MSShapeGroup"></path>
            </g>
        </g>
    </g>
</svg>
