<svg xmlns="http://www.w3.org/2000/svg" width="129" height="113" viewBox="0 0 129 113"><g fill="none" fill-rule="evenodd"><path fill="#FFF" d="M109 82.667c0 2.21-1.79 4.333-4 4.333H25c-2.21 0-4-2.124-4-4.333V36h88v46.667"/><path fill="#6DD0F2" d="M109 36H21v-9.333C21 24.457 22.79 23 25 23h80c2.21 0 4 1.458 4 3.667V36"/><path fill="#FFF" d="M31.193 29.366a2.182 2.182 0 1 1-4.365 0 2.182 2.182 0 0 1 4.365 0M38.15 29.366a2.182 2.182 0 1 1-4.363 0 2.182 2.182 0 0 1 4.364 0"/><path fill="#3899EC" d="M126.823 60.8L108.5 24.827c-.77-1.51-2.64-2.12-4.173-1.363l-54.46 26.907c-1.533.758-2.153 2.597-1.383 4.108l18.324 35.97c.77 1.51 2.637 2.122 4.17 1.364l54.46-26.907a3.04 3.04 0 0 0 1.385-4.108zm-21.14-25.703c-1.386.685-3.073.134-3.768-1.23a2.744 2.744 0 0 1 1.25-3.712c1.386-.685 3.073-.134 3.77 1.23a2.746 2.746 0 0 1-1.252 3.712z"/><path fill="#FFF" d="M68.568 61.53l.978-.483 6.37 7.173.025-.013-1.868-9.397 1.14-.562 6.542 7.086.027-.013L79.765 56l.91-.45 2.16 10.722-.965.477-6.718-7.232-.027.013 1.883 9.62-.99.49-7.45-8.108M80.715 55.528l.978-.484 6.37 7.173.026-.013-1.87-9.396 1.14-.563 6.542 7.087.026-.013-2.016-9.325.91-.45 2.16 10.722-.965.477-6.718-7.232-.027.013 1.883 9.62-.99.49-7.45-8.107M92.863 49.525l.978-.483 6.37 7.173.026-.014-1.868-9.395 1.138-.563 6.543 7.087.026-.014-2.016-9.324.91-.45 2.16 10.723-.965.476-6.718-7.23-.026.012 1.883 9.622-.99.49-7.45-8.11"/><path fill="#B372D8" d="M18.278 10.55l-3.124-1.154L18.674 0 21.8 1.155l-3.522 9.395"/><path fill="#C593E5" d="M8.382 31.48l2.162-1.262 3.765 6.52L12.147 38l-3.766-6.52"/><path fill="#ED4E4D" d="M5.312 18.27a1.912 1.912 0 0 1-1.92 1.903 1.91 1.91 0 0 1-1.892-1.93 1.91 1.91 0 0 1 1.92-1.902 1.91 1.91 0 0 1 1.892 1.93"/><path fill="#5FCEF6" d="M37.5 12.606a2.548 2.548 0 0 1-2.56 2.535 2.546 2.546 0 0 1-2.522-2.573 2.548 2.548 0 0 1 2.56-2.535 2.547 2.547 0 0 1 2.522 2.574"/><path fill="#A2DBF4" d="M102 110.5c0 1.38-16.342 2.5-36.5 2.5-20.16 0-36.5-1.12-36.5-2.5s16.34-2.5 36.5-2.5c20.158 0 36.5 1.12 36.5 2.5M104.5 15c-4.727 0-8.647 3.474-9.37 8h2.02c.698-3.42 3.728-6 7.35-6 4.136 0 7.5 3.364 7.5 7.5s-3.364 7.5-7.5 7.5a1 1 0 0 0 0 2c5.238 0 9.5-4.262 9.5-9.5s-4.262-9.5-9.5-9.5"/></g></svg>