<svg width="68.3" height="94.9" viewBox="0 0 68.3 94.9"><circle cx="34.1" cy="34" r="34" fill="#FFF"/><ellipse cx="17" cy="25.6" fill="#D3EDFF" opacity=".5" rx="7.3" ry="1.8"/><ellipse cx="50.3" cy="25.6" fill="#D3EDFF" opacity=".5" rx="6.4" ry="1.8"/><path fill="#3899EC" d="M35 45.1c7.5 0 12.6-3.6 14.4-7.6 1-2.1-.8-4.5-3.2-4.2l-5.4.7c-4.3.5-8.7.5-13 0l-5.8-.8c-2.3-.3-4.1 2-3.2 4.2 1.7 4 6.9 7.7 16.2 7.7zM22.3 21.7c-.4 0-.8-.2-.9-.6 0-.1-1-2.4-5.4-2.4-2.6 0-3.5 2.1-3.6 2.2-.2.5-.8.7-1.3.5-.5-.2-.7-.8-.5-1.3.1-.1 1.5-3.3 5.3-3.3 5.8 0 7.1 3.5 7.2 3.6.2.5-.1 1.1-.6 1.2 0 .1-.1.1-.2.1zM55.9 21.7c-.4 0-.8-.2-.9-.6 0-.1-1-2.4-5.4-2.4-2.6 0-3.5 2.1-3.6 2.2-.2.5-.8.7-1.3.5-.5-.2-.7-.8-.5-1.3.1-.1 1.5-3.3 5.3-3.3 5.8 0 7.1 3.5 7.2 3.6.2.5-.1 1.1-.6 1.2 0 .1-.1.1-.2.1z"/><ellipse cx="34.1" cy="92.4" fill="#B2DBF3" rx="34.1" ry="2.5"/></svg>