<svg xmlns="http://www.w3.org/2000/svg" width="110" height="127" class="symbol-upgrade-clipart" viewBox="0 0 110 127"><ellipse cx="69.428" cy="124.506" fill="#e3cef4" rx="29" ry="2"/><path fill="#b372d8" d="M45.484 69.306l-2.44.934-2.782-7.363 2.44-.933z"/><path fill="#ed4e4d" d="M3.395 32.072l4.763-3.89L19.76 42.556l-4.763 3.89z"/><path fill="#f5c400" d="M42.346.276L48.48.078l.59 18.51-6.133.197z"/><path fill="#c593e5" d="M76.36 19.906c-3.31-6.337-8.48-8.512-12.378-6.45s-5.05 7.578-1.74 13.915 13.728 9.033 13.728 9.033 3.7-10.16.39-16.497z"/><path fill="#b372d8" d="M79.203 20.736c6.168-3.57 11.692-2.624 13.888 1.216s.233 9.12-5.935 12.69-16.4.24-16.4.24 2.28-10.576 8.448-14.146z"/><path fill="none" stroke="#e1c9f1" stroke-miterlimit="10" d="M84.342 25.106c2.113-6.836-.013-12.05-4.218-13.367-4.205-1.316-8.897 1.766-11.01 8.602C67 27.178 72.47 36.495 72.47 36.495s9.758-4.553 11.872-11.39z" stroke-linecap="round" stroke-linejoin="round"/><path fill="#ebdbf6" d="M104.53 62.76L31.816 41.538l4.72-16.364a1.992 1.992 0 0 1 2.47-1.367l68.886 20.107a2.005 2.005 0 0 1 1.358 2.484l-4.72 16.364z"/><path fill="#c593e5" d="M72 53.266l-7.654-2.234 5.276-18.29 7.654 2.235zM6.254 15.497l1.695-.99 2.95 5.115-1.694.99z"/><ellipse cx="26.262" cy="51.37" fill="#8dc86f" transform="matrix(1 .0077 -.0077 1 .397 -.2)" rx="1.494" ry="1.503"/><ellipse cx="33.136" cy="17.708" fill="#ed4e4d" transform="matrix(1 .0077 -.0077 1 .138 -.255)" rx="1.494" ry="1.503"/><ellipse cx="2.285" cy="50.259" fill="#5fcef5" transform="rotate(.44 2.285 50.342)" rx="1.992" ry="2.005"/><path fill="#5fcef5" d="M52.98 50.662l-3.984-.044.13-12.026 3.986.044z"/><path fill="none" stroke="#b372d8" stroke-miterlimit="10" d="M23.598 18.082c-3.635 2.51-4.56 7.507-2.067 11.164s7.463 4.587 11.098 2.078 8.603-1.58 11.097 2.078c2.494 3.657 1.568 8.655-2.067 11.164l-.06-.018c-3.635 2.51-4.56 7.507-2.067 11.164 2.495 3.657 7.463 4.587 11.098 2.078 3.635-2.51 8.603-1.58 11.097 2.078 2.494 3.657 1.568 8.655-2.067 11.164" stroke-linecap="round" stroke-linejoin="round" stroke-dasharray="1 3"/><path fill="#ebdbf6" d="M99.148 113.344l-59.773-.46c-1.1-.01-2.05-.824-2.042-1.93l.332-43.086 63.998.494-.332 43.085c-.006 1.107-1.08 1.906-2.182 1.897z"/><path fill="#c593e5" d="M65.67 68.086l8 .062-.348 45-8-.062z"/><path fill="none" stroke="#b372d8" stroke-miterlimit="10" d="M38.593 77.376l62.998.486" stroke-linecap="round" stroke-linejoin="round" stroke-dasharray="1 3"/></svg>