<?xml version="1.0" encoding="UTF-8" standalone="no"?>
<svg width="139px" height="98px" viewBox="0 0 139 98" version="1.1" xmlns="http://www.w3.org/2000/svg" xmlns:xlink="http://www.w3.org/1999/xlink" xmlns:sketch="http://www.bohemiancoding.com/sketch/ns">
    <!-- Generator: Sketch 3.3.2 (12043) - http://www.bohemiancoding.com/sketch -->
    <title>how_to_illustration</title>
    <desc>Created with Sketch.</desc>
    <defs></defs>
    <g id="Page-1" stroke="none" stroke-width="1" fill="none" fill-rule="evenodd" sketch:type="MSPage">
        <g id="how_to_illustration" sketch:type="MSArtboardGroup">
            <path d="M113,52.137 C113,59.241 107.241,65 100.137,65 L12.863,65 C5.759,65 0,59.241 0,52.137 L0,51.863 C0,44.759 5.759,39 12.863,39 L100.137,39 C107.241,39 113,44.759 113,51.863 L113,52.137" id="Fill-1" fill="#FFFFFF" sketch:type="MSShapeGroup"></path>
            <path d="M108.137624,0.457389968 C94.0344433,3.10865415 84.7787019,16.5448717 87.463315,30.4676951 C88.5039013,35.8626294 91.1974764,40.5242144 94.9117223,44.074962 L95.1347762,53 L104.436323,49.8758926 C108.610618,51.3199813 113.20513,51.7525197 117.862376,50.8776124 C131.965557,48.2263482 141.221298,34.7901306 138.536685,20.8673073 C135.851076,6.9444839 122.2418,-2.19289117 108.137624,0.457389968" id="Fill-2" fill="#3899EC" sketch:type="MSShapeGroup"></path>
            <path d="M136,95.0006197 C136,96.6577153 126.15082,98 114.000504,98 C101.850189,98 92,96.6577153 92,95.0006197 C92,93.3435241 101.850189,92 114.000504,92 C126.15082,92 136,93.3435241 136,95.0006197" id="Fill-3" fill="#A2DBF4" sketch:type="MSShapeGroup"></path>
            <path d="M113,16 C116.813,16 119,18.687 119,22 C119,26.958 114,28.042 114,31 L114,33 L112,33 L112,31 C112,27.083 117,25.958 117,22 C117,19.707 115.507,18 113,18 C110.493,18 109.042,20 109,23 L107,23 C107,19.042 109.187,16 113,16 L113,16 Z M112,35 L114,35 L114,37 L112,37 L112,35 Z" id="Fill-4" fill="#FFFFFF" sketch:type="MSShapeGroup"></path>
        </g>
    </g>
</svg>