<?xml version="1.0" encoding="UTF-8" standalone="no"?>
<svg width="127px" height="145px" viewBox="0 0 127 145" version="1.1" xmlns="http://www.w3.org/2000/svg" xmlns:xlink="http://www.w3.org/1999/xlink" xmlns:sketch="http://www.bohemiancoding.com/sketch/ns">
    <g id="Page-1" stroke="none" stroke-width="1" fill="none" fill-rule="evenodd" sketch:type="MSPage">
        <g id="upgrade_illustration_personal_sale" sketch:type="MSArtboardGroup">
            <g id="Imported-Layers" sketch:type="MSLayerGroup">
                <path d="M88.843,20.056 C85.027,12.749 79.066,10.242 74.571,12.619 C70.076,14.995 68.749,21.357 72.565,28.664 C76.382,35.97 88.393,39.079 88.393,39.079 C88.393,39.079 92.66,27.363 88.843,20.056" id="Fill-1" fill="#C593E5" sketch:type="MSShapeGroup"></path>
                <path d="M92.122,21.013 C99.234,16.896 105.603,17.987 108.135,22.415 C110.667,26.843 108.403,32.931 101.291,37.048 C94.179,41.165 82.38,37.323 82.38,37.323 C82.38,37.323 85.009,25.13 92.122,21.013" id="Fill-2" fill="#B372D8" sketch:type="MSShapeGroup"></path>
                <path d="M98.047,26.051 C100.484,18.169 98.032,12.155 93.183,10.639 C88.334,9.122 82.924,12.676 80.487,20.559 C78.051,28.441 84.359,39.183 84.359,39.183 C84.359,39.183 95.61,33.934 98.047,26.051 L98.047,26.051 Z" id="Stroke-3" stroke="#E1C9F1" stroke-linecap="round" stroke-linejoin="round" sketch:type="MSShapeGroup"></path>
                <path d="M121.325,69.47 L37.482,44.997 L42.925,26.129 C43.278,24.903 44.553,24.197 45.772,24.553 L125.202,47.738 C126.42,48.093 127.122,49.375 126.768,50.601 L121.325,69.47" id="Fill-4" fill="#E5C9EE" sketch:type="MSShapeGroup"></path>
                <path d="M83.816,58.521 L74.991,55.945 L81.074,34.857 L89.899,37.433 L83.816,58.521" id="Fill-5" fill="#C593E5" sketch:type="MSShapeGroup"></path>
                <path d="M29.694,22.519 C25.703,25.273 24.688,30.76 27.425,34.774 C30.163,38.787 35.616,39.809 39.606,37.055 C43.596,34.301 49.05,35.322 51.787,39.336 C54.525,43.35 53.508,48.837 49.519,51.591 L49.452,51.571 C45.462,54.325 44.446,59.811 47.183,63.825 C49.92,67.839 55.374,68.86 59.364,66.106 C63.354,63.352 68.808,64.374 71.545,68.387 C74.282,72.402 73.267,77.888 69.277,80.642" id="Stroke-6" stroke="#B372D8" stroke-linecap="round" stroke-linejoin="round" stroke-dasharray="1,3" sketch:type="MSShapeGroup"></path>
                <path d="M42.978,106.551 L42.978,84.167 L40.392,84.167 C38.031,84.167 36.117,86.081 36.117,88.442 L36.117,104.558 L42.978,106.551" id="Fill-7" fill="#C593E5" sketch:type="MSShapeGroup"></path>
                <path d="M116.773,76.138 L40.317,76.138 L40.317,115.105 C40.317,117.314 42.108,119.105 44.318,119.105 L112.773,119.105 C114.982,119.105 116.773,117.314 116.773,115.105 L116.773,76.138" id="Fill-8" fill="#E5C9EE" sketch:type="MSShapeGroup"></path>
                <path d="M51.251,78.746 L48.574,79.771 L45.518,71.689 L48.196,70.665 L51.251,78.746" id="Fill-9" fill="#B372D8" sketch:type="MSShapeGroup"></path>
                <path d="M3.817,40.342 L9.045,36.071 L21.781,51.851 L16.553,56.122 L3.817,40.342" id="Fill-10" fill="#ED4E4D" sketch:type="MSShapeGroup"></path>
                <path d="M46.573,0.507 L53.305,0.288 L53.953,20.606 L47.221,20.824 L46.573,0.507" id="Fill-11" fill="#F6C400" sketch:type="MSShapeGroup"></path>
                <path d="M6.955,22.147 L8.816,21.06 L12.057,26.675 L10.196,27.762 L6.955,22.147" id="Fill-12" fill="#C593E5" sketch:type="MSShapeGroup"></path>
                <path d="M30.559,61.538 C30.551,62.449 29.812,63.183 28.905,63.176 C27.999,63.169 27.271,62.424 27.278,61.513 C27.285,60.601 28.025,59.868 28.931,59.875 C29.837,59.882 30.565,60.627 30.559,61.538" id="Fill-13" fill="#8DC86F" sketch:type="MSShapeGroup"></path>
                <path d="M35.637,29.521 C35.63,30.432 34.89,31.165 33.984,31.158 C33.078,31.151 32.349,30.407 32.356,29.495 C32.363,28.584 33.104,27.851 34.009,27.858 C34.915,27.865 35.644,28.609 35.637,29.521" id="Fill-14" fill="#ED4E4D" sketch:type="MSShapeGroup"></path>
                <path d="M4.786,60.322 C4.777,61.537 3.79,62.515 2.582,62.505 C1.374,62.496 0.403,61.503 0.412,60.288 C0.421,59.073 1.408,58.095 2.616,58.105 C3.824,58.114 4.795,59.107 4.786,60.322" id="Fill-15" fill="#5FCEF6" sketch:type="MSShapeGroup"></path>
                <path d="M57.715,45.028 L62.089,45.076 L61.945,58.277 L57.571,58.229 L57.715,45.028" id="Fill-16" fill="#5FCEF6" sketch:type="MSShapeGroup"></path>
                <path id="Stroke-17" stroke="#3898EC" stroke-width="3" stroke-linejoin="round" sketch:type="MSShapeGroup"></path>
                <path d="M104.723,123.783 L40.692,123.783 C38.166,123.783 36.117,121.735 36.117,119.209 L36.117,87.802 C36.117,90.162 38.031,92.076 40.392,92.076 L106.728,92.076 C109.253,92.076 111.3,94.123 111.3,96.649" id="Fill-18" fill="#B372D8" sketch:type="MSShapeGroup"></path>
                <path d="M104.438,100.556 L107.025,100.556 C109.387,100.556 111.3,98.642 111.3,96.281 L111.3,127.275 C111.3,129.636 109.387,131.55 107.025,131.55 L104.438,131.55 L104.438,100.556" id="Fill-19" fill="#C593E5" sketch:type="MSShapeGroup"></path>
                <path d="M48.285,107.354 C48.759,106.604 49.488,106.289 50.515,106.289 C52.428,106.289 53.197,107.749 53.197,109.663 L53.197,112.03 C53.197,114.023 52.31,115.522 50.198,115.522 C48.107,115.522 47.22,114.023 47.22,112.03 L47.22,111.281 L48.088,111.281 L48.088,112.07 C48.088,113.55 48.68,114.674 50.179,114.674 C51.698,114.674 52.29,113.55 52.29,112.07 L52.29,109.742 C52.29,108.262 51.698,107.138 50.179,107.138 C49.173,107.138 48.482,107.69 48.206,108.716 L48.206,108.953 L47.357,108.953 L47.713,101.574 L52.901,101.574 L52.901,102.422 L48.541,102.422 L48.285,107.354" id="Fill-20" fill="#FFFFFF" sketch:type="MSShapeGroup"></path>
                <path d="M55.153,104.968 C55.153,102.936 56.08,101.476 58.192,101.476 C60.303,101.476 61.23,102.936 61.23,104.968 L61.23,112.03 C61.23,114.043 60.303,115.522 58.192,115.522 C56.08,115.522 55.153,114.043 55.153,112.03 L55.153,104.968 L55.153,104.968 Z M56.061,112.07 C56.061,113.589 56.672,114.694 58.192,114.694 C59.71,114.694 60.322,113.589 60.322,112.07 L60.322,104.908 C60.322,103.408 59.71,102.304 58.192,102.304 C56.672,102.304 56.061,103.408 56.061,104.908 L56.061,112.07 L56.061,112.07 Z" id="Fill-21" fill="#FFFFFF" sketch:type="MSShapeGroup"></path>
                <path d="M66.913,103.783 L66.913,107.986 C66.913,109.229 66.381,110.216 65.039,110.216 C63.717,110.216 63.185,109.229 63.185,107.986 L63.185,103.783 C63.185,102.541 63.717,101.554 65.039,101.554 C66.381,101.554 66.913,102.541 66.913,103.783 L66.913,103.783 Z M63.796,103.764 L63.796,108.025 C63.796,108.893 64.092,109.643 65.039,109.643 C65.966,109.643 66.282,108.893 66.282,108.025 L66.282,103.764 C66.282,102.876 65.966,102.126 65.039,102.126 C64.092,102.126 63.796,102.876 63.796,103.764 L63.796,103.764 Z M71.392,101.574 L65.946,115.404 L65.355,115.404 L70.8,101.574 L71.392,101.574 L71.392,101.574 Z M73.621,109.052 L73.621,113.194 C73.621,114.438 73.109,115.443 71.767,115.443 C70.425,115.443 69.893,114.438 69.893,113.194 L69.893,109.052 C69.893,107.809 70.425,106.802 71.767,106.802 C73.109,106.802 73.621,107.809 73.621,109.052 L73.621,109.052 Z M70.523,109.012 L70.523,113.234 C70.523,114.102 70.84,114.872 71.767,114.872 C72.714,114.872 73.01,114.102 73.01,113.234 L73.01,109.012 C73.01,108.124 72.714,107.395 71.767,107.395 C70.84,107.395 70.523,108.124 70.523,109.012 L70.523,109.012 Z" id="Fill-22" fill="#FFFFFF" sketch:type="MSShapeGroup"></path>
                <path d="M78.361,104.968 C78.361,102.955 79.288,101.476 81.38,101.476 C83.511,101.476 84.437,102.955 84.437,104.968 L84.437,112.03 C84.437,114.043 83.511,115.522 81.38,115.522 C79.288,115.522 78.361,114.043 78.361,112.03 L78.361,104.968 L78.361,104.968 Z M79.268,112.09 C79.268,113.589 79.86,114.694 81.38,114.694 C82.918,114.694 83.53,113.589 83.53,112.09 L83.53,104.908 C83.53,103.408 82.918,102.304 81.38,102.304 C79.86,102.304 79.268,103.408 79.268,104.908 L79.268,112.09 L79.268,112.09 Z" id="Fill-23" fill="#FFFFFF" sketch:type="MSShapeGroup"></path>
                <path d="M90.91,108.321 L90.91,109.15 L87.339,109.15 L87.339,115.404 L86.431,115.404 L86.431,101.594 L91.68,101.594 L91.68,102.422 L87.339,102.422 L87.339,108.321 L90.91,108.321" id="Fill-24" fill="#FFFFFF" sketch:type="MSShapeGroup"></path>
                <path d="M98.034,108.321 L98.034,109.15 L94.463,109.15 L94.463,115.404 L93.555,115.404 L93.555,101.594 L98.804,101.594 L98.804,102.422 L94.463,102.422 L94.463,108.321 L98.034,108.321" id="Fill-25" fill="#FFFFFF" sketch:type="MSShapeGroup"></path>
                <path d="M108,143.000455 C108,144.104532 94.3448901,145 77.4995017,145 C60.6551099,145 47,144.104532 47,143.000455 C47,141.895468 60.6551099,141 77.4995017,141 C94.3448901,141 108,141.895468 108,143.000455" id="Fill-26" fill="#E3CEF4" sketch:type="MSShapeGroup"></path>
            </g>
        </g>
    </g>
</svg>