<?xml version="1.0" encoding="UTF-8" standalone="no"?>
<svg width="112px" height="92px" viewBox="0 0 112 92" version="1.1" xmlns="http://www.w3.org/2000/svg" xmlns:xlink="http://www.w3.org/1999/xlink" xmlns:sketch="http://www.bohemiancoding.com/sketch/ns">
    <g stroke="none" stroke-width="1" fill="none" fill-rule="evenodd" sketch:type="MSPage">
        <g sketch:type="MSArtboardGroup">
            <path d="M84,0 L4,0 C1.791,0 0,1.791 0,4 L0,60 C0,62.2 1.8,64 4,64 L84,64 C86.2,64 88,62.2 88,60 L88,4 C88,1.791 86.209,0 84,0" id="Fill-1" fill="#FFFFFF" sketch:type="MSShapeGroup"></path>
            <path d="M83,89.5 C83,90.88 65.763,92 44.5,92 C23.237,92 6,90.88 6,89.5 C6,88.119 23.237,87 44.5,87 C65.763,87 83,88.119 83,89.5" id="Fill-2" fill="#A2DBF4" sketch:type="MSShapeGroup"></path>
            <path d="M84,64 L82,64 L82,0 L84,0 C86.209,0 88,1.791 88,4 L88,60 C88,62.209 86.209,64 84,64" id="Fill-3" fill="#A2DBF4" sketch:type="MSShapeGroup"></path>
            <path d="M4,24 L3,24 C2.724,24 2.5,24.224 2.5,24.5 C2.5,24.776 2.724,25 3,25 L4,25 C4.276,25 4.5,24.776 4.5,24.5 C4.5,24.224 4.276,24 4,24 M8,24 L7,24 C6.724,24 6.5,24.224 6.5,24.5 C6.5,24.776 6.724,25 7,25 L8,25 C8.276,25 8.5,24.776 8.5,24.5 C8.5,24.224 8.276,24 8,24 M12,24 L11,24 C10.724,24 10.5,24.224 10.5,24.5 C10.5,24.776 10.724,25 11,25 L12,25 C12.276,25 12.5,24.776 12.5,24.5 C12.5,24.224 12.276,24 12,24 M16,24 L15,24 C14.724,24 14.5,24.224 14.5,24.5 C14.5,24.776 14.724,25 15,25 L16,25 C16.276,25 16.5,24.776 16.5,24.5 C16.5,24.224 16.276,24 16,24 M20,24 L19,24 C18.724,24 18.5,24.224 18.5,24.5 C18.5,24.776 18.724,25 19,25 L20,25 C20.276,25 20.5,24.776 20.5,24.5 C20.5,24.224 20.276,24 20,24 M24,24 L23,24 C22.724,24 22.5,24.224 22.5,24.5 C22.5,24.776 22.724,25 23,25 L24,25 C24.276,25 24.5,24.776 24.5,24.5 C24.5,24.224 24.276,24 24,24 M28,24 L27,24 C26.724,24 26.5,24.224 26.5,24.5 C26.5,24.776 26.724,25 27,25 L28,25 C28.276,25 28.5,24.776 28.5,24.5 C28.5,24.224 28.276,24 28,24 M32,24 L31,24 C30.724,24 30.5,24.224 30.5,24.5 C30.5,24.776 30.724,25 31,25 L32,25 C32.276,25 32.5,24.776 32.5,24.5 C32.5,24.224 32.276,24 32,24 M36,24 L35,24 C34.724,24 34.5,24.224 34.5,24.5 C34.5,24.776 34.724,25 35,25 L36,25 C36.276,25 36.5,24.776 36.5,24.5 C36.5,24.224 36.276,24 36,24 M40,24 L39,24 C38.724,24 38.5,24.224 38.5,24.5 C38.5,24.776 38.724,25 39,25 L40,25 C40.276,25 40.5,24.776 40.5,24.5 C40.5,24.224 40.276,24 40,24 M44,24 L43,24 C42.724,24 42.5,24.224 42.5,24.5 C42.5,24.776 42.724,25 43,25 L44,25 C44.276,25 44.5,24.776 44.5,24.5 C44.5,24.224 44.276,24 44,24 M48,24 L47,24 C46.724,24 46.5,24.224 46.5,24.5 C46.5,24.776 46.724,25 47,25 L48,25 C48.276,25 48.5,24.776 48.5,24.5 C48.5,24.224 48.276,24 48,24 M52,24 L51,24 C50.724,24 50.5,24.224 50.5,24.5 C50.5,24.776 50.724,25 51,25 L52,25 C52.276,25 52.5,24.776 52.5,24.5 C52.5,24.224 52.276,24 52,24 M56,24 L55,24 C54.724,24 54.5,24.224 54.5,24.5 C54.5,24.776 54.724,25 55,25 L56,25 C56.276,25 56.5,24.776 56.5,24.5 C56.5,24.224 56.276,24 56,24 M60,24 L59,24 C58.724,24 58.5,24.224 58.5,24.5 C58.5,24.776 58.724,25 59,25 L60,25 C60.276,25 60.5,24.776 60.5,24.5 C60.5,24.224 60.276,24 60,24 M64,24 L63,24 C62.724,24 62.5,24.224 62.5,24.5 C62.5,24.776 62.724,25 63,25 L64,25 C64.276,25 64.5,24.776 64.5,24.5 C64.5,24.224 64.276,24 64,24 M68,24 L67,24 C66.724,24 66.5,24.224 66.5,24.5 C66.5,24.776 66.724,25 67,25 L68,25 C68.276,25 68.5,24.776 68.5,24.5 C68.5,24.224 68.276,24 68,24" id="Fill-4" fill="#A2DBF4" sketch:type="MSShapeGroup"></path>
            <path d="M4,39 L3,39 C2.724,39 2.5,39.224 2.5,39.5 C2.5,39.776 2.724,40 3,40 L4,40 C4.276,40 4.5,39.776 4.5,39.5 C4.5,39.224 4.276,39 4,39 M8,39 L7,39 C6.724,39 6.5,39.224 6.5,39.5 C6.5,39.776 6.724,40 7,40 L8,40 C8.276,40 8.5,39.776 8.5,39.5 C8.5,39.224 8.276,39 8,39 M12,39 L11,39 C10.724,39 10.5,39.224 10.5,39.5 C10.5,39.776 10.724,40 11,40 L12,40 C12.276,40 12.5,39.776 12.5,39.5 C12.5,39.224 12.276,39 12,39 M16,39 L15,39 C14.724,39 14.5,39.224 14.5,39.5 C14.5,39.776 14.724,40 15,40 L16,40 C16.276,40 16.5,39.776 16.5,39.5 C16.5,39.224 16.276,39 16,39 M20,39 L19,39 C18.724,39 18.5,39.224 18.5,39.5 C18.5,39.776 18.724,40 19,40 L20,40 C20.276,40 20.5,39.776 20.5,39.5 C20.5,39.224 20.276,39 20,39 M24,39 L23,39 C22.724,39 22.5,39.224 22.5,39.5 C22.5,39.776 22.724,40 23,40 L24,40 C24.276,40 24.5,39.776 24.5,39.5 C24.5,39.224 24.276,39 24,39 M28,39 L27,39 C26.724,39 26.5,39.224 26.5,39.5 C26.5,39.776 26.724,40 27,40 L28,40 C28.276,40 28.5,39.776 28.5,39.5 C28.5,39.224 28.276,39 28,39 M32,39 L31,39 C30.724,39 30.5,39.224 30.5,39.5 C30.5,39.776 30.724,40 31,40 L32,40 C32.276,40 32.5,39.776 32.5,39.5 C32.5,39.224 32.276,39 32,39 M36,39 L35,39 C34.724,39 34.5,39.224 34.5,39.5 C34.5,39.776 34.724,40 35,40 L36,40 C36.276,40 36.5,39.776 36.5,39.5 C36.5,39.224 36.276,39 36,39 M40,39 L39,39 C38.724,39 38.5,39.224 38.5,39.5 C38.5,39.776 38.724,40 39,40 L40,40 C40.276,40 40.5,39.776 40.5,39.5 C40.5,39.224 40.276,39 40,39 M44,39 L43,39 C42.724,39 42.5,39.224 42.5,39.5 C42.5,39.776 42.724,40 43,40 L44,40 C44.276,40 44.5,39.776 44.5,39.5 C44.5,39.224 44.276,39 44,39 M48,39 L47,39 C46.724,39 46.5,39.224 46.5,39.5 C46.5,39.776 46.724,40 47,40 L48,40 C48.276,40 48.5,39.776 48.5,39.5 C48.5,39.224 48.276,39 48,39 M52,39 L51,39 C50.724,39 50.5,39.224 50.5,39.5 C50.5,39.776 50.724,40 51,40 L52,40 C52.276,40 52.5,39.776 52.5,39.5 C52.5,39.224 52.276,39 52,39 M56,39 L55,39 C54.724,39 54.5,39.224 54.5,39.5 C54.5,39.776 54.724,40 55,40 L56,40 C56.276,40 56.5,39.776 56.5,39.5 C56.5,39.224 56.276,39 56,39 M60,39 L59,39 C58.724,39 58.5,39.224 58.5,39.5 C58.5,39.776 58.724,40 59,40 L60,40 C60.276,40 60.5,39.776 60.5,39.5 C60.5,39.224 60.276,39 60,39 M64,39 L63,39 C62.724,39 62.5,39.224 62.5,39.5 C62.5,39.776 62.724,40 63,40 L64,40 C64.276,40 64.5,39.776 64.5,39.5 C64.5,39.224 64.276,39 64,39 M68,39 L67,39 C66.724,39 66.5,39.224 66.5,39.5 C66.5,39.776 66.724,40 67,40 L68,40 C68.276,40 68.5,39.776 68.5,39.5 C68.5,39.224 68.276,39 68,39" id="Fill-5" fill="#A2DBF4" sketch:type="MSShapeGroup"></path>
            <path d="M93.374,49.702 L106.028,62.356 C107.394,63.723 109.61,63.723 110.977,62.356 C112.344,60.989 112.344,58.773 110.977,57.406 L98.324,44.753 C96.957,43.386 94.741,43.386 93.374,44.753 C92.007,46.119 92.007,48.336 93.374,49.702" id="Fill-6" fill="#5FCEF6" sketch:type="MSShapeGroup"></path>
            <g id="Group-21" sketch:type="MSLayerGroup" transform="translate(59.000000, 10.000000)">
                <mask id="section-handles-sym-mask-2" sketch:name="Clip 8" fill="white">
                    <path id="path-1" d="M6.395,36.08 C14.553,44.237 27.778,44.237 35.936,36.08 C44.093,27.922 44.093,14.696 35.936,6.539 C27.778,-1.619 14.553,-1.619 6.395,6.539 C-1.762,14.696 -1.762,27.922 6.395,36.08 L6.395,36.08 Z"></path>
                </mask>
                <g id="Clip-8"></g>
                <path d="M-1.762,-1.619 L44.094,-1.619 L44.094,44.237 L-1.762,44.237 L-1.762,-1.619 Z" id="Fill-7" fill="#FFFFFF" sketch:type="MSShapeGroup" mask="url(#section-handles-sym-mask-2)"></path>
                <path d="M32,-1.619 L44.093,-1.619 L44.093,44.237 L32,44.237 L32,-1.619 Z" id="Fill-9" fill="#D1EDFF" sketch:type="MSShapeGroup" mask="url(#section-handles-sym-mask-2)"></path>
                <path d="M19,10 L20,10 C20.552,10 21,9.552 21,9 C21,8.448 20.552,8 20,8 L19,8 C18.448,8 18,8.448 18,9 C18,9.552 18.448,10 19,10 M14,10 L15,10 C15.552,10 16,9.552 16,9 C16,8.448 15.552,8 15,8 L14,8 C13.448,8 13,8.448 13,9 C13,9.552 13.448,10 14,10 M9,10 L10,10 C10.552,10 11,9.552 11,9 C11,8.448 10.552,8 10,8 L9,8 C8.448,8 8,8.448 8,9 C8,9.552 8.448,10 9,10 M4,10 L5,10 C5.552,10 6,9.552 6,9 C6,8.448 5.552,8 5,8 L4,8 C3.448,8 3,8.448 3,9 C3,9.552 3.448,10 4,10 M-1,10 L0,10 C0.552,10 1,9.552 1,9 C1,8.448 0.552,8 0,8 L-1,8 C-1.552,8 -2,8.448 -2,9 C-2,9.552 -1.552,10 -1,10" id="Fill-10" fill="#6DD0F2" sketch:type="MSShapeGroup" mask="url(#section-handles-sym-mask-2)"></path>
                <path d="M19,35 L20,35 C20.552,35 21,34.552 21,34 C21,33.448 20.552,33 20,33 L19,33 C18.448,33 18,33.448 18,34 C18,34.552 18.448,35 19,35 M14,35 L15,35 C15.552,35 16,34.552 16,34 C16,33.448 15.552,33 15,33 L14,33 C13.448,33 13,33.448 13,34 C13,34.552 13.448,35 14,35 M9,35 L10,35 C10.552,35 11,34.552 11,34 C11,33.448 10.552,33 10,33 L9,33 C8.448,33 8,33.448 8,34 C8,34.552 8.448,35 9,35 M4,35 L5,35 C5.552,35 6,34.552 6,34 C6,33.448 5.552,33 5,33 L4,33 C3.448,33 3,33.448 3,34 C3,34.552 3.448,35 4,35 M-1,35 L0,35 C0.552,35 1,34.552 1,34 C1,33.448 0.552,33 0,33 L-1,33 C-1.552,33 -2,33.448 -2,34 C-2,34.552 -1.552,35 -1,35" id="Fill-11" fill="#6DD0F2" sketch:type="MSShapeGroup" mask="url(#section-handles-sym-mask-2)"></path>
                <path d="M18,-1.619 L32,-1.619 L32,44.237 L18,44.237 L18,-1.619 Z" id="Fill-12" fill="#A2DBF4" sketch:type="MSShapeGroup" mask="url(#section-handles-sym-mask-2)"></path>
                <path d="M18,8 L32,8 L32,35 L18,35 L18,8 Z" id="Fill-13" fill="#3899EC" sketch:type="MSShapeGroup" mask="url(#section-handles-sym-mask-2)"></path>
                <path d="M22.707,17.682 L25,15.389 L27.293,17.682 C27.683,18.072 28.317,18.072 28.707,17.682 C29.098,17.291 29.098,16.658 28.707,16.268 L25,12.56 L21.293,16.268 C20.902,16.658 20.902,17.291 21.293,17.682 C21.683,18.072 22.317,18.072 22.707,17.682" id="Fill-14" fill="#FFFFFF" sketch:type="MSShapeGroup" mask="url(#section-handles-sym-mask-2)"></path>
                <path d="M27.293,25.693 L25,27.986 L22.707,25.693 C22.317,25.302 21.683,25.302 21.293,25.693 C20.902,26.083 20.902,26.716 21.293,27.107 L25,30.814 L28.707,27.107 C29.098,26.716 29.098,26.083 28.707,25.693 C28.317,25.302 27.683,25.302 27.293,25.693" id="Fill-15" fill="#FFFFFF" sketch:type="MSShapeGroup" mask="url(#section-handles-sym-mask-2)"></path>
                <path d="M18,0.66 C13.752,1.308 9.666,3.268 6.395,6.539 C5.924,7.01 5.479,7.499 5.062,8.002 C5.586,8.034 6,8.469 6,9 C6,9.552 5.552,10 5,10 L4,10 C3.873,10 3.752,9.977 3.641,9.934 C2.735,11.327 2.011,12.805 1.471,14.333 C1.403,14.527 1.337,14.723 1.274,14.918 C-0.65,20.925 0.211,27.629 3.857,33.01 C3.904,33.004 3.952,33 4,33 L4.301,33 C3.174,30.49 2.58,27.747 2.58,24.914 C2.58,19.64 4.635,14.68 8.364,10.95 C8.695,10.619 9.034,10.303 9.383,10 L9,10 C8.448,10 8,9.552 8,9 C8,8.448 8.448,8 9,8 L10,8 C10.468,8 10.862,8.322 10.97,8.757 C13.126,7.24 15.52,6.206 18,5.653 L18,0.66" id="Fill-16" fill="#D9E1E8" sketch:type="MSShapeGroup" mask="url(#section-handles-sym-mask-2)"></path>
                <path d="M32,3.444 L32,7.697 C33.537,8.56 34.983,9.644 36.289,10.95 C39.569,14.232 41.554,18.465 41.984,23.026 C42.468,17.124 40.452,11.055 35.936,6.539 C34.725,5.327 33.402,4.296 32,3.444" id="Fill-17" fill="#D1E1E8" sketch:type="MSShapeGroup" mask="url(#section-handles-sym-mask-2)"></path>
                <path d="M5.062,8.002 C4.547,8.625 4.073,9.269 3.641,9.934 C3.752,9.977 3.873,10 4,10 L5,10 C5.552,10 6,9.552 6,9 C6,8.469 5.586,8.034 5.062,8.002 M10,8 L9,8 C8.448,8 8,8.448 8,9 C8,9.552 8.448,10 9,10 L9.383,10 C9.895,9.555 10.425,9.14 10.97,8.757 C10.862,8.322 10.468,8 10,8" id="Fill-18" fill="#6DD0E8" sketch:type="MSShapeGroup" mask="url(#section-handles-sym-mask-2)"></path>
                <path d="M4.301,33 L4,33 C3.952,33 3.904,33.004 3.857,33.01 C4.281,33.635 4.742,34.243 5.241,34.829 C4.895,34.235 4.581,33.625 4.301,33" id="Fill-19" fill="#6DD0E8" sketch:type="MSShapeGroup" mask="url(#section-handles-sym-mask-2)"></path>
                <path d="M21.166,0.421 C20.107,0.421 19.049,0.501 18,0.66 L18,5.653 C19.423,5.336 20.875,5.178 22.327,5.178 C25.666,5.178 29.007,6.018 32,7.697 L32,3.444 C31.034,2.857 30.03,2.356 29,1.94 C27.069,1.16 25.045,0.68 23,0.501 C22.39,0.447 21.778,0.421 21.166,0.421" id="Fill-20" fill="#A2DBE8" sketch:type="MSShapeGroup" mask="url(#section-handles-sym-mask-2)"></path>
            </g>
            <path d="M64.575,46.9 L63.16,48.314 C67.851,53.006 74.017,55.36 80.165,55.358 C86.313,55.36 92.48,53.006 97.171,48.314 C101.863,43.624 104.217,37.457 104.214,31.309 C104.217,25.161 101.863,18.995 97.171,14.304 C92.48,9.612 86.313,7.258 80.165,7.26 C74.017,7.258 67.851,9.612 63.16,14.304 C58.468,18.995 56.114,25.161 56.116,31.309 C56.114,37.457 58.468,43.624 63.16,48.314 L65.989,45.486 C62.07,41.566 60.119,36.447 60.116,31.309 C60.119,26.171 62.07,21.052 65.989,17.132 C69.909,13.214 75.028,11.262 80.165,11.26 C85.303,11.262 90.422,13.214 94.342,17.132 C98.261,21.052 100.212,26.171 100.215,31.309 C100.212,36.447 98.261,41.566 94.342,45.486 C90.422,49.404 85.303,51.356 80.165,51.358 C75.028,51.356 69.909,49.404 65.989,45.486 L64.575,46.9" id="Fill-22" fill="#5FCEF6" sketch:type="MSShapeGroup"></path>
        </g>
    </g>
</svg>
