<svg xmlns="http://www.w3.org/2000/svg" width="127" height="145" viewBox="0 0 127 145"><g fill="none" fill-rule="evenodd"><path fill="#C593E5" d="M88.843 20.056c-3.816-7.307-9.777-9.814-14.272-7.437-4.494 2.375-5.82 8.737-2.005 16.044C76.382 35.97 88.393 39.08 88.393 39.08s4.267-11.717.45-19.024"/><path fill="#B372D8" d="M92.122 21.013c7.112-4.117 13.48-3.026 16.013 1.402 2.532 4.428.268 10.516-6.844 14.633-7.11 4.117-18.91.275-18.91.275s2.63-12.193 9.742-16.31"/><path stroke="#E1C9F1" d="M98.047 26.05c2.437-7.88-.015-13.895-4.864-15.41-4.85-1.518-10.26 2.036-12.696 9.92-2.436 7.88 3.872 18.623 3.872 18.623s11.25-5.25 13.687-13.132z" stroke-linecap="round" stroke-linejoin="round"/><path fill="#E5C9EE" d="M121.325 69.47L37.482 44.997l5.443-18.868a2.295 2.295 0 0 1 2.847-1.577l79.43 23.185a2.312 2.312 0 0 1 1.566 2.863l-5.443 18.87"/><path fill="#C593E5" d="M83.816 58.52l-8.825-2.575 6.084-21.088 8.825 2.576-6.084 21.088"/><path stroke="#B372D8" d="M29.694 22.52c-3.99 2.753-5.006 8.24-2.27 12.254 2.74 4.013 8.192 5.035 12.182 2.28 3.99-2.753 9.444-1.732 12.18 2.282 2.74 4.014 1.722 9.5-2.267 12.255l-.068-.02c-3.99 2.755-5.006 8.24-2.27 12.255 2.738 4.014 8.192 5.035 12.182 2.28 3.99-2.753 9.444-1.73 12.18 2.282 2.738 4.015 1.723 9.5-2.267 12.255" stroke-linecap="round" stroke-linejoin="round" stroke-dasharray="1 3"/><path fill="#C593E5" d="M42.978 106.55V84.168h-2.586a4.275 4.275 0 0 0-4.275 4.275v16.116l6.86 1.993"/><path fill="#E5C9EE" d="M116.773 76.138H40.317v38.967a4 4 0 0 0 4 4h68.456a4 4 0 0 0 4-4V76.138"/><path fill="#B372D8" d="M51.25 78.746l-2.676 1.025-3.056-8.08 2.678-1.025 3.055 8.08"/><path fill="#ED4E4D" d="M3.817 40.342l5.228-4.27L21.78 51.85l-5.227 4.27-12.736-15.78"/><path fill="#F6C400" d="M46.573.507l6.732-.22.648 20.32-6.732.217L46.574.507"/><path fill="#C593E5" d="M6.955 22.147l1.86-1.087 3.242 5.615-1.86 1.087-3.242-5.615"/><path fill="#8DC86F" d="M30.56 61.538a1.647 1.647 0 0 1-1.655 1.638 1.645 1.645 0 0 1-1.627-1.663 1.645 1.645 0 0 1 1.653-1.638 1.647 1.647 0 0 1 1.63 1.663"/><path fill="#ED4E4D" d="M35.637 29.52a1.645 1.645 0 0 1-1.653 1.638 1.645 1.645 0 0 1-1.628-1.663 1.646 1.646 0 0 1 1.653-1.637c.905.007 1.634.75 1.627 1.663"/><path fill="#5FCEF6" d="M4.786 60.322a2.193 2.193 0 0 1-2.204 2.183 2.194 2.194 0 0 1-2.17-2.217 2.193 2.193 0 0 1 2.204-2.183 2.194 2.194 0 0 1 2.17 2.217M57.715 45.028l4.374.048-.145 13.2-4.374-.047.145-13.202"/><path fill="#B372D8" d="M104.723 123.783h-64.03a4.575 4.575 0 0 1-4.576-4.574V87.8a4.275 4.275 0 0 0 4.275 4.274h66.336a4.572 4.572 0 0 1 4.572 4.573"/><path fill="#C593E5" d="M104.438 100.556h2.587a4.274 4.274 0 0 0 4.275-4.275v30.995a4.274 4.274 0 0 1-4.275 4.275h-2.587v-30.994"/><path fill="#FFF" d="M48.285 107.354c.474-.75 1.203-1.065 2.23-1.065 1.913 0 2.682 1.46 2.682 3.373v2.367c0 1.993-.887 3.492-3 3.492-2.09 0-2.977-1.5-2.977-3.492v-.75h.868v.79c0 1.48.592 2.604 2.09 2.604 1.52 0 2.112-1.124 2.112-2.604v-2.328c0-1.48-.592-2.604-2.11-2.604-1.007 0-1.698.552-1.974 1.578v.237h-.85l.357-7.38H52.9v.85h-4.36l-.255 4.93M55.153 104.968c0-2.032.927-3.492 3.04-3.492 2.11 0 3.037 1.46 3.037 3.492v7.062c0 2.013-.927 3.492-3.038 3.492-2.112 0-3.04-1.48-3.04-3.492v-7.062zm.908 7.102c0 1.52.612 2.624 2.132 2.624 1.518 0 2.13-1.105 2.13-2.624v-7.162c0-1.5-.612-2.604-2.13-2.604-1.52 0-2.13 1.104-2.13 2.604v7.162zM66.913 103.783v4.203c0 1.243-.532 2.23-1.874 2.23-1.323 0-1.855-.987-1.855-2.23v-4.203c0-1.242.532-2.23 1.854-2.23 1.34 0 1.873.988 1.873 2.23zm-3.117-.02v4.262c0 .868.296 1.618 1.243 1.618.926 0 1.242-.75 1.242-1.618v-4.26c0-.89-.316-1.64-1.243-1.64-.948 0-1.244.75-1.244 1.64zm7.596-2.19l-5.446 13.83h-.59l5.444-13.83h.592zm2.23 7.48v4.14c0 1.245-.513 2.25-1.855 2.25s-1.874-1.005-1.874-2.25v-4.14c0-1.244.532-2.25 1.874-2.25s1.854 1.006 1.854 2.25zm-3.1-.04v4.22c0 .87.318 1.64 1.245 1.64.947 0 1.243-.77 1.243-1.64v-4.22c0-.89-.296-1.618-1.243-1.618-.927 0-1.244.73-1.244 1.617zM78.36 104.968c0-2.013.928-3.492 3.02-3.492 2.13 0 3.057 1.48 3.057 3.492v7.062c0 2.013-.926 3.492-3.057 3.492-2.092 0-3.02-1.48-3.02-3.492v-7.062zm.908 7.122c0 1.5.592 2.604 2.112 2.604 1.538 0 2.15-1.105 2.15-2.604v-7.182c0-1.5-.612-2.604-2.15-2.604-1.52 0-2.112 1.104-2.112 2.604v7.182zM90.91 108.32v.83h-3.57v6.254h-.91v-13.81h5.25v.828h-4.34v5.9h3.57M98.034 108.32v.83h-3.57v6.254h-.91v-13.81h5.25v.828h-4.34v5.9h3.57"/><path fill="#E3CEF4" d="M108 143c0 1.105-13.655 2-30.5 2s-30.5-.895-30.5-2 13.655-2 30.5-2 30.5.895 30.5 2"/></g></svg>