<svg xmlns="http://www.w3.org/2000/svg" width="103" height="98" viewBox="0 0 103 98"><g fill="none" fill-rule="evenodd"><path fill="#3899EC" d="M103 90H62V26a4 4 0 0 1 4-4h33a4 4 0 0 1 4 4v64"/><path fill="#FFF" d="M103 90.937L73 98V31.75c0-1.92 1.34-3.573 3.207-3.954l23.198-4.735c1.858-.378 3.595 1.056 3.595 2.97v64.907"/><path fill="#6DD0F2" d="M61.108 13.487C49.78-1.486 28.458-4.44 13.488 6.887c-14.974 11.328-17.93 32.65-6.6 47.622 11.326 14.972 32.647 17.927 47.62 6.6a33.934 33.934 0 0 0 8.124-8.776l6.578-.722-3.637-5.008c4.255-10.687 2.982-23.274-4.465-33.117"/><path fill="#FFF" d="M24 28.003a2.002 2.002 0 1 1-4.005 0 2.002 2.002 0 0 1 4.005 0M47.998 28.003a2 2 0 0 1-2 2.002A2 2 0 0 1 44 28.003 2 2 0 0 1 46 26a2 2 0 0 1 1.998 2.003"/><path stroke="#FFF" d="M46 39c0 6.627-5.372 12-12 12s-12-5.373-12-12"/><path fill="#A2DBF4" d="M60 92.5c0 1.38-11.64 2.5-26 2.5S8 93.88 8 92.5C8 91.117 19.64 90 34 90s26 1.118 26 2.5"/></g></svg>