<svg xmlns="http://www.w3.org/2000/svg" width="122" height="126" viewBox="0 0 122 126"><g fill="none" fill-rule="evenodd"><path fill="#FFF" d="M97 99H5a5 5 0 0 1-5-5V28a5 5 0 0 1 5-5h92a5 5 0 0 1 5 5v66a5 5 0 0 1-5 5"/><path fill="#3899EC" d="M92.5 9l6.512-1.988L101 .5l1.988 6.512L109.5 9l-6.512 1.988L101 17.5l-1.988-6.512L92.5 9M109.5 22l4.214-1.286L115 16.5l1.286 4.214L120.5 22l-4.214 1.286L115 27.5l-1.286-4.214L109.5 22M106 37l3.064-.935L110 33l.936 3.065L114 37l-3.064.936L110 41l-.936-3.064L106 37"/><path fill="#6DD0F2" d="M35 83a2 2 0 0 1-2 2H17a2 2 0 0 1-2-2V73a2 2 0 0 1 2-2h16a2 2 0 0 1 2 2v10M61 83a2 2 0 0 1-2 2H43a2 2 0 0 1-2-2V73a2 2 0 0 1 2-2h16a2 2 0 0 1 2 2v10M87 83a2 2 0 0 1-2 2H69a2 2 0 0 1-2-2V73a2 2 0 0 1 2-2h16a2 2 0 0 1 2 2v10M88 64a2 2 0 0 1-2 2H17a2 2 0 0 1-2-2V38a2 2 0 0 1 2-2h69a2 2 0 0 1 2 2v26"/><path fill="#FFF" d="M81.903 46.613c0 2.214-1.813 4.01-4.048 4.01-2.236 0-4.048-1.796-4.048-4.01 0-2.213 1.812-4.008 4.048-4.008 2.235 0 4.048 1.795 4.048 4.008"/><path fill="#3899EC" d="M73.64 57.446c-1.193-1.01-3.008-.536-3.876.758L64.777 66h18.287l-9.424-8.554"/><path fill="#3899EC" d="M57.147 53.78c-1.743-1.475-4.397-1.574-5.666.318l-6.09 9.624L44.16 66h26.65L57.148 53.78"/><path fill="#3899EC" d="M51.65 64.052L35.557 50.378c-1.57-1.3-3.928-.787-5.077.89L20.787 66h32.538l-1.675-1.948"/><path fill="#A2DBF4" d="M90.75 123.08c0 1.38-17.91 2.5-40 2.5-22.092 0-40-1.12-40-2.5 0-1.382 17.908-2.5 40-2.5 22.09 0 40 1.118 40 2.5"/></g></svg>