<?xml version="1.0" encoding="UTF-8" standalone="no"?>
<svg width="127px" height="114px" viewBox="0 0 127 114" version="1.1" xmlns="http://www.w3.org/2000/svg" xmlns:xlink="http://www.w3.org/1999/xlink" xmlns:sketch="http://www.bohemiancoding.com/sketch/ns">
    <g id="Page-1" stroke="none" stroke-width="1" fill="none" fill-rule="evenodd" sketch:type="MSPage">
        <g id="view_published_site_illustration" sketch:type="MSArtboardGroup">
            <path d="M102,111.5 C102,112.880662 84.7629963,114 63.5,114 C42.2370037,114 25,112.880662 25,111.5 C25,110.119338 42.2370037,109 63.5,109 C84.7629963,109 102,110.119338 102,111.5" id="Fill-1" fill="#A2DBF4" sketch:type="MSShapeGroup"></path>
            <path d="M105,83 C105,85.209 103.209,87 101,87 L21,87 C18.791,87 17,85.209 17,83 L17,36 L105,36 L105,83" id="Fill-2" fill="#FFFFFF" sketch:type="MSShapeGroup"></path>
            <path d="M105,36 L17,36 L17,27 C17,24.791 18.791,23 21,23 L101,23 C103.209,23 105,24.791 105,27 L105,36" id="Fill-3" fill="#6DD0F2" sketch:type="MSShapeGroup"></path>
            <path d="M27.193,29.699 C27.193,30.904 26.216,31.881 25.011,31.881 C23.805,31.881 22.828,30.904 22.828,29.699 C22.828,28.494 23.805,27.517 25.011,27.517 C26.216,27.517 27.193,28.494 27.193,29.699" id="Fill-4" fill="#FFFFFF" sketch:type="MSShapeGroup"></path>
            <path d="M34.151,29.699 C34.151,30.904 33.174,31.881 31.969,31.881 C30.764,31.881 29.787,30.904 29.787,29.699 C29.787,28.494 30.764,27.517 31.969,27.517 C33.174,27.517 34.151,28.494 34.151,29.699" id="Fill-5" fill="#FFFFFF" sketch:type="MSShapeGroup"></path>
            <path d="M99,8 L105.129,6.129 L107,0 L108.871,6.129 L115,8 L108.871,9.871 L107,16 L105.129,9.871 L99,8" id="Fill-6" fill="#3899EC" sketch:type="MSShapeGroup"></path>
            <path d="M115.5,21 L119.714,19.714 L121,15.5 L122.286,19.714 L126.5,21 L122.286,22.286 L121,26.5 L119.714,22.286 L115.5,21" id="Fill-7" fill="#3899EC" sketch:type="MSShapeGroup"></path>
            <path d="M112,36 L115.065,35.065 L116,32 L116.936,35.065 L120,36 L116.936,36.936 L116,40 L115.065,36.936 L112,36" id="Fill-8" fill="#3899EC" sketch:type="MSShapeGroup"></path>
            <path d="M41,75.921 C41,87.243 31.822,96.421 20.5,96.421 C9.178,96.421 0,87.243 0,75.921 C0,64.599 9.178,55.421 20.5,55.421 C31.822,55.421 41,64.599 41,75.921" id="Fill-9" fill="#3899EC" sketch:type="MSShapeGroup"></path>
            <path d="M22.556,69.002 C22.549,68.988 22.593,68.849 22.632,68.862 C22.656,68.87 22.647,68.883 22.678,68.885 C22.708,68.888 22.726,68.852 22.758,68.858 C22.807,68.866 22.841,68.912 22.893,68.914 C22.932,68.915 22.955,68.876 22.993,68.872 C23.021,68.87 23.045,68.887 23.073,68.881 C23.102,68.875 23.124,68.856 23.148,68.841 C23.196,68.813 23.19,68.838 23.246,68.832 C23.263,68.83 23.278,68.82 23.295,68.817 C23.298,68.817 23.302,68.816 23.306,68.817 C23.33,68.819 23.34,68.834 23.335,68.864 C23.323,68.928 23.271,68.976 23.262,69.042 C23.257,69.084 23.313,69.108 23.298,69.154 C23.263,69.27 23.23,69.276 23.208,69.279 C23.176,69.285 23.154,69.275 23.14,69.268 C23.101,69.249 23.074,69.213 23.036,69.19 C23.016,69.178 22.993,69.175 22.972,69.166 C22.907,69.138 22.718,69.008 22.659,69.012 C22.639,69.013 22.621,69.029 22.601,69.027 L22.598,69.027 C22.587,69.026 22.569,69.023 22.556,69.002 L22.556,69.002 Z M18.615,63.376 L18.615,63.376 C18.611,63.382 18.608,63.388 18.604,63.394 C18.598,63.406 18.602,63.42 18.613,63.427 C18.625,63.435 18.639,63.433 18.648,63.422 C18.658,63.41 18.671,63.394 18.689,63.374 C18.705,63.354 18.71,63.348 18.735,63.337 C18.753,63.329 18.773,63.322 18.792,63.315 C18.799,63.313 18.807,63.314 18.814,63.319 C18.82,63.324 18.823,63.331 18.823,63.339 C18.821,63.383 18.836,63.432 18.791,63.467 C18.766,63.487 18.746,63.502 18.73,63.516 C18.715,63.528 18.711,63.55 18.72,63.567 C18.73,63.584 18.75,63.593 18.769,63.587 C18.769,63.587 18.769,63.587 18.771,63.589 C18.773,63.59 18.774,63.592 18.774,63.594 C18.787,63.647 18.789,63.647 18.859,63.605 C18.861,63.603 18.863,63.603 18.866,63.604 C18.866,63.604 18.868,63.605 18.868,63.606 C18.878,63.625 18.893,63.639 18.912,63.648 C18.938,63.661 18.957,63.685 18.964,63.714 C18.964,63.716 18.964,63.718 18.965,63.72 C18.965,63.721 18.966,63.723 18.966,63.725 C18.99,63.797 18.971,63.877 18.917,63.931 C18.863,63.985 18.783,64.004 18.71,63.979 C18.698,63.975 18.685,63.98 18.678,63.99 C18.67,64.001 18.671,64.015 18.679,64.025 C18.686,64.034 18.695,64.042 18.694,64.054 C18.693,64.099 18.636,64.082 18.619,64.112 C18.619,64.113 18.618,64.113 18.618,64.113 C18.617,64.116 18.616,64.118 18.616,64.121 C18.615,64.126 18.618,64.132 18.622,64.136 C18.626,64.14 18.632,64.142 18.638,64.14 C18.664,64.135 18.685,64.113 18.713,64.11 C18.765,64.107 18.725,64.237 18.708,64.256 C18.689,64.277 18.558,64.324 18.516,64.33 C18.49,64.334 18.472,64.336 18.463,64.346 C18.455,64.355 18.45,64.41 18.486,64.428 C18.543,64.454 18.595,64.405 18.65,64.42 C18.703,64.433 18.751,64.462 18.788,64.501 C18.791,64.505 18.795,64.507 18.799,64.508 C18.818,64.515 18.838,64.515 18.855,64.507 C18.86,64.506 18.864,64.503 18.868,64.5 C18.882,64.487 18.898,64.482 18.914,64.482 C18.926,64.481 18.937,64.489 18.941,64.5 C18.944,64.512 18.941,64.524 18.93,64.532 C18.89,64.561 18.849,64.59 18.792,64.584 C18.762,64.58 18.732,64.58 18.701,64.583 C18.608,64.593 18.521,64.634 18.454,64.702 C18.431,64.724 18.407,64.748 18.386,64.77 C18.374,64.782 18.373,64.801 18.384,64.814 C18.394,64.827 18.412,64.83 18.426,64.821 C18.436,64.815 18.447,64.897 18.458,64.89 C18.498,64.865 18.572,65 18.611,65 L18.613,65 C18.619,65 18.625,64.913 18.63,64.909 C18.684,64.869 18.711,64.75 18.79,64.743 C18.846,64.739 18.887,64.771 18.945,64.759 C19.009,64.746 19.062,64.686 19.132,64.689 C19.158,64.691 19.228,64.704 19.235,64.708 C19.254,64.72 19.254,64.717 19.359,64.719 C19.403,64.72 19.435,64.754 19.476,64.761 C19.527,64.768 19.573,64.738 19.623,64.742 L19.624,64.742 C19.625,64.742 19.774,64.713 19.772,64.651 C19.772,64.65 19.771,64.649 19.77,64.648 L19.768,64.647 C19.716,64.616 19.681,64.562 19.674,64.502 C19.673,64.497 19.676,64.493 19.68,64.491 C19.685,64.49 19.691,64.491 19.695,64.494 C19.698,64.497 19.701,64.499 19.704,64.501 C19.72,64.512 19.73,64.513 19.736,64.509 C19.772,64.483 19.81,64.459 19.848,64.438 C19.869,64.426 19.881,64.292 19.893,64.247 C19.896,64.233 19.909,64 19.819,64 L19.817,64 C19.81,64 19.641,64.02 19.594,64.046 C19.562,64.063 19.562,64.118 19.504,64.088 C19.501,64.079 19.505,64.098 19.512,64.093 C19.578,64.041 19.578,64.054 19.577,64.04 C19.574,64.008 19.29,63.992 19.271,63.971 C19.255,63.952 19,63.929 19,63.908 L19,63.909 C19,63.892 19.214,63.75 19.213,63.749 C19.208,63.744 19.34,63.742 19.331,63.742 C19.302,63.744 19.34,63.872 19.312,63.872 C19.312,63.872 19.371,64 19.364,64 L18,64 L18,63.864 C18,63.829 18.655,63.743 18.652,63.711 C18.649,63.678 18.998,63.615 19.001,63.583 C19.004,63.554 19.171,63.505 19.162,63.474 C19.128,63.358 19.219,63.228 19.26,63.118 C19.277,63.072 19.343,63.024 19.372,62.984 C19.438,62.892 19.162,62.902 19.106,62.905 C19.101,62.906 19.107,62.903 19.105,62.899 C19.103,62.895 19.108,62.89 19.111,62.886 C19.125,62.864 19.13,62.836 19.15,62.817 C19.177,62.791 19.216,62.782 19.247,62.764 C19.315,62.721 19.259,62.694 19.234,62.688 C19.174,62.672 19.111,62.664 19.05,62.664 C19.026,62.664 19.003,62.667 18.979,62.676 C18.964,62.682 18.946,62.701 18.927,62.727 C18.89,62.779 18.846,62.825 18.796,62.865 C18.793,62.867 18.79,62.869 18.788,62.871 C18.774,62.882 18.756,62.884 18.74,62.877 C18.731,62.873 18.72,62.873 18.711,62.877 C18.709,62.878 18.708,62.879 18.708,62.879 C18.689,62.889 18.676,62.902 18.667,62.917 C18.655,62.935 18.658,62.959 18.673,62.975 C18.688,62.991 18.711,62.995 18.731,62.985 L18.731,62.986 C18.733,62.992 18.733,62.999 18.731,63.005 C18.72,63.03 18.716,63.057 18.706,63.081 C18.705,63.084 18.703,63.086 18.703,63.086 C18.695,63.087 18.69,63.054 18.688,63.05 C18.675,63.03 18.669,63 18.661,63 L18.659,63 C18.623,63 18.598,63.122 18.599,63.146 C18.6,63.155 18.602,63.176 18.606,63.18 C18.652,63.231 18.656,63.322 18.615,63.376 L18.615,63.376 Z M27.218,66.178 C27.217,66.123 27.309,66.124 27.318,66.057 C27.322,66.026 27.308,65.995 27.282,65.978 C27.25,65.955 27.235,65.962 27.195,65.98 C27.171,65.991 27.144,66.003 27.115,66.003 C27.091,66.003 27.07,65.986 27.066,65.962 C27.063,65.941 27.073,65.921 27.091,65.91 C27.098,65.906 27.1,65.898 27.097,65.891 C27.094,65.885 27.089,65.882 27.084,65.88 C27.021,65.865 26.967,65.856 26.923,65.85 C26.841,65.84 26.756,65.846 26.676,65.869 C26.61,65.887 26.606,65.898 26.591,65.942 C26.55,66.055 26.534,66.101 26.519,66.121 C26.464,66.194 26.424,66.053 26.402,66.141 C26.394,66.175 26.377,66 26.337,66 C26.337,66 26.337,66 26.333,66 C26.333,66 26.31,66.429 26.312,66.451 C26.315,66.498 25.723,66.654 25.706,66.703 C25.692,66.745 25,66.847 25,66.888 L25,66.89 C25,66.959 25.624,67.065 25.641,67.135 C25.643,67.141 25.95,67.074 25.944,67.077 C25.938,67.08 26.273,67 26.273,67 L26.252,67 C26.222,67 26.2,66.969 26.192,66.982 C26.187,66.992 26.183,67 26.19,67 L26.188,67 L25.968,67.205 C26.054,67.325 25,67.46 26,67.517 L26,67.539 C26,67.571 26.448,67.532 26.522,67.54 C26.603,67.55 26.836,67.541 26.917,67.541 C26.945,67.541 26.466,67.535 26.501,67.52 C26.53,67.507 26,67.489 26,67.465 L26,67.459 C26,67.438 26.617,67.436 26.707,67.364 C26.772,67.312 27.158,67.285 27.224,67.233 C27.335,67.146 27.63,67.062 27.751,67.025 C27.779,67.017 28.31,67 28.334,67 L28.336,67 C28.447,67 28.746,67.22 28.817,67.24 C28.846,67.248 28.89,67.344 28.932,67.343 C28.934,67.342 28.938,67.383 28.94,67.382 C28.999,67.354 29.037,67.283 29.119,67.324 C29.262,67.396 29.665,67.344 29.567,67.01 C29.514,66.829 29.275,66.736 29.203,66.71 C28.987,66.632 28.845,66.449 28.655,66.332 C28.571,66.28 28.472,66.328 28.386,66.293 C28.19,66.215 28.19,66.216 28.18,66.16 C28.179,66.156 27.531,66.152 27.534,66.147 C27.586,66.073 27,65.992 27,65.905 L27,65.903 C27,65.872 27.671,65.856 27.638,65.834 C27.593,65.806 27.832,65.833 27.824,65.76 C27.817,65.702 28.105,65.637 28.157,65.607 C28.2,65.582 28.3,65.549 28.307,65.529 C28.319,65.496 28.32,65.672 28.302,65.674 C28.243,65.681 28.122,66 28.098,66 L28.095,66 C28.088,66 27,65.566 27,65.57 L27,65.676 L27.696,66 L27.694,66 C27.627,66 27.591,66.024 27.597,66.106 C27.603,66.189 27.259,66.21 27.332,66.249 C27.363,66.266 27,66.248 27,66.279 L27,66.266 C27,66.282 27.179,66.47 27.157,66.473 C27.102,66.479 27.279,66.449 27.275,66.441 C27.273,66.437 27.369,66.432 27.368,66.428 C27.336,66.336 27.311,66.259 27.206,66.227 C27.184,66.221 27.219,66.2 27.218,66.178 L27.218,66.178 Z M38.749,76.013 C38.749,74.119 38.424,72.205 38.092,71.194 C37.988,70.877 37.748,70.623 37.437,70.502 C37.126,70.381 36.777,70.406 36.487,70.571 C35.754,70.986 35.777,71.038 35.521,71.025 C35.404,71.019 34.879,71.369 34.691,70.968 C34.655,70.893 34.47,70.553 34.214,71.021 C34.145,71.149 33.766,71.053 33.641,70.983 C33.272,70.777 32.818,70.296 32.706,70.175 L32.705,70.175 C32.579,70.029 32.214,70.229 32.482,70.627 C33.379,71.965 33.537,71.977 33.791,72.11 C33.911,72.02 33.258,71.992 33.414,71.97 C33.51,71.956 33,71.896 33,71.808 L33,71.806 C33,71.705 33.78,71.632 33.889,71.61 C33.999,71.587 34.432,71.617 34.517,71.69 C34.517,71.69 34.678,71.691 34.679,71.692 C34.834,71.826 35.114,71.702 35.279,71.781 C35.698,71.978 35.578,72.45 35.495,72.924 C35.494,72.925 35.534,73 35.534,73 L35.529,73 C35.49,73 35.454,72.95 35.453,72.989 C35.452,73.14 35.548,73.244 35.519,73.397 C35.517,73.403 35.514,73.389 35.509,73.392 C35.459,73.417 35.414,73.441 35.375,73.482 C35.255,73.609 35.247,73.766 35.143,73.909 C35.046,74.046 35.151,74.347 34.916,74.349 C34.827,74.35 34.527,74.521 34.481,74.718 C34.426,74.951 34.298,75.159 34.115,75.313 C33.98,75.427 33.797,75.574 33.544,75.772 C33.424,75.865 32.938,76.39 32.519,76.488 C32.461,76.501 32.401,76.479 32.366,76.432 C32.364,76.429 32.362,76.426 32.36,76.423 C32.085,75.995 32.027,75.481 31.81,75.03 C31.554,74.496 30.861,74.355 30.668,73.763 C30.506,73.263 30.437,73.053 30.21,72.924 C30.05,72.834 29.918,72.709 29.819,72.555 C29.659,72.304 29.416,71.947 29.217,71.754 C29.126,71.667 29.066,71.554 29.045,71.43 C29.036,71.374 28.954,71.378 28.951,71.435 C28.939,71.634 28.976,71.696 28.921,71.738 C28.874,71.773 28.146,71.754 28.105,71.712 C27.963,71.565 27,71.298 27,71.149 L27,71.151 C27,71.209 27.667,71.271 27.701,71.32 C28.009,71.759 29.847,73.928 29.885,74.134 C30.135,75.499 31.36,75.826 31.9,76.329 C32.001,76.424 32.152,76.546 32.178,76.678 C32.203,76.804 32.305,76.913 32.399,76.999 C32.498,77.091 32.619,77.079 33.182,77.008 C33.276,76.996 33.347,76.929 33.412,76.87 C33.467,76.818 33.93,76.657 33.99,76.619 C34.113,76.539 33.962,76.586 34.246,76.452 C34.357,76.398 34.489,76.064 34.466,76.443 C34.462,76.541 34.517,76.629 34.507,76.727 C34.448,77.303 34.4,77.399 34.367,77.51 C34.323,77.657 34.265,77.799 34.229,77.949 C34.056,78.654 33.783,79.407 33.308,79.964 C33.298,79.976 33.287,79.986 33.276,79.997 C33.013,80.24 32.535,80.69 32.145,81.454 C31.899,81.934 31.552,82.352 31.295,82.825 C31.209,82.986 31.188,83.026 31.264,83.242 C31.319,83.396 31.482,84.109 31.507,85.023 C31.534,86.019 31.373,86.182 31.054,86.413 C30.544,86.783 30.195,87.036 29.956,87.213 C29.676,87.42 29.508,87.746 29.504,88.094 C29.503,88.222 29.472,88.384 29.385,88.579 L29.385,88.58 C29.404,88.615 28.727,88.954 28.494,89.229 L28.494,89.23 C28.493,89.237 28.493,89.244 28.495,89.25 C28.653,89.743 26.657,91.174 26.242,91.171 C25.943,91.169 25.207,91.286 24.856,91.436 C24.619,91.537 23.98,91.32 23.933,91.184 C23.926,91.163 23.924,91.126 23.94,91.112 C24.097,90.982 23.569,90.22 23.443,90.133 C23.363,90.077 23.209,89.721 23.147,89.632 C22.954,89.36 23.285,88.976 23.07,88.705 C23.059,88.691 23.047,88.676 23.037,88.661 L22.415,87.792 C22.318,87.657 22.043,87.498 22.042,87.332 L22.042,87.331 C22.04,87.15 22.364,86.276 22.39,86.239 C22.419,86.197 22.447,86.151 22.47,86.104 C22.484,86.078 22.508,86.059 22.556,86.034 C22.714,85.954 22.94,85.754 22.681,85.332 C22.667,85.307 22.667,85.418 22.584,84.832 C22.531,84.448 22.025,83.576 21.939,83.485 C21.939,83.485 21.353,83.205 21.084,82.653 C21.098,82.621 21.118,82.594 21.145,82.573 C21.393,82.374 20.631,82.125 20.704,81.59 C20.708,81.563 20,81.536 20,81.51 L20,81.506 L20,81.47 L20,81 L21.473,81 C21.495,81 21.509,81.013 21.365,80.795 C21.34,80.757 21.281,81 21.236,81 L21.231,81 C21.15,81 20,80.896 20,80.817 L20,80.814 C20,80.812 20.535,80.812 20.534,80.811 C20.418,80.764 20.558,80.758 20.438,80.793 C20.173,80.87 19.745,80.985 19.682,80.621 C19.597,80.133 19.33,80.026 19.166,80.037 C18.468,80.086 17.911,80.686 17.19,80.637 C17.158,80.636 17.134,80.62 17.104,80.609 C16.481,80.374 15.818,80.369 15.185,80.248 C14.971,80.206 14.666,80.102 14.51,79.949 L13.625,79.077 C13.568,79.02 13.517,78.958 13.473,78.89 C13.192,78.458 13.088,77.506 13.013,77.336 C13.002,77.311 12.99,77.286 12.977,77.263 L12.901,77.118 C12.9,77.117 12.899,77.115 12.898,77.114 L12.898,77.113 C12.691,76.843 12.627,76.489 12.725,76.164 L13.076,74.999 C13.081,74.982 13.086,74.964 13.09,74.946 C13.099,74.909 13.107,74.871 13.112,74.834 C13.195,74.255 13.085,74.044 13.03,73.94 C12.93,73.746 12.59,73.746 13.091,73.049 C14.001,71.779 13,71.894 14,71.821 L14,72 L14.681,72 C15.076,72 15.826,71.383 15.813,71.121 C15.808,71.037 15.799,70.773 15.947,70.54 C16.004,70.45 16.076,70.324 16.159,70.257 L16.726,69.57 C16.877,69.447 16,69.425 17,69.532 L17,69.527 C17,69.488 17.484,69.49 17.591,69.537 C17.732,69.599 17.947,69.555 17.991,69.534 C18.487,69.296 19.091,69.223 21.605,69.063 C21.69,69.057 21.804,69.094 21.856,69.161 L21.873,69.163 C22.021,69.354 21.919,69.33 22.087,69.612 C22.151,69.72 22.091,69.801 21.89,70.004 C21.814,70.081 21.829,70.204 21.854,70.208 C21.923,70.211 22.087,70.254 22.222,70.324 C22.4,70.417 22.682,70.509 22.916,70.577 C23.128,70.638 23.318,70.762 23.46,70.932 C23.552,71.043 24.796,71.786 24.746,70.775 C24.743,70.705 24.812,70.582 24.927,70.488 C25.332,70.159 25.628,70.761 25.74,70.786 C25.918,70.827 25.941,71 26.061,71 L26.064,71 L26.066,71 C26.176,71 26.228,70.953 26.583,70.929 C27.196,70.888 27.816,70.896 28.428,70.788 C28.497,70.776 28.592,70.71 28.646,70.665 C29.324,70.105 28.636,69.397 28.742,68.779 C28.742,68.777 28.741,68.89 28.74,68.888 C28.739,68.887 28.737,69 28.737,69 L28.735,69 C28.526,69 28.327,68.975 28.168,69.111 C28.111,69.161 28.041,69.133 27.944,69.144 C27.775,69.161 26.988,69.019 26.84,68.963 C26.766,68.935 26,68.941 26,69.015 L26,69.017 C26,69.155 25.95,69.297 25.757,68.974 C25.699,68.875 26.312,69 26.206,69 L26.181,69 C26.181,69 26.174,68.751 26.176,68.749 C26.367,68.57 26.07,68.309 26.037,68.169 C26.021,68.1 26.055,67.968 26.121,67.941 L26.123,67.909 C26.282,67.848 25.808,67.747 25.776,67.771 C25.709,67.82 25,67.841 25,67.846 L25,67.842 C25,67.845 25.457,67.833 25.418,67.812 C25.325,67.759 25.491,67.731 25.384,67.731 C25.255,67.731 25.26,67.791 25.234,67.918 C25.229,67.942 25.346,68 25.326,68 L25.329,68 C25.312,68 25.292,67.991 25.274,67.982 C25.241,67.967 25.21,67.959 25.184,67.976 C25.158,67.995 25.143,67.822 25.147,67.862 C25.157,67.973 25.457,68 25.214,68 L25.212,68 C25.212,68 25.108,68.256 25.099,68.261 C24.999,68.31 24.869,68.098 24.782,68.093 C24.754,68.091 24.726,68 24.698,68 L24.695,68 L24.664,68 L24.663,68 C24.654,68 24.56,68.104 24.545,68.078 C24.509,68.015 24.505,68.106 24.485,68.086 C24.47,68.069 23.773,68.097 23.751,68.082 C23.704,68.048 23,68.02 23,67.962 L23,67.974 C23,67.929 23.661,67.871 23.653,67.802 C23.634,67.646 23.89,67.507 23.769,67.409 C23.737,67.384 23.865,67.372 23.825,67.374 C23.8,67.375 23.858,67.233 23.835,67.218 C23.733,67.15 23.737,67 23.737,67 L23.742,67 L22.941,66.55 C22.895,66.516 22.84,66.568 22.784,66.571 C22.737,66.574 22.712,66.564 22.686,66.525 C22.634,66.446 22.537,66.427 22.447,66.454 C22.443,66.455 22.44,66.465 22.436,66.466 C22.379,66.488 22.353,66.561 22.383,66.616 C22.4,66.646 22.418,66.678 22.438,66.707 L22.905,67.388 C22.983,67.5 23.112,67.567 23.248,67.566 C23.304,67.566 23.351,67.608 23.357,67.663 C23.36,67.69 23.375,67.715 23.4,67.73 C23.623,67.858 23.377,67.877 23.531,68.119 C23.533,68.121 23,68.124 23,68.127 L23,68.128 L23,68.13 C23,68.148 23.524,68.207 23.514,68.224 C23.498,68.254 23.705,68.268 23.688,68.252 C23.676,68.241 23.81,68.214 23.811,68.185 C23.812,68.177 23.876,68.166 23.872,68.154 C23.849,68.089 23.544,68.076 23.482,68.049 C23.396,68.013 23,68.051 23,68.135 L23,68.138 C23,68.14 23.287,68.143 23.286,68.145 C23.249,68.242 23.456,68.271 23.489,68.287 C23.541,68.312 23.693,68.349 23.671,68.462 C23.663,68.51 23.646,68.493 23.618,68.513 C23.618,68.513 23.654,68.497 23.561,68.684 C23.528,68.747 23.568,68.762 23.486,68.804 C23.416,68.838 23.388,68.794 23.379,68.779 C23.349,68.728 23.393,68.682 23.392,68.633 C23.391,68.611 23.392,68.591 23.456,68.564 C23.548,68.526 23.451,68.375 23.396,68.29 C23.396,68.289 23.396,68.288 23.395,68.287 C23.282,68.092 23.357,68.25 23.227,68.128 C23.147,68.054 22.937,67.928 22.895,67.877 C22.62,67.535 22.167,67.373 21.93,66.992 C21.882,66.915 21.813,66.853 21.73,66.816 C21.676,66.791 21.612,66.773 21.54,66.776 C21.472,66.78 21.146,66.965 20.885,67.115 C20.638,67.256 20.46,66.923 20.22,67.018 C19.961,67.121 20.114,67.46 19.895,67.586 C19.645,67.729 19.346,67.776 19.125,67.978 C19.116,67.986 19.11,67.998 19.104,68.011 C19.036,68.167 18.918,68.234 18.91,68.273 C18.903,68.305 18.901,68.319 18.914,68.363 C18.944,68.457 18.914,68.559 18.84,68.623 C18.791,68.666 18.832,68.8 18.788,68.824 C18.706,68.866 18.618,68.82 18.534,68.844 C18.409,68.879 18.403,69.041 18.281,69.079 C18.121,69.127 17.966,69.026 17.806,69.061 C17.446,69.14 17.446,69.14 17.432,69.173 C17.419,69.202 17.39,69.251 17.34,69.251 C17.153,69.247 17.222,69.013 17.133,68.912 C17.038,68.802 17.011,68.814 16.968,68.832 C16.909,68.857 16.812,68.9 16.781,68.882 C16.741,68.857 16.71,68.82 16.663,68.807 C16.631,68.798 16.605,68.776 16.589,68.746 C16.563,68.693 16.629,68.48 16.644,68.418 C16.654,68.381 16.651,68.343 16.638,68.307 C16.621,68.265 16.582,68.237 16.537,68.236 C16.529,68.236 16.52,68.232 16.515,68.226 C16.462,68.168 16.677,67.951 16.737,67.84 C16.746,67.823 16.756,67.798 16.763,67.78 C16.946,67.31 16.946,67.15 16.909,66.993 C16.892,66.924 16.942,66.857 17.013,66.853 C17.052,66.851 17.093,66.849 17.127,66.847 C17.204,66.759 17.331,66.733 17.435,66.786 C17.577,66.858 17.86,66.961 18.343,66.984 C18.46,66.989 18.577,67.014 18.686,67.056 C18.789,67.094 18.876,67.005 18.914,66.956 C19.004,66.841 18.99,66.698 19.009,66.564 C19.018,66.493 19.058,66.429 19.118,66.39 C19.134,66.379 19.142,66.304 19.138,66.286 C19.134,66.26 19.113,66 19.088,66 L19.085,66 C18.885,66 18.949,65.777 18.818,65.694 C18.706,65.623 18.711,65.603 18.435,65.573 C18.395,65.569 18.489,65.39 18.649,65.339 C18.659,65.336 18.669,65.344 18.678,65.348 C18.776,65.398 18.886,65.425 18.997,65.42 C19.039,65.418 18.516,65.398 18.54,65.364 C18.565,65.331 18,65.289 18,65.249 L18,65.247 C18,65.205 18.586,65.14 18.633,65.171 C18.725,65.232 19.052,65.271 19.211,65.247 C19.251,65.242 19.424,65.212 19.433,65.173 C19.437,65.155 19.519,65.139 19.535,65.13 C19.715,65.028 19.826,64.983 19.862,64.941 C19.948,64.843 20.065,64.761 20.179,64.698 C20.342,64.607 20.43,64.548 20.585,64.407 C20.652,64.347 20.736,64.305 20.824,64.284 C20.851,64.278 20.871,64.252 20.866,64.225 C20.865,64.22 20.868,64.214 20.871,64.21 C20.901,64.172 20.946,64.147 20.994,64.143 C21.108,64.132 21.175,64.132 21.223,64.132 C21.223,64.131 21.224,64.131 21.224,64.13 C21.257,64.093 21.305,64.072 21.355,64.073 C21.473,64.076 21.63,64.129 21.604,63.803 C21.567,63.511 21.664,63 21.868,63 L21.87,63 C21.961,63 21.941,63.135 21.956,63.234 C21.966,63.294 21.948,63.355 21.908,63.4 C21.908,63.4 21.392,63.401 21.391,63.402 C21.001,63.834 21,63.821 21,63.932 L21,63.934 C21,63.952 21.527,63.969 21.543,63.979 C21.559,63.989 21.836,63.991 21.853,63.985 C21.87,63.979 22.384,63.818 22.399,63.828 C22.472,63.874 22.481,63.897 22.539,63.951 L22.573,63.952 C22.661,64.032 22.804,64.049 22.909,63.993 C23.131,63.876 23.393,63.611 23.64,63.656 C23.761,63.679 24.071,64 24.015,63 L24.014,63 C23.98,63 23.974,63.021 23.997,62.919 C24.011,62.855 23.985,62.933 24.058,62.885 C24.094,62.86 24.141,62.913 24.181,62.931 C24.233,62.954 23.557,62.984 23.611,62.961 C23.681,62.931 23,62.892 23,62.815 L23,62.813 C23,62.798 23.729,62.783 23.716,62.775 C23.649,62.733 23.98,62.656 23.99,62.577 C24.001,62.489 24.252,62.419 24.339,62.403 C24.594,62.356 24.732,62.5 24.974,62.284 C24.989,62.271 25.041,62.154 25.036,62.135 C25.031,62.116 25.054,62 25.035,62 L25.039,62 C24.838,62 24.028,62.067 23.835,62.135 L23,62.157 L23,62 L23,62.158 C23,62.183 23.515,62.274 23.468,62.27 C23.306,62.257 23.503,62.141 23.44,61.971 C23.366,61.773 23.541,61.57 23.657,61.393 C23.715,61.305 23.818,61.202 23.883,61.12 C23.909,61.087 23.957,61.048 23.947,61.006 C23.921,60.889 23.736,60.839 23.622,60.864 C23.395,60.915 23.556,61.188 23.466,61.33 C23.413,61.412 23.199,61.47 23.18,61.582 C23.132,61.868 23.076,62.018 23.095,62.118 C23.136,62.33 23,62.549 23,62.749 L23,62.753 C23,62.924 23.102,63.103 23.013,63.272 C22.909,63.47 22.685,63.314 22.629,63.552 C22.606,63.652 22.418,63.504 22.351,63.437 C22.344,63.241 22.273,63.151 22.218,62.997 C22.173,62.873 22.074,62.778 21.948,62.74 C21.612,62.64 21.544,62.968 21.247,62.877 C21.008,62.803 20.84,62.587 20.828,62.337 C20.815,62.087 20.96,61.855 21.191,61.758 L21.192,61.758 C21.978,61.427 22.125,61.211 22.177,61.025 C22.189,60.983 22.222,61 22.264,61 L21,61 L21,60.937 C21,60.895 21.663,60.825 21.694,60.796 C21.775,60.721 21.798,60.606 21.871,60.523 C21.95,60.432 22,60.285 22,60.285 L22,60.281 C22,60.281 22.755,59.88 23.185,59.744 C23.384,59.682 23.704,59.814 23.752,59.823 C23.801,59.833 24.087,60 24.203,60 L24.183,60 C24.183,60 24.177,59.948 24.201,59.979 C24.256,60.052 24.43,59.968 24.645,60.068 C24.894,60.183 25.191,60.116 25.46,60.172 C25.57,60.195 25.643,60.281 25.63,60.393 C25.617,60.504 25.521,60.579 25.409,60.576 C25.331,60.574 25.26,60.617 25.234,60.69 C25.208,60.763 25.231,60.843 25.291,60.891 C25.388,60.967 25.497,61.026 25.612,61.067 C25.748,61.115 25.968,61.149 25.872,61.043 C25.838,61.005 25.789,60.983 25.738,60.982 C25.552,60.982 25.611,60.811 25.711,60.856 C25.822,60.907 26.132,60.94 25.917,60.733 C25.89,60.707 25.887,60.666 25.91,60.637 C25.946,60.592 25.975,60.541 25.996,60.488 C26.04,60.374 26.032,60.411 26.178,60.455 C26.203,60.463 26.229,60.458 26.249,60.444 C26.29,60.415 26.345,60.393 26.306,60.362 C26.271,60.336 26.341,60.277 26.366,60.285 C26.408,60.3 26.455,60.286 26.483,60.251 C26.505,60.224 26.511,60.188 26.502,60.155 C26.477,60.072 26.546,59.845 26.666,59.801 C26.695,59.79 26.726,59.789 26.756,59.798 C26.781,59.775 26.81,59.757 26.842,59.745 C26.895,59.726 26.986,59.9 27.051,59.845 C27.116,59.788 27.206,60 27.291,60 L27.293,60 C27.319,60 27.319,59.712 27.291,59.684 C27.24,59.634 27.069,59.439 27.094,59.373 C27.103,59.351 27.209,59.272 27.223,59.181 C27.233,59.119 27.198,59.032 27.14,59.009 C25.369,58.313 23.462,57.874 21.471,57.765 C21.104,57.992 20.737,58.238 20.407,58.512 C19.201,59.511 17.297,59.921 17.34,59.81 C17.158,59.812 17.11,59.874 17.11,59.874 C17.05,59.89 16.998,60 16.948,60 L16.947,60 C16.947,60 16.938,59.84 16.919,59.827 C16.855,59.784 16.73,59.828 16.429,59.981 L16.425,59.954 C16.42,59.957 16.414,59.946 16.409,59.949 C16.281,60.016 16.138,60.025 16.042,60.026 C15.972,60.028 15.905,60.037 15.84,60.063 C15.83,60.067 15.819,60.062 15.814,60.053 C15.791,60.017 15.902,59.976 15.941,59.961 C15.977,59.947 15.96,59.906 15.809,59.992 C15.777,60.011 15.738,60.016 15.701,60.006 C15.55,59.968 15.369,60.089 15.249,60.189 C15.23,60.204 15.206,60.213 15.177,60.201 C15.135,60.183 15.098,60.189 15.111,60.254 C15.125,60.324 14.726,60.5 14.719,60.47 C14.711,60.448 14.689,60.436 14.666,60.44 C14.614,60.451 14.551,60.494 14.516,60.56 C14.453,60.68 14.279,60.701 14.194,60.771 C14.107,60.844 13.977,60.916 13.977,60.916 C13.929,60.971 13.897,61.002 13.846,61.004 C13.797,61.006 13.768,60.919 13.79,60.886 C13.803,60.865 13.899,60.772 13.875,60.767 C13.866,60.765 13.858,60.759 13.854,60.75 C13.837,60.719 13.912,60.686 13.893,60.648 C13.88,60.622 13.736,60.614 13.724,60.601 C13.716,60.591 12.743,60.578 12.748,60.566 C12.838,60.384 12,60.372 12,60.252 L12,60.251 C12,60.231 12.958,60.206 12.971,60.187 C13.039,60.088 13.75,59.791 14.013,59.755 C14.083,59.745 14.28,59.731 14.28,59.731 C14.215,59.705 14.252,59.686 14.3,59.634 C14.394,59.533 14.598,59.397 14.758,59.318 C14.834,59.28 14.936,59.224 15.003,59.169 C15.068,59.115 15.315,59 15.552,59 L15.555,59 C15.754,59 15,58.639 15,58.634 L15,58.638 C15,58.623 15.65,58.572 15.645,58.545 C15.643,58.533 15.97,58.523 15.98,58.518 C16.031,58.491 16.252,58.481 16.305,58.457 C16.312,58.454 16.397,58.448 16.399,58.44 C16.401,58.42 16.418,58.407 16.399,58.415 C16.291,58.455 16.265,58.472 16.24,58.479 C16.226,58.483 16.221,58.477 16.215,58.465 C16.208,58.452 16.216,58.437 16.226,58.427 C16.351,58.32 16.522,58.318 16.669,58.267 C16.734,58.244 15.881,58.108 15.746,58.13 C15.084,58.239 14,58.436 13,58.644 C13,58.644 13,58.644 13,58.645 C13,58.664 12.949,58.726 12.933,58.742 C12.925,58.75 13,58.762 13,58.774 L13,58.776 C13,58.777 13.79,58.786 13.784,58.791 C13.759,58.81 14.102,58.791 14.088,58.817 C14.071,58.849 14.326,58.882 14.337,58.904 C14.345,58.921 14.534,59 14.521,59 L14.523,59 C14.503,59 14.406,59.018 14.391,59 C14.377,58.983 14.375,58.946 14.355,58.958 C14.285,59.004 14.241,59.019 14.201,59.027 C14.059,59.051 13.879,59.121 13.879,59.121 C13.901,59.103 13.968,59.037 13.979,59.013 C14.018,58.935 14.06,58.909 14.107,58.896 C14.141,58.887 14.146,58.839 13.994,58.897 C13.857,58.948 13.731,59.027 13.624,59.128 C13.535,59.212 13.43,59.303 13.354,59.343 C13.368,59.318 13.358,59.312 13.347,59.317 C13.339,59.322 13.266,59.387 13.238,59.379 C13.147,59.355 13.265,59.303 13.265,59.213 C13.275,59.198 13.287,59.186 13.3,59.175 L13.299,59.175 C13.196,59.219 13.103,59.285 13.027,59.368 C12.966,59.435 12.915,59.514 12.85,59.449 C12.818,59.419 12.771,59.41 12.731,59.429 C12.478,59.547 12.229,59.67 11.983,59.799 C11.957,59.813 11.933,59.829 11.91,59.848 C11.893,59.863 11.882,59.883 11.879,59.905 C11.875,59.931 11.83,59.989 11.814,60.017 C11.806,60.029 11.806,60.045 11.814,60.057 C11.837,60.092 11.912,60.066 11.951,60.053 C12.008,60.035 12.069,60.058 12.1,60.109 C12.13,60.158 12.122,60.222 12.082,60.263 C12.048,60.297 12.016,60.335 11.987,60.373 C11.926,60.454 11.87,60.538 11.783,60.593 C11.73,60.626 11.68,60.634 11.633,60.676 C11.16,61.101 11.144,62 10.795,62 L10.793,62 C10.526,62 10.432,62.047 10.112,62.166 C10.049,62.19 9.58,62.188 9.521,62.172 C9.471,62.159 9,62.13 9,62.082 L9,62.086 C9,61.907 9.14,61.871 8.961,61.941 C8.931,61.953 9.311,62 9.276,62 L8,62 L8,61.95 C8,61.966 7.514,62.061 7.54,62.114 C7.54,62.114 9,61.9 8,62.257 L8,62.251 C8,62.258 8.644,62.272 8.633,62.296 C8.617,62.33 8.942,62.191 8.887,62.204 C8.824,62.218 9.054,62 9.007,62 L9.029,62 C8.995,62 8.993,62.244 9.006,62.267 C9.023,62.297 9.117,62.374 9.026,62.43 C8.973,62.462 8.904,62.518 8.88,62.576 C8.852,62.645 8.819,62.73 8.778,62.791 C8.735,62.856 8.829,62.886 8.756,62.945 C8.669,63.016 8.369,62.952 8.265,62.972 C8.265,62.972 8.084,62.992 7.976,63.03 C7.867,63.068 7.671,63.118 7.563,63.248 C7.377,63.473 7.394,63.521 7.177,63.46 C7.164,63.457 7.151,63.461 7.142,63.47 C4.929,65.818 3.331,68.752 2.603,72.013 C2.603,72.016 2.602,72.019 2.601,72.022 C2.553,72.23 2.499,72.484 2.418,72.961 C2.417,72.972 2.417,72.983 2.419,72.994 C2.43,73.047 2.441,73.061 2.508,73.061 C2.669,73.061 2.807,73.175 2.836,73.333 C2.844,73.379 2.871,73.411 2.908,73.425 C2.944,73.44 2.985,73.437 3.023,73.41 C3.047,73.393 3.184,73.513 3.193,73.659 C3.198,73.738 3.228,73.828 3.244,73.906 C3.262,74 3.238,74.097 3.176,74.171 C3.167,74.182 3.164,74.198 3.167,74.212 C3.244,74.513 3.593,75.793 3.665,75.86 C3.706,75.852 3.74,75.866 3.763,75.891 C4.467,76.685 5.262,77.98 5.239,78.386 C5.08,78.684 5.097,78.668 5.229,78.829 C5.474,79.131 5.47,79.145 5.377,79.455 L5.377,79.454 C5.431,79.366 5.527,79.313 5.631,79.313 C5.734,79.313 5.83,79.367 5.884,79.455 C5.925,79.52 5.965,79.585 6.02,79.634 C6.165,79.764 6.24,79.956 6.222,80.149 C6.222,80.15 6.445,80.152 6.754,80.384 C7.146,80.678 8.528,82.261 8.582,82.695 C8.606,82.888 8.527,83.077 8.428,83.245 C8.314,83.438 7.945,83.839 7.882,84.055 C7.852,84.162 7.68,84.211 7.681,84.275 C7.683,84.363 7.71,84.546 7.836,84.906 C7.873,85.013 7.96,85.803 7.917,86.122 C7.892,86.309 7.892,86.342 7.938,86.548 C7.953,86.612 7.792,86.795 7.681,86.716 C7.542,86.616 7.427,86.631 7.412,86.66 L7.412,86.661 C7.22,86.975 6.53,87.031 6.683,87.366 C6.729,87.465 6.775,87.564 6.814,87.665 C6.861,87.783 6.886,87.91 6.89,88.037 C6.892,88.092 7.083,88.495 7.235,88.654 C10.565,92.137 15.257,94.307 20.456,94.307 C30.559,94.306 38.749,86.116 38.749,76.013 L38.749,76.013 Z M17.752,64.355 C17.828,64.322 17.899,64.277 17.979,64.255 L17.982,64.255 C18.093,64.224 18.19,64.254 18.223,64.212 C18.256,64.17 18.311,64.095 18.338,64.034 C18.35,64.004 18.319,63.962 18.358,63.94 C18.403,63.916 18.364,63.869 18.375,63.834 C18.406,63.743 18.427,63.741 18.463,63.735 C18.498,63.73 18.531,63.726 18.543,63.707 C18.601,63.622 18.398,63.378 18.27,63.411 C18.139,63.445 18.033,63.637 17.988,63.635 C17.933,63.632 17.907,63.63 17.869,63.659 C17.84,63.682 17.837,63.718 17.815,63.745 C17.79,63.778 17.757,63.803 17.731,63.835 C17.71,63.861 17.702,63.885 17.732,63.912 C17.754,63.932 17.767,63.943 17.701,64.028 C17.647,64.097 17.557,64.134 17.519,64.22 C17.506,64.251 17.508,64.313 17.512,64.338 C17.529,64.428 17.668,64.391 17.752,64.355 L17.752,64.355 Z" id="Fill-10" fill="#D1EDFF" sketch:type="MSShapeGroup"></path>
            <path d="M83.322,54 L80.799,64 L80.768,64 L78.059,54 L76.742,54 L74.049,64 L74.018,64 L71.51,54 L69.82,54 L67.296,64 L67.266,64 L64.556,54 L63.24,54 L60.546,64 L60.515,64 L58.008,54 L56.318,54 L53.794,64 L53.763,64 L51.054,54 L49.738,54 L47.044,64 L47.013,64 L44.505,54 L43.375,54 L46.441,66 L47.586,66 L50.373,55 L50.403,55 L53.206,66 L54.321,66 L57.124,55.089 L59.943,66 L61.088,66 L63.875,55 L63.906,55 L66.708,66 L67.823,66 L70.627,55.089 L73.445,66 L74.591,66 L77.377,55 L77.408,55 L80.21,66 L81.325,66 L84.375,54 L83.322,54" id="Fill-11" fill="#3899EC" sketch:type="MSShapeGroup"></path>
        </g>
    </g>
</svg>
