<svg xmlns="http://www.w3.org/2000/svg" width="90" height="92" viewBox="0 0 90 92"><g fill="none" fill-rule="evenodd"><path fill="#A2DBF4" d="M81 89.5c0 1.38-16.342 2.5-36.5 2.5C24.34 92 8 90.88 8 89.5S24.34 87 44.5 87C64.658 87 81 88.12 81 89.5"/><path fill="#6DD0F2" d="M86 0H4a4 4 0 0 0-4 4v9h90V4a4 4 0 0 0-4-4"/><path fill="#FFF" d="M86 64H4a4 4 0 0 1-4-4V13h90v47a4 4 0 0 1-4 4M9.693 7.1a2.182 2.182 0 1 1-4.365 0 2.182 2.182 0 0 1 4.365 0M16.65 7.1a2.182 2.182 0 1 1-4.364 0 2.182 2.182 0 0 1 4.365 0"/><path stroke="#6DD0F2" stroke-width="2" d="M13 55V21" stroke-linecap="round" stroke-linejoin="round" stroke-dasharray="1 4"/><path fill="#3899EC" d="M50 29.208A3.792 3.792 0 0 1 46.208 33H24.79A3.792 3.792 0 0 1 21 29.208v-.416A3.792 3.792 0 0 1 24.79 25H46.21A3.792 3.792 0 0 1 50 28.792v.416M71 45.208A3.792 3.792 0 0 1 67.208 49H45.79A3.792 3.792 0 0 1 42 45.208v-.416A3.792 3.792 0 0 1 45.79 41H67.21A3.792 3.792 0 0 1 71 44.792v.416"/><path stroke="#6DD0F2" d="M23 44.5h14m-11.392 3.135l-2.048-2.05a1.284 1.284 0 0 1 0-1.816l2.048-2.05"/></g></svg>