<svg xmlns="http://www.w3.org/2000/svg" width="86" height="104" viewBox="0 0 86 104"><g fill="none" fill-rule="evenodd"><path fill="#3899EC" d="M66 72.305c0 3.282-2.686 5.943-6 5.943H6c-3.314 0-6-2.66-6-5.943V21.79c0-3.282 2.686-5.942 6-5.942h54c3.314 0 6 2.66 6 5.942v50.515"/><path fill="#FFF" d="M49 78.248H17V54.476c0-2.188 1.79-3.962 4-3.962h24c2.21 0 4 1.774 4 3.962v23.772"/><path fill="#6DD0F2" d="M23 63.39h20v2.972H23V63.39z"/><path fill="#FFF" d="M77.367 19.892c-.76-3.816-4.163-6.695-8.25-6.695-.57 0-1.128.058-1.668.166C65.832 6.27 59.426.966 51.754.966c-7.018 0-12.97 4.442-15.173 10.628C29.582 11.906 24 17.26 24 24.25c0 7.187 5.845 12.398 13.125 12.398H77.028c4.955 0 8.972-3.494 8.972-8.387 0-4.78-3.836-8.19-8.633-8.368"/><path fill="#6DD0F2" d="M47 28.724h1.52c-.38 0-.74-.072-.99-.362l-4.692-5.23a1.354 1.354 0 0 1 .125-1.916 1.35 1.35 0 0 1 1.918.14l3.72 4.174 9.284-10.255a1.347 1.347 0 0 1 1.922-.03c.54.528.553 1.4.032 1.946l-10.31 11.22c-.257.27-1.358.314-1.726.314"/><path fill="#A2DBF4" d="M64.5 101.13c0 1.38-13.208 2.5-29.5 2.5s-29.5-1.12-29.5-2.5 13.208-2.5 29.5-2.5 29.5 1.12 29.5 2.5"/></g></svg>