<svg xmlns="http://www.w3.org/2000/svg" width="91" height="114" viewBox="0 0 91 114"><g fill="none" fill-rule="evenodd"><path stroke="#6DD0F2" stroke-width="2" d="M82.368 63.444c0 21.192-18.427 38.372-40.184 38.372C20.427 101.816 2 84.636 2 63.444v-39.47c0-2.623 2.386-4.746 5.004-4.744C9.62 19.232 12 21.36 12 23.98v-.18l.61 1.6c.002 2.745 2.523 4.968 5.265 4.965 2.743-.002 4.906-2.234 4.904-4.98l.156-15.074c0-4.992 4.462-9.062 9.447-9.066 4.985-.004 9.42 4 9.423 8.994l-.03 8.602" stroke-linecap="round" stroke-linejoin="round" stroke-dasharray="1 4"/><path fill="#A2DBF4" d="M63.948 111.91c0 1.13-9.15 2.045-20.44 2.045-11.29 0-20.442-.915-20.442-2.045 0-1.128 9.152-2.044 20.44-2.044 11.29 0 20.442.916 20.442 2.044"/><path fill="#3899EC" d="M44 38.074v-2c3.265-.753 5.71-3.68 5.71-7.17 0-4.06-3.304-7.363-7.364-7.363-4.06 0-7.365 3.304-7.365 7.364 0 3.6 2.6 6.6 6.02 7.236v1.966c-12.522.88-22.41 11.308-22.41 24.054 0 13.32 10.8 24.12 24.122 24.12 13.32 0 24.12-10.8 24.12-24.12 0-12.89-10.11-23.417-22.832-24.086zm-6.02-9.17a4.37 4.37 0 0 1 4.366-4.363 4.368 4.368 0 0 1 4.363 4.364c0 1.82-1.123 3.38-2.71 4.034V31h-3v2.034c-1.746-.57-3.02-2.196-3.02-4.13z"/><path fill="#FFF" d="M43 41v-2.954c-.097 0-.192-.007-.288-.007-.24 0-.475.01-.712.017V41h1"/><g transform="translate(42 38)"><mask id="a" fill="#fff"><path d="M1 3V.046C.903.046.808.04.712.04.472.04.237.05 0 .056V3h1"/></mask><path d="M1 3V.046C.903.046.808.04.712.04.472.04.237.05 0 .056V3h1" mask="url(#a)"/></g><g transform="translate(42 38)"><mask id="b" fill="#fff"><path d="M1 3V.046C.903.046.808.04.712.04.472.04.237.05 0 .056V3h1"/></mask><path d="M1 3V.046C.903.046.808.04.712.04.472.04.237.05 0 .056V3h1" mask="url(#b)"/></g><g transform="translate(42 86)"><mask id="c" fill="#fff"><path d="M0 .262V2h1V.273C.903.273.808.28.712.28.472.28.237.27 0 .262"/></mask><path d="M0 .262V2h1V.273C.903.273.808.28.712.28.472.28.237.27 0 .262" mask="url(#c)"/></g><path fill="#FFF" d="M42 83v3.262c.237.007.473.018.712.018.096 0 .19-.006.288-.007V83h-1"/><g transform="translate(42 83)"><mask id="d" fill="#fff"><path d="M0 0v3.262c.237.007.473.018.712.018.096 0 .19-.006.288-.007V0H0"/></mask><path d="M0 0v3.262c.237.007.473.018.712.018.096 0 .19-.006.288-.007V0H0" mask="url(#d)"/></g><g transform="translate(42 83)"><mask id="e" fill="#fff"><path d="M0 0v3.262c.237.007.473.018.712.018.096 0 .19-.006.288-.007V0H0"/></mask><path d="M0 0v3.262c.237.007.473.018.712.018.096 0 .19-.006.288-.007V0H0" mask="url(#e)"/></g><path fill="#FFF" d="M32.433 43.563l-1.437-2.488c-.29.162-.58.328-.864.502l1.435 2.486.866-.5"/><g transform="translate(30 41)"><mask id="f" fill="#fff"><path d="M2.433 2.563L.996.075C.706.237.416.403.132.577l1.435 2.486.866-.5"/></mask><path d="M2.433 2.563L.996.075C.706.237.416.403.132.577l1.435 2.486.866-.5" mask="url(#f)"/></g><path fill="#FFF" d="M52.567 80.436l1.68 2.91c.293-.16.582-.326.867-.497l-1.68-2.913-.867.5"/><g transform="translate(52 79)"><mask id="g" fill="#fff"><path d="M.567 1.436l1.68 2.91c.293-.16.582-.326.867-.497L1.434.936l-.867.5"/></mask><path d="M.567 1.436l1.68 2.91c.293-.16.582-.326.867-.497L1.434.936l-.867.5" mask="url(#g)"/></g><path fill="#FFF" d="M24.563 51.067L22.09 49.64a23.14 23.14 0 0 0-.498.866l2.47 1.427.5-.866"/><g transform="translate(21 49)"><mask id="h" fill="#fff"><path d="M3.563 2.067L1.09.64a23.14 23.14 0 0 0-.498.866l2.47 1.427.5-.866"/></mask><path d="M3.563 2.067L1.09.64a23.14 23.14 0 0 0-.498.866l2.47 1.427.5-.866" mask="url(#h)"/></g><path fill="#FFF" d="M60.437 72.933l2.928 1.69c.173-.284.338-.574.5-.866l-2.93-1.69-.498.866"/><g transform="translate(60 72)"><mask id="i" fill="#fff"><path d="M.437.933l2.928 1.69c.173-.284.338-.574.5-.866L.934.067.438.933"/></mask><path d="M.437.933l2.928 1.69c.173-.284.338-.574.5-.866L.934.067.438.933" mask="url(#i)"/></g><path fill="#FFF" d="M53.433 44.063l1.543-2.672a24.02 24.02 0 0 0-.87-.493l-1.54 2.666.867.5"/><g transform="translate(52 40)"><mask id="j" fill="#fff"><path d="M1.433 4.063L2.976 1.39a24.02 24.02 0 0 0-.87-.493L.566 3.563l.867.5"/></mask><path d="M1.433 4.063L2.976 1.39a24.02 24.02 0 0 0-.87-.493L.566 3.563l.867.5" mask="url(#j)"/></g><path fill="#FFF" d="M31.567 79.937l-1.57 2.72c.283.174.57.343.86.507l1.576-2.728-.866-.5"/><g transform="translate(29 79)"><mask id="k" fill="#fff"><path d="M2.567.937l-1.57 2.72c.283.174.57.343.86.507l1.576-2.728-.866-.5"/></mask><path d="M2.567.937l-1.57 2.72c.283.174.57.343.86.507l1.576-2.728-.866-.5" mask="url(#k)"/></g><path fill="#FFF" d="M60.936 51.933l2.79-1.61c-.164-.29-.333-.58-.508-.862l-2.78 1.607.498.866"/><g transform="translate(60 49)"><mask id="l" fill="#fff"><path d="M.936 2.933l2.79-1.61c-.164-.29-.333-.58-.508-.862L.438 2.068l.498.866"/></mask><path d="M.936 2.933l2.79-1.61c-.164-.29-.333-.58-.508-.862L.438 2.068l.498.866" mask="url(#l)"/></g><path fill="#FFF" d="M24.063 72.067l-2.605 1.504c.158.295.325.584.494.87l2.61-1.507-.5-.866"/><g transform="translate(21 72)"><mask id="m" fill="#fff"><path d="M3.063.067L.458 1.57c.158.295.325.584.494.87L3.562.933l-.5-.866"/></mask><path d="M3.063.067L.458 1.57c.158.295.325.584.494.87L3.562.933l-.5-.866" mask="url(#m)"/></g><path fill="#FFF" d="M63 63h3.81c.01-.28.022-.56.022-.84 0-.054-.003-.107-.004-.16H63v1"/><g transform="translate(63 62)"><mask id="n" fill="#fff"><path d="M0 1h3.81c.01-.28.022-.56.022-.84 0-.054-.003-.107-.004-.16H0v1"/></mask><path d="M0 1h3.81c.01-.28.022-.56.022-.84 0-.054-.003-.107-.004-.16H0v1" mask="url(#n)"/></g><g transform="translate(63 62)"><mask id="o" fill="#fff"><path d="M0 1h3.81c.01-.28.022-.56.022-.84 0-.054-.003-.107-.004-.16H0v1"/></mask><path d="M0 1h3.81c.01-.28.022-.56.022-.84 0-.054-.003-.107-.004-.16H0v1" mask="url(#o)"/></g><path fill="#FFF" d="M21 62h-2.405c0 .053-.004.106-.004.16 0 .28.012.56.022.84H21v-1"/><g transform="translate(18 62)"><mask id="p" fill="#fff"><path d="M3 0H.595C.595.053.59.106.59.16c0 .28.012.56.022.84H3V0"/></mask><path d="M3 0H.595C.595.053.59.106.59.16c0 .28.012.56.022.84H3V0" mask="url(#p)"/></g><g transform="translate(18 62)"><mask id="q" fill="#fff"><path d="M3 0H.595C.595.053.59.106.59.16c0 .28.012.56.022.84H3V0"/></mask><path d="M3 0H.595C.595.053.59.106.59.16c0 .28.012.56.022.84H3V0" mask="url(#q)"/></g><path fill="#FFF" d="M58.982 63.828c1.024-10.342-7.596-18.963-17.94-17.94-7.652.76-13.843 6.95-14.6 14.603-1.025 10.344 7.596 18.964 17.938 17.94 7.654-.758 13.844-6.948 14.602-14.602"/><path fill="#6DD0F2" d="M46.814 69.482c-.287 0-.575-.08-.83-.25l-5.315-3.536a1.5 1.5 0 0 1-.67-1.25V55a1.5 1.5 0 0 1 3 0v8.644l4.646 3.09a1.5 1.5 0 0 1-.832 2.748"/><path stroke="#6DD0F2" stroke-width="2" d="M75.827 65.43l6.95-7.36 6.95 7.36" stroke-linecap="round" stroke-linejoin="round"/></g></svg>