<?xml version="1.0" encoding="UTF-8" standalone="no"?>
<svg width="103px" height="98px" viewBox="0 0 103 98" version="1.1" xmlns="http://www.w3.org/2000/svg" xmlns:xlink="http://www.w3.org/1999/xlink" xmlns:sketch="http://www.bohemiancoding.com/sketch/ns">
    <!-- Generator: Sketch 3.3.2 (12043) - http://www.bohemiancoding.com/sketch -->
    <title>exit_editor_illustration</title>
    <desc>Created with Sketch.</desc>
    <defs></defs>
    <g id="Page-1" stroke="none" stroke-width="1" fill="none" fill-rule="evenodd" sketch:type="MSPage">
        <g id="exit_editor_illustration" sketch:type="MSArtboardGroup">
            <path d="M103,90 L62,90 L62,26 C62,23.791 63.791,22 66,22 L99,22 C101.209,22 103,23.791 103,26 L103,90" id="Fill-1" fill="#3899EC" sketch:type="MSShapeGroup"></path>
            <path d="M103,90.9372464 L73,98 L73,31.7513708 C73,29.8313108 74.341,28.1766085 76.207,27.7962288 L99.405,23.0611569 C101.263,22.6817862 103,24.1155252 103,26.0285224 L103,90.9372464" id="Fill-2" fill="#FFFFFF" sketch:type="MSShapeGroup"></path>
            <path d="M61.1080729,13.4866298 C49.7801761,-1.48637022 28.4593704,-4.44137022 13.4865069,6.88662978 C-1.48635667,18.2146298 -4.44132975,39.5356298 6.88656703,54.5086298 C18.2144638,69.4816298 39.5352695,72.4366298 54.5081331,61.1086298 C57.809103,58.6106298 60.5230782,55.6276298 62.632059,52.3336298 L69.2099991,51.6116298 L65.5730322,46.6036298 C69.8279935,35.9166298 68.5550051,23.3296298 61.1080729,13.4866298" id="Fill-3" fill="#6DD0F2" sketch:type="MSShapeGroup"></path>
            <path d="M24,28.003 C24,29.109 23.103,30.005 21.997,30.005 C20.891,30.005 19.995,29.109 19.995,28.003 C19.995,26.897 20.891,26 21.997,26 C23.103,26 24,26.897 24,28.003" id="Fill-4" fill="#FFFFFF" sketch:type="MSShapeGroup"></path>
            <path d="M47.998,28.003 C47.998,29.109 47.103,30.005 45.999,30.005 C44.895,30.005 44,29.109 44,28.003 C44,26.897 44.895,26 45.999,26 C47.103,26 47.998,26.897 47.998,28.003" id="Fill-5" fill="#FFFFFF" sketch:type="MSShapeGroup"></path>
            <path d="M46,39 C46,45.627 40.628,51 34,51 C27.372,51 22,45.627 22,39" id="Stroke-6" stroke="#FFFFFF" sketch:type="MSShapeGroup"></path>
            <path d="M60,92.4994555 C60,93.8804182 48.3594378,95 34,95 C19.6405622,95 8,93.8804182 8,92.4994555 C8,91.1184927 19.6405622,90 34,90 C48.3594378,90 60,91.1184927 60,92.4994555" id="Fill-7" fill="#A2DBF4" sketch:type="MSShapeGroup"></path>
        </g>
    </g>
</svg>