<svg xmlns="http://www.w3.org/2000/svg" width="127" height="114" viewBox="0 0 127 114"><g fill="none" fill-rule="evenodd"><path fill="#A2DBF4" d="M102 111.5c0 1.38-17.237 2.5-38.5 2.5S25 112.88 25 111.5s17.237-2.5 38.5-2.5 38.5 1.12 38.5 2.5"/><path fill="#FFF" d="M105 83a4 4 0 0 1-4 4H21a4 4 0 0 1-4-4V36h88v47"/><path fill="#6DD0F2" d="M105 36H17v-9a4 4 0 0 1 4-4h80a4 4 0 0 1 4 4v9"/><path fill="#FFF" d="M27.193 29.7a2.182 2.182 0 1 1-4.364 0 2.182 2.182 0 0 1 4.363 0M34.15 29.7a2.182 2.182 0 1 1-4.363 0 2.182 2.182 0 0 1 4.364 0"/><path fill="#3899EC" d="M99 8l6.13-1.87L107 0l1.87 6.13L115 8l-6.13 1.87L107 16l-1.87-6.13L99 8M115.5 21l4.214-1.286L121 15.5l1.286 4.214L126.5 21l-4.214 1.286L121 26.5l-1.286-4.214L115.5 21M112 36l3.065-.935L116 32l.936 3.065L120 36l-3.064.936L116 40l-.935-3.064L112 36M41 75.92c0 11.323-9.178 20.5-20.5 20.5S0 87.244 0 75.92c0-11.32 9.178-20.5 20.5-20.5S41 64.6 41 75.92"/><path fill="#D1EDFF" d="M22.556 69.002c-.007-.014.037-.153.076-.14.024.008.015.02.046.023.03.003.048-.033.08-.027.05.008.083.054.135.056.04 0 .062-.038.1-.042.028-.002.052.015.08.01.03-.007.05-.026.075-.04.048-.03.042-.004.098-.01.017-.002.032-.012.05-.015h.01c.024.002.034.017.03.047-.013.064-.065.112-.074.178-.005.042.05.066.036.112-.035.116-.068.122-.09.125a.1.1 0 0 1-.068-.012c-.04-.02-.066-.055-.104-.078-.02-.012-.043-.015-.064-.024-.065-.028-.254-.158-.313-.154-.02 0-.04.017-.06.015H22.6a.05.05 0 0 1-.042-.025zm-3.94-5.626l-.012.018a.025.025 0 0 0 .01.033.025.025 0 0 0 .034-.005l.04-.048a.094.094 0 0 1 .047-.037l.057-.022a.025.025 0 0 1 .022.004c.006.004.01.01.01.02-.003.043.012.092-.033.127-.024.02-.044.035-.06.05a.04.04 0 0 0-.01.05c.01.017.03.026.05.02v.002c.003 0 .004.002.004.004.013.053.015.053.085.01h.006s.002 0 .002.002c.01.02.025.033.044.042a.1.1 0 0 1 .052.066v.006l.002.005a.202.202 0 0 1-.256.254.028.028 0 0 0-.032.01.03.03 0 0 0 0 .035c.008.01.017.017.016.03 0 .044-.058.027-.075.057h-.002l-.002.01c0 .004.002.01.006.014s.01.006.016.004c.026-.005.047-.027.075-.03.052-.003.012.127-.005.146a.636.636 0 0 1-.192.074c-.026.004-.044.006-.053.016-.008.01-.013.064.023.082.057.026.11-.023.164-.008.053.013.1.042.138.08a.02.02 0 0 0 .01.008c.02.007.04.007.057 0l.013-.008a.066.066 0 0 1 .046-.018c.012 0 .023.007.027.018a.03.03 0 0 1-.01.032c-.04.03-.08.058-.138.052a.406.406 0 0 0-.338.118 2.18 2.18 0 0 0-.068.068.032.032 0 0 0-.002.044.03.03 0 0 0 .042.007c.01-.005.02.077.032.07.04-.025.114.11.153.11h.003c.006 0 .012-.087.017-.09.054-.04.08-.16.16-.167.056-.004.097.028.155.016.064-.014.117-.074.187-.07a.665.665 0 0 1 .103.018c.02.012.02.01.124.01.043.002.075.036.116.043.05.008.097-.022.147-.018.002 0 .15-.03.15-.09 0-.002-.002-.003-.003-.004h-.002a.196.196 0 0 1-.094-.146c0-.005.002-.01.006-.01.005-.002.01 0 .015.002l.01.007c.015.012.025.013.03.01.037-.027.075-.05.113-.072.02-.012.033-.146.045-.19.003-.015.016-.248-.074-.248h-.003a.976.976 0 0 0-.223.046c-.032.017-.032.072-.09.042-.003-.01 0 .01.008.005.066-.052.066-.04.065-.053-.003-.032-.287-.048-.306-.07-.015-.018-.27-.04-.27-.062 0-.016.214-.158.213-.16-.005-.004.127-.006.118-.006-.028.002.01.13-.018.13 0 0 .06.128.052.128H18v-.136c0-.035.655-.12.652-.153-.003-.032.346-.095.35-.127.002-.03.17-.078.16-.11-.034-.115.057-.245.098-.355.017-.046.083-.094.112-.134.066-.092-.21-.082-.266-.08-.005.002 0 0 0-.005-.003-.005.002-.01.005-.014.015-.022.02-.05.04-.07.027-.025.066-.034.097-.052.068-.043.012-.07-.013-.076a.72.72 0 0 0-.184-.024.196.196 0 0 0-.07.012.152.152 0 0 0-.053.05.686.686 0 0 1-.14.145.046.046 0 0 1-.047.007.037.037 0 0 0-.03 0l-.002.002a.1.1 0 0 0-.04.037.047.047 0 0 0 .005.058.05.05 0 0 0 .058.01.03.03 0 0 1 0 .02c-.01.025-.014.052-.024.076 0 .004-.003.006-.003.006-.008 0-.013-.032-.015-.036-.013-.02-.02-.05-.027-.05-.037 0-.062.122-.06.146 0 .01.002.03.006.034.046.05.05.142.01.196zm8.602 2.802c0-.055.09-.054.1-.12a.082.082 0 0 0-.036-.08c-.032-.023-.047-.016-.087.002a.195.195 0 0 1-.08.023.05.05 0 0 1-.05-.04.052.052 0 0 1 .026-.053.015.015 0 0 0 .007-.02.023.023 0 0 0-.013-.01 1.652 1.652 0 0 0-.16-.03.625.625 0 0 0-.248.02c-.066.017-.07.028-.085.072-.04.113-.056.16-.07.18-.056.072-.096-.07-.118.02-.008.033-.025-.142-.065-.142h-.004s-.023.43-.02.45c.002.048-.59.204-.607.253-.014.042-.706.144-.706.185v.002c0 .07.624.175.64.245.003.006.31-.06.304-.058-.006.003.33-.077.33-.077h-.022c-.03 0-.052-.03-.06-.018-.005.01-.01.018-.002.018h-.002l-.22.205c.086.12-.968.255.032.312v.022c0 .03.448-.008.522 0 .08.01.314 0 .395 0 .028 0-.45-.005-.416-.02.03-.013-.5-.03-.5-.055v-.006c0-.022.617-.024.707-.096.065-.052.45-.08.517-.13.11-.088.406-.172.527-.21.03-.007.56-.024.584-.024h.002c.11 0 .41.22.48.24.03.008.074.104.116.103.002 0 .006.04.008.04.06-.03.097-.1.18-.06.142.073.545.02.447-.313-.053-.18-.292-.274-.364-.3-.216-.078-.358-.26-.548-.378-.084-.052-.183-.004-.27-.04-.195-.077-.195-.076-.205-.132 0-.004-.65-.008-.646-.013.052-.074-.534-.155-.534-.242v-.002c0-.03.67-.047.638-.07-.045-.027.194 0 .186-.073-.007-.058.28-.123.333-.153.043-.025.143-.058.15-.078.012-.034.013.142-.005.144-.06.007-.18.326-.204.326h-.003c-.007 0-1.095-.434-1.095-.43v.106l.696.324h-.002c-.067 0-.103.024-.097.106.006.083-.338.104-.265.143.03.016-.332-.002-.332.03v-.014c0 .016.18.204.157.207-.055.006.122-.024.118-.032-.002-.003.094-.008.093-.012-.032-.092-.057-.17-.162-.2-.022-.007.013-.028.012-.05zm11.53 9.835c0-1.894-.324-3.808-.656-4.82a1.115 1.115 0 0 0-1.605-.622c-.733.416-.71.468-.966.455-.116-.006-.64.344-.83-.057-.035-.075-.22-.415-.476.053-.07.13-.448.033-.573-.037-.368-.206-.822-.687-.934-.808-.127-.146-.492.054-.224.452.897 1.338 1.055 1.35 1.31 1.483.12-.09-.534-.118-.378-.14.096-.014-.414-.074-.414-.162v-.002c0-.1.78-.174.89-.196.11-.023.542.007.627.08 0 0 .16 0 .162.002.154.134.434.01.6.09.418.196.298.668.215 1.142l.04.076h-.006c-.04 0-.076-.05-.077-.01 0 .15.095.254.066.407-.003.006-.006-.008-.01-.005a.45.45 0 0 0-.135.09c-.12.127-.128.284-.232.427-.097.136.008.437-.227.44-.09 0-.39.17-.435.368a1.11 1.11 0 0 1-.365.595c-.135.114-.318.26-.57.46-.12.092-.607.617-1.026.715a.15.15 0 0 1-.154-.056l-.006-.01c-.275-.427-.333-.94-.55-1.392-.256-.534-.95-.675-1.142-1.267-.162-.5-.23-.71-.458-.84a1.106 1.106 0 0 1-.39-.368c-.16-.25-.404-.608-.603-.8a.58.58 0 0 1-.172-.325c-.01-.056-.09-.052-.094.005-.01.2.026.26-.03.303-.046.035-.774.016-.815-.026-.142-.147-1.105-.414-1.105-.563 0 .06.667.12.7.17.31.44 2.147 2.608 2.185 2.814.25 1.365 1.475 1.692 2.015 2.195.1.094.252.216.278.348.025.126.127.235.22.32.1.093.22.08.784.01.094-.012.165-.08.23-.138.055-.052.518-.213.578-.25.123-.08-.028-.034.256-.168.11-.054.243-.388.22-.01-.004.1.05.187.04.285-.058.576-.106.672-.14.783-.043.147-.1.29-.137.44-.174.704-.447 1.457-.922 2.014-.01.012-.02.022-.032.033-.263.243-.74.693-1.13 1.457-.247.48-.594.898-.85 1.37-.087.162-.108.202-.032.418.055.154.218.867.243 1.78.027.997-.134 1.16-.453 1.39-.51.37-.86.624-1.098.8-.28.208-.448.534-.452.882 0 .128-.032.29-.12.485.02.035-.657.374-.89.65v.02c.16.493-1.837 1.924-2.252 1.92-.3 0-1.035.116-1.386.266-.237.1-.876-.116-.923-.252-.007-.02-.01-.058.007-.072.157-.13-.37-.892-.497-.98-.08-.055-.234-.41-.296-.5-.193-.272.138-.656-.077-.927l-.033-.044-.622-.868c-.097-.135-.372-.294-.373-.46-.002-.182.322-1.056.348-1.093.03-.043.057-.09.08-.136.014-.026.038-.045.086-.07.158-.08.384-.28.125-.702-.013-.025-.013.086-.096-.5-.053-.384-.56-1.256-.645-1.347 0 0-.587-.28-.856-.832a.202.202 0 0 1 .06-.08c.25-.2-.513-.448-.44-.983.004-.027-.704-.054-.704-.08V81h1.473c.022 0 .036.013-.108-.205-.025-.038-.084.205-.13.205h-.004c-.08 0-1.23-.104-1.23-.183v-.003c0-.002.535-.002.534-.003-.116-.046.024-.052-.096-.017-.265.077-.693.192-.756-.172-.085-.487-.352-.594-.516-.583-.698.05-1.255.65-1.976.6-.032 0-.056-.017-.086-.028-.623-.236-1.286-.24-1.92-.362-.213-.042-.518-.146-.674-.3l-.885-.87a1.14 1.14 0 0 1-.152-.188c-.28-.432-.385-1.384-.46-1.554a.825.825 0 0 0-.036-.073l-.076-.145s0-.003-.002-.004a1.06 1.06 0 0 1-.173-.95l.35-1.165a1.107 1.107 0 0 0 .036-.165c.084-.58-.026-.79-.08-.895-.1-.194-.44-.194.06-.89.91-1.27-.09-1.156.91-1.23V72h.68c.396 0 1.146-.617 1.133-.88a.997.997 0 0 1 .134-.58c.057-.09.13-.216.212-.283l.566-.687c.15-.123-.726-.145.274-.038v-.005c0-.04.484-.037.59.01.142.062.357.018.4-.003.497-.238 1.1-.31 3.615-.47.085-.007.2.03.25.097l.018.003c.148.19.046.167.214.45.064.107.004.188-.197.39-.076.078-.06.2-.036.205.07.003.233.046.368.116.178.093.46.185.694.253.212.06.402.185.544.355.092.11 1.336.854 1.286-.157-.003-.07.066-.193.18-.287.406-.33.702.273.814.298.178.04.2.214.32.214h.006c.11 0 .162-.047.517-.07.613-.042 1.233-.034 1.845-.142a.585.585 0 0 0 .218-.123c.678-.56-.01-1.268.096-1.886 0-.003 0 .11-.002.108l-.003.112h-.002c-.21 0-.408-.025-.567.11-.057.05-.127.023-.224.034-.17.017-.956-.125-1.104-.18-.074-.03-.84-.023-.84.05v.003c0 .138-.05.28-.243-.043-.058-.1.555.026.45.026h-.026s-.006-.25-.004-.25c.19-.18-.106-.44-.14-.58-.015-.07.02-.202.085-.23l.003-.03c.16-.062-.315-.163-.347-.14-.067.05-.776.07-.776.076v-.004c0 .003.457-.01.418-.03-.093-.053.073-.08-.034-.08-.13 0-.124.06-.15.186-.005.024.112.082.092.082h.003a.137.137 0 0 1-.056-.018c-.033-.015-.064-.023-.09-.006-.026.02-.04-.154-.037-.114.01.11.31.138.067.138h-.002s-.104.256-.113.26c-.1.05-.23-.162-.318-.167-.028-.002-.056-.093-.084-.093h-.035c-.01 0-.103.104-.118.078-.036-.063-.04.028-.06.008-.015-.017-.712.01-.734-.004-.046-.034-.75-.062-.75-.12v.012c0-.045.66-.103.653-.172-.02-.156.237-.295.116-.393-.033-.026.095-.038.055-.036-.025 0 .033-.14.01-.156-.102-.068-.098-.218-.098-.218h.005l-.8-.45c-.047-.034-.102.018-.158.02-.047.004-.072-.006-.098-.045-.052-.08-.15-.098-.24-.07-.003 0-.006.01-.01.01a.108.108 0 0 0-.053.15c.017.03.035.063.055.092l.467.68c.078.113.207.18.343.18a.11.11 0 0 1 .11.096.09.09 0 0 0 .042.067c.223.128-.023.147.13.39.003 0-.53.004-.53.007v.003c0 .018.524.077.514.094-.016.03.19.044.174.028-.012-.01.122-.038.123-.067.002-.008.066-.02.062-.03-.023-.066-.328-.08-.39-.106-.086-.037-.482 0-.482.085v.003c0 .002.287.005.286.007-.037.097.17.126.203.142.05.025.203.062.18.175-.007.048-.024.03-.052.05 0 0 .036-.015-.057.172-.032.063.008.078-.074.12-.07.034-.098-.01-.107-.025-.03-.052.013-.098.012-.147 0-.022 0-.042.064-.07.092-.037-.005-.188-.06-.273v-.003c-.114-.195-.04-.037-.17-.16-.08-.073-.29-.2-.33-.25-.276-.342-.73-.504-.966-.885a.455.455 0 0 0-.39-.216c-.068.004-.394.19-.655.34-.247.14-.425-.193-.665-.098-.26.103-.106.442-.325.568-.25.143-.55.19-.77.392a.1.1 0 0 0-.02.033c-.07.157-.187.224-.195.263a.14.14 0 0 0 .004.09c.03.094 0 .196-.074.26-.05.043-.008.177-.052.2-.082.043-.17-.003-.254.02-.125.036-.13.198-.253.236-.16.047-.314-.054-.474-.02-.36.08-.36.08-.374.113-.013.03-.042.078-.092.078-.187-.003-.118-.237-.207-.338-.095-.11-.122-.098-.165-.08-.06.025-.156.068-.187.05-.04-.025-.07-.062-.117-.075a.12.12 0 0 1-.074-.06c-.027-.054.04-.267.054-.33a.183.183 0 0 0-.006-.11.112.112 0 0 0-.1-.07.03.03 0 0 1-.023-.01c-.053-.06.162-.276.222-.387a.64.64 0 0 0 .026-.06c.183-.47.183-.63.146-.787a.113.113 0 0 1 .103-.14l.114-.006a.256.256 0 0 1 .308-.06c.142.07.425.174.908.197.117.005.234.03.343.072.103.038.19-.05.228-.1.09-.115.076-.258.095-.392.008-.07.048-.135.108-.174.016-.01.024-.086.02-.104-.004-.026-.025-.286-.05-.286h-.003c-.2 0-.136-.223-.267-.306-.112-.07-.107-.09-.383-.12-.04-.005.054-.184.214-.235.01-.004.02.004.028.008a.64.64 0 0 0 .32.072c.04-.002-.482-.022-.458-.056.025-.033-.54-.075-.54-.115v-.003c0-.042.586-.107.633-.076.092.062.42.1.578.077.04-.005.214-.035.223-.074.004-.018.086-.034.102-.043.18-.102.29-.147.327-.19.086-.097.203-.18.317-.242.162-.09.25-.15.405-.29a.552.552 0 0 1 .24-.124c.026-.006.046-.032.04-.06 0-.004.003-.01.006-.014a.177.177 0 0 1 .124-.067c.114-.01.18-.01.23-.01v-.003a.17.17 0 0 1 .13-.057c.12.003.276.056.25-.27-.037-.292.06-.803.264-.803h.002c.09 0 .07.135.086.234a.2.2 0 0 1-.048.166s-.516 0-.517.002c-.39.432-.39.42-.39.53v.002c0 .018.527.035.543.045.016.01.293.01.31.005.017-.006.53-.167.546-.157.072.046.08.07.14.123l.033.002c.088.08.23.097.336.04.22-.116.483-.38.73-.336.12.023.43.344.375-.656-.035 0-.04.02-.018-.08.014-.065-.012.013.06-.035.037-.025.084.028.124.046.053.024-.623.054-.57.03.07-.03-.61-.068-.61-.145v-.002c0-.015.73-.03.716-.038-.067-.042.264-.12.274-.198.01-.088.262-.158.35-.174.254-.047.392.097.634-.12a.422.422 0 0 0 .062-.148c-.005-.02.018-.135 0-.135h.003c-.202 0-1.012.067-1.205.135l-.835.022V62v.158c0 .025.515.116.468.112-.162-.013.035-.13-.028-.3-.074-.197.1-.4.217-.577.058-.088.16-.19.226-.273.026-.033.074-.072.064-.114-.026-.117-.21-.167-.325-.142-.227.05-.066.324-.156.466-.053.082-.267.14-.286.252-.048.286-.104.436-.085.536.04.212-.095.43-.095.63v.005c0 .17.102.35.013.52-.104.197-.328.04-.384.28-.024.1-.212-.05-.28-.116-.006-.196-.077-.286-.132-.44a.414.414 0 0 0-.27-.257c-.336-.1-.404.228-.7.137a.596.596 0 0 1-.057-1.12h.002c.786-.33.933-.546.985-.732.012-.042.045-.025.087-.025H21v-.063c0-.042.663-.112.694-.14.08-.076.104-.19.177-.274.08-.09.13-.238.13-.238v-.004s.755-.4 1.185-.536c.2-.062.52.07.567.08.05.01.335.176.45.176h-.02s-.005-.052.02-.02c.054.072.228-.012.443.088.25.115.546.048.815.104.11.023.183.11.17.22a.21.21 0 0 1-.22.184.176.176 0 0 0-.176.114.18.18 0 0 0 .057.2c.098.077.207.136.322.177.136.048.356.082.26-.024a.185.185 0 0 0-.134-.06c-.186 0-.127-.172-.027-.127.112.05.422.084.207-.123a.07.07 0 0 1-.007-.096.584.584 0 0 0 .086-.15c.044-.113.036-.076.182-.032a.08.08 0 0 0 .07-.01c.042-.03.097-.052.058-.083-.035-.026.035-.085.06-.077.042.015.09 0 .117-.034a.107.107 0 0 0 .02-.095c-.026-.083.043-.31.163-.354a.14.14 0 0 1 .09-.002.263.263 0 0 1 .086-.053c.053-.02.144.155.21.1.064-.057.154.155.24.155.027 0 .027-.288 0-.316-.052-.05-.223-.245-.198-.31.01-.023.115-.102.13-.193.01-.06-.026-.148-.084-.17a18.21 18.21 0 0 0-5.67-1.245 9.444 9.444 0 0 0-1.063.747c-1.206 1-3.11 1.41-3.067 1.298-.182.002-.23.064-.23.064-.06.016-.112.126-.162.126 0 0-.01-.16-.03-.173-.063-.043-.188 0-.49.154l-.003-.026c-.005.003-.01-.008-.016-.005a.812.812 0 0 1-.368.076.578.578 0 0 0-.202.037c-.01.004-.02 0-.026-.01-.023-.036.088-.077.127-.092.037-.013.02-.054-.13.032a.14.14 0 0 1-.11.014c-.15-.038-.33.083-.45.183-.02.014-.044.023-.073.01-.042-.017-.08-.01-.066.054.015.07-.384.246-.39.216a.047.047 0 0 0-.054-.03.238.238 0 0 0-.15.12c-.063.12-.237.14-.322.21a1.646 1.646 0 0 1-.217.146c-.048.055-.08.086-.13.088-.05.002-.08-.085-.057-.118.013-.02.11-.114.085-.12a.03.03 0 0 1-.02-.016c-.018-.03.057-.064.038-.102-.013-.026-.157-.034-.17-.047-.007-.01-.98-.022-.975-.034.09-.182-.748-.194-.748-.314 0-.02.958-.046.97-.065.07-.1.78-.396 1.043-.432.07-.01.267-.024.267-.024-.065-.025-.028-.044.02-.096.094-.1.298-.237.458-.316a1.43 1.43 0 0 0 .245-.15c.065-.053.312-.168.55-.168h.002c.2 0-.555-.36-.555-.366v.004c0-.015.65-.066.645-.093-.002-.012.325-.022.335-.027.05-.027.272-.037.325-.06.007-.004.092-.01.094-.018 0-.02.018-.033 0-.025-.11.04-.135.057-.16.064-.014.003-.02-.003-.025-.015-.007-.013 0-.028.01-.038.126-.107.297-.11.444-.16.064-.023-.79-.16-.924-.137-.662.11-1.746.306-2.746.514 0 .02-.05.082-.067.098-.008.008.067.02.067.032v.002s.79.01.784.015c-.025.02.318 0 .304.027-.017.032.238.065.25.087.007.017.196.096.183.096h.003c-.02 0-.117.018-.132 0-.013-.017-.015-.054-.035-.042a.413.413 0 0 1-.154.07c-.14.023-.32.093-.32.093a.597.597 0 0 0 .1-.107c.038-.078.08-.104.127-.117.034-.01.04-.057-.113 0a1.1 1.1 0 0 0-.37.232c-.09.084-.194.175-.27.215.014-.025.004-.03-.007-.026-.008.005-.08.07-.11.062-.09-.025.028-.077.028-.167a.182.182 0 0 1 .035-.038.79.79 0 0 0-.273.193c-.06.067-.112.146-.177.08a.107.107 0 0 0-.12-.02c-.252.12-.5.242-.747.37a.444.444 0 0 0-.073.05.093.093 0 0 0-.03.057c-.005.026-.05.084-.066.112a.036.036 0 0 0 0 .04c.023.035.098.01.137-.004a.128.128 0 0 1 .15.056c.03.048.022.112-.018.153a1.102 1.102 0 0 0-.095.11c-.06.08-.117.165-.204.22-.053.033-.103.04-.15.083-.473.425-.49 1.324-.838 1.324h-.002c-.267 0-.36.047-.68.166-.064.024-.533.022-.592.006-.05-.013-.52-.042-.52-.09v.004c0-.18.14-.215-.04-.145-.03.013.35.06.316.06H8v-.05c0 .016-.486.11-.46.164 0 0 1.46-.214.46.143v-.006c0 .008.644.022.633.046-.016.034.31-.105.254-.092-.063.014.167-.204.12-.204h.022c-.035 0-.037.244-.024.267.017.03.11.107.02.163a.373.373 0 0 0-.146.146c-.028.07-.06.154-.102.215-.043.066.05.096-.022.155-.087.07-.387.007-.49.027 0 0-.182.02-.29.058-.11.038-.305.088-.413.218-.186.225-.17.273-.386.212a.037.037 0 0 0-.035.01 18.256 18.256 0 0 0-4.54 8.543v.01c-.05.207-.103.46-.184.938v.034c.012.053.023.067.09.067.16 0 .3.115.328.273a.115.115 0 0 0 .072.092.116.116 0 0 0 .115-.015c.024-.017.16.103.17.25.005.078.035.168.05.246a.318.318 0 0 1-.067.265.05.05 0 0 0-.01.042c.078.3.427 1.58.5 1.648a.102.102 0 0 1 .097.03c.704.795 1.5 2.09 1.476 2.496-.16.298-.143.282-.01.443.244.3.24.315.147.625a.297.297 0 0 1 .507 0c.04.065.08.13.136.18.145.13.22.32.202.514 0 0 .223.002.532.234.392.294 1.774 1.877 1.828 2.31.024.194-.055.383-.154.55-.114.194-.483.595-.546.81-.03.108-.202.157-.2.22 0 .09.028.272.154.632.037.107.124.897.08 1.216a.878.878 0 0 0 .022.426c.015.064-.146.247-.257.168-.138-.1-.253-.085-.268-.056-.192.315-.882.37-.73.706.047.1.093.198.132.3.047.117.072.244.076.37.002.056.193.46.345.618a18.236 18.236 0 0 0 13.22 5.653c10.104 0 18.294-8.19 18.294-18.294zM17.753 64.355c.076-.033.147-.078.227-.1h.002c.11-.03.208 0 .24-.043a.976.976 0 0 0 .116-.178c.012-.03-.02-.072.02-.094.045-.024.006-.07.017-.106.03-.09.052-.093.088-.1.035-.004.068-.008.08-.027.058-.085-.145-.33-.273-.296-.13.035-.237.227-.282.225-.055-.003-.08-.005-.12.024-.028.022-.03.058-.053.085-.025.033-.058.058-.084.09-.02.026-.028.05.002.077.022.02.035.03-.03.116-.055.07-.145.106-.183.192a.283.283 0 0 0-.008.118c.017.09.156.053.24.017z"/><path fill="#3899EC" d="M83.322 54L80.8 64h-.032l-2.71-10h-1.316L74.05 64h-.032L71.51 54h-1.69l-2.524 10h-.03l-2.71-10H63.24l-2.694 10h-.03l-2.508-10h-1.69l-2.524 10h-.03l-2.71-10h-1.316l-2.694 10h-.03l-2.51-10h-1.13l3.067 12h1.146l2.787-11h.03l2.803 11h1.115l2.804-10.91L59.944 66h1.144l2.787-11h.03l2.803 11h1.115l2.804-10.91L73.445 66h1.146l2.787-11h.03l2.803 11h1.115l3.05-12h-1.053"/></g></svg>