<?xml version="1.0" encoding="utf-8"?><!DOCTYPE svg PUBLIC "-//W3C//DTD SVG 1.1//EN" "http://www.w3.org/Graphics/SVG/1.1/DTD/svg11.dtd"><svg version="1.1" baseProfile="full"     xmlns="http://www.w3.org/2000/svg"     xmlns:xlink="http://www.w3.org/1999/xlink"     xmlns:ev="http://www.w3.org/2001/xml-events"     height="35px" width="172px" viewBox="0 0 172 35">    <path fill="rgb( 252, 186, 213 )"          d="M25,27 C25,27 40,27 40,27 C40,27 40,31 40,31 C40,31 25,33 25,33 C25,33 25,27 25,27 Z "/>    <path fill="rgb( 252, 186, 213 )"          d="M139,13 C139,13 147,0 147,0 C147,0 152,3 152,3 C152,3 144,15 144,15 C144,15 139,13 139,13 Z "/>    <path fill="rgb( 255, 239, 225 )"          d="M38,3 C38,3 41,13 41,13 C41,13 38,14 38,14 C38,14 32,5 32,5 C32,5 38,3 38,3 Z "/>    <path fill="rgb( 154, 249, 245 )"          d="M3,6 C3,6 14,15 14,15 C14,15 12,20 12,20 C12,20 0,11 0,11 C0,11 3,6 3,6 Z "/>    <path fill="rgb( 255, 239, 225 )"          d="M160,32 C160,32 146,35 146,35 C146,35 146,32 146,32 C146,32 159,26 159,26 C159,26 160,32 160,32 Z "/>    <path fill="rgb( 154, 249, 245 )"          d="M167,9 C167,9 172,23 172,23 C172,23 169,23 169,23 C169,23 161,12 161,12 C161,12 167,9 167,9 Z "/>    <path fill="rgb( 154, 249, 245 )"          d="M9,29 C10.105,29 11,29.895 11,31 C11,32.105 10.105,33 9,33 C7.895,33 7,32.105 7,31 C7,29.895 7.895,29 9,29 Z "/>    <path fill="rgb( 255, 239, 225 )"          d="M154,15 C155.105,15 156,15.895 156,17 C156,18.105 155.105,19 154,19 C152.895,19 152,18.105 152,17 C152,15.895 152.895,15 154,15 Z "/>    <path fill="rgb( 255, 239, 225 )"          d="M28.5,18 C29.328,18 30,18.672 30,19.5 C30,20.328 29.328,21 28.5,21 C27.672,21 27,20.328 27,19.5 C27,18.672 27.672,18 28.5,18 Z "/>    <path fill="rgb( 255, 239, 225 )"          d="M139.5,20 C140.328,20 141,20.672 141,21.5 C141,22.328 140.328,23 139.5,23 C138.672,23 138,22.328 138,21.5 C138,20.672 138.672,20 139.5,20 Z "/></svg>