<svg xmlns="http://www.w3.org/2000/svg" width="172" height="35" baseProfile="full" viewBox="0 0 172 35"><path fill="#FCBAD5" d="M25 27h15v4l-15 2v-6zM139 13l8-13 5 3-8 12-5-2z"/><path fill="#FFEFE1" d="M38 3l3 10-3 1-6-9 6-2z"/><path fill="#9AF9F5" d="M3 6l11 9-2 5-12-9 3-5z"/><path fill="#FFEFE1" d="M160 32l-14 3v-3l13-6 1 6z"/><path fill="#9AF9F5" d="M167 9l5 14h-3l-8-11 6-3zM9 29a2 2 0 1 1 0 4 2 2 0 0 1 0-4z"/><path fill="#FFEFE1" d="M154 15a2 2 0 1 1 0 4 2 2 0 0 1 0-4zM28.5 18a1.5 1.5 0 1 1 0 3 1.5 1.5 0 0 1 0-3zM139.5 20a1.5 1.5 0 1 1 0 3 1.5 1.5 0 0 1 0-3z"/></svg>