<?xml version="1.0" encoding="UTF-8" standalone="no"?>
<svg width="16px" height="17px" viewBox="0 0 16 17" version="1.1" xmlns="http://www.w3.org/2000/svg">
    <g stroke="none" stroke-width="1" fill="none" fill-rule="evenodd">
        <g transform="translate(-4.000000, -2.000000)" fill="#3197EF">
            <g transform="translate(4.000000, 2.000000)">
                <g>
                    <path d="M14.895,1.60625 C13.42,0.13125 11.021,0.13125 9.546,1.60625 L7.894,3.25825 C7.558,3.59525 7.558,4.14125 7.894,4.47825 C8.231,4.81425 8.777,4.81425 9.114,4.47825 L10.765,2.82525 C11.568,2.02325 12.873,2.02325 13.675,2.82525 C14.477,3.62725 14.477,4.93325 13.675,5.73525 L10.347,9.06425 C9.544,9.86725 8.239,9.86725 7.437,9.06425 C7.099,8.72725 6.553,8.72825 6.217,9.06425 C5.88,9.40125 5.88,9.94725 6.217,10.28425 C6.955,11.02125 7.923,11.38925 8.892,11.38925 C9.86,11.38925 10.829,11.02125 11.566,10.28425 L14.895,6.95525 C16.369,5.48025 16.369,3.08125 14.895,1.60625 L14.895,1.60625 L14.895,1.60625 Z M6.89,12.52225 L5.238,14.17425 C4.436,14.97625 3.131,14.97725 2.328,14.17425 C1.526,13.37225 1.526,12.06625 2.328,11.26425 L5.657,7.93525 C6.459,7.13225 7.764,7.13325 8.566,7.93525 C8.903,8.27125 9.449,8.27125 9.786,7.93525 C10.122,7.59825 10.122,7.05225 9.786,6.71525 C8.311,5.24125 5.912,5.23925 4.437,6.71525 L1.109,10.04425 C0.394,10.75925 0,11.70825 0,12.71925 C0,13.72925 0.394,14.67925 1.109,15.39425 C1.846,16.13125 2.814,16.50025 3.783,16.50025 C4.751,16.50025 5.719,16.13125 6.457,15.39425 L8.109,13.74125 C8.446,13.40525 8.446,12.85925 8.109,12.52225 C7.772,12.18525 7.227,12.18525 6.89,12.52225 L6.89,12.52225 L6.89,12.52225 Z"></path>
                </g>
            </g>
        </g>
    </g>
</svg>