<?xml version="1.0" encoding="utf-8"?>
<svg xmlns="http://www.w3.org/2000/svg"
	xmlns:xlink="http://www.w3.org/1999/xlink"
	width="17px" height="17px" viewBox="0 0 17 17">
<path fill="rgb(129,153,171)" fill-rule="evenodd" d="M 11.63 15C 11.63 15 5.62 15 5.62 15 4.52 15 3.63 14.1 3.63 13 3.63 13 3.63 12 3.63 12 3.63 12 3.63 11 3.63 11 3.63 11 3.63 4 3.63 4 3.63 2.9 4.52 2 5.62 2 5.62 2 11.63 2 11.63 2 12.73 2 13.63 2.9 13.63 4 13.63 4 13.63 11 13.63 11 13.63 11 13.63 12 13.63 12 13.63 12 13.63 13 13.63 13 13.63 14.1 12.73 15 11.63 15ZM 11.63 4C 11.63 4 5.62 4 5.62 4 5.62 4 5.62 11 5.62 11 5.62 11 11.63 11 11.63 11 11.63 11 11.63 4 11.63 4ZM 7.63 14C 7.63 14 9.63 14 9.63 14 9.9 14 10.13 13.78 10.13 13.5 10.13 13.22 9.9 13 9.63 13 9.63 13 7.63 13 7.63 13 7.35 13 7.12 13.22 7.12 13.5 7.12 13.78 7.35 14 7.63 14Z"/>
<path fill="rgb(207,65,125)" fill-rule="evenodd" d="M 0.35 0.42C 0.35 0.42 0.9-0.42 0.9-0.42 0.9-0.42 16.9 15.58 16.9 15.58 16.9 15.58 16.35 16.42 16.35 16.42 16.35 16.42 0.35 0.42 0.35 0.42Z"/>
</svg>