<svg xmlns="http://www.w3.org/2000/svg" width="16" height="17" viewBox="0 0 16 17"><path fill="#3197EF" fill-rule="evenodd" d="M14.895 1.606a3.786 3.786 0 0 0-5.35 0l-1.65 1.652a.864.864 0 0 0 0 1.22.864.864 0 0 0 1.22 0l1.65-1.653a2.06 2.06 0 0 1 2.91 0 2.06 2.06 0 0 1 0 2.91l-3.328 3.33a2.06 2.06 0 0 1-2.91 0 .863.863 0 0 0-1.22 1.22 3.772 3.772 0 0 0 2.675 1.104 3.77 3.77 0 0 0 2.674-1.106l3.33-3.33a3.788 3.788 0 0 0 0-5.348zM6.89 12.522l-1.652 1.652a2.06 2.06 0 0 1-2.91 0 2.06 2.06 0 0 1 0-2.91l3.33-3.33a2.058 2.058 0 0 1 2.908 0 .864.864 0 0 0 1.22 0 .864.864 0 0 0 0-1.22 3.786 3.786 0 0 0-5.35 0l-3.327 3.33A3.757 3.757 0 0 0 0 12.72c0 1.01.394 1.96 1.11 2.674A3.77 3.77 0 0 0 3.782 16.5c.968 0 1.936-.37 2.674-1.106L8.11 13.74a.86.86 0 1 0-1.22-1.218z"/></svg>