<?xml version="1.0" encoding="utf-8"?>
<svg xmlns="http://www.w3.org/2000/svg"
	xmlns:xlink="http://www.w3.org/1999/xlink"
	width="11px" height="13px" viewBox="0 0 11 13">
<path fill="rgb(129,153,171)" fill-rule="evenodd" d="M 8.32 13C 8.32 13 2.32 13 2.32 13 1.22 13 0.32 12.1 0.32 11 0.32 11 0.32 10 0.32 10 0.32 10 0.32 9 0.32 9 0.32 9 0.32 2 0.32 2 0.32 0.9 1.22 0 2.32 0 2.32 0 8.32 0 8.32 0 9.42 0 10.32 0.9 10.32 2 10.32 2 10.32 9 10.32 9 10.32 9 10.32 10 10.32 10 10.32 10 10.32 11 10.32 11 10.32 12.1 9.42 13 8.32 13ZM 8.32 2C 8.32 2 2.32 2 2.32 2 2.32 2 2.32 9 2.32 9 2.32 9 8.32 9 8.32 9 8.32 9 8.32 2 8.32 2ZM 4.32 12C 4.32 12 6.32 12 6.32 12 6.6 12 6.82 11.78 6.82 11.5 6.82 11.22 6.6 11 6.32 11 6.32 11 4.32 11 4.32 11 4.04 11 3.82 11.22 3.82 11.5 3.82 11.78 4.04 12 4.32 12Z"/>
</svg>