<?xml version="1.0" encoding="utf-8"?>
<svg xmlns="http://www.w3.org/2000/svg"
	xmlns:xlink="http://www.w3.org/1999/xlink"
	width="17px" height="26px" viewBox="0 0 17 26">
<path fill="rgb(21,44,60)" fill-rule="evenodd" d="M 11.5-0C 11.5-0 4.5-0 4.5-0 1.74-0-0.5 2.24-0.5 5-0.5 5-0.5 21-0.5 21-0.5 23.76 1.74 26 4.5 26 4.5 26 11.5 26 11.5 26 14.26 26 16.5 23.76 16.5 21 16.5 21 16.5 5 16.5 5 16.5 2.24 14.26-0 11.5-0ZM 8 23C 7.17 23 6.5 22.33 6.5 21.5 6.5 20.67 7.17 20 8 20 8.83 20 9.5 20.67 9.5 21.5 9.5 22.33 8.83 23 8 23ZM 12.5 17C 12.5 17 3.5 17 3.5 17 3.5 17 3.5 4 3.5 4 3.5 4 12.5 4 12.5 4 12.5 4 12.5 17 12.5 17Z"/>
</svg>