<?xml version="1.0" encoding="UTF-8" standalone="no"?>
<svg width="34px" height="34px" viewBox="0 0 34 34" version="1.1" xmlns="http://www.w3.org/2000/svg" xmlns:xlink="http://www.w3.org/1999/xlink" xmlns:sketch="http://www.bohemiancoding.com/sketch/ns">
    <!-- Generator: Sketch 3.3.2 (12043) - http://www.bohemiancoding.com/sketch -->
    <title>mobile_left_menu_action_bar</title>
    <desc>Created with Sketch.</desc>
    <defs></defs>
    <g id="Page-1" stroke="none" stroke-width="1" fill="none" fill-rule="evenodd" sketch:type="MSPage">
        <g id="mobile_left_menu_action_bar" sketch:type="MSArtboardGroup" fill="#2D4150">
            <path d="M25,8 L25,18 L10,18 L10,8 L8,8 L8,20 C8,23.314 10.686,26 14,26 L21,26 C24.314,26 27,23.314 27,20 L27,8 L25,8 L25,8 Z M17.5,23 C16.672,23 16,22.328 16,21.5 C16,20.672 16.672,20 17.5,20 C18.328,20 19,20.672 19,21.5 C19,22.328 18.328,23 17.5,23 L17.5,23 Z" id="Fill-1" sketch:type="MSShapeGroup"></path>
            <path d="M21.5,16 C20.672,16 20,15.328 20,14.5 C20,13.672 20.672,13 21.5,13 C22.328,13 23,13.672 23,14.5 C23,15.328 22.328,16 21.5,16" id="Fill-2" sketch:type="MSShapeGroup"></path>
            <path d="M17.5,16 C16.672,16 16,15.328 16,14.5 C16,13.672 16.672,13 17.5,13 C18.328,13 19,13.672 19,14.5 C19,15.328 18.328,16 17.5,16" id="Fill-3" sketch:type="MSShapeGroup"></path>
            <path d="M13.5,16 C12.672,16 12,15.328 12,14.5 C12,13.672 12.672,13 13.5,13 C14.328,13 15,13.672 15,14.5 C15,15.328 14.328,16 13.5,16" id="Fill-4" sketch:type="MSShapeGroup"></path>
        </g>
    </g>
</svg>