<?xml version="1.0" encoding="UTF-8" standalone="no"?>
<svg width="34px" height="34px" viewBox="0 0 34 34" version="1.1" xmlns="http://www.w3.org/2000/svg" xmlns:xlink="http://www.w3.org/1999/xlink" xmlns:sketch="http://www.bohemiancoding.com/sketch/ns">
    <!-- Generator: Sketch 3.3.2 (12043) - http://www.bohemiancoding.com/sketch -->
    <title>mobile_left_menu_mobile_view</title>
    <desc>Created with Sketch.</desc>
    <defs></defs>
    <g id="Page-1" stroke="none" stroke-width="1" fill="none" fill-rule="evenodd" sketch:type="MSPage">
        <g id="mobile_left_menu_mobile_view" sketch:type="MSArtboardGroup" fill="#2D4150">
            <path d="M20,4 L13,4 C10.239,4 8,6.239 8,9 L8,25 C8,27.761 10.239,30 13,30 L20,30 C22.761,30 25,27.761 25,25 L25,9 C25,6.239 22.761,4 20,4 L20,4 Z M16.5,27 C15.672,27 15,26.328 15,25.5 C15,24.672 15.672,24 16.5,24 C17.328,24 18,24.672 18,25.5 C18,26.328 17.328,27 16.5,27 L16.5,27 Z M12,8 L21,8 L21,21 L12,21 L12,8 Z" id="Imported-Layers" sketch:type="MSShapeGroup"></path>
        </g>
    </g>
</svg>