<?xml version="1.0" encoding="UTF-8" standalone="no"?>
<svg width="34px" height="34px" viewBox="0 0 34 34" version="1.1" xmlns="http://www.w3.org/2000/svg" xmlns:xlink="http://www.w3.org/1999/xlink" xmlns:sketch="http://www.bohemiancoding.com/sketch/ns">
    <!-- Generator: Sketch 3.3.2 (12043) - http://www.bohemiancoding.com/sketch -->
    <title>mobile_left_menu_back_to_top</title>
    <desc>Created with Sketch.</desc>
    <defs></defs>
    <g id="Page-1" stroke="none" stroke-width="1" fill="none" fill-rule="evenodd" sketch:type="MSPage">
        <g id="mobile_left_menu_back_to_top" sketch:type="MSArtboardGroup" fill="#2D4150">
            <path d="M28,11.7391304 C28,8.56921739 25.4307826,6 22.2608696,6 L11.7391304,6 C8.56921739,6 6,8.56921739 6,11.7391304 L6,22.2608696 C6,25.4307826 8.56921739,28 11.7391304,28 L22.2608696,28 C25.4307826,28 28,25.4307826 28,22.2608696 L28,11.7391304 L28,11.7391304 Z M20.7096319,18.7899806 C20.5389586,18.9308891 20.3247279,18.9999797 20.1113862,18.9999797 C19.8695989,18.9999797 19.6287006,18.9108892 19.4535826,18.7363444 L17.0730446,16.3599904 L14.5289446,18.7536171 C14.1875979,19.0736158 13.6249091,19.0836157 13.2720063,18.773617 C12.9182146,18.4645274 12.9084365,17.9536203 13.2488943,17.6336216 L17.1112683,14 L20.7683009,17.6508943 C21.0989806,17.9808929 21.0723129,18.4899818 20.7096319,18.7899806 L20.7096319,18.7899806 Z" id="Imported-Layers" sketch:type="MSShapeGroup"></path>
        </g>
    </g>
</svg>