<?xml version="1.0" encoding="utf-8"?><!DOCTYPE svg PUBLIC "-//W3C//DTD SVG 1.1//EN" "http://www.w3.org/Graphics/SVG/1.1/DTD/svg11.dtd"><svg version="1.1" baseProfile="full" xmlns="http://www.w3.org/2000/svg" xmlns:xlink="http://www.w3.org/1999/xlink" xmlns:ev="http://www.w3.org/2001/xml-events"   height="4px"   width="12px" viewBox="0 0 12 4"><path class="cls-b1" d="M9.99900000000002,3.00999999999999 C9.42099999999999,3.00999999999999 8.952,2.542 8.952,1.964 C8.952,1.38499999999999 9.42099999999999,0.917 9.99900000000002,0.917 C10.577,0.917 11.046,1.38499999999999 11.046,1.964 C11.046,2.542 10.577,3.00999999999999 9.99900000000002,3.00999999999999 ZM6.00099999999998,3.00999999999999 C5.423,3.00999999999999 4.95400000000001,2.542 4.95400000000001,1.964 C4.95400000000001,1.38499999999999 5.423,0.917 6.00099999999998,0.917 C6.57900000000001,0.917 7.048,1.38499999999999 7.048,1.964 C7.048,2.542 6.57900000000001,3.00999999999999 6.00099999999998,3.00999999999999 ZM1.95299999999997,2.96899999999999 C1.375,2.96899999999999 0.90600000000001,2.49299999999999 0.90600000000001,1.90600000000001 C0.90600000000001,1.31899999999999 1.375,0.84399999999999 1.95299999999997,0.84399999999999 C2.53100000000001,0.84399999999999 3,1.31899999999999 3,1.90600000000001 C3,2.49299999999999 2.53100000000001,2.96899999999999 1.95299999999997,2.96899999999999 Z "/></svg>