<?xml version="1.0" encoding="utf-8"?>
<svg xmlns="http://www.w3.org/2000/svg"
	xmlns:xlink="http://www.w3.org/1999/xlink"
	width="17px" height="5px" viewBox="0 0 17 5">
<path fill="rgb(65,83,97)" fill-rule="evenodd" d="M 14.81 4.38C 13.8 4.38 12.97 3.54 12.97 2.5 12.97 1.46 13.8 0.63 14.81 0.63 15.83 0.63 16.66 1.46 16.66 2.5 16.66 3.54 15.83 4.38 14.81 4.38ZM 8.67 4.38C 7.65 4.38 6.83 3.54 6.83 2.5 6.83 1.46 7.65 0.63 8.67 0.63 9.69 0.63 10.51 1.46 10.51 2.5 10.51 3.54 9.69 4.38 8.67 4.38ZM 2.53 4.38C 1.51 4.38 0.69 3.54 0.69 2.5 0.69 1.46 1.51 0.63 2.53 0.63 3.55 0.63 4.37 1.46 4.37 2.5 4.37 3.54 3.55 4.38 2.53 4.38Z"/>
</svg>