<svg xmlns="http://www.w3.org/2000/svg" width="22" height="22" preserveAspectRatio="xMidYMid" viewBox="0 0 22 22"><path fill-rule="evenodd" d="M20.48 4.78h-3.14V1.808c0-.866-.87-1.738-1.737-1.738H1.64C.774.07.07.942.07 1.808V15.77c0 .867.704 1.57 1.57 1.57h3.14v3.14c0 .867.704 1.57 1.57 1.57h14.13a1.57 1.57 0 0 0 1.57-1.57V6.35a1.57 1.57 0 0 0-1.57-1.57zm-.39 5.893l-9.42 9.42.39.388H7.13L20.48 7.13v3.933l-.39-.387zm.39 1.165v3.933l-.39-.387-4.71 4.71.39.388H11.84l8.643-8.642zM1.64 15.77V1.64h14.13v3.14H6.35a1.57 1.57 0 0 0-1.57 1.57v9.42H1.64zm4.71-4.71l.39.388 4.71-4.71-.39-.388h3.933L6.35 14.993V11.06zm0-.777V6.35h3.933L6.35 10.283zm0 5.488l.39.388 9.42-9.42-.39-.388h3.934L6.35 19.704V17.34v-1.57zm10.198 4.71l3.933-3.932v3.933H16.55z" class="cls-4"/></svg>