<svg xmlns="http://www.w3.org/2000/svg" xmlns:xlink="http://www.w3.org/1999/xlink" preserveAspectRatio="xMidYMid" width="22" height="22" viewBox="0 0 22 22">
    <path d="M20.481,4.780 C20.481,4.780 17.341,4.780 17.341,4.780 C17.341,4.780 17.341,1.808 17.341,1.808 C17.341,0.942 16.469,0.070 15.603,0.070 C15.603,0.070 1.640,0.070 1.640,0.070 C0.774,0.070 0.070,0.942 0.070,1.808 C0.070,1.808 0.070,15.771 0.070,15.771 C0.070,16.637 0.774,17.341 1.640,17.341 C1.640,17.341 4.780,17.341 4.780,17.341 C4.780,17.341 4.780,20.481 4.780,20.481 C4.780,21.347 5.484,22.051 6.350,22.051 C6.350,22.051 20.481,22.051 20.481,22.051 C21.347,22.051 22.051,21.347 22.051,20.481 C22.051,20.481 22.051,6.350 22.051,6.350 C22.051,5.484 21.347,4.780 20.481,4.780 ZM20.091,10.673 C20.091,10.673 10.671,20.093 10.671,20.093 C10.671,20.093 11.061,20.481 11.061,20.481 C11.061,20.481 7.128,20.481 7.128,20.481 C7.128,20.481 20.481,7.128 20.481,7.128 C20.481,7.128 20.481,11.061 20.481,11.061 C20.481,11.061 20.091,10.673 20.091,10.673 ZM20.481,11.838 C20.481,11.838 20.481,15.771 20.481,15.771 C20.481,15.771 20.091,15.383 20.091,15.383 C20.091,15.383 15.381,20.093 15.381,20.093 C15.381,20.093 15.771,20.481 15.771,20.481 C15.771,20.481 11.838,20.481 11.838,20.481 C11.838,20.481 20.481,11.838 20.481,11.838 ZM1.640,15.771 C1.640,15.771 1.640,1.640 1.640,1.640 C1.640,1.640 15.771,1.640 15.771,1.640 C15.771,1.640 15.771,4.780 15.771,4.780 C15.771,4.780 6.350,4.780 6.350,4.780 C5.484,4.780 4.780,5.484 4.780,6.350 C4.780,6.350 4.780,15.771 4.780,15.771 C4.780,15.771 1.640,15.771 1.640,15.771 ZM6.350,11.061 C6.350,11.061 6.740,11.448 6.740,11.448 C6.740,11.448 11.450,6.738 11.450,6.738 C11.450,6.738 11.061,6.350 11.061,6.350 C11.061,6.350 14.993,6.350 14.993,6.350 C14.993,6.350 6.350,14.993 6.350,14.993 C6.350,14.993 6.350,11.061 6.350,11.061 ZM6.350,10.283 C6.350,10.283 6.350,6.350 6.350,6.350 C6.350,6.350 10.283,6.350 10.283,6.350 C10.283,6.350 6.350,10.283 6.350,10.283 ZM6.350,15.771 C6.350,15.771 6.740,16.158 6.740,16.158 C6.740,16.158 16.160,6.738 16.160,6.738 C16.160,6.738 15.771,6.350 15.771,6.350 C15.771,6.350 17.341,6.350 17.341,6.350 C17.341,6.350 19.704,6.350 19.704,6.350 C19.704,6.350 6.350,19.704 6.350,19.704 C6.350,19.704 6.350,17.341 6.350,17.341 C6.350,17.341 6.350,15.771 6.350,15.771 ZM16.548,20.481 C16.548,20.481 20.481,16.548 20.481,16.548 C20.481,16.548 20.481,20.481 20.481,20.481 C20.481,20.481 16.548,20.481 16.548,20.481 Z" id="path-1" class="cls-4" fill-rule="evenodd"/>
</svg>
