<svg xmlns="http://www.w3.org/2000/svg" width="22" height="22" preserveAspectRatio="xMidYMid" viewBox="0 0 22 22"><path fill-rule="evenodd" d="M20.397 4.735h-3.132V1.77c0-.864-.87-1.733-1.734-1.733H1.604C.74.037.037.907.037 1.77V15.7c0 .865.702 1.567 1.566 1.567h3.132v3.132c0 .864.702 1.566 1.567 1.566h14.095c.864 0 1.566-.702 1.566-1.566V6.302c0-.865-.702-1.567-1.566-1.567zm-15.662 7.83l-.388-.386-2.744 2.743V11l.388.387 2.745-2.744v3.923zm0-6.263v1.566l-.388-.387-2.744 2.745V6.302l.388.386 4.7-4.698-.388-.387h3.923L7.48 4.35l.388.385H6.302c-.865 0-1.567.702-1.567 1.567zM11 1.602h3.923L12.178 4.35l.388.385H8.643l2.745-2.745L11 1.603zm4.698 3.133H13.34L15.7 2.378v2.357zM5.526 1.603L1.603 5.526V1.603h3.923zM2.378 15.698l2.357-2.357V15.7H2.378zm18.02 4.7H6.3v-3.133-1.567-9.396h14.095v14.095z" class="cls-4"/></svg>