<svg xmlns="http://www.w3.org/2000/svg" xmlns:xlink="http://www.w3.org/1999/xlink" preserveAspectRatio="xMidYMid" width="22" height="22" viewBox="0 0 22 22">
    <path d="M20.397,4.735 C20.397,4.735 17.265,4.735 17.265,4.735 C17.265,4.735 17.265,1.771 17.265,1.771 C17.265,0.906 16.395,0.037 15.531,0.037 C15.531,0.037 1.603,0.037 1.603,0.037 C0.739,0.037 0.037,0.906 0.037,1.771 C0.037,1.771 0.037,15.698 0.037,15.698 C0.037,16.563 0.739,17.265 1.603,17.265 C1.603,17.265 4.735,17.265 4.735,17.265 C4.735,17.265 4.735,20.397 4.735,20.397 C4.735,21.261 5.437,21.963 6.302,21.963 C6.302,21.963 20.397,21.963 20.397,21.963 C21.261,21.963 21.963,21.261 21.963,20.397 C21.963,20.397 21.963,6.302 21.963,6.302 C21.963,5.437 21.261,4.735 20.397,4.735 ZM4.735,12.566 C4.735,12.566 4.347,12.179 4.347,12.179 C4.347,12.179 1.603,14.923 1.603,14.923 C1.603,14.923 1.603,11.000 1.603,11.000 C1.603,11.000 1.991,11.387 1.991,11.387 C1.991,11.387 4.735,8.643 4.735,8.643 C4.735,8.643 4.735,12.566 4.735,12.566 ZM4.735,6.302 C4.735,6.302 4.735,7.868 4.735,7.868 C4.735,7.868 4.347,7.481 4.347,7.481 C4.347,7.481 1.603,10.225 1.603,10.225 C1.603,10.225 1.603,6.302 1.603,6.302 C1.603,6.302 1.991,6.688 1.991,6.688 C1.991,6.688 6.690,1.990 6.690,1.990 C6.690,1.990 6.302,1.603 6.302,1.603 C6.302,1.603 10.225,1.603 10.225,1.603 C10.225,1.603 7.479,4.349 7.479,4.349 C7.479,4.349 7.868,4.735 7.868,4.735 C7.868,4.735 6.302,4.735 6.302,4.735 C5.437,4.735 4.735,5.437 4.735,6.302 ZM11.000,1.603 C11.000,1.603 14.923,1.603 14.923,1.603 C14.923,1.603 12.178,4.349 12.178,4.349 C12.178,4.349 12.566,4.735 12.566,4.735 C12.566,4.735 8.643,4.735 8.643,4.735 C8.643,4.735 11.388,1.990 11.388,1.990 C11.388,1.990 11.000,1.603 11.000,1.603 ZM15.698,4.735 C15.698,4.735 13.341,4.735 13.341,4.735 C13.341,4.735 15.698,2.378 15.698,2.378 C15.698,2.378 15.698,4.735 15.698,4.735 ZM5.526,1.603 C5.526,1.603 1.603,5.526 1.603,5.526 C1.603,5.526 1.603,1.603 1.603,1.603 C1.603,1.603 5.526,1.603 5.526,1.603 ZM2.378,15.698 C2.378,15.698 4.735,13.341 4.735,13.341 C4.735,13.341 4.735,15.698 4.735,15.698 C4.735,15.698 2.378,15.698 2.378,15.698 ZM20.397,20.397 C20.397,20.397 6.302,20.397 6.302,20.397 C6.302,20.397 6.302,17.265 6.302,17.265 C6.302,17.265 6.302,15.698 6.302,15.698 C6.302,15.698 6.302,6.302 6.302,6.302 C6.302,6.302 15.698,6.302 15.698,6.302 C15.698,6.302 17.265,6.302 17.265,6.302 C17.265,6.302 20.397,6.302 20.397,6.302 C20.397,6.302 20.397,20.397 20.397,20.397 Z" id="path-1" class="cls-4" fill-rule="evenodd"/>
</svg>
