<?xml version="1.0" encoding="utf-8"?>
<svg xmlns="http://www.w3.org/2000/svg"
	xmlns:xlink="http://www.w3.org/1999/xlink"
	width="7px" height="8px" viewBox="0 0 7 8">
<path fill="rgb(21,45,61)" fill-rule="evenodd" d="M 6 5C 6 5 6 4 6 4 6 4 7 4 7 4 7 4 7 5 7 5 7 5 6 5 6 5ZM 5 6C 5 6 5 5 5 5 5 5 6 5 6 5 6 5 6 6 6 6 6 6 5 6 5 6ZM 4 7C 4 7 4 8 4 8 4 8 3 8 3 8 3 8 3 7 3 7 3 7 2 7 2 7 2 7 2 6 2 6 2 6 3 6 3 6 3 6 3 0 3 0 3 0 4 0 4 0 4 0 4 6 4 6 4 6 5 6 5 6 5 6 5 7 5 7 5 7 4 7 4 7ZM 1 5C 1 5 2 5 2 5 2 5 2 6 2 6 2 6 1 6 1 6 1 6 1 5 1 5ZM-0 4C-0 4 1 4 1 4 1 4 1 5 1 5 1 5-0 5-0 5-0 5-0 4-0 4Z"/>
</svg>