<svg xmlns="http://www.w3.org/2000/svg" width="28" height="28" viewBox="0 0 28 28"><path fill="#7FCCF7" d="M14 1c7.2 0 13 5.8 13 13s-5.8 13-13 13S1 21.2 1 14 6.8 1 14 1m0-1C6.3 0 0 6.3 0 14s6.3 14 14 14 14-6.3 14-14S21.7 0 14 0z"/><path fill="#4EB7F5" d="M15.9 14.8v-1.1H17v1.1h-1.1zm-1.1 1.1v-1.1h1.1v1.1h-1.1zM13.7 17v-1.1h1.1V17h-1.1zm-1 1v-1h1.1v1h-1.1zm-1.1 1.1V18h1.1v1.1h-1.1zm3.2-6.4h1.1v1.1h-1.1v-1.1zm-1.1-1.1h1.1v1.1h-1.1v-1.1zm-1-1.1h1.1v1.1h-1.1v-1.1zm-1.1-1.1h1.1v1.1h-1.1V9.4z"/></svg>