<svg version="1.1" xmlns="http://www.w3.org/2000/svg" xmlns:xlink="http://www.w3.org/1999/xlink" x="0px" y="0px" width="28px" height="28px" viewBox="0 0 28 28" >
  <g id="my-media-arrow-regular">
    <path fill="#7FCCF7" d="M14,1c7.2,0,13,5.8,13,13s-5.8,13-13,13S1,21.2,1,14S6.8,1,14,1 M14,0C6.3,0,0,6.3,0,14s6.3,14,14,14s14-6.3,14-14S21.7,0,14,0L14,0z"/>
    <path id="path-1" fill="#4EB7F5" d="M15.9,14.8v-1.1H17v1.1H15.9z M14.8,15.9v-1.1h1.1v1.1H14.8z M13.7,17v-1.1
      h1.1V17H13.7z M12.7,18V17h1.1V18H12.7z M11.6,19.1V18h1.1v1.1H11.6z M14.8,12.7h1.1v1.1h-1.1V12.7z M13.7,11.6h1.1v1.1h-1.1V11.6z
       M12.7,10.5h1.1v1.1h-1.1V10.5z M11.6,9.4h1.1v1.1h-1.1V9.4z"/>
  </g>
</svg>