<svg xmlns="http://www.w3.org/2000/svg" xmlns:xlink="http://www.w3.org/1999/xlink" version="1.1" x="0" y="0" width="205px" height="129px" viewBox="-409 320 205 129" enable-background="new -409 320 205 129" xml:space="preserve"><ellipse fill="#D3EDFF" cx="-306.7" cy="445.7" rx="61.9" ry="3"/><path fill="#D3EDFF" d="M-241.5 430.5h-131c-2.2 0-4-1.8-4-4v-99c0-2.2 1.8-4 4-4h131c2.2 0 4 1.8 4 4v99C-237.5 428.7-239.3 430.5-241.5 430.5z"/><defs><path d="M-241.5 430.5h-131c-2.2 0-4-1.8-4-4v-99c0-2.2 1.8-4 4-4h131c2.2 0 4 1.8 4 4v99C-237.5 428.7-239.3 430.5-241.5 430.5z"/></defs><clipPath><use xlink:href="#SVGID_1_" overflow="visible"/></clipPath><path fill="#7FCCF7" d="M-287.5 413.5h-42c-1.1 0-2-0.9-2-2v-58c0-1.1 0.9-2 2-2h42c1.1 0 2 0.9 2 2v58C-285.5 412.6-286.4 413.5-287.5 413.5z"/><path fill="#FFFFFF" d="M-284.5 416.5h-42c-1.1 0-2-0.9-2-2v-58c0-1.1 0.9-2 2-2h29.1l14.9 14v46C-282.5 415.6-283.4 416.5-284.5 416.5z"/><path fill="#A7E3FA" d="M-297.5 354.5v12c0 1.1 0.9 2 2 2h13"/><path fill="#2B81CB" d="M-307.2 399.2l-9-11.6c-0.5-0.7-0.4-1.6 0.3-2.1 0.7-0.5 1.6-0.4 2.1 0.3l6.3 8.1 11.1-18.1c0.4-0.7 1.4-0.9 2.1-0.5 0.7 0.4 0.9 1.4 0.5 2.1L-307.2 399.2z"/><polygon fill="#FFFFFF" points="-397 325 -393.2 323.8 -392.1 320 -390.9 323.8 -387.1 325 -390.9 326.2 -392.1 330 -393.2 326.2 "/><polygon fill="#FFFFFF" points="-391.3 359.8 -387.5 358.7 -386.3 354.8 -385.1 358.7 -381.4 359.8 -385.1 361 -386.3 364.8 -387.5 361 "/><polygon fill="#FFFFFF" points="-409 343.3 -402.6 341.3 -400.6 334.8 -398.6 341.3 -392.2 343.3 -398.6 345.3 -400.6 351.8 -402.6 345.3 "/><polygon fill="#FFFFFF" points="-214.9 388.4 -211.1 387.2 -210 383.4 -208.8 387.2 -205 388.4 -208.8 389.6 -210 393.4 -211.1 389.6 "/><polygon fill="#FFFFFF" points="-230.3 375.2 -225 373.5 -223.3 368.2 -221.7 373.5 -216.4 375.2 -221.7 376.8 -223.3 382.2 -225 376.8 "/><path fill="#5FCEF5" d="M-241.5 323.5h-131c-2.2 0-4 1.8-4 4v14h139v-14C-237.5 325.3-239.3 323.5-241.5 323.5z"/><ellipse fill="#FFFFFF" cx="-359.3" cy="332.5" rx="2.5" ry="2.5"/><ellipse fill="#FFFFFF" cx="-367.7" cy="332.5" rx="2.5" ry="2.5"/><path fill="#FFFFFF" d="M-247 335H-350c-1.4 0-2.5-1.1-2.5-2.5v0c0-1.4 1.1-2.5 2.5-2.5H-247c1.4 0 2.5 1.1 2.5 2.5v0C-244.5 333.9-245.6 335-247 335z"/></svg>