<svg xmlns="http://www.w3.org/2000/svg" width="205" height="129" viewBox="-409 320 205 129"><ellipse cx="-306.7" cy="445.7" fill="#D3EDFF" rx="61.9" ry="3"/><path fill="#D3EDFF" d="M-241.5 430.5h-131c-2.2 0-4-1.8-4-4v-99c0-2.2 1.8-4 4-4h131c2.2 0 4 1.8 4 4v99c0 2.2-1.8 4-4 4z"/><path fill="#7FCCF7" d="M-287.5 413.5h-42c-1.1 0-2-.9-2-2v-58c0-1.1.9-2 2-2h42c1.1 0 2 .9 2 2v58c0 1.1-.9 2-2 2z"/><path fill="#FFF" d="M-284.5 416.5h-42c-1.1 0-2-.9-2-2v-58c0-1.1.9-2 2-2h29.1l14.9 14v46c0 1.1-.9 2-2 2z"/><path fill="#A7E3FA" d="M-297.5 354.5v12c0 1.1.9 2 2 2h13"/><path fill="#2B81CB" d="M-307.2 399.2l-9-11.6c-.5-.7-.4-1.6.3-2.1s1.6-.4 2.1.3l6.3 8.1 11.1-18.1c.4-.7 1.4-.9 2.1-.5.7.4.9 1.4.5 2.1l-13.4 21.8z"/><path fill="#FFF" d="M-397 325l3.8-1.2 1.1-3.8 1.2 3.8 3.8 1.2-3.8 1.2-1.2 3.8-1.1-3.8zM-391.3 359.8l3.8-1.1 1.2-3.9 1.2 3.9 3.7 1.1-3.7 1.2-1.2 3.8-1.2-3.8zM-409 343.3l6.4-2 2-6.5 2 6.5 6.4 2-6.4 2-2 6.5-2-6.5zM-214.9 388.4l3.8-1.2 1.1-3.8 1.2 3.8 3.8 1.2-3.8 1.2-1.2 3.8-1.1-3.8zM-230.3 375.2l5.3-1.7 1.7-5.3 1.6 5.3 5.3 1.7-5.3 1.6-1.6 5.4-1.7-5.4z"/><path fill="#5FCEF5" d="M-241.5 323.5h-131c-2.2 0-4 1.8-4 4v14h139v-14c0-2.2-1.8-4-4-4z"/><ellipse cx="-359.3" cy="332.5" fill="#FFF" rx="2.5" ry="2.5"/><ellipse cx="-367.7" cy="332.5" fill="#FFF" rx="2.5" ry="2.5"/><path fill="#FFF" d="M-247 335h-103c-1.4 0-2.5-1.1-2.5-2.5s1.1-2.5 2.5-2.5h103c1.4 0 2.5 1.1 2.5 2.5s-1.1 2.5-2.5 2.5z"/></svg>