<svg width="173px" height="70px" viewBox="0 0 173 70" version="1.1" xmlns="http://www.w3.org/2000/svg" xmlns:xlink="http://www.w3.org/1999/xlink">
    <path class="plug-pin" d="M105,29 C105,27.895 104.105,27 103,27 L88,27 C86.895,27 86,27.895 86,29 C86,30.105 86.895,31 88,31 L103,31 C104.105,31 105,30.105 105,29"></path>
    <path class="plug-pin" d="M105,16.612 C105,15.507 104.105,14.612 103,14.612 L88,14.612 C86.895,14.612 86,15.507 86,16.612 C86,17.717 86.895,18.612 88,18.612 L103,18.612 C104.105,18.612 105,17.717 105,16.612"></path>
    <path class="wires" d="M128,23.47 C132.304,23.47 135,18.87 135,14.566 L135,8.545 C135,4.241 138.196,0.751 142.5,0.751 C146.804,0.751 150,4.241 150,8.545 L150,16.988 C150,20.37 153.653,24.612 157.035,24.612 L172,24.612 M43,23.805 C38.696,23.805 35,27.456 35,31.76 L35,37.781 C35,42.085 31.804,45.575 27.5,45.575 C23.196,45.575 20,42.085 20,37.781 L20,29.338 C20,25.956 18.847,23.612 15.465,23.612 L0,23.612"></path>
    <path class="plug-strip" d="M100,6 L106,6 L106,39 L100,39 L100,6 L100,6 Z"></path>
    <path class="plug-body" d="M106,10 L106,35 L114.5,35 C117.261,35 119,32.224 119,29.463 L119,14.463 C119,11.701 117.261,10 114.5,10 L106,10"></path>
    <path class="plug-body" d="M118,16 L129,16 L129,29 L118,29 L118,16 L118,16 Z"></path>
    <path class="white" d="M123.5,20 C124.881,20 126,21.119 126,22.5 C126,23.88 124.881,25 123.5,25 C122.119,25 121,23.88 121,22.5 C121,21.119 122.119,20 123.5,20"></path>
    <path class="plug-strip"  d="M65,6 L71,6 L71,39 L65,39 L65,6 L65,6 Z"></path>
    <path class="plug-body" d="M65,35 L65,10 L57.5,10 C54.739,10 52,11.701 52,14.463 L52,29.463 C52,32.224 54.739,35 57.5,35 L65,35"></path>
    <path class="plug-body" d="M42,16 L53,16 L53,29 L42,29 L42,16 L42,16 Z"></path>
    <path class="white" d="M47.5,25 C46.119,25 45,23.88 45,22.5 C45,21.119 46.119,20 47.5,20 C48.881,20 50,21.119 50,22.5 C50,23.88 48.881,25 47.5,25"></path>
    <path class="plug-shadow" d="M123.996,67 C123.996,68.104 117.951791,69 110.496,69 C103.040209,69 96.996,68.104 96.996,67 C96.996,65.895 103.040209,65 110.496,65 C117.951791,65 123.996,65.895 123.996,67"></path>
    <path class="plug-shadow" d="M70.996,67 C70.996,68.104 64.9517909,69 57.496,69 C50.0402091,69 43.996,68.104 43.996,67 C43.996,65.895 50.0402091,65 57.496,65 C64.9517909,65 70.996,65.895 70.996,67"></path>
</svg>