<svg xmlns="http://www.w3.org/2000/svg" width="173" height="70" viewBox="0 0 173 70"><path d="M105 29a2 2 0 0 0-2-2H88a2 2 0 0 0 0 4h15a2 2 0 0 0 2-2M105 16.612a2 2 0 0 0-2-2H88a2 2 0 0 0 0 4h15a2 2 0 0 0 2-2" class="plug-pin"/><path d="M128 23.47c4.304 0 7-4.6 7-8.904v-6.02C135 4.24 138.196.75 142.5.75s7.5 3.49 7.5 7.795v8.443c0 3.382 3.653 7.624 7.035 7.624H172m-129-.807c-4.304 0-8 3.65-8 7.955v6.02c0 4.305-3.196 7.795-7.5 7.795S20 42.085 20 37.78V29.34c0-3.382-1.153-5.726-4.535-5.726H0" class="wires"/><path d="M100 6h6v33h-6V6z" class="plug-strip"/><path d="M106 10v25h8.5c2.76 0 4.5-2.776 4.5-5.537v-15C119 11.7 117.26 10 114.5 10H106" class="plug-body"/><path d="M118 16h11v13h-11V16z" class="plug-body"/><path d="M123.5 20a2.5 2.5 0 1 1 0 5 2.5 2.5 0 0 1 0-5" class="white"/><path d="M65 6h6v33h-6V6z" class="plug-strip"/><path d="M65 35V10h-7.5c-2.76 0-5.5 1.7-5.5 4.463v15C52 32.223 54.74 35 57.5 35H65" class="plug-body"/><path d="M42 16h11v13H42V16z" class="plug-body"/><path d="M47.5 25a2.5 2.5 0 1 1 0-5 2.5 2.5 0 0 1 0 5" class="white"/><path d="M123.996 67c0 1.104-6.044 2-13.5 2s-13.5-.896-13.5-2c0-1.105 6.044-2 13.5-2s13.5.895 13.5 2M70.996 67c0 1.104-6.044 2-13.5 2s-13.5-.896-13.5-2c0-1.105 6.044-2 13.5-2s13.5.895 13.5 2" class="plug-shadow"/></svg>