<svg class="symbol-no-page-in-that-name-blue-clipart" version="1.1" xmlns="http://www.w3.org/2000/svg" xmlns:xlink="http://www.w3.org/1999/xlink" width="59px" height="54px" viewBox="0 0 59 54">
  <path style="fill:#7FCCF7;" d="M14.5,1v52c0,0.552,0.507,1,1.06,1h42c0.552,0,0.94-0.448,0.94-1V16L42.695,0H15.56
                                 C15.007,0,14.5,0.448,14.5,1z"/>
  <path style="fill:#4EB7F5;" d="M58.5,16H44.938c-1.239,0-2.378-0.687-2.378-1.924L42.695,0L58.5,16z"/>
  <path style="fill:#3899EC;" d="M12.195,14.346C4.058,15.879-1.282,23.645,0.267,31.693c0.6,3.118,2.154,5.813,4.297,7.866
                                 l0.128,6.523l5.367-3.169c2.408,0.834,5.059,1.085,7.746,0.578c8.137-1.532,13.477-9.299,11.927-17.347
                                 S20.332,12.814,12.195,14.346z"/>
  <path style="fill:#FFFFFF;" d="M10.27,27c0-1,0.108-1.549,0.326-2.158c0.217-0.609,0.524-1.192,0.924-1.618
                                 c0.399-0.428,0.896-0.792,1.491-1.031c0.595-0.238,1.271-0.374,2.026-0.374c0.588,0,1.137,0.08,1.648,0.254
                                 c0.511,0.176,0.962,0.428,1.354,0.763c0.392,0.336,0.7,0.744,0.924,1.226s0.336,1.024,0.336,1.626
                                 c0,0.785-0.172,1.449-0.515,1.996c-0.343,0.545-0.78,1.07-1.312,1.574c-0.448,0.447-0.798,0.791-1.05,1.029
                                 s-0.44,0.478-0.566,0.725c-0.126,0.244-0.211,0.358-0.253,0.694C15.562,32.042,15.534,33,15.52,33h-1.322
                                 c-0.015,0,0.021-1.011,0.104-1.452c0.084-0.439,0.224-0.744,0.42-1.087c0.196-0.342,0.448-0.63,0.756-0.952
                                 c0.309-0.322,0.687-0.665,1.135-1.072c0.392-0.363,0.717-0.758,0.977-1.206c0.259-0.449,0.388-0.94,0.388-1.487
                                 c0-0.42-0.08-0.802-0.241-1.152s-0.378-0.645-0.65-0.891c-0.273-0.244-0.592-0.437-0.956-0.577
                                 c-0.364-0.139-0.749-0.209-1.155-0.209c-0.574,0-1.074,0.098-1.501,0.293c-0.428,0.197-0.781,0.467-1.061,0.809
                                 c-0.28,0.344-0.49,0.877-0.63,1.34C11.642,25.818,11.579,26,11.593,27H10.27z M13.56,35h2v2h-2V35z"/>
</svg>
