<svg xmlns="http://www.w3.org/2000/svg" width="59" height="54" class="symbol-no-page-in-that-name-blue-clipart" viewBox="0 0 59 54"><path fill="#7fccf7" d="M14.5 1v52c0 .552.507 1 1.06 1h42c.552 0 .94-.448.94-1V16L42.695 0H15.56c-.553 0-1.06.448-1.06 1z"/><path fill="#4eb7f5" d="M58.5 16H44.938c-1.24 0-2.378-.687-2.378-1.924L42.695 0 58.5 16z"/><path fill="#3899ec" d="M12.195 14.346C4.058 15.88-1.282 23.646.267 31.693a14.707 14.707 0 0 0 4.297 7.866l.128 6.522 5.367-3.17a15.06 15.06 0 0 0 7.745.58c8.137-1.533 13.477-9.3 11.927-17.348s-9.4-13.33-17.537-11.798z"/><path fill="#FFF" d="M10.27 27c0-1 .108-1.55.326-2.158.217-.61.524-1.192.924-1.618.4-.428.896-.792 1.49-1.03a5.418 5.418 0 0 1 2.027-.375c.588 0 1.137.08 1.648.253.51.176.962.428 1.354.763.39.336.7.744.923 1.226s.336 1.024.336 1.626c0 .785-.173 1.45-.516 1.996a8.188 8.188 0 0 1-1.312 1.574c-.448.447-.798.79-1.05 1.03s-.44.477-.566.724c-.126.244-.21.358-.253.694-.04.336-.07 1.294-.083 1.294h-1.322c-.015 0 .02-1.01.104-1.452.084-.44.224-.744.42-1.087.196-.34.448-.63.756-.95.31-.323.687-.666 1.135-1.073.392-.363.717-.758.977-1.206.26-.448.388-.94.388-1.486a2.717 2.717 0 0 0-.89-2.043 3.08 3.08 0 0 0-.957-.576 3.21 3.21 0 0 0-1.154-.21c-.574 0-1.074.1-1.5.294-.43.197-.782.467-1.062.81s-.49.876-.63 1.34c-.142.46-.205.642-.19 1.642H10.27zm3.29 8h2v2h-2v-2z"/></svg>