<?xml version="1.0" encoding="utf-8"?>
<!-- Generator: Adobe Illustrator 17.1.0, SVG Export Plug-In . SVG Version: 6.00 Build 0)  -->
<!DOCTYPE svg PUBLIC "-//W3C//DTD SVG 1.1//EN" "http://www.w3.org/Graphics/SVG/1.1/DTD/svg11.dtd">
<svg version="1.1" id="Layer_1" xmlns="http://www.w3.org/2000/svg" xmlns:xlink="http://www.w3.org/1999/xlink" x="0px" y="0px"
	 width="42px" height="78px" viewBox="0 0 42 78" style="enable-background:new 0 0 42 78;" xml:space="preserve">
<g>
	<g>
		<g>
			<path style="fill:#7FCCF7;" d="M11.483,32.278C5.703,32.278,1,27.575,1,21.795s4.703-10.482,10.483-10.482
				c5.781,0,10.484,4.702,10.484,10.482S17.265,32.278,11.483,32.278z"/>
			<path style="fill:#3899EC;" d="M11.484,12.312c5.238,0,9.484,4.246,9.484,9.483s-4.246,9.483-9.484,9.483S2,27.032,2,21.795
				S6.246,12.312,11.484,12.312 M11.484,10.312C5.152,10.312,0,15.463,0,21.795s5.152,11.483,11.484,11.483
				s11.484-5.151,11.484-11.483S17.816,10.312,11.484,10.312L11.484,10.312z"/>
		</g>
		<g>
			<defs>
				<circle id="SVGID_12_" cx="11.484" cy="21.795" r="9.484"/>
			</defs>
			<clipPath id="SVGID_2_">
				<use xlink:href="#SVGID_12_"  style="overflow:visible;"/>
			</clipPath>
			
				<line style="clip-path:url(#SVGID_2_);fill:none;stroke:#3899EC;stroke-linejoin:round;stroke-miterlimit:10;" x1="12.5" y1="12" x2="12.5" y2="33"/>
			
				<line style="clip-path:url(#SVGID_2_);fill:none;stroke:#3899EC;stroke-linejoin:round;stroke-miterlimit:10;" x1="22" y1="22.5" x2="2" y2="22.5"/>
			
				<line style="clip-path:url(#SVGID_2_);fill:none;stroke:#3899EC;stroke-linejoin:round;stroke-miterlimit:10;" x1="18.19" y1="15.09" x2="4.778" y2="28.501"/>
			
				<line style="clip-path:url(#SVGID_2_);fill:none;stroke:#3899EC;stroke-linejoin:round;stroke-miterlimit:10;" x1="18.19" y1="28.501" x2="4.778" y2="15.09"/>
		</g>
	</g>
	<path style="fill:#7FCCF7;" d="M23.464,56.422c8.487,0,15.367-6.58,15.367-15.064c0-10.2-5.142-9.357-1.878-19.357H9.972
		c3.264,10-1.878,9.157-1.878,19.357c0,8.485,6.88,15.214,15.367,15.214"/>
	<g>
		<line style="fill:none;stroke:#7FCCF7;stroke-width:2;stroke-miterlimit:10;" x1="24" y1="56" x2="24" y2="76"/>
		<line style="fill:none;stroke:#7FCCF7;stroke-width:2;stroke-miterlimit:10;" x1="16" y1="77" x2="32" y2="77"/>
	</g>
	<path style="fill:#D3EDFF;" d="M36.953,22H9.972c2.821,9-0.635,9-1.626,16h30.232C37.588,31,34.132,31,36.953,22z"/>
	<polyline style="fill:none;stroke:#4EB7F5;stroke-width:2;stroke-linejoin:round;stroke-miterlimit:10;" points="23.031,47.384 
		33.357,1.466 41,3.748 	"/>
</g>
</svg>
