<svg xmlns="http://www.w3.org/2000/svg" width="42" height="78" xmlns:xlink="http://www.w3.org/1999/xlink" viewBox="0 0 42 78"><path fill="#7fccf7" d="M11.483 32.278C5.703 32.278 1 27.575 1 21.795s4.703-10.482 10.483-10.482 10.484 4.702 10.484 10.482-4.702 10.483-10.484 10.483z"/><path fill="#3899ec" d="M11.484 12.312c5.238 0 9.484 4.246 9.484 9.483s-4.246 9.483-9.484 9.483S2 27.032 2 21.795s4.246-9.483 9.484-9.483m0-2C5.152 10.312 0 15.462 0 21.795s5.152 11.483 11.484 11.483 11.484-5.15 11.484-11.483-5.152-11.483-11.484-11.483z"/><defs><circle id="a" cx="11.484" cy="21.795" r="9.484"/></defs><clipPath id="b"><use xlink:href="#a" overflow="visible"/></clipPath><path fill="none" stroke="#3899ec" stroke-miterlimit="10" d="M12.5 12v21M22 22.5H2M18.19 15.09L4.778 28.5M18.19 28.5L4.778 15.09" clip-path="url(#b)" stroke-linejoin="round"/><path fill="#7fccf7" d="M23.464 56.422c8.487 0 15.367-6.58 15.367-15.064 0-10.2-5.14-9.357-1.877-19.357H9.973c3.263 10-1.88 9.158-1.88 19.358 0 8.485 6.88 15.214 15.368 15.214"/><g fill="none" stroke="#7fccf7" stroke-width="2" stroke-miterlimit="10"><path d="M24 56v20M16 77h16"/></g><path fill="#d3edff" d="M36.953 22H9.973c2.82 9-.636 9-1.627 16h30.232c-.99-7-4.446-7-1.625-16z"/><path fill="none" stroke="#4eb7f5" stroke-width="2" stroke-miterlimit="10" d="M23.03 47.384L33.358 1.466 41 3.748" stroke-linejoin="round"/></svg>