<?xml version="1.0" encoding="UTF-8" standalone="no"?>
<svg width="22px" height="22px" viewBox="0 0 22 22" version="1.1" xmlns="http://www.w3.org/2000/svg" xmlns:xlink="http://www.w3.org/1999/xlink" xmlns:sketch="http://www.bohemiancoding.com/sketch/ns">
    <!-- Generator: Sketch 3.3.2 (12043) - http://www.bohemiancoding.com/sketch -->
    <title>openinnewtab-clipart</title>
    <desc>Created with Sketch.</desc>
    <defs></defs>
    <g id="Page-1" stroke="none" stroke-width="1" fill="none" fill-rule="evenodd" sketch:type="MSPage">
        <g id="openinnewtab-clipart" sketch:type="MSArtboardGroup" fill="#3899EC">
            <path d="M19,12 C18.448,12 18,12.447 18,13 L18,17.968 C17.989,17.979 17.978,17.99 17.966,18 L4,18 L4,5 L10,5 C10.552,5 11,4.553 11,4 C11,3.447 10.552,3 10,3 L3.341,3 C2.729,3 2,3.237 2,4.365 L2,18.141 C2,19.759 2.84,20 3.341,20 L18.116,20 C19.014,20 20,19.027 20,18.141 L20,13 C20,12.447 19.552,12 19,12" id="Fill-1" opacity="0.5" sketch:type="MSShapeGroup"></path>
            <path d="M19,3 L15,3 C14.448,3 14,3.447 14,4 C14,4.553 14.448,5 15,5 L16.498,5 L12.206,9.293 C11.815,9.684 11.815,10.316 12.206,10.707 C12.401,10.902 12.657,11 12.913,11 C13.168,11 13.424,10.902 13.62,10.707 L18,6.327 L18,8 C18,8.553 18.448,9 19,9 C19.552,9 20,8.553 20,8 L20,4 C20,3.447 19.552,3 19,3" id="Fill-2" sketch:type="MSShapeGroup"></path>
        </g>
    </g>
</svg>