<svg width="14px" height="14px" viewBox="0 0 14 14">
    <path fill="rgb(55,153,235)" fill-rule="evenodd" d="M 12.5 13.5C 12.5 13.5 12.5 10.17 12.5 10.17 12.5 10.17 10.33 13.38 6.28 13.38 2.55 13.38-0.48 10.5-0.48 6.5-0.48 6.5 0.52 6.5 0.52 6.5 0.52 9.5 3.1 12.38 6.28 12.38 8.38 12.38 10.73 11.23 11.75 9.42 11.75 9.42 8.5 9.38 8.5 9.38 8.5 9.38 8.5 8.5 8.5 8.5 8.5 8.5 13.5 8.5 13.5 8.5 13.5 8.5 13.5 13.5 13.5 13.5 13.5 13.5 12.5 13.5 12.5 13.5ZM 6.73 0.62C 4.64 0.62 2.28 1.77 1.26 3.58 1.26 3.58 4.5 3.63 4.5 3.63 4.5 3.63 4.5 4.5 4.5 4.5 4.5 4.5-0.5 4.5-0.5 4.5-0.5 4.5-0.5-0.5-0.5-0.5-0.5-0.5 0.5-0.5 0.5-0.5 0.5-0.5 0.5 2.83 0.5 2.83 0.5 2.83 2.67-0.38 6.73-0.38 10.46-0.38 13.5 2.5 13.5 6.5 13.5 6.5 12.5 6.5 12.5 6.5 12.5 3.5 9.91 0.62 6.73 0.62Z"/>
</svg>