<svg xmlns="http://www.w3.org/2000/svg" width="140" height="127" class="symbol-building-out-of-editor-gridline-right-computer-only-clipart" xmlns:xlink="http://www.w3.org/1999/xlink" viewBox="0 0 140 127"><ellipse cx="69" cy="124" fill="#d3edff" rx="66" ry="3"/><path fill="#5fcef5" d="M75.287 101.5H63.834s-2.533 15.42-9.136 21.248c-.695.613-.276 1.752.65 1.752h28.425c.927 0 1.346-1.14.65-1.752-6.603-5.827-9.136-21.248-9.136-21.248z"/><defs><path id="a" d="M140 103.5a4 4 0 0 1-4 4H4a4 4 0 0 1-4-4v-99a4 4 0 0 1 4-4h132a4 4 0 0 1 4 4v99z"/></defs><use fill="#a7e3fa" xlink:href="#a" overflow="visible"/><clipPath id="b"><use xlink:href="#a" overflow="visible"/></clipPath><path fill="#5fcef5" d="M-4-5.5h159v25H-4z" clip-path="url(#b)"/><path fill="#eaf7ff" d="M27 19.5h86v88H27z" clip-path="url(#b)"/><g fill="none" stroke="#3899ec" stroke-miterlimit="10" clip-path="url(#b)" stroke-linecap="round" stroke-linejoin="round" stroke-dasharray="1 3"><path d="M1 38h139M26.5 106.5v-87M113.723 105.962l-.425-87"/></g><circle cx="9.733" cy="9.316" r="2.5" fill="#FFF"/><circle cx="18.553" cy="9.316" r="2.5" fill="#FFF"/><path fill="#FFF" d="M132 9.525A2.475 2.475 0 0 1 129.525 12H27.475A2.475 2.475 0 0 1 25 9.525v-.05A2.475 2.475 0 0 1 27.475 7h102.05A2.475 2.475 0 0 1 132 9.475v.05z"/><path fill="#ade3f9" d="M113 52.5h5v23h-5z"/><path fill="#eaf7ff" d="M108 52.5h5v23h-5z"/><defs><path id="c" d="M124 70.5a1 1 0 0 1-1 1H88a1 1 0 0 1-1-1v-13a1 1 0 0 1 1-1h35a1 1 0 0 1 1 1v13z"/></defs><use fill="#5fcef5" xlink:href="#c" overflow="visible"/><clipPath id="d"><use xlink:href="#c" overflow="visible"/></clipPath><path fill="#2b81cb" d="M113 53.5h15v21h-15z" clip-path="url(#d)"/><path fill="none" stroke="#5fcef5" stroke-miterlimit="10" d="M83.5 53h44v22h-44z"/><circle cx="83.56" cy="52.963" r="2" fill="#5fcef5"/><circle cx="83.56" cy="73.963" r="2" fill="#5fcef5"/><circle cx="126.56" cy="52.963" r="2" fill="#5fcef5"/><circle cx="126.56" cy="73.963" r="2" fill="#5fcef5"/></svg>