<svg xmlns="http://www.w3.org/2000/svg" width="72" height="125" class="symbol-building-out-of-mobile-gridline-clipart" xmlns:xlink="http://www.w3.org/1999/xlink" viewBox="-6 0 72 125"><ellipse cx="29.336" cy="121.963" fill="#d3edff" rx="24" ry="2.5"/><defs><path id="a" d="M59 100.5a6 6 0 0 1-6 6H6a6 6 0 0 1-6-6v-94a6 6 0 0 1 6-6h47a6 6 0 0 1 6 6v94z"/></defs><use fill="#a7e3fa" xlink:href="#a" overflow="visible"/><clipPath id="b"><use xlink:href="#a" overflow="visible"/></clipPath><path fill="#eaf7ff" d="M-14-10.5h90v99h-90z" clip-path="url(#b)"/><path fill="#5fcef5" d="M67 118.307a5.193 5.193 0 0 1-5.193 5.193H-4.807A5.193 5.193 0 0 1-10 118.307V92.693A5.193 5.193 0 0 1-4.807 87.5h66.613A5.193 5.193 0 0 1 67 92.693v25.614zM67 2.307A5.193 5.193 0 0 1 61.807 7.5H-4.807A5.193 5.193 0 0 1-10 2.307v-25.613A5.193 5.193 0 0 1-4.807-28.5h66.613A5.193 5.193 0 0 1 67-23.305V2.307z" clip-path="url(#b)"/><g clip-path="url(#b)"><path fill="none" stroke="#7fccf7" stroke-miterlimit="10" d="M64 20H-3" stroke-linecap="round" stroke-linejoin="round" stroke-dasharray="1 3"/></g><g clip-path="url(#b)"><path fill="none" stroke="#4eb7f5" stroke-miterlimit="10" d="M31.5 54h44v24h-44z"/><g fill="#4eb7f5"><circle cx="32" cy="53.963" r="2"/><circle cx="32" cy="76.963" r="2"/></g></g><circle cx="30.426" cy="95.69" r="3.244" fill="#FFF"/><defs><path id="c" d="M72 73a1 1 0 0 1-1 1H36a1 1 0 0 1-1-1V58a1 1 0 0 1 1-1h35a1 1 0 0 1 1 1v15z"/></defs><use fill="#5fcef5" xlink:href="#c" overflow="visible"/><clipPath id="d"><use xlink:href="#c" overflow="visible"/></clipPath><path fill="#2b81cb" d="M73 77H59V54h14a1 1 0 0 1 1 1v21a1 1 0 0 1-1 1z" clip-path="url(#d)"/></svg>