<svg xmlns="http://www.w3.org/2000/svg" width="25" height="28" preserveAspectRatio="xMidYMid" viewBox="0 0 25 28"><path fill-rule="evenodd" d="M21.326 28H12.5a3.685 3.685 0 0 1-3.676-3.684v-.737h-.736a3.685 3.685 0 0 1-3.677-3.685v-.737h-.734A3.685 3.685 0 0 1 0 15.474V3.684C0 1.654 1.65 0 3.675 0H12.5a3.685 3.685 0 0 1 3.678 3.684v.737h.735a3.685 3.685 0 0 1 3.677 3.685v.737h.736a3.685 3.685 0 0 1 3.677 3.684v11.79c0 2.03-1.65 3.684-3.677 3.684zm-6.62-24.316c0-1.22-.99-2.21-2.205-2.21H3.677a2.21 2.21 0 0 0-2.206 2.21v11.79c0 1.22.99 2.21 2.206 2.21h.735v-9.58c0-2.03 1.65-3.683 3.678-3.683h6.62v-.736zm4.414 4.42c0-1.218-.99-2.21-2.207-2.21H8.088a2.21 2.21 0 0 0-2.206 2.21v11.791c0 1.22.99 2.21 2.206 2.21h.736v-9.58c0-2.03 1.65-3.683 3.677-3.683h6.62v-.737zm4.412 4.422c0-1.22-.99-2.21-2.206-2.21h-.736-1.47-6.62a2.21 2.21 0 0 0-2.205 2.21V24.315c0 1.22.99 2.21 2.206 2.21h8.826a2.21 2.21 0 0 0 2.206-2.21v-11.79zm-10.296 5.158h7.354v1.474h-7.354v-1.474zm0-2.947h7.354v1.473h-7.354v-1.473z" class="cls-2"/></svg>