<?xml version="1.0" encoding="UTF-8" standalone="no"?>
<svg width="16px" height="16px" viewBox="0 0 16 16" version="1.1" xmlns="http://www.w3.org/2000/svg" xmlns:xlink="http://www.w3.org/1999/xlink" xmlns:sketch="http://www.bohemiancoding.com/sketch/ns">
    <!-- Generator: Sketch 3.3 (11970) - http://www.bohemiancoding.com/sketch -->
    <title>L_B4</title>
    <desc>Created with Sketch.</desc>
    <defs></defs>
    <g id="Page-1" stroke="none" stroke-width="1" fill="none" fill-rule="evenodd" sketch:type="MSPage">
        <path d="M15.677,14.938 L12.646,11.895 C13.711,10.675 14.262,9.167 14.262,7.469 C14.262,3.718 11.221,0.677 7.469,0.677 C3.718,0.677 0.677,3.718 0.677,7.469 C0.677,11.221 3.718,14.262 7.469,14.262 C9.158,14.262 10.733,13.746 11.958,12.697 L14.938,15.677 L15.677,14.938 L15.677,14.938 Z M7.469,13.217 C4.3,13.217 1.722,10.639 1.722,7.469 C1.722,4.3 4.3,1.722 7.469,1.722 C10.639,1.722 13.217,4.3 13.217,7.469 C13.217,10.639 10.639,13.217 7.469,13.217 L7.469,13.217 Z" id="L_B4" fill="#1D2D3C" sketch:type="MSShapeGroup"></path>
    </g>
</svg>