<?xml version="1.0" encoding="UTF-8" standalone="no"?><svg width="13px" height="10px" viewBox="0 0 13 10" version="1.1" xmlns="http://www.w3.org/2000/svg" xmlns:xlink="http://www.w3.org/1999/xlink" xmlns:sketch="http://www.bohemiancoding.com/sketch/ns">    <!-- Generator: Sketch 3.3 (11970) - http://www.bohemiancoding.com/sketch -->    <title>L_Home_1</title>    <desc>Created with Sketch.</desc>    <defs></defs>    <g id="Page-1" stroke="none" stroke-width="1" fill="none" fill-rule="evenodd" sketch:type="MSPage">        <path d="M6.5,0 L0,5 L2,5 L2,8.5 C2,9.328 2.672,10 3.5,10 L9.5,10 C10.328,10 11,9.328 11,8.5 L11,5 L13,5 L6.5,0 L6.5,0 Z M6,7 L7,7 L7,9 L6,9 L6,7 Z M9.5,9 L8,9 L8,6 L5,6 L5,9 L3.5,9 C3.224,9 3,8.776 3,8.5 L3,4 L6.5,1.375 L10,4 L10,8.5 C10,8.776 9.776,9 9.5,9 L9.5,9 Z" id="L_Home_1" fill="#1D2D3C" sketch:type="MSShapeGroup"></path>    </g></svg>