<svg xmlns="http://www.w3.org/2000/svg"
    xmlns:xlink="http://www.w3.org/1999/xlink"
    preserveAspectRatio="xMidYMid" viewBox="0 0 28 18" width="28" height="18">
  <path d="M14.037,17.979 C13.061,17.979 12.127,17.583 11.459,16.880 C11.459,16.880 0.950,5.877 0.950,5.877 C-0.392,4.474 -0.327,2.262 1.100,0.937 C2.521,-0.387 4.767,-0.322 6.105,1.084 C6.105,1.084 14.037,9.387 14.037,9.387 C14.037,9.387 21.968,1.084 21.968,1.084 C23.307,-0.322 25.549,-0.387 26.974,0.937 C28.400,2.262 28.466,4.474 27.123,5.877 C27.123,5.877 16.615,16.880 16.615,16.880 C15.947,17.583 15.013,17.979 14.037,17.979 Z" id="path-1" class="cls-2" fill-rule="evenodd"/>
</svg>
