<?xml version="1.0" encoding="utf-8"?>
<!DOCTYPE svg PUBLIC "-//W3C//DTD SVG 1.1//EN" "http://www.w3.org/Graphics/SVG/1.1/DTD/svg11.dtd">
<svg version="1.1" baseProfile="full"
 xmlns="http://www.w3.org/2000/svg"
 xmlns:xlink="http://www.w3.org/1999/xlink"
 xmlns:ev="http://www.w3.org/2001/xml-events"
  height="16px"
  width="13px"
 viewBox="0 0 13 16"
>
<path fill="rgb( 57, 85, 113 )"
 d="M 12 3.94C 12 3.94 12 15.94 12 15.94 12 15.94 1 15.94 1 15.94 1 15.94 1 3.94 1 3.94 1 3.94 0 3.94 0 3.94 0 3.94 0 2.92 0 2.92 0 2.92 4 2.92 4 2.92 4 2.92 4 0.94 4 0.94 4 0.94 9 0.94 9 0.94 9 0.94 9 2.92 9 2.92 9 2.92 13 2.92 13 2.92 13 2.92 13 3.94 13 3.94 13 3.94 12 3.94 12 3.94ZM 8 1.88C 8 1.88 5 1.88 5 1.88 5 1.88 5 2.94 5 2.94 5 2.94 8 2.94 8 2.94 8 2.94 8 1.88 8 1.88ZM 11 3.94C 11 3.94 2 3.94 2 3.94 2 3.94 2 14.94 2 14.94 2 14.94 11 14.94 11 14.94 11 14.94 11 3.94 11 3.94ZM 5 13.81C 5 13.81 4 13.81 4 13.81 4 13.81 4 7.06 4 7.06 4 7.06 5 7.06 5 7.06 5 7.06 5 13.81 5 13.81ZM 7 13.81C 7 13.81 6 13.81 6 13.81 6 13.81 6 7.06 6 7.06 6 7.06 7 7.06 7 7.06 7 7.06 7 13.81 7 13.81ZM 9 13.81C 9 13.81 8 13.81 8 13.81 8 13.81 8 7.06 8 7.06 8 7.06 9 7.06 9 7.06 9 7.06 9 13.81 9 13.81Z"/>
</svg>