<?xml version="1.0" encoding="UTF-8" standalone="no"?><svg width="14px" height="12px" viewBox="0 0 14 12" version="1.1" xmlns="http://www.w3.org/2000/svg" xmlns:xlink="http://www.w3.org/1999/xlink" xmlns:sketch="http://www.bohemiancoding.com/sketch/ns">    <!-- Generator: Sketch 3.3 (11970) - http://www.bohemiancoding.com/sketch -->    <title>L_Preview_2</title>    <desc>Created with Sketch.</desc>    <defs></defs>    <g id="Page-1" stroke="none" stroke-width="1" fill="none" fill-rule="evenodd" sketch:type="MSPage">        <path d="M13.437,6.194 L13.525,6 L13.437,5.806 C13.35,5.616 11.269,1.157 6.922,1.157 C5.57,1.157 4.456,1.589 3.56,2.189 L1.303,0 L0.813,0.475 L3.006,2.601 C1.396,3.927 0.646,5.704 0.598,5.823 L0.525,6 L0.597,6.177 C0.676,6.368 2.562,10.845 6.922,10.845 C8.308,10.845 9.461,10.391 10.395,9.767 L12.697,12 L13.188,11.525 L10.95,9.356 C12.574,8.039 13.384,6.311 13.437,6.194 L13.437,6.194 Z M6.922,9.885 C3.689,9.885 1.98,6.784 1.6,6 C1.825,5.536 2.522,4.26 3.722,3.296 L5.017,4.552 C4.682,4.959 4.472,5.46 4.472,6.002 C4.472,7.303 5.639,8.401 7.021,8.401 C7.575,8.401 8.072,8.212 8.472,7.903 L9.67,9.064 C8.905,9.545 7.99,9.885 6.922,9.885 L6.922,9.885 Z M7.77,7.222 C7.557,7.36 7.302,7.441 7.021,7.441 C6.176,7.441 5.462,6.782 5.462,6.002 C5.462,5.72 5.558,5.455 5.716,5.23 L7.77,7.222 L7.77,7.222 Z M6.226,4.774 C6.461,4.641 6.732,4.559 7.021,4.559 C7.812,4.559 8.408,5.179 8.408,6.002 C8.408,6.267 8.34,6.508 8.229,6.717 L6.226,4.774 L6.226,4.774 Z M10.237,8.664 L8.948,7.414 C9.229,7.019 9.398,6.535 9.398,6.002 C9.398,4.654 8.354,3.599 7.021,3.599 C6.462,3.599 5.943,3.785 5.517,4.086 L4.285,2.892 C5.013,2.436 5.889,2.118 6.922,2.118 C10.146,2.118 11.999,5.189 12.432,6 C12.18,6.473 11.443,7.711 10.237,8.664 L10.237,8.664 Z" id="L_Preview_2" fill="#1D2D3C" sketch:type="MSShapeGroup"></path>    </g></svg>