<svg xmlns="http://www.w3.org/2000/svg" width="89" height="55" viewBox="0 0 89 55"><path fill="#3799EB" fill-rule="evenodd" d="M88.06 39.69l-.03.09c-.05.15-.13.29-.24.42L74.91 54.54c-.11.11-.24.2-.38.26-.13.06-.27.08-.41.08-.01.01-.03.01-.04.01H38.41c-.55 0-1.02-.39-1.12-.93l-3.3-18.11h-7.87v-.91h7.7l-1.27-6.98H19.86v-.92h12.52l-1.3-7.14H15.12v-1.91h15.61L27.7 1.33c-.06-.33.03-.68.24-.94.22-.26.54-.41.88-.41h50.6c.54 0 1.01.39 1.12.93l7.54 38.28v.03c.03.16.02.32-.02.47zm-3.77.36h-8.08c-.64 0-1.15.52-1.15 1.16v8.85l9.23-10.01zM78.47 2.91H30.19L33 17.99h.3v1.6l6.07 32.49h33.57V41.71c0-1.9 1.54-3.78 3.44-3.78h9.19l-7.1-35.02zM66.3 16.98a1.9 1.9 0 0 1-1.91-1.9c0-1.05.85-1.91 1.91-1.91 1.05 0 1.9.86 1.9 1.91a1.9 1.9 0 0 1-1.9 1.9zm-8.96 8.97c-3.82 0-6-2.73-6.09-2.85a.882.882 0 0 1 .15-1.25.88.88 0 0 1 1.25.15c.08.09 1.77 2.16 4.69 2.16 3.2 0 4.63-2.08 4.64-2.1a.89.89 0 0 1 1.24-.25c.41.27.52.83.25 1.24-.08.12-1.98 2.9-6.13 2.9zm-9.25-9.32a1.91 1.91 0 0 1-1.91-1.91c0-1.05.85-1.9 1.91-1.9 1.05 0 1.9.85 1.9 1.9 0 1.05-.85 1.91-1.9 1.91zM16.39 9.77c-1.06-.07-1.86-1-1.79-2.06a1.92 1.92 0 0 1 2.06-1.79c1.06.07 1.86.99 1.79 2.05a1.93 1.93 0 0 1-2.06 1.8zm-8.34 9.55l-.84-4.51-4.35-1.58 4.52-.84 1.57-4.34.84 4.51 4.35 1.57-4.52.84-1.57 4.35zm-6.81-1.25c-.65-.05-1.15-.61-1.1-1.26.04-.66.61-1.15 1.26-1.11.65.05 1.15.61 1.1 1.27-.04.65-.61 1.14-1.26 1.1zm2.7 5.76l2.09-2.29-.64 3.01 2.3 2.09-3.02-.63-2.09 2.3.61-2.88-.65.71.56-.96L.92 23.2l3.02.63z"/></svg>