<svg xmlns="http://www.w3.org/2000/svg"
    xmlns:xlink="http://www.w3.org/1999/xlink"
    preserveAspectRatio="xMidYMid" viewBox="0 0 25 28" width="25" height="28">
  <path d="M21.326,28.000 C21.326,28.000 12.501,28.000 12.501,28.000 C10.474,28.000 8.824,26.347 8.824,24.316 C8.824,24.316 8.824,23.579 8.824,23.579 C8.824,23.579 8.088,23.579 8.088,23.579 C6.061,23.579 4.411,21.926 4.411,19.895 C4.411,19.895 4.411,19.158 4.411,19.158 C4.411,19.158 3.676,19.158 3.676,19.158 C1.649,19.158 -0.001,17.505 -0.001,15.474 C-0.001,15.474 -0.001,3.684 -0.001,3.684 C-0.001,1.653 1.649,-0.000 3.676,-0.000 C3.676,-0.000 12.501,-0.000 12.501,-0.000 C14.528,-0.000 16.178,1.653 16.178,3.684 C16.178,3.684 16.178,4.421 16.178,4.421 C16.178,4.421 16.913,4.421 16.913,4.421 C18.941,4.421 20.590,6.074 20.590,8.105 C20.590,8.105 20.590,8.842 20.590,8.842 C20.590,8.842 21.326,8.842 21.326,8.842 C23.353,8.842 25.003,10.495 25.003,12.526 C25.003,12.526 25.003,24.316 25.003,24.316 C25.003,26.347 23.353,28.000 21.326,28.000 ZM14.707,3.684 C14.707,2.465 13.717,1.474 12.501,1.474 C12.501,1.474 3.676,1.474 3.676,1.474 C2.459,1.474 1.470,2.465 1.470,3.684 C1.470,3.684 1.470,15.474 1.470,15.474 C1.470,16.693 2.459,17.684 3.676,17.684 C3.676,17.684 4.411,17.684 4.411,17.684 C4.411,17.684 4.411,8.105 4.411,8.105 C4.411,6.074 6.061,4.421 8.088,4.421 C8.088,4.421 14.707,4.421 14.707,4.421 C14.707,4.421 14.707,3.684 14.707,3.684 ZM19.120,8.105 C19.120,6.886 18.130,5.895 16.913,5.895 C16.913,5.895 8.088,5.895 8.088,5.895 C6.872,5.895 5.882,6.886 5.882,8.105 C5.882,8.105 5.882,17.684 5.882,17.684 C5.882,17.684 5.882,19.158 5.882,19.158 C5.882,19.158 5.882,19.895 5.882,19.895 C5.882,21.114 6.872,22.105 8.088,22.105 C8.088,22.105 8.824,22.105 8.824,22.105 C8.824,22.105 8.824,12.526 8.824,12.526 C8.824,10.495 10.474,8.842 12.501,8.842 C12.501,8.842 19.120,8.842 19.120,8.842 C19.120,8.842 19.120,8.105 19.120,8.105 ZM23.532,12.526 C23.532,11.307 22.542,10.316 21.326,10.316 C21.326,10.316 20.590,10.316 20.590,10.316 C20.590,10.316 19.120,10.316 19.120,10.316 C19.120,10.316 12.501,10.316 12.501,10.316 C11.285,10.316 10.295,11.307 10.295,12.526 C10.295,12.526 10.295,22.105 10.295,22.105 C10.295,22.105 10.295,23.579 10.295,23.579 C10.295,23.579 10.295,24.316 10.295,24.316 C10.295,25.535 11.285,26.526 12.501,26.526 C12.501,26.526 21.326,26.526 21.326,26.526 C22.542,26.526 23.532,25.535 23.532,24.316 C23.532,24.316 23.532,12.526 23.532,12.526 ZM13.236,17.684 C13.236,17.684 20.590,17.684 20.590,17.684 C20.590,17.684 20.590,19.158 20.590,19.158 C20.590,19.158 13.236,19.158 13.236,19.158 C13.236,19.158 13.236,17.684 13.236,17.684 ZM13.236,14.737 C13.236,14.737 20.590,14.737 20.590,14.737 C20.590,14.737 20.590,16.210 20.590,16.210 C20.590,16.210 13.236,16.210 13.236,16.210 C13.236,16.210 13.236,14.737 13.236,14.737 Z" id="path-1" class="cls-2" fill-rule="evenodd"/>
</svg>
