<svg xmlns="http://www.w3.org/2000/svg" width="13" height="13" viewBox="0 0 15 16"><path fill="#1D2D3C" fill-rule="evenodd" d="M14.072 1.426a3.173 3.173 0 0 0-4.48 0L7.368 3.65l.702.702 2.223-2.222a2.175 2.175 0 0 1 3.71 1.536 2.16 2.16 0 0 1-.636 1.537L9.68 8.89a2.177 2.177 0 0 1-3.074 0l-.704.704a3.16 3.16 0 0 0 2.24.927c.812 0 1.624-.308 2.24-.926l3.688-3.687c.6-.6.928-1.394.928-2.24 0-.847-.33-1.642-.928-2.24zm-9.37 12.442c-.82.822-2.25.822-3.072 0a2.176 2.176 0 0 1 0-3.073l3.687-3.687a2.175 2.175 0 0 1 3.074 0l.704-.704a3.173 3.173 0 0 0-4.48 0L.925 10.09a3.173 3.173 0 0 0 0 4.482c.6.6 1.395.928 2.24.928.847 0 1.643-.33 2.24-.928L7.63 12.35l-.704-.705-2.223 2.223z"/></svg>