<?xml version="1.0" encoding="utf-8"?>
<svg xmlns="http://www.w3.org/2000/svg"
	xmlns:xlink="http://www.w3.org/1999/xlink"
	width="89px" height="55px" viewBox="0 0 89 55">
<path fill="rgb(55,153,235)" fill-rule="evenodd" d="M 88.06 39.69C 88.05 39.72 88.04 39.75 88.03 39.78 87.98 39.93 87.9 40.07 87.79 40.2 87.79 40.2 74.91 54.54 74.91 54.54 74.8 54.65 74.67 54.74 74.53 54.8 74.4 54.86 74.26 54.88 74.12 54.88 74.11 54.89 74.09 54.89 74.08 54.89 74.08 54.89 38.41 54.89 38.41 54.89 37.86 54.89 37.39 54.5 37.29 53.96 37.29 53.96 33.99 35.85 33.99 35.85 33.99 35.85 26.12 35.85 26.12 35.85 26.12 35.85 26.12 34.94 26.12 34.94 26.12 34.94 33.82 34.94 33.82 34.94 33.82 34.94 32.55 27.96 32.55 27.96 32.55 27.96 19.86 27.96 19.86 27.96 19.86 27.96 19.86 27.04 19.86 27.04 19.86 27.04 32.38 27.04 32.38 27.04 32.38 27.04 31.08 19.9 31.08 19.9 31.08 19.9 15.12 19.9 15.12 19.9 15.12 19.9 15.12 17.99 15.12 17.99 15.12 17.99 30.73 17.99 30.73 17.99 30.73 17.99 27.7 1.33 27.7 1.33 27.64 1 27.73 0.65 27.94 0.39 28.16 0.13 28.48-0.02 28.82-0.02 28.82-0.02 79.42-0.02 79.42-0.02 79.96-0.02 80.43 0.37 80.54 0.91 80.54 0.91 88.08 39.19 88.08 39.19 88.08 39.2 88.08 39.21 88.08 39.22 88.11 39.38 88.1 39.54 88.06 39.69ZM 84.29 40.05C 84.29 40.05 76.21 40.05 76.21 40.05 75.57 40.05 75.06 40.57 75.06 41.21 75.06 41.21 75.06 50.06 75.06 50.06 75.06 50.06 84.29 40.05 84.29 40.05ZM 78.47 2.91C 78.47 2.91 30.19 2.91 30.19 2.91 30.19 2.91 33 17.99 33 17.99 33 17.99 33.3 17.99 33.3 17.99 33.3 17.99 33.3 19.59 33.3 19.59 33.3 19.59 39.37 52.08 39.37 52.08 39.37 52.08 72.94 52.08 72.94 52.08 72.94 52.08 72.94 41.71 72.94 41.71 72.94 39.81 74.48 37.93 76.38 37.93 76.38 37.93 85.57 37.93 85.57 37.93 85.57 37.93 78.47 2.91 78.47 2.91ZM 66.3 16.98C 65.24 16.98 64.39 16.13 64.39 15.08 64.39 14.03 65.24 13.17 66.3 13.17 67.35 13.17 68.2 14.03 68.2 15.08 68.2 16.13 67.35 16.98 66.3 16.98ZM 57.34 25.95C 53.52 25.95 51.34 23.22 51.25 23.1 50.94 22.72 51.01 22.15 51.4 21.85 51.79 21.54 52.35 21.61 52.65 22 52.73 22.09 54.42 24.16 57.34 24.16 60.54 24.16 61.97 22.08 61.98 22.06 62.25 21.65 62.81 21.53 63.22 21.81 63.63 22.08 63.74 22.64 63.47 23.05 63.39 23.17 61.49 25.95 57.34 25.95ZM 48.09 16.63C 47.03 16.63 46.18 15.77 46.18 14.72 46.18 13.67 47.03 12.82 48.09 12.82 49.14 12.82 49.99 13.67 49.99 14.72 49.99 15.77 49.14 16.63 48.09 16.63Z"/>
<path fill="rgb(55,153,235)" fill-rule="evenodd" d="M 16.39 9.77C 15.33 9.7 14.53 8.77 14.6 7.71 14.67 6.65 15.59 5.84 16.66 5.92 17.72 5.99 18.52 6.91 18.45 7.97 18.38 9.04 17.46 9.84 16.39 9.77ZM 8.05 19.32C 8.05 19.32 7.21 14.81 7.21 14.81 7.21 14.81 2.86 13.23 2.86 13.23 2.86 13.23 7.38 12.39 7.38 12.39 7.38 12.39 8.95 8.05 8.95 8.05 8.95 8.05 9.79 12.56 9.79 12.56 9.79 12.56 14.14 14.13 14.14 14.13 14.14 14.13 9.62 14.97 9.62 14.97 9.62 14.97 8.05 19.32 8.05 19.32ZM 1.24 18.07C 0.59 18.02 0.09 17.46 0.14 16.81 0.18 16.15 0.75 15.66 1.4 15.7 2.05 15.75 2.55 16.31 2.5 16.97 2.46 17.62 1.89 18.11 1.24 18.07ZM 3.94 23.83C 3.94 23.83 6.03 21.54 6.03 21.54 6.03 21.54 5.39 24.55 5.39 24.55 5.39 24.55 7.69 26.64 7.69 26.64 7.69 26.64 4.67 26.01 4.67 26.01 4.67 26.01 2.58 28.31 2.58 28.31 2.58 28.31 3.19 25.43 3.19 25.43 3.19 25.43 2.54 26.14 2.54 26.14 2.54 26.14 3.1 25.18 3.1 25.18 3.1 25.18 0.92 23.2 0.92 23.2 0.92 23.2 3.94 23.83 3.94 23.83Z"/>
</svg>