<?xml version="1.0" encoding="utf-8"?><!DOCTYPE svg PUBLIC "-//W3C//DTD SVG 1.1//EN" "http://www.w3.org/Graphics/SVG/1.1/DTD/svg11.dtd"><svg version="1.1" baseProfile="full"     xmlns="http://www.w3.org/2000/svg"     xmlns:xlink="http://www.w3.org/1999/xlink"     xmlns:ev="http://www.w3.org/2001/xml-events"     height="7px"     width="13px"     viewBox="0 0 13 7">    <path fill="rgb( 113, 146, 166 )"          d="M4.5,7 C4.5,7 4.5,6 4.5,6 C4.5,6 12.472,6 12.472,6 C12.472,6 12.472,7 12.472,7 C12.472,7 4.5,7 4.5,7 ZM4.5,3 C4.5,3 12.472,3 12.472,3 C12.472,3 12.472,4 12.472,4 C12.472,4 4.5,4 4.5,4 C4.5,4 4.5,3 4.5,3 ZM0.5,0 C0.5,0 9.5,0 9.5,0 C9.5,0 9.5,1 9.5,1 C9.5,1 0.5,1 0.5,1 C0.5,1 0.5,0 0.5,0 Z "/></svg>