<?xml version="1.0" encoding="UTF-8" standalone="no"?><svg width="13px" height="13px" viewBox="0 0 15 16" version="1.1" xmlns="http://www.w3.org/2000/svg" xmlns:xlink="http://www.w3.org/1999/xlink" xmlns:sketch="http://www.bohemiancoding.com/sketch/ns">    <!-- Generator: Sketch 3.3 (11970) - http://www.bohemiancoding.com/sketch -->    <title>L_Link_1</title>    <desc>Created with Sketch.</desc>    <defs></defs>    <g id="Page-1" stroke="none" stroke-width="1" fill="none" fill-rule="evenodd" sketch:type="MSPage">        <path d="M14.072,1.426 C12.837,0.191 10.826,0.191 9.591,1.426 L7.369,3.649 L8.072,4.352 L10.295,2.13 C11.141,1.282 12.52,1.282 13.369,2.13 C13.779,2.541 14.005,3.086 14.005,3.666 C14.005,4.247 13.779,4.792 13.369,5.203 L9.682,8.891 C8.834,9.738 7.455,9.738 6.608,8.891 L5.904,9.594 C6.522,10.212 7.333,10.521 8.145,10.521 C8.956,10.521 9.768,10.212 10.385,9.594 L14.072,5.907 C14.671,5.308 15,4.513 15,3.666 C15,2.82 14.671,2.025 14.072,1.426 L14.072,1.426 Z M4.703,13.868 C3.882,14.69 2.451,14.69 1.63,13.868 C0.783,13.021 0.783,11.642 1.63,10.795 L5.317,7.108 C6.164,6.26 7.543,6.26 8.391,7.108 L9.094,6.404 C7.859,5.169 5.848,5.169 4.613,6.404 L0.926,10.091 C-0.309,11.326 -0.309,13.337 0.926,14.572 C1.525,15.171 2.321,15.5 3.167,15.5 C4.013,15.5 4.809,15.171 5.407,14.572 L7.63,12.349 L6.926,11.645 L4.703,13.868 L4.703,13.868 Z" id="L_Link_1" fill="#1D2D3C" sketch:type="MSShapeGroup"></path>    </g></svg>