<?xml version="1.0" encoding="utf-8"?>
<svg xmlns="http://www.w3.org/2000/svg"
	xmlns:xlink="http://www.w3.org/1999/xlink"
	width="12px" height="14px" viewBox="0 0 14 14">
<path fill="rgb(43,85,113)" fill-rule="evenodd" d="M 13.01 2.06C 13.01 2.06 11.43 0.48 11.43 0.48 10.69-0.26 9.4-0.26 8.66 0.48 8.66 0.48 7.38 1.77 7.38 1.77 7.38 1.77 7.06 2.09 7.06 2.09 7.06 2.09 1.11 8.04 1.11 8.04 1.11 8.04-0.29 13.78-0.29 13.78-0.29 13.78 5.45 12.38 5.45 12.38 5.45 12.38 11.4 6.43 11.4 6.43 11.4 6.43 11.4 6.43 11.4 6.43 11.4 6.43 13.01 4.83 13.01 4.83 13.77 4.06 13.77 2.82 13.01 2.06ZM 0.6 12.89C 0.6 12.89 1.8 9.16 1.8 9.16 1.8 9.16 4.33 11.69 4.33 11.69 4.33 11.69 0.6 12.89 0.6 12.89ZM 5.24 11.34C 5.24 11.34 4.01 10.11 4.01 10.11 4.01 10.11 7.25 6.87 7.25 6.87 7.25 6.87 6.62 6.24 6.62 6.24 6.62 6.24 3.38 9.48 3.38 9.48 3.38 9.48 2.15 8.26 2.15 8.26 2.15 8.26 7.38 3.03 7.38 3.03 7.38 3.03 10.46 6.12 10.46 6.12 10.46 6.12 5.24 11.34 5.24 11.34ZM 12.38 4.2C 12.38 4.2 11.09 5.49 11.09 5.49 11.09 5.49 8.01 2.4 8.01 2.4 8.01 2.4 9.29 1.11 9.29 1.11 9.7 0.71 10.4 0.71 10.8 1.11 10.8 1.11 12.38 2.69 12.38 2.69 12.79 3.1 12.79 3.78 12.38 4.2Z"/>
</svg>