<svg xmlns="http://www.w3.org/2000/svg" width="16" height="19" viewBox="0 0 16 19"><path fill="#2B5672" fill-rule="evenodd" d="M5.008 3.2l-.644.49A3.484 3.484 0 0 0 3.02 5.993a3.514 3.514 0 0 0 .647 2.596l4.055 5.52a3.394 3.394 0 0 0 4.813.708l.646-.49-1.915-2.606-1.28.973a.485.485 0 0 1-.69-.1L5.543 7.48a.507.507 0 0 1 .1-.698l1.28-.974L5.01 3.2zm5.472 13.315a4.42 4.42 0 0 1-3.546-1.807L2.88 9.188a4.528 4.528 0 0 1-.834-3.34c.17-1.188.783-2.24 1.73-2.958l1.037-.79a.485.485 0 0 1 .688.102L8.005 5.61a.503.503 0 0 1-.1.7l-1.28.974 3.165 4.31 1.28-.973a.484.484 0 0 1 .688.103l2.504 3.408a.506.506 0 0 1-.1.7l-1.04.79a4.332 4.332 0 0 1-2.642.895z"/></svg>