<?xml version="1.0" encoding="UTF-8" standalone="no"?>
<svg width="16px" height="19px" viewBox="0 0 16 19" version="1.1" xmlns="http://www.w3.org/2000/svg" xmlns:xlink="http://www.w3.org/1999/xlink" xmlns:sketch="http://www.bohemiancoding.com/sketch/ns">
    <!-- Generator: Sketch 3.4.2 (15855) - http://www.bohemiancoding.com/sketch -->
    <title>pfone_reg</title>
    <desc>Created with Sketch.</desc>
    <defs></defs>
    <g id="Page-1" stroke="none" stroke-width="1" fill="none" fill-rule="evenodd" sketch:type="MSPage">
        <g id="pfone_reg" sketch:type="MSArtboardGroup" fill="#2B5672">
            <path d="M5.00839541,3.20076171 L4.36439541,3.68976171 C3.62739541,4.24976171 3.15039541,5.06776171 3.01939541,5.99276171 C2.88639541,6.91876171 3.11739541,7.84076171 3.66739541,8.58876171 L7.72239541,14.1097617 C8.37839541,15.0027617 9.38339541,15.5157617 10.4803954,15.5157617 C11.2253954,15.5157617 11.9363954,15.2737617 12.5353954,14.8177617 L13.1813954,14.3277617 L11.2653954,11.7217617 L9.98439541,12.6947617 C9.76639541,12.8617617 9.45939541,12.8147617 9.29639541,12.5937617 L5.54239541,7.48076171 C5.46439541,7.37576171 5.43139541,7.24176171 5.44939541,7.11076171 C5.46839541,6.97876171 5.53739541,6.86076171 5.64139541,6.78176171 L6.92339541,5.80776171 L5.00839541,3.20076171 Z M10.4803954,16.5147617 C9.09039541,16.5147617 7.76539541,15.8397617 6.93439541,14.7077617 L2.88039541,9.18676171 C2.17339541,8.22476171 1.87739541,7.03976171 2.04639541,5.84876171 C2.21539541,4.65976171 2.82939541,3.60876171 3.77539541,2.88976171 L4.81339541,2.09976171 C5.03139541,1.93376171 5.33939541,1.97976171 5.50139541,2.20176171 L8.00439541,5.60976171 C8.08239541,5.71576171 8.11539541,5.84876171 8.09639541,5.97976171 C8.07839541,6.11176171 8.00939541,6.22976171 7.90439541,6.30876171 L6.62339541,7.28376171 L9.78939541,11.5947617 L11.0713954,10.6207617 C11.2883954,10.4547617 11.5963954,10.5007617 11.7583954,10.7227617 L14.2623954,14.1307617 C14.3403954,14.2357617 14.3723954,14.3697617 14.3543954,14.5007617 C14.3363954,14.6327617 14.2673954,14.7507617 14.1623954,14.8297617 L13.1233954,15.6187617 C12.3533954,16.2047617 11.4393954,16.5147617 10.4803954,16.5147617 L10.4803954,16.5147617 Z" id="Fill-1" sketch:type="MSShapeGroup"></path>
        </g>
    </g>
</svg>