<svg xmlns="http://www.w3.org/2000/svg" width="76" height="126" class="symbol-oops-cannot-do-message-clipart" viewBox="0 0 76 126"><ellipse cx="38.079" cy="123.29" fill="#d9e1e8" rx="30" ry="2.5"/><path fill="#a7e3fa" d="M19.71 74.75L1.46 56.5a4.988 4.988 0 0 1 0-7.056L49.234 1.672a4.988 4.988 0 0 1 7.056 0l18.248 18.25a4.988 4.988 0 0 1 0 7.055L26.768 74.75a4.99 4.99 0 0 1-7.058 0z"/><path fill="#7992a5" d="M26.78 1.742a4.958 4.958 0 0 0-7.014 0L1.532 19.976a4.958 4.958 0 0 0 0 7.013l47.69 47.688a4.958 4.958 0 0 0 7.012 0l18.234-18.234a4.958 4.958 0 0 0 0-7.013L26.778 1.743z"/><path fill="#2b5672" d="M54.174 38.006l-15.47-15.47a.995.995 0 0 0-1.407 0l-15.47 15.47a.995.995 0 0 0 0 1.406l15.47 15.47a.995.995 0 0 0 1.406 0l15.47-15.47a.993.993 0 0 0 0-1.406z"/><circle cx="11.056" cy="22.743" r="1.996" fill="#2b5672"/><circle cx="22.033" cy="11.766" r="1.996" fill="#2b5672"/><circle cx="18.042" cy="29.728" r="1.996" fill="#2b5672"/><circle cx="20.038" cy="20.747" r="1.996" fill="#2b5672"/><circle cx="29.019" cy="18.751" r="1.996" fill="#2b5672"/><circle cx="46.981" cy="58.667" r="1.996" fill="#2b5672"/><circle cx="57.958" cy="47.69" r="1.996" fill="#2b5672"/><circle cx="53.967" cy="65.653" r="1.996" fill="#2b5672"/><circle cx="55.962" cy="56.672" r="1.996" fill="#2b5672"/><circle cx="64.944" cy="54.676" r="1.996" fill="#2b5672"/></svg>