<svg class="symbol-oops-cannot-do-message-clipart" version="1.1" xmlns="http://www.w3.org/2000/svg" xmlns:xlink="http://www.w3.org/1999/xlink" width="76px" height="126px" viewBox="0 0 76 126">
  <ellipse style="fill:#D9E1E8;" cx="38.079" cy="123.29" rx="30" ry="2.5"/>
  <path style="fill:#A7E3FA;" d="M19.71,74.749L1.461,56.5c-1.949-1.949-1.949-5.108,0-7.056L49.233,1.672
                                 c1.949-1.949,5.108-1.949,7.056,0l18.249,18.249c1.949,1.949,1.949,5.108,0,7.056L26.767,74.749
                                 C24.818,76.697,21.659,76.697,19.71,74.749z"/>
  <path style="fill:#7992A5;" d="M26.779,1.742c-1.937-1.937-5.077-1.937-7.013,0L1.532,19.976c-1.937,1.937-1.937,5.077,0,7.013
                                 l47.689,47.689c1.937,1.937,5.077,1.937,7.013,0l18.234-18.234c1.937-1.937,1.937-5.077,0-7.013L26.779,1.742z"/>
  <path style="fill:#2B5672;" d="M54.174,38.006L38.703,22.535c-0.388-0.388-1.018-0.388-1.406,0L21.826,38.006
                                 c-0.388,0.388-0.388,1.018,0,1.406l15.471,15.471c0.388,0.388,1.018,0.388,1.406,0l15.471-15.471
                                 C54.563,39.024,54.563,38.394,54.174,38.006z"/>
  <circle style="fill:#2B5672;" cx="11.056" cy="22.743" r="1.996"/>
  <circle style="fill:#2B5672;" cx="22.033" cy="11.766" r="1.996"/>
  <circle style="fill:#2B5672;" cx="18.042" cy="29.728" r="1.996"/>
  <circle style="fill:#2B5672;" cx="20.038" cy="20.747" r="1.996"/>
  <circle style="fill:#2B5672;" cx="29.019" cy="18.751" r="1.996"/>
  <circle style="fill:#2B5672;" cx="46.981" cy="58.667" r="1.996"/>
  <circle style="fill:#2B5672;" cx="57.958" cy="47.69" r="1.996"/>
  <circle style="fill:#2B5672;" cx="53.967" cy="65.653" r="1.996"/>
  <circle style="fill:#2B5672;" cx="55.962" cy="56.672" r="1.996"/>
  <circle style="fill:#2B5672;" cx="64.944" cy="54.676" r="1.996"/>
</svg>
