<svg xmlns="http://www.w3.org/2000/svg"
    xmlns:xlink="http://www.w3.org/1999/xlink"
    preserveAspectRatio="xMidYMid" viewBox="0 0 28 21" width="28" height="21">
  <path d="M27.888,10.836 C27.716,11.252 23.563,21.011 14.016,21.011 C4.469,21.011 0.316,11.252 0.144,10.836 C0.144,10.836 0.009,10.510 0.009,10.510 C0.009,10.510 0.144,10.184 0.144,10.184 C0.316,9.769 4.469,0.011 14.016,0.011 C23.563,0.011 27.716,9.769 27.888,10.184 C27.888,10.184 28.024,10.510 28.024,10.510 C28.024,10.510 27.888,10.836 27.888,10.836 ZM14.016,1.685 C6.469,1.685 2.588,8.876 1.804,10.509 C2.591,12.142 6.488,19.337 14.016,19.337 C21.563,19.337 25.445,12.146 26.229,10.511 C25.442,8.879 21.544,1.685 14.016,1.685 ZM14.016,15.532 C11.304,15.532 9.097,13.279 9.097,10.510 C9.097,7.741 11.304,5.489 14.016,5.489 C16.729,5.489 18.935,7.741 18.935,10.510 C18.935,13.279 16.729,15.532 14.016,15.532 ZM14.016,7.162 C12.208,7.162 10.737,8.664 10.737,10.510 C10.737,12.357 12.208,13.858 14.016,13.858 C15.825,13.858 17.296,12.357 17.296,10.510 C17.296,8.664 15.825,7.162 14.016,7.162 Z" id="path-1" class="cls-2" fill-rule="evenodd"/>
</svg>
