<svg xmlns="http://www.w3.org/2000/svg" width="28" height="21" preserveAspectRatio="xMidYMid" viewBox="0 0 28 21"><path fill-rule="evenodd" d="M27.888 10.836c-.172.416-4.325 10.175-13.872 10.175S.316 11.253.144 10.837L.01 10.51l.134-.326C.316 9.77 4.47.01 14.016.01s13.7 9.76 13.872 10.174l.136.326-.136.326zm-13.872-9.15c-7.547 0-11.428 7.19-12.212 8.823.787 1.632 4.684 8.827 12.212 8.827 7.547 0 11.43-7.19 12.213-8.826-.788-1.63-4.686-8.825-12.214-8.825zm0 13.846c-2.712 0-4.92-2.253-4.92-5.022 0-2.77 2.208-5.02 4.92-5.02 2.713 0 4.92 2.25 4.92 5.02 0 2.77-2.207 5.022-4.92 5.022zm0-8.37c-1.808 0-3.28 1.502-3.28 3.348 0 1.847 1.472 3.348 3.28 3.348 1.81 0 3.28-1.5 3.28-3.348 0-1.846-1.47-3.348-3.28-3.348z" class="cls-2"/></svg>