<svg xmlns="http://www.w3.org/2000/svg" width="49" height="65" viewBox="0 0 49 65"><g fill="none" fill-rule="evenodd"><ellipse cx="25" cy="63" fill="#D3EDFF" rx="21" ry="2"/><path fill="#3899EC" d="M24 43h2v20h-2V43z"/><path fill="#D3EDFF" d="M35.46 11H13.626C6.13 11 0 16.88 0 24.07V46h49V23.988C49 16.815 42.94 11 35.46 11"/><path fill="#4EB7F6" d="M36.46 11h-6.74C22.693 11 17 16.694 17 23.72V46h32V23.54C49 16.614 43.386 11 36.46 11"/><path stroke="#3899EC" d="M9.5 1v33"/><path fill="#3899EC" d="M0 6h10V0L0 6"/><g fill="#FFF"><path d="M33.56 33.488a4.36 4.36 0 0 1-4.357-4.357 4.362 4.362 0 0 1 4.357-4.356 4.362 4.362 0 0 1 4.357 4.357 4.36 4.36 0 0 1-4.357 4.358zm0-7.714a3.36 3.36 0 0 0-3.357 3.357 3.362 3.362 0 0 0 3.357 3.36 3.362 3.362 0 0 0 3.357-3.36 3.36 3.36 0 0 0-3.357-3.356z"/><path d="M33.58 38.63c-5.244 0-9.51-4.26-9.51-9.5 0-5.237 4.246-9.5 9.465-9.5 5.22 0 9.465 4.263 9.465 9.5v1.287c0 1.722-1.318 3.07-3 3.07s-3-1.348-3-3.07V25h1v5.417c0 1.16.88 2.072 2 2.072 1.122 0 2-.912 2-2.073V29.13c0-4.686-3.797-8.5-8.465-8.5-4.667 0-8.464 3.814-8.464 8.5 0 4.688 3.818 8.5 8.51 8.5 1.73 0 3.392-.51 4.806-1.474l.564.826a9.482 9.482 0 0 1-5.37 1.65"/></g></g></svg>