<?xml version="1.0" encoding="UTF-8" standalone="no"?>
<svg width="49px" height="65px" viewBox="0 0 49 65" version="1.1" xmlns="http://www.w3.org/2000/svg" xmlns:xlink="http://www.w3.org/1999/xlink" xmlns:sketch="http://www.bohemiancoding.com/sketch/ns">
    <!-- Generator: Sketch 3.3.2 (12043) - http://www.bohemiancoding.com/sketch -->
    <title>get_email_address</title>
    <desc>Created with Sketch.</desc>
    <defs></defs>
    <g id="Page-1" stroke="none" stroke-width="1" fill="none" fill-rule="evenodd" sketch:type="MSPage">
        <g id="get_email_address" sketch:type="MSArtboardGroup">
            <ellipse id="Oval-1" fill="#D3EDFF" sketch:type="MSShapeGroup" cx="25" cy="63" rx="21" ry="2"></ellipse>
            <path d="M24,43 L26,43 L26,63 L24,63 L24,43 Z" id="Fill-1" fill="#3899EC" sketch:type="MSShapeGroup"></path>
            <path d="M35.4603617,11 L13.6261702,11 C6.13125532,11 0,16.881 0,24.069 L0,46 L49,46 L49,23.988 C49,16.815 42.9385957,11 35.4603617,11" id="Fill-2" fill="#D3EDFF" sketch:type="MSShapeGroup"></path>
            <path d="M36.46,11 L29.719,11 C22.694,11 17,16.694 17,23.719 L17,46 L49,46 L49,23.54 C49,16.614 43.386,11 36.46,11" id="Fill-3" fill="#4EB7F6" sketch:type="MSShapeGroup"></path>
            <path d="M9.5,1 L9.5,34" id="Stroke-5" stroke="#3899EC" sketch:type="MSShapeGroup"></path>
            <path d="M-3.90798505e-14,6 L10,6 L10,0 L-3.90798505e-14,6" id="Fill-6" fill="#3899EC" sketch:type="MSShapeGroup"></path>
            <g id="Imported-Layers" sketch:type="MSLayerGroup" transform="translate(24.000000, 19.000000)" fill="#FFFFFF">
                <path d="M9.56,14.488 C7.157,14.488 5.203,12.534 5.203,10.131 C5.203,7.729 7.157,5.774 9.56,5.774 C11.963,5.774 13.917,7.729 13.917,10.131 C13.917,12.534 11.963,14.488 9.56,14.488 L9.56,14.488 Z M9.56,6.774 C7.709,6.774 6.203,8.28 6.203,10.131 C6.203,11.982 7.709,13.489 9.56,13.489 C11.411,13.489 12.917,11.982 12.917,10.131 C12.917,8.28 11.411,6.774 9.56,6.774 L9.56,6.774 Z" id="Fill-1" sketch:type="MSShapeGroup"></path>
                <path d="M9.58,19.631 C4.336,19.631 0.07,15.37 0.07,10.131 C0.07,4.893 4.316,0.631 9.535,0.631 C14.754,0.631 19,4.893 19,10.131 L19,11.417 C19,13.139 17.682,14.488 16,14.488 C14.318,14.488 13,13.139 13,11.417 L13,6 L14,6 L14,11.417 C14,12.578 14.879,13.489 16,13.489 C17.122,13.489 18,12.578 18,11.417 L18,10.131 C18,5.444 14.203,1.631 9.535,1.631 C4.868,1.631 1.071,5.444 1.071,10.131 C1.071,14.818 4.888,18.631 9.58,18.631 C11.31,18.631 12.972,18.121 14.386,17.156 L14.95,17.982 C13.369,19.061 11.513,19.631 9.58,19.631" id="Fill-2" sketch:type="MSShapeGroup"></path>
            </g>
        </g>
    </g>
</svg>