<?xml version="1.0" encoding="UTF-8" standalone="no"?>
<svg width="57px" height="55px" viewBox="0 0 57 55" version="1.1" xmlns="http://www.w3.org/2000/svg" xmlns:xlink="http://www.w3.org/1999/xlink" xmlns:sketch="http://www.bohemiancoding.com/sketch/ns">
    <!-- Generator: Sketch 3.3.2 (12043) - http://www.bohemiancoding.com/sketch -->
    <title>get_traffic</title>
    <desc>Created with Sketch.</desc>
    <defs></defs>
    <g id="Page-1" stroke="none" stroke-width="1" fill="none" fill-rule="evenodd" sketch:type="MSPage">
        <g id="get_traffic" sketch:type="MSArtboardGroup">
            <ellipse id="Oval-1" fill="#D3EDFF" sketch:type="MSShapeGroup" cx="29" cy="53" rx="23" ry="2"></ellipse>
            <path d="M15.4928445,14.1894917 C18.1982634,13.0581687 20.0976845,10.4481008 20.0976845,7.39861765 C20.0976845,3.31274084 16.6958112,0 12.5,0 C8.30318379,0 4.9013105,3.31274084 4.9013105,7.39861765 C4.9013105,10.4481008 6.80073163,13.0581687 9.50514552,14.1894917 L9.48203087,14.4977674 C4.03903361,16.3454646 0,24.170775 0,32 L25,32 C25,24.170775 20.9609664,16.3454646 15.5169641,14.4977674 L15.4928445,14.1894917" id="Fill-1" fill="#4EB7F6" sketch:type="MSShapeGroup"></path>
            <path d="M47.4938495,14.1894917 C50.1992684,13.0581687 52.0976845,10.4481008 52.0976845,7.39861765 C52.0976845,3.31274084 48.6958112,0 44.5,0 C40.3041888,0 36.9023155,3.31274084 36.9023155,7.39861765 C36.9023155,10.4481008 38.8007316,13.0581687 41.5061505,14.1894917 L41.4830359,14.4977674 C36.0390336,16.3454646 32,24.170775 32,32 L57,32 C57,24.170775 52.9609664,16.3454646 47.5169641,14.4977674 L47.4938495,14.1894917" id="Fill-2" fill="#A7E3FA" sketch:type="MSShapeGroup"></path>
            <path d="M31.4942316,20.417801 C34.1985368,19.2681957 36.0978816,16.6159488 36.0978816,13.5181801 C36.0978816,9.36528063 32.696145,6 28.5005025,6 C24.3048599,6 20.9031234,9.36528063 20.9031234,13.5181801 C20.9031234,16.6159488 22.8014632,19.2681957 25.5067733,20.417801 L25.4836596,20.4734912 C20.0398762,22.3500528 16,30.0442538 16,38 L41,38 C41,30.0442538 36.9611288,22.3500528 31.5173453,20.4734912 L31.4942316,20.417801" id="Fill-3" fill="#3899EC" sketch:type="MSShapeGroup"></path>
        </g>
    </g>
</svg>