<svg xmlns="http://www.w3.org/2000/svg" width="57" height="55" viewBox="0 0 57 55"><g fill="none" fill-rule="evenodd"><ellipse cx="29" cy="53" fill="#D3EDFF" rx="23" ry="2"/><path fill="#4EB7F6" d="M15.493 14.19c2.705-1.132 4.605-3.742 4.605-6.79 0-4.087-3.402-7.4-7.598-7.4-4.197 0-7.6 3.313-7.6 7.4 0 3.048 1.9 5.658 4.605 6.79l-.023.308C4.04 16.345 0 24.17 0 32h25c0-7.83-4.04-15.655-9.483-17.502l-.024-.31"/><path fill="#A7E3FA" d="M47.494 14.19c2.705-1.132 4.604-3.742 4.604-6.79 0-4.087-3.402-7.4-7.598-7.4s-7.598 3.313-7.598 7.4c0 3.048 1.9 5.658 4.604 6.79l-.023.308C36.04 16.345 32 24.17 32 32h25c0-7.83-4.04-15.655-9.483-17.502l-.023-.31"/><path fill="#3899EC" d="M31.494 20.418c2.705-1.15 4.604-3.802 4.604-6.9C36.098 9.365 32.696 6 28.5 6s-7.597 3.365-7.597 7.518c0 3.098 1.898 5.75 4.604 6.9l-.023.055C20.04 22.35 16 30.043 16 38h25c0-7.956-4.04-15.65-9.483-17.527l-.023-.055"/></g></svg>