<?xml version="1.0" encoding="UTF-8" standalone="no"?>
<svg width="3px" height="7px" viewBox="0 0 3 7" version="1.1" xmlns="http://www.w3.org/2000/svg" xmlns:xlink="http://www.w3.org/1999/xlink" xmlns:sketch="http://www.bohemiancoding.com/sketch/ns">
    <!-- Generator: Sketch 3.4.2 (15855) - http://www.bohemiancoding.com/sketch -->
    <title>Drag dots</title>
    <desc>Created with Sketch.</desc>
    <defs></defs>
    <g id="Drad-dots" stroke="none" stroke-width="1" fill="none" fill-rule="evenodd" sketch:type="MSPage">
        <g id="Drag-dots" sketch:type="MSArtboardGroup" fill="#FFFFFF">
            <path d="M0,2.99999274 L0.999950035,2.99999274 L0.999950035,2 L0,2 L0,2.99999274 Z" id="Page-1" sketch:type="MSShapeGroup"></path>
            <path d="M0,4.99999274 L0.999950035,4.99999274 L0.999950035,4 L0,4 L0,4.99999274 Z" id="Page-1-Copy-4" sketch:type="MSShapeGroup"></path>
            <path d="M2,4.99999274 L2.99995003,4.99999274 L2.99995003,4 L2,4 L2,4.99999274 Z" id="Page-1-Copy-5" sketch:type="MSShapeGroup"></path>
            <path d="M2,6.99999274 L2.99995003,6.99999274 L2.99995003,6 L2,6 L2,6.99999274 Z" id="Page-1-Copy-8" sketch:type="MSShapeGroup"></path>
            <path d="M0,6.99999274 L0.999950035,6.99999274 L0.999950035,6 L0,6 L0,6.99999274 Z" id="Page-1-Copy-6" sketch:type="MSShapeGroup"></path>
            <path d="M2,2.99999274 L2.99995003,2.99999274 L2.99995003,2 L2,2 L2,2.99999274 Z" id="Page-1-Copy" sketch:type="MSShapeGroup"></path>
            <path d="M0,0.999992737 L0.999950035,0.999992737 L0.999950035,0 L0,0 L0,0.999992737 Z" id="Page-1-Copy-2" sketch:type="MSShapeGroup"></path>
            <path d="M2,0.999992737 L2.99995003,0.999992737 L2.99995003,0 L2,0 L2,0.999992737 Z" id="Page-1-Copy-3" sketch:type="MSShapeGroup"></path>
        </g>
    </g>
</svg>