<?xml version="1.0" encoding="UTF-8" standalone="no"?>
<svg width="54px" height="58px" viewBox="0 0 54 58" version="1.1" xmlns="http://www.w3.org/2000/svg" xmlns:xlink="http://www.w3.org/1999/xlink" xmlns:sketch="http://www.bohemiancoding.com/sketch/ns">
    <!-- Generator: Sketch 3.3.2 (12043) - http://www.bohemiancoding.com/sketch -->
    <title>share_facebook</title>
    <desc>Created with Sketch.</desc>
    <defs></defs>
    <g id="Page-1" stroke="none" stroke-width="1" fill="none" fill-rule="evenodd" sketch:type="MSPage">
        <g id="share_facebook" sketch:type="MSArtboardGroup">
            <ellipse id="Oval-1" fill="#D3EDFF" sketch:type="MSShapeGroup" cx="27" cy="56" rx="22" ry="2"></ellipse>
            <path d="M8.568,15.916 L8,15.093 L24.092,4 L24.659,4.823 L8.568,15.916" id="Imported-Layers" fill="#5FCEF6" sketch:type="MSShapeGroup"></path>
            <path d="M28.851,27.948 L8,20.948 L8.318,20 L29.17,27 L28.851,27.948" id="Imported-Layers" fill="#4EB7F6" sketch:type="MSShapeGroup"></path>
            <path d="M28.9686771,3.50422672 C28.6946316,1.31186246 26.6955941,-0.242723103 24.5042265,0.0313224293 C22.3118624,0.305367962 20.7572769,2.30440555 21.0313224,4.49577328 C21.3053679,6.68813754 23.3044054,8.2427231 25.4967696,7.96867757 C27.6881372,7.69463204 29.2427226,5.69559445 28.9686771,3.50422672" id="Fill-3" fill="#5FCEF6" sketch:type="MSShapeGroup"></path>
            <path d="M54,29 C54,20.7164626 47.2845355,14 39,14 C30.7154645,14 24,20.7164626 24,29 C24,37.2845355 30.7154645,44 39,44 C47.2845355,44 54,37.2845355 54,29" id="Fill-5" fill="#3899EC" sketch:type="MSShapeGroup"></path>
            <path d="M11.9531563,18.256059 C11.5418385,14.9674106 8.54299133,12.6357276 5.25612965,13.0470387 C1.96834779,13.4583498 -0.36429341,16.4562279 0.0470243872,19.7439561 C0.458342185,23.0316843 3.45626922,25.3642875 6.74405107,24.9529764 C10.0318329,24.5416653 12.363554,21.542867 11.9531563,18.256059" id="Fill-6" fill="#4EB7F6" sketch:type="MSShapeGroup"></path>
            <path d="M37.1725,38 L37.1725,30 L35.1725,30 L35.1725,27 L37.1725,27 L37.1725,24.59 C37.1725,22.864 38.6385,21.279 41.2095,21.279 C42.2505,21.279 43.1955,21.379 43.1955,21.379 L43.2225,23.78 C43.2215,23.78 42.5955,23.773 41.7385,23.773 C40.8115,23.773 40.1725,24.2 40.1725,24.909 C40.1725,25.469 40.1725,24 40.1725,27 L42.7335,27 L42.6125,30 L40.1725,30 L40.1725,38 L37.1725,38" id="Fill-7" fill="#FFFFFF" sketch:type="MSShapeGroup"></path>
        </g>
    </g>
</svg>