<svg xmlns="http://www.w3.org/2000/svg" width="54" height="58" viewBox="0 0 54 58"><g fill="none" fill-rule="evenodd"><ellipse cx="27" cy="56" fill="#D3EDFF" rx="22" ry="2"/><path fill="#5FCEF6" d="M8.568 15.916L8 15.093 24.092 4l.567.823L8.567 15.916"/><path fill="#4EB7F6" d="M28.85 27.948l-20.85-7L8.318 20l20.852 7-.32.948"/><path fill="#5FCEF6" d="M28.97 3.504a4 4 0 1 0-7.938.99 4 4 0 0 0 7.937-.99"/><path fill="#3899EC" d="M54 29c0-8.284-6.715-15-15-15s-15 6.716-15 15c0 8.285 6.715 15 15 15s15-6.715 15-15"/><path fill="#4EB7F6" d="M11.953 18.256A6 6 0 1 0 .047 19.744a6 6 0 0 0 11.906-1.488"/><path fill="#FFF" d="M37.172 38v-8h-2v-3h2v-2.41c0-1.726 1.467-3.31 4.038-3.31 1.04 0 1.986.1 1.986.1l.026 2.4s-.627-.007-1.483-.007c-.928 0-1.568.427-1.568 1.136V27h2.562l-.122 3h-2.44v8h-3"/></g></svg>