<?xml version="1.0" encoding="UTF-8" standalone="no"?>
<svg width="97px" height="75px" viewBox="0 0 97 75" version="1.1" xmlns="http://www.w3.org/2000/svg" xmlns:xlink="http://www.w3.org/1999/xlink" xmlns:sketch="http://www.bohemiancoding.com/sketch/ns">
    <!-- Generator: Sketch 3.3.2 (12043) - http://www.bohemiancoding.com/sketch -->
    <title>Publish</title>
    <desc>Created with Sketch.</desc>
    <defs></defs>
    <g id="Page-1" stroke="none" stroke-width="1" fill="none" fill-rule="evenodd" sketch:type="MSPage">
        <g id="Publish" sketch:type="MSArtboardGroup">
            <path d="M8.43108163,33.4144737 L6.44258163,35.0328947 L1.56684694,29.0467105 L3.55633673,27.4282895 L8.43108163,33.4144737" id="Fill-1" fill="#8DC86F" sketch:type="MSShapeGroup"></path>
            <path d="M26.733398,0.493421053 L30.1887755,3.42631579 L21.2915,13.8039474 L17.8361224,10.8710526 L26.733398,0.493421053" id="Fill-2" fill="#B372D8" sketch:type="MSShapeGroup"></path>
            <path d="M4.4135,12.8082237 C4.40558163,13.8917763 3.52169388,14.7641447 2.43885714,14.7552632 C1.3570102,14.7473684 0.486979592,13.8611842 0.494897959,12.7776316 C0.502816327,11.6940789 1.38769388,10.8226974 2.46954082,10.8305921 C3.55138776,10.8384868 4.42240816,11.7236842 4.4135,12.8082237" id="Fill-3" fill="#F6C400" sketch:type="MSShapeGroup"></path>
            <path d="M87.5969388,35.0328947 L87.5969388,70.5592105 C87.5969388,72.7302632 85.8153061,74.5065789 83.6377551,74.5065789 L21.2806122,74.5065789 C19.1030612,74.5065789 17.3214286,72.7302632 17.3214286,70.5592105 L17.3214286,35.0328947 L87.5969388,35.0328947" id="Fill-4" fill="#D3EDFF" sketch:type="MSShapeGroup"></path>
            <path d="M17.3214286,35.0328947 L17.3214286,26.1513158 C17.3214286,23.9802632 19.1030612,22.2039474 21.2806122,22.2039474 L83.6377551,22.2039474 C85.8153061,22.2039474 87.5969388,23.9802632 87.5969388,26.1513158 L87.5969388,35.0328947 L17.3214286,35.0328947" id="Fill-5" fill="#3899EC" sketch:type="MSShapeGroup"></path>
            <path d="M31.8199592,50.3289474 L32.8305408,50.3289474 L35.0724286,59.2105263 L35.1001429,59.2105263 L37.5073265,50.3289474 L38.6841939,50.3289474 L41.1052347,59.2105263 L41.132949,59.2105263 L43.3886939,50.3289474 L44.3299898,50.3289474 L41.603102,61.1842105 L40.6073673,61.1842105 L38.1021939,52.3026316 L38.0754694,52.3026316 L35.5841531,61.1842105 L34.5607041,61.1842105 L31.8199592,50.3289474" id="Fill-6" fill="#3899EC" sketch:type="MSShapeGroup"></path>
            <path d="M45.357398,50.3289474 L46.3679796,50.3289474 L48.6098673,59.2105263 L48.6365918,59.2105263 L51.0447653,50.3289474 L52.2216327,50.3289474 L54.6426735,59.2105263 L54.6703878,59.2105263 L56.9261327,50.3289474 L57.8674286,50.3289474 L55.1405408,61.1842105 L54.1448061,61.1842105 L51.6396327,52.3026316 L51.6119184,52.3026316 L49.1215918,61.1842105 L48.0981429,61.1842105 L45.357398,50.3289474" id="Fill-7" fill="#3899EC" sketch:type="MSShapeGroup"></path>
            <path d="M58.8948367,50.3289474 L59.9054184,50.3289474 L62.1473061,59.2105263 L62.1740306,59.2105263 L64.5822041,50.3289474 L65.7590714,50.3289474 L68.1801122,59.2105263 L68.2078265,59.2105263 L70.4635714,50.3289474 L71.4048673,50.3289474 L68.6779796,61.1842105 L67.6822449,61.1842105 L65.1770714,52.3026316 L65.1493571,52.3026316 L62.6590306,61.1842105 L61.6345918,61.1842105 L58.8948367,50.3289474" id="Fill-8" fill="#3899EC" sketch:type="MSShapeGroup"></path>
            <path d="M27.5984796,28.6184211 C27.5984796,29.7167763 26.7007347,30.6078947 25.5931531,30.6078947 C24.4865612,30.6078947 23.5888163,29.7167763 23.5888163,28.6184211 C23.5888163,27.5200658 24.4865612,26.6289474 25.5931531,26.6289474 C26.7007347,26.6289474 27.5984796,27.5200658 27.5984796,28.6184211" id="Fill-9" fill="#FFFFFF" sketch:type="MSShapeGroup"></path>
            <path d="M34.6616633,28.6184211 C34.6616633,29.7167763 33.7639184,30.6078947 32.6573265,30.6078947 C31.5497449,30.6078947 30.652,29.7167763 30.652,28.6184211 C30.652,27.5200658 31.5497449,26.6289474 32.6573265,26.6289474 C33.7639184,26.6289474 34.6616633,27.5200658 34.6616633,28.6184211" id="Fill-10" fill="#FFFFFF" sketch:type="MSShapeGroup"></path>
            <path d="M91.1997959,46.4378289 L77.0506633,41.5055921 C76.2608061,41.2292763 75.5006429,41.9861842 75.7767959,42.7746711 L80.7247857,56.8815789 C81.2107755,58.2671053 82.9825102,58.6707237 84.0237755,57.6325658 L86.2983265,55.3648026 L92.8319694,61.8789474 C93.221949,62.26875 93.8544286,62.26875 94.2444082,61.8789474 L96.2121224,59.9171053 C96.6030918,59.5282895 96.6030918,58.8976974 96.2121224,58.5088816 L89.6784796,51.9947368 L91.9530306,49.7269737 C92.9942959,48.6888158 92.5894694,46.9223684 91.1997959,46.4378289" id="Fill-11" fill="#6DD0F2" sketch:type="MSShapeGroup"></path>
        </g>
    </g>
</svg>