<svg xmlns="http://www.w3.org/2000/svg" width="54" height="58" viewBox="0 0 54 58"><g fill="none" fill-rule="evenodd"><ellipse cx="27" cy="56" fill="#D3EDFF" rx="22" ry="2"/><path fill="#3899EC" d="M5.937 26.88l.62-.784 15.314 12.146-.62.783L5.937 26.88"/><path fill="#5FCEF5" d="M28.017 17.696l-20.473 8.04-.365-.93 20.472-8.04.365.93"/><path fill="#3899EC" d="M27.97 40.497a4 4 0 1 1-7.938-.993 4 4 0 0 1 7.937.993"/><path fill="#5FCEF6" d="M54 15c0 8.284-6.715 15-15 15s-15-6.716-15-15c0-8.284 6.715-15 15-15s15 6.716 15 15"/><path fill="#4EB7F6" d="M11.953 26.744a6 6 0 1 1-11.906-1.49 6 6 0 0 1 11.906 1.49"/><path fill="#FFF" d="M48.496 9.993a6.94 6.94 0 0 1-1.992.547 3.48 3.48 0 0 0 1.525-1.92 6.965 6.965 0 0 1-2.205.842 3.47 3.47 0 0 0-5.914 3.165A9.85 9.85 0 0 1 32.758 9c-.3.514-.47 1.11-.47 1.746 0 1.204.983 2.266 1.914 2.89-.57-.02-.202-.176-1.202-.435v.044c0 1.682.826 3.085 2.414 3.403-.29.08-.783.122-1.1.122-.223 0-.533-.023-.745-.063.44 1.378 1.676 2.382 3.195 2.41a7.03 7.03 0 0 1-4.334 1.486c-.28 0-.567-.017-.838-.05a9.8 9.8 0 0 0 5.314 1.56c6.384 0 9.872-5.288 9.872-9.874 0-.152-.005-.3-.012-.45.68-.49 1.265-1.1 1.73-1.797"/></g></svg>