<svg xmlns="http://www.w3.org/2000/svg" width="52" height="63" viewBox="0 0 52 63" xmlns:xlink="http://www.w3.org/1999/xlink"><defs><path id="a" d="M0 .114l19.964 12.388L40 0l-.016 24H0V.114"/></defs><g fill="none" fill-rule="evenodd"><path fill="#A7E3FA" d="M41 24.013L20.994 9 1 24.09V48h39.984L41 24.013"/><path fill="#D3EDFF" d="M41 24L20.994 36.502 1 24.077V48h39.984L41 24"/><g transform="translate(1 24)"><mask id="b" fill="#fff"><use xlink:href="#a"/></mask><path fill="#A7E3FA" d="M40.337 25L23 10.748l.664-.748L41 24.252l-.663.748M-.337 25L-1 24.252 16.336 10l.664.748L-.337 25" mask="url(#b)"/></g><path fill="#3899EC" d="M49.113 18.472L48 17.702c1.56-2.25 2.173-5.115 1.68-7.857a10.3 10.3 0 0 0-1.67-4.075L49.125 5a11.635 11.635 0 0 1 1.89 4.606c.554 3.092-.138 6.324-1.9 8.866M46.112 16.39L45 15.62a6.088 6.088 0 0 0 .962-4.51 5.9 5.9 0 0 0-.956-2.34L46.118 8a7.26 7.26 0 0 1 1.175 2.87c.346 1.925-.085 3.938-1.18 5.52M22.134 22.89c.13 0 .258.037.37.108A12.693 12.693 0 0 0 29.36 25C36.33 25 42 19.393 42 12.5 42 5.61 36.33 0 29.36 0c-6.968 0-12.638 5.608-12.638 12.5 0 2.217.597 4.397 1.727 6.305.113.19.123.424.027.624L16 24.63l5.945-1.713a.687.687 0 0 1 .19-.027"/><ellipse cx="21" cy="61" fill="#D3EDFF" rx="18" ry="2"/></g></svg>