<svg xmlns="http://www.w3.org/2000/svg" width="97" height="75" viewBox="0 0 97 75"><g fill="none" fill-rule="evenodd"><path fill="#8DC86F" d="M8.43 33.414l-1.987 1.62-4.876-5.987 1.99-1.62 4.874 5.987"/><path fill="#B372D8" d="M26.733.493l3.456 2.933-8.9 10.378-3.454-2.933L26.733.494"/><path fill="#F6C400" d="M4.413 12.808a1.96 1.96 0 1 1-3.918-.03 1.96 1.96 0 1 1 3.92.03"/><path fill="#D3EDFF" d="M87.597 35.033V70.56c0 2.17-1.782 3.947-3.96 3.947H21.282c-2.177 0-3.96-1.777-3.96-3.948V35.032h70.277"/><path fill="#3899EC" d="M17.32 35.033V26.15c0-2.17 1.783-3.946 3.96-3.946H83.64c2.177 0 3.96 1.776 3.96 3.947v8.883H17.32M31.82 50.33h1.01l2.242 8.88h.028l2.407-8.88h1.177l2.42 8.88h.03l2.255-8.88h.94l-2.727 10.854h-.996l-2.505-8.88h-.027l-2.49 8.88H34.56L31.82 50.33M45.357 50.33h1.01l2.243 8.88h.027l2.408-8.88h1.177l2.42 8.88h.028l2.256-8.88h.94l-2.725 10.854h-.995l-2.505-8.88h-.028l-2.49 8.88h-1.024l-2.74-10.855M58.895 50.33h1.01l2.242 8.88h.027l2.408-8.88h1.177l2.42 8.88h.028l2.256-8.88h.94L68.68 61.183h-.996l-2.505-8.88h-.028l-2.49 8.88h-1.025l-2.74-10.855"/><path fill="#FFF" d="M27.598 28.618c0 1.1-.897 1.99-2.005 1.99a1.997 1.997 0 0 1-2.004-1.99c0-1.098.897-1.99 2.003-1.99 1.108 0 2.005.892 2.005 1.99M34.662 28.618c0 1.1-.898 1.99-2.005 1.99a1.998 1.998 0 0 1-2.005-1.99c0-1.098.898-1.99 2.005-1.99 1.107 0 2.005.892 2.005 1.99"/><path fill="#6DD0F2" d="M91.2 46.438l-14.15-4.932c-.79-.277-1.55.48-1.273 1.27l4.948 14.106c.486 1.385 2.258 1.79 3.3.75l2.273-2.267 6.534 6.514a1 1 0 0 0 1.412 0l1.968-1.963a.992.992 0 0 0 0-1.408l-6.534-6.515 2.275-2.268c1.04-1.038.636-2.805-.753-3.29"/></g></svg>