<?xml version="1.0" encoding="UTF-8" standalone="no"?>
<svg width="54px" height="58px" viewBox="0 0 54 58" version="1.1" xmlns="http://www.w3.org/2000/svg" xmlns:xlink="http://www.w3.org/1999/xlink" xmlns:sketch="http://www.bohemiancoding.com/sketch/ns">
    <!-- Generator: Sketch 3.3.2 (12043) - http://www.bohemiancoding.com/sketch -->
    <title>share_twitter</title>
    <desc>Created with Sketch.</desc>
    <defs></defs>
    <g id="Page-1" stroke="none" stroke-width="1" fill="none" fill-rule="evenodd" sketch:type="MSPage">
        <g id="share_twitter" sketch:type="MSArtboardGroup">
            <ellipse id="Oval-1" fill="#D3EDFF" sketch:type="MSShapeGroup" cx="27" cy="56" rx="22" ry="2"></ellipse>
            <path d="M5.14954297,38.7763516 L4.58154297,37.9533516 L20.673543,26.8603516 L21.240543,27.6833516 L5.14954297,38.7763516" id="Imported-Layers" fill="#3899EC" sketch:type="MSShapeGroup" transform="translate(13.581543, 33.360352) rotate(-287.000000) translate(-13.581543, -33.360352) "></path>
            <path d="M28.105071,24.8351576 L7.25407101,17.8351576 L7.57207101,16.8871576 L28.424071,23.8871576 L28.105071,24.8351576" id="Imported-Layers" fill="#5FCEF5" sketch:type="MSShapeGroup" transform="translate(18.254071, 21.387158) rotate(-40.000000) translate(-18.254071, -21.387158) "></path>
            <path d="M27.9686771,40.4967696 C27.6946316,42.6881372 25.6955941,44.2427226 23.5042265,43.9686771 C21.3118624,43.6946316 19.7572769,41.6955941 20.0313224,39.5042265 C20.3053679,37.3118624 22.3044054,35.7572769 24.4967696,36.0313224 C26.6881372,36.3053679 28.2427226,38.3044054 27.9686771,40.4967696" id="Fill-2" fill="#3899EC" sketch:type="MSShapeGroup"></path>
            <path d="M54,15.0004991 C54,23.2837609 47.2845355,30 39,30 C30.7154645,30 24,23.2837609 24,15.0004991 C24,6.71623915 30.7154645,0 39,0 C47.2845355,0 54,6.71623915 54,15.0004991" id="Fill-4" fill="#5FCEF6" sketch:type="MSShapeGroup"></path>
            <path d="M11.9531563,26.7444648 C11.5418386,30.0324407 8.54299145,32.3642994 5.25520971,31.9529574 C1.96834814,31.5425355 -0.364292979,28.5435112 0.0470248036,25.2555352 C0.458342587,21.9675593 3.45626952,19.6357006 6.74405126,20.0470426 C10.031833,20.4583847 12.3635539,23.4564888 11.9531563,26.7444648" id="Fill-5" fill="#4EB7F6" sketch:type="MSShapeGroup"></path>
            <path d="M48.496,9.993 C47.874,10.269 47.205,10.456 46.504,10.54 C47.22,10.111 47.77,9.43 48.029,8.62 C47.359,9.017 46.616,9.306 45.825,9.462 C45.192,8.787 44.29,8.366 43.292,8.366 C41.375,8.366 39.821,9.92 39.821,11.837 C39.821,12.108 39.852,12.373 39.911,12.627 C37.027,12.483 34.47,11.101 32.758,9.001 C32.459,9.514 32.288,10.11 32.288,10.746 C32.288,11.95 33.271,13.012 34.202,13.635 C33.633,13.617 34,13.46 33,13.201 L33,13.244 C33,14.926 33.826,16.329 35.414,16.647 C35.123,16.727 34.631,16.769 34.314,16.769 C34.091,16.769 33.781,16.747 33.569,16.707 C34.011,18.085 35.246,19.089 36.765,19.117 C35.577,20.048 34.057,20.603 32.431,20.603 C32.151,20.603 31.863,20.586 31.592,20.554 C33.128,21.539 34.946,22.114 36.906,22.114 C43.29,22.114 46.778,16.825 46.778,12.239 C46.778,12.088 46.773,11.939 46.766,11.79 C47.445,11.3 48.031,10.689 48.496,9.993" id="Fill-6" fill="#FFFFFF" sketch:type="MSShapeGroup"></path>
        </g>
    </g>
</svg>