<?xml version="1.0" encoding="utf-8"?>
<svg xmlns="http://www.w3.org/2000/svg"
	xmlns:xlink="http://www.w3.org/1999/xlink"
	width="9px" height="11px" viewBox="0 0 9 11">
<path fill="rgb(45,65,79)" fill-rule="evenodd" d="M-0.31 11.5C-0.31 11.5-0.31 9.5-0.31 9.5-0.31 9.5 8.68 9.5 8.68 9.5 8.68 9.5 8.68 11.5 8.68 11.5 8.68 11.5-0.31 11.5-0.31 11.5ZM 0.36 4.87C 0.36 4.87 1.02 4.13 1.02 4.13 1.02 4.13 3.69 6.51 3.69 6.51 3.69 6.51 3.69 0.1 3.69 0.1 3.69 0.1 4.69 0.1 4.69 0.1 4.69 0.1 4.69 6.51 4.69 6.51 4.69 6.51 7.35 4.13 7.35 4.13 7.35 4.13 8.02 4.87 8.02 4.87 8.02 4.87 4.19 8.3 4.19 8.3 4.19 8.3 0.36 4.87 0.36 4.87Z"/>
</svg>