<?xml version="1.0" encoding="UTF-8" standalone="no"?>
<svg width="13px" height="15px" viewBox="0 0 13 15" version="1.1" xmlns="http://www.w3.org/2000/svg" xmlns:xlink="http://www.w3.org/1999/xlink" xmlns:sketch="http://www.bohemiancoding.com/sketch/ns">
    <!-- Generator: Sketch 3.3 (11970) - http://www.bohemiancoding.com/sketch -->
    <title>L_Delete</title>
    <desc>Created with Sketch.</desc>
    <defs></defs>
    <g id="Page-1" stroke="none" stroke-width="1" fill="none" fill-rule="evenodd" sketch:type="MSPage">
        <path d="M4,11 L5,11 L5,5 L4,5 L4,11 Z M8,11 L9,11 L9,5 L8,5 L8,11 Z M6,11 L7,11 L7,5 L6,5 L6,11 Z M9,2 L9,1.5 C9,0.701 8.248,0 7.392,0 L5.525,0 C4.684,0 4,0.673 4,1.5 L4,2 L0,2 L0,3 L1,3 L1,12 C1,13.657 2.343,15 4,15 L9,15 C10.657,15 12,13.657 12,12 L12,3 L13,3 L13,2 L9,2 L9,2 Z M5,1.5 C5,1.229 5.24,1 5.525,1 L7.392,1 C7.693,1 8,1.252 8,1.5 L8,2 L5,2 L5,1.5 L5,1.5 Z M11,12 C11,13.105 10.105,14 9,14 L4,14 C2.895,14 2,13.105 2,12 L2,3 L11,3 L11,12 L11,12 Z" id="L_Delete" fill="#1D2D3C" sketch:type="MSShapeGroup"></path>
    </g>
</svg>