<?xml version="1.0" encoding="UTF-8" standalone="no"?>
<svg width="12px" height="14px" viewBox="0 0 12 14" version="1.1" xmlns="http://www.w3.org/2000/svg" xmlns:xlink="http://www.w3.org/1999/xlink" xmlns:sketch="http://www.bohemiancoding.com/sketch/ns">
    <!-- Generator: Sketch 3.3 (11970) - http://www.bohemiancoding.com/sketch -->
    <title>L_Duplicate</title>
    <desc>Created with Sketch.</desc>
    <defs></defs>
    <g id="Page-1" stroke="none" stroke-width="1" fill="none" fill-rule="evenodd" sketch:type="MSPage">
        <path d="M8,0 L4.5,0 C3.672,0 3,0.672 3,1.5 L3,3 L1.5,3 C0.672,3 0,3.672 0,4.5 L0,12.5 C0,13.328 0.672,14 1.5,14 L7.5,14 C8.328,14 9,13.328 9,12.5 L9,11 L10.5,11 C11.328,11 12,10.328 12,9.5 L12,4 L8,0 L8,0 Z M8,1.5 L10.5,4 L8,4 L8,1.5 L8,1.5 Z M8,12.5 C8,12.776 7.776,13 7.5,13 L1.5,13 C1.224,13 1,12.776 1,12.5 L1,4.5 C1,4.224 1.224,4 1.5,4 L3,4 L3,9.5 C3,10.328 3.672,11 4.5,11 L8,11 L8,12.5 L8,12.5 Z M11,9.5 C11,9.776 10.776,10 10.5,10 L4.5,10 C4.224,10 4,9.776 4,9.5 L4,1.5 C4,1.224 4.224,1 4.5,1 L7,1 L7,4.5 C7,4.776 7.224,5 7.5,5 L11,5 L11,9.5 L11,9.5 Z" id="L_Duplicate" fill="#1D2D3C" sketch:type="MSShapeGroup"></path>
    </g>
</svg>