<svg xmlns="http://www.w3.org/2000/svg" width="12" height="13" baseProfile="full" viewBox="0 0 12 13"><path d="M10.637 5.964L9.053 7.548c-.586.587-1.33.93-2.097.97a2.795 2.795 0 0 1-2.138-.835l.565-.565c.423.423.952.626 1.532.602.568-.03 1.126-.29 1.573-.737L10.072 5.4c.935-.937.99-2.24.13-3.1-.86-.86-2.165-.807-3.1.13l-.83.827-.564-.565.828-.83C7.78.62 9.596.565 10.766 1.733c1.17 1.17 1.114 2.99-.13 4.232zm-4.03-.072c-.86-.86-2.163-.808-3.094.125L1.93 7.6c-.446.447-.707 1.004-.736 1.57-.028.578.18 1.107.605 1.53.423.425.965.643 1.53.606.566-.03 1.123-.29 1.57-.735l.808-.807.565.565-.808.81c-.646.644-1.447.97-2.23.97a2.8 2.8 0 0 1-2-.842 2.79 2.79 0 0 1-.84-2.135c.038-.764.382-1.51.968-2.094l1.584-1.584c1.24-1.24 3.056-1.294 4.226-.125l-.565.565z"/></svg>