<?xml version="1.0" encoding="UTF-8" standalone="no"?>
<svg width="18px" height="14px" viewBox="0 0 18 14" version="1.1" xmlns="http://www.w3.org/2000/svg" xmlns:xlink="http://www.w3.org/1999/xlink" xmlns:sketch="http://www.bohemiancoding.com/sketch/ns">
    <!-- Generator: Sketch 3.3 (11970) - http://www.bohemiancoding.com/sketch -->
    <title>L_Preview</title>
    <desc>Created with Sketch.</desc>
    <defs></defs>
    <g id="Page-1" stroke="none" stroke-width="1" fill="none" fill-rule="evenodd" sketch:type="MSPage">
        <path d="M17.418,7.071 C17.313,6.813 14.793,0.773 9,0.773 C3.206,0.773 0.687,6.813 0.582,7.071 L0.5,7.272 L0.582,7.474 C0.687,7.731 3.206,13.773 9,13.773 C14.793,13.773 17.313,7.731 17.418,7.474 L17.5,7.272 L17.418,7.071 L17.418,7.071 Z M9,12.737 C4.432,12.737 2.067,8.282 1.589,7.272 C2.065,6.26 4.42,1.809 9,1.809 C13.568,1.809 15.933,6.262 16.411,7.273 C15.935,8.285 13.58,12.737 9,12.737 L9,12.737 Z M9,4.164 C7.354,4.164 6.015,5.558 6.015,7.272 C6.015,8.987 7.354,10.381 9,10.381 C10.646,10.381 11.985,8.987 11.985,7.272 C11.985,5.558 10.646,4.164 9,4.164 L9,4.164 Z M9,9.345 C7.902,9.345 7.01,8.415 7.01,7.272 C7.01,6.13 7.902,5.2 9,5.2 C10.097,5.2 10.99,6.13 10.99,7.272 C10.99,8.415 10.097,9.345 9,9.345 L9,9.345 Z" id="L_Preview" fill="#1D2D3C" sketch:type="MSShapeGroup"></path>
    </g>
</svg>