<svg xmlns="http://www.w3.org/2000/svg" width="18" height="18" version="1" viewBox="0 18 18 18"><path fill="none" stroke="#1d2d3c" stroke-width="1.1" d="M16.3 28.6l-1.6.3c-.1.2-.2.5-.3.7l.8 1.3c.3.4.2.9-.1 1.2l-.9.9c-.2.2-.5.3-.8.3-.2 0-.4-.1-.6-.2l-1.3-.8c-.2.1-.4.2-.7.3l-.3 1.5c-.1.5-.5.8-.9.8H8.3c-.5 0-.8-.4-.9-.8l-.3-1.5c-.2-.1-.5-.2-.7-.3l-1.3.8c-.2.1-.4.2-.6.2-.3 0-.5-.1-.8-.3l-.9-.9c-.4-.4-.4-.8-.1-1.2l.8-1.3c-.1-.2-.2-.4-.3-.7l-1.5-.3c-.3 0-.7-.4-.7-.9v-1.3c0-.5.4-.8.8-1l1.5-.3c.1-.2.2-.5.3-.7l-.8-1.3c-.3-.4-.2-.9.1-1.2l.9-.9c.2-.2.5-.3.8-.3.2 0 .4.1.6.2l1.3.8c.2-.1.4-.2.7-.3l.3-1.5c.1-.5.5-.8.9-.8h1.4c.5 0 .8.4.9.8l.3 1.5c.2.1.5.2.7.3l1.3-.8c.2-.1.4-.2.6-.2.3 0 .6.1.8.3l.9.9c.4.4.4.8.1 1.2l-.8 1.3c.1.2.2.4.3.7l1.5.3c.5.1.8.5.8 1v1.3c-.1.4-.5.9-.9.9zm-7.2-4.1c-1.3 0-2.4 1.1-2.4 2.4 0 1.3 1.1 2.4 2.4 2.4s2.4-1.1 2.4-2.4c0-1.3-1.1-2.4-2.4-2.4z" class="st0"/></svg>