<svg xmlns="http://www.w3.org/2000/svg" width="18" height="14" viewBox="0 0 18 14"><path fill="#1D2D3C" fill-rule="evenodd" d="M17.418 7.07C17.313 6.814 14.793.774 9 .774 3.206.773.687 6.813.582 7.07L.5 7.273l.082.202c.105.257 2.624 6.3 8.418 6.3 5.793 0 8.313-6.043 8.418-6.3l.082-.202-.082-.2zM9 12.738c-4.568 0-6.933-4.455-7.41-5.465C2.064 6.26 4.42 1.81 9 1.81c4.568 0 6.933 4.452 7.41 5.463-.475 1.012-2.83 5.464-7.41 5.464zm0-8.573c-1.646 0-2.985 1.394-2.985 3.108 0 1.715 1.34 3.11 2.985 3.11 1.646 0 2.985-1.395 2.985-3.11 0-1.714-1.34-3.108-2.985-3.108zm0 5.18c-1.098 0-1.99-.93-1.99-2.072S7.902 5.2 9 5.2c1.097 0 1.99.93 1.99 2.072 0 1.143-.893 2.073-1.99 2.073z"/></svg>