<svg xmlns="http://www.w3.org/2000/svg" width="18" height="15" viewBox="0 0 18 15"><path fill="#1D2D3C" fill-rule="evenodd" d="M17.418 7.474l.082-.2-.082-.203C17.313 6.814 14.793.774 9 .774c-1.757 0-3.208.56-4.387 1.34L2.5 0 2 .5l2.034 2.034C1.73 4.34.65 6.904.582 7.07L.5 7.274l.082.2c.105.258 2.624 6.3 8.418 6.3 1.92 0 3.474-.67 4.706-1.566L16 14.5l.5-.5-2.23-2.23c2.098-1.785 3.083-4.137 3.148-4.296zM9 12.737c-4.568 0-6.933-4.455-7.41-5.465.296-.632 1.33-2.61 3.18-4.002l1.98 1.98a3.157 3.157 0 0 0-.735 2.023c0 1.714 1.34 3.108 2.985 3.108a2.9 2.9 0 0 0 2.034-.846l1.927 1.927c-1.065.74-2.376 1.277-3.96 1.277zm1.315-3.92c-.35.324-.81.528-1.315.528-1.098 0-1.99-.93-1.99-2.072 0-.498.176-.948.457-1.306l2.848 2.85zm-2.32-3.323A1.912 1.912 0 0 1 9 5.2c1.097 0 1.99.93 1.99 2.073 0 .353-.094.68-.244.973L7.994 5.494zm5.536 5.537l-2.044-2.043c.314-.492.5-1.08.5-1.714 0-1.715-1.34-3.11-2.986-3.11-.65 0-1.25.225-1.74.596L5.362 2.862C6.368 2.24 7.576 1.81 9 1.81c4.568 0 6.933 4.453 7.41 5.463-.28.597-1.22 2.387-2.88 3.758z"/></svg>