<?xml version="1.0" encoding="utf-8"?>
<!DOCTYPE svg PUBLIC "-//W3C//DTD SVG 1.1//EN" "http://www.w3.org/Graphics/SVG/1.1/DTD/svg11.dtd">
<svg version="1.1" baseProfile="full"
 xmlns="http://www.w3.org/2000/svg"
 xmlns:xlink="http://www.w3.org/1999/xlink"
 xmlns:ev="http://www.w3.org/2001/xml-events" 
  height="13px" 
  width="12px"
 viewBox="0 0 12 13"
>
<path fill="rgb( 0, 0, 0 )"
 d="M10.637,5.964 C10.637,5.964 9.053,7.548 9.053,7.548 C8.46700000000001,8.13500000000001 7.72200000000001,8.479 6.95599999999999,8.518 C6.90700000000001,8.521 6.858,8.52200000000001 6.81,8.52200000000001 C6.06399999999999,8.52200000000001 5.36199999999999,8.227 4.81800000000001,7.68300000000001 C4.81800000000001,7.68300000000001 5.38300000000001,7.11799999999999 5.38300000000001,7.11799999999999 C5.80600000000001,7.541 6.33500000000001,7.744 6.91499999999999,7.72 C7.483,7.69 8.041,7.429 8.488,6.983 C8.488,6.983 10.072,5.399 10.072,5.399 C11.007,4.46299999999999 11.062,3.15900000000001 10.201,2.29900000000001 C9.34100000000001,1.43899999999999 8.03700000000001,1.49299999999999 7.101,2.429 C7.101,2.429 6.273,3.25700000000001 6.273,3.25700000000001 C6.273,3.25700000000001 5.708,2.69199999999999 5.708,2.69199999999999 C5.708,2.69199999999999 6.536,1.863 6.536,1.863 C7.779,0.62 9.59700000000001,0.56399999999999 10.767,1.733 C11.936,2.902 11.88,4.721 10.637,5.964 ZM6.608,5.892 C5.74700000000001,5.032 4.44399999999999,5.084 3.51300000000001,6.017 C3.51300000000001,6.017 1.929,7.601 1.929,7.601 C1.48400000000001,8.047 1.22300000000001,8.604 1.19399999999999,9.17100000000001 C1.166,9.748 1.375,10.277 1.79900000000001,10.701 C2.22300000000001,11.125 2.76499999999999,11.343 3.32900000000001,11.306 C3.89599999999999,11.277 4.453,11.016 4.899,10.571 C4.899,10.571 5.708,9.76300000000001 5.708,9.76300000000001 C5.708,9.76300000000001 6.273,10.328 6.273,10.328 C6.273,10.328 5.465,11.137 5.465,11.137 C4.81899999999999,11.782 4.018,12.108 3.23400000000001,12.108 C2.50700000000001,12.108 1.79599999999999,11.829 1.23400000000001,11.266 C0.654,10.687 0.35599999999999,9.929 0.39599999999999,9.131 C0.43299999999999,8.366 0.77699999999999,7.621 1.363,7.036 C1.363,7.036 2.947,5.452 2.947,5.452 C4.18600000000001,4.211 6.00299999999999,4.158 7.173,5.327 C7.173,5.327 6.608,5.892 6.608,5.892 Z "/>
</svg>
