<?xml version="1.0" encoding="UTF-8" standalone="no"?>
<svg width="17px" height="13px" viewBox="0 0 17 13" version="1.1" xmlns="http://www.w3.org/2000/svg" xmlns:xlink="http://www.w3.org/1999/xlink" xmlns:sketch="http://www.bohemiancoding.com/sketch/ns">
    <!-- Generator: Sketch 3.3 (11970) - http://www.bohemiancoding.com/sketch -->
    <title>L_Rename</title>
    <desc>Created with Sketch.</desc>
    <defs></defs>
    <g id="Page-1" stroke="none" stroke-width="1" fill="none" fill-rule="evenodd" sketch:type="MSPage">
        <path d="M13,6 L13,4.5 C13,3.672 12.328,3 11.5,3 L5.5,3 C4.672,3 4,3.672 4,4.5 L4,6 L5,6 L5,4.5 C5,4.224 5.224,4 5.5,4 L8,4 L8,10 L7,10 L7,11 L10,11 L10,10 L9,10 L9,4 L11.5,4 C11.776,4 12,4.224 12,4.5 L12,6 L13,6 L13,6 Z M1,11 L1,2 C1,1.448 1.448,1 2,1 L4,1 L4,0 L2,0 C0.895,0 0,0.896 0,2 L0,11 C0,12.105 0.895,13 2,13 L4,13 L4,12 L2,12 C1.448,12 1,11.552 1,11 L1,11 Z M15,0 L13,0 L13,1 L15,1 C15.552,1 16,1.448 16,2 L16,11 C16,11.552 15.552,12 15,12 L13,12 L13,13 L15,13 C16.105,13 17,12.105 17,11 L17,2 C17,0.896 16.105,0 15,0 L15,0 Z" id="L_Rename" fill="#1D2D3C" sketch:type="MSShapeGroup"></path>
    </g>
</svg>