<?xml version="1.0" encoding="UTF-8" standalone="no"?>
<svg width="18px" height="18px" version="1" xmlns="http://www.w3.org/2000/svg" xmlns:xlink="http://www.w3.org/1999/xlink" x="0" y="0" viewBox="0 18 18 18" xml:space="preserve">
    <path  class="st0" fill="none" fill-rule="evenodd" stroke-width="1.1" stroke="#1d2d3c" d="M16.3,28.6l-1.6,0.3c-0.1,0.2-0.2,0.5-0.3,0.7l0.8,1.3c0.3,0.4,0.2,0.9-0.1,1.2l-0.9,0.9
    c-0.2,0.2-0.5,0.3-0.8,0.3c-0.2,0-0.4-0.1-0.6-0.2l-1.3-0.8c-0.2,0.1-0.4,0.2-0.7,0.3l-0.3,1.5c-0.1,0.5-0.5,0.8-0.9,0.8H8.3
    c-0.5,0-0.8-0.4-0.9-0.8l-0.3-1.5c-0.2-0.1-0.5-0.2-0.7-0.3l-1.3,0.8c-0.2,0.1-0.4,0.2-0.6,0.2c-0.3,0-0.5-0.1-0.8-0.3l-0.9-0.9
    c-0.4-0.4-0.4-0.8-0.1-1.2l0.8-1.3c-0.1-0.2-0.2-0.4-0.3-0.7l-1.5-0.3C1.4,28.6,1,28.2,1,27.7v-1.3c0-0.5,0.4-0.8,0.8-1l1.5-0.3
    c0.1-0.2,0.2-0.5,0.3-0.7l-0.8-1.3c-0.3-0.4-0.2-0.9,0.1-1.2l0.9-0.9c0.2-0.2,0.5-0.3,0.8-0.3c0.2,0,0.4,0.1,0.6,0.2l1.3,0.8
    c0.2-0.1,0.4-0.2,0.7-0.3l0.3-1.5c0.1-0.5,0.5-0.8,0.9-0.8h1.4c0.5,0,0.8,0.4,0.9,0.8l0.3,1.5c0.2,0.1,0.5,0.2,0.7,0.3l1.3-0.8
    c0.2-0.1,0.4-0.2,0.6-0.2c0.3,0,0.6,0.1,0.8,0.3l0.9,0.9c0.4,0.4,0.4,0.8,0.1,1.2l-0.8,1.3c0.1,0.2,0.2,0.4,0.3,0.7l1.5,0.3
    c0.5,0.1,0.8,0.5,0.8,1v1.3C17.1,28.1,16.7,28.6,16.3,28.6z M9.1,24.5c-1.3,0-2.4,1.1-2.4,2.4c0,1.3,1.1,2.4,2.4,2.4
    s2.4-1.1,2.4-2.4C11.5,25.6,10.4,24.5,9.1,24.5z" />
</svg>
