<svg xmlns="http://www.w3.org/2000/svg" xmlns:xlink="http://www.w3.org/1999/xlink" preserveAspectRatio="xMidYMid" width="11" height="13" viewBox="0 0 11 13">  <path d="M4.423,7.747 C4.423,7.747 5.078,6.991 5.078,6.991 C5.078,6.991 2.054,4.098 2.054,4.098 C2.054,4.098 8.250,4.098 8.250,4.098 C9.077,4.098 9.750,5.042 9.750,5.869 C9.750,5.869 9.750,12.369 9.750,12.369 C9.750,12.369 10.750,12.369 10.750,12.369 C10.750,12.369 10.750,5.869 10.750,5.869 C10.750,4.490 9.629,3.369 8.250,3.369 C8.250,3.369 2.107,3.369 2.107,3.369 C2.107,3.369 5.081,0.744 5.081,0.744 C5.081,0.744 4.419,-0.006 4.419,-0.006 C4.419,-0.006 -0.009,3.902 -0.009,3.902 C-0.009,3.902 4.423,7.747 4.423,7.747 Z" id="path-1" class="cls-2" fill-rule="evenodd"/></svg>