<?xml version="1.0" encoding="utf-8"?>
<svg xmlns="http://www.w3.org/2000/svg"
	xmlns:xlink="http://www.w3.org/1999/xlink"
	width="12px" height="12px" viewBox="0 0 12 12">
<path fill="rgb(255,255,255)" fill-rule="evenodd" d="M 11.14 12C 11.14 12 11.14 9.14 11.14 9.14 11.14 9.14 9.29 11.9 5.81 11.9 2.61 11.9 0.01 9.43 0.01 6 0.01 6 0.87 6 0.87 6 0.87 8.57 3.09 11.04 5.81 11.04 7.61 11.04 9.62 10.05 10.5 8.5 10.5 8.5 7.71 8.46 7.71 8.46 7.71 8.46 7.71 7.71 7.71 7.71 7.71 7.71 12 7.71 12 7.71 12 7.71 12 12 12 12 12 12 11.14 12 11.14 12ZM 6.2 0.96C 4.4 0.96 2.38 1.95 1.51 3.5 1.51 3.5 4.29 3.54 4.29 3.54 4.29 3.54 4.29 4.29 4.29 4.29 4.29 4.29 0 4.29 0 4.29 0 4.29 0 0 0 0 0 0 0.86 0 0.86 0 0.86 0 0.86 2.86 0.86 2.86 0.86 2.86 2.72 0.1 6.2 0.1 9.39 0.1 12 2.57 12 6 12 6 11.14 6 11.14 6 11.14 3.43 8.92 0.96 6.2 0.96Z"/>
</svg>