<svg xmlns="http://www.w3.org/2000/svg"
    xmlns:xlink="http://www.w3.org/1999/xlink"
    preserveAspectRatio="xMidYMid" viewBox="0 0 28 26" width="28" height="26">
  <path d="M10.828,-0.012 C16.816,-0.012 21.687,4.376 21.687,10.264 C21.687,10.264 21.687,16.550 21.687,16.550 C21.687,16.550 26.593,11.681 26.593,11.681 C26.593,11.681 28.021,13.154 28.021,13.154 C28.021,13.154 20.667,20.135 20.667,20.135 C20.667,20.135 12.477,13.091 12.477,13.091 C12.477,13.091 14.150,11.681 14.150,11.681 C14.150,11.681 19.713,16.550 19.713,16.550 C19.713,16.550 19.713,10.446 19.713,10.446 C19.713,4.810 15.727,1.927 10.828,1.927 C5.929,1.927 1.944,5.293 1.944,8.567 C1.944,8.567 1.944,25.964 1.944,25.964 C1.944,25.964 -0.030,25.964 -0.030,25.964 C-0.030,25.964 -0.030,8.506 -0.030,8.506 C-0.030,3.657 4.841,-0.012 10.828,-0.012 Z" id="path-1" class="cls-2" fill-rule="evenodd"/>
</svg>
