<?xml version="1.0" encoding="utf-8"?>
<svg xmlns="http://www.w3.org/2000/svg"
	xmlns:xlink="http://www.w3.org/1999/xlink"
	width="9px" height="10px" viewBox="0 0 9 10">
<path fill="rgb(45,65,79)" fill-rule="evenodd" d="M-0.31 10C-0.31 10-0.31 9-0.31 9-0.31 9 8.68 9 8.68 9 8.68 9 8.68 10 8.68 10 8.68 10-0.31 10-0.31 10ZM 0.36 4.37C 0.36 4.37 1.02 3.63 1.02 3.63 1.02 3.63 3.69 6.01 3.69 6.01 3.69 6.01 3.69 4 3.69 4 3.69 4 4.69 4 4.69 4 4.69 4 4.69 6.01 4.69 6.01 4.69 6.01 7.35 3.63 7.35 3.63 7.35 3.63 8.02 4.37 8.02 4.37 8.02 4.37 4.19 7.8 4.19 7.8 4.19 7.8 0.36 4.37 0.36 4.37ZM 3.69 1.75C 3.69 1.75 4.69 1.75 4.69 1.75 4.69 1.75 4.69 3 4.69 3 4.69 3 3.69 3 3.69 3 3.69 3 3.69 1.75 3.69 1.75ZM 3.69-0.25C 3.69-0.25 4.69-0.25 4.69-0.25 4.69-0.25 4.69 0.75 4.69 0.75 4.69 0.75 3.69 0.75 3.69 0.75 3.69 0.75 3.69-0.25 3.69-0.25Z"/>
</svg>