<svg xmlns="http://www.w3.org/2000/svg" xmlns:xlink="http://www.w3.org/1999/xlink" width="51" height="51" viewBox="0 0 51 51">
  
  <g id="group-1">
    <path d="M30.500,35.000 C30.500,35.000 30.500,30.000 30.500,30.000 C30.500,30.000 35.500,30.000 35.500,30.000 C35.500,30.000 35.500,35.000 35.500,35.000 C35.500,35.000 30.500,35.000 30.500,35.000 ZM30.500,23.000 C30.500,23.000 35.500,23.000 35.500,23.000 C35.500,23.000 35.500,28.000 35.500,28.000 C35.500,28.000 30.500,28.000 30.500,28.000 C30.500,28.000 30.500,23.000 30.500,23.000 ZM30.500,16.000 C30.500,16.000 35.500,16.000 35.500,16.000 C35.500,16.000 35.500,21.000 35.500,21.000 C35.500,21.000 30.500,21.000 30.500,21.000 C30.500,21.000 30.500,16.000 30.500,16.000 ZM27.500,35.000 C27.500,35.000 17.500,35.000 17.500,35.000 C16.948,35.000 16.500,34.552 16.500,34.000 C16.500,34.000 16.500,17.000 16.500,17.000 C16.500,16.448 16.948,16.000 17.500,16.000 C17.500,16.000 27.500,16.000 27.500,16.000 C28.052,16.000 28.500,16.448 28.500,17.000 C28.500,17.000 28.500,34.000 28.500,34.000 C28.500,34.552 28.052,35.000 27.500,35.000 Z" id="path-1" class="cls-5" fill-rule="evenodd"/>
  </g>
</svg>
