<?xml version="1.0" encoding="utf-8"?>
<svg xmlns="http://www.w3.org/2000/svg"
	xmlns:xlink="http://www.w3.org/1999/xlink"
	width="13px" height="11px" viewBox="0 0 13 11">
<path fill="rgb(65,83,97)" fill-rule="evenodd" d="M 7.68 0.5C 4.87 0.5 2.5 2.79 2.5 5.5 2.5 5.5 2.5 6.96 2.5 6.96 2.5 6.96 0.81 5.61 0.81 5.61 0.81 5.61 0.19 6.39 0.19 6.39 0.19 6.39 3 8.64 3 8.64 3 8.64 5.81 6.39 5.81 6.39 5.81 6.39 5.18 5.61 5.18 5.61 5.18 5.61 3.5 6.96 3.5 6.96 3.5 6.96 3.5 5.5 3.5 5.5 3.5 3.33 5.35 1.5 7.62 1.5 9.88 1.5 11.74 3.33 11.74 5.5 11.74 7.67 9.49 9.5 7.49 9.5 7.49 9.5 7.49 10.5 7.49 10.5 10.49 10.5 12.74 8.21 12.74 5.5 12.74 2.79 10.49 0.5 7.68 0.5Z"/>
</svg>
