<?xml version="1.0" encoding="utf-8"?>
<svg xmlns="http://www.w3.org/2000/svg"
	xmlns:xlink="http://www.w3.org/1999/xlink"
	width="5px" height="5px" viewBox="0 0 5 5">
<path fill="rgb(237,89,81)" fill-rule="evenodd" d="M 4.02 5C 4.02 5 4.02 4.01 4.02 4.01 4.02 4.01 5.01 4.01 5.01 4.01 5.01 4.01 5.01 5 5.01 5 5.01 5 4.02 5 4.02 5ZM 3.99-0.02C 3.99-0.02 4.98-0.02 4.98-0.02 4.98-0.02 4.98 0.97 4.98 0.97 4.98 0.97 3.99 0.97 3.99 0.97 3.99 0.97 3.99-0.02 3.99-0.02ZM 2.99 3.01C 2.99 3.01 3.98 3.01 3.98 3.01 3.98 3.01 3.98 4 3.98 4 3.98 4 2.99 4 2.99 4 2.99 4 2.99 3.01 2.99 3.01ZM 2.99 0.98C 2.99 0.98 3.98 0.98 3.98 0.98 3.98 0.98 3.98 1.97 3.98 1.97 3.98 1.97 2.99 1.97 2.99 1.97 2.99 1.97 2.99 0.98 2.99 0.98ZM 1.99 1.98C 1.99 1.98 2.98 1.98 2.98 1.98 2.98 1.98 2.98 2.97 2.98 2.97 2.98 2.97 1.99 2.97 1.99 2.97 1.99 2.97 1.99 1.98 1.99 1.98ZM 1.02 0.95C 1.02 0.95 2.01 0.95 2.01 0.95 2.01 0.95 2.01 1.94 2.01 1.94 2.01 1.94 1.02 1.94 1.02 1.94 1.02 1.94 1.02 0.95 1.02 0.95ZM 0.02-0.05C 0.02-0.05 1.01-0.05 1.01-0.05 1.01-0.05 1.01 0.94 1.01 0.94 1.01 0.94 0.02 0.94 0.02 0.94 0.02 0.94 0.02-0.05 0.02-0.05ZM 0.98 5C 0.98 5-0.01 5-0.01 5-0.01 5-0.01 4.01-0.01 4.01-0.01 4.01 0.98 4.01 0.98 4.01 0.98 4.01 0.98 5 0.98 5ZM 1.98 4C 1.98 4 0.99 4 0.99 4 0.99 4 0.99 3.01 0.99 3.01 0.99 3.01 1.98 3.01 1.98 3.01 1.98 3.01 1.98 4 1.98 4Z"/>
</svg>