<svg xmlns="http://www.w3.org/2000/svg"
    xmlns:xlink="http://www.w3.org/1999/xlink"
    preserveAspectRatio="xMidYMid" viewBox="0 0 28 28" width="28" height="28">
  <path d="M25.000,28.000 C25.000,28.000 21.000,28.000 21.000,28.000 C21.000,28.000 7.000,28.000 7.000,28.000 C7.000,28.000 3.000,28.000 3.000,28.000 C1.346,28.000 0.000,26.654 0.000,25.000 C0.000,25.000 0.000,3.000 0.000,3.000 C0.000,1.346 1.346,0.000 3.000,0.000 C3.000,0.000 18.000,0.000 18.000,0.000 C18.000,0.000 28.000,8.000 28.000,8.000 C28.000,8.000 28.000,25.000 28.000,25.000 C28.000,26.654 26.654,28.000 25.000,28.000 ZM8.000,26.000 C8.000,26.000 20.000,26.000 20.000,26.000 C20.000,26.000 20.000,16.000 20.000,16.000 C20.000,16.000 8.000,16.000 8.000,16.000 C8.000,16.000 8.000,26.000 8.000,26.000 ZM26.000,8.000 C26.000,8.000 17.920,2.000 17.920,2.000 C17.920,2.000 3.000,2.000 3.000,2.000 C2.448,2.000 2.000,2.448 2.000,3.000 C2.000,3.000 2.000,25.000 2.000,25.000 C2.000,25.552 2.448,26.000 3.000,26.000 C3.000,26.000 6.000,26.000 6.000,26.000 C6.000,26.000 6.000,15.000 6.000,15.000 C6.000,14.447 6.447,14.000 7.000,14.000 C7.000,14.000 21.000,14.000 21.000,14.000 C21.553,14.000 22.000,14.447 22.000,15.000 C22.000,15.000 22.000,26.000 22.000,26.000 C22.000,26.000 25.000,26.000 25.000,26.000 C25.552,26.000 26.000,25.552 26.000,25.000 C26.000,25.000 26.000,8.000 26.000,8.000 ZM10.000,20.000 C10.000,20.000 18.000,20.000 18.000,20.000 C18.000,20.000 18.000,22.000 18.000,22.000 C18.000,22.000 10.000,22.000 10.000,22.000 C10.000,22.000 10.000,20.000 10.000,20.000 Z" id="path-1" class="cls-2" fill-rule="evenodd"/>
</svg>
