<svg xmlns="http://www.w3.org/2000/svg" width="86" height="100" viewBox="0 0 86 100"><g fill="none" fill-rule="evenodd"><path fill="#2B5672" d="M66 72a6 6 0 0 1-6 6H6a6 6 0 0 1-6-6V21a6 6 0 0 1 6-6h54a6 6 0 0 1 6 6v51"/><path fill="#7992A5" d="M49 78H17V54a4 4 0 0 1 4-4h24a4 4 0 0 1 4 4v24"/><path fill="#FFF" d="M23 63h20v3H23v-3z"/><path fill="#A7E3FA" d="M77.367 19.083c-.76-3.852-4.055-7.708-9.918-6.592C65.832 5.33 59.426-.024 51.754-.024c-7.018 0-12.97 4.485-15.173 10.73-7 .315-12.582 5.72-12.582 12.777C24 30.74 29.845 36 37.125 36h39.902C81.983 36 86 32.473 86 27.533c0-4.826-3.836-8.27-8.633-8.45"/><path fill="#2B5672" d="M49.528 27.683l10.31-11.327a1.41 1.41 0 0 0-.032-1.964 1.34 1.34 0 0 0-1.922.03L48.6 24.775l-3.72-4.213a1.343 1.343 0 0 0-1.918-.142 1.377 1.377 0 0 0-.124 1.933l4.693 5.282c.595.532 1.262.657 1.998.048"/><path fill="#D9E1E8" d="M58 97.5c0 1.38-11.64 2.5-26 2.5S6 98.88 6 97.5 17.64 95 32 95s26 1.12 26 2.5"/></g></svg>