<?xml version="1.0" encoding="UTF-8" standalone="no"?>
<svg width="86px" height="100px" viewBox="0 0 86 100" version="1.1" xmlns="http://www.w3.org/2000/svg" xmlns:xlink="http://www.w3.org/1999/xlink" xmlns:sketch="http://www.bohemiancoding.com/sketch/ns">
    <g id="Page-1" stroke="none" stroke-width="1" fill="none" fill-rule="evenodd" sketch:type="MSPage">
        <g id="save_your_work-clipart" sketch:type="MSArtboardGroup">
            <path d="M66,72 C66,75.314 63.314,78 60,78 L6,78 C2.686,78 0,75.314 0,72 L0,21 C0,17.686 2.686,15 6,15 L60,15 C63.314,15 66,17.686 66,21 L66,72" id="Fill-1" fill="#2B5672" sketch:type="MSShapeGroup"></path>
            <path d="M49,78 L17,78 L17,54 C17,51.791 18.791,50 21,50 L45,50 C47.209,50 49,51.791 49,54 L49,78" id="Fill-2" fill="#7992A5" sketch:type="MSShapeGroup"></path>
            <path d="M23,63 L43,63 L43,66 L23,66 L23,63 Z" id="Fill-3" fill="#FFFFFF" sketch:type="MSShapeGroup"></path>
            <path d="M77.367,19.083 C76.607,15.231 73.312,11.375 67.449,12.491 C65.833,5.329 59.427,-0.025 51.755,-0.025 C44.737,-0.025 38.785,4.46 36.582,10.705 C29.582,11.02 24,16.426 24,23.482 C24,30.739 29.845,36 37.125,36 L77.027,36 C81.983,36 86,32.473 86,27.533 C86,22.707 82.164,19.262 77.367,19.083" id="Fill-4" fill="#A7E3FA" sketch:type="MSShapeGroup"></path>
            <path d="M49.528,27.683 L59.838,16.356 C60.359,15.805 60.346,14.925 59.806,14.392 C59.267,13.858 58.407,13.871 57.884,14.422 L48.6,24.775 L44.881,20.562 C44.385,19.987 43.526,19.915 42.962,20.42 C42.399,20.927 42.342,21.777 42.838,22.353 L47.531,27.635 C48.125,28.167 48.792,28.292 49.528,27.683" id="Fill-5" fill="#2B5672" sketch:type="MSShapeGroup"></path>
            <path d="M58,97.5 C58,98.881 46.359,100 32,100 C17.641,100 6,98.881 6,97.5 C6,96.119 17.641,95 32,95 C46.359,95 58,96.119 58,97.5" id="Fill-6" fill="#D9E1E8" sketch:type="MSShapeGroup"></path>
        </g>
    </g>
</svg>
