<?xml version="1.0" encoding="utf-8"?>
<!-- Generator: Adobe Illustrator 18.0.0, SVG Export Plug-In . SVG Version: 6.00 Build 0)  -->
<!DOCTYPE svg PUBLIC "-//W3C//DTD SVG 1.1//EN" "http://www.w3.org/Graphics/SVG/1.1/DTD/svg11.dtd">
<svg version="1.1" id="Layer_1" xmlns="http://www.w3.org/2000/svg" xmlns:xlink="http://www.w3.org/1999/xlink" x="0px" y="0px"
	 viewBox="0 0 36 36" enable-background="new 0 0 36 36" xml:space="preserve" width="36" height="36">
<g>
	<g>
		<g>
			<path fill="#1D2D3C" d="M23.1,24.1l-4.7-11.2l-1-0.9h-3l-1,0.8L8.7,24.2C8.5,24.5,8.8,25,9.1,25H12c0.2,0,0.4-0.1,0.5-0.3
				l0.9-2.7h5l0.9,2.7c0.1,0.2,0.3,0.3,0.5,0.3h2.9C23,25,23.2,24.4,23.1,24.1z M14.4,19l1.5-3.6l1.5,3.6H14.4z"/>
		</g>
	</g>
	<polygon fill="#1D2D3C" points="25,13 25,11 23,11 23,13 21,13 21,15 23,15 23,17 25,17 25,15 27,15 27,13 	"/>
</g>
</svg>
