<?xml version="1.0" encoding="UTF-8" standalone="no"?>
<svg width="24px" height="24px" viewBox="-1 -1 24 24" version="1.1" xmlns="http://www.w3.org/2000/svg" xmlns:xlink="http://www.w3.org/1999/xlink" xmlns:sketch="http://www.bohemiancoding.com/sketch/ns">
    <!-- Generator: Sketch 3.3 (11970) - http://www.bohemiancoding.com/sketch -->
    <title>Fill-1 + Fill-2</title>
    <desc>Created with Sketch.</desc>
    <defs></defs>
    <g id="Page-1" stroke="none" stroke-width="1" fill="none" fill-rule="evenodd" sketch:type="MSPage">
        <g id="Fill-1-+-Fill-2" sketch:type="MSLayerGroup">
            <path d="M11,0 L11,0 C17.0328889,0 21.9234074,4.89051852 21.9234074,10.9234074 C21.9234074,16.9562963 17.0328889,21.8476296 11,21.8476296 C4.96711111,21.8476296 0.0765925926,16.9562963 0.0765925926,10.9234074 C0.0765925926,4.89051852 4.96711111,0 11,0" id="Fill-1" stroke="#FFFFFF" stroke-width="2" fill="#0C9EEB" sketch:type="MSShapeGroup"></path>
            <path d="M7.00903704,11.2786667 C7.04,11.4913333 7.15325926,11.6917778 7.34311111,11.8302963 L10.1232593,13.8567407 C10.4988889,14.1321481 11.0301481,14.058 11.3137037,13.692963 L14.8255556,9.16340741 C15.1107407,8.79674074 15.0374074,8.27281481 14.6617778,7.99414815 C14.286963,7.71466667 13.7516296,7.78718519 13.4664444,8.15385185 L10.4662963,12.0234074 L8.36488889,10.494 C7.98681481,10.2177778 7.4522963,10.2927407 7.17037037,10.6626667 C7.03022222,10.846 6.97888889,11.0676296 7.00903704,11.2786667" id="Fill-2" fill="#FFFFFF" sketch:type="MSShapeGroup"></path>
        </g>
    </g>
</svg>