<svg xmlns="http://www.w3.org/2000/svg" width="24" height="24" viewBox="-1 -1 24 24"><g fill="none" fill-rule="evenodd"><path fill="#0C9EEB" stroke="#FFF" stroke-width="2" d="M11 0c6.033 0 10.923 4.89 10.923 10.923S17.033 21.848 11 21.848.077 16.956.077 10.923C.077 4.89 4.967 0 11 0"/><path fill="#FFF" d="M7.01 11.28c.03.21.143.412.333.55l2.78 2.027c.376.275.907.2 1.19-.164l3.513-4.53a.822.822 0 0 0-.164-1.17.865.865 0 0 0-1.196.16l-3 3.87-2.1-1.53a.865.865 0 0 0-1.196.17.82.82 0 0 0-.16.616"/></g></svg>