<svg xmlns="http://www.w3.org/2000/svg" xmlns:xlink="http://www.w3.org/1999/xlink" preserveAspectRatio="xMidYMid" width="22" height="22" viewBox="0 0 22 22">
    <path d="M20.364,9.439 C20.364,9.439 17.242,9.439 17.242,9.439 C17.242,9.439 17.242,6.318 17.242,6.318 C17.242,5.457 16.556,4.758 15.694,4.758 C15.694,4.758 15.682,4.758 15.682,4.758 C15.682,4.758 12.561,4.758 12.561,4.758 C12.561,4.758 12.561,1.636 12.561,1.636 C12.561,0.775 11.861,0.076 11.000,0.076 C11.000,0.076 1.636,0.076 1.636,0.076 C0.775,0.076 0.076,0.775 0.076,1.636 C0.076,1.636 0.076,11.000 0.076,11.000 C0.076,11.861 0.775,12.561 1.636,12.561 C1.636,12.561 4.758,12.561 4.758,12.561 C4.758,12.561 4.758,15.682 4.758,15.682 C4.758,16.543 5.457,17.242 6.318,17.242 C6.318,17.242 9.439,17.242 9.439,17.242 C9.439,17.242 9.439,20.364 9.439,20.364 C9.439,21.225 10.139,21.924 11.000,21.924 C11.000,21.924 20.364,21.924 20.364,21.924 C21.225,21.924 21.924,21.225 21.924,20.364 C21.924,20.364 21.924,11.000 21.924,11.000 C21.924,10.139 21.225,9.439 20.364,9.439 ZM11.000,4.758 C11.000,4.758 7.091,4.758 7.091,4.758 C7.091,4.758 9.826,2.022 9.826,2.022 C9.826,2.022 9.439,1.636 9.439,1.636 C9.439,1.636 11.000,1.636 11.000,1.636 C11.000,1.636 11.000,4.758 11.000,4.758 ZM3.985,1.636 C3.985,1.636 1.636,3.985 1.636,3.985 C1.636,3.985 1.636,1.636 1.636,1.636 C1.636,1.636 3.985,1.636 3.985,1.636 ZM1.636,11.000 C1.636,11.000 1.636,9.439 1.636,9.439 C1.636,9.439 2.024,9.825 2.024,9.825 C2.024,9.825 4.758,7.091 4.758,7.091 C4.758,7.091 4.758,11.000 4.758,11.000 C4.758,11.000 1.636,11.000 1.636,11.000 ZM4.758,6.318 C4.758,6.318 4.371,5.933 4.371,5.933 C4.371,5.933 1.636,8.667 1.636,8.667 C1.636,8.667 1.636,4.758 1.636,4.758 C1.636,4.758 2.024,5.143 2.024,5.143 C2.024,5.143 5.145,2.022 5.145,2.022 C5.145,2.022 4.758,1.636 4.758,1.636 C4.758,1.636 8.667,1.636 8.667,1.636 C8.667,1.636 5.931,4.372 5.931,4.372 C5.931,4.372 6.318,4.758 6.318,4.758 C5.457,4.758 4.758,5.457 4.758,6.318 ZM9.439,11.000 C9.439,11.000 9.439,15.682 9.439,15.682 C9.439,15.682 6.318,15.682 6.318,15.682 C6.318,15.682 6.318,6.318 6.318,6.318 C6.318,6.318 15.682,6.318 15.682,6.318 C15.682,6.318 15.682,9.439 15.682,9.439 C15.682,9.439 11.000,9.439 11.000,9.439 C10.139,9.439 9.439,10.139 9.439,11.000 ZM20.364,20.364 C20.364,20.364 11.000,20.364 11.000,20.364 C11.000,20.364 11.000,11.000 11.000,11.000 C11.000,11.000 20.364,11.000 20.364,11.000 C20.364,11.000 20.364,20.364 20.364,20.364 Z" id="path-1" class="cls-4" fill-rule="evenodd"/>
</svg>
