<svg xmlns="http://www.w3.org/2000/svg" width="22" height="22" preserveAspectRatio="xMidYMid" viewBox="0 0 22 22"><path fill-rule="evenodd" d="M20.364 9.44h-3.122V6.317c0-.86-.686-1.56-1.548-1.56h-.012-3.12V1.636c0-.86-.7-1.56-1.562-1.56H1.636c-.86 0-1.56.7-1.56 1.56V11c0 .86.7 1.56 1.56 1.56h3.122v3.122c0 .86.7 1.56 1.56 1.56h3.12v3.122c0 .86.7 1.56 1.562 1.56h9.364c.86 0 1.56-.7 1.56-1.56V11c0-.86-.7-1.56-1.56-1.56zM11 4.757H7.09l2.736-2.736-.387-.386H11v3.122zM3.985 1.636l-2.35 2.35v-2.35h2.35zM1.635 11V9.44l.39.385L4.757 7.09V11H1.636zM4.76 6.318l-.387-.385-2.734 2.734v-3.91l.388.386 3.12-3.12-.386-.387h3.91L5.93 4.372l.388.386c-.86 0-1.56.7-1.56 1.56zM9.438 11v4.682H6.32V6.318h9.364v3.12H11c-.86 0-1.56.7-1.56 1.562zm10.926 9.364H11V11h9.364v9.364z" class="cls-4"/></svg>