<svg xmlns="http://www.w3.org/2000/svg" width="18" height="18" viewBox="0 0 18 18"><path fill="#2D414F" fill-rule="evenodd" d="M17.1 10.73l-1.71.34c-.08.25-.18.49-.3.72l.97 1.45c.29.44.24 1.03-.14 1.4l-1.07 1.07c-.21.22-.5.33-.79.33-.21 0-.42-.06-.61-.19L12 14.89c-.23.11-.47.21-.72.29l-.34 1.71c-.1.52-.56.9-1.09.9H8.33c-.53 0-.98-.38-1.09-.9l-.34-1.71a6.37 6.37 0 0 1-.72-.29l-1.44.96a1.105 1.105 0 0 1-1.41-.14l-1.07-1.07a1.12 1.12 0 0 1-.14-1.4l.97-1.45c-.12-.23-.22-.47-.3-.72l-1.71-.34c-.52-.1-.89-.56-.89-1.09V8.13c0-.53.37-.99.89-1.1l1.71-.34c.08-.24.18-.48.3-.71l-.97-1.45c-.29-.44-.23-1.03.14-1.41l1.07-1.07c.22-.21.5-.32.79-.32.21 0 .43.06.62.18l1.44.97c.24-.11.47-.21.72-.3L7.24.87c.11-.52.56-.89 1.09-.89h1.52c.53 0 .99.37 1.09.89l.34 1.71c.25.09.49.19.72.3l1.45-.97c.18-.12.4-.18.61-.18.29 0 .58.11.79.32l1.07 1.07c.38.38.43.97.14 1.41l-.97 1.45c.12.23.22.47.3.71l1.71.34c.52.11.89.57.89 1.1v1.51c0 .53-.37.99-.89 1.09zM9.06 6.19c-1.5 0-2.71 1.21-2.71 2.71 0 1.49 1.21 2.71 2.71 2.71s2.71-1.22 2.71-2.71c0-1.5-1.21-2.71-2.71-2.71z"/></svg>