<?xml version="1.0" encoding="utf-8"?>
<svg xmlns="http://www.w3.org/2000/svg"
	xmlns:xlink="http://www.w3.org/1999/xlink"
	width="18px" height="18px" viewBox="0 0 18 18">
<path fill="rgb(45,65,79)" fill-rule="evenodd" d="M 17.1 10.73C 17.1 10.73 15.39 11.07 15.39 11.07 15.31 11.32 15.21 11.56 15.09 11.79 15.09 11.79 16.06 13.24 16.06 13.24 16.35 13.68 16.3 14.27 15.92 14.64 15.92 14.64 14.85 15.71 14.85 15.71 14.64 15.93 14.35 16.04 14.06 16.04 13.85 16.04 13.64 15.98 13.45 15.85 13.45 15.85 12 14.89 12 14.89 11.77 15 11.53 15.1 11.28 15.18 11.28 15.18 10.94 16.89 10.94 16.89 10.84 17.41 10.38 17.79 9.85 17.79 9.85 17.79 8.33 17.79 8.33 17.79 7.8 17.79 7.35 17.41 7.24 16.89 7.24 16.89 6.9 15.18 6.9 15.18 6.65 15.1 6.42 15 6.18 14.89 6.18 14.89 4.74 15.85 4.74 15.85 4.55 15.98 4.33 16.04 4.12 16.04 3.83 16.04 3.55 15.93 3.33 15.71 3.33 15.71 2.26 14.64 2.26 14.64 1.89 14.27 1.83 13.68 2.12 13.24 2.12 13.24 3.09 11.79 3.09 11.79 2.97 11.56 2.87 11.32 2.79 11.07 2.79 11.07 1.08 10.73 1.08 10.73 0.56 10.63 0.19 10.17 0.19 9.64 0.19 9.64 0.19 8.13 0.19 8.13 0.19 7.6 0.56 7.14 1.08 7.03 1.08 7.03 2.79 6.69 2.79 6.69 2.87 6.45 2.97 6.21 3.09 5.98 3.09 5.98 2.12 4.53 2.12 4.53 1.83 4.09 1.89 3.5 2.26 3.12 2.26 3.12 3.33 2.05 3.33 2.05 3.55 1.84 3.83 1.73 4.12 1.73 4.33 1.73 4.55 1.79 4.74 1.91 4.74 1.91 6.18 2.88 6.18 2.88 6.42 2.77 6.65 2.67 6.9 2.58 6.9 2.58 7.24 0.87 7.24 0.87 7.35 0.35 7.8-0.02 8.33-0.02 8.33-0.02 9.85-0.02 9.85-0.02 10.38-0.02 10.84 0.35 10.94 0.87 10.94 0.87 11.28 2.58 11.28 2.58 11.53 2.67 11.77 2.77 12 2.88 12 2.88 13.45 1.91 13.45 1.91 13.63 1.79 13.85 1.73 14.06 1.73 14.35 1.73 14.64 1.84 14.85 2.05 14.85 2.05 15.92 3.12 15.92 3.12 16.3 3.5 16.35 4.09 16.06 4.53 16.06 4.53 15.09 5.98 15.09 5.98 15.21 6.21 15.31 6.45 15.39 6.69 15.39 6.69 17.1 7.03 17.1 7.03 17.62 7.14 17.99 7.6 17.99 8.13 17.99 8.13 17.99 9.64 17.99 9.64 17.99 10.17 17.62 10.63 17.1 10.73ZM 9.06 6.19C 7.56 6.19 6.35 7.4 6.35 8.9 6.35 10.39 7.56 11.61 9.06 11.61 10.56 11.61 11.77 10.39 11.77 8.9 11.77 7.4 10.56 6.19 9.06 6.19Z"/>
</svg>