<?xml version="1.0" encoding="utf-8"?><!DOCTYPE svg PUBLIC "-//W3C//DTD SVG 1.1//EN" "http://www.w3.org/Graphics/SVG/1.1/DTD/svg11.dtd"><svg version="1.1" baseProfile="full" xmlns="http://www.w3.org/2000/svg" xmlns:xlink="http://www.w3.org/1999/xlink" xmlns:ev="http://www.w3.org/2001/xml-events"   height="15px"   width="18px" viewBox="0 0 18 15"><path fill="rgb( 43, 86, 114 )" d="M9.33299999999997,0.85300000000001 C9.33299999999997,0.85300000000001 0.95600000000002,7.81399999999999 0.95600000000002,7.81399999999999 C0.95600000000002,7.81399999999999 2.91399999999999,7.81399999999999 2.91399999999999,7.81399999999999 C2.91399999999999,7.81399999999999 2.91399999999999,13.344 2.91399999999999,13.344 C2.91399999999999,14.176 3.50400000000002,14.814 4.33100000000002,14.814 C4.33100000000002,14.814 6.83100000000002,14.814 6.83100000000002,14.814 C6.83100000000002,14.814 11.831,14.814 11.831,14.814 C11.831,14.814 14.331,14.814 14.331,14.814 C15.158,14.814 15.831,14.176 15.831,13.344 C15.831,13.344 15.831,7.81399999999999 15.831,7.81399999999999 C15.831,7.81399999999999 17.711,7.81399999999999 17.711,7.81399999999999 C17.711,7.81399999999999 9.33299999999997,0.85300000000001 9.33299999999997,0.85300000000001 ZM7.83100000000002,13.897 C7.83100000000002,13.897 7.83100000000002,9.89699999999999 7.83100000000002,9.89699999999999 C7.83100000000002,9.89699999999999 10.914,9.89699999999999 10.914,9.89699999999999 C10.914,9.89699999999999 10.914,13.897 10.914,13.897 C10.914,13.897 7.83100000000002,13.897 7.83100000000002,13.897 ZM14.914,6.81399999999999 C14.914,6.81399999999999 14.914,13.428 14.914,13.428 C14.914,13.705 14.6900000000001,13.897 14.414,13.897 C14.414,13.897 11.831,13.897 11.831,13.897 C11.831,13.897 11.831,8.89699999999999 11.831,8.89699999999999 C11.831,8.89699999999999 6.91399999999999,8.89699999999999 6.91399999999999,8.89699999999999 C6.91399999999999,8.89699999999999 6.91399999999999,13.897 6.91399999999999,13.897 C6.91399999999999,13.897 4.33100000000002,13.897 4.33100000000002,13.897 C4.05499999999995,13.897 3.83100000000002,13.622 3.83100000000002,13.344 C3.83100000000002,13.344 3.83100000000002,6.81399999999999 3.83100000000002,6.81399999999999 C3.83100000000002,6.81399999999999 3.38599999999997,6.81399999999999 3.38599999999997,6.81399999999999 C3.38599999999997,6.81399999999999 9.33100000000002,1.88 9.33100000000002,1.88 C9.33100000000002,1.88 15.25,6.81399999999999 15.25,6.81399999999999 C15.25,6.81399999999999 14.914,6.81399999999999 14.914,6.81399999999999 Z "/></svg>