<?xml version="1.0" encoding="utf-8"?>
<svg xmlns="http://www.w3.org/2000/svg"
	xmlns:xlink="http://www.w3.org/1999/xlink"
	width="15px" height="15px" viewBox="0 0 15 15">
<path fill-rule="evenodd" d="M 11.5 14.5C 11.5 14.5 3.5 14.5 3.5 14.5 3.5 14.5 3.5 12.5 3.5 12.5 3.5 12.5 11.5 12.5 11.5 12.5 12.05 12.5 12.5 12.05 12.5 11.5 12.5 11.5 12.5 2.5 12.5 2.5 12.5 2.5 14.5 2.5 14.5 2.5 14.5 2.5 14.5 11.5 14.5 11.5 14.5 13.15 13.15 14.5 11.5 14.5ZM 8.5 10.5C 8.5 10.5 1.5 10.5 1.5 10.5 0.4 10.5-0.5 9.6-0.5 8.5-0.5 8.5-0.5 1.5-0.5 1.5-0.5 0.4 0.4-0.5 1.5-0.5 1.5-0.5 8.5-0.5 8.5-0.5 9.6-0.5 10.5 0.4 10.5 1.5 10.5 1.5 10.5 8.5 10.5 8.5 10.5 9.6 9.6 10.5 8.5 10.5Z"/>
</svg>