<svg width="29px" height="21px" viewBox="0 0 29 21" version="1.1" xmlns="http://www.w3.org/2000/svg">
    <path d="M10.7560976,2.84217094e-14 C5.09839024,2.84217094e-14 0.512195122,4.58619512 0.512195122,10.2439024 C0.512195122,12.1052195 1.01619512,13.8446341 1.88385366,15.3494634 L0,21 L5.65053659,19.1161463 C7.15536585,19.9838049 8.89478049,20.4878049 10.7560976,20.4878049 C16.4138049,20.4878049 21,15.9016098 21,10.2439024 C21,4.58619512 16.4138049,2.84217094e-14 10.7560976,2.84217094e-14" id="Fill-1"></path>
    <path d="M25.0297506,20 C24.8338671,20 24.6348906,19.9481592 24.4596265,19.8387175 C23.9853822,19.543993 23.8575424,18.9487838 24.173018,18.507177 C25.982363,15.9823382 26.9380683,13.0398929 26.9380683,10.0004861 C26.9380683,6.96107937 25.982363,4.01959411 24.173018,1.49379524 C23.8575424,1.05218845 23.9853822,0.456979291 24.4596265,0.162254756 C24.9328398,-0.133429794 25.5730696,-0.0134279472 25.8885451,0.428178848 C27.9247026,3.27078259 29,6.58091352 29,10.0004861 C29,13.4210188 27.9247026,16.7301897 25.8885451,19.5727934 C25.6905997,19.8502377 25.3637835,20 25.0297506,20" id="Fill-2"></path>
    <path d="M22.1321721,17 C21.9520123,17 21.7684531,16.96262 21.5996241,16.8839252 C21.0466806,16.6281671 20.8393268,16.0320539 21.1339278,15.5529993 C22.1808946,13.8531916 22.7338381,11.9320547 22.7338381,10.0000973 C22.7338381,8.06813995 22.1808946,6.14798678 21.1339278,4.44719537 C20.8393268,3.96814076 21.0466806,3.37202763 21.5996241,3.11626952 C22.1491683,2.86051142 22.8369485,3.04052578 23.1326826,3.52056407 C24.3541439,5.50465677 25,7.74549126 25,10.0000973 C25,12.2547034 24.3541439,14.4955379 23.1326826,16.4796306 C22.9275949,16.8121162 22.536682,17 22.1321721,17" id="Fill-3"></path>
</svg>