<svg xmlns="http://www.w3.org/2000/svg" width="29" height="21" viewBox="0 0 29 21"><path d="M10.756 0C5.098 0 .512 4.586.512 10.244c0 1.86.504 3.6 1.372 5.105L0 21l5.65-1.884a10.184 10.184 0 0 0 5.106 1.372C16.414 20.488 21 15.902 21 10.244 21 4.586 16.414 0 10.756 0M25.03 20c-.196 0-.395-.052-.57-.16-.475-.296-.602-.89-.287-1.333 1.81-2.525 2.765-5.467 2.765-8.507s-.956-5.98-2.765-8.506c-.315-.442-.188-1.037.287-1.332.473-.295 1.113-.175 1.43.266C27.924 3.27 29 6.58 29 10c0 3.42-1.075 6.73-3.11 9.573a1.05 1.05 0 0 1-.86.427"/><path d="M22.132 17c-.18 0-.364-.037-.532-.116-.553-.256-.76-.852-.466-1.33 1.047-1.7 1.6-3.622 1.6-5.554 0-1.932-.553-3.852-1.6-5.553-.295-.48-.087-1.075.466-1.33.55-.256 1.237-.076 1.533.404C24.353 5.506 25 7.746 25 10c0 2.255-.646 4.496-1.867 6.48-.205.332-.596.52-1 .52"/></svg>