<?xml version="1.0" encoding="UTF-8" standalone="no"?>
<svg width="187px" height="141px" viewBox="0 0 187 141" version="1.1" xmlns="http://www.w3.org/2000/svg" xmlns:xlink="http://www.w3.org/1999/xlink" xmlns:sketch="http://www.bohemiancoding.com/sketch/ns">
    <!-- Generator: Sketch 3.3.2 (12043) - http://www.bohemiancoding.com/sketch -->
    <title>Artboard 1</title>
    <desc>Created with Sketch.</desc>
    <defs>
        <path id="path-1" d="M132,96.669 C132,99.04 130.626,101 128.315,101 L4.685,101 C2.374,101 0,99.04 0,96.669 L0,4.257 C0,1.885 2.374,0 4.685,0 L128.315,0 C130.626,0 132,1.885 132,4.257 L132,96.669 L132,96.669 Z"></path>
    </defs>
    <g id="Page-1" stroke="none" stroke-width="1" fill="none" fill-rule="evenodd" sketch:type="MSPage">
        <g id="Artboard-1" sketch:type="MSArtboardGroup">
            <path d="M180.864,14.564 L174.793,12.711 L172.94,6.64 L171.087,12.711 L165.016,14.564 L171.087,16.417 L172.94,22.487 L174.793,16.417 L180.864,14.564" id="Fill-1" fill="#A7E3FA" sketch:type="MSShapeGroup"></path>
            <path d="M133,97.669 C133,100.04 131.626,102 129.315,102 L5.685,102 C3.374,102 1,100.04 1,97.669 L1,5.257 C1,2.885 3.374,1 5.685,1 L129.315,1 C131.626,1 133,2.885 133,5.257 L133,97.669" id="Fill-2" fill="#A7E3FA" sketch:type="MSShapeGroup"></path>
            <g id="Group-5" sketch:type="MSLayerGroup" transform="translate(1.000000, 1.000000)">
                <mask id="mask-2" sketch:name="Clip 4" fill="white">
                    <use xlink:href="#path-1"></use>
                </mask>
                <g id="Clip-4"></g>
                <path d="M0,0 L132,0 L132,19 L0,19 L0,0 Z" id="Fill-3" fill="#4EB7F6" sketch:type="MSShapeGroup" mask="url(#mask-2)"></path>
            </g>
            <path d="M12.202,10.609 C12.202,11.99 11.083,13.109 9.702,13.109 C8.321,13.109 7.202,11.99 7.202,10.609 C7.202,9.229 8.321,8.109 9.702,8.109 C11.083,8.109 12.202,9.229 12.202,10.609" id="Fill-6" fill="#FFFFFF" sketch:type="MSShapeGroup"></path>
            <path d="M20.491,10.609 C20.491,11.99 19.372,13.109 17.991,13.109 C16.61,13.109 15.491,11.99 15.491,10.609 C15.491,9.229 16.61,8.109 17.991,8.109 C19.372,8.109 20.491,9.229 20.491,10.609" id="Fill-7" fill="#FFFFFF" sketch:type="MSShapeGroup"></path>
            <path d="M126,10.5 C126,11.881 124.881,13 123.5,13 L26.5,13 C25.119,13 24,11.881 24,10.5 C24,9.119 25.119,8 26.5,8 L123.5,8 C124.881,8 126,9.119 126,10.5" id="Fill-8" fill="#FFFFFF" sketch:type="MSShapeGroup"></path>
            <path d="M156.193,11.399 L152.294,10.209 L151.104,6.311 L149.914,10.209 L146.016,11.399 L149.914,12.589 L151.104,16.487 L152.294,12.589 L156.193,11.399" id="Fill-9" fill="#4EB7F6" sketch:type="MSShapeGroup"></path>
            <path d="M170.805,33.094 L168.204,32.3 L167.41,29.699 L166.617,32.3 L164.016,33.094 L166.617,33.887 L167.41,36.488 L168.204,33.887 L170.805,33.094" id="Fill-10" fill="#4EB7F6" sketch:type="MSShapeGroup"></path>
            <path d="M3,35.5 L95,35.5" id="Stroke-11" stroke="#3899EC" stroke-linecap="round" stroke-linejoin="round" stroke-dasharray="1,3" sketch:type="MSShapeGroup"></path>
            <path d="M125,29.559 C125,30.907 123.855,32 122.443,32 L105.557,32 C104.145,32 103,30.907 103,29.559 L103,29.441 C103,28.093 104.145,27 105.557,27 L122.443,27 C123.855,27 125,28.093 125,29.441 L125,29.559" id="Fill-12" fill="#2B81CB" sketch:type="MSShapeGroup"></path>
            <path d="M166,136.5 C166,138.433 145.405,140 120,140 C94.595,140 74,138.433 74,136.5 C74,134.567 94.595,133 120,133 C145.405,133 166,134.567 166,136.5" id="Fill-13" fill="#EBF8FF" sketch:type="MSShapeGroup"></path>
            <path d="M114.464,110.355 C114.464,112.288 93.869,113.855 68.464,113.855 C43.059,113.855 22.464,112.288 22.464,110.355 C22.464,108.422 43.059,106.855 68.464,106.855 C93.869,106.855 114.464,108.422 114.464,110.355" id="Fill-14" fill="#EBF8FF" sketch:type="MSShapeGroup"></path>
            <path d="M182,129 L58,129 C55.791,129 54,127.209 54,125 L54,51 C54,48.791 55.791,47 58,47 L182,47 C184.209,47 186,48.791 186,51 L186,125 C186,127.209 184.209,129 182,129" id="Fill-15" fill="#D9EEFF" sketch:type="MSShapeGroup"></path>
            <path d="M56,63.5 L186,63.5" id="Stroke-16" stroke="#3899EC" stroke-linecap="round" stroke-linejoin="round" stroke-dasharray="1,3" sketch:type="MSShapeGroup"></path>
            <path d="M99,25 L129,25 L129,35 L99,35 L99,25 Z M98,36 L130,36 L130,24 L98,24 L98,36 Z" id="Fill-17" fill="#3899EC" sketch:type="MSShapeGroup"></path>
            <path d="M100.56,23.963 C100.56,25.067 99.665,25.963 98.56,25.963 C97.456,25.963 96.56,25.067 96.56,23.963 C96.56,22.858 97.456,21.963 98.56,21.963 C99.665,21.963 100.56,22.858 100.56,23.963" id="Fill-18" fill="#3899EC" sketch:type="MSShapeGroup"></path>
            <path d="M100.56,35.963 C100.56,37.067 99.665,37.963 98.56,37.963 C97.456,37.963 96.56,37.067 96.56,35.963 C96.56,34.858 97.456,33.963 98.56,33.963 C99.665,33.963 100.56,34.858 100.56,35.963" id="Fill-19" fill="#3899EC" sketch:type="MSShapeGroup"></path>
            <path d="M131.56,23.963 C131.56,25.067 130.665,25.963 129.56,25.963 C128.456,25.963 127.56,25.067 127.56,23.963 C127.56,22.858 128.456,21.963 129.56,21.963 C130.665,21.963 131.56,22.858 131.56,23.963" id="Fill-20" fill="#3899EC" sketch:type="MSShapeGroup"></path>
            <path d="M131.56,35.963 C131.56,37.067 130.665,37.963 129.56,37.963 C128.456,37.963 127.56,37.067 127.56,35.963 C127.56,34.858 128.456,33.963 129.56,33.963 C130.665,33.963 131.56,34.858 131.56,35.963" id="Fill-21" fill="#3899EC" sketch:type="MSShapeGroup"></path>
            <path d="M179,54.559 C179,55.907 177.855,57 176.443,57 L159.557,57 C158.145,57 157,55.907 157,54.559 L157,54.441 C157,53.093 158.145,52 159.557,52 L176.443,52 C177.855,52 179,53.093 179,54.441 L179,54.559" id="Fill-22" fill="#2B81CB" sketch:type="MSShapeGroup"></path>
        </g>
    </g>
</svg>