<svg xmlns="http://www.w3.org/2000/svg" width="187" height="141" viewBox="0 0 187 141" xmlns:xlink="http://www.w3.org/1999/xlink"><defs><path id="a" d="M132 96.67c0 2.37-1.374 4.33-3.685 4.33H4.685C2.375 101 0 99.04 0 96.67V4.256C0 1.885 2.374 0 4.685 0h123.63C130.625 0 132 1.885 132 4.257V96.67z"/></defs><g fill="none" fill-rule="evenodd"><path fill="#A7E3FA" d="M180.864 14.564l-6.07-1.853-1.854-6.07-1.853 6.07-6.07 1.854 6.07 1.853 1.853 6.07 1.853-6.07 6.07-1.853M133 97.67c0 2.37-1.374 4.33-3.685 4.33H5.685C3.375 102 1 100.04 1 97.67V5.256C1 2.885 3.374 1 5.685 1h123.63C131.625 1 133 2.885 133 5.257V97.67"/><g transform="translate(1 1)"><mask id="b" fill="#fff"><use xlink:href="#a"/></mask><path fill="#4EB7F6" d="M0 0h132v19H0V0z" mask="url(#b)"/></g><path fill="#FFF" d="M12.202 10.61a2.5 2.5 0 1 1-5 0 2.5 2.5 0 0 1 5 0M20.49 10.61a2.5 2.5 0 1 1-4.998 0 2.5 2.5 0 0 1 5 0M126 10.5a2.5 2.5 0 0 1-2.5 2.5h-97a2.5 2.5 0 0 1 0-5h97a2.5 2.5 0 0 1 2.5 2.5"/><path fill="#4EB7F6" d="M156.193 11.4l-3.9-1.19-1.19-3.9-1.19 3.9-3.897 1.19 3.898 1.19 1.19 3.897 1.19-3.898 3.9-1.19M170.805 33.094l-2.6-.794-.795-2.6-.793 2.6-2.6.794 2.6.793.793 2.6.794-2.6 2.6-.793"/><path stroke="#3899EC" d="M3 35.5h92" stroke-linecap="round" stroke-linejoin="round" stroke-dasharray="1 3"/><path fill="#2B81CB" d="M125 29.56c0 1.347-1.145 2.44-2.557 2.44h-16.886c-1.412 0-2.557-1.093-2.557-2.44v-.12c0-1.347 1.145-2.44 2.557-2.44h16.886c1.412 0 2.557 1.093 2.557 2.44v.12"/><path fill="#EBF8FF" d="M166 136.5c0 1.933-20.595 3.5-46 3.5s-46-1.567-46-3.5 20.595-3.5 46-3.5 46 1.567 46 3.5M114.464 110.355c0 1.933-20.595 3.5-46 3.5s-46-1.567-46-3.5 20.595-3.5 46-3.5 46 1.567 46 3.5"/><path fill="#D9EEFF" d="M182 129H58a4 4 0 0 1-4-4V51a4 4 0 0 1 4-4h124a4 4 0 0 1 4 4v74a4 4 0 0 1-4 4"/><path stroke="#3899EC" d="M56 63.5h130" stroke-linecap="round" stroke-linejoin="round" stroke-dasharray="1 3"/><path fill="#3899EC" d="M99 25h30v10H99V25zm-1 11h32V24H98v12z"/><path fill="#3899EC" d="M100.56 23.963a2 2 0 1 1-4 0 2 2 0 0 1 4 0M100.56 35.963a2 2 0 1 1-4 0 2 2 0 0 1 4 0M131.56 23.963a2 2 0 1 1-4 0 2 2 0 0 1 4 0M131.56 35.963a2 2 0 1 1-4 0 2 2 0 0 1 4 0"/><path fill="#2B81CB" d="M179 54.56c0 1.347-1.145 2.44-2.557 2.44h-16.886c-1.412 0-2.557-1.093-2.557-2.44v-.12c0-1.347 1.145-2.44 2.557-2.44h16.886c1.412 0 2.557 1.093 2.557 2.44v.12"/></g></svg>