<?xml version="1.0" encoding="utf-8"?>
<svg xmlns="http://www.w3.org/2000/svg"
	xmlns:xlink="http://www.w3.org/1999/xlink"
	width="18px" height="14px" viewBox="0 0 18 13">
<path fill="rgb(55,152,235)" fill-rule="evenodd" d="M 17.78 6.19C 17.67 6.45 15.04 12.5 9 12.5 2.96 12.5 0.33 6.45 0.22 6.19 0.22 6.19 0.14 6 0.14 6 0.14 6 0.22 5.81 0.22 5.81 0.33 5.55 2.96-0.5 9-0.5 15.04-0.5 17.67 5.55 17.78 5.81 17.78 5.81 17.86 6 17.86 6 17.86 6 17.78 6.19 17.78 6.19ZM 9 0.5C 4.2 0.5 1.73 5 1.24 6 1.73 7 4.2 11.5 9 11.5 13.8 11.5 16.27 7 16.76 6 16.27 5 13.8 0.5 9 0.5ZM 9 9.1C 7.29 9.1 5.9 7.71 5.9 6 5.9 4.29 7.29 2.9 9 2.9 10.71 2.9 12.1 4.29 12.1 6 12.1 7.71 10.71 9.1 9 9.1ZM 9 3.9C 7.84 3.9 6.9 4.84 6.9 6 6.9 7.16 7.84 8.1 9 8.1 10.16 8.1 11.1 7.16 11.1 6 11.1 4.84 10.16 3.9 9 3.9Z"/>
</svg>