<svg xmlns="http://www.w3.org/2000/svg" width="110" height="140" class="symbol-site-history-clipart" xmlns:xlink="http://www.w3.org/1999/xlink" viewBox="0 0 110 140"><ellipse cx="51.473" cy="137.346" fill="#d9e1e8" rx="25" ry="2.5"/><circle cx="49.5" cy="36.5" r="6.5" fill="none" stroke="#2b5672" stroke-width="3" stroke-miterlimit="10" stroke-linejoin="round"/><path fill="none" stroke="#2b5672" stroke-width="3" stroke-miterlimit="10" d="M49.5 48V38" stroke-linejoin="round"/><defs><circle id="a" cx="50.5" cy="76.5" r="29.5"/></defs><use fill="#2b5672" xlink:href="#a" overflow="visible"/><clipPath id="b"><use xlink:href="#a" overflow="visible"/></clipPath><g clip-path="url(#b)"><linearGradient id="c" x1="49" x2="50.031" y1="47.905" y2="47.905" gradientUnits="userSpaceOnUse"><stop offset="0" stop-color="#FFF"/><stop offset="1" stop-color="#FFF"/></linearGradient><path fill="none" stroke="url(#c)" stroke-miterlimit="10" d="M49.5 45l.03 5.81"/><linearGradient id="d" x1="49" x2="50" y1="104.5" y2="104.5" gradientUnits="userSpaceOnUse"><stop offset="0" stop-color="#FFF"/><stop offset="1" stop-color="#FFF"/></linearGradient><path fill="none" stroke="url(#d)" stroke-miterlimit="10" d="M49.5 101v7"/><linearGradient id="e" x1="18.997" x2="24.826" y1="77.412" y2="77.412" gradientUnits="userSpaceOnUse"><stop offset="0" stop-color="#FFF"/><stop offset="1" stop-color="#FFF"/></linearGradient><path fill="none" stroke="url(#e)" stroke-miterlimit="10" d="M19 77.428l5.823-.03"/><linearGradient id="f" x1="76.174" x2="82.003" y1="77.412" y2="77.412" gradientUnits="userSpaceOnUse"><stop offset="0" stop-color="#FFF"/><stop offset="1" stop-color="#FFF"/></linearGradient><path fill="none" stroke="url(#f)" stroke-miterlimit="10" d="M76.177 77.397l5.823.03"/><linearGradient id="g" x1="23.542" x2="28.339" y1="62.628" y2="62.628" gradientUnits="userSpaceOnUse"><stop offset="0" stop-color="#FFF"/><stop offset="1" stop-color="#FFF"/></linearGradient><path fill="none" stroke="url(#g)" stroke-miterlimit="10" d="M23.79 61.395l4.3 2.466"/><linearGradient id="h" x1="72.681" x2="77.482" y1="90.936" y2="90.936" gradientUnits="userSpaceOnUse"><stop offset="0" stop-color="#FFF"/><stop offset="1" stop-color="#FFF"/></linearGradient><path fill="none" stroke="url(#h)" stroke-miterlimit="10" d="M72.93 89.692l4.302 2.488"/><linearGradient id="i" x1="34.651" x2="37.999" y1="101.298" y2="101.298" gradientUnits="userSpaceOnUse"><stop offset="0" stop-color="#FFF"/><stop offset="1" stop-color="#FFF"/></linearGradient><path fill="none" stroke="url(#i)" stroke-miterlimit="10" d="M35.084 103.45l2.482-4.303"/><linearGradient id="j" x1="63.023" x2="66.371" y1="52.266" y2="52.266" gradientUnits="userSpaceOnUse"><stop offset="0" stop-color="#FFF"/><stop offset="1" stop-color="#FFF"/></linearGradient><path fill="none" stroke="url(#j)" stroke-miterlimit="10" d="M63.455 54.406l2.483-4.28"/><linearGradient id="k" x1="34.651" x2="37.999" y1="52.266" y2="52.266" gradientUnits="userSpaceOnUse"><stop offset="0" stop-color="#FFF"/><stop offset="1" stop-color="#FFF"/></linearGradient><path fill="none" stroke="url(#k)" stroke-miterlimit="10" d="M35.084 50.126l2.482 4.28"/><linearGradient id="l" x1="63.022" x2="66.371" y1="101.298" y2="101.298" gradientUnits="userSpaceOnUse"><stop offset="0" stop-color="#FFF"/><stop offset="1" stop-color="#FFF"/></linearGradient><path fill="none" stroke="url(#l)" stroke-miterlimit="10" d="M63.455 99.147l2.483 4.302"/><linearGradient id="m" x1="23.54" x2="28.341" y1="90.936" y2="90.936" gradientUnits="userSpaceOnUse"><stop offset="0" stop-color="#FFF"/><stop offset="1" stop-color="#FFF"/></linearGradient><path fill="none" stroke="url(#m)" stroke-miterlimit="10" d="M23.79 92.18l4.3-2.488"/><linearGradient id="n" x1="72.683" x2="77.48" y1="62.628" y2="62.628" gradientUnits="userSpaceOnUse"><stop offset="0" stop-color="#FFF"/><stop offset="1" stop-color="#FFF"/></linearGradient><path fill="none" stroke="url(#n)" stroke-miterlimit="10" d="M72.93 63.86l4.302-2.465"/></g><path fill="#a7e3fa" d="M70.4 78.54c1.252-12.648-9.29-23.19-21.94-21.938-9.36.927-16.93 8.498-17.858 17.858-1.253 12.65 9.29 23.192 21.94 21.94 9.36-.928 16.93-8.5 17.857-17.86z"/><path fill="none" stroke="#2b5672" stroke-width="3" stroke-miterlimit="10" d="M55 83.25l-6.5-3.952V67" stroke-linecap="round" stroke-linejoin="round"/><path fill="none" stroke="#7992a5" stroke-width="2" stroke-miterlimit="10" d="M99 78.07C99 103.99 76.61 125 50 125S1 103.99 1 78.07V29.798c0-3.207 2.803-5.804 6.005-5.8 3.2 0 5.995 2.602 5.995 5.81v-.222l.716 1.956c.003 3.36 3.07 6.077 6.424 6.074s5.992-2.732 5.99-6.09l.19-18.436C26.317 6.982 31.772 2.005 37.87 2c6.097-.005 11.52 4.892 11.524 11l-.038 15.412" stroke-linecap="round" stroke-linejoin="round" stroke-dasharray="1 4"/><path fill="none" stroke="#7992a5" stroke-width="2" stroke-miterlimit="10" d="M91 80.5l8.5-9 8.5 9" stroke-linecap="round" stroke-linejoin="round"/></svg>