<?xml version="1.0" encoding="utf-8"?>
<svg xmlns="http://www.w3.org/2000/svg"
	xmlns:xlink="http://www.w3.org/1999/xlink"
	width="18px" height="62px" viewBox="0 0 18 62">
<path fill="rgb(127,203,247)" fill-rule="evenodd" d="M 14.5 61.5C 14.5 61.5 2.5 61.5 2.5 61.5 0.84 61.5-0.5 60.16-0.5 58.5-0.5 58.5-0.5 46.5-0.5 46.5-0.5 44.84 0.84 43.5 2.5 43.5 2.5 43.5 14.5 43.5 14.5 43.5 16.16 43.5 17.5 44.84 17.5 46.5 17.5 46.5 17.5 58.5 17.5 58.5 17.5 60.16 16.16 61.5 14.5 61.5ZM 14.5 39.5C 14.5 39.5 2.5 39.5 2.5 39.5 0.84 39.5-0.5 38.16-0.5 36.5-0.5 36.5-0.5 24.5-0.5 24.5-0.5 22.84 0.84 21.5 2.5 21.5 2.5 21.5 14.5 21.5 14.5 21.5 16.16 21.5 17.5 22.84 17.5 24.5 17.5 24.5 17.5 36.5 17.5 36.5 17.5 38.16 16.16 39.5 14.5 39.5ZM 14.5 17.5C 14.5 17.5 2.5 17.5 2.5 17.5 0.84 17.5-0.5 16.16-0.5 14.5-0.5 14.5-0.5 2.5-0.5 2.5-0.5 0.84 0.84-0.5 2.5-0.5 2.5-0.5 14.5-0.5 14.5-0.5 16.16-0.5 17.5 0.84 17.5 2.5 17.5 2.5 17.5 14.5 17.5 14.5 17.5 16.16 16.16 17.5 14.5 17.5Z"/>
</svg>