<?xml version="1.0" encoding="utf-8"?>
<svg xmlns="http://www.w3.org/2000/svg"
	xmlns:xlink="http://www.w3.org/1999/xlink"
	width="19px" height="10px" viewBox="0 0 19 10">

<path fill="rgb(55,153,235)" fill-rule="evenodd" d="M 14.63 0.46C 14.29 0.02 13.65-0.07 13.19 0.26 12.74 0.59 12.65 1.21 12.99 1.64 12.99 1.64 14.84 4.02 14.84 4.02 14.84 4.02 3.55 4.02 3.55 4.02 3.55 4.02 5.4 1.64 5.4 1.64 5.74 1.21 5.65 0.59 5.19 0.26 4.74-0.07 4.1 0.02 3.76 0.46 3.76 0.46 0.22 5.01 0.22 5.01 0.22 5.01 3.76 9.56 3.76 9.56 3.96 9.82 4.27 9.95 4.58 9.95 4.79 9.95 5.01 9.89 5.19 9.76 5.65 9.43 5.74 8.81 5.4 8.37 5.4 8.37 3.55 6 3.55 6 3.55 6 14.84 6 14.84 6 14.84 6 12.99 8.37 12.99 8.37 12.65 8.81 12.74 9.43 13.19 9.76 13.38 9.89 13.6 9.95 13.81 9.95 14.12 9.95 14.43 9.82 14.63 9.56 14.63 9.56 18.17 5.01 18.17 5.01 18.17 5.01 14.63 0.46 14.63 0.46Z"/>
</svg>
