<svg xmlns="http://www.w3.org/2000/svg" xmlns:xlink="http://www.w3.org/1999/xlink" preserveAspectRatio="xMidYMid" width="65" height="48" viewBox="0 0 65 48">
  
  <g id="group-1">
    <path d="M26.949,28.302 C26.949,28.302 3.173,31.727 3.173,31.727 C2.627,31.806 2.247,32.313 2.326,32.860 C2.326,32.860 4.384,47.147 4.384,47.147 C4.463,47.694 4.970,48.073 5.517,47.994 C5.517,47.994 29.293,44.569 29.293,44.569 C29.839,44.490 30.219,43.983 30.140,43.437 C30.140,43.437 28.082,29.150 28.082,29.150 C28.003,28.603 27.496,28.223 26.949,28.302 Z" id="path-1" class="cls-3" fill-rule="evenodd"/>
    <path d="M63.396,31.458 C63.396,31.458 39.554,28.527 39.554,28.527 C39.005,28.459 38.507,28.849 38.439,29.397 C38.439,29.397 36.678,43.724 36.678,43.724 C36.610,44.272 37.000,44.771 37.548,44.838 C37.548,44.838 61.390,47.770 61.390,47.770 C61.938,47.837 62.437,47.448 62.505,46.899 C62.505,46.899 64.266,32.573 64.266,32.573 C64.333,32.025 63.944,31.526 63.396,31.458 Z" id="path-2" class="cls-4" fill-rule="evenodd"/>
    <path d="M26.827,5.569 C26.827,5.569 3.016,2.394 3.016,2.394 C2.469,2.321 1.966,2.706 1.893,3.253 C1.893,3.253 -0.015,17.561 -0.015,17.561 C-0.088,18.109 0.297,18.612 0.844,18.685 C0.844,18.685 24.655,21.859 24.655,21.859 C25.203,21.932 25.706,21.548 25.779,21.000 C25.779,21.000 27.686,6.692 27.686,6.692 C27.759,6.145 27.375,5.642 26.827,5.569 Z" id="path-3" class="cls-4" fill-rule="evenodd"/>
    <path d="M63.636,8.906 C63.636,8.906 41.300,0.066 41.300,0.066 C40.787,-0.137 40.206,0.114 40.003,0.628 C40.003,0.628 34.690,14.049 34.690,14.049 C34.487,14.563 34.739,15.144 35.252,15.347 C35.252,15.347 57.588,24.187 57.588,24.187 C58.102,24.391 58.683,24.139 58.886,23.626 C58.886,23.626 64.198,10.204 64.198,10.204 C64.401,9.690 64.150,9.109 63.636,8.906 Z" id="path-4" class="cls-6" fill-rule="evenodd"/>
  </g>
</svg>
