<svg xmlns="http://www.w3.org/2000/svg" width="65" height="48" preserveAspectRatio="xMidYMid" viewBox="0 0 65 48"><g fill-rule="evenodd"><path d="M26.95 28.302L3.172 31.727a1 1 0 0 0-.847 1.133l2.058 14.287a1 1 0 0 0 1.133.847l23.776-3.425a1 1 0 0 0 .847-1.133L28.082 29.15a1 1 0 0 0-1.133-.848z" class="cls-3"/><path d="M63.396 31.458l-23.842-2.93a1 1 0 0 0-1.115.87l-1.762 14.326a1 1 0 0 0 .87 1.114L61.39 47.77a1 1 0 0 0 1.115-.87l1.76-14.327a1 1 0 0 0-.87-1.115zM26.827 5.57L3.017 2.393a1 1 0 0 0-1.124.86L-.015 17.56a1 1 0 0 0 .86 1.125l23.81 3.174A1 1 0 0 0 25.78 21l1.906-14.308a1 1 0 0 0-.86-1.123z" class="cls-4"/><path d="M63.636 8.906L41.3.066a1 1 0 0 0-1.297.562l-5.313 13.42a1 1 0 0 0 .562 1.3l22.336 8.84a1 1 0 0 0 1.298-.562l5.312-13.422a1 1 0 0 0-.562-1.298z" class="cls-6"/></g></svg>