<svg xmlns="http://www.w3.org/2000/svg" width="66" height="50" preserveAspectRatio="xMidYMid" viewBox="0 0 66 50"><g fill-rule="evenodd"><path d="M28.857 22.076L7.325 31.922A1 1 0 0 1 6 31.428L.086 18.5a1.002 1.002 0 0 1 .494-1.326l21.533-9.846a1 1 0 0 1 1.325.494l5.912 12.93a1 1 0 0 1-.493 1.324z" class="cls-3"/><path d="M52.36 19.252l-23.462-3.184a1 1 0 0 1-.857-1.126L29.954.855A1 1 0 0 1 31.08 0L54.54 3.18a1 1 0 0 1 .856 1.126l-1.912 14.087a1 1 0 0 1-1.125.857z" class="cls-4"/><path d="M45.206 27.522l-22.926 5.91a1.002 1.002 0 0 1-1.22-.72l-3.547-13.766a1 1 0 0 1 .718-1.217l22.928-5.91a1 1 0 0 1 1.218.717l3.55 13.767a1 1 0 0 1-.72 1.218z" class="cls-5"/><path d="M64.15 39.297L40.502 38.15a1 1 0 0 1-.95-1.047l.688-14.2a1 1 0 0 1 1.047-.95L64.935 23.1a1 1 0 0 1 .95 1.047l-.687 14.2a1 1 0 0 1-1.048.95z" class="cls-3"/><path d="M39.685 49.948l-23.193-4.76a1 1 0 0 1-.778-1.18l2.858-13.927a1 1 0 0 1 1.18-.778l23.193 4.76a1 1 0 0 1 .78 1.18l-2.86 13.927a1 1 0 0 1-1.18.778z" class="cls-4"/></g></svg>