<svg xmlns="http://www.w3.org/2000/svg" xmlns:xlink="http://www.w3.org/1999/xlink" preserveAspectRatio="xMidYMid" width="66" height="50" viewBox="0 0 66 50">
  
  <g id="group-1">
    <path d="M28.857,22.076 C28.857,22.076 7.325,31.922 7.325,31.922 C6.823,32.152 6.229,31.931 5.999,31.428 C5.999,31.428 0.087,18.500 0.087,18.500 C-0.142,17.997 0.079,17.404 0.581,17.174 C0.581,17.174 22.113,7.328 22.113,7.328 C22.615,7.098 23.208,7.320 23.438,7.822 C23.438,7.822 29.350,20.751 29.350,20.751 C29.580,21.253 29.359,21.846 28.857,22.076 Z" id="path-1" class="cls-3" fill-rule="evenodd"/>
    <path d="M52.359,19.252 C52.359,19.252 28.898,16.068 28.898,16.068 C28.351,15.993 27.967,15.490 28.041,14.942 C28.041,14.942 29.953,0.855 29.953,0.855 C30.028,0.308 30.531,-0.076 31.079,-0.001 C31.079,-0.001 54.540,3.182 54.540,3.182 C55.087,3.257 55.470,3.761 55.396,4.308 C55.396,4.308 53.484,18.395 53.484,18.395 C53.410,18.942 52.906,19.326 52.359,19.252 Z" id="path-2" class="cls-4" fill-rule="evenodd"/>
    <path d="M45.206,27.522 C45.206,27.522 22.280,33.432 22.280,33.432 C21.745,33.569 21.199,33.248 21.061,32.713 C21.061,32.713 17.513,18.946 17.513,18.946 C17.375,18.412 17.697,17.866 18.231,17.729 C18.231,17.729 41.158,11.819 41.158,11.819 C41.693,11.681 42.238,12.002 42.376,12.537 C42.376,12.537 45.925,26.304 45.925,26.304 C46.063,26.838 45.741,27.384 45.206,27.522 Z" id="path-3" class="cls-5" fill-rule="evenodd"/>
    <path d="M64.150,39.297 C64.150,39.297 40.502,38.151 40.502,38.151 C39.951,38.124 39.525,37.655 39.552,37.103 C39.552,37.103 40.240,22.904 40.240,22.904 C40.267,22.352 40.736,21.926 41.287,21.953 C41.287,21.953 64.935,23.099 64.935,23.099 C65.487,23.126 65.913,23.595 65.886,24.147 C65.886,24.147 65.198,38.347 65.198,38.347 C65.171,38.898 64.702,39.324 64.150,39.297 Z" id="path-4" class="cls-3" fill-rule="evenodd"/>
    <path d="M39.685,49.948 C39.685,49.948 16.492,45.187 16.492,45.187 C15.951,45.076 15.603,44.548 15.714,44.007 C15.714,44.007 18.572,30.081 18.572,30.081 C18.684,29.540 19.212,29.191 19.753,29.302 C19.753,29.302 42.945,34.063 42.945,34.063 C43.486,34.174 43.835,34.703 43.724,35.243 C43.724,35.243 40.865,49.169 40.865,49.169 C40.754,49.711 40.226,50.059 39.685,49.948 Z" id="path-5" class="cls-4" fill-rule="evenodd"/>
  </g>
</svg>
