<?xml version="1.0" encoding="UTF-8" standalone="no"?>
<svg width="18px" height="18px" viewBox="0 0 18 18" version="1.1" xmlns="http://www.w3.org/2000/svg" xmlns:xlink="http://www.w3.org/1999/xlink" xmlns:sketch="http://www.bohemiancoding.com/sketch/ns">
    <!-- Generator: Sketch 3.3.2 (12043) - http://www.bohemiancoding.com/sketch -->
    <title>properties</title>
    <desc>Created with Sketch.</desc>
    <defs></defs>
    <g id="Page-1" stroke="none" stroke-width="1" fill="none" fill-rule="evenodd" sketch:type="MSPage">
        <g id="properties" sketch:type="MSArtboardGroup" fill="#1D2D3C">
            <path d="M7,2 L7,2 C7,1.448 6.552,1 6,1 L1,1 L1,6 C1,6.552 1.447,7 2,7 C2.552,7 3,6.552 3,6 L2.508,3.844 L5.242,6.657 C5.633,7.047 6.266,7.047 6.657,6.657 C7.047,6.266 7.047,5.633 6.657,5.243 L4,2.594 L6,3 C6.552,3 7,2.552 7,2" id="Fill-1" sketch:type="MSShapeGroup"></path>
            <path d="M16,7 L16,7 C16.552,7 17,6.552 17,6 L17,1 L12,1 C11.448,1 11,1.448 11,2 C11,2.552 11.448,3 12,3 L14.156,2.508 L11.343,5.243 C10.952,5.633 10.952,6.266 11.343,6.657 C11.734,7.047 12.367,7.047 12.757,6.657 L15.406,4 L15,6 C15,6.552 15.447,7 16,7" id="Fill-2" sketch:type="MSShapeGroup"></path>
            <path d="M11,16 L11,16 C11,16.552 11.448,17 12,17 L17,17 L17,12 C17,11.448 16.552,11 16,11 C15.447,11 15,11.448 15,12 L15.492,14.156 L12.757,11.343 C12.367,10.953 11.734,10.953 11.343,11.343 C10.952,11.734 10.952,12.367 11.343,12.757 L14,15.406 L12,15 C11.448,15 11,15.448 11,16" id="Fill-3" sketch:type="MSShapeGroup"></path>
            <path d="M2,11 L2,11 C1.447,11 1,11.448 1,12 L1,17 L6,17 C6.552,17 7,16.552 7,16 C7,15.448 6.552,15 6,15 L3.844,15.492 L6.657,12.757 C7.047,12.367 7.047,11.734 6.657,11.343 C6.266,10.953 5.633,10.953 5.242,11.343 L2.594,14 L3,12 C3,11.448 2.552,11 2,11" id="Fill-4" sketch:type="MSShapeGroup"></path>
        </g>
    </g>
</svg>