<svg xmlns="http://www.w3.org/2000/svg" width="18" height="18" viewBox="0 0 18 18"><g fill="#1D2D3C" fill-rule="evenodd"><path d="M7 2a1 1 0 0 0-1-1H1v5a1 1 0 0 0 2 0l-.492-2.156 2.734 2.813a1 1 0 0 0 1.415-1.414L4 2.593 6 3a1 1 0 0 0 1-1M16 7a1 1 0 0 0 1-1V1h-5a1 1 0 0 0 0 2l2.156-.492-2.813 2.735a1 1 0 1 0 1.414 1.414L15.407 4 15 6a1 1 0 0 0 1 1M11 16a1 1 0 0 0 1 1h5v-5a1 1 0 0 0-2 0l.492 2.156-2.735-2.813a1 1 0 1 0-1.414 1.414L14 15.407 12 15a1 1 0 0 0-1 1M2 11a1 1 0 0 0-1 1v5h5a1 1 0 0 0 0-2l-2.156.492 2.813-2.735a1 1 0 0 0-1.415-1.414L2.594 14 3 12a1 1 0 0 0-1-1"/></g></svg>