<svg xmlns="http://www.w3.org/2000/svg"xmlns:xlink="http://www.w3.org/1999/xlink"
	 viewBox="0 0 20 22" enable-background="new 0 0 20 22" xml:space="preserve" width="20" height="22">
<g>
	<g>
		<g>
			<rect x="4" y="3" width="13" height="2"/>
		</g>
		<g>
			<rect x="4" y="15" width="13" height="2"/>
		</g>
		<g>
			<rect x="10" y="6" width="7" height="2"/>
		</g>
		<g>
			<rect x="10" y="12" width="7" height="2"/>
		</g>
		<g>
			<rect x="10" y="9" width="7" height="2"/>
		</g>
	</g>
	<g>
		<path transform="translate(0, -1)" d="M7.1,13.9c-0.2,0-0.4-0.1-0.6-0.2l-3.8-2.8l3.8-2.8C7,7.7,7.6,7.8,7.9,8.3c0.3,0.4,0.2,1.1-0.2,1.4
			l-1.6,1.2l1.6,1.2c0.4,0.3,0.5,1,0.2,1.4C7.8,13.7,7.4,13.9,7.1,13.9z"/>
	</g>
</g>
</svg>