
<?xml version="1.0" encoding="utf-8"?>
<svg xmlns="http://www.w3.org/2000/svg"
	xmlns:xlink="http://www.w3.org/1999/xlink"
	viewBox="0 0 15 12" width="15" height="12">
<path fill-rule="evenodd" d="M 13.99 5.39C 13.85 5.56 13.67 5.65 13.45 5.65 13.32 5.65 13.21 5.62 13.14 5.57 13.07 5.52 13.01 5.46 12.96 5.38 12.92 5.31 12.88 5.24 12.84 5.19 12.8 5.13 12.74 5.11 12.67 5.11 12.56 5.11 12.43 5.2 12.28 5.38 12.12 5.57 11.94 5.85 11.75 6.24 11.75 6.24 11.88 7.15 11.88 7.15 11.96 7.56 12.04 7.84 12.15 7.99 12.25 8.15 12.37 8.23 12.51 8.23 12.68 8.23 12.79 8.15 12.84 7.98 12.88 7.81 12.9 7.6 12.9 7.34 12.9 7.32 12.93 7.3 12.98 7.28 13.03 7.27 13.07 7.26 13.09 7.26 13.14 7.26 13.19 7.27 13.25 7.28 13.3 7.3 13.33 7.32 13.34 7.34 13.36 7.38 13.37 7.43 13.4 7.5 13.42 7.58 13.43 7.67 13.43 7.78 13.43 8.18 13.27 8.51 12.95 8.75 12.63 9 12.28 9.12 11.89 9.12 11.54 9.12 11.23 8.98 10.95 8.7 10.67 8.42 10.47 8.01 10.34 7.47 10.05 8.04 9.8 8.45 9.58 8.72 9.37 8.99 9.08 9.12 8.71 9.12 8.49 9.12 8.28 9.05 8.07 8.9 7.86 8.76 7.75 8.54 7.75 8.26 7.75 8.02 7.83 7.81 7.98 7.64 8.13 7.47 8.33 7.38 8.58 7.38 8.78 7.38 8.93 7.46 9.03 7.6 9.12 7.75 9.24 7.82 9.37 7.82 9.47 7.82 9.58 7.75 9.71 7.59 9.84 7.44 10 7.19 10.18 6.84 10.18 6.84 10 5.82 10 5.82 9.93 5.46 9.85 5.19 9.76 5.02 9.66 4.85 9.55 4.77 9.44 4.77 9.26 4.77 9.16 4.85 9.13 5.02 9.1 5.19 9.08 5.4 9.08 5.65 9.08 5.67 9.06 5.69 9.01 5.7 8.96 5.72 8.92 5.72 8.9 5.72 8.84 5.72 8.79 5.72 8.74 5.7 8.69 5.69 8.66 5.67 8.64 5.65 8.62 5.61 8.6 5.55 8.58 5.46 8.57 5.38 8.56 5.29 8.56 5.21 8.56 4.82 8.7 4.5 8.98 4.24 9.26 3.99 9.6 3.86 9.98 3.86 10.35 3.86 10.69 4.02 11 4.32 11.3 4.62 11.5 5.05 11.58 5.59 11.88 4.99 12.16 4.55 12.41 4.28 12.66 4 12.93 3.86 13.22 3.86 13.52 3.86 13.76 3.95 13.94 4.12 14.12 4.29 14.21 4.51 14.21 4.78 14.21 5.01 14.14 5.21 13.99 5.39ZM 9.46 2.92C 9.24 2.92 9.09 2.86 8.99 2.73 8.89 2.6 8.81 2.46 8.74 2.3 8.68 2.13 8.6 1.99 8.53 1.86 8.45 1.72 8.33 1.66 8.16 1.66 7.81 1.66 7.54 1.84 7.37 2.19 7.19 2.55 6.98 3.24 6.75 4.27 6.75 4.27 7.94 4.27 7.94 4.27 7.98 4.27 8.01 4.3 8.02 4.36 8.03 4.42 8.04 4.48 8.04 4.53 8.04 4.61 8.02 4.69 7.98 4.79 7.94 4.88 7.9 4.93 7.85 4.93 7.85 4.93 6.61 4.89 6.61 4.89 6.61 4.89 5.71 8.68 5.71 8.68 5.44 9.77 5.02 10.6 4.44 11.15 3.85 11.7 3.16 11.98 2.35 11.98 1.89 11.98 1.48 11.86 1.13 11.6 0.78 11.35 0.6 11.06 0.59 10.74 0.59 10.5 0.68 10.3 0.85 10.13 1.01 9.96 1.24 9.88 1.53 9.88 1.77 9.88 1.96 9.96 2.1 10.11 2.25 10.26 2.36 10.41 2.45 10.57 2.54 10.73 2.63 10.89 2.73 11.04 2.82 11.18 2.94 11.26 3.07 11.26 3.24 11.25 3.37 11.13 3.47 10.9 3.58 10.67 3.67 10.34 3.74 9.93 3.74 9.93 4.79 5.01 4.79 5.01 4.8 4.98 4.8 4.95 4.78 4.93 4.77 4.9 4.74 4.89 4.68 4.89 4.68 4.89 3.8 4.89 3.8 4.89 3.78 4.89 3.75 4.86 3.73 4.8 3.71 4.73 3.71 4.69 3.71 4.67 3.71 4.64 3.72 4.59 3.75 4.54 3.78 4.48 3.81 4.46 3.84 4.46 4.29 4.4 4.6 4.34 4.76 4.29 4.92 4.23 5.01 4.17 5.02 4.11 5.26 3.24 5.73 2.48 6.41 1.82 7.1 1.16 7.91 0.83 8.84 0.83 9.22 0.83 9.57 0.95 9.88 1.2 10.18 1.45 10.34 1.71 10.34 2 10.34 2.26 10.26 2.47 10.1 2.65 9.93 2.83 9.72 2.92 9.46 2.92Z"/>
</svg>