<?xml version="1.0" encoding="utf-8"?>
<svg xmlns="http://www.w3.org/2000/svg"
	xmlns:xlink="http://www.w3.org/1999/xlink"
	width="12px" height="16px" viewBox="0 0 12 16">
<path fill-rule="evenodd" d="M-0 16C-0 16-0 14-0 14-0 14 12 14 12 14 12 14 12 16 12 16 12 16-0 16-0 16ZM 6 12.25C 3.2 12.25 1 10.01 1 7.04 1 7.04 1 1.09 1 1.09 1 0.49 1.4-0 2-0 2.6-0 3 0.49 3 1.09 3 1.09 3 7.04 3 7.04 3 8.54 4.21 10.07 6 10.07 7.79 10.07 9 8.54 9 7.04 9 7.04 9 1.09 9 1.09 9 0.49 9.4-0 10-0 10.6-0 11 0.49 11 1.09 11 1.09 11 7.04 11 7.04 11 10.01 8.8 12.25 6 12.25Z"/>
</svg>
