<svg xmlns="http://www.w3.org/2000/svg"xmlns:xlink="http://www.w3.org/1999/xlink"
	 viewBox="0 0 20 22" enable-background="new 0 0 20 22" xml:space="preserve" width="20" height="22">
<g>
	<g>
		<g>
			<rect x="4" y="3" width="13" height="2"/>
		</g>
		<g>
			<rect x="4" y="15" width="13" height="2"/>
		</g>
		<g>
			<rect x="10" y="6" width="7" height="2"/>
		</g>
		<g>
			<rect x="10" y="12" width="7" height="2"/>
		</g>
		<g>
			<rect x="10" y="9" width="7" height="2"/>
		</g>
	</g>
	<g>
		<path transform="translate(0, -1)" d="M4.1,13.9c-0.3,0-0.6-0.1-0.8-0.4C3,13,3.1,12.4,3.5,12.1l1.6-1.2L3.5,9.7C3.1,9.4,3,8.7,3.3,8.3
			c0.3-0.4,1-0.5,1.4-0.2l3.8,2.8l-3.8,2.8C4.6,13.8,4.3,13.9,4.1,13.9z"/>
	</g>
</g>
</svg>