<?xml version="1.0" encoding="utf-8"?>
<svg xmlns="http://www.w3.org/2000/svg"
	xmlns:xlink="http://www.w3.org/1999/xlink"
	width="19px" height="15px" viewBox="0 0 19 15">
<path fill-rule="evenodd" d="M 18.2 13.44C 18.2 13.44 16.78 14.85 16.78 14.85 16.78 14.85 14.99 13.06 14.99 13.06 14.99 13.06 13.2 14.85 13.2 14.85 13.2 14.85 11.78 13.44 11.78 13.44 11.78 13.44 13.58 11.65 13.58 11.65 13.58 11.65 11.78 9.85 11.78 9.85 11.78 9.85 13.2 8.44 13.2 8.44 13.2 8.44 14.99 10.23 14.99 10.23 14.99 10.23 16.78 8.44 16.78 8.44 16.78 8.44 18.2 9.85 18.2 9.85 18.2 9.85 16.4 11.65 16.4 11.65 16.4 11.65 18.2 13.44 18.2 13.44ZM 12.02 3.01C 12.02 2.46 11.65 2.02 11.1 2.02 11.1 2.02 8.02 2.02 8.02 2.02 8.02 2.02 8.02 12.02 8.02 12.02 8.02 12.02 10.02 12.02 10.02 12.02 10.02 12.02 10.02 14.02 10.02 14.02 10.02 14.02 4.02 14.02 4.02 14.02 4.02 14.02 4.02 12.02 4.02 12.02 4.02 12.02 6.02 12.02 6.02 12.02 6.02 12.02 6.02 2.02 6.02 2.02 6.02 2.02 3.1 2.02 3.1 2.02 2.55 2.02 2.02 2.46 2.02 3.01 2.02 3.01 2.02 6.02 2.02 6.02 2.02 6.02 0.02 6.02 0.02 6.02 0.02 6.02 0.02 3.01 0.02 3.01 0.02 1.36 1.45 0.02 3.1 0.02 3.1 0.02 11.1 0.02 11.1 0.02 12.75 0.02 14.02 1.36 14.02 3.01 14.02 3.01 14.02 6.02 14.02 6.02 14.02 6.02 12.02 6.02 12.02 6.02 12.02 6.02 12.02 3.01 12.02 3.01Z"/>
</svg>