<?xml version="1.0" encoding="utf-8"?>
<svg xmlns="http://www.w3.org/2000/svg"
	xmlns:xlink="http://www.w3.org/1999/xlink"
	width="14px" height="13px" viewBox="0 0 14 13">
<path fill-rule="evenodd" d="M 10.5-0.5C 10.5-0.5 2.5-0.5 2.5-0.5 0.85-0.5-0.5 0.85-0.5 2.5-0.5 2.5-0.5 4.5-0.5 4.5-0.5 4.5 1.5 4.5 1.5 4.5 1.5 4.5 1.5 2.5 1.5 2.5 1.5 1.95 1.95 1.5 2.5 1.5 2.5 1.5 5.5 1.5 5.5 1.5 5.5 1.5 5.5 10.5 5.5 10.5 5.5 10.5 3.5 10.5 3.5 10.5 3.5 10.5 3.5 12.5 3.5 12.5 3.5 12.5 9.5 12.5 9.5 12.5 9.5 12.5 9.5 10.5 9.5 10.5 9.5 10.5 7.5 10.5 7.5 10.5 7.5 10.5 7.5 1.5 7.5 1.5 7.5 1.5 10.5 1.5 10.5 1.5 11.05 1.5 11.5 1.95 11.5 2.5 11.5 2.5 11.5 4.5 11.5 4.5 11.5 4.5 13.5 4.5 13.5 4.5 13.5 4.5 13.5 2.5 13.5 2.5 13.5 0.85 12.15-0.5 10.5-0.5Z"/>
</svg>