<?xml version="1.0" encoding="utf-8"?>
<svg xmlns="http://www.w3.org/2000/svg"
	xmlns:xlink="http://www.w3.org/1999/xlink"
	width="18px" height="16px" viewBox="0 0 18 16">
<path fill-rule="evenodd" d="M 15.53 7.96C 15.53 7.96 14.62 9 14.62 9 14.62 9 13.69 9 13.69 9 13.69 9 12.62 7.92 12.62 7.92 12.62 7.92 9.54 0 9.54 0 9.54 0 11.62 0 11.62 0 11.62 0 14.04 7 14.04 7 14.04 7 16.62 0 16.62 0 16.62 0 18.54 0 18.54 0 18.54 0 15.53 7.96 15.53 7.96ZM 7.46 9C 7.46 9 6.46 7 6.46 7 6.46 7 3.46 7 3.46 7 3.46 7 2.46 9 2.46 9 2.46 9 0.54 9 0.54 9 0.54 9 3.54 1.04 3.54 1.04 3.54 1.04 4.46 0 4.46 0 4.46 0 5.38 0 5.38 0 5.38 0 6.46 1.08 6.46 1.08 6.46 1.08 9.54 9 9.54 9 9.54 9 7.46 9 7.46 9ZM 5.04 2C 5.04 2 3.96 5 3.96 5 3.96 5 5.96 5 5.96 5 5.96 5 5.04 2 5.04 2ZM 4.46 12C 4.46 12 14.46 12 14.46 12 14.46 12 14.46 10 14.46 10 14.46 10 18.46 13 18.46 13 18.46 13 14.46 16 14.46 16 14.46 16 14.46 14 14.46 14 14.46 14 4.46 14 4.46 14 4.46 14 4.46 16 4.46 16 4.46 16 0.46 13 0.46 13 0.46 13 4.46 10 4.46 10 4.46 10 4.46 12 4.46 12Z"/>
</svg>