<?xml version="1.0" encoding="utf-8"?>
<svg xmlns="http://www.w3.org/2000/svg"
	xmlns:xlink="http://www.w3.org/1999/xlink"
	width="11px" height="14px" viewBox="0 0 11 14">
<path fill-rule="evenodd" d="M 6.74 14C 6.74 14 1.98 14 1.98 14 0.89 14-0.01 13.1-0.01 12-0.01 12-0.01 2-0.01 2-0.01 0.9 0.89 0 1.98 0 1.98 0 5.88 0 5.88 0 7.34 0 8.5 0.64 9.25 1.79 10.06 3.03 10.12 4.62 9.41 5.94 9.27 6.21 9.26 6.45 9.06 6.67 10.06 7.32 10.77 8.37 10.89 9.57 11 10.72 10.65 11.81 9.91 12.64 9.13 13.5 7.97 14 6.74 14ZM 1.98 8C 1.98 8 1.98 12 1.98 12 1.98 12 6.96 12 6.96 12 7.63 12 8.96 12.06 8.96 10 8.96 8.06 8.06 8 6.96 8 6.96 8 1.98 8 1.98 8ZM 1.98 6C 1.98 6 5.97 6 5.97 6 6.59 6 7.96 6 7.96 4 7.96 2.06 6.75 2 5.97 2 5.97 2 1.98 2 1.98 2 1.98 2 1.98 6 1.98 6Z"/>
</svg>