<?xml version="1.0" encoding="utf-8"?>
<svg width="14px" height="14px" viewBox="0 0 14 14">
<path fill-rule="evenodd" d="M 11.58 2.5C 11.58 2.5 8.5 2.5 8.5 2.5 8.5 2.5 8.5 1.49 8.5 1.49 8.5 0.39 7.68-0.5 6.58-0.5 6.58-0.5 1.58-0.5 1.58-0.5 0.47-0.5-0.5 0.39-0.5 1.49-0.5 1.49-0.5 6.49-0.5 6.49-0.5 7.6 0.47 8.5 1.58 8.5 1.58 8.5 2.5 8.5 2.5 8.5 2.5 8.5 2.5 11.49 2.5 11.49 2.5 12.6 3.47 13.5 4.58 13.5 4.58 13.5 11.58 13.5 11.58 13.5 12.68 13.5 13.5 12.6 13.5 11.49 13.5 11.49 13.5 4.49 13.5 4.49 13.5 3.39 12.68 2.5 11.58 2.5ZM 4.58 2.5C 3.47 2.5 2.5 3.39 2.5 4.49 2.5 4.49 2.5 6.5 2.5 6.5 2.5 6.5 1.5 6.5 1.5 6.5 1.5 6.5 1.5 1.5 1.5 1.5 1.5 1.5 6.5 1.5 6.5 1.5 6.5 1.5 6.5 2.5 6.5 2.5 6.5 2.5 4.58 2.5 4.58 2.5Z"/>
</svg>