<?xml version="1.0" encoding="utf-8"?>
<svg width="15px" height="14px" viewBox="0 0 15 14">
<path fill-rule="evenodd" d="M 0 1.5C 0 1.5 0-0.5 0-0.5 0-0.5 15-0.5 15-0.5 15-0.5 15 1.5 15 1.5 15 1.5 0 1.5 0 1.5ZM 3.14 2.5C 3.14 2.5 5.52 2.5 5.52 2.5 6.52 2.5 7 3.43 7 4.58 7 4.58 7 11.42 7 11.42 7 12.57 6.52 13.5 5.52 13.5 5.52 13.5 3.14 13.5 3.14 13.5 2.14 13.5 1 12.57 1 11.42 1 11.42 1 4.58 1 4.58 1 3.43 2.14 2.5 3.14 2.5ZM 10 2.5C 10 2.5 12 2.5 12 2.5 13.1 2.5 14 3.4 14 4.5 14 4.5 14 8.5 14 8.5 14 9.6 13.1 10.5 12 10.5 12 10.5 10 10.5 10 10.5 8.9 10.5 8 9.6 8 8.5 8 8.5 8 4.5 8 4.5 8 3.4 8.9 2.5 10 2.5Z"/>
</svg>