<?xml version="1.0" encoding="utf-8"?>
<svg width="7px" height="7px" viewBox="0 0 7 7">
<path fill="rgb(21,45,61)" fill-rule="evenodd" d="M 6 6.97C 6 6.97 6 6 6 6 6 6 6.97 6 6.97 6 6.97 6 6.97 6.97 6.97 6.97 6.97 6.97 6 6.97 6 6.97ZM 6 0C 6 0 6.97 0 6.97 0 6.97 0 6.97 0.97 6.97 0.97 6.97 0.97 6 0.97 6 0.97 6 0.97 6 0 6 0ZM 5 5C 5 5 5.97 5 5.97 5 5.97 5 5.97 5.97 5.97 5.97 5.97 5.97 5 5.97 5 5.97 5 5.97 5 5 5 5ZM 5 1C 5 1 5.97 1 5.97 1 5.97 1 5.97 1.97 5.97 1.97 5.97 1.97 5 1.97 5 1.97 5 1.97 5 1 5 1ZM 4 4C 4 4 4.97 4 4.97 4 4.97 4 4.97 4.97 4.97 4.97 4.97 4.97 4 4.97 4 4.97 4 4.97 4 4 4 4ZM 4 2C 4 2 4.97 2 4.97 2 4.97 2 4.97 2.97 4.97 2.97 4.97 2.97 4 2.97 4 2.97 4 2.97 4 2 4 2ZM 3 3C 3 3 3.97 3 3.97 3 3.97 3 3.97 3.97 3.97 3.97 3.97 3.97 3 3.97 3 3.97 3 3.97 3 3 3 3ZM 2 4C 2 4 2.97 4 2.97 4 2.97 4 2.97 4.97 2.97 4.97 2.97 4.97 2 4.97 2 4.97 2 4.97 2 4 2 4ZM 2 2C 2 2 2.97 2 2.97 2 2.97 2 2.97 2.97 2.97 2.97 2.97 2.97 2 2.97 2 2.97 2 2.97 2 2 2 2ZM 1 5C 1 5 1.97 5 1.97 5 1.97 5 1.97 5.97 1.97 5.97 1.97 5.97 1 5.97 1 5.97 1 5.97 1 5 1 5ZM 1 1C 1 1 1.97 1 1.97 1 1.97 1 1.97 1.97 1.97 1.97 1.97 1.97 1 1.97 1 1.97 1 1.97 1 1 1 1ZM 0.01-0.01C 0.01-0.01 0.98-0.01 0.98-0.01 0.98-0.01 0.98 0.95 0.98 0.95 0.98 0.95 0.01 0.95 0.01 0.95 0.01 0.95 0.01-0.01 0.01-0.01ZM 0.97 6.97C 0.97 6.97-0 6.97-0 6.97-0 6.97-0 6-0 6-0 6 0.97 6 0.97 6 0.97 6 0.97 6.97 0.97 6.97Z"/>
</svg>