<?xml version="1.0" encoding="utf-8"?>
<svg width="14px" height="15px" viewBox="0 0 14 15">
<path fill-rule="evenodd" d="M 10.65 14C 10.65 14 7.3 14 7.3 14 7.3 14 7.3 15 7.3 15 7.3 15 5.3 15 5.3 15 5.3 15 5.3 14 5.3 14 5.3 14 0.81 14 0.81 14-0.34 14-0.5 13.19-0.5 12.19-0.5 12.19-0.5 9.81-0.5 9.81-0.5 8.81-0.34 8 0.81 8 0.81 8 5.5 8 5.5 8 5.5 8 5.5 7 5.5 7 5.5 7 4.5 7 4.5 7 3.4 7 2.5 6.1 2.5 5 2.5 5 2.5 3 2.5 3 2.5 1.9 3.4 1 4.5 1 4.5 1 5.5 1 5.5 1 5.5 1 5.5-0 5.5-0 5.5-0 7.5-0 7.5-0 7.5-0 7.5 1 7.5 1 7.5 1 8.5 1 8.5 1 9.6 1 10.5 1.9 10.5 3 10.5 3 10.5 5 10.5 5 10.5 6.1 9.6 7 8.5 7 8.5 7 7.5 7 7.5 7 7.5 7 7.5 8 7.5 8 7.5 8 10.65 8 10.65 8 11.8 8 13.5 8.81 13.5 9.81 13.5 9.81 13.5 12.19 13.5 12.19 13.5 13.19 11.8 14 10.65 14Z"/>
</svg>