<?xml version="1.0" encoding="utf-8"?>
<svg xmlns="http://www.w3.org/2000/svg"
	xmlns:xlink="http://www.w3.org/1999/xlink"
	width="14px" height="12px" viewBox="0 0 14 12">
<path fill-rule="evenodd" d="M 9.59 11.64C 9.77 10.27 9.33 8.59 8.59 7.42 7.96 6.42 7.07 5.66 6.04 5.18 6.04 5.18 9 0.93 9 0.93 9 0.93 8.18 0.36 8.18 0.36 8.18 0.36-0.37 12.64-0.37 12.64-0.37 12.64 13.37 12.64 13.37 12.64 13.37 12.64 13.37 11.64 13.37 11.64 13.37 11.64 9.59 11.64 9.59 11.64ZM 5.59 5.64C 6.51 6.04 7.19 7.07 7.74 7.95 8.36 8.93 8.62 10.1 8.47 11.25 8.46 11.31 8.41 11.48 8.37 11.64 8.37 11.64 1.54 11.64 1.54 11.64 1.54 11.64 5.59 5.64 5.59 5.64Z"/>
</svg>