<?xml version="1.0" encoding="utf-8"?>
<svg width="17px" height="12px" viewBox="0 0 17 12">
<path fill-rule="evenodd" d="M 15 6.5C 15 7.6 14.1 8.5 13 8.5 13 8.5 11 8.5 11 8.5 9.9 8.5 9 7.6 9 6.5 9 6.5 8 6.5 8 6.5 8 6.5 8 9.34 8 9.34 8 10.49 7.19 11.5 6.19 11.5 6.19 11.5 3.81 11.5 3.81 11.5 2.81 11.5 2 10.49 2 9.34 2 9.34 2 6.42 2 6.42 2 6.42 0 6.42 0 6.42 0 6.42 0 4.42 0 4.42 0 4.42 2 4.42 2 4.42 2 4.42 2 1.5 2 1.5 2 0.35 2.81-0.5 3.81-0.5 3.81-0.5 6.19-0.5 6.19-0.5 7.19-0.5 8 0.35 8 1.5 8 1.5 8 4.5 8 4.5 8 4.5 9 4.5 9 4.5 9 4.5 9 2.5 9 2.5 9 1.4 9.9 0.5 11 0.5 11 0.5 13 0.5 13 0.5 14.1 0.5 15 1.4 15 2.5 15 2.5 15 4.5 15 4.5 15 4.5 17 4.5 17 4.5 17 4.5 17 6.5 17 6.5 17 6.5 15 6.5 15 6.5Z"/>
</svg>