<?xml version="1.0" encoding="utf-8"?>
<svg width="15px" height="14px" viewBox="0 0 15 14">
<path fill-rule="evenodd" d="M 0 13.5C 0 13.5 0 11.5 0 11.5 0 11.5 15 11.5 15 11.5 15 11.5 15 13.5 15 13.5 15 13.5 0 13.5 0 13.5ZM 12.19 10.5C 12.19 10.5 9.81 10.5 9.81 10.5 8.81 10.5 8 9.57 8 8.42 8 8.42 8 1.58 8 1.58 8 0.43 8.81-0.5 9.81-0.5 9.81-0.5 12.19-0.5 12.19-0.5 13.19-0.5 14 0.43 14 1.58 14 1.58 14 8.42 14 8.42 14 9.57 13.19 10.5 12.19 10.5ZM 5 10.5C 5 10.5 3 10.5 3 10.5 1.9 10.5 1 9.6 1 8.5 1 8.5 1 4.5 1 4.5 1 3.4 1.9 2.5 3 2.5 3 2.5 5 2.5 5 2.5 6.1 2.5 7 3.4 7 4.5 7 4.5 7 8.5 7 8.5 7 9.6 6.1 10.5 5 10.5Z"/>
</svg>