<?xml version="1.0" encoding="utf-8"?>
<svg width="14px" height="14px" viewBox="0 0 14 14">
<path fill-rule="evenodd" d="M 11.45 2.5C 11.45 2.5 8.5 2.5 8.5 2.5 8.5 2.5 8.5 0.99 8.5 0.99 8.5-0.11 7.56-0.5 6.45-0.5 6.45-0.5 1.45-0.5 1.45-0.5 0.35-0.5-0.5-0.11-0.5 0.99-0.5 0.99-0.5 5.99-0.5 5.99-0.5 7.1 0.35 8.5 1.45 8.5 1.45 8.5 2.5 8.5 2.5 8.5 2.5 8.5 2.5 10.99 2.5 10.99 2.5 12.1 3.35 13.5 4.45 13.5 4.45 13.5 11.45 13.5 11.45 13.5 12.56 13.5 13.5 12.1 13.5 10.99 13.5 10.99 13.5 3.99 13.5 3.99 13.5 2.89 12.56 2.5 11.45 2.5ZM 11.5 11.5C 11.5 11.5 4.5 11.5 4.5 11.5 4.5 11.5 4.5 4.5 4.5 4.5 4.5 4.5 11.5 4.5 11.5 4.5 11.5 4.5 11.5 11.5 11.5 11.5Z"/>
</svg>