<?xml version="1.0" encoding="utf-8"?>
<svg width="15px" height="15px" viewBox="0 0 15 15">
<path fill-rule="evenodd" d="M 12.92 14C 12.92 14 5.08 14 5.08 14 3.93 14 3 13.19 3 12.19 3 12.19 3 9.81 3 9.81 3 8.81 3.93 8 5.08 8 5.08 8 12.92 8 12.92 8 14.07 8 15 8.81 15 9.81 15 9.81 15 12.19 15 12.19 15 13.19 14.07 14 12.92 14ZM 10 7C 10 7 5 7 5 7 3.9 7 3 6.1 3 5 3 5 3 3 3 3 3 1.9 3.9 1 5 1 5 1 10 1 10 1 11.1 1 12 1.9 12 3 12 3 12 5 12 5 12 6.1 11.1 7 10 7ZM-0-0C-0-0 2-0 2-0 2-0 2 15 2 15 2 15-0 15-0 15-0 15-0-0-0-0Z"/>
</svg>