<?xml version="1.0" encoding="utf-8"?>
<svg width="13px" height="15px" viewBox="0 0 13 15">
<path fill-rule="evenodd" d="M 11.08 12C 11.08 12 5.08 12 5.08 12 3.97 12 3 11.1 3 9.99 3 9.99 3 1.99 3 1.99 3 0.89 3.97 0 5.08 0 5.08 0 11.08 0 11.08 0 12.18 0 13 0.89 13 1.99 13 1.99 13 9.99 13 9.99 13 11.09 12.18 12 11.08 12ZM 11 2C 11 2 5 2 5 2 5 2 5 3 5 3 5 3 11 3 11 3 11 3 11 2 11 2ZM 11 4C 11 4 5 4 5 4 5 4 5 5 5 5 5 5 11 5 11 5 11 5 11 4 11 4ZM 10 13C 10 13 10 15 10 15 10 15 3.08 15 3.08 15 1.42 15-0 13.65-0 11.99-0 11.99-0 4-0 4-0 4 2 4 2 4 2 4 2 11.99 2 11.99 2 12.54 2.53 13 3.08 13 3.08 13 10 13 10 13Z"/>
</svg>