<?xml version="1.0" encoding="utf-8"?>
<svg width="14px" height="15px" viewBox="0 0 14 15">
<path fill-rule="evenodd" d="M 11.58 15C 11.58 15 6.58 15 6.58 15 5.47 15 4.5 14.1 4.5 12.99 4.5 12.99 4.5 9.99 4.5 9.99 4.5 8.89 5.47 8 6.58 8 6.58 8 11.58 8 11.58 8 12.68 8 13.5 8.89 13.5 9.99 13.5 9.99 13.5 12.99 13.5 12.99 13.5 14.1 12.68 15 11.58 15ZM 11.5 10C 11.5 10 6.5 10 6.5 10 6.5 10 6.5 11 6.5 11 6.5 11 11.5 11 11.5 11 11.5 11 11.5 10 11.5 10ZM 11.5 12C 11.5 12 6.5 12 6.5 12 6.5 12 6.5 13 6.5 13 6.5 13 11.5 13 11.5 13 11.5 13 11.5 12 11.5 12ZM 3.5 8.99C 3.5 8.99 3.5 14 3.5 14 3.5 14 1.58 14 1.58 14 0.47 14-0.5 13.1-0.5 11.99-0.5 11.99-0.5 2.99-0.5 2.99-0.5 1.89 0.48 1 1.58 1 1.58 1 2.5 1 2.5 1 2.5 1 2.5 0.49 2.5 0.49 2.5 0.22 2.8 0 3.08 0 3.08 0 7.08 0 7.08 0 7.35 0 7.5 0.22 7.5 0.49 7.5 0.49 7.5 1 7.5 1 7.5 1 8.58 1 8.58 1 9.68 1 10.5 1.89 10.5 2.99 10.5 2.99 10.5 7 10.5 7 10.5 7 5.58 7 5.58 7 4.47 7 3.5 7.89 3.5 8.99ZM 6.5 1C 6.5 1 3.5 1 3.5 1 3.5 1 3.5 2 3.5 2 3.5 2 6.5 2 6.5 2 6.5 2 6.5 1 6.5 1Z"/>
</svg>