<?xml version="1.0" encoding="utf-8"?>
<svg width="14px" height="14px" viewBox="0 0 14 14">
<path fill-rule="evenodd" d="M 11.58 5.5C 11.58 5.5 10.5 5.5 10.5 5.5 10.5 5.5 10.5 4.49 10.5 4.49 10.5 3.39 9.68 2.5 8.58 2.5 8.58 2.5 7.5 2.5 7.5 2.5 7.5 2.5 7.5 1.49 7.5 1.49 7.5 0.39 6.68-0.5 5.58-0.5 5.58-0.5 1.58-0.5 1.58-0.5 0.47-0.5-0.5 0.39-0.5 1.49-0.5 1.49-0.5 5.49-0.5 5.49-0.5 6.6 0.47 7.5 1.58 7.5 1.58 7.5 2.5 7.5 2.5 7.5 2.5 7.5 2.5 8.49 2.5 8.49 2.5 9.6 3.47 10.5 4.58 10.5 4.58 10.5 5.5 10.5 5.5 10.5 5.5 10.5 5.5 11.49 5.5 11.49 5.5 12.6 6.47 13.5 7.58 13.5 7.58 13.5 11.58 13.5 11.58 13.5 12.68 13.5 13.5 12.6 13.5 11.49 13.5 11.49 13.5 7.49 13.5 7.49 13.5 6.39 12.68 5.5 11.58 5.5ZM 2.5 4.49C 2.5 4.49 2.5 5.5 2.5 5.5 2.5 5.5 1.5 5.5 1.5 5.5 1.5 5.5 1.5 1.5 1.5 1.5 1.5 1.5 5.5 1.5 5.5 1.5 5.5 1.5 5.5 2.5 5.5 2.5 5.5 2.5 4.58 2.5 4.58 2.5 3.47 2.5 2.5 3.39 2.5 4.49ZM 5.5 7.49C 5.5 7.49 5.5 8.5 5.5 8.5 5.5 8.5 4.5 8.5 4.5 8.5 4.5 8.5 4.5 4.5 4.5 4.5 4.5 4.5 8.5 4.5 8.5 4.5 8.5 4.5 8.5 5.5 8.5 5.5 8.5 5.5 7.58 5.5 7.58 5.5 6.47 5.5 5.5 6.39 5.5 7.49Z"/>
</svg>