<?xml version="1.0" encoding="utf-8"?>
<svg width="13px" height="15px" viewBox="0 0 13 15">
<path fill-rule="evenodd" d="M 12.02 2C 12.02 2 8.98 2 8.98 2 8.98 2 8.98-0 8.98-0 8.98-0 3.98-0 3.98-0 3.98-0 3.98 2 3.98 2 3.98 2 1.02 2 1.02 2 0.47 2 0 2.44 0 3 0 3.55 0.98 3.99 0.98 3.99 0.98 3.99 0.98 11.99 0.98 11.99 0.98 13.65 2.36 15 4.02 15 4.02 15 9.02 15 9.02 15 10.68 15 11.98 13.65 11.98 11.99 11.98 11.99 11.98 3.99 11.98 3.99 12.98 3.99 13 3.55 13 3 13 2.44 12.57 2 12.02 2ZM 4.98 12C 4.98 12 3.98 12 3.98 12 3.98 12 3.98 5 3.98 5 3.98 5 4.98 5 4.98 5 4.98 5 4.98 12 4.98 12ZM 8.98 12C 8.98 12 7.98 12 7.98 12 7.98 12 7.98 5 7.98 5 7.98 5 8.98 5 8.98 5 8.98 5 8.98 12 8.98 12ZM 4.98 1C 4.98 1 7.98 1 7.98 1 7.98 1 7.98 2 7.98 2 7.98 2 4.98 2 4.98 2 4.98 2 4.98 1 4.98 1Z"/>
</svg>