<?xml version="1.0" encoding="utf-8"?>
<svg width="13px" height="15px" viewBox="0 0 13 15">
<path fill-rule="evenodd" d="M 11 12C 11 12 5 12 5 12 3.9 12 3 11.1 3 10 3 10 3 2 3 2 3 0.9 3.9 0 5 0 5 0 9 0 9 0 9 0 13 4 13 4 13 4 13 10 13 10 13 11.1 12.1 12 11 12ZM 11 5C 11 5 8 5 8 5 8 5 8 2 8 2 8 2 5 2 5 2 5 2 5 10 5 10 5 10 11 10 11 10 11 10 11 5 11 5ZM 10 13C 10 13 10 15 10 15 10 15 3 15 3 15 1.35 15-0 13.65-0 12-0 12-0 4-0 4-0 4 2 4 2 4 2 4 2 12 2 12 2 12.55 2.45 13 3 13 3 13 10 13 10 13Z"/>
</svg>