<?xml version="1.0" encoding="utf-8"?>
<svg width="15px" height="15px" viewBox="0 0 15 15">
<path fill-rule="evenodd" d="M 13 15C 13 15 13-0 13-0 13-0 15-0 15-0 15-0 15 15 15 15 15 15 13 15 13 15ZM 9.99 14C 9.99 14 2.15 14 2.15 14 1 14-0 13.19-0 12.19-0 12.19-0 9.81-0 9.81-0 8.81 1 8 2.15 8 2.15 8 9.99 8 9.99 8 11.14 8 12 8.81 12 9.81 12 9.81 12 12.19 12 12.19 12 13.19 11.14 14 9.99 14ZM 10 7C 10 7 5 7 5 7 3.9 7 3 6.1 3 5 3 5 3 3 3 3 3 1.9 3.9 1 5 1 5 1 10 1 10 1 11.1 1 12 1.9 12 3 12 3 12 5 12 5 12 6.1 11.1 7 10 7Z"/>
</svg>