<?xml version="1.0" encoding="UTF-8" standalone="no"?>
<svg width="19px" height="19px" viewBox="0 0 19 19" version="1.1" xmlns="http://www.w3.org/2000/svg" xmlns:xlink="http://www.w3.org/1999/xlink" xmlns:sketch="http://www.bohemiancoding.com/sketch/ns">
    <!-- Generator: Sketch 3.3.1 (12002) - http://www.bohemiancoding.com/sketch -->
    <title>top-bar-x</title>
    <desc>Created with Sketch.</desc>
    <defs></defs>
    <g id="Page-1" stroke="none" stroke-width="1" fill="none" fill-rule="evenodd" sketch:type="MSPage">
        <g id="top-bar-x" sketch:type="MSArtboardGroup" fill="#FFFFFF">
            <g id="Fill-2" sketch:type="MSLayerGroup" transform="translate(6.000000, 6.000000)">
                <path d="M6.089,6.05 L7.027,6.05 L7.027,7.019 L6.089,7.019 L6.089,6.05 Z M6.089,0.05 L7.027,0.05 L7.027,1.019 L6.089,1.019 L6.089,0.05 Z M5.089,5.05 L6.027,5.05 L6.027,6.019 L5.089,6.019 L5.089,5.05 Z M5.089,1.05 L6.027,1.05 L6.027,2.019 L5.089,2.019 L5.089,1.05 Z M4.089,4.05 L5.027,4.05 L5.027,5.019 L4.089,5.019 L4.089,4.05 Z M4.089,2.05 L5.027,2.05 L5.027,3.019 L4.089,3.019 L4.089,2.05 Z M3.089,3.05 L4.027,3.05 L4.027,4.019 L3.089,4.019 L3.089,3.05 Z M2.089,4.05 L3.027,4.05 L3.027,5.019 L2.089,5.019 L2.089,4.05 Z M2.089,2.05 L3.027,2.05 L3.027,3.019 L2.089,3.019 L2.089,2.05 Z M1.089,5.05 L2.027,5.05 L2.027,6.019 L1.089,6.019 L1.089,5.05 Z M1.089,1.05 L2.027,1.05 L2.027,2.019 L1.089,2.019 L1.089,1.05 Z M0.094,0.062 L1.031,0.062 L1.031,1.031 L0.094,1.031 L0.094,0.062 Z M0.089,6.05 L1.027,6.05 L1.027,7.019 L0.089,7.019 L0.089,6.05 Z" sketch:type="MSShapeGroup"></path>
            </g>
        </g>
    </g>
</svg>