<svg xmlns="http://www.w3.org/2000/svg" width="116" height="86" class="symbol-desktop-mobile-view-clipart" xmlns:xlink="http://www.w3.org/1999/xlink" viewBox="0 0 116 86"><ellipse cx="43.164" cy="72.534" fill="#a2dbf4" rx="38.5" ry="2"/><ellipse cx="78.164" cy="77.534" fill="#a2dbf4" rx="20" ry="2.5"/><ellipse cx="101.164" cy="83.534" fill="#a2dbf4" rx="14.5" ry="2"/><path fill="#7fccf7" d="M46.365 58H39.27s-.876 8.492-3.633 12.45c-.554.795-.02 1.55.95 1.55h12.462c.968 0 1.502-.755.948-1.55C47.24 66.492 46.365 58 46.365 58z"/><defs><path id="a" d="M86 59.115A2.885 2.885 0 0 1 83.115 62H2.885A2.885 2.885 0 0 1 0 59.115V2.885A2.885 2.885 0 0 1 2.885 0h80.23A2.885 2.885 0 0 1 86 2.885v56.23z"/></defs><use fill="#FFF" xlink:href="#a" overflow="visible"/><clipPath id="b"><use xlink:href="#a" overflow="visible"/></clipPath><path fill="#a2dbf4" d="M-4-3h97v16H-4z" clip-path="url(#b)"/><circle cx="6.993" cy="6.442" r="1.665" fill="#FFF"/><circle cx="13.34" cy="6.442" r="1.665" fill="#FFF"/><path fill="#FFF" d="M80 6.5A1.5 1.5 0 0 1 78.5 8h-59a1.5 1.5 0 0 1 0-3h59A1.5 1.5 0 0 1 80 6.5z"/><defs><path id="c" d="M95 75.51A2.49 2.49 0 0 1 92.51 78H63.49A2.49 2.49 0 0 1 61 75.51V30.49A2.49 2.49 0 0 1 63.49 28h29.02A2.49 2.49 0 0 1 95 30.49v45.02z"/></defs><use fill="#eaf7ff" xlink:href="#c" overflow="visible"/><clipPath id="d"><use xlink:href="#c" overflow="visible"/></clipPath><path fill="#7fccf7" d="M54 69h44v13H54zM60 28h36v4H60z" clip-path="url(#d)"/><circle cx="78.34" cy="73.442" r="1.665" fill="#FFF" clip-path="url(#d)"/><defs><path id="e" d="M112 81.633A2.367 2.367 0 0 1 109.633 84H91.367A2.367 2.367 0 0 1 89 81.633V44.367A2.367 2.367 0 0 1 91.367 42h18.266A2.367 2.367 0 0 1 112 44.367v37.266z"/></defs><use fill="#a7e3fa" xlink:href="#e" overflow="visible"/><clipPath id="f"><use xlink:href="#e" overflow="visible"/></clipPath><path fill="#4eb7f5" d="M116 86.95a2.05 2.05 0 0 1-2.05 2.05h-26.9A2.05 2.05 0 0 1 85 86.95V77.05c0-1.13.917-2.048 2.05-2.048h26.902c1.13 0 2.05.917 2.05 2.05v9.9zM116 42.95a2.05 2.05 0 0 1-2.05 2.05h-26.9A2.05 2.05 0 0 1 85 42.95V33.05c0-1.13.917-2.048 2.05-2.048h26.902c1.13 0 2.05.917 2.05 2.05v9.9z" clip-path="url(#f)"/><circle cx="101.34" cy="79.442" r="1.665" fill="#FFF"/></svg>