<?xml version="1.0" encoding="utf-8"?>
<svg xmlns="http://www.w3.org/2000/svg"
	xmlns:xlink="http://www.w3.org/1999/xlink"
	width="29px" height="25px" viewBox="0 0 29 25">
<path fill="rgb(0,153,239)" fill-rule="evenodd" d="M 25.61 22.38C 25.61 22.38 24.75 22.38 24.75 22.38 24.34 23.94 22.94 25.1 21.26 25.1 19.57 25.1 18.17 23.76 17.76 22.21 17.76 22.21 12.98 22.21 12.98 22.21 12.58 23.76 11.17 25.1 9.49 25.1 7.81 25.1 6.4 23.94 6 22.38 6 22.38 5.22 22.38 5.22 22.38 3.73 22.38 2.51 21.16 2.51 19.66 2.51 19.66 2.51 16.26 2.51 16.26 2.51 16.26 2.51 16.26 2.51 16.26 1.01 16.26-0.47 15.04-0.47 13.54-0.47 13.54-0.47 3.15-0.47 3.15-0.47 1.65 0.75 0.44 2.25 0.44 2.25 0.44 15.83 0.44 15.83 0.44 17.32 0.44 18.54 1.65 18.54 3.15 18.54 3.15 18.54 5.39 18.54 5.39 18.54 5.39 22.16 5.39 22.16 5.39 23.07 5.39 23.92 5.85 24.42 6.6 24.42 6.6 27.96 12.03 27.96 12.03 28.25 12.48 28.41 13 28.41 13.54 28.41 13.54 28.41 19.66 28.41 19.66 28.41 21.16 27.11 22.38 25.61 22.38ZM 21.26 23.28C 22.26 23.28 23.07 22.47 23.07 21.47 23.07 20.47 22.26 19.66 21.26 19.66 20.26 19.66 19.45 20.47 19.45 21.47 19.45 22.47 20.26 23.28 21.26 23.28ZM 9.49 23.28C 10.49 23.28 11.3 22.47 11.3 21.47 11.3 20.47 10.49 19.66 9.49 19.66 8.49 19.66 7.68 20.47 7.68 21.47 7.68 22.47 8.49 23.28 9.49 23.28ZM 15.48 7.38C 15.48 7.38 15.48 5.57 15.48 5.57 15.48 5.57 15.48 4.23 15.48 4.23 15.48 3.73 15.07 3.32 14.57 3.32 14.57 3.32 3.33 3.32 3.33 3.32 2.83 3.32 2.42 3.73 2.42 4.23 2.42 4.23 2.42 12.55 2.42 12.55 2.42 13.05 2.83 13.45 3.33 13.45 3.33 13.45 14.57 13.45 14.57 13.45 15.07 13.45 15.48 13.05 15.48 12.55 15.48 12.55 15.48 7.38 15.48 7.38ZM 26.51 13.54C 26.51 13.36 26.46 13.19 26.36 13.04 26.36 13.04 22.92 7.61 22.92 7.61 22.75 7.36 22.46 7.2 22.16 7.2 22.16 7.2 18.54 7.2 18.54 7.2 18.54 7.2 18.54 13.54 18.54 13.54 18.54 15.04 17.32 16.26 15.83 16.26 15.83 16.26 4.32 16.26 4.32 16.26 4.32 16.26 4.32 19.66 4.32 19.66 4.32 20.16 4.72 20.57 5.22 20.57 5.22 20.57 6 20.57 6 20.57 6.4 19.01 7.81 17.85 9.49 17.85 11.17 17.85 12.58 18.75 12.98 20.31 12.98 20.31 17.76 20.31 17.76 20.31 18.17 18.75 19.57 17.85 21.26 17.85 22.94 17.85 24.34 19.01 24.75 20.57 24.75 20.57 25.61 20.57 25.61 20.57 26.11 20.57 26.51 20.16 26.51 19.66 26.51 19.66 26.51 13.54 26.51 13.54ZM 23.97 15.35C 23.97 15.35 20.35 15.35 20.35 15.35 19.85 15.35 19.45 14.95 19.45 14.45 19.45 14.45 19.45 9.01 19.45 9.01 19.45 8.51 19.85 8.11 20.35 8.11 20.35 8.11 21.26 8.11 21.26 8.11 21.56 8.11 21.84 8.26 22.01 8.51 22.01 8.51 24.73 12.59 24.73 12.59 24.82 12.73 24.88 12.91 24.88 13.09 24.88 13.09 24.88 14.45 24.88 14.45 24.88 14.95 24.47 15.35 23.97 15.35ZM 23.97 13.09C 23.97 13.09 21.26 9.01 21.26 9.01 21.26 9.01 20.35 9.01 20.35 9.01 20.35 9.01 20.35 14.45 20.35 14.45 20.35 14.45 23.97 14.45 23.97 14.45 23.97 14.45 23.97 13.09 23.97 13.09Z"/>
</svg>