<svg xmlns="http://www.w3.org/2000/svg" width="29" height="25" viewBox="0 0 29 25"><path fill="#0099EF" fill-rule="evenodd" d="M25.61 22.38h-.86c-.41 1.56-1.81 2.72-3.49 2.72-1.69 0-3.09-1.34-3.5-2.89h-4.78c-.4 1.55-1.81 2.89-3.49 2.89-1.68 0-3.09-1.16-3.49-2.72h-.78a2.72 2.72 0 0 1-2.71-2.72v-3.4c-1.5 0-2.98-1.22-2.98-2.72V3.15C-.47 1.65.75.44 2.25.44h13.58c1.49 0 2.71 1.21 2.71 2.71v2.24h3.62c.91 0 1.76.46 2.26 1.21l3.54 5.43c.29.45.45.97.45 1.51v6.12c0 1.5-1.3 2.72-2.8 2.72zm-4.35.9a1.81 1.81 0 1 0 0-3.62 1.81 1.81 0 0 0 0 3.62zm-11.77 0a1.81 1.81 0 1 0 0-3.62 1.81 1.81 0 0 0 0 3.62zm5.99-15.9V5.57 4.23c0-.5-.41-.91-.91-.91H3.33c-.5 0-.91.41-.91.91v8.32c0 .5.41.9.91.9h11.24c.5 0 .91-.4.91-.9V7.38zm11.03 6.16a.89.89 0 0 0-.15-.5l-3.44-5.43a.935.935 0 0 0-.76-.41h-3.62v6.34c0 1.5-1.22 2.72-2.71 2.72H4.32v3.4c0 .5.4.91.9.91H6c.4-1.56 1.81-2.72 3.49-2.72 1.68 0 3.09.9 3.49 2.46h4.78c.41-1.56 1.81-2.46 3.5-2.46 1.68 0 3.08 1.16 3.49 2.72h.86c.5 0 .9-.41.9-.91v-6.12zm-2.54 1.81h-3.62c-.5 0-.9-.4-.9-.9V9.01c0-.5.4-.9.9-.9h.91c.3 0 .58.15.75.4l2.72 4.08c.09.14.15.32.15.5v1.36c0 .5-.41.9-.91.9zm0-2.26l-2.71-4.08h-.91v5.44h3.62v-1.36z"/></svg>