<svg xmlns="http://www.w3.org/2000/svg"
    xmlns:xlink="http://www.w3.org/1999/xlink"
    preserveAspectRatio="xMidYMid" viewBox="0 0 28 26" width="28" height="26">
  <path d="M17.253,-0.012 C11.329,-0.012 6.508,4.376 6.508,10.264 C6.508,10.264 6.508,16.550 6.508,16.550 C6.508,16.550 1.318,11.681 1.318,11.681 C1.318,11.681 -0.023,13.091 -0.023,13.091 C-0.023,13.091 7.485,20.135 7.485,20.135 C7.485,20.135 14.994,13.091 14.994,13.091 C14.994,13.091 13.652,11.681 13.652,11.681 C13.652,11.681 8.462,16.550 8.462,16.550 C8.462,16.550 8.462,10.446 8.462,10.446 C8.462,4.810 12.406,1.927 17.253,1.927 C22.101,1.927 26.045,5.294 26.045,8.567 C26.045,8.567 26.045,25.964 26.045,25.964 C26.045,25.964 27.998,25.964 27.998,25.964 C27.998,25.964 27.998,8.506 27.998,8.506 C27.998,3.657 23.178,-0.012 17.253,-0.012 Z" id="path-1" class="cls-2" fill-rule="evenodd"/>
</svg>
