<svg xmlns="http://www.w3.org/2000/svg" xmlns:xlink="http://www.w3.org/1999/xlink" preserveAspectRatio="xMidYMid" width="9" height="7" viewBox="0 0 9 7">
  
  <path d="M2.663,7.001 C2.659,7.001 2.653,7.001 2.649,7.001 C2.449,6.996 2.261,6.899 2.139,6.737 C2.139,6.737 0.144,4.102 0.144,4.102 C-0.081,3.804 -0.029,3.375 0.261,3.143 C0.551,2.912 0.968,2.965 1.194,3.263 C1.194,3.263 2.687,5.236 2.687,5.236 C2.687,5.236 6.830,0.243 6.830,0.243 C7.069,-0.044 7.487,-0.078 7.768,0.166 C8.047,0.411 8.080,0.842 7.842,1.129 C7.842,1.129 3.170,6.761 3.170,6.761 C3.043,6.913 2.858,7.001 2.663,7.001 Z" id="path-1" class="cls-2" fill-rule="evenodd"/>
</svg>
