<svg xmlns="http://www.w3.org/2000/svg" xmlns:xlink="http://www.w3.org/1999/xlink" preserveAspectRatio="xMidYMid" width="41" height="55" viewBox="0 0 41 55">
  
  <g id="group-1">
    <path d="M38.500,37.500 C38.500,37.500 31.500,37.500 31.500,37.500 C30.948,37.500 30.500,37.052 30.500,36.500 C30.500,36.500 30.500,29.500 30.500,29.500 C30.500,28.948 30.948,28.500 31.500,28.500 C31.500,28.500 38.500,28.500 38.500,28.500 C39.052,28.500 39.500,28.948 39.500,29.500 C39.500,29.500 39.500,36.500 39.500,36.500 C39.500,37.052 39.052,37.500 38.500,37.500 ZM38.500,26.500 C38.500,26.500 26.500,26.500 26.500,26.500 C25.948,26.500 25.500,26.052 25.500,25.500 C25.500,25.500 25.500,2.500 25.500,2.500 C25.500,1.948 25.948,1.500 26.500,1.500 C26.500,1.500 38.500,1.500 38.500,1.500 C39.052,1.500 39.500,1.948 39.500,2.500 C39.500,2.500 39.500,25.500 39.500,25.500 C39.500,26.052 39.052,26.500 38.500,26.500 ZM22.500,26.500 C22.500,26.500 2.500,26.500 2.500,26.500 C1.948,26.500 1.500,26.052 1.500,25.500 C1.500,25.500 1.500,2.500 1.500,2.500 C1.500,1.948 1.948,1.500 2.500,1.500 C2.500,1.500 22.500,1.500 22.500,1.500 C23.052,1.500 23.500,1.948 23.500,2.500 C23.500,2.500 23.500,25.500 23.500,25.500 C23.500,26.052 23.052,26.500 22.500,26.500 ZM17.500,41.500 C17.500,41.500 27.500,41.500 27.500,41.500 C28.052,41.500 28.500,41.948 28.500,42.500 C28.500,42.500 28.500,52.500 28.500,52.500 C28.500,53.052 28.052,53.500 27.500,53.500 C27.500,53.500 17.500,53.500 17.500,53.500 C16.966,53.500 16.534,53.067 16.534,52.534 C16.534,52.534 16.534,42.466 16.534,42.466 C16.534,41.933 16.966,41.500 17.500,41.500 Z" id="path-1" class="cls-4" fill-rule="evenodd"/>
    <path d="M28.500,38.500 C28.500,39.052 28.052,39.500 27.500,39.500 C27.500,39.500 17.500,39.500 17.500,39.500 C16.966,39.500 16.534,39.067 16.534,38.534 C16.534,38.534 16.534,29.466 16.534,29.466 C16.534,28.933 16.966,28.500 17.500,28.500 C17.500,28.500 27.500,28.500 27.500,28.500 C28.052,28.500 28.500,28.948 28.500,29.500 C28.500,29.500 28.500,38.500 28.500,38.500 Z" id="path-2" class="cls-5" fill-rule="evenodd"/>
    <path d="M14.500,29.500 C14.500,28.948 14.052,28.500 13.500,28.500 C13.500,28.500 2.500,28.500 2.500,28.500 C1.948,28.500 1.500,28.948 1.500,29.500 C1.500,29.500 1.500,44.500 1.500,44.500 C1.500,45.052 1.948,45.500 2.500,45.500 C2.500,45.500 13.500,45.500 13.500,45.500 C14.052,45.500 14.500,45.052 14.500,44.500 C14.500,44.500 14.500,29.500 14.500,29.500 Z" id="path-3" class="cls-5" fill-rule="evenodd"/>
  </g>
</svg>
