<svg xmlns="http://www.w3.org/2000/svg" width="41" height="55" preserveAspectRatio="xMidYMid" viewBox="0 0 41 55"><g fill-rule="evenodd"><path d="M38.5 37.5h-7a1 1 0 0 1-1-1v-7a1 1 0 0 1 1-1h7a1 1 0 0 1 1 1v7a1 1 0 0 1-1 1zm0-11h-12a1 1 0 0 1-1-1v-23a1 1 0 0 1 1-1h12a1 1 0 0 1 1 1v23a1 1 0 0 1-1 1zm-16 0h-20a1 1 0 0 1-1-1v-23a1 1 0 0 1 1-1h20a1 1 0 0 1 1 1v23a1 1 0 0 1-1 1zm-5 15h10a1 1 0 0 1 1 1v10a1 1 0 0 1-1 1h-10a.966.966 0 0 1-.966-.966V42.466c0-.533.432-.966.966-.966z" class="cls-4"/><path d="M28.5 38.5a1 1 0 0 1-1 1h-10a.966.966 0 0 1-.966-.966v-9.068c0-.533.432-.966.966-.966h10a1 1 0 0 1 1 1v9zM14.5 29.5a1 1 0 0 0-1-1h-11a1 1 0 0 0-1 1v15a1 1 0 0 0 1 1h11a1 1 0 0 0 1-1v-15z" class="cls-5"/></g></svg>