<?xml version="1.0" encoding="utf-8"?>
<svg xmlns="http://www.w3.org/2000/svg" xmlns:xlink="http://www.w3.org/1999/xlink" preserveAspectRatio="xMidYMid" width="64" height="64" viewBox="0 0 64 64">
  <path d="M32.000,64.000 C14.355,64.000 -0.000,49.645 -0.000,32.000 C-0.000,14.356 14.355,-0.000 32.000,-0.000 C49.645,-0.000 64.000,14.356 64.000,32.000 C64.000,49.645 49.645,64.000 32.000,64.000 ZM2.000,32.000 C2.000,48.542 15.458,62.000 32.000,62.000 C39.774,62.000 46.866,59.027 52.201,54.159 C52.201,54.159 41.940,43.661 41.940,43.661 C41.473,43.880 40.955,44.013 40.401,44.013 C40.401,44.013 20.743,44.013 20.743,44.013 C18.955,44.013 17.040,42.636 17.040,40.660 C17.040,40.660 17.040,24.459 17.040,24.459 C17.040,23.236 17.695,22.098 18.798,21.470 C18.798,21.470 9.841,11.799 9.841,11.799 C4.973,17.134 2.000,24.226 2.000,32.000 ZM41.982,40.733 C41.984,40.708 41.991,40.685 41.991,40.660 C41.991,40.660 41.991,35.303 41.991,35.303 C41.991,35.303 41.991,28.987 41.991,28.987 C41.991,28.987 41.991,24.509 41.991,24.509 C41.991,23.740 41.264,23.014 40.494,23.014 C40.494,23.014 23.120,23.014 23.120,23.014 C23.120,23.014 41.982,40.733 41.982,40.733 ZM20.274,23.045 C19.550,23.192 18.991,23.876 18.991,24.509 C18.991,24.509 18.991,40.660 18.991,40.660 C18.991,41.394 19.906,42.014 20.694,42.014 C20.694,42.014 40.292,42.014 40.292,42.014 C40.292,42.014 20.274,23.045 20.274,23.045 ZM32.000,2.000 C23.950,2.000 16.636,5.193 11.242,10.372 C11.242,10.372 21.120,21.013 21.120,21.013 C21.120,21.013 40.543,21.013 40.543,21.013 C42.406,21.013 44.040,22.597 44.040,24.459 C44.040,24.459 44.040,27.266 44.040,27.266 C44.040,27.266 50.208,23.700 50.208,23.700 C50.474,23.540 50.799,23.448 51.129,23.448 C52.137,23.448 52.957,24.269 52.957,25.277 C52.957,25.277 52.957,39.014 52.957,39.014 C52.957,40.022 52.137,40.842 51.129,40.842 C50.799,40.842 50.474,40.751 50.189,40.580 C50.189,40.580 44.040,37.024 44.040,37.024 C44.040,37.024 44.040,40.660 44.040,40.660 C44.040,41.250 43.720,41.796 43.432,42.276 C43.432,42.276 53.628,52.758 53.628,52.758 C58.807,47.364 62.000,40.050 62.000,32.000 C62.000,15.458 48.542,2.000 32.000,2.000 ZM43.991,29.566 C43.991,29.566 43.991,34.722 43.991,34.722 C43.991,34.722 51.040,38.716 51.040,38.716 C51.040,38.716 51.040,25.547 51.040,25.547 C51.040,25.547 43.991,29.566 43.991,29.566 ZM37.564,28.988 C37.564,28.988 35.900,28.988 35.900,28.988 C34.814,28.988 33.682,28.257 33.682,27.155 C33.682,26.052 34.814,24.988 35.900,24.988 C35.900,24.988 37.564,24.988 37.564,24.988 C38.650,24.988 39.616,25.969 39.616,27.071 C39.616,28.174 38.650,28.988 37.564,28.988 ZM37.564,25.988 C37.564,25.988 35.900,25.988 35.900,25.988 C35.375,25.988 34.682,26.613 34.682,27.155 C34.682,27.697 35.375,28.155 35.900,28.155 C35.900,28.155 37.564,28.155 37.564,28.155 C38.089,28.155 38.616,27.613 38.616,27.071 C38.616,26.529 38.089,25.988 37.564,25.988 Z" id="path-1" class="cls-2" fill-rule="evenodd"/>
</svg>