<svg xmlns="http://www.w3.org/2000/svg" width="56" height="42" viewBox="0 0 56 42"><path fill="#5B99E7" fill-rule="evenodd" d="M40.06 39.94c1.66 0 3-1.35 3-3V8.97c0-1.66-1.34-3-3-3H5.09c-1.65 0-3 1.34-3 3v27.97c0 1.65 1.35 3 3 3h34.97m0 2H5.09c-2.76 0-5-2.24-5-5V8.97c0-2.76 2.24-5 5-5h34.97c2.76 0 5 2.24 5 5v27.97c0 2.76-2.24 5-5 5z"/><path fill="#5B99E7" fill-rule="evenodd" d="M53.5 33.81c.4-.2.68-.61.68-1.09V14.69c0-.48-.27-.89-.67-1.09l-6.19 4.99-.05.04-.06.04c-1.92 1.34-2.37 1.8-2.37 2.47v5.13c0 .68 1.34 1.75 2.14 2.4l.32.26 6.2 4.88m-.54 2.13l-6.89-5.44c-1.33-1.09-3.23-2.45-3.23-4.23v-5.13c0-1.78 1.25-2.74 3.23-4.11l6.89-5.56c1.78 0 3.22 1.44 3.22 3.22v18.03c0 1.77-1.44 3.22-3.22 3.22zM27.72 25.59c1.65 0 3-1.34 3-3v-6.62c0-1.66-1.35-3-3-3H10.09c-1.65 0-3 1.34-3 3v6.62c0 1.66 1.35 3 3 3h17.63m0 2H10.09c-2.76 0-5-2.23-5-5v-6.62c0-2.76 2.24-5 5-5h17.63c2.76 0 5 2.24 5 5v6.62c0 2.77-2.24 5-5 5zM38.89 3.97a2.99 2.99 0 0 0-2.83-2H19.09c-1.3 0-2.41.83-2.82 2h22.62m2.17 2H14.09v-1c0-2.76 2.24-5 5-5h16.97c2.76 0 5 2.24 5 5v1z"/></svg>