<svg xmlns="http://www.w3.org/2000/svg" width="254" height="113" viewBox="0 0 254 113"><g fill="none" fill-rule="evenodd"><path fill="#D3ECF4" d="M105.5 76.11h-16a2 2 0 0 1-2-2v-7.22a2 2 0 0 1 2-2h16a2 2 0 0 1 2 2v7.22a2 2 0 0 1-2 2"/><path fill="#FFF" d="M88.964 66.354h1.463v1.463h-1.463v-1.463zM88.964 69.768h1.463v1.463h-1.463V69.77zM88.964 73.183h1.463v1.463h-1.463v-1.463zM104.573 66.354h1.463v1.463h-1.463v-1.463zM104.573 69.768h1.463v1.463h-1.463V69.77zM104.573 73.183h1.463v1.463h-1.463v-1.463zM91.89 66.354h11.22v8.293H91.89v-8.293z"/><path fill="#A7E3FA" d="M96 68.514l3.902 2.195L96 72.903v-4.39"/><path fill="#FFF" d="M143.854 39.487c-9.744-9.744-25.542-9.744-35.286 0A24.845 24.845 0 0 0 103.9 46c-3.61 7.24-3.488 15.857.383 23a24.823 24.823 0 0 0 2.905 4.266c.437.516.893 1.02 1.38 1.508 9.744 9.744 25.542 9.744 35.286 0a24.84 24.84 0 0 0 7.22-15.62c.57-7.042-1.833-14.28-7.22-19.667"/><path fill="#D3ECF4" d="M141 67V48a2 2 0 0 0-2-2h-35.1c-3.61 7.24-3.488 15.857.383 23H139a2 2 0 0 0 2-2"/><path fill="#EBEBEB" d="M110.918 44.757c4.6-4.598 10.64-6.895 16.68-6.895 6.038 0 12.08 2.298 16.678 6.895 3.912 3.913 6.28 8.96 6.798 14.398.57-7.043-1.833-14.28-7.22-19.668-9.744-9.744-25.542-9.744-35.286 0-9.258 9.258-9.714 23.976-1.38 33.78a23.43 23.43 0 0 1-3.178-11.83c0-6.3 2.454-12.225 6.908-16.68"/><path fill="#FFF" d="M103 49h3v3h-3v-3zM103 56h3v3h-3v-3zM103 63h3v3h-3v-3zM135 49h3v3h-3v-3zM135 56h3v3h-3v-3zM135 63h3v3h-3v-3zM109 49h23v17h-23V49z"/><path fill="#A7E3FA" d="M117 53.428l8 4.5-8 4.5v-9"/><path fill="#A7E3FA" d="M163.268 93.912c.816-.817 1.042-1.704 1.042-2.775 0-1.07-.59-1.957-1.407-2.774l-13.937-13.937c3.834-5.177 5.602-11.022 5.602-16.992 0-7.356-2.782-14.73-8.382-20.33-11.2-11.2-29.416-11.21-40.617-.01-11.202 11.2-10.906 29.13.294 40.33 10.244 10.242 25.996 11.436 37.888 2.3l13.895 13.896c1.632 1.633 3.99 1.924 5.62.292zM140.73 76.18c-9.393 7.428-23.104 6.82-31.774-1.848-9.338-9.338-9.338-24.53 0-33.868 9.338-9.338 24.532-9.338 33.87 0 8.583 8.584 9.252 22.107 2.053 31.49a23.85 23.85 0 0 1-2.054 2.378 24.022 24.022 0 0 1-2.096 1.847z"/><path fill="#D3ECF4" d="M155.588 110.767c0 1.105-12.536 2-28 2s-28-.895-28-2c0-1.104 12.536-2 28-2s28 .896 28 2"/></g></svg>