<svg xmlns="http://www.w3.org/2000/svg" width="64" height="64" preserveAspectRatio="xMidYMid" viewBox="0 0 64 64"><path fill-rule="evenodd" d="M32 64C14.355 64 0 49.645 0 32 0 14.356 14.355 0 32 0s32 14.356 32 32c0 17.645-14.355 32-32 32zM2 32c0 16.542 13.458 30 30 30 7.774 0 14.866-2.973 20.2-7.84l-10.26-10.5a3.61 3.61 0 0 1-1.54.353H20.744c-1.788 0-3.703-1.377-3.703-3.353v-16.2c0-1.224.655-2.362 1.758-2.99L9.84 11.8C4.974 17.133 2 24.225 2 32zm39.982 8.733c.002-.025.01-.048.01-.073v-5.357-6.316-4.478c0-.77-.728-1.496-1.498-1.496H23.12l18.862 17.72zM20.274 23.045c-.724.147-1.283.83-1.283 1.464v16.15c0 .734.916 1.354 1.704 1.354h19.598l-20.018-18.97zM32 2c-8.05 0-15.364 3.193-20.758 8.372l9.878 10.64h19.423c1.863 0 3.497 1.585 3.497 3.447v2.806l6.168-3.566c.266-.16.59-.252.92-.252a1.83 1.83 0 0 1 1.83 1.83v13.736a1.83 1.83 0 0 1-1.83 1.828c-.33 0-.654-.09-.94-.262l-6.148-3.556v3.636c0 .59-.32 1.136-.608 1.616l10.196 10.482C58.808 47.364 62 40.05 62 32 62 15.458 48.542 2 32 2zm11.99 27.566v5.156l7.05 3.994v-13.17l-7.05 4.02zm-6.426-.578H35.9c-1.086 0-2.218-.73-2.218-1.833s1.132-2.167 2.218-2.167h1.664c1.086 0 2.052.98 2.052 2.083 0 1.104-.966 1.918-2.052 1.918zm0-3H35.9c-.525 0-1.218.625-1.218 1.167s.693 1 1.218 1h1.664c.525 0 1.052-.542 1.052-1.084 0-.54-.527-1.082-1.052-1.082z" class="cls-2"/></svg>