<?xml version="1.0" encoding="utf-8"?>
<svg xmlns="http://www.w3.org/2000/svg"
	xmlns:xlink="http://www.w3.org/1999/xlink"
	width="56px" height="42px" viewBox="0 0 56 42">
<path fill="rgb(91,153,231)" fill-rule="evenodd" d="M 40.06 39.94C 41.72 39.94 43.06 38.59 43.06 36.94 43.06 36.94 43.06 8.97 43.06 8.97 43.06 7.31 41.72 5.97 40.06 5.97 40.06 5.97 5.09 5.97 5.09 5.97 3.44 5.97 2.09 7.31 2.09 8.97 2.09 8.97 2.09 36.94 2.09 36.94 2.09 38.59 3.44 39.94 5.09 39.94 5.09 39.94 40.06 39.94 40.06 39.94M 40.06 41.94C 40.06 41.94 5.09 41.94 5.09 41.94 2.33 41.94 0.09 39.7 0.09 36.94 0.09 36.94 0.09 8.97 0.09 8.97 0.09 6.21 2.33 3.97 5.09 3.97 5.09 3.97 40.06 3.97 40.06 3.97 42.82 3.97 45.06 6.21 45.06 8.97 45.06 8.97 45.06 36.94 45.06 36.94 45.06 39.7 42.82 41.94 40.06 41.94 40.06 41.94 40.06 41.94 40.06 41.94Z"/>
<path fill="rgb(91,153,231)" fill-rule="evenodd" d="M 53.5 33.81C 53.9 33.61 54.18 33.2 54.18 32.72 54.18 32.72 54.18 14.69 54.18 14.69 54.18 14.21 53.91 13.8 53.51 13.6 53.51 13.6 47.32 18.59 47.32 18.59 47.32 18.59 47.27 18.63 47.27 18.63 47.27 18.63 47.21 18.67 47.21 18.67 45.29 20.01 44.84 20.47 44.84 21.14 44.84 21.14 44.84 26.27 44.84 26.27 44.84 26.95 46.18 28.02 46.98 28.67 46.98 28.67 47.3 28.93 47.3 28.93 47.3 28.93 53.5 33.81 53.5 33.81M 52.96 35.94C 52.96 35.94 46.07 30.5 46.07 30.5 44.74 29.41 42.84 28.05 42.84 26.27 42.84 26.27 42.84 21.14 42.84 21.14 42.84 19.36 44.09 18.4 46.07 17.03 46.07 17.03 52.96 11.47 52.96 11.47 54.74 11.47 56.18 12.91 56.18 14.69 56.18 14.69 56.18 32.72 56.18 32.72 56.18 34.49 54.74 35.94 52.96 35.94 52.96 35.94 52.96 35.94 52.96 35.94Z"/>
<path fill="rgb(91,153,231)" fill-rule="evenodd" d="M 27.72 25.59C 29.37 25.59 30.72 24.25 30.72 22.59 30.72 22.59 30.72 15.97 30.72 15.97 30.72 14.31 29.37 12.97 27.72 12.97 27.72 12.97 10.09 12.97 10.09 12.97 8.44 12.97 7.09 14.31 7.09 15.97 7.09 15.97 7.09 22.59 7.09 22.59 7.09 24.25 8.44 25.59 10.09 25.59 10.09 25.59 27.72 25.59 27.72 25.59M 27.72 27.59C 27.72 27.59 10.09 27.59 10.09 27.59 7.33 27.59 5.09 25.36 5.09 22.59 5.09 22.59 5.09 15.97 5.09 15.97 5.09 13.21 7.33 10.97 10.09 10.97 10.09 10.97 27.72 10.97 27.72 10.97 30.48 10.97 32.72 13.21 32.72 15.97 32.72 15.97 32.72 22.59 32.72 22.59 32.72 25.36 30.48 27.59 27.72 27.59 27.72 27.59 27.72 27.59 27.72 27.59Z"/>
<path fill="rgb(91,153,231)" fill-rule="evenodd" d="M 38.89 3.97C 38.48 2.8 37.37 1.97 36.06 1.97 36.06 1.97 19.09 1.97 19.09 1.97 17.79 1.97 16.68 2.8 16.27 3.97 16.27 3.97 38.89 3.97 38.89 3.97M 41.06 5.97C 41.06 5.97 14.09 5.97 14.09 5.97 14.09 5.97 14.09 4.97 14.09 4.97 14.09 2.21 16.33-0.03 19.09-0.03 19.09-0.03 36.06-0.03 36.06-0.03 38.82-0.03 41.06 2.21 41.06 4.97 41.06 4.97 41.06 5.97 41.06 5.97 41.06 5.97 41.06 5.97 41.06 5.97Z"/>
</svg>