<?xml version="1.0" encoding="utf-8"?>
<!-- Generated by IcoMoon.io -->
<!DOCTYPE svg PUBLIC "-//W3C//DTD SVG 1.1//EN" "http://www.w3.org/Graphics/SVG/1.1/DTD/svg11.dtd">
<svg xmlns="http://www.w3.org/2000/svg" xmlns:xlink="http://www.w3.org/1999/xlink" version="1.1" width="78" height="32" viewBox="0 0 78 32" style="">
    <path d="M44.522 1.391c-1.53 0.835-2.087 2.226-2.087 5.983 0 0 0.835-0.696 1.948-1.113 0.835-0.278 1.53-0.835 1.948-1.113 1.252-0.974 1.53-2.226 1.53-4.313 0 0-2.087 0-3.339 0.557z" fill="rgb(255, 204, 0)"/>
    <path d="M35.478 2.365c-1.252 1.113-1.67 2.922-1.67 2.922l-4.174 16.139-3.478-13.217c-0.278-1.391-0.974-3.2-1.948-4.313-1.252-1.53-3.757-1.53-4.035-1.53s-2.783 0.139-4.035 1.53c-0.974 1.113-1.53 2.922-1.948 4.313l-3.478 13.217-4.174-16.139c0 0-0.417-1.809-1.67-2.922-1.809-1.809-4.87-1.53-4.87-1.53l7.93 30.191c0 0 2.643 0.139 3.896-0.417 1.67-0.835 2.504-1.53 3.617-5.704 0.974-3.617 3.478-14.47 3.757-15.165 0.139-0.417 0.278-1.252 0.974-1.252s0.835 0.835 0.974 1.252c0.278 0.835 2.922 11.548 3.757 15.165 1.113 4.174 1.809 4.73 3.617 5.704 1.252 0.696 3.896 0.417 3.896 0.417l7.93-30.191c0.139 0-2.922-0.278-4.87 1.53z" fill="#000"/>
    <path d="M47.861 5.843c0 0-0.557 0.835-1.67 1.391-0.696 0.417-1.391 0.696-2.226 1.113-1.252 0.557-1.67 1.252-1.67 2.365v20.313c0 0 1.948 0.278 3.339-0.417 1.67-0.835 2.087-1.67 2.087-5.426v-18.226c0 0 0 0 0 0v-1.113z" fill="#000"/>
    <path d="M67.757 16l10.157-15.026c0 0-4.313-0.696-6.4 1.252-1.391 1.252-2.922 3.478-2.922 3.478l-3.757 5.426c-0.139 0.278-0.417 0.557-0.835 0.557s-0.557-0.278-0.835-0.557l-3.757-5.426c0 0-1.53-2.226-2.922-3.478-2.087-1.948-6.4-1.252-6.4-1.252l10.157 15.026-10.157 15.026c0 0 4.452 0.557 6.539-1.391 1.391-1.252 2.643-3.2 2.643-3.2l3.757-5.426c0.139-0.278 0.417-0.557 0.835-0.557s0.557 0.278 0.835 0.557l3.757 5.426c0 0 1.391 1.948 2.783 3.2 2.087 1.948 6.539 1.391 6.539 1.391l-10.017-15.026z" fill="#000"/>
</svg>
