<?xml version="1.0" encoding="utf-8"?>
<svg xmlns="http://www.w3.org/2000/svg"
	xmlns:xlink="http://www.w3.org/1999/xlink"
	width="11px" height="10px" viewBox="0 0 11 10">
<path fill="rgb(55,153,235)" fill-rule="evenodd" d="M 7.18 5.03C 7.18 5.03 10.42 1.76 10.42 1.76 10.81 1.37 10.81 0.75 10.42 0.36 10.04-0.03 9.42-0.03 9.03 0.36 9.03 0.36 5.79 3.63 5.79 3.63 5.79 3.63 2.55 0.36 2.55 0.36 2.17-0.03 1.54-0.03 1.16 0.36 0.78 0.75 0.78 1.37 1.16 1.76 1.16 1.76 4.4 5.03 4.4 5.03 4.4 5.03 1.16 8.29 1.16 8.29 0.78 8.68 0.78 9.31 1.16 9.7 1.35 9.89 1.6 9.99 1.86 9.99 2.11 9.99 2.36 9.89 2.55 9.7 2.55 9.7 5.79 6.43 5.79 6.43 5.79 6.43 9.03 9.7 9.03 9.7 9.22 9.89 9.48 9.99 9.73 9.99 9.98 9.99 10.23 9.89 10.42 9.7 10.81 9.31 10.81 8.68 10.42 8.29 10.42 8.29 7.18 5.03 7.18 5.03Z"/>
</svg>