<?xml version="1.0" encoding="UTF-8" standalone="no"?>
<svg width="17px" height="16px" viewBox="0 0 17 16" version="1.1" xmlns="http://www.w3.org/2000/svg" xmlns:xlink="http://www.w3.org/1999/xlink" xmlns:sketch="http://www.bohemiancoding.com/sketch/ns">
    <g stroke="none" stroke-width="1" fill="none" fill-rule="evenodd" sketch:type="MSPage">
        <g sketch:type="MSArtboardGroup" fill="#2d4150">
            <path d="M7.5,1 C3.916,1 1,3.916 1,7.5 C1,11.084 3.916,14 7.5,14 C11.084,14 14,11.084 14,7.5 C14,3.916 11.084,1 7.5,1 M13.5631573,11.9103599 C14.4664826,10.6718159 15,9.14712603 15,7.5 C15,3.364 11.636,0 7.5,0 C3.364,0 0,3.364 0,7.5 C0,11.636 3.364,15 7.5,15 C9.62839046,15 11.5523442,14.1091645 12.9186396,12.680715 L16.327787,16 L17,15.327787 L13.5631573,11.9103599 L13.5631573,11.9103599 Z" sketch:type="MSShapeGroup"></path>
            <path d="M10,7 L5,7 L5,8 L10,8 L10,7 Z" sketch:type="MSShapeGroup"></path>
        </g>
    </g>
</svg>