<svg width="23" height="23" viewBox="0 0 23 23"><g fill="#2D4150" fill-rule="evenodd" class="c1"><path d="M11.5 0C5.15 0 0 5.15 0 11.5S5.15 23 11.5 23 23 17.85 23 11.5 17.85 0 11.5 0m0 .8c5.9 0 10.7 4.8 10.7 10.7 0 5.9-4.8 10.7-10.7 10.7C5.6 22.2.8 17.4.8 11.5.8 5.6 5.6.8 11.5.8"/><path d="M13.745 7.38a2.712 2.712 0 0 0-.903-.51 3.362 3.362 0 0 0-1.1-.174c-.503 0-.953.08-1.35.238a2.73 2.73 0 0 0-.994.665c-.266.284-.74.963-.74 2.4h.79c-.01 0 .032-.707.125-1.015.093-.308.233-.58.42-.808.187-.23.422-.41.707-.54a2.39 2.39 0 0 1 1-.198c.272 0 .528.046.77.14.244.092.456.22.638.384a1.82 1.82 0 0 1 .595 1.365c0 .363-.086.694-.26.993-.172.298-.39.57-.65.81-.3.272-.555.51-.756.73-.415.45-.754.794-.754 2.137h.782c.01 0 .028-.558.056-.782.03-.224.085-.318.17-.482.083-.163.21-.274.377-.433.168-.16.4-.362.7-.66.355-.337.646-.675.875-1.04.23-.363.343-.8.343-1.323 0-.4-.075-.76-.224-1.082a2.38 2.38 0 0 0-.615-.817M11.283 16.902h.782v-1.527h-.782v1.527z"/></g></svg>