<svg width="23px" height="23px" viewBox="0 0 23 23">
    <g stroke="none" stroke-width="1" fill="none" fill-rule="evenodd">
        <g class="c1" fill="#2D4150">
            <path d="M11.5,0 C5.149,0 0,5.149 0,11.5 C0,17.851 5.149,23 11.5,23 C17.851,23 23,17.851 23,11.5 C23,5.149 17.851,0 11.5,0 M11.5,0.8 C17.4,0.8 22.2,5.6 22.2,11.5 C22.2,17.4 17.4,22.2 11.5,22.2 C5.6,22.2 0.8,17.4 0.8,11.5 C0.8,5.6 5.6,0.8 11.5,0.8"></path>
            <g transform="translate(8.000000, 6.000000)">
                <path d="M5.7447,1.3806 C5.4837,1.1566 5.1827,0.9866 4.8417,0.8706 C4.5007,0.7536 4.1347,0.6956 3.7427,0.6956 C3.2387,0.6956 2.7887,0.7756 2.3917,0.9336 C1.9947,1.0926 1.6637,1.3146 1.3977,1.5986 C1.1317,1.8836 0.6577,2.5626 0.6577,3.9996 L1.4467,3.9996 C1.4377,3.9996 1.4797,3.2926 1.5727,2.9846 C1.6657,2.6766 1.8057,2.4056 1.9927,2.1766 C2.1797,1.9476 2.4147,1.7666 2.6997,1.6356 C2.9847,1.5056 3.3177,1.4386 3.7007,1.4386 C3.9717,1.4386 4.2277,1.4856 4.4707,1.5786 C4.7137,1.6716 4.9257,1.7996 5.1077,1.9636 C5.2897,2.1266 5.4347,2.3246 5.5417,2.5586 C5.6487,2.7916 5.7027,3.0476 5.7027,3.3286 C5.7027,3.6926 5.6167,4.0236 5.4437,4.3226 C5.2707,4.6206 5.0537,4.8916 4.7927,5.1336 C4.4937,5.4046 4.2377,5.6436 4.0367,5.8616 C3.6217,6.3126 3.2827,6.6566 3.2827,7.9996 L4.0647,7.9996 C4.0737,7.9996 4.0927,7.4416 4.1207,7.2176 C4.1487,6.9936 4.2047,6.8996 4.2887,6.7356 C4.3727,6.5726 4.4987,6.4616 4.6667,6.3026 C4.8347,6.1436 5.0677,5.9406 5.3667,5.6416 C5.7217,5.3056 6.0127,4.9676 6.2417,4.6036 C6.4707,4.2396 6.5847,3.8026 6.5847,3.2796 C6.5847,2.8786 6.5097,2.5196 6.3607,2.1976 C6.2117,1.8756 6.0057,1.6046 5.7447,1.3806"></path>
                <path d="M3.283,10.902 L4.065,10.902 L4.065,9.375 L3.283,9.375 L3.283,10.902 Z"></path>
            </g>
        </g>
    </g>
</svg>
