<svg class="symbol-create-your-first-item-clipart" version="1.1" xmlns="http://www.w3.org/2000/svg" xmlns:xlink="http://www.w3.org/1999/xlink" width="272px" height="161px" viewBox="0 0 272 161">
  <defs>
    <path id="SVGID-205-" d="M207,116.032c0,2.878-2.031,5.968-4.915,5.968H79.732c-2.883,0-5.732-3.09-5.732-5.968V7.548
                             C74,4.67,76.849,2,79.732,2h122.353C204.969,2,207,4.67,207,7.548V116.032z"/>
  </defs>
  <use xlink:href="#SVGID-205-"  overflow="visible" fill="#D3EDFF"/>
  <clipPath id="SVGID-2-">
    <use xlink:href="#SVGID-205-"  overflow="visible"/>
  </clipPath>
  <rect x="67" y="-6" clip-path="url(#SVGID-2-)" fill="#5FCEF5" width="157" height="31"/>
  <ellipse fill="#FFFFFF" cx="82.611" cy="14.614" rx="2.838" ry="2.833"/>
  <ellipse fill="#FFFFFF" cx="93.429" cy="14.614" rx="2.838" ry="2.833"/>
  <path fill="#FFFFFF" d="M197.106,13.5c0,1.439-1.169,2.5-2.61,2.5h-90.092c-1.442,0-2.61-1.061-2.61-2.5l0,0
                          c0-1.439,1.169-2.5,2.61-2.5h90.092C195.937,11,197.106,12.061,197.106,13.5L197.106,13.5z"/>
  <linearGradient id="SVGID-3-" gradientUnits="userSpaceOnUse" x1="87" y1="52.5" x2="123" y2="52.5">
    <stop  offset="0" style="stop-color:#FFFFFF"/>
    <stop  offset="1" style="stop-color:#FFFFFF"/>
  </linearGradient>
  <rect x="87" y="38" fill="url(#SVGID-3-)" width="36" height="29"/>
  <linearGradient id="SVGID-5-" gradientUnits="userSpaceOnUse" x1="87" y1="93.5" x2="123" y2="93.5">
    <stop  offset="0" style="stop-color:#FFFFFF"/>
    <stop  offset="1" style="stop-color:#FFFFFF"/>
  </linearGradient>
  <rect x="87" y="79" fill="url(#SVGID-5-)" width="36" height="29"/>
  <path fill="none" d="M262.189,113.676l1.088-1.134c0.001-0.239,0.002-0.479,0.005-0.722L262.189,113.676z"/>
  <polygon fill="#555555" points="242.316,107.623 242.316,107.623 241.745,107.873 	"/>
  <path fill="#7FCCF7" d="M250.112,98.459c-1.832-1.058-4.174-0.431-5.235,1.399c-0.001,0.002-0.001,0.003-0.002,0.005
                          c0.001-0.002,0.001-0.003,0.002-0.005c-0.001,0.002-0.002,0.003-0.002,0.003s0.001-0.001,0.002-0.003
                          c1.055-1.833,0.427-4.175-1.406-5.233s-4.174-0.431-5.235,1.399c-0.001,0.002-0.001,0.003-0.002,0.005
                          c0.001-0.002,0.001-0.003,0.002-0.005c-0.001,0.002-0.002,0.003-0.003,0.005c0.001-0.002,0.002-0.003,0.003-0.005
                          c1.055-1.833,0.427-4.175-1.406-5.233c-1.558-0.899-3.477-0.572-4.67,0.668l-0.461,0.798l1.091,9.867l9.525,5.499l9.089-3.987
                          l0.466-0.807C252.343,101.178,251.667,99.357,250.112,98.459z"/>
  <path fill="#2B81CB" d="M235.057,110.807l7.258-3.184l-9.525-5.499l0.871,7.877C233.736,110.672,234.439,111.078,235.057,110.807z"/>
  <path fill="#A7E3FA" d="M251.658,57.695l-19.496,33.765c1.194-1.24,3.113-1.567,4.67-0.668c1.832,1.058,2.461,3.4,1.406,5.233
                          c1.06-1.83,3.402-2.457,5.235-1.399s2.461,3.4,1.406,5.233c1.06-1.83,3.402-2.457,5.235-1.399c1.555,0.898,2.23,2.719,1.759,4.37
                          l19.491-33.756c0.552-0.957,0.225-2.18-0.732-2.732l-16.241-9.378C253.433,56.41,252.21,56.738,251.658,57.695z"/>
  <ellipse fill="#D3EDFF" cx="243.877" cy="134.633" rx="10.5" ry="2.84"/>
  <ellipse fill="#D3EDFF" cx="140.441" cy="156.079" rx="44.004" ry="4.394"/>
  <polygon fill="#5FCEF5" points="221.229,47.461 228.431,49.66 230.629,56.862 232.828,49.66 240.03,47.461 232.828,45.262 
                                  230.629,38.06 228.431,45.262 	"/>
  <polygon fill="#5FCEF5" points="186.463,61.571 196.284,64.569 199.282,74.39 202.28,64.569 212.101,61.571 202.28,58.573 
                                  199.282,48.752 196.284,58.573 	"/>
  <polygon fill="#5FCEF5" points="214.534,28.517 218.463,29.717 219.662,33.645 220.861,29.717 224.79,28.517 220.861,27.318 
                                  219.662,23.39 218.463,27.318 	"/>
  <path fill="#4EB7F5" d="M113.367,54.012l-4.146,3.269l-6.785-6.307c-0.26-0.242-0.663-0.244-0.925-0.005l-9.87,9.416
                          C91.18,60.804,91.477,62,92.1,62h13.211h8.555h5.328c0.593,0,0.904-1.133,0.504-1.57l-5.404-6.127
                          C114.053,54.039,113.648,53.791,113.367,54.012z"/>
  <ellipse fill="#4EB7F5" cx="115.415" cy="45.187" rx="2.761" ry="2.754"/>
  <path fill="#4EB7F5" d="M113.367,95.012l-4.146,3.269l-6.785-6.307c-0.26-0.242-0.663-0.244-0.925-0.005l-9.87,9.416
                          C91.18,101.804,91.477,103,92.1,103h13.211h8.555h5.328c0.593,0,0.904-1.133,0.504-1.57l-5.404-6.127
                          C114.053,95.039,113.648,94.791,113.367,95.012z"/>
  <ellipse fill="#4EB7F5" cx="115.415" cy="86.187" rx="2.761" ry="2.754"/>
  <ellipse fill="#D3EDFF" cx="28.896" cy="134.326" rx="22.5" ry="3.566"/>
  <path fill="#4EB7F5" d="M56,32c0-1.657-1.343-3-3-3H4c-1.657,0-3,1.343-3,3v64c0,1.657,1.343,3,3,3h49c1.657,0,3-1.343,3-3V32z"/>
  <path fill="#7FCCF7" d="M53.362,29h-49C2.705,29,1,30.306,1,31.963v64C1,97.619,2.705,99,4.362,99h33L56,77.963v-46
                          C56,30.306,55.019,29,53.362,29z"/>
  <rect x="12" y="46" fill="#A7E3FA" width="34" height="1"/>
  <rect x="12" y="56" fill="#A7E3FA" width="34" height="1"/>
  <path fill="#A7E3FA" d="M37,98.963v-18C37,79.306,38.705,78,40.362,78h16L37,98.963z"/>
  <circle fill="#2B81CB" cx="13.862" cy="35.463" r="2.5"/>
  <circle fill="#2B81CB" cx="28.862" cy="35.463" r="2.5"/>
  <circle fill="#2B81CB" cx="43.862" cy="35.463" r="2.5"/>
  <path fill="#4EB7F5" d="M13.5,36.463c-0.829,0-1.5-0.671-1.5-1.5v-9c0-0.829,0.671-1.5,1.5-1.5s1.5,0.671,1.5,1.5v9
                          C15,35.791,14.329,36.463,13.5,36.463z"/>
  <path fill="#4EB7F5" d="M28.5,36.463c-0.829,0-1.5-0.671-1.5-1.5v-9c0-0.829,0.671-1.5,1.5-1.5s1.5,0.671,1.5,1.5v9
                          C30,35.791,29.329,36.463,28.5,36.463z"/>
  <path fill="#4EB7F5" d="M43.5,36.463c-0.829,0-1.5-0.671-1.5-1.5v-9c0-0.829,0.671-1.5,1.5-1.5s1.5,0.671,1.5,1.5v9
                          C45,35.791,44.329,36.463,43.5,36.463z"/>
  <line fill="none" stroke="#4EB7F5" stroke-linecap="round" stroke-miterlimit="10" stroke-dasharray="1,3" x1="136" y1="53.5" x2="174" y2="53.5"/>
  <line fill="none" stroke="#4EB7F5" stroke-linecap="round" stroke-miterlimit="10" stroke-dasharray="1,3" x1="136" y1="66.5" x2="174" y2="66.5"/>
  <line fill="none" stroke="#4EB7F5" stroke-linecap="round" stroke-miterlimit="10" stroke-dasharray="1,3" x1="136" y1="93.5" x2="174" y2="93.5"/>
  <path fill="none" stroke="#4EB7F5" stroke-linecap="round" stroke-linejoin="round" stroke-miterlimit="10" stroke-dasharray="1,3" d="
                                                                                                                                     M231.364,116.212c0,1.432-1.496,2.558-2.932,2.558s-2.932-1.196-2.932-2.628v-8.476c0-2.688-2.385-4.953-5.08-4.953
                                                                                                                                     s-4.92,2.092-4.92,4.78v17.562c0,3.482-3.404,6.394-6.895,6.394c-3.492,0-7.105-2.733-7.105-6.215V96.771
                                                                                                                                     c0-3.463-4.027-6.307-7.5-6.307s-7.5,2.771-7.5,6.233v29.789c0,2.735-2.23,4.996-4.973,4.996c-2.742,0-5.027-2.173-5.027-4.908
                                                                                                                                     v-15.714c0-2.077-1.541-4.026-3.612-4.026l-36.811-0.03"/>
</svg>
