<svg xmlns="http://www.w3.org/2000/svg" width="272" height="161" class="symbol-create-your-first-item-clipart" xmlns:xlink="http://www.w3.org/1999/xlink" viewBox="0 0 272 161"><defs><path id="a" d="M207 116.032c0 2.878-2.03 5.968-4.915 5.968H79.732C76.85 122 74 118.91 74 116.032V7.548C74 4.67 76.85 2 79.732 2h122.353C204.97 2 207 4.67 207 7.548v108.484z"/></defs><use fill="#D3EDFF" xlink:href="#a" overflow="visible"/><clipPath id="b"><use xlink:href="#a" overflow="visible"/></clipPath><path fill="#5FCEF5" d="M67-6h157v31H67z" clip-path="url(#b)"/><ellipse cx="82.611" cy="14.614" fill="#FFF" rx="2.838" ry="2.833"/><ellipse cx="93.429" cy="14.614" fill="#FFF" rx="2.838" ry="2.833"/><path fill="#FFF" d="M197.106 13.5c0 1.44-1.17 2.5-2.61 2.5h-90.092c-1.442 0-2.61-1.06-2.61-2.5s1.17-2.5 2.61-2.5h90.092c1.44 0 2.61 1.06 2.61 2.5z"/><linearGradient id="c" x1="87" x2="123" y1="52.5" y2="52.5" gradientUnits="userSpaceOnUse"><stop offset="0" stop-color="#FFF"/><stop offset="1" stop-color="#FFF"/></linearGradient><path fill="url(#c)" d="M87 38h36v29H87z"/><linearGradient id="d" x1="87" x2="123" y1="93.5" y2="93.5" gradientUnits="userSpaceOnUse"><stop offset="0" stop-color="#FFF"/><stop offset="1" stop-color="#FFF"/></linearGradient><path fill="url(#d)" d="M87 79h36v29H87z"/><path fill="none" d="M262.19 113.676l1.087-1.134c0-.24.002-.48.005-.722l-1.093 1.856z"/><path fill="#555" d="M242.316 107.623l-.57.25z"/><path fill="#7FCCF7" d="M250.112 98.46a3.835 3.835 0 0 0-5.235 1.398c0 .002 0 .003-.002.005 0-.002 0-.003.002-.005 0 .002-.002.003-.002.003l.002-.002a3.834 3.834 0 0 0-6.64-3.834l-.003.005c0-.003 0-.004.002-.006 0 .002-.002.003-.003.005 0-.003.002-.004.003-.006a3.826 3.826 0 0 0-6.076-4.565l-.46.8 1.09 9.866 9.525 5.5 9.09-3.988.465-.807a3.825 3.825 0 0 0-1.758-4.37z"/><path fill="#2B81CB" d="M235.057 110.807l7.258-3.184-9.525-5.5.87 7.878a1 1 0 0 0 1.397.807z"/><path fill="#A7E3FA" d="M251.658 57.695L232.162 91.46a3.827 3.827 0 0 1 6.076 4.565 3.834 3.834 0 0 1 6.64 3.834 3.834 3.834 0 0 1 5.236-1.4 3.828 3.828 0 0 1 1.76 4.37l19.49-33.756a2 2 0 0 0-.732-2.732l-16.24-9.378a2 2 0 0 0-2.734.73z"/><ellipse cx="243.877" cy="134.633" fill="#D3EDFF" rx="10.5" ry="2.84"/><ellipse cx="140.441" cy="156.079" fill="#D3EDFF" rx="44.004" ry="4.394"/><path fill="#5FCEF5" d="M221.23 47.46l7.2 2.2 2.2 7.202 2.198-7.202 7.202-2.2-7.202-2.198-2.2-7.202-2.197 7.202zM186.463 61.57l9.82 3 3 9.82 2.997-9.82 9.82-3-9.82-2.997-2.998-9.82-2.998 9.82zM214.534 28.517l3.93 1.2 1.198 3.928 1.2-3.928 3.928-1.2-3.93-1.2-1.198-3.927-1.2 3.928z"/><path fill="#4EB7F5" d="M113.367 54.012l-4.146 3.27-6.784-6.308a.683.683 0 0 0-.925-.005l-9.87 9.415c-.46.42-.163 1.615.46 1.615H119.194c.593 0 .904-1.133.504-1.57l-5.404-6.127c-.24-.264-.646-.512-.927-.29z"/><ellipse cx="115.415" cy="45.187" fill="#4EB7F5" rx="2.761" ry="2.754"/><path fill="#4EB7F5" d="M113.367 95.012l-4.146 3.27-6.784-6.308a.683.683 0 0 0-.925-.005l-9.87 9.415c-.46.42-.163 1.615.46 1.615H119.194c.593 0 .904-1.133.504-1.57l-5.404-6.127c-.24-.264-.646-.512-.927-.29z"/><ellipse cx="115.415" cy="86.187" fill="#4EB7F5" rx="2.761" ry="2.754"/><ellipse cx="28.896" cy="134.326" fill="#D3EDFF" rx="22.5" ry="3.566"/><path fill="#4EB7F5" d="M56 32a3 3 0 0 0-3-3H4a3 3 0 0 0-3 3v64a3 3 0 0 0 3 3h49a3 3 0 0 0 3-3V32z"/><path fill="#7FCCF7" d="M53.362 29h-49C2.705 29 1 30.306 1 31.963v64C1 97.62 2.705 99 4.362 99h33L56 77.963v-46C56 30.306 55.02 29 53.362 29z"/><path fill="#A7E3FA" d="M12 46h34v1H12zM12 56h34v1H12zM37 98.963v-18C37 79.306 38.705 78 40.362 78h16L37 98.963z"/><circle cx="13.862" cy="35.463" r="2.5" fill="#2B81CB"/><circle cx="28.862" cy="35.463" r="2.5" fill="#2B81CB"/><circle cx="43.862" cy="35.463" r="2.5" fill="#2B81CB"/><path fill="#4EB7F5" d="M13.5 36.463a1.5 1.5 0 0 1-1.5-1.5v-9a1.5 1.5 0 0 1 3 0v9a1.5 1.5 0 0 1-1.5 1.5zM28.5 36.463a1.5 1.5 0 0 1-1.5-1.5v-9a1.5 1.5 0 0 1 3 0v9a1.5 1.5 0 0 1-1.5 1.5zM43.5 36.463a1.5 1.5 0 0 1-1.5-1.5v-9a1.5 1.5 0 0 1 3 0v9a1.5 1.5 0 0 1-1.5 1.5z"/><path fill="none" stroke="#4EB7F5" stroke-miterlimit="10" d="M136 53.5h38M136 66.5h38M136 93.5h38" stroke-linecap="round" stroke-dasharray="1 3"/><path fill="none" stroke="#4EB7F5" stroke-miterlimit="10" d="M231.364 116.212c0 1.432-1.496 2.558-2.932 2.558s-2.932-1.196-2.932-2.628v-8.476c0-2.688-2.385-4.953-5.08-4.953s-4.92 2.092-4.92 4.78v17.562c0 3.482-3.404 6.394-6.895 6.394-3.492 0-7.105-2.734-7.105-6.216V96.77c0-3.462-4.027-6.306-7.5-6.306s-7.5 2.77-7.5 6.233v29.79c0 2.734-2.23 4.995-4.973 4.995-2.742 0-5.027-2.173-5.027-4.908V110.86c0-2.077-1.54-4.026-3.612-4.026l-36.81-.03" stroke-linecap="round" stroke-linejoin="round" stroke-dasharray="1 3"/></svg>