<svg version="1.1" id="Layer_3" xmlns="http://www.w3.org/2000/svg" xmlns:xlink="http://www.w3.org/1999/xlink" x="0px" y="0px"
	 width="170.8" height="152.4" viewBox="0 0 170.8 152.4" enable-background="new 0 0 170.8 152.4" xml:space="preserve">
<g>
	<ellipse fill="#EAF7FF" cx="98.1" cy="147.2" rx="61.8" ry="5.2"/>
	<path fill="#A2DBF4" d="M103.3,122.1h-12c0,0-1.5,14.9-6.2,21.7c-0.9,1.3,0,3.2,1.6,3.2h21.1c1.6,0,2.5-1.8,1.6-3.2
		C104.8,137.1,103.3,122.1,103.3,122.1z"/>
	<path fill="#DEF6FF" d="M23.8,38.9v87.8c0,2.5,2,4.5,4.5,4.5h138.1c2.5,0,4.5-2,4.5-4.5V38.9H23.8z"/>
	<path fill="#5FCEF5" d="M170.8,40.1H23.6V23.8c0-2.7,2.2-4.8,4.8-4.8H166c2.7,0,4.8,2.2,4.8,4.8V40.1z"/>
	<g>
		<circle fill="#FFFFFF" cx="31.7" cy="29.5" r="2.4"/>
		<circle fill="#FFFFFF" cx="40.9" cy="29.5" r="2.4"/>
		<path fill="#FFFFFF" d="M162.5,29.5c0,1.3-1.1,2.4-2.4,2.4H50.2c-1.3,0-2.4-1.1-2.4-2.4l0,0c0-1.3,1.1-2.4,2.4-2.4h109.9
			C161.4,27.1,162.5,28.2,162.5,29.5L162.5,29.5z"/>
	</g>
	<rect x="86.9" y="65.7" fill="#7FCCF7" width="39" height="2"/>
	<rect x="86.9" y="59.7" fill="#7FCCF7" width="39" height="2"/>
	<rect x="86.9" y="52.7" fill="#7FCCF7" width="19" height="2"/>
	<rect x="86.9" y="90.7" fill="#7FCCF7" width="39" height="2"/>
	<rect x="86.9" y="84.7" fill="#7FCCF7" width="39" height="2"/>
	<rect x="86.9" y="77.7" fill="#7FCCF7" width="19" height="2"/>
	<rect x="86.9" y="114.7" fill="#7FCCF7" width="39" height="2"/>
	<rect x="86.9" y="108.7" fill="#7FCCF7" width="39" height="2"/>
	<rect x="86.9" y="101.7" fill="#7FCCF7" width="19" height="2"/>
	<polygon fill="#FFFFFF" points="18.4,5.3 22.4,4.1 23.7,0 24.9,4.1 29,5.3 24.9,6.6 23.7,10.6 22.4,6.6 	"/>
	<polygon fill="#FFFFFF" points="0,19 6.6,17 8.6,10.5 10.6,17 17.2,19 10.6,21.1 8.6,27.6 6.6,21.1 	"/>
	<rect x="62.6" y="48.7" fill="#A7E3FA" width="19.3" height="19.3"/>
	<rect x="62.6" y="73.9" fill="#A7E3FA" width="19.3" height="19.3"/>
	<rect x="62.6" y="99.1" fill="#A7E3FA" width="19.3" height="19.3"/>
</g>
</svg>
