<svg xmlns="http://www.w3.org/2000/svg" width="170.8" height="152.4" viewBox="0 0 170.8 152.4"><ellipse cx="98.1" cy="147.2" fill="#EAF7FF" rx="61.8" ry="5.2"/><path fill="#A2DBF4" d="M103.3 122.1h-12s-1.5 14.9-6.2 21.7c-.9 1.3 0 3.2 1.6 3.2h21.1c1.6 0 2.5-1.8 1.6-3.2-4.6-6.7-6.1-21.7-6.1-21.7z"/><path fill="#DEF6FF" d="M23.8 38.9v87.8c0 2.5 2 4.5 4.5 4.5h138.1c2.5 0 4.5-2 4.5-4.5V38.9H23.8z"/><path fill="#5FCEF5" d="M170.8 40.1H23.6V23.8c0-2.7 2.2-4.8 4.8-4.8H166c2.7 0 4.8 2.2 4.8 4.8v16.3z"/><g fill="#FFF"><circle cx="31.7" cy="29.5" r="2.4"/><circle cx="40.9" cy="29.5" r="2.4"/><path d="M162.5 29.5c0 1.3-1.1 2.4-2.4 2.4H50.2c-1.3 0-2.4-1.1-2.4-2.4 0-1.3 1.1-2.4 2.4-2.4h109.9c1.3 0 2.4 1.1 2.4 2.4z"/></g><path fill="#7FCCF7" d="M86.9 65.7h39v2h-39zM86.9 59.7h39v2h-39zM86.9 52.7h19v2h-19zM86.9 90.7h39v2h-39zM86.9 84.7h39v2h-39zM86.9 77.7h19v2h-19zM86.9 114.7h39v2h-39zM86.9 108.7h39v2h-39zM86.9 101.7h19v2h-19z"/><path fill="#FFF" d="M18.4 5.3l4-1.2L23.7 0l1.2 4.1L29 5.3l-4.1 1.3-1.2 4-1.3-4zM0 19l6.6-2 2-6.5 2 6.5 6.6 2-6.6 2.1-2 6.5-2-6.5z"/><path fill="#A7E3FA" d="M62.6 48.7h19.3V68H62.6zM62.6 73.9h19.3v19.3H62.6zM62.6 99.1h19.3v19.3H62.6z"/></svg>