<svg xmlns="http://www.w3.org/2000/svg" width="64" height="55" viewBox="0 0 64 55"><g fill="none" fill-rule="evenodd"><path fill="#6DD0F2" d="M40.804 43.054H3.844C2.28 43.054 1 41.817 1 40.307v-24.71h50.465v17.16l-10.66 10.297"/><path fill="#3899EC" d="M1 15.596V9.418c0-1.51 1.28-2.745 2.843-2.745h44.78c1.563 0 2.842 1.235 2.842 2.745v6.178H1"/><path fill="#FFF" d="M8.38 11.478c0 .764-.645 1.384-1.44 1.384-.795 0-1.44-.62-1.44-1.384 0-.765.645-1.384 1.44-1.384.795 0 1.44.62 1.44 1.384M13.452 11.478c0 .764-.644 1.384-1.44 1.384-.794 0-1.44-.62-1.44-1.384 0-.765.646-1.384 1.44-1.384.796 0 1.44.62 1.44 1.384M62.788 33.03L50.18 8.92c-.53-1.015-1.815-1.424-2.87-.915L9.84 26.04c-1.058.508-1.484 1.74-.954 2.754l12.608 24.11c.53 1.012 1.815 1.422 2.87.914l37.47-18.035c1.058-.508 1.484-1.742.954-2.754zM47.365 17.096c-1.123.54-2.49.105-3.054-.973-.564-1.077-.11-2.39 1.013-2.93 1.125-.54 2.492-.106 3.055.972.564 1.078.11 2.39-1.013 2.93z"/><path fill="#3899EC" d="M21.938 34.362l.67-.323 4.366 4.788.017-.01-1.28-6.27.78-.377 4.486 4.732.018-.008-1.382-6.226.624-.3 1.48 7.158-.66.318-4.606-4.828-.018.01 1.29 6.422-.678.328-5.106-5.414M30.264 30.355l.67-.322L35.3 34.82l.017-.007-1.28-6.274.78-.377 4.485 4.732.018-.01-1.382-6.223.625-.3 1.48 7.158-.662.318-4.603-4.828-.02.008 1.292 6.423-.68.328-5.106-5.413M38.59 26.347l.67-.322 4.365 4.79.02-.01-1.283-6.273.78-.376 4.486 4.73.02-.007-1.383-6.226.624-.3 1.478 7.158-.66.318-4.605-4.828-.02.01 1.292 6.422-.68.327-5.106-5.413"/><path stroke="#2B81CB" stroke-width="2" d="M46.59 14.56c.47.11.958.173 1.46.183 3.68.07 6.72-2.73 6.796-6.258.075-3.528-2.846-6.447-6.523-6.52-3.038-.06-5.643 1.843-6.5 4.495" stroke-linecap="round" stroke-linejoin="round"/></g></svg>