<svg xmlns="http://www.w3.org/2000/svg" width="108" height="92" viewBox="0 0 108 92"><g fill="none" fill-rule="evenodd"><path fill="#B372D8" d="M18.08 9.352l-2.45-.914L18.393 1l2.45.914-2.76 7.438"/><path fill="#C593E5" d="M5.614 33.84l1.695-1L10.26 38l-1.695 1-2.953-5.16"/><path fill="#ED4E4D" d="M3.99 13.882a1.507 1.507 0 0 1-1.507 1.505A1.507 1.507 0 0 1 1 13.857c.006-.837.68-1.51 1.506-1.504.826.006 1.49.69 1.484 1.53"/><path fill="#5FCEF6" d="M38.648 9.396c-.01 1.117-.907 2.016-2.008 2.008-1.1-.01-1.986-.922-1.978-2.04.008-1.116.908-2.014 2.01-2.006 1.1.01 1.985.92 1.976 2.038"/><path fill="#6DD0F2" d="M76.138 75.18H24.766a3.964 3.964 0 0 1-3.95-3.953V35.634h70.14V60.35L76.138 75.18"/><path fill="#3899EC" d="M20.815 35.634v-8.898a3.964 3.964 0 0 1 3.95-3.954h62.24a3.964 3.964 0 0 1 3.95 3.954v8.898h-70.14"/><path fill="#FFF" d="M31.072 29.702c0 1.1-.896 1.993-2 1.993-1.106 0-2.002-.892-2.002-1.993 0-1.1.896-1.993 2.002-1.993 1.104 0 2 .892 2 1.992M38.122 29.702c0 1.1-.896 1.993-2 1.993-1.106 0-2-.892-2-1.993 0-1.1.894-1.993 2-1.993 1.104 0 2 .892 2 1.992"/><path fill="#D3EDFF" d="M106.693 60.743L89.17 26.016a2.98 2.98 0 0 0-3.99-1.316L33.1 50.676a2.948 2.948 0 0 0-1.325 3.967L49.3 89.37a2.98 2.98 0 0 0 3.988 1.316L105.37 64.71a2.947 2.947 0 0 0 1.323-3.967zM85.257 37.796a3.172 3.172 0 0 1-4.246-1.4 3.136 3.136 0 0 1 1.41-4.222 3.173 3.173 0 0 1 4.245 1.4 3.137 3.137 0 0 1-1.408 4.222z"/><path fill="#3899EC" d="M49.916 62.664l.93-.465 6.068 6.896.026-.012-1.78-9.036 1.084-.54 6.233 6.814.026-.013-1.92-8.966.867-.433 2.057 10.31-.92.46-6.4-6.954-.024.012 1.794 9.252-.944.47-7.097-7.796M61.488 56.892l.932-.465 6.067 6.897.025-.012-1.78-9.036 1.085-.54 6.233 6.814.025-.013-1.92-8.965.867-.433 2.057 10.31-.92.458-6.4-6.954-.025.012 1.794 9.252-.946.47-7.096-7.796M73.06 51.12l.932-.465 6.067 6.898.025-.013-1.78-9.035 1.083-.54 6.234 6.813.026-.013-1.92-8.965.867-.433 2.056 10.31-.918.46-6.4-6.955-.025.013 1.793 9.25-.943.472-7.096-7.797M87.004 35.323c0-1.91-1.548-3.552-3.457-3.552-1.91 0-3.458 1.688-3.458 3.6 0 .168.026.63.048.63h6.817c.023 0 .05-.508.05-.677"/><path fill="#6DD0F2" d="M80.138 36c.242 2 1.668 2.966 3.41 2.966 1.74 0 3.165-.966 3.407-2.966h-6.817"/><path stroke="#2B81CB" stroke-width="2" d="M84.18 34.14c.653.16 1.33.25 2.03.265 5.112.104 9.34-3.932 9.444-9.014.104-5.08-3.955-9.284-9.066-9.388a9.255 9.255 0 0 0-9.032 6.473" stroke-linecap="round" stroke-linejoin="round"/></g></svg>