<svg width="102px" height="56px" viewBox="0 0 102 56" version="1.1" xmlns="http://www.w3.org/2000/svg" xmlns:xlink="http://www.w3.org/1999/xlink">
  <g id="Page-1" stroke="none" stroke-width="1" fill="none" fill-rule="evenodd">
    <path d="M74.2673267,14.245 L74.2673267,50.924 C74.2673267,53.166 72.409901,55 70.139604,55 L5.12772277,55 C2.85742574,55 1,53.166 1,50.924 L1,14.245 L74.2673267,14.245" fill="#6DD0F2"></path>
    <path d="M1,14.245 L1,5.076 C1,2.834 2.85742574,1 5.12772277,1 L70.139604,1 C72.409901,1 74.2673267,2.834 74.2673267,5.076 L74.2673267,14.245 L1,14.245" fill="#3899EC"></path>
    <path d="M11.7138614,7.623 C11.7138614,8.757 10.7782178,9.677 9.62475248,9.677 C8.47029703,9.677 7.53465347,8.757 7.53465347,7.623 C7.53465347,6.488 8.47029703,5.569 9.62475248,5.569 C10.7782178,5.569 11.7138614,6.488 11.7138614,7.623" fill="#FFFFFF"></path>
    <path d="M19.0782178,7.623 C19.0782178,8.757 18.1425743,9.677 16.9881188,9.677 C15.8346535,9.677 14.8990099,8.757 14.8990099,7.623 C14.8990099,6.488 15.8346535,5.569 16.9881188,5.569 C18.1425743,5.569 19.0782178,6.488 19.0782178,7.623" fill="#FFFFFF"></path>
    <path d="M82.1881188,29 L100.009901,29" fill="#D3EDFF"></path>
    <path d="M82.1881188,29 L100.009901,29" stroke="#5FCEF6" stroke-width="2" stroke-linecap="round" stroke-linejoin="round"></path>
    <path d="M83.1782178,20 L97.039604,20" fill="#D3EDFF"></path>
    <path d="M83.1782178,20 L97.039604,20" stroke="#5FCEF6" stroke-width="2" stroke-linecap="round" stroke-linejoin="round"></path>
    <path d="M83.1782178,38 L91.0990099,38" fill="#D3EDFF"></path>
    <path d="M83.1782178,38 L91.0990099,38" stroke="#5FCEF6" stroke-width="2" stroke-linecap="round" stroke-linejoin="round"></path>
    <path d="M86.1485149,46.949 C86.1485149,48.082 85.239604,49 84.1178218,49 L26.7930693,49 C25.6712871,49 24.7623762,48.082 24.7623762,46.949 L24.7623762,11.051 C24.7623762,9.918 25.6712871,9 26.7930693,9 L84.1178218,9 C85.239604,9 86.1485149,9.918 86.1485149,11.051 L86.1485149,46.949" fill="#D3EDFF"></path>
    <path d="M75.0811881,23 L72.5831683,33 L72.5524752,33 L69.8693069,23 L68.5663366,23 L65.9,33 L65.8693069,33 L63.3861386,23 L61.7128713,23 L59.2138614,33 L59.1841584,33 L56.5009901,23 L55.1980198,23 L52.5306931,33 L52.5009901,33 L50.0178218,23 L48.3445545,23 L45.8455446,33 L45.8148515,33 L43.1326733,23 L41.829703,23 L39.1623762,33 L39.1316832,33 L36.6485149,23 L35.529703,23 L38.5653465,35 L39.6990099,35 L42.4584158,24 L42.4881188,24 L45.2633663,35 L46.3673267,35 L49.1435644,24.089 L51.9336634,35 L53.0673267,35 L55.8267327,24 L55.8574257,24 L58.6316832,35 L59.7356436,35 L62.5118812,24.089 L65.3019802,35 L66.4356436,35 L69.1950495,24 L69.2257426,24 L72,35 L73.1039604,35 L76.1237624,23 L75.0811881,23" fill="#3899EC"></path>
  </g>
</svg>