<svg xmlns="http://www.w3.org/2000/svg" width="102" height="56" viewBox="0 0 102 56"><g fill="none" fill-rule="evenodd"><path fill="#6DD0F2" d="M74.267 14.245v36.68c0 2.24-1.857 4.075-4.127 4.075H5.128C2.858 55 1 53.166 1 50.924v-36.68h73.267"/><path fill="#3899EC" d="M1 14.245v-9.17C1 2.836 2.857 1 5.128 1H70.14c2.27 0 4.127 1.834 4.127 4.076v9.17H1"/><path fill="#FFF" d="M11.714 7.623c0 1.134-.936 2.054-2.09 2.054s-2.09-.92-2.09-2.054c0-1.135.936-2.054 2.09-2.054s2.09.918 2.09 2.053M19.078 7.623c0 1.134-.935 2.054-2.09 2.054-1.153 0-2.09-.92-2.09-2.054 0-1.135.937-2.054 2.09-2.054 1.155 0 2.09.918 2.09 2.053"/><path fill="#D3EDFF" d="M82.188 29h17.822"/><path stroke="#5FCEF6" stroke-width="2" d="M82.188 29h17.822" stroke-linecap="round" stroke-linejoin="round"/><path fill="#D3EDFF" d="M83.178 20H97.04"/><path stroke="#5FCEF6" stroke-width="2" d="M83.178 20H97.04" stroke-linecap="round" stroke-linejoin="round"/><path fill="#D3EDFF" d="M83.178 38h7.92"/><path stroke="#5FCEF6" stroke-width="2" d="M83.178 38h7.92" stroke-linecap="round" stroke-linejoin="round"/><path fill="#D3EDFF" d="M86.15 46.95A2.04 2.04 0 0 1 84.117 49H26.793a2.04 2.04 0 0 1-2.03-2.05v-35.9c0-1.132.908-2.05 2.03-2.05h57.325a2.04 2.04 0 0 1 2.03 2.05v35.9"/><path fill="#3899EC" d="M75.08 23l-2.497 10h-.03l-2.684-10h-1.304L65.9 33h-.03l-2.484-10h-1.673l-2.5 10h-.03l-2.682-10H55.2L52.53 33h-.03L50.02 23h-1.673l-2.5 10h-.03l-2.682-10H41.83l-2.668 10h-.03L36.65 23h-1.12l3.035 12H39.7l2.758-11h.03l2.775 11h1.104l2.777-10.91L51.934 35h1.133l2.76-11h.03l2.775 11h1.104l2.776-10.91L65.302 35h1.134l2.76-11h.03L72 35h1.104l3.02-12H75.08"/></g></svg>