<svg width="108px" height="92px" viewBox="0 0 108 92" version="1.1" xmlns="http://www.w3.org/2000/svg" xmlns:xlink="http://www.w3.org/1999/xlink">    
  <g stroke="none" stroke-width="1" fill="none" fill-rule="evenodd">        
    <path d="M18.0814007,9.352 L15.6312989,8.438 L18.3924933,1 L20.8425952,1.914 L18.0814007,9.352" fill="#B372D8"></path>
    <path d="M5.61391925,33.839 L7.30907665,32.839 L10.2624748,38.001 L8.56731739,39 L5.61391925,33.839" fill="#C593E5"></path>
    <path d="M3.99009517,13.882 C3.98315999,14.719 3.30846554,15.393 2.4831785,15.387 C1.65789147,15.38 0.994095171,14.696 1.00003962,13.858 C1.00598406,13.02 1.6806785,12.347 2.50596554,12.353 C3.33224332,12.359 3.99603962,13.044 3.99009517,13.882" fill="#ED4E4D"></path>
    <path d="M38.6481878,9.396 C38.6392711,10.513 37.7406692,11.412 36.6399563,11.404 C35.5392433,11.395 34.6535211,10.482 34.6624378,9.365 C34.6703637,8.248 35.5699563,7.35 36.6706692,7.358 C37.7713822,7.367 38.6571044,8.279 38.6481878,9.396" fill="#5FCEF6"></path>
    <path d="M76.1378174,75.181 L24.7659285,75.181 C22.5932341,75.181 20.8148544,73.402 20.8148544,71.227 L20.8148544,35.634 L90.9563267,35.634 L90.9563267,60.351 L76.1378174,75.181" fill="#6DD0F2"></path>
    <path d="M20.8148544,35.634 L20.8148544,26.736 C20.8148544,24.561 22.5932341,22.782 24.7659285,22.782 L87.0042618,22.782 C89.177947,22.782 90.9563267,24.561 90.9563267,26.736 L90.9563267,35.634 L20.8148544,35.634" fill="#3899EC"></path>
    <path d="M31.0719933,29.702 C31.0719933,30.803 30.1763637,31.695 29.0716878,31.695 C27.9660211,31.695 27.0703915,30.803 27.0703915,29.702 C27.0703915,28.602 27.9660211,27.709 29.0716878,27.709 C30.1763637,27.709 31.0719933,28.602 31.0719933,29.702" fill="#FFFFFF"></path>
    <path d="M38.1221044,29.702 C38.1221044,30.803 37.2264748,31.695 36.1208081,31.695 C35.0161322,31.695 34.1205026,30.803 34.1205026,29.702 C34.1205026,28.602 35.0161322,27.709 36.1208081,27.709 C37.2264748,27.709 38.1221044,28.602 38.1221044,29.702" fill="#FFFFFF"></path>
    <path d="M106.693253,60.743 L89.1700211,26.016 C88.43291,24.557 86.6475952,23.968 85.1803081,24.7 L33.0990489,50.676 C31.6317618,51.408 31.0392989,53.184 31.7754192,54.643 L49.2986507,89.369 C50.0347711,90.828 51.8210767,91.417 53.2883637,90.686 L105.369623,64.709 C106.835919,63.978 107.429373,62.202 106.693253,60.743 L106.693253,60.743 Z M85.2565952,37.796 C83.6951878,38.574 81.7939563,37.947 81.0112711,36.395 C80.2275952,34.843 80.858697,32.953 82.4201044,32.174 C83.9815118,31.396 85.8817526,32.023 86.6654285,33.575 C87.4481137,35.127 86.8180026,37.017 85.2565952,37.796 L85.2565952,37.796 Z" fill="#D3EDFF"></path>
    <path d="M49.9158822,62.664 L50.8471785,62.199 L56.9144748,69.096 L56.9402341,69.084 L55.1598729,60.048 L56.2437433,59.507 L62.4774841,66.322 L62.5032433,66.309 L60.582197,57.344 L61.4500859,56.911 L63.5068637,67.221 L62.5874563,67.68 L56.1882618,60.726 L56.1625026,60.738 L57.9567341,69.99 L57.0125581,70.46 L49.9158822,62.664" fill="#3899EC"></path>
    <path d="M61.4877341,56.892 L62.4200211,56.427 L68.4873174,63.324 L68.5120859,63.312 L66.7317248,54.276 L67.8165859,53.736 L74.0503267,60.55 L74.0750952,60.537 L72.1540489,51.572 L73.0219378,51.139 L75.0787155,61.449 L74.1602989,61.908 L67.7601137,54.954 L67.7353452,54.966 L69.5285859,64.218 L68.58441,64.689 L61.4877341,56.892" fill="#3899EC"></path>
    <path d="M73.0605767,51.12 L73.9918729,50.655 L80.0591692,57.553 L80.0849285,57.54 L78.3035767,48.505 L79.3884378,47.964 L85.6221785,54.778 L85.6479378,54.765 L83.7268915,45.8 L84.5947804,45.367 L86.6505674,55.678 L85.7321507,56.136 L79.3329563,49.182 L79.307197,49.195 L81.1004378,58.446 L80.1572526,58.917 L73.0605767,51.12" fill="#3899EC"></path>
    <path d="M87.0042618,35.323 C87.0042618,33.412 85.4557341,31.771 83.5465767,31.771 C81.6374192,31.771 80.0888915,33.458 80.0888915,35.369 C80.0888915,35.538 80.1156415,36 80.1384285,36 L86.9547248,36 C86.9775118,36 87.0042618,35.492 87.0042618,35.323" fill="#3899EC"></path>
    <path d="M80.1384285,36 C80.3801692,38 81.8058452,38.966 83.5465767,38.966 C85.2873081,38.966 86.7129841,38 86.9547248,36 L80.1384285,36" fill="#6DD0F2"></path>
    <path d="M84.1806507,34.141 C84.8325581,34.3 85.5112155,34.391 86.2106785,34.405 C91.32191,34.509 95.5503915,30.473 95.6544192,25.391 C95.758447,20.309 91.6993822,16.106 86.5881507,16.002 C82.3656137,15.916 78.745447,18.655 77.5555674,22.475" stroke="#2B81CB" stroke-width="2" stroke-linecap="round" stroke-linejoin="round"></path>
  </g>
</svg>