<svg width="64px" height="55px" viewBox="0 0 64 55" version="1.1" xmlns="http://www.w3.org/2000/svg" xmlns:xlink="http://www.w3.org/1999/xlink">   
  <g stroke="none" stroke-width="1" fill="none" fill-rule="evenodd">        
    <path d="M40.8041875,43.0535109 L3.842875,43.0535109 C2.2796875,43.0535109 1,41.8172966 1,40.3072251 L1,15.5964394 L51.4649687,15.5964394 L51.4649687,32.756868 L40.8041875,43.0535109" fill="#6DD0F2"></path>
    <path d="M1,15.5964394 L1,9.41826086 C1,7.90818943 2.2796875,6.67293943 3.842875,6.67293943 L48.6220938,6.67293943 C50.1862656,6.67293943 51.4649687,7.90818943 51.4649687,9.41826086 L51.4649687,15.5964394 L1,15.5964394" fill="#3899EC"></path>
    <path d="M8.37985937,11.4779751 C8.37985937,12.2416894 7.73509375,12.8617251 6.94070312,12.8617251 C6.14532813,12.8617251 5.5005625,12.2416894 5.5005625,11.4779751 C5.5005625,10.7132966 6.14532813,10.0942251 6.94070312,10.0942251 C7.73509375,10.0942251 8.37985937,10.7132966 8.37985937,11.4779751" fill="#FFFFFF"></path>
    <path d="M13.4523438,11.4779751 C13.4523438,12.2416894 12.8075781,12.8617251 12.0122031,12.8617251 C11.2178125,12.8617251 10.5730469,12.2416894 10.5730469,11.4779751 C10.5730469,10.7132966 11.2178125,10.0942251 12.0122031,10.0942251 C12.8075781,10.0942251 13.4523438,10.7132966 13.4523438,11.4779751" fill="#FFFFFF"></path>
    <path d="M62.7882344,33.0287966 L50.1803594,8.91876086 C49.6507656,7.90529657 48.3651719,7.49643943 47.3099219,8.004618 L9.83870313,26.0396537 C8.78246875,26.5478323 8.35623438,27.7801894 8.88582813,28.7936537 L21.4937031,52.9036894 C22.0232969,53.9161894 23.3088906,54.3260109 24.3641406,53.8178323 L61.8353594,35.7827966 C62.8915938,35.274618 63.3178281,34.0412966 62.7882344,33.0287966 L62.7882344,33.0287966 Z M47.3650469,17.096868 C46.241875,17.636868 44.8735937,17.2019751 44.3105312,16.1239037 C43.7464844,15.0467966 44.2002813,13.7344037 45.3234531,13.1934394 C46.4476094,12.6534394 47.8149063,13.0883323 48.3779688,14.1664037 C48.9420156,15.2444751 48.4882188,16.5559037 47.3650469,17.096868 L47.3650469,17.096868 Z" fill="#FFFFFF"></path>
    <path d="M21.9376562,34.3624037 L22.6080156,34.039368 L26.9737187,38.8280109 L26.9914375,38.8193323 L25.7107656,32.5466537 L26.491375,32.1705823 L30.9761875,36.9023323 L30.9939063,36.8936537 L29.6118437,30.6682251 L30.2359375,30.3683323 L31.7154531,37.5262251 L31.0549375,37.8444394 L26.4500312,33.0162609 L26.4323125,33.0259037 L27.7228281,39.4480466 L27.0436094,39.7759037 L21.9376562,34.3624037" fill="#3899EC"></path>
    <path d="M30.2635,30.3548323 L30.9338594,30.0327609 L35.2995625,34.8214037 L35.3172813,34.8127251 L34.0366094,28.5390823 L34.8172187,28.1630109 L39.3020312,32.8947609 L39.31975,32.8860823 L37.9376875,26.661618 L38.5627656,26.3607609 L40.0422813,33.519618 L39.3807812,33.8378323 L34.7768594,29.0096537 L34.7581563,29.0183323 L36.0486719,35.4414394 L35.3694531,35.7683323 L30.2635,30.3548323" fill="#3899EC"></path>
    <path d="M38.5893437,26.3472609 L39.2597031,26.0251894 L43.6254062,30.8138323 L43.6441094,30.8051537 L42.3624531,24.5315109 L43.1430625,24.1564037 L47.627875,28.8871894 L47.6465781,28.8785109 L46.2645156,22.6540466 L46.8886094,22.3531894 L48.368125,29.5120466 L47.706625,29.8302609 L43.1027031,25.0020823 L43.084,25.0107609 L44.3745156,31.433868 L43.6952969,31.7607609 L38.5893437,26.3472609" fill="#3899EC"></path>
    <path d="M46.5913281,14.558868 C47.0598906,14.6697609 47.5481406,14.7334037 48.0511562,14.7430466 C51.7287812,14.8144037 54.7714844,12.0131537 54.8462969,8.48483229 C54.9211094,4.95651086 52.0004687,2.037618 48.3228437,1.96529657 C45.2850625,1.90647514 42.6804062,3.80804657 41.824,6.45983229" stroke="#2B81CB" stroke-width="2" stroke-linecap="round" stroke-linejoin="round"></path>       
  </g>
</svg>