<svg xmlns="http://www.w3.org/2000/svg" width="62" height="77" class="symbol-help-editing-clipart" viewBox="0 0 62 77"><path fill="#FFF" d="M9.052 9.21c-12.07 12.07-12.07 31.64 0 43.71s31.638 12.068 43.708 0c12.07-12.07 12.07-31.64 0-43.71s-31.638-12.07-43.708 0zm33.65 33.652c-6.514 6.515-17.078 6.516-23.593 0s-6.516-17.08 0-23.594 17.078-6.515 23.593 0 6.516 17.078 0 23.594z"/><path fill="#5fcef5" d="M38.48 16.205c1.52.775 2.95 1.79 4.223 3.063a16.67 16.67 0 0 1 3.063 4.22l10.71-10.71c.642-.64.642-1.68 0-2.32l-4.963-4.965a1.64 1.64 0 0 0-2.32 0L38.48 16.205zM16.046 38.64L5.336 49.35a1.64 1.64 0 0 0 0 2.322l4.963 4.964c.64.64 1.68.64 2.32 0l10.71-10.712a16.652 16.652 0 0 1-4.222-3.063 16.65 16.65 0 0 1-3.062-4.22zM5.335 12.778l10.71 10.71c.776-1.52 1.792-2.95 3.064-4.22a16.67 16.67 0 0 1 4.22-3.064L12.62 5.494a1.64 1.64 0 0 0-2.322 0l-4.963 4.963a1.64 1.64 0 0 0 0 2.32zM42.703 42.862a16.66 16.66 0 0 1-4.222 3.063l10.712 10.71c.64.642 1.68.642 2.32 0l4.964-4.962c.64-.64.64-1.68 0-2.32L45.766 38.64a16.634 16.634 0 0 1-3.063 4.222z"/><ellipse cx="30.906" cy="74.267" fill="#a2dbf4" rx="22" ry="2"/></svg>