<svg class="symbol-help-editing-clipart" version="1.1" xmlns="http://www.w3.org/2000/svg" xmlns:xlink="http://www.w3.org/1999/xlink" width="62px" height="77px" viewBox="0 0 62 77">

  <path style="fill:#FFFFFF;" d="M9.052,9.211c-12.07,12.07-12.07,31.638,0,43.708s31.638,12.069,43.708,0
                                 c12.069-12.069,12.069-31.638,0-43.708S21.122-2.859,9.052,9.211z M42.703,42.862c-6.515,6.515-17.079,6.516-23.594,0
                                 s-6.515-17.079,0-23.594s17.079-6.515,23.594,0S49.219,36.346,42.703,42.862z"/>
  <path style="fill:#5FCEF5;" d="M38.481,16.205c1.52,0.775,2.95,1.791,4.222,3.063c1.272,1.272,2.287,2.701,3.063,4.221
                                 l10.711-10.711c0.641-0.641,0.641-1.68,0-2.321l-4.964-4.964c-0.641-0.641-1.68-0.641-2.321,0L38.481,16.205z"/>
  <path style="fill:#5FCEF5;" d="M16.046,38.64L5.335,49.351c-0.641,0.641-0.641,1.68,0,2.321l4.964,4.964
                                 c0.641,0.641,1.68,0.641,2.321,0L23.33,45.924c-1.52-0.775-2.95-1.791-4.222-3.063C17.837,41.59,16.821,40.16,16.046,38.64z"/>
  <path style="fill:#5FCEF5;" d="M5.335,12.778l10.711,10.711c0.775-1.52,1.791-2.95,3.063-4.222
                                 c1.272-1.272,2.701-2.287,4.221-3.063L12.619,5.494c-0.641-0.641-1.68-0.641-2.321,0l-4.963,4.963
                                 C4.694,11.098,4.694,12.137,5.335,12.778z"/>
  <path style="fill:#5FCEF5;" d="M42.703,42.862c-1.272,1.272-2.701,2.287-4.222,3.063l10.711,10.711c0.641,0.641,1.68,0.641,2.321,0
                                 l4.963-4.963c0.641-0.641,0.641-1.68,0-2.321L45.766,38.64C44.991,40.161,43.975,41.59,42.703,42.862z"/>
  <ellipse style="fill:#A2DBF4;" cx="30.906" cy="74.267" rx="22" ry="2"/>
</svg>
