<svg width="25px" height="25px" viewBox="0 0 25 25">
	<circle cx="13.00" cy="12.00" r="12.00"/>
	<path class="c1" fill-rule="evenodd"
		  d="M 17.38 10.91C 17.38 10.91 12.7 16.16 12.7 16.16 12.7 16.16 12.7 16.16 12.69 16.16 12.62 16.33 12.52 16.49 12.37 16.59 11.97 16.84 11.46 16.69 11.23 16.24 11.23 16.24 8.99 13.4 8.99 13.4 8.76 12.95 8.89 12.38 9.29 12.13 9.69 11.87 10.2 12.02 10.43 12.47 10.43 12.47 11.93 14.37 11.93 14.37 11.93 14.37 16.2 9.59 16.2 9.59 16.53 9.22 17.06 9.22 17.38 9.59 17.71 9.95 17.71 10.54 17.38 10.91Z"/>
</svg>