<svg xmlns="http://www.w3.org/2000/svg" width="60" height="60" viewBox="0 0 60 60"><g fill="none" fill-rule="evenodd"><path fill="#6DD0F2" d="M59 30c0 16.016-12.984 29-29 29S1 46.016 1 30 13.984 1 30 1s29 12.984 29 29"/><path fill="#D3EDFF" d="M53.203 30.102c0 12.76-10.342 23.1-23.1 23.1C17.342 53.203 7 42.863 7 30.103 7 17.342 17.343 7 30.102 7c12.76 0 23.1 10.343 23.1 23.102z"/><path stroke="#3899EC" d="M53.102 30c0 12.76-10.343 23.102-23.102 23.102C17.24 53.102 6.898 42.76 6.898 30 6.898 17.24 17.24 6.898 30 6.898 42.76 6.898 53.102 17.24 53.102 30z" stroke-linecap="round" stroke-linejoin="round" stroke-dasharray="1 3"/><path fill="#3899EC" d="M41.305 20.66h-2.703s.492 4.44-3.4 4.44c-3.894 0-3.36-4.44-3.36-4.44H29.14s.65 4.41-3.294 4.41c-3.943 0-3.465-4.41-3.465-4.41H19.68l1.352 15.73h18.923l1.352-15.73M21.153 37.62H39.83v2.948H21.154v-2.95z"/></g></svg>