<svg width="60px" height="60px" viewBox="0 0 60 60" version="1.1" xmlns="http://www.w3.org/2000/svg" xmlns:xlink="http://www.w3.org/1999/xlink">
  <g stroke="none" stroke-width="1" fill="none" fill-rule="evenodd">
    <path d="M59,30 C59,46.016 46.016,59 30,59 C13.984,59 1,46.016 1,30 C1,13.984 13.984,1 30,1 C46.016,1 59,13.984 59,30" fill="#6DD0F2"></path>
    <path d="M53.2033898,30.1016949 C53.2033898,42.8607119 42.8607119,53.2033898 30.1016949,53.2033898 C17.342678,53.2033898 7,42.8607119 7,30.1016949 C7,17.342678 17.342678,7 30.1016949,7 C42.8607119,7 53.2033898,17.342678 53.2033898,30.1016949 L53.2033898,30.1016949 Z" fill="#D3EDFF"></path>
    <path d="M53.1016949,30 C53.1016949,42.7590169 42.7590169,53.1016949 30,53.1016949 C17.2409831,53.1016949 6.89830508,42.7590169 6.89830508,30 C6.89830508,17.2409831 17.2409831,6.89830508 30,6.89830508 C42.7590169,6.89830508 53.1016949,17.2409831 53.1016949,30 L53.1016949,30 Z" stroke="#3899EC" stroke-linecap="round" stroke-linejoin="round" stroke-dasharray="1,3"></path>
    <path d="M41.3050847,20.6610169 L38.6016949,20.6610169 C38.6016949,20.6610169 39.0942034,25.0994915 35.201322,25.0994915 C31.3084407,25.0994915 31.8432203,20.6610169 31.8432203,20.6610169 L29.1398305,20.6610169 C29.1398305,20.6610169 29.7896271,25.0690169 25.8456271,25.0690169 C21.9026102,25.0690169 22.3813559,20.6610169 22.3813559,20.6610169 L19.6779661,20.6610169 L21.029661,36.3898305 L39.9533898,36.3898305 L41.3050847,20.6610169" fill="#3899EC"></path>
    <path d="M21.1525424,37.6186441 L39.8305085,37.6186441 L39.8305085,40.5677966 L21.1525424,40.5677966 L21.1525424,37.6186441 Z" fill="#3899EC"></path>        
  </g>
</svg>