<svg xmlns="http://www.w3.org/2000/svg" width="50" height="62" viewBox="0 0 50 62"><path fill="#DBE3E9" d="M25 57c-7.72 0-14 .897-14 2s6.28 2 14 2 14-.897 14-2-6.28-2-14-2"/><path fill="#D3EDFF" d="M49 25c0 13.255-10.745 24-24 24S1 38.255 1 25 11.745 1 25 1s24 10.745 24 24"/><path fill="#3899EC" d="M39.737 33.105c1.534-.618 2.613-2.08 2.613-3.79 0-2.267-1.9-4.104-4.24-4.104-2.343 0-4.242 1.838-4.242 4.105 0 1.577.928 2.93 2.275 3.617l.02.01c-1.743.37-3.17 1.37-4.163 2.74v-.562c0-2.897-2.06-5.368-4.817-6.226a4.492 4.492 0 0 1-1.655.316h-.016a4.353 4.353 0 0 0 1.617-.316c1.533-.618 2.612-2.08 2.612-3.79 0-2.266-1.898-4.104-4.24-4.104-2.343 0-4.242 1.838-4.242 4.105 0 1.576.928 2.93 2.275 3.617.338.172.703.3 1.084.385a4.57 4.57 0 0 1-1.125-.385C20.402 29.365 18 31.994 18 35.12v.562c-.995-1.194-2.05-2.107-3.51-2.568l.03-.01c1.535-.617 2.615-2.08 2.615-3.79 0-2.266-1.9-4.103-4.242-4.103s-4.24 1.838-4.24 4.105c0 1.577.927 2.93 2.274 3.617.586.3 1.243.484 1.95.487h-.01a4.24 4.24 0 0 1-1.953-.488c-2.985.62-5.302 3.094-5.457 6.075C8.513 43.25 13 46.455 18 47.99c0 .117 1 .223 1 .32 2 .447 4.03.69 6 .69 1.97 0 4-.243 6-.69 0-.097 1-.203 1-.32 5-1.535 9.48-4.74 12.537-8.983-.144-2.756-2.147-5.076-4.8-5.902"/></svg>