<svg width="50px" height="62px" viewBox="0 0 50 62" version="1.1" xmlns="http://www.w3.org/2000/svg" xmlns:xlink="http://www.w3.org/1999/xlink">
  <g>
    <path d="M25,57 C17.28,57 11,57.897 11,59 C11,60.103 17.28,61 25,61 C32.72,61 39,60.103 39,59 C39,57.897 32.72,57 25,57" fill="#DBE3E9"></path>
    <path d="M49,25 C49,38.255 38.255,49 25,49 C11.745,49 1,38.255 1,25 C1,11.745 11.745,1 25,1 C38.255,1 49,11.745 49,25" fill="#D3EDFF"></path>
    <path d="M39.737,33.105 C41.271,32.487 42.35,31.024 42.35,29.315 C42.35,27.048 40.451,25.211 38.109,25.211 C35.767,25.211 33.868,27.048 33.868,29.315 C33.868,30.892 34.796,32.245 36.143,32.932 L36.163,32.941 C34.42,33.313 32.993,34.313 32,35.682 L32,35.12 C32,32.223 29.939,29.752 27.183,28.894 C26.681,29.096 26.105,29.21 25.528,29.21 L25.512,29.209 C26.085,29.207 26.631,29.095 27.129,28.894 C28.663,28.276 29.742,26.813 29.742,25.105 C29.742,22.838 27.844,21 25.501,21 C23.159,21 21.26,22.838 21.26,25.105 C21.26,26.681 22.188,28.034 23.535,28.722 C23.873,28.894 24.238,29.023 24.619,29.107 C24.219,29.023 23.833,28.894 23.495,28.722 C20.402,29.365 18,31.994 18,35.12 L18,35.682 C17.005,34.488 15.951,33.575 14.49,33.114 L14.521,33.105 C16.055,32.487 17.135,31.024 17.135,29.315 C17.135,27.048 15.236,25.211 12.893,25.211 C10.551,25.211 8.652,27.048 8.652,29.315 C8.652,30.892 9.58,32.245 10.927,32.932 C11.513,33.231 12.17,33.416 12.877,33.419 L12.866,33.42 C12.153,33.42 11.504,33.234 10.914,32.932 C7.929,33.553 5.612,36.026 5.457,39.007 C8.513,43.251 13,46.455 18,47.991 C18,48.107 19,48.213 19,48.31 C21,48.757 23.03,49 25,49 C26.97,49 29,48.757 31,48.31 C31,48.213 32,48.107 32,47.991 C37,46.455 41.48,43.251 44.537,39.007 C44.393,36.251 42.39,33.931 39.737,33.105" fill="#3899EC"></path>
  </g>
</svg>