<svg xmlns="http://www.w3.org/2000/svg" width="98" height="76" viewBox="0 0 98 76"><g fill="none" fill-rule="evenodd"><path fill="#8DC86F" d="M8.936 33.92l-1.988 1.62-4.876-5.987 1.99-1.618 4.874 5.986"/><path fill="#B372D8" d="M27.24 1l3.454 2.933-8.897 10.378-3.456-2.932L27.24 1"/><path fill="#F6C400" d="M4.92 13.315a1.96 1.96 0 1 1-3.92-.03 1.96 1.96 0 1 1 3.92.03"/><path fill="#D3EDFF" d="M88.102 35.54v35.526c0 2.17-1.782 3.947-3.96 3.947H21.787c-2.178 0-3.96-1.776-3.96-3.947V35.54h70.276"/><path fill="#3899EC" d="M17.827 35.54v-8.882c0-2.17 1.78-3.947 3.96-3.947h62.356c2.177 0 3.96 1.777 3.96 3.948v8.88H17.826M32.325 50.836h1.01l2.243 8.88h.027l2.407-8.88h1.177l2.42 8.88h.028l2.256-8.88h.94L42.11 61.69h-.995l-2.506-8.88h-.026l-2.49 8.88h-1.024l-2.74-10.854M45.863 50.836h1.01l2.242 8.88h.027l2.408-8.88h1.177l2.42 8.88h.03l2.254-8.88h.943L55.646 61.69h-.996l-2.505-8.88h-.028l-2.49 8.88h-1.024l-2.74-10.854M59.4 50.836h1.01l2.242 8.88h.027l2.407-8.88h1.177l2.42 8.88h.03l2.255-8.88h.94L69.183 61.69h-.996l-2.505-8.88h-.027l-2.49 8.88H62.14L59.4 50.837"/><path fill="#FFF" d="M28.104 29.125c0 1.098-.898 1.99-2.006 1.99a1.997 1.997 0 0 1-2.004-1.99c0-1.098.898-1.99 2.004-1.99 1.108 0 2.006.892 2.006 1.99M35.167 29.125c0 1.098-.898 1.99-2.005 1.99a1.998 1.998 0 0 1-2.005-1.99c0-1.098.898-1.99 2.005-1.99 1.107 0 2.005.892 2.005 1.99"/><path fill="#6DD0F2" d="M91.705 46.944l-14.15-4.932c-.79-.276-1.55.48-1.273 1.27l4.948 14.106c.486 1.386 2.258 1.79 3.3.75l2.273-2.267 6.534 6.516a1 1 0 0 0 1.413 0l1.967-1.962a.992.992 0 0 0 0-1.41l-6.533-6.513 2.274-2.266c1.04-1.04.637-2.805-.753-3.29"/></g></svg>