<svg width="98px" height="76px" viewBox="0 0 98 76" version="1.1" xmlns="http://www.w3.org/2000/svg" xmlns:xlink="http://www.w3.org/1999/xlink">
  <g id="Page-1" stroke="none" stroke-width="1" fill="none" fill-rule="evenodd">       
    <path d="M8.9362373,33.9210526 L6.9477373,35.5394737 L2.0720026,29.5532895 L4.0614924,27.9348684 L8.9362373,33.9210526" fill="#8DC86F"></path>
    <path d="M27.2385536,1 L30.6939312,3.93289474 L21.7966557,14.3105263 L18.3412781,11.3776316 L27.2385536,1" fill="#B372D8"></path>
    <path d="M4.91865566,13.3148026 C4.9107373,14.3983553 4.02684954,15.2707237 2.94401281,15.2618421 C1.86216587,15.2539474 0.992135257,14.3677632 1.00005362,13.2842105 C1.00797199,12.2006579 1.89284954,11.3292763 2.97469648,11.3371711 C4.05654342,11.3450658 4.92756383,12.2302632 4.91865566,13.3148026" fill="#F6C400"></path>
    <path d="M88.1020944,35.5394737 L88.1020944,71.0657895 C88.1020944,73.2368421 86.3204618,75.0131579 84.1429108,75.0131579 L21.7857679,75.0131579 C19.6082169,75.0131579 17.8265842,73.2368421 17.8265842,71.0657895 L17.8265842,35.5394737 L88.1020944,35.5394737" fill="#D3EDFF"></path>
    <path d="M17.8265842,35.5394737 L17.8265842,26.6578947 C17.8265842,24.4868421 19.6082169,22.7105263 21.7857679,22.7105263 L84.1429108,22.7105263 C86.3204618,22.7105263 88.1020944,24.4868421 88.1020944,26.6578947 L88.1020944,35.5394737 L17.8265842,35.5394737" fill="#3899EC"></path>
    <path d="M32.3251148,50.8355263 L33.3356965,50.8355263 L35.5775842,59.7171053 L35.6052985,59.7171053 L38.0124822,50.8355263 L39.1893495,50.8355263 L41.6103904,59.7171053 L41.6381046,59.7171053 L43.8938495,50.8355263 L44.8351455,50.8355263 L42.1082577,61.6907895 L41.112523,61.6907895 L38.6073495,52.8092105 L38.5806251,52.8092105 L36.0893087,61.6907895 L35.0658597,61.6907895 L32.3251148,50.8355263" fill="#3899EC"></path>
    <path d="M45.8625536,50.8355263 L46.8731353,50.8355263 L49.115023,59.7171053 L49.1417475,59.7171053 L51.549921,50.8355263 L52.7267883,50.8355263 L55.1478291,59.7171053 L55.1755434,59.7171053 L57.4312883,50.8355263 L58.3725842,50.8355263 L55.6456965,61.6907895 L54.6499618,61.6907895 L52.1447883,52.8092105 L52.117074,52.8092105 L49.6267475,61.6907895 L48.6032985,61.6907895 L45.8625536,50.8355263" fill="#3899EC" ></path>
    <path d="M59.3999924,50.8355263 L60.410574,50.8355263 L62.6524618,59.7171053 L62.6791863,59.7171053 L65.0873597,50.8355263 L66.2642271,50.8355263 L68.6852679,59.7171053 L68.7129822,59.7171053 L70.9687271,50.8355263 L71.910023,50.8355263 L69.1831353,61.6907895 L68.1874006,61.6907895 L65.6822271,52.8092105 L65.6545128,52.8092105 L63.1641863,61.6907895 L62.1397475,61.6907895 L59.3999924,50.8355263" fill="#3899EC"></path>
    <path d="M28.1036353,29.125 C28.1036353,30.2233553 27.2058904,31.1144737 26.0983087,31.1144737 C24.9917169,31.1144737 24.093972,30.2233553 24.093972,29.125 C24.093972,28.0266447 24.9917169,27.1355263 26.0983087,27.1355263 C27.2058904,27.1355263 28.1036353,28.0266447 28.1036353,29.125" fill="#FFFFFF"></path>
    <path d="M35.1668189,29.125 C35.1668189,30.2233553 34.269074,31.1144737 33.1624822,31.1144737 C32.0549006,31.1144737 31.1571557,30.2233553 31.1571557,29.125 C31.1571557,28.0266447 32.0549006,27.1355263 33.1624822,27.1355263 C34.269074,27.1355263 35.1668189,28.0266447 35.1668189,29.125" fill="#FFFFFF"></path>
    <path d="M91.7049516,46.9444079 L77.5558189,42.0121711 C76.7659618,41.7358553 76.0057985,42.4927632 76.2819516,43.28125 L81.2299414,57.3881579 C81.7159312,58.7736842 83.4876659,59.1773026 84.5289312,58.1391447 L86.8034822,55.8713816 L93.3371251,62.3855263 C93.7271046,62.7753289 94.3595842,62.7753289 94.7495638,62.3855263 L96.7172781,60.4236842 C97.1082475,60.0348684 97.1082475,59.4042763 96.7172781,59.0154605 L90.1836353,52.5013158 L92.4581863,50.2335526 C93.4994516,49.1953947 93.0946251,47.4289474 91.7049516,46.9444079" fill="#6DD0F2"></path>        
  </g>
</svg>