<svg xmlns="http://www.w3.org/2000/svg" width="80" height="124" viewBox="0 0 80 124"><g fill="none" fill-rule="evenodd"><path fill="#C6DEE4" d="M40.83 119.506c19.114 0 34.61.822 34.61 1.837 0 1.014-15.496 1.836-34.61 1.836-19.116 0-34.612-.823-34.612-1.837 0-1.015 15.496-1.837 34.61-1.837"/><path fill="#67C6E4" d="M54.86.867H18.41C8.39.867.19 9.067.19 19.09v48.596C.19 77.71 8.39 85.91 18.41 85.91h42.522c10.065 0 18.223-8.16 18.223-18.224v-42.57L54.86.866zM18.41 19.09h30.372v12.15H18.412V19.09zm0 24.298h42.52v24.298h-42.52V43.388zm6.075 18.223h12.15V49.463h-12.15v12.15z"/></g></svg>