<svg width="80px" height="124px" viewBox="0 0 80 124" version="1.1" xmlns="http://www.w3.org/2000/svg" xmlns:xlink="http://www.w3.org/1999/xlink">
  <g id="Page-1" stroke="none" stroke-width="1" fill="none" fill-rule="evenodd">
    <path d="M40.829,119.506 C59.944,119.506 75.439,120.328 75.439,121.343 C75.439,122.357 59.944,123.179 40.829,123.179 C21.714,123.179 6.218,122.357 6.218,121.343 C6.218,120.328 21.714,119.506 40.829,119.506" fill="#C6DEE4"></path>
    <path d="M54.859,0.867 L18.412,0.867 C8.389,0.867 0.189,9.067 0.189,19.09 L0.189,67.686 C0.189,77.709 8.389,85.909 18.412,85.909 L60.934,85.909 C70.999,85.909 79.157,77.751 79.157,67.686 L79.157,25.116 L54.859,0.867 L54.859,0.867 Z M18.412,19.09 L48.784,19.09 L48.784,31.239 L18.412,31.239 L18.412,19.09 Z M18.412,43.388 L60.933,43.388 L60.933,67.686 L18.412,67.686 L18.412,43.388 Z M24.487,61.611 L36.636,61.611 L36.636,49.462 L24.487,49.462 L24.487,61.611 Z" fill="#67C6E4"></path>
  </g>
</svg>