<svg width="120px" height="112px" viewBox="0 0 120 112" version="1.1" xmlns="http://www.w3.org/2000/svg" xmlns:xlink="http://www.w3.org/1999/xlink">
    <g id="Page-1" stroke="none" stroke-width="1" fill="none" fill-rule="evenodd">
        <g id="save_your_theme-clipart">
            <path d="M47,71 L3,71 C1.895,71 1,70.105 1,69 L1,3 C1,1.895 1.895,1 3,1 L47,1 C48.105,1 49,1.895 49,3 L49,69 C49,70.105 48.105,71 47,71" id="Fill-1" fill="#2B5672"/>
            <path d="M88,87 L44,87 C42.895,87 42,86.105 42,85 L42,19 C42,17.895 42.895,17 44,17 L88,17 C89.105,17 90,17.895 90,19 L90,85 C90,86.105 89.105,87 88,87" id="Fill-3" fill="#A7E3FA"/>
            <path d="M77.073,70 L56.073,70 L56.073,69 L77.073,69 L77.073,70 Z" id="Fill-5" fill="#2B5672"/>
            <path d="M77,76 L56,76 L56,75 L77,75 L77,76 Z" id="Fill-7" fill="#2B5672"/>
            <path d="M35,54 L14,54 L14,53 L35,53 L35,54 Z" id="Fill-8" fill="#FFFFFF"/>
            <path d="M35,60 L14,60 L14,59 L35,59 L35,60 Z" id="Fill-9" fill="#FFFFFF"/>
            <path d="M43,92.5 C43,93.328 34.493,94 24,94 C13.507,94 5,93.328 5,92.5 C5,91.672 13.507,91 24,91 C34.493,91 43,91.672 43,92.5" id="Fill-11" fill="#D9E1E8"/>
            <path d="M85,109.5 C85,110.328 76.493,111 66,111 C55.507,111 47,110.328 47,109.5 C47,108.672 55.507,108 66,108 C76.493,108 85,108.672 85,109.5" id="Fill-13" fill="#D9E1E8"/>
            <path d="M98,42 L94,38 L98,34" id="Stroke-15" stroke="#7992A5" stroke-linecap="round" stroke-linejoin="round"/>
            <path d="M98.252,38 L105.371,38 C112.346,38 118,30.6175881 118,23.5005103 C118,16.3824119 112.346,9 105.371,9 L51,9" id="Stroke-17" stroke="#7992A5" stroke-linecap="round" stroke-dasharray="1,3"/>
            <path d="M68.9205584,31.4727678 C67.6405584,32.5337678 61.8385584,39.0347678 61.2585584,39.6747678 C62.0195584,40.1547678 62.7995584,40.6347678 63.7195584,40.9747678 L68.9205584,31.4727678 Z M58.7785584,39.6347678 C58.5585584,39.5347678 58.3585584,39.4347678 58.1785584,39.3747678 C56.4985584,38.8947678 54.3575584,39.7947678 53.2575584,41.2757678 C52.1165584,42.8747678 52.4775584,44.5357678 54.8575584,43.0357678 C56.3175584,42.1157678 57.5785584,40.9147678 58.7785584,39.6347678 L58.7785584,39.6347678 Z M70.4005584,39.9347678 C68.6205584,42.4547678 66.7995584,43.0557678 65.0195584,42.7757678 C64.7395584,43.3157678 64.4595584,43.8357678 64.1795584,44.3157678 C63.8795584,44.8357678 62.2995584,43.6957678 62.8195584,42.6747678 C62.8995584,42.5157678 62.9995584,42.3347678 63.0795584,42.1747678 C62.1195584,41.7357678 61.2185584,41.1557678 60.4185584,40.6347678 C58.9385584,42.2947678 57.2775584,44.0357678 55.2375584,44.7157678 C52.5375584,45.5767678 49.3765584,43.0157678 51.5765584,40.3147678 C53.3975584,38.0947678 56.1575584,37.6147678 58.8185584,38.4747678 C59.0785584,38.5547678 59.3385584,38.6547678 59.5785584,38.7747678 C60.3585584,37.8947678 61.1385584,36.9937678 61.9395584,36.1547678 C63.8195584,34.1337678 66.0205584,31.3727678 68.2005584,29.6527678 C69.1405584,28.9117678 70.1605584,28.6317678 71.0215584,29.7327678 C71.8815584,30.8127678 70.0605584,33.4337678 69.5805584,34.3327678 C68.4605584,36.4537678 67.0805584,39.0347678 65.7795584,41.4147678 C67.9605584,41.3947678 68.9805584,39.5547678 70.0605584,38.0547678 C70.4205584,37.5347678 71.2215584,38.7547678 70.4005584,39.9347678 L70.4005584,39.9347678 Z" id="Fill-14" fill="#2B5672"/>
            <path d="M73.699,38.6518497 L74.059,38.1518497 C74.599,37.3118497 75.419,35.8108497 75.119,35.5318497 C74.779,35.2518497 73.259,36.4918497 71.998,38.3518497 C71.178,39.5518497 70.298,41.0918497 70.538,41.3918497 C70.718,41.6128497 71.719,41.1318497 73.699,38.6518497 M79.06,39.7528497 C78.38,40.7528497 77.74,41.4318497 76.98,41.9528497 C75.979,42.6128497 74.439,43.1728497 72.999,43.7138497 C71.879,45.4138497 70.378,47.8938497 69.598,48.8348497 C68.778,49.8348497 68.258,49.1538497 68.018,48.8348497 C67.637,48.3538497 67.898,47.3338497 68.458,46.2338497 C69.038,45.1138497 69.698,44.2938497 71.098,43.4728497 C71.178,43.3728497 71.478,42.9928497 71.819,42.5328497 C71.279,42.6528497 70.699,42.4928497 70.138,41.9128497 C68.838,40.6128497 69.358,39.1518497 70.858,36.8718497 C71.678,35.6508497 72.799,34.6718497 73.659,34.2308497 C74.359,33.8508497 74.859,33.9508497 75.499,34.4508497 C75.859,34.7308497 76.459,34.9908497 76.479,35.5108497 C77.02,35.7118497 77.54,36.2918497 77.4,36.5508497 C77.199,36.9918497 74.959,40.5728497 74.039,41.9928497 C74.399,41.8328497 74.799,41.6318497 74.919,41.5728497 C75.399,41.3518497 76.3,40.7928497 76.82,40.2528497 C77.48,39.5518497 78.14,38.7128497 78.62,38.0518497 C78.86,37.6918497 79.8,38.6518497 79.06,39.7528497" id="Fill-15" fill="#2B5672"/>
            <path d="M19.0444444,17.3220339 L16.1111111,24.4463277 L21.8888889,24.4463277 L19.0444444,17.3220339 Z M18.4933333,16 L19.7022222,16 L25,29 L23.6844444,29 L22.3165432,25.5480226 L15.6488889,25.5480226 L14.2266667,29 L13,29 L18.4933333,16 Z" id="Fill-3" fill="#FFFFFF"/>
            <path d="M33.9214876,24.3158018 C33.9214876,23.8545865 33.8316116,23.42068 33.6518595,23.0140823 C33.4721074,22.6074846 33.2303719,22.2555046 32.9266529,21.9581421 C32.6229339,21.6607796 32.2644628,21.4241033 31.8481405,21.2481133 C31.4328512,21.0721232 30.9896694,20.9841282 30.518595,20.9841282 C30.0475207,20.9841282 29.6043388,21.0721232 29.1890496,21.2481133 C28.7737603,21.4241033 28.4142562,21.6607796 28.1105372,21.9581421 C27.8068182,22.2555046 27.5650826,22.6074846 27.3853306,23.0140823 C27.2055785,23.42068 27.1157025,23.8545865 27.1157025,24.3158018 C27.1157025,24.777017 27.2055785,25.2109235 27.3853306,25.6175212 C27.5650826,26.0231074 27.8068182,26.376099 28.1105372,26.6734614 C28.4142562,26.9708239 28.7737603,27.2064888 29.1890496,27.3824788 C29.6043388,27.5594803 30.0475207,27.6474753 30.518595,27.6474753 C30.9896694,27.6474753 31.4328512,27.5594803 31.8481405,27.3824788 C32.2644628,27.2064888 32.6229339,26.9708239 32.9266529,26.6734614 C33.2303719,26.376099 33.4721074,26.0231074 33.6518595,25.6175212 C33.8316116,25.2109235 33.9214876,24.777017 33.9214876,24.3158018 L33.9214876,24.3158018 Z M35,28.0844161 C35,29.1282191 34.8450413,29.9717576 34.535124,30.6150315 C34.2252066,31.257294 33.8378099,31.754921 33.3729339,32.1079125 C32.9090909,32.4598926 32.4090909,32.6955575 31.8770661,32.8169299 C31.3429752,32.9383023 30.8595041,33 30.4256198,33 C29.9917355,33 29.5671488,32.960554 29.1518595,32.8816619 C28.7365702,32.8027698 28.3440083,32.6864545 27.9710744,32.5357504 C27.5991736,32.3840349 27.2613636,32.1989419 26.9576446,31.97946 C26.6539256,31.7609897 26.3904959,31.5121761 26.1673554,31.234031 L27.0413223,30.4329728 C27.4380165,30.9791488 27.9338843,31.3786665 28.5289256,31.6335486 C29.1239669,31.8884307 29.7561983,32.0158718 30.4256198,32.0158718 C30.9958678,32.0158718 31.4762397,31.9440598 31.8667355,31.7974014 C32.2582645,31.6527659 32.5795455,31.4605929 32.8336777,31.224928 C33.0878099,30.9882518 33.286157,30.727301 33.428719,30.4420758 C33.571281,30.1558391 33.6766529,29.8706139 33.7448347,29.5864001 C33.8130165,29.3011748 33.8543388,29.0311211 33.8657025,28.7752276 C33.8780992,28.5203454 33.8842975,28.3150237 33.8842975,28.1572396 L33.8842975,26.9920641 L33.8471074,26.9920641 C33.5247934,27.5008169 33.0878099,27.9023574 32.536157,28.1936513 C31.9845041,28.4849451 31.3367769,28.6305921 30.5929752,28.6305921 C29.9607438,28.6305921 29.3657025,28.5183226 28.8078512,28.2937836 C28.25,28.0692445 27.7634298,27.7587334 27.3481405,27.3652844 C26.9328512,26.9708239 26.6043388,26.512643 26.3636364,25.98973 C26.1208678,25.46884 26,24.9105267 26,24.3158018 C26,23.7210768 26.1208678,23.1617521 26.3636364,22.6408621 C26.6043388,22.1189606 26.9328512,21.6638139 27.3481405,21.2744106 C27.7634298,20.8860188 28.25,20.5775305 28.8078512,20.3459115 C29.3657025,20.1163153 29.9607438,20 30.5929752,20 C31.3367769,20 31.9845041,20.1466584 32.536157,20.4379522 C33.0878099,20.7292461 33.5247934,21.1297751 33.8471074,21.6395394 L33.8842975,21.6395394 L33.8842975,20.2184704 L35,20.2184704 L35,28.0844161 Z" id="Fill-5" fill="#FFFFFF"/>
        </g>
    </g>
</svg>