<svg xmlns="http://www.w3.org/2000/svg" width="120" height="112" viewBox="0 0 120 112"><g fill="none" fill-rule="evenodd"><path fill="#2B5672" d="M47 71H3a2 2 0 0 1-2-2V3a2 2 0 0 1 2-2h44a2 2 0 0 1 2 2v66a2 2 0 0 1-2 2"/><path fill="#A7E3FA" d="M88 87H44a2 2 0 0 1-2-2V19a2 2 0 0 1 2-2h44a2 2 0 0 1 2 2v66a2 2 0 0 1-2 2"/><path fill="#2B5672" d="M77.073 70h-21v-1h21v1zM77 76H56v-1h21v1z"/><path fill="#FFF" d="M35 54H14v-1h21v1zM35 60H14v-1h21v1z"/><path fill="#D9E1E8" d="M43 92.5c0 .828-8.507 1.5-19 1.5s-19-.672-19-1.5S13.507 91 24 91s19 .672 19 1.5M85 109.5c0 .828-8.507 1.5-19 1.5s-19-.672-19-1.5 8.507-1.5 19-1.5 19 .672 19 1.5"/><path stroke="#7992A5" d="M98 42l-4-4 4-4" stroke-linecap="round" stroke-linejoin="round"/><path stroke="#7992A5" d="M98.252 38h7.12C112.345 38 118 30.618 118 23.5S112.346 9 105.37 9H51" stroke-linecap="round" stroke-dasharray="1 3"/><path fill="#2B5672" d="M68.92 31.473c-1.28 1.06-7.08 7.562-7.66 8.202.76.48 1.54.96 2.46 1.3l5.2-9.502zm-10.14 8.162c-.22-.1-.42-.2-.6-.26-1.68-.48-3.822.42-4.922 1.9-1.14 1.6-.78 3.26 1.6 1.76 1.46-.92 2.72-2.12 3.92-3.4zm11.62.3c-1.78 2.52-3.6 3.12-5.38 2.84-.28.54-.56 1.06-.84 1.54-.3.52-1.88-.62-1.36-1.64.08-.16.18-.34.26-.5-.96-.44-1.86-1.02-2.66-1.54-1.48 1.66-3.142 3.4-5.182 4.08-2.7.862-5.86-1.7-3.66-4.4 1.82-2.22 4.58-2.7 7.24-1.84.26.08.52.18.76.3.78-.88 1.56-1.78 2.362-2.62 1.88-2.02 4.08-4.782 6.26-6.502.94-.74 1.96-1.02 2.822.08.86 1.08-.96 3.7-1.44 4.6-1.12 2.12-2.5 4.702-3.802 7.082 2.18-.02 3.2-1.86 4.28-3.36.36-.52 1.162.7.34 1.88z"/><path fill="#2B5672" d="M73.7 38.652l.36-.5c.54-.84 1.36-2.34 1.06-2.62-.34-.28-1.86.96-3.122 2.82-.82 1.2-1.7 2.74-1.46 3.04.18.22 1.18-.26 3.16-2.74m5.362 1.1c-.68 1-1.32 1.68-2.08 2.2-1 .66-2.54 1.22-3.98 1.762-1.12 1.7-2.622 4.18-3.402 5.12-.82 1-1.34.32-1.58 0-.38-.48-.12-1.5.44-2.6.58-1.12 1.24-1.94 2.64-2.76.08-.1.38-.48.72-.94-.54.12-1.12-.04-1.68-.62-1.3-1.3-.78-2.762.72-5.042.82-1.22 1.94-2.2 2.8-2.64.7-.38 1.2-.28 1.84.22.36.28.96.54.98 1.06.542.2 1.062.78.922 1.04-.2.44-2.44 4.02-3.36 5.44.36-.16.76-.36.88-.42.48-.22 1.38-.78 1.9-1.32.66-.7 1.32-1.54 1.8-2.2.24-.36 1.18.6.44 1.7"/><path fill="#FFF" d="M19.044 17.322l-2.933 7.124h5.78l-2.846-7.124zM18.494 16H19.7L25 29h-1.316l-1.367-3.452H15.65L14.226 29H13l5.493-13zM33.92 24.316c0-.46-.088-.895-.268-1.302-.18-.407-.422-.758-.725-1.056a3.433 3.433 0 0 0-2.408-.974 3.445 3.445 0 0 0-2.408.974c-.305.298-.547.65-.727 1.056-.18.407-.27.84-.27 1.302 0 .46.09.895.27 1.302.18.405.422.758.726 1.055.304.298.664.533 1.08.71.414.176.858.264 1.33.264.47 0 .913-.088 1.328-.265a3.43 3.43 0 0 0 1.08-.71c.302-.296.544-.65.724-1.054.18-.407.27-.84.27-1.302zM35 28.084c0 1.044-.155 1.888-.465 2.53-.31.643-.697 1.14-1.162 1.494a3.888 3.888 0 0 1-1.496.71 6.61 6.61 0 0 1-1.45.182 6.81 6.81 0 0 1-1.275-.118 6.258 6.258 0 0 1-1.18-.346 4.847 4.847 0 0 1-1.014-.557 4.004 4.004 0 0 1-.79-.746l.873-.8c.398.545.894.945 1.49 1.2a4.766 4.766 0 0 0 1.896.382c.57 0 1.05-.072 1.44-.22a2.86 2.86 0 0 0 .968-.57c.254-.238.452-.5.595-.784.14-.286.247-.57.315-.856.068-.285.11-.555.12-.81.013-.256.02-.46.02-.62v-1.164h-.038c-.322.51-.76.91-1.31 1.202-.552.29-1.2.437-1.944.437a4.735 4.735 0 0 1-1.785-.336 4.595 4.595 0 0 1-1.46-.93 4.44 4.44 0 0 1-.984-1.374A3.914 3.914 0 0 1 26 24.316c0-.595.12-1.154.364-1.675.24-.52.57-.976.984-1.366a4.816 4.816 0 0 1 1.46-.928A4.645 4.645 0 0 1 30.593 20c.744 0 1.392.147 1.943.438.552.29.99.692 1.31 1.202h.038v-1.422H35v7.866z"/></g></svg>