<svg width="104px" height="127px" viewBox="0 0 104 127" fill-rule="evenodd">
    <path class="c1" d="M51.5,121 C74.4202295,121 93,122.343571 93,124 C93,125.656429 74.4202295,127 51.5,127 C28.5797705,127 10,125.656429 10,124 C10,122.343571 28.5797705,121 51.5,121"/>
    <path class="c2" d="M93,94 L93,104 L11,104 L11,94 L1,94 L1,7.27974277 C1,3.79099678 3.7890625,1 7.27539063,1 L96.7246094,1 C100.210938,1 103,3.79099678 103,7.27974277 L103,94 L102.900391,94 L93,94 L93,94 Z"/>
    <path class="c3" d="M89.3824561,68 L14.6175439,68 C12.0631579,68 10,65.8892675 10,63.2759796 L10,13.7240204 C10,11.1107325 12.0631579,9 14.6175439,9 L89.3824561,9 C91.9368421,9 94,11.1107325 94,13.7240204 L94,63.1754685 C94,65.8892675 91.9368421,68 89.3824561,68"/>
    <path class="c4" d="M87.0671141,66 C89.7852349,65.7989031 92,63.4862888 92,60.6709324 L92,16.3290676 C92,12.7093236 89.5838926,11 86.6644295,11 L32,11 C50.3221477,29.2998172 68.6442953,47.7001828 87.0671141,66"/>
    <path class="c5" d="M16,18 L22,18 L22,24 L16,24 L16,18 Z"/>
    <path class="c5" d="M16,28 L22,28 L22,34 L16,34 L16,28 Z"/>
    <path class="c5" d="M16,38 L22,38 L22,44 L16,44 L16,38 Z"/>
    <path class="c5" d="M16,48 L22,48 L22,54 L16,54 L16,48 Z"/>
    <path class="c9" d="M13,79 L22,79 L22,82 L13,82 L13,79 Z"/>
    <path class="c9" d="M58,79 L91,79 L91,82 L58,82 L58,79 Z"/>
    <path class="c9" d="M93,94.023915 L11,94.023915 L11,99 L93,96.1291817 C93,96.1291817 92.800729,93.7368331 93,94.023915"/>
</svg>