<svg xmlns="http://www.w3.org/2000/svg" width="50" height="62" viewBox="0 0 50 62"><g fill="none" fill-rule="evenodd"><path fill="#DBE3E9" d="M24.895 57c-7.72 0-14 .897-14 2s6.28 2 14 2 14-.897 14-2-6.28-2-14-2"/><path fill="#D3EDFF" d="M25 1C11.745 1 1 11.745 1 25s10.745 24 24 24c.814 0 1.62-.042 2.412-.12 9.344-.933 17.108-7.226 20.176-15.76A23.956 23.956 0 0 0 49 25C49 11.745 38.255 1 25 1"/><path fill="#3899EC" d="M22.215 15.5c-.622 0-1.25.053-1.866.157-5.375.912-8.915 5.552-7.892 10.343.37 1.727 1.294 3.293 2.677 4.544l.075 3.466a.5.5 0 0 0 .29.428.605.605 0 0 0 .27.062c.1 0 .2-.023.29-.07l3.128-1.666a11.07 11.07 0 0 0 4.874.27c2.603-.442 4.858-1.76 6.35-3.715 1.49-1.955 2.04-4.308 1.54-6.628-.89-4.167-4.985-7.192-9.737-7.192M37.847 20.817l-.025-.104-.958.25.026.102c.062.244.123.487.17.736.435 2.307.262 4.71-.5 6.95l.934.325a14.773 14.773 0 0 0 .538-7.463c-.05-.27-.12-.533-.185-.795M34.34 22.892a10.72 10.72 0 0 1-.2 3.998l.96.238c.345-1.425.42-2.897.22-4.373l-.98.137"/></g></svg>