<svg width="50px" height="62px" viewBox="0 0 50 62" version="1.1" xmlns="http://www.w3.org/2000/svg" xmlns:xlink="http://www.w3.org/1999/xlink">
  <g stroke="none" stroke-width="1" fill="none" fill-rule="evenodd">
    <path d="M25.001,57 C17.281,57 11,57.897 11,59 C11,60.103 17.281,61 25.001,61 C32.72,61 39.001,60.103 39.001,59 C39.001,57.897 32.72,57 25.001,57" fill="#DBE3E9"></path>
    <path d="M25,1 C11.745,1 1,11.745 1,25 C1,38.255 11.745,49 25,49 C25.814,49 26.619,48.958 27.412,48.879 C36.756,47.947 44.52,41.654 47.588,33.121 C48.5,30.584 49,27.851 49,25 C49,11.745 38.255,1 25,1" fill="#D3EDFF"></path>
    <path d="M37.341,16.518 C36.44,16.945 35.471,17.235 34.454,17.364 C35.492,16.7 36.289,15.647 36.664,14.393 C35.693,15.009 34.617,15.455 33.472,15.696 C32.555,14.653 31.249,14 29.803,14 C27.026,14 24.775,16.405 24.775,19.371 C24.775,19.791 24.82,20.201 24.905,20.594 C20.727,20.371 17.023,18.232 14.543,14.983 C14.11,15.776 13.862,16.699 13.862,17.683 C13.862,19.546 13.839,21.19 15.188,22.153 C14.364,22.125 13,21.884 12,21.481 L12,21.549 C12,24.151 14.644,26.321 16.944,26.815 C16.522,26.937 16.533,27.003 16.074,27.003 C15.751,27.003 15.664,26.969 15.356,26.907 C15.996,29.04 17.966,30.593 20.166,30.636 C18.446,32.077 16.335,32.935 13.979,32.935 C13.573,32.935 13.202,32.91 12.809,32.86 C15.034,34.384 17.69,35.273 20.53,35.273 C29.777,35.273 34.84,27.09 34.84,19.993 C34.84,19.76 34.839,19.529 34.829,19.298 C35.812,18.541 36.667,17.596 37.341,16.518" fill="#3899EC"></path>
  </g>
</svg>