<svg width="50px" height="62px" viewBox="0 0 50 62" version="1.1" xmlns="http://www.w3.org/2000/svg" xmlns:xlink="http://www.w3.org/1999/xlink">
  <g id="Page-1" stroke="none" stroke-width="1" fill="none" fill-rule="evenodd">
    <path d="M47.8419464,17.6567819 C43.7860213,5.04049246 30.2706032,-1.89801683 17.6559463,2.15811173 C5.04028978,6.21524007 -1.89787145,19.7303364 2.15805364,32.3466258 C2.40698766,33.1214594 2.69291189,33.8742976 3.01082763,34.6051406 C6.75783459,43.2132912 15.1226177,48.6771173 24.1832165,48.9860509 C26.8765027,49.0780312 29.6317725,48.7171087 32.3440537,47.8442962 C44.9597102,43.7881677 51.8978715,30.2720716 47.8419464,17.6567819" fill="#D3EDFF"></path>
    <path d="M25,57 C17.28,57 11,57.898 11,59 C11,60.103 17.28,61 25,61 C32.72,61 39,60.103 39,59 C39,57.898 32.72,57 25,57" fill="#DBE3E9"></path>
    <path d="M33,30.9998426 L17,30.9998426 C15.9,30.9998426 15,30.0998426 15,28.9998426 L15,18.9998426 C15,17.8998426 15.9,16.9998426 17,16.9998426 L33,16.9998426 C34.1,16.9998426 35,17.8998426 35,18.9998426 L35,28.9998426 C35,30.0998426 34.1,30.9998426 33,30.9998426" fill="#3899EC"></path>
    <path d="M39.291,16.9808426 C39.516,16.8198426 39.567,16.5078426 39.407,16.2818426 C39.246,16.0568426 38.935,16.0068426 38.709,16.1658426 L25,25.9588426 L11.291,16.1658426 C11.065,16.0068426 10.754,16.0588426 10.593,16.2818426 C10.433,16.5078426 10.484,16.8198426 10.709,16.9808426 L20.145,23.7208426 L10.647,33.2198426 L11.353,33.9268426 L20.97,24.3098426 L24.709,26.9808426 C24.796,27.0418426 24.898,27.0738426 25,27.0738426 C25.102,27.0738426 25.204,27.0418426 25.291,26.9808426 L29.03,24.3098426 L38.647,33.9268426 L39.353,33.2198426 L29.855,23.7208426 L39.291,16.9808426" fill="#D3EDFF"></path>
  </g>
</svg>