<svg xmlns="http://www.w3.org/2000/svg" width="50" height="62" viewBox="0 0 50 62"><g fill="none" fill-rule="evenodd"><path fill="#D3EDFF" d="M47.842 17.657C43.786 5.04 30.272-1.898 17.656 2.157 5.04 6.216-1.898 19.73 2.158 32.348c.25.774.535 1.527.853 2.258 3.748 8.608 12.113 14.072 21.173 14.38 2.694.093 5.45-.268 8.16-1.14C44.96 43.787 51.9 30.27 47.844 17.656"/><path fill="#DBE3E9" d="M25 57c-7.72 0-14 .898-14 2 0 1.103 6.28 2 14 2s14-.897 14-2c0-1.102-6.28-2-14-2"/><path fill="#3899EC" d="M33 31H17c-1.1 0-2-.9-2-2V19c0-1.1.9-2 2-2h16c1.1 0 2 .9 2 2v10c0 1.1-.9 2-2 2"/><path fill="#D3EDFF" d="M39.29 16.98a.502.502 0 0 0-.58-.814L25 25.96l-13.71-9.794a.502.502 0 0 0-.582.815l9.437 6.74-9.498 9.5.706.707 9.617-9.617 3.74 2.67a.508.508 0 0 0 .58 0l3.74-2.67 9.617 9.617.706-.707-9.498-9.5 9.436-6.74"/></g></svg>