<svg width="50px" height="62px" viewBox="0 0 50 62" version="1.1" xmlns="http://www.w3.org/2000/svg" xmlns:xlink="http://www.w3.org/1999/xlink">
  <g stroke="none" stroke-width="1" fill="none" fill-rule="evenodd">
    <path d="M25,57 C17.28,57 11,57.897 11,59 C11,60.103 17.28,61 25,61 C32.72,61 39,60.103 39,59 C39,57.897 32.72,57 25,57" fill="#DBE3E9"></path>
    <path d="M46.716,14.77 C45.567,12.331 43.987,10.045 41.972,8.029 C32.599,-1.343 17.403,-1.343 8.03,8.029 C-1.342,17.402 -1.342,32.598 8.03,41.97 C17.403,51.343 32.599,51.343 41.972,41.97 C42.547,41.395 43.087,40.797 43.592,40.18 C49.54,32.913 50.58,22.974 46.716,14.77" fill="#D3EDFF"></path>
    <path d="M21,36 L21,26 L17,26 L17,22 L21,22 L21,18.723 C21,16.209 23.49,13.9 27.399,13.9 C28.982,13.9 30.549,14.045 30.549,14.045 L30.655,17.544 C30.655,17.544 29.2,17.533 27.897,17.533 C26.488,17.533 26,18.155 26,19.188 C26,20.005 26,16 26,22 L30.966,22 L30.781,26 L26,26 L26,36 L21,36" fill="#3899EC"></path>
  </g>
</svg>