<svg xmlns="http://www.w3.org/2000/svg" width="50" height="62" viewBox="0 0 50 62"><g fill="none" fill-rule="evenodd"><path fill="#DBE3E9" d="M25 57c-7.72 0-14 .897-14 2s6.28 2 14 2 14-.897 14-2-6.28-2-14-2"/><path fill="#D3EDFF" d="M25 1C11.745 1 1 11.745 1 25s10.745 24 24 24c.814 0 1.62-.042 2.412-.12 9.344-.933 17.108-7.226 20.176-15.76A23.956 23.956 0 0 0 49 25C49 11.745 38.255 1 25 1"/><path fill="#3899EC" d="M37.34 16.518c-.9.427-1.87.717-2.886.846a5.334 5.334 0 0 0 2.21-2.97 9.672 9.672 0 0 1-3.192 1.302C32.555 14.653 31.25 14 29.802 14c-2.776 0-5.027 2.405-5.027 5.37 0 .42.045.83.13 1.224-4.178-.223-7.882-2.362-10.362-5.61a5.625 5.625 0 0 0-.68 2.7c0 1.862-.024 3.506 1.325 4.47-.824-.03-2.188-.27-3.188-.673v.07c0 2.6 2.644 4.77 4.944 5.265-.422.122-.41.188-.87.188-.323 0-.41-.034-.718-.096.64 2.133 2.61 3.686 4.81 3.73-1.72 1.44-3.83 2.298-6.187 2.298a9.04 9.04 0 0 1-1.17-.075c2.224 1.524 4.88 2.413 7.72 2.413 9.247 0 14.31-8.183 14.31-15.28 0-.233 0-.464-.01-.695a10.61 10.61 0 0 0 2.51-2.78"/></g></svg>