<svg width="50px" height="62px" viewBox="0 0 50 62" version="1.1" xmlns="http://www.w3.org/2000/svg" xmlns:xlink="http://www.w3.org/1999/xlink">
  <g stroke="none" stroke-width="1" fill="none" fill-rule="evenodd">
    <path d="M24.895,57 C17.176,57 10.895,57.897 10.895,59 C10.895,60.103 17.176,61 24.895,61 C32.615,61 38.895,60.103 38.895,59 C38.895,57.897 32.615,57 24.895,57" fill="#DBE3E9"></path>
    <path d="M25,1 C11.745,1 1,11.745 1,25 C1,38.255 11.745,49 25,49 C25.814,49 26.619,48.958 27.412,48.879 C36.756,47.947 44.52,41.654 47.588,33.121 C48.5,30.584 49,27.851 49,25 C49,11.745 38.255,1 25,1" fill="#D3EDFF"></path>
    <path d="M22.215,15.5 C21.593,15.5 20.966,15.553 20.349,15.657 C14.975,16.569 11.435,21.209 12.458,26 C12.827,27.727 13.752,29.293 15.135,30.544 L15.21,34.01 C15.215,34.188 15.325,34.351 15.5,34.438 C15.584,34.48 15.677,34.5 15.771,34.5 C15.871,34.5 15.971,34.477 16.059,34.43 L19.188,32.764 C20.765,33.216 22.44,33.307 24.062,33.034 C26.665,32.592 28.92,31.273 30.411,29.319 C31.902,27.365 32.451,25.012 31.953,22.692 C31.063,18.525 26.967,15.5 22.215,15.5" fill="#3899EC"></path>
    <path d="M37.847,20.817 L37.822,20.713 L36.864,20.962 L36.89,21.065 C36.952,21.309 37.013,21.552 37.061,21.801 C37.495,24.107 37.322,26.51 36.559,28.75 L37.494,29.075 C38.311,26.672 38.497,24.092 38.032,21.612 C37.981,21.342 37.913,21.079 37.847,20.817" fill="#3899EC"></path>
    <path d="M34.341,22.892 C34.525,24.242 34.456,25.586 34.139,26.89 L35.099,27.128 C35.445,25.703 35.519,24.231 35.319,22.755 L34.341,22.892" fill="#3899EC"></path>
  </g>
</svg>