<svg xmlns="http://www.w3.org/2000/svg" width="50" height="62" viewBox="0 0 50 62"><g fill="none" fill-rule="evenodd"><path fill="#DBE3E9" d="M25 57c-7.72 0-14 .897-14 2s6.28 2 14 2 14-.897 14-2-6.28-2-14-2"/><path fill="#D3EDFF" d="M46.716 14.77a23.974 23.974 0 0 0-4.744-6.74c-9.373-9.373-24.57-9.373-33.942 0-9.372 9.372-9.372 24.568 0 33.94 9.373 9.373 24.57 9.373 33.942 0a24.275 24.275 0 0 0 1.62-1.79c5.948-7.267 6.988-17.206 3.124-25.41"/><path fill="#3899EC" d="M21 36V26h-4v-4h4v-3.277c0-2.514 2.49-4.823 6.4-4.823 1.582 0 3.15.145 3.15.145l.105 3.5s-1.455-.012-2.758-.012c-1.41 0-1.897.622-1.897 1.655V22h4.966l-.185 4H26v10h-5"/></g></svg>