<svg xmlns="http://www.w3.org/2000/svg" width="72" height="72" preserveAspectRatio="xMidYMid" viewBox="0 0 72 72"><g fill-rule="evenodd"><path d="M16.5 12.5h40a4 4 0 0 1 4 4v40a4 4 0 0 1-4 4h-40a4 4 0 0 1-4-4v-40a4 4 0 0 1 4-4z" class="cls-4"/><path d="M12 24v-8a4 4 0 0 1 4-4h40a4 4 0 0 1 4 4v8M50 36H18a1 1 0 0 1 0-2h32a1 1 0 0 1 0 2zm-16-6H18a1 1 0 0 1 0-2h16a1 1 0 0 1 0 2zM18 40h24a1 1 0 0 1 0 2H18a1 1 0 0 1 0-2zm0 6h28a1 1 0 0 1 0 2H18a1 1 0 0 1 0-2zm0 6h18a1 1 0 0 1 0 2H18a1 1 0 0 1 0-2z" class="cls-5"/><path d="M55.988 16H50.01L53 20 55.988 16z" class="cls-7"/><path d="M18 17h19a1 1 0 0 1 0 2H18a1 1 0 0 1 0-2z" class="cls-8"/></g></svg>