<svg xmlns="http://www.w3.org/2000/svg" xmlns:xlink="http://www.w3.org/1999/xlink" preserveAspectRatio="xMidYMid" width="72" height="72" viewBox="0 0 72 72">
  
  <g id="archive1">
    <path d="M55.500,38.000 C55.500,38.000 54.500,38.000 54.500,38.000 C53.672,38.000 53.000,37.328 53.000,36.500 C53.000,35.672 53.672,35.000 54.500,35.000 C54.500,35.000 55.500,35.000 55.500,35.000 C56.328,35.000 57.000,35.672 57.000,36.500 C57.000,37.328 56.328,38.000 55.500,38.000 ZM53.500,15.000 C53.500,15.000 52.500,15.000 52.500,15.000 C51.672,15.000 51.000,14.328 51.000,13.500 C51.000,12.672 51.672,12.000 52.500,12.000 C52.500,12.000 53.500,12.000 53.500,12.000 C54.328,12.000 55.000,12.672 55.000,13.500 C55.000,14.328 54.328,15.000 53.500,15.000 ZM53.000,24.500 C53.000,25.328 52.328,26.000 51.500,26.000 C51.500,26.000 50.500,26.000 50.500,26.000 C49.672,26.000 49.000,25.328 49.000,24.500 C49.000,23.672 49.672,23.000 50.500,23.000 C50.500,23.000 51.500,23.000 51.500,23.000 C52.328,23.000 53.000,23.672 53.000,24.500 ZM50.000,36.500 C50.000,37.328 49.328,38.000 48.500,38.000 C48.500,38.000 13.500,38.000 13.500,38.000 C12.672,38.000 12.000,37.328 12.000,36.500 C12.000,35.672 12.672,35.000 13.500,35.000 C13.500,35.000 48.500,35.000 48.500,35.000 C49.328,35.000 50.000,35.672 50.000,36.500 ZM13.500,23.000 C13.500,23.000 44.500,23.000 44.500,23.000 C45.328,23.000 46.000,23.672 46.000,24.500 C46.000,25.328 45.328,26.000 44.500,26.000 C44.500,26.000 13.500,26.000 13.500,26.000 C12.672,26.000 12.000,25.328 12.000,24.500 C12.000,23.672 12.672,23.000 13.500,23.000 ZM46.500,15.000 C46.500,15.000 13.500,15.000 13.500,15.000 C12.672,15.000 12.000,14.328 12.000,13.500 C12.000,12.672 12.672,12.000 13.500,12.000 C13.500,12.000 46.500,12.000 46.500,12.000 C47.328,12.000 48.000,12.672 48.000,13.500 C48.000,14.328 47.328,15.000 46.500,15.000 ZM13.500,46.000 C13.500,46.000 40.500,46.000 40.500,46.000 C41.328,46.000 42.000,46.672 42.000,47.500 C42.000,48.328 41.328,49.000 40.500,49.000 C40.500,49.000 13.500,49.000 13.500,49.000 C12.672,49.000 12.000,48.328 12.000,47.500 C12.000,46.672 12.672,46.000 13.500,46.000 ZM13.500,57.000 C13.500,57.000 34.500,57.000 34.500,57.000 C35.328,57.000 36.000,57.672 36.000,58.500 C36.000,59.328 35.328,60.000 34.500,60.000 C34.500,60.000 13.500,60.000 13.500,60.000 C12.672,60.000 12.000,59.328 12.000,58.500 C12.000,57.672 12.672,57.000 13.500,57.000 ZM40.500,57.000 C40.500,57.000 41.500,57.000 41.500,57.000 C42.328,57.000 43.000,57.672 43.000,58.500 C43.000,59.328 42.328,60.000 41.500,60.000 C41.500,60.000 40.500,60.000 40.500,60.000 C39.672,60.000 39.000,59.328 39.000,58.500 C39.000,57.672 39.672,57.000 40.500,57.000 ZM46.500,46.000 C46.500,46.000 47.500,46.000 47.500,46.000 C48.328,46.000 49.000,46.672 49.000,47.500 C49.000,48.328 48.328,49.000 47.500,49.000 C47.500,49.000 46.500,49.000 46.500,49.000 C45.672,49.000 45.000,48.328 45.000,47.500 C45.000,46.672 45.672,46.000 46.500,46.000 Z" id="path-1" class="cls-4" fill-rule="evenodd"/>
  </g>
</svg>
