<svg xmlns="http://www.w3.org/2000/svg" xmlns:xlink="http://www.w3.org/1999/xlink" preserveAspectRatio="xMidYMid" width="72" height="72" viewBox="0 0 72 72">
  
  <g id="group-1">
      <path d="M16.500,12.500 C16.500,12.500 56.500,12.500 56.500,12.500 C58.709,12.500 60.500,14.291 60.500,16.500 C60.500,16.500 60.500,56.500 60.500,56.500 C60.500,58.709 58.709,60.500 56.500,60.500 C56.500,60.500 16.500,60.500 16.500,60.500 C14.291,60.500 12.500,58.709 12.500,56.500 C12.500,56.500 12.500,16.500 12.500,16.500 C12.500,14.291 14.291,12.500 16.500,12.500 Z" id="path-1" class="cls-4" fill-rule="evenodd"/>
      <path d="M12.000,24.000 C12.000,24.000 12.000,16.000 12.000,16.000 C12.000,13.791 13.791,12.000 16.000,12.000 C16.000,12.000 56.000,12.000 56.000,12.000 C58.209,12.000 60.000,13.791 60.000,16.000 C60.000,16.000 60.000,24.000 60.000,24.000 " id="path-2" class="cls-5" fill-rule="evenodd"/>
      <path d="M50.000,36.000 C50.000,36.000 18.000,36.000 18.000,36.000 C17.448,36.000 17.000,35.552 17.000,35.000 C17.000,34.448 17.448,34.000 18.000,34.000 C18.000,34.000 50.000,34.000 50.000,34.000 C50.552,34.000 51.000,34.448 51.000,35.000 C51.000,35.552 50.552,36.000 50.000,36.000 ZM34.000,30.000 C34.000,30.000 18.000,30.000 18.000,30.000 C17.448,30.000 17.000,29.552 17.000,29.000 C17.000,28.448 17.448,28.000 18.000,28.000 C18.000,28.000 34.000,28.000 34.000,28.000 C34.552,28.000 35.000,28.448 35.000,29.000 C35.000,29.552 34.552,30.000 34.000,30.000 ZM18.000,40.000 C18.000,40.000 42.000,40.000 42.000,40.000 C42.552,40.000 43.000,40.448 43.000,41.000 C43.000,41.552 42.552,42.000 42.000,42.000 C42.000,42.000 18.000,42.000 18.000,42.000 C17.448,42.000 17.000,41.552 17.000,41.000 C17.000,40.448 17.448,40.000 18.000,40.000 ZM18.000,46.000 C18.000,46.000 46.000,46.000 46.000,46.000 C46.552,46.000 47.000,46.448 47.000,47.000 C47.000,47.552 46.552,48.000 46.000,48.000 C46.000,48.000 18.000,48.000 18.000,48.000 C17.448,48.000 17.000,47.552 17.000,47.000 C17.000,46.448 17.448,46.000 18.000,46.000 ZM18.000,52.000 C18.000,52.000 36.000,52.000 36.000,52.000 C36.552,52.000 37.000,52.448 37.000,53.000 C37.000,53.552 36.552,54.000 36.000,54.000 C36.000,54.000 18.000,54.000 18.000,54.000 C17.448,54.000 17.000,53.552 17.000,53.000 C17.000,52.448 17.448,52.000 18.000,52.000 Z" id="path-3" class="cls-5" fill-rule="evenodd"/>
      <path d="M55.988,15.999 C55.988,15.999 50.011,15.999 50.011,15.999 C50.011,15.999 53.000,20.002 53.000,20.002 C53.000,20.002 55.988,15.999 55.988,15.999 Z" id="path-4" class="cls-7" fill-rule="evenodd"/>
      <path d="M18.000,17.000 C18.000,17.000 37.000,17.000 37.000,17.000 C37.552,17.000 38.000,17.448 38.000,18.000 C38.000,18.552 37.552,19.000 37.000,19.000 C37.000,19.000 18.000,19.000 18.000,19.000 C17.448,19.000 17.000,18.552 17.000,18.000 C17.000,17.448 17.448,17.000 18.000,17.000 Z" id="path-5" class="cls-8" fill-rule="evenodd"/>
    </g>
</svg>
