<svg xmlns="http://www.w3.org/2000/svg" width="72" height="72" preserveAspectRatio="xMidYMid" viewBox="0 0 72 72"><path fill-rule="evenodd" d="M55.5 38h-1a1.5 1.5 0 0 1 0-3h1a1.5 1.5 0 0 1 0 3zm-2-23h-1a1.5 1.5 0 0 1 0-3h1a1.5 1.5 0 0 1 0 3zm-.5 9.5a1.5 1.5 0 0 1-1.5 1.5h-1a1.5 1.5 0 0 1 0-3h1a1.5 1.5 0 0 1 1.5 1.5zm-3 12a1.5 1.5 0 0 1-1.5 1.5h-35a1.5 1.5 0 0 1 0-3h35a1.5 1.5 0 0 1 1.5 1.5zM13.5 23h31a1.5 1.5 0 0 1 0 3h-31a1.5 1.5 0 0 1 0-3zm33-8h-33a1.5 1.5 0 0 1 0-3h33a1.5 1.5 0 0 1 0 3zm-33 31h27a1.5 1.5 0 0 1 0 3h-27a1.5 1.5 0 0 1 0-3zm0 11h21a1.5 1.5 0 0 1 0 3h-21a1.5 1.5 0 0 1 0-3zm27 0h1a1.5 1.5 0 0 1 0 3h-1a1.5 1.5 0 0 1 0-3zm6-11h1a1.5 1.5 0 0 1 0 3h-1a1.5 1.5 0 0 1 0-3z" class="cls-4"/></svg>