<svg xmlns="http://www.w3.org/2000/svg" xmlns:xlink="http://www.w3.org/1999/xlink" preserveAspectRatio="xMidYMid" width="72" height="72" viewBox="0 0 72 72">
  
  <g id="defaultsvg">
    <g id="illustration">
      <path d="M34.500,4.500 C34.500,4.500 34.500,22.500 34.500,22.500 C34.500,23.605 33.605,24.500 32.500,24.500 C32.500,24.500 8.500,24.500 8.500,24.500 C7.395,24.500 6.500,23.605 6.500,22.500 C6.500,22.500 6.500,5.500 6.500,5.500 " id="path-1" class="cls-5" fill-rule="evenodd"/>
      <g id="image">
        <path d="M30.000,4.000 C30.000,4.000 30.000,8.000 30.000,8.000 C30.000,9.105 29.105,10.000 28.000,10.000 C28.000,10.000 12.000,10.000 12.000,10.000 C10.895,10.000 10.000,9.105 10.000,8.000 C10.000,8.000 10.000,4.000 10.000,4.000 " id="path-2" class="cls-7" fill-rule="evenodd"/>
        <path d="M18.966,7.990 C18.966,7.990 23.000,4.000 23.000,4.000 C23.000,4.000 24.542,4.000 25.000,4.000 C25.438,4.000 26.000,4.000 26.000,4.000 C26.000,4.000 27.145,5.870 28.739,7.464 C28.746,7.470 28.740,8.963 28.740,8.963 C28.740,8.963 19.265,8.886 19.265,8.886 C19.265,8.886 18.966,7.990 18.966,7.990 Z" id="path-3" class="cls-8" fill-rule="evenodd"/>
        <path d="M15.000,4.000 C15.000,4.000 20.073,3.910 20.099,3.936 C22.039,5.876 25.126,8.963 25.126,8.963 C25.126,8.963 11.670,8.963 11.670,8.963 C11.670,8.963 11.386,8.841 11.306,8.598 C11.206,8.300 11.306,7.869 11.306,7.869 C11.306,7.869 13.459,5.548 14.959,3.931 " id="path-4" class="cls-9" fill-rule="evenodd"/>
      </g>
      <path d="M22.000,18.000 C22.000,18.000 29.000,18.000 29.000,18.000 C29.552,18.000 30.000,18.448 30.000,19.000 C30.000,19.552 29.552,20.000 29.000,20.000 C29.000,20.000 22.000,20.000 22.000,20.000 C21.448,20.000 21.000,19.552 21.000,19.000 C21.000,18.448 21.448,18.000 22.000,18.000 Z" id="path-5" class="cls-7" fill-rule="evenodd"/>
      <path d="M10.000,13.000 C10.000,13.000 10.000,12.000 10.000,12.000 C10.000,12.000 30.000,12.000 30.000,12.000 C30.000,12.000 30.000,13.000 30.000,13.000 C30.000,13.000 10.000,13.000 10.000,13.000 ZM19.000,16.000 C19.000,16.000 10.000,16.000 10.000,16.000 C10.000,16.000 10.000,15.000 10.000,15.000 C10.000,15.000 19.000,15.000 19.000,15.000 C19.000,15.000 19.000,16.000 19.000,16.000 Z" id="path-6" class="cls-7" fill-rule="evenodd"/>
      <path d="M8.500,28.500 C8.500,28.500 32.500,28.500 32.500,28.500 C33.605,28.500 34.500,29.395 34.500,30.500 C34.500,30.500 34.500,64.500 34.500,64.500 C34.500,65.605 33.605,66.500 32.500,66.500 C32.500,66.500 8.500,66.500 8.500,66.500 C7.395,66.500 6.500,65.605 6.500,64.500 C6.500,64.500 6.500,30.500 6.500,30.500 C6.500,29.395 7.395,28.500 8.500,28.500 Z" id="path-7" class="cls-5" fill-rule="evenodd"/>
      <path d="M12.000,36.000 C12.000,36.000 28.000,36.000 28.000,36.000 C29.105,36.000 30.000,36.895 30.000,38.000 C30.000,38.000 30.000,50.000 30.000,50.000 C30.000,51.105 29.105,52.000 28.000,52.000 C28.000,52.000 12.000,52.000 12.000,52.000 C10.895,52.000 10.000,51.105 10.000,50.000 C10.000,50.000 10.000,38.000 10.000,38.000 C10.000,36.895 10.895,36.000 12.000,36.000 Z" id="path-8" class="cls-7" fill-rule="evenodd"/>
      <circle id="circle-1" class="cls-9" cx="20" cy="44" r="5"/>
      <path d="M18.999,41.012 C18.999,41.012 18.999,46.989 18.999,46.989 C18.999,46.989 23.002,44.000 23.002,44.000 C23.002,44.000 18.999,41.012 18.999,41.012 Z" id="path-9" class="cls-7" fill-rule="evenodd"/>
      <path d="M11.000,32.000 C11.000,32.000 29.000,32.000 29.000,32.000 C29.552,32.000 30.000,32.448 30.000,33.000 C30.000,33.552 29.552,34.000 29.000,34.000 C29.000,34.000 11.000,34.000 11.000,34.000 C10.448,34.000 10.000,33.552 10.000,33.000 C10.000,32.448 10.448,32.000 11.000,32.000 Z" id="path-10" class="cls-7" fill-rule="evenodd"/>
      <path d="M22.000,60.000 C22.000,60.000 29.000,60.000 29.000,60.000 C29.552,60.000 30.000,60.448 30.000,61.000 C30.000,61.552 29.552,62.000 29.000,62.000 C29.000,62.000 22.000,62.000 22.000,62.000 C21.448,62.000 21.000,61.552 21.000,61.000 C21.000,60.448 21.448,60.000 22.000,60.000 Z" id="path-11" class="cls-7" fill-rule="evenodd"/>
      <path d="M10.000,55.000 C10.000,55.000 10.000,54.000 10.000,54.000 C10.000,54.000 30.000,54.000 30.000,54.000 C30.000,54.000 30.000,55.000 30.000,55.000 C30.000,55.000 10.000,55.000 10.000,55.000 ZM19.000,58.000 C19.000,58.000 10.000,58.000 10.000,58.000 C10.000,58.000 10.000,57.000 10.000,57.000 C10.000,57.000 19.000,57.000 19.000,57.000 C19.000,57.000 19.000,58.000 19.000,58.000 Z" id="path-12" class="cls-7" fill-rule="evenodd"/>
      <path d="M66.500,4.500 C66.500,4.500 66.500,8.500 66.500,8.500 C66.500,9.605 65.605,10.500 64.500,10.500 C64.500,10.500 40.500,10.500 40.500,10.500 C39.395,10.500 38.500,9.605 38.500,8.500 C38.500,8.500 38.500,4.500 38.500,4.500 " id="path-13" class="cls-5" fill-rule="evenodd"/>
      <path d="M54.000,4.000 C54.000,4.000 61.000,4.000 61.000,4.000 C61.552,4.000 62.000,4.448 62.000,5.000 C62.000,5.552 61.552,6.000 61.000,6.000 C61.000,6.000 54.000,6.000 54.000,6.000 C53.448,6.000 53.000,5.552 53.000,5.000 C53.000,4.448 53.448,4.000 54.000,4.000 Z" id="path-14" class="cls-7" fill-rule="evenodd"/>
      <path d="M40.500,14.500 C40.500,14.500 64.500,14.500 64.500,14.500 C65.605,14.500 66.500,15.395 66.500,16.500 C66.500,16.500 66.500,50.500 66.500,50.500 C66.500,51.605 65.605,52.500 64.500,52.500 C64.500,52.500 40.500,52.500 40.500,52.500 C39.395,52.500 38.500,51.605 38.500,50.500 C38.500,50.500 38.500,16.500 38.500,16.500 C38.500,15.395 39.395,14.500 40.500,14.500 Z" id="path-15" class="cls-5" fill-rule="evenodd"/>
      <g id="image-1">
        <path d="M44.000,22.000 C44.000,22.000 60.000,22.000 60.000,22.000 C61.105,22.000 62.000,22.895 62.000,24.000 C62.000,24.000 62.000,36.000 62.000,36.000 C62.000,37.105 61.105,38.000 60.000,38.000 C60.000,38.000 44.000,38.000 44.000,38.000 C42.895,38.000 42.000,37.105 42.000,36.000 C42.000,36.000 42.000,24.000 42.000,24.000 C42.000,22.895 42.895,22.000 44.000,22.000 Z" id="path-16" class="cls-7" fill-rule="evenodd"/>
        <path d="M51.053,36.279 C51.053,36.279 55.431,32.175 55.431,32.175 C55.431,32.175 55.832,31.901 56.251,31.901 C56.653,31.901 57.072,32.175 57.072,32.175 C57.072,32.175 58.540,34.338 59.999,35.797 C60.005,35.803 60.000,37.170 60.000,37.170 C60.000,37.170 51.327,37.100 51.327,37.100 C51.327,37.100 51.053,36.279 51.053,36.279 Z" id="path-17" class="cls-8" fill-rule="evenodd"/>
        <path d="M44.042,36.169 C44.042,36.169 48.684,31.164 48.684,31.164 C48.684,31.164 49.174,30.830 49.685,30.830 C50.175,30.830 50.686,31.164 50.686,31.164 C50.686,31.164 56.692,37.170 56.692,37.170 C56.692,37.170 44.375,37.170 44.375,37.170 C44.375,37.170 44.116,37.058 44.042,36.836 C43.951,36.563 44.042,36.169 44.042,36.169 Z" id="path-18" class="cls-9" fill-rule="evenodd"/>
        <circle id="circle-2" class="cls-9" cx="58" cy="26" r="2"/>
      </g>
      <path d="M43.000,18.000 C43.000,18.000 61.000,18.000 61.000,18.000 C61.552,18.000 62.000,18.448 62.000,19.000 C62.000,19.552 61.552,20.000 61.000,20.000 C61.000,20.000 43.000,20.000 43.000,20.000 C42.448,20.000 42.000,19.552 42.000,19.000 C42.000,18.448 42.448,18.000 43.000,18.000 Z" id="path-19" class="cls-7" fill-rule="evenodd"/>
      <path d="M54.000,46.000 C54.000,46.000 61.000,46.000 61.000,46.000 C61.552,46.000 62.000,46.448 62.000,47.000 C62.000,47.552 61.552,48.000 61.000,48.000 C61.000,48.000 54.000,48.000 54.000,48.000 C53.448,48.000 53.000,47.552 53.000,47.000 C53.000,46.448 53.448,46.000 54.000,46.000 Z" id="path-20" class="cls-7" fill-rule="evenodd"/>
      <path d="M42.000,41.000 C42.000,41.000 42.000,40.000 42.000,40.000 C42.000,40.000 62.000,40.000 62.000,40.000 C62.000,40.000 62.000,41.000 62.000,41.000 C62.000,41.000 42.000,41.000 42.000,41.000 ZM51.000,44.000 C51.000,44.000 42.000,44.000 42.000,44.000 C42.000,44.000 42.000,43.000 42.000,43.000 C42.000,43.000 51.000,43.000 51.000,43.000 C51.000,43.000 51.000,44.000 51.000,44.000 Z" id="path-21" class="cls-7" fill-rule="evenodd"/>
      <path d="M38.500,66.500 C38.500,66.500 38.500,58.500 38.500,58.500 C38.500,57.395 39.395,56.500 40.500,56.500 C40.500,56.500 64.500,56.500 64.500,56.500 C65.605,56.500 66.500,57.395 66.500,58.500 C66.500,58.500 66.500,65.500 66.500,65.500 " id="path-22" class="cls-5" fill-rule="evenodd"/>
      <path d="M53.000,68.000 C53.025,68.000 42.000,68.104 42.000,68.000 C42.000,68.000 42.000,66.000 42.000,66.000 C42.000,64.895 42.895,64.000 44.000,64.000 C44.000,64.000 60.000,64.000 60.000,64.000 C61.105,64.000 62.000,64.895 62.000,66.000 C62.000,66.000 62.000,68.000 62.000,68.000 " id="path-23" class="cls-7" fill-rule="evenodd"/>
      <path d="M58.000,66.000 C59.105,66.000 60.000,66.895 60.000,68.000 C60.000,68.014 59.105,68.000 58.000,68.000 C56.895,68.000 56.000,68.147 56.000,68.000 C56.000,66.895 56.895,66.000 58.000,66.000 Z" id="path-24" class="cls-9" fill-rule="evenodd"/>
      <path d="M43.000,60.000 C43.000,60.000 61.000,60.000 61.000,60.000 C61.552,60.000 62.000,60.448 62.000,61.000 C62.000,61.552 61.552,62.000 61.000,62.000 C61.000,62.000 43.000,62.000 43.000,62.000 C42.448,62.000 42.000,61.552 42.000,61.000 C42.000,60.448 42.448,60.000 43.000,60.000 Z" id="path-25" class="cls-7" fill-rule="evenodd"/>
    </g>
  </g>
</svg>
