<svg xmlns="http://www.w3.org/2000/svg" width="72" height="72" preserveAspectRatio="xMidYMid" viewBox="0 0 72 72"><path fill-rule="evenodd" d="M34.5 4.5v18a2 2 0 0 1-2 2h-24a2 2 0 0 1-2-2v-17" class="cls-5"/><g fill-rule="evenodd"><path d="M30 4v4a2 2 0 0 1-2 2H12a2 2 0 0 1-2-2V4" class="cls-7"/><path d="M18.966 7.99L23 4h3s1.145 1.87 2.74 3.464c.006.006 0 1.5 0 1.5l-9.475-.078-.3-.896z" class="cls-8"/><path d="M15 4s5.073-.09 5.1-.064l5.026 5.027H11.67s-.284-.122-.364-.365c-.1-.298 0-.73 0-.73l3.653-3.937" class="cls-9"/></g><path fill-rule="evenodd" d="M22 18h7a1 1 0 0 1 0 2h-7a1 1 0 0 1 0-2zM10 13v-1h20v1H10zm9 3h-9v-1h9v1z" class="cls-7"/><path fill-rule="evenodd" d="M8.5 28.5h24a2 2 0 0 1 2 2v34a2 2 0 0 1-2 2h-24a2 2 0 0 1-2-2v-34a2 2 0 0 1 2-2z" class="cls-5"/><path fill-rule="evenodd" d="M12 36h16a2 2 0 0 1 2 2v12a2 2 0 0 1-2 2H12a2 2 0 0 1-2-2V38a2 2 0 0 1 2-2z" class="cls-7"/><circle cx="20" cy="44" r="5" class="cls-9"/><path fill-rule="evenodd" d="M19 41.012v5.977L23 44 19 41.012zM11 32h18a1 1 0 0 1 0 2H11a1 1 0 0 1 0-2zM22 60h7a1 1 0 0 1 0 2h-7a1 1 0 0 1 0-2zM10 55v-1h20v1H10zm9 3h-9v-1h9v1z" class="cls-7"/><path fill-rule="evenodd" d="M66.5 4.5v4a2 2 0 0 1-2 2h-24a2 2 0 0 1-2-2v-4" class="cls-5"/><path fill-rule="evenodd" d="M54 4h7a1 1 0 0 1 0 2h-7a1 1 0 0 1 0-2z" class="cls-7"/><path fill-rule="evenodd" d="M40.5 14.5h24a2 2 0 0 1 2 2v34a2 2 0 0 1-2 2h-24a2 2 0 0 1-2-2v-34a2 2 0 0 1 2-2z" class="cls-5"/><path fill-rule="evenodd" d="M44 22h16a2 2 0 0 1 2 2v12a2 2 0 0 1-2 2H44a2 2 0 0 1-2-2V24a2 2 0 0 1 2-2z" class="cls-7"/><path fill-rule="evenodd" d="M51.053 36.28l4.378-4.105s.402-.274.82-.274c.403 0 .822.275.822.275S58.54 34.338 60 35.797c.005.006 0 1.373 0 1.373l-8.673-.07-.274-.82z" class="cls-8"/><path fill-rule="evenodd" d="M44.042 36.17l4.642-5.006s.49-.334 1-.334c.49 0 1.002.334 1.002.334l6.006 6.006H44.375s-.26-.112-.333-.334c-.09-.273 0-.667 0-.667z" class="cls-9"/><circle cx="58" cy="26" r="2" class="cls-9"/><path fill-rule="evenodd" d="M43 18h18a1 1 0 0 1 0 2H43a1 1 0 0 1 0-2zM54 46h7a1 1 0 0 1 0 2h-7a1 1 0 0 1 0-2zM42 41v-1h20v1H42zm9 3h-9v-1h9v1z" class="cls-7"/><path fill-rule="evenodd" d="M38.5 66.5v-8a2 2 0 0 1 2-2h24a2 2 0 0 1 2 2v7" class="cls-5"/><path fill-rule="evenodd" d="M53 68c.025 0-11 .104-11 0v-2a2 2 0 0 1 2-2h16a2 2 0 0 1 2 2v2" class="cls-7"/><path fill-rule="evenodd" d="M58 66a2 2 0 0 1 2 2c0 .014-.895 0-2 0s-2 .147-2 0a2 2 0 0 1 2-2z" class="cls-9"/><path fill-rule="evenodd" d="M43 60h18a1 1 0 0 1 0 2H43a1 1 0 0 1 0-2z" class="cls-7"/></svg>