<svg xmlns="http://www.w3.org/2000/svg" xmlns:xlink="http://www.w3.org/1999/xlink" preserveAspectRatio="xMidYMid" width="72" height="72" viewBox="0 0 72 72">
  
  <g id="group-5">
    <path d="M11.000,29.000 C11.000,29.000 61.000,29.000 61.000,29.000 C62.105,29.000 63.000,29.895 63.000,31.000 C63.000,31.000 63.000,63.000 63.000,63.000 C63.000,64.105 62.105,65.000 61.000,65.000 C61.000,65.000 11.000,65.000 11.000,65.000 C9.895,65.000 9.000,64.105 9.000,63.000 C9.000,63.000 9.000,31.000 9.000,31.000 C9.000,29.895 9.895,29.000 11.000,29.000 Z" id="path-1" class="cls-4" fill-rule="evenodd"/>
    <path d="M33.100,60.330 C33.100,60.330 46.220,49.030 46.220,49.030 C46.220,49.030 47.424,48.210 48.680,48.210 C49.883,48.210 51.140,49.030 51.140,49.030 C51.140,49.030 56.624,54.514 60.997,58.887 C61.015,58.905 61.000,63.000 61.000,63.000 C61.000,63.000 33.920,62.790 33.920,62.790 C33.920,62.790 33.100,60.330 33.100,60.330 Z" id="path-2" class="cls-5" fill-rule="evenodd"/>
    <path d="M11.000,60.000 C11.000,60.000 26.000,46.000 26.000,46.000 C26.000,46.000 27.468,45.000 29.000,45.000 C30.467,45.000 32.000,46.000 32.000,46.000 C32.000,46.000 50.000,63.000 50.000,63.000 C50.000,63.000 12.000,63.000 12.000,63.000 C12.000,63.000 11.222,62.666 11.000,62.000 C10.727,61.182 11.000,60.000 11.000,60.000 Z" id="path-3" class="cls-6" fill-rule="evenodd"/>
    <circle id="circle-1" class="cls-6" cx="53" cy="40" r="5"/>
    <path d="M10.500,7.000 C10.500,7.000 34.500,7.000 34.500,7.000 C35.328,7.000 36.000,7.672 36.000,8.500 C36.000,9.328 35.328,10.000 34.500,10.000 C34.500,10.000 10.500,10.000 10.500,10.000 C9.672,10.000 9.000,9.328 9.000,8.500 C9.000,7.672 9.672,7.000 10.500,7.000 Z" id="path-4" class="cls-4" fill-rule="evenodd"/>
    <path d="M9.000,23.000 C9.000,23.000 9.000,22.000 9.000,22.000 C9.000,22.000 63.000,22.000 63.000,22.000 C63.000,22.000 63.000,23.000 63.000,23.000 C63.000,23.000 9.000,23.000 9.000,23.000 ZM9.000,19.000 C9.000,19.000 63.000,19.000 63.000,19.000 C63.000,19.000 63.000,20.000 63.000,20.000 C63.000,20.000 9.000,20.000 9.000,20.000 C9.000,20.000 9.000,19.000 9.000,19.000 ZM9.000,16.000 C9.000,16.000 63.000,16.000 63.000,16.000 C63.000,16.000 63.000,17.000 63.000,17.000 C63.000,17.000 9.000,17.000 9.000,17.000 C9.000,17.000 9.000,16.000 9.000,16.000 ZM9.000,13.000 C9.000,13.000 63.000,13.000 63.000,13.000 C63.000,13.000 63.000,14.000 63.000,14.000 C63.000,14.000 9.000,14.000 9.000,14.000 C9.000,14.000 9.000,13.000 9.000,13.000 ZM36.000,26.000 C36.000,26.000 9.000,26.000 9.000,26.000 C9.000,26.000 9.000,25.000 9.000,25.000 C9.000,25.000 36.000,25.000 36.000,25.000 C36.000,25.000 36.000,26.000 36.000,26.000 Z" id="path-5" class="cls-4" fill-rule="evenodd"/>
  </g>
</svg>
