<svg xmlns="http://www.w3.org/2000/svg" xmlns:xlink="http://www.w3.org/1999/xlink" preserveAspectRatio="xMidYMid" width="72" height="72" viewBox="0 0 72 72">
  
  <g id="group-1svg">
    <path d="M10.000,7.000 C10.000,7.000 35.000,7.000 35.000,7.000 C35.552,7.000 36.000,7.448 36.000,8.000 C36.000,8.552 35.552,9.000 35.000,9.000 C35.000,9.000 10.000,9.000 10.000,9.000 C9.448,9.000 9.000,8.552 9.000,8.000 C9.000,7.448 9.448,7.000 10.000,7.000 Z" id="path-1" class="cls-4" fill-rule="evenodd"/>
    <path d="M40.000,30.000 C40.000,30.000 40.000,29.000 40.000,29.000 C40.000,29.000 63.000,29.000 63.000,29.000 C63.000,29.000 63.000,30.000 63.000,30.000 C63.000,30.000 40.000,30.000 40.000,30.000 ZM40.000,26.000 C40.000,26.000 63.000,26.000 63.000,26.000 C63.000,26.000 63.000,27.000 63.000,27.000 C63.000,27.000 40.000,27.000 40.000,27.000 C40.000,27.000 40.000,26.000 40.000,26.000 ZM40.000,23.000 C40.000,23.000 63.000,23.000 63.000,23.000 C63.000,23.000 63.000,24.000 63.000,24.000 C63.000,24.000 40.000,24.000 40.000,24.000 C40.000,24.000 40.000,23.000 40.000,23.000 ZM40.000,20.000 C40.000,20.000 63.000,20.000 63.000,20.000 C63.000,20.000 63.000,21.000 63.000,21.000 C63.000,21.000 40.000,21.000 40.000,21.000 C40.000,21.000 40.000,20.000 40.000,20.000 ZM40.000,17.000 C40.000,17.000 63.000,17.000 63.000,17.000 C63.000,17.000 63.000,18.000 63.000,18.000 C63.000,18.000 40.000,18.000 40.000,18.000 C40.000,18.000 40.000,17.000 40.000,17.000 ZM40.000,14.000 C40.000,14.000 63.000,14.000 63.000,14.000 C63.000,14.000 63.000,15.000 63.000,15.000 C63.000,15.000 40.000,15.000 40.000,15.000 C40.000,15.000 40.000,14.000 40.000,14.000 ZM40.000,11.000 C40.000,11.000 63.000,11.000 63.000,11.000 C63.000,11.000 63.000,12.000 63.000,12.000 C63.000,12.000 40.000,12.000 40.000,12.000 C40.000,12.000 40.000,11.000 40.000,11.000 ZM51.000,33.000 C51.000,33.000 40.000,33.000 40.000,33.000 C40.000,33.000 40.000,32.000 40.000,32.000 C40.000,32.000 51.000,32.000 51.000,32.000 C51.000,32.000 51.000,33.000 51.000,33.000 Z" id="path-2" class="cls-4" fill-rule="evenodd"/>
    <path d="M10.000,39.000 C10.000,39.000 35.000,39.000 35.000,39.000 C35.552,39.000 36.000,39.448 36.000,40.000 C36.000,40.552 35.552,41.000 35.000,41.000 C35.000,41.000 10.000,41.000 10.000,41.000 C9.448,41.000 9.000,40.552 9.000,40.000 C9.000,39.448 9.448,39.000 10.000,39.000 Z" id="path-3" class="cls-4" fill-rule="evenodd"/>
    <path d="M40.000,62.000 C40.000,62.000 40.000,61.000 40.000,61.000 C40.000,61.000 63.000,61.000 63.000,61.000 C63.000,61.000 63.000,62.000 63.000,62.000 C63.000,62.000 40.000,62.000 40.000,62.000 ZM40.000,58.000 C40.000,58.000 63.000,58.000 63.000,58.000 C63.000,58.000 63.000,59.000 63.000,59.000 C63.000,59.000 40.000,59.000 40.000,59.000 C40.000,59.000 40.000,58.000 40.000,58.000 ZM40.000,55.000 C40.000,55.000 63.000,55.000 63.000,55.000 C63.000,55.000 63.000,56.000 63.000,56.000 C63.000,56.000 40.000,56.000 40.000,56.000 C40.000,56.000 40.000,55.000 40.000,55.000 ZM40.000,52.000 C40.000,52.000 63.000,52.000 63.000,52.000 C63.000,52.000 63.000,53.000 63.000,53.000 C63.000,53.000 40.000,53.000 40.000,53.000 C40.000,53.000 40.000,52.000 40.000,52.000 ZM40.000,49.000 C40.000,49.000 63.000,49.000 63.000,49.000 C63.000,49.000 63.000,50.000 63.000,50.000 C63.000,50.000 40.000,50.000 40.000,50.000 C40.000,50.000 40.000,49.000 40.000,49.000 ZM40.000,46.000 C40.000,46.000 63.000,46.000 63.000,46.000 C63.000,46.000 63.000,47.000 63.000,47.000 C63.000,47.000 40.000,47.000 40.000,47.000 C40.000,47.000 40.000,46.000 40.000,46.000 ZM40.000,43.000 C40.000,43.000 63.000,43.000 63.000,43.000 C63.000,43.000 63.000,44.000 63.000,44.000 C63.000,44.000 40.000,44.000 40.000,44.000 C40.000,44.000 40.000,43.000 40.000,43.000 ZM51.000,65.000 C51.000,65.000 40.000,65.000 40.000,65.000 C40.000,65.000 40.000,64.000 40.000,64.000 C40.000,64.000 51.000,64.000 51.000,64.000 C51.000,64.000 51.000,65.000 51.000,65.000 Z" id="path-4" class="cls-4" fill-rule="evenodd"/>
    <path d="M11.000,11.000 C11.000,11.000 34.000,11.000 34.000,11.000 C35.105,11.000 36.000,11.895 36.000,13.000 C36.000,13.000 36.000,31.000 36.000,31.000 C36.000,32.105 35.105,33.000 34.000,33.000 C34.000,33.000 11.000,33.000 11.000,33.000 C9.895,33.000 9.000,32.105 9.000,31.000 C9.000,31.000 9.000,13.000 9.000,13.000 C9.000,11.895 9.895,11.000 11.000,11.000 Z" id="path-5" class="cls-4" fill-rule="evenodd"/>
    <path d="M21.139,29.776 C21.139,29.776 27.432,23.877 27.432,23.877 C27.432,23.877 28.009,23.483 28.612,23.483 C29.188,23.483 29.791,23.877 29.791,23.877 C29.791,23.877 31.901,26.986 33.999,29.084 C34.007,29.092 34.000,31.056 34.000,31.056 C34.000,31.056 21.532,30.956 21.532,30.956 C21.532,30.956 21.139,29.776 21.139,29.776 Z" id="path-6" class="cls-9" fill-rule="evenodd"/>
    <path d="M11.060,29.618 C11.060,29.618 17.734,22.423 17.734,22.423 C17.734,22.423 18.438,21.944 19.173,21.944 C19.876,21.944 20.611,22.423 20.611,22.423 C20.611,22.423 29.245,31.056 29.245,31.056 C29.245,31.056 11.540,31.056 11.540,31.056 C11.540,31.056 11.166,30.896 11.060,30.577 C10.929,30.184 11.060,29.618 11.060,29.618 Z" id="path-7" class="cls-10" fill-rule="evenodd"/>
    <circle id="circle-1" class="cls-11" cx="30" cy="17" r="3"/>
    <path d="M11.000,43.000 C11.000,43.000 34.000,43.000 34.000,43.000 C35.105,43.000 36.000,43.895 36.000,45.000 C36.000,45.000 36.000,63.000 36.000,63.000 C36.000,64.105 35.105,65.000 34.000,65.000 C34.000,65.000 11.000,65.000 11.000,65.000 C9.895,65.000 9.000,64.105 9.000,63.000 C9.000,63.000 9.000,45.000 9.000,45.000 C9.000,43.895 9.895,43.000 11.000,43.000 Z" id="path-8" class="cls-4" fill-rule="evenodd"/>
    <path d="M21.139,61.776 C21.139,61.776 27.432,55.876 27.432,55.876 C27.432,55.876 28.009,55.483 28.612,55.483 C29.188,55.483 29.791,55.876 29.791,55.876 C29.791,55.876 31.901,58.986 33.999,61.084 C34.007,61.092 34.000,63.056 34.000,63.056 C34.000,63.056 21.532,62.956 21.532,62.956 C21.532,62.956 21.139,61.776 21.139,61.776 Z" id="path-9" class="cls-9" fill-rule="evenodd"/>
    <path d="M11.060,61.618 C11.060,61.618 17.734,54.423 17.734,54.423 C17.734,54.423 18.438,53.944 19.173,53.944 C19.876,53.944 20.611,54.423 20.611,54.423 C20.611,54.423 29.245,63.056 29.245,63.056 C29.245,63.056 11.540,63.056 11.540,63.056 C11.540,63.056 11.166,62.896 11.060,62.577 C10.929,62.184 11.060,61.618 11.060,61.618 Z" id="path-10" class="cls-10" fill-rule="evenodd"/>
    <circle id="circle-2" class="cls-11" cx="30" cy="49" r="3"/>
  </g>
</svg>
