<svg xmlns="http://www.w3.org/2000/svg" width="72" height="72" preserveAspectRatio="xMidYMid" viewBox="0 0 72 72"><path fill-rule="evenodd" d="M11 29h50a2 2 0 0 1 2 2v32a2 2 0 0 1-2 2H11a2 2 0 0 1-2-2V31a2 2 0 0 1 2-2z" class="cls-4"/><path fill-rule="evenodd" d="M33.1 60.33l13.12-11.3s1.204-.82 2.46-.82c1.203 0 2.46.82 2.46.82l9.857 9.857C61.015 58.905 61 63 61 63l-27.08-.21-.82-2.46z" class="cls-5"/><path fill-rule="evenodd" d="M11 60l15-14s1.468-1 3-1c1.467 0 3 1 3 1l18 17H12s-.778-.334-1-1c-.273-.818 0-2 0-2z" class="cls-6"/><circle cx="53" cy="40" r="5" class="cls-6"/><path fill-rule="evenodd" d="M10.5 7h24a1.5 1.5 0 0 1 0 3h-24a1.5 1.5 0 0 1 0-3zM9 23v-1h54v1H9zm0-4h54v1H9v-1zm0-3h54v1H9v-1zm0-3h54v1H9v-1zm27 13H9v-1h27v1z" class="cls-4"/></svg>