<svg xmlns="http://www.w3.org/2000/svg" width="72" height="72" preserveAspectRatio="xMidYMid" viewBox="0 0 72 72"><path fill-rule="evenodd" d="M10 7h25a1 1 0 0 1 0 2H10a1 1 0 0 1 0-2zM40 30v-1h23v1H40zm0-4h23v1H40v-1zm0-3h23v1H40v-1zm0-3h23v1H40v-1zm0-3h23v1H40v-1zm0-3h23v1H40v-1zm0-3h23v1H40v-1zm11 22H40v-1h11v1zM38 43h23a2 2 0 0 1 2 2v18a2 2 0 0 1-2 2H38a2 2 0 0 1-2-2V45a2 2 0 0 1 2-2z" class="cls-4"/><path fill-rule="evenodd" d="M48.14 61.776l6.292-5.9s.577-.393 1.18-.393c.576 0 1.18.394 1.18.394s2.11 3.11 4.206 5.207c.01.008.002 1.972.002 1.972l-12.468-.1-.393-1.18z" class="cls-7"/><path fill-rule="evenodd" d="M38.06 61.617l6.674-7.194s.704-.48 1.44-.48c.702 0 1.437.48 1.437.48l8.635 8.633H38.54s-.374-.16-.48-.48c-.13-.392 0-.96 0-.96z" class="cls-8"/><circle cx="57" cy="49" r="3" class="cls-9"/><path fill-rule="evenodd" d="M11 11h23a2 2 0 0 1 2 2v18a2 2 0 0 1-2 2H11a2 2 0 0 1-2-2V13a2 2 0 0 1 2-2z" class="cls-4"/><path fill-rule="evenodd" d="M21.14 29.776l6.292-5.9s.577-.393 1.18-.393c.576 0 1.18.394 1.18.394s2.11 3.11 4.207 5.207c.007.01 0 1.972 0 1.972l-12.468-.1-.393-1.18z" class="cls-7"/><path fill-rule="evenodd" d="M11.06 29.617l6.674-7.194s.704-.48 1.44-.48c.702 0 1.437.48 1.437.48l8.635 8.633H11.54s-.374-.16-.48-.48c-.13-.392 0-.96 0-.96z" class="cls-8"/><circle cx="30" cy="17" r="3" class="cls-9"/><path fill-rule="evenodd" d="M10 39h25a1 1 0 0 1 0 2H10a1 1 0 0 1 0-2zM9 62v-1h23v1H9zm0-4h23v1H9v-1zm0-3h23v1H9v-1zm0-3h23v1H9v-1zm0-3h23v1H9v-1zm0-3h23v1H9v-1zm0-3h23v1H9v-1zm11 22H9v-1h11v1z" class="cls-4"/></svg>