<svg xmlns="http://www.w3.org/2000/svg" xmlns:xlink="http://www.w3.org/1999/xlink" preserveAspectRatio="xMidYMid" width="72" height="72" viewBox="0 0 72 72">
  
  <g id="group-2">
    <path d="M10.000,7.000 C10.000,7.000 35.000,7.000 35.000,7.000 C35.552,7.000 36.000,7.448 36.000,8.000 C36.000,8.552 35.552,9.000 35.000,9.000 C35.000,9.000 10.000,9.000 10.000,9.000 C9.448,9.000 9.000,8.552 9.000,8.000 C9.000,7.448 9.448,7.000 10.000,7.000 Z" id="path-1" class="cls-4" fill-rule="evenodd"/>
    <path d="M9.000,30.000 C9.000,30.000 9.000,29.000 9.000,29.000 C9.000,29.000 32.000,29.000 32.000,29.000 C32.000,29.000 32.000,30.000 32.000,30.000 C32.000,30.000 9.000,30.000 9.000,30.000 ZM9.000,26.000 C9.000,26.000 32.000,26.000 32.000,26.000 C32.000,26.000 32.000,27.000 32.000,27.000 C32.000,27.000 9.000,27.000 9.000,27.000 C9.000,27.000 9.000,26.000 9.000,26.000 ZM9.000,23.000 C9.000,23.000 32.000,23.000 32.000,23.000 C32.000,23.000 32.000,24.000 32.000,24.000 C32.000,24.000 9.000,24.000 9.000,24.000 C9.000,24.000 9.000,23.000 9.000,23.000 ZM9.000,20.000 C9.000,20.000 32.000,20.000 32.000,20.000 C32.000,20.000 32.000,21.000 32.000,21.000 C32.000,21.000 9.000,21.000 9.000,21.000 C9.000,21.000 9.000,20.000 9.000,20.000 ZM9.000,17.000 C9.000,17.000 32.000,17.000 32.000,17.000 C32.000,17.000 32.000,18.000 32.000,18.000 C32.000,18.000 9.000,18.000 9.000,18.000 C9.000,18.000 9.000,17.000 9.000,17.000 ZM9.000,14.000 C9.000,14.000 32.000,14.000 32.000,14.000 C32.000,14.000 32.000,15.000 32.000,15.000 C32.000,15.000 9.000,15.000 9.000,15.000 C9.000,15.000 9.000,14.000 9.000,14.000 ZM9.000,11.000 C9.000,11.000 32.000,11.000 32.000,11.000 C32.000,11.000 32.000,12.000 32.000,12.000 C32.000,12.000 9.000,12.000 9.000,12.000 C9.000,12.000 9.000,11.000 9.000,11.000 ZM20.000,33.000 C20.000,33.000 9.000,33.000 9.000,33.000 C9.000,33.000 9.000,32.000 9.000,32.000 C9.000,32.000 20.000,32.000 20.000,32.000 C20.000,32.000 20.000,33.000 20.000,33.000 Z" id="path-2" class="cls-4" fill-rule="evenodd"/>
    <path d="M38.000,43.000 C38.000,43.000 61.000,43.000 61.000,43.000 C62.105,43.000 63.000,43.895 63.000,45.000 C63.000,45.000 63.000,63.000 63.000,63.000 C63.000,64.105 62.105,65.000 61.000,65.000 C61.000,65.000 38.000,65.000 38.000,65.000 C36.895,65.000 36.000,64.105 36.000,63.000 C36.000,63.000 36.000,45.000 36.000,45.000 C36.000,43.895 36.895,43.000 38.000,43.000 Z" id="path-3" class="cls-4" fill-rule="evenodd"/>
    <path d="M48.139,61.776 C48.139,61.776 54.432,55.877 54.432,55.877 C54.432,55.877 55.009,55.483 55.612,55.483 C56.188,55.483 56.791,55.877 56.791,55.877 C56.791,55.877 58.901,58.986 60.998,61.084 C61.007,61.093 61.000,63.056 61.000,63.056 C61.000,63.056 48.532,62.956 48.532,62.956 C48.532,62.956 48.139,61.776 48.139,61.776 Z" id="path-4" class="cls-7" fill-rule="evenodd"/>
    <path d="M38.060,61.617 C38.060,61.617 44.734,54.423 44.734,54.423 C44.734,54.423 45.438,53.944 46.173,53.944 C46.876,53.944 47.611,54.423 47.611,54.423 C47.611,54.423 56.245,63.056 56.245,63.056 C56.245,63.056 38.540,63.056 38.540,63.056 C38.540,63.056 38.166,62.896 38.060,62.577 C37.929,62.184 38.060,61.617 38.060,61.617 Z" id="path-5" class="cls-8" fill-rule="evenodd"/>
    <circle id="circle-1" class="cls-9" cx="57" cy="49" r="3"/>
    <path d="M38.000,11.000 C38.000,11.000 61.000,11.000 61.000,11.000 C62.105,11.000 63.000,11.895 63.000,13.000 C63.000,13.000 63.000,31.000 63.000,31.000 C63.000,32.105 62.105,33.000 61.000,33.000 C61.000,33.000 38.000,33.000 38.000,33.000 C36.895,33.000 36.000,32.105 36.000,31.000 C36.000,31.000 36.000,13.000 36.000,13.000 C36.000,11.895 36.895,11.000 38.000,11.000 Z" id="path-6" class="cls-4" fill-rule="evenodd"/>
    <path d="M48.139,29.776 C48.139,29.776 54.432,23.877 54.432,23.877 C54.432,23.877 55.009,23.483 55.612,23.483 C56.188,23.483 56.791,23.877 56.791,23.877 C56.791,23.877 58.901,26.986 60.998,29.084 C61.007,29.093 61.000,31.056 61.000,31.056 C61.000,31.056 48.532,30.956 48.532,30.956 C48.532,30.956 48.139,29.776 48.139,29.776 Z" id="path-7" class="cls-7" fill-rule="evenodd"/>
    <path d="M38.060,29.617 C38.060,29.617 44.734,22.423 44.734,22.423 C44.734,22.423 45.438,21.944 46.173,21.944 C46.876,21.944 47.611,22.423 47.611,22.423 C47.611,22.423 56.245,31.056 56.245,31.056 C56.245,31.056 38.540,31.056 38.540,31.056 C38.540,31.056 38.166,30.896 38.060,30.577 C37.929,30.184 38.060,29.617 38.060,29.617 Z" id="path-8" class="cls-8" fill-rule="evenodd"/>
    <circle id="circle-2" class="cls-9" cx="57" cy="17" r="3"/>
    <path d="M10.000,39.000 C10.000,39.000 35.000,39.000 35.000,39.000 C35.552,39.000 36.000,39.448 36.000,40.000 C36.000,40.552 35.552,41.000 35.000,41.000 C35.000,41.000 10.000,41.000 10.000,41.000 C9.448,41.000 9.000,40.552 9.000,40.000 C9.000,39.448 9.448,39.000 10.000,39.000 Z" id="path-9" class="cls-4" fill-rule="evenodd"/>
    <path d="M9.000,62.000 C9.000,62.000 9.000,61.000 9.000,61.000 C9.000,61.000 32.000,61.000 32.000,61.000 C32.000,61.000 32.000,62.000 32.000,62.000 C32.000,62.000 9.000,62.000 9.000,62.000 ZM9.000,58.000 C9.000,58.000 32.000,58.000 32.000,58.000 C32.000,58.000 32.000,59.000 32.000,59.000 C32.000,59.000 9.000,59.000 9.000,59.000 C9.000,59.000 9.000,58.000 9.000,58.000 ZM9.000,55.000 C9.000,55.000 32.000,55.000 32.000,55.000 C32.000,55.000 32.000,56.000 32.000,56.000 C32.000,56.000 9.000,56.000 9.000,56.000 C9.000,56.000 9.000,55.000 9.000,55.000 ZM9.000,52.000 C9.000,52.000 32.000,52.000 32.000,52.000 C32.000,52.000 32.000,53.000 32.000,53.000 C32.000,53.000 9.000,53.000 9.000,53.000 C9.000,53.000 9.000,52.000 9.000,52.000 ZM9.000,49.000 C9.000,49.000 32.000,49.000 32.000,49.000 C32.000,49.000 32.000,50.000 32.000,50.000 C32.000,50.000 9.000,50.000 9.000,50.000 C9.000,50.000 9.000,49.000 9.000,49.000 ZM9.000,46.000 C9.000,46.000 32.000,46.000 32.000,46.000 C32.000,46.000 32.000,47.000 32.000,47.000 C32.000,47.000 9.000,47.000 9.000,47.000 C9.000,47.000 9.000,46.000 9.000,46.000 ZM9.000,43.000 C9.000,43.000 32.000,43.000 32.000,43.000 C32.000,43.000 32.000,44.000 32.000,44.000 C32.000,44.000 9.000,44.000 9.000,44.000 C9.000,44.000 9.000,43.000 9.000,43.000 ZM20.000,65.000 C20.000,65.000 9.000,65.000 9.000,65.000 C9.000,65.000 9.000,64.000 9.000,64.000 C9.000,64.000 20.000,64.000 20.000,64.000 C20.000,64.000 20.000,65.000 20.000,65.000 Z" id="path-10" class="cls-4" fill-rule="evenodd"/>
  </g>
</svg>
