<svg xmlns="http://www.w3.org/2000/svg" width="72" height="72" preserveAspectRatio="xMidYMid" viewBox="0 0 72 72"><path fill-rule="evenodd" d="M12 32v-1h48v1H12zm24 3H12v-1h24v1zM14 6h44a2 2 0 0 1 2 2v19a2 2 0 0 1-2 2H14a2 2 0 0 1-2-2V8a2 2 0 0 1 2-2z" class="cls-4"/><path fill-rule="evenodd" d="M34.088 25.806L45.24 18.35s1.023-.696 2.09-.696c1.023 0 2.092.697 2.092.697s5.512 2.512 9.228 6.23c.016.015.003 3.495.003 3.495l-23.868-.18-.697-2.09z" class="cls-6"/><path fill-rule="evenodd" d="M13.453 25.525l13.6-9.75s1.248-.85 2.55-.85c1.247 0 2.55.85 2.55.85l15.3 12.3h-33.15s-.66-.284-.85-.85c-.232-.696 0-1.7 0-1.7z" class="cls-7"/><circle cx="54" cy="13" r="3" class="cls-7"/><path fill-rule="evenodd" d="M14 37h44a2 2 0 0 1 2 2v19a2 2 0 0 1-2 2H14a2 2 0 0 1-2-2V39a2 2 0 0 1 2-2z" class="cls-4"/><path fill-rule="evenodd" d="M34.088 56.805L45.24 49.35s1.023-.697 2.09-.697c1.023 0 2.092.697 2.092.697s5.512 2.512 9.228 6.23c.016.015.003 3.495.003 3.495l-23.868-.178-.697-2.092z" class="cls-6"/><path fill-rule="evenodd" d="M13.453 56.525l13.6-9.75s1.248-.85 2.55-.85c1.247 0 2.55.85 2.55.85l15.3 12.3h-33.15s-.66-.284-.85-.85c-.232-.696 0-1.7 0-1.7z" class="cls-7"/><circle cx="54" cy="44" r="3" class="cls-7"/><path fill-rule="evenodd" d="M12 63v-1h48v1H12zm24 3H12v-1h24v1z" class="cls-4"/></svg>