<svg xmlns="http://www.w3.org/2000/svg" xmlns:xlink="http://www.w3.org/1999/xlink" preserveAspectRatio="xMidYMid" width="72" height="72" viewBox="0 0 72 72">
  
  <g id="group-12">
    <path d="M10.500,9.000 C10.500,9.000 46.500,9.000 46.500,9.000 C47.328,9.000 48.000,9.672 48.000,10.500 C48.000,11.328 47.328,12.000 46.500,12.000 C46.500,12.000 10.500,12.000 10.500,12.000 C9.672,12.000 9.000,11.328 9.000,10.500 C9.000,9.672 9.672,9.000 10.500,9.000 Z" id="path-1" class="cls-4" fill-rule="evenodd"/>
    <path d="M11.000,18.000 C11.000,18.000 61.000,18.000 61.000,18.000 C62.105,18.000 63.000,18.895 63.000,20.000 C63.000,20.000 63.000,61.000 63.000,61.000 C63.000,62.105 62.105,63.000 61.000,63.000 C61.000,63.000 11.000,63.000 11.000,63.000 C9.895,63.000 9.000,62.105 9.000,61.000 C9.000,61.000 9.000,20.000 9.000,20.000 C9.000,18.895 9.895,18.000 11.000,18.000 Z" id="path-2" class="cls-4" fill-rule="evenodd"/>
    <path d="M33.100,59.330 C33.100,59.330 46.220,47.030 46.220,47.030 C46.220,47.030 47.424,46.210 48.680,46.210 C49.883,46.210 51.140,47.030 51.140,47.030 C51.140,47.030 56.624,53.514 60.997,57.887 C61.015,57.905 61.000,61.000 61.000,61.000 C61.000,61.000 33.920,60.790 33.920,60.790 C33.920,60.790 33.100,59.330 33.100,59.330 Z" id="path-3" class="cls-6" fill-rule="evenodd"/>
    <path d="M11.000,58.000 C11.000,58.000 26.000,44.000 26.000,44.000 C26.000,44.000 27.468,43.000 29.000,43.000 C30.466,43.000 32.000,44.000 32.000,44.000 C32.000,44.000 50.000,61.000 50.000,61.000 C50.000,61.000 12.000,61.000 12.000,61.000 C12.000,61.000 11.222,60.666 11.000,60.000 C10.727,59.182 11.000,58.000 11.000,58.000 Z" id="path-4" class="cls-7" fill-rule="evenodd"/>
    <circle id="circle-1" class="cls-7" cx="53" cy="29" r="5"/>
  </g>
</svg>
