<svg xmlns="http://www.w3.org/2000/svg" xmlns:xlink="http://www.w3.org/1999/xlink" preserveAspectRatio="xMidYMid" width="72" height="73" viewBox="0 0 72 73">
  <g id="group-1svg">
      <path d="M12.000,7.000 C12.000,7.000 12.000,6.000 12.000,6.000 C12.000,6.000 60.000,6.000 60.000,6.000 C60.000,6.000 60.000,7.000 60.000,7.000 C60.000,7.000 12.000,7.000 12.000,7.000 ZM36.000,10.000 C36.000,10.000 12.000,10.000 12.000,10.000 C12.000,10.000 12.000,9.000 12.000,9.000 C12.000,9.000 36.000,9.000 36.000,9.000 C36.000,9.000 36.000,10.000 36.000,10.000 Z" id="path-1" class="cls-4" fill-rule="evenodd"/>
      <path d="M14.000,12.000 C14.000,12.000 58.000,12.000 58.000,12.000 C59.105,12.000 60.000,12.895 60.000,14.000 C60.000,14.000 60.000,33.000 60.000,33.000 C60.000,34.105 59.105,35.000 58.000,35.000 C58.000,35.000 14.000,35.000 14.000,35.000 C12.895,35.000 12.000,34.105 12.000,33.000 C12.000,33.000 12.000,14.000 12.000,14.000 C12.000,12.895 12.895,12.000 14.000,12.000 Z" id="path-2" class="cls-4" fill-rule="evenodd"/>
      <path d="M34.088,31.805 C34.088,31.805 45.240,24.351 45.240,24.351 C45.240,24.351 46.263,23.653 47.331,23.653 C48.353,23.653 49.422,24.351 49.422,24.351 C49.422,24.351 54.934,26.862 58.651,30.579 C58.666,30.595 58.653,34.075 58.653,34.075 C58.653,34.075 34.785,33.897 34.785,33.897 C34.785,33.897 34.088,31.805 34.088,31.805 Z" id="path-3" class="cls-6" fill-rule="evenodd"/>
      <path d="M13.453,31.525 C13.453,31.525 27.053,21.775 27.053,21.775 C27.053,21.775 28.301,20.925 29.603,20.925 C30.850,20.925 32.153,21.775 32.153,21.775 C32.153,21.775 47.453,34.075 47.453,34.075 C47.453,34.075 14.303,34.075 14.303,34.075 C14.303,34.075 13.642,33.791 13.453,33.225 C13.221,32.529 13.453,31.525 13.453,31.525 Z" id="path-4" class="cls-7" fill-rule="evenodd"/>
      <circle id="circle-1" class="cls-7" cx="54" cy="19" r="3"/>
      <path d="M14.000,43.000 C14.000,43.000 58.000,43.000 58.000,43.000 C59.105,43.000 60.000,43.895 60.000,45.000 C60.000,45.000 60.000,64.000 60.000,64.000 C60.000,65.105 59.105,66.000 58.000,66.000 C58.000,66.000 14.000,66.000 14.000,66.000 C12.895,66.000 12.000,65.105 12.000,64.000 C12.000,64.000 12.000,45.000 12.000,45.000 C12.000,43.895 12.895,43.000 14.000,43.000 Z" id="path-5" class="cls-4" fill-rule="evenodd"/>
      <path d="M34.088,62.806 C34.088,62.806 45.240,55.351 45.240,55.351 C45.240,55.351 46.263,54.654 47.331,54.654 C48.353,54.654 49.422,55.351 49.422,55.351 C49.422,55.351 54.934,57.862 58.651,61.579 C58.666,61.595 58.653,65.075 58.653,65.075 C58.653,65.075 34.785,64.896 34.785,64.896 C34.785,64.896 34.088,62.806 34.088,62.806 Z" id="path-6" class="cls-6" fill-rule="evenodd"/>
      <path d="M13.453,62.525 C13.453,62.525 27.053,52.775 27.053,52.775 C27.053,52.775 28.301,51.925 29.603,51.925 C30.850,51.925 32.153,52.775 32.153,52.775 C32.153,52.775 47.453,65.075 47.453,65.075 C47.453,65.075 14.303,65.075 14.303,65.075 C14.303,65.075 13.642,64.791 13.453,64.225 C13.221,63.529 13.453,62.525 13.453,62.525 Z" id="path-7" class="cls-7" fill-rule="evenodd"/>
      <circle id="circle-2" class="cls-7" cx="54" cy="50" r="3"/>
      <path d="M12.000,38.000 C12.000,38.000 12.000,37.000 12.000,37.000 C12.000,37.000 60.000,37.000 60.000,37.000 C60.000,37.000 60.000,38.000 60.000,38.000 C60.000,38.000 12.000,38.000 12.000,38.000 ZM36.000,41.000 C36.000,41.000 12.000,41.000 12.000,41.000 C12.000,41.000 12.000,40.000 12.000,40.000 C12.000,40.000 36.000,40.000 36.000,40.000 C36.000,40.000 36.000,41.000 36.000,41.000 Z" id="path-8" class="cls-4" fill-rule="evenodd"/>
    </g>
</svg>
