<svg xmlns="http://www.w3.org/2000/svg" xmlns:xlink="http://www.w3.org/1999/xlink" preserveAspectRatio="xMidYMid" width="72" height="72" viewBox="0 0 72 72">
  
  <g id="group-16">
    <path d="M12.000,32.000 C12.000,32.000 12.000,31.000 12.000,31.000 C12.000,31.000 60.000,31.000 60.000,31.000 C60.000,31.000 60.000,32.000 60.000,32.000 C60.000,32.000 12.000,32.000 12.000,32.000 ZM36.000,35.000 C36.000,35.000 12.000,35.000 12.000,35.000 C12.000,35.000 12.000,34.000 12.000,34.000 C12.000,34.000 36.000,34.000 36.000,34.000 C36.000,34.000 36.000,35.000 36.000,35.000 Z" id="path-1" class="cls-4" fill-rule="evenodd"/>
    <path d="M14.000,6.000 C14.000,6.000 58.000,6.000 58.000,6.000 C59.105,6.000 60.000,6.895 60.000,8.000 C60.000,8.000 60.000,27.000 60.000,27.000 C60.000,28.105 59.105,29.000 58.000,29.000 C58.000,29.000 14.000,29.000 14.000,29.000 C12.895,29.000 12.000,28.105 12.000,27.000 C12.000,27.000 12.000,8.000 12.000,8.000 C12.000,6.895 12.895,6.000 14.000,6.000 Z" id="path-2" class="cls-4" fill-rule="evenodd"/>
    <path d="M34.088,25.806 C34.088,25.806 45.240,18.351 45.240,18.351 C45.240,18.351 46.263,17.654 47.331,17.654 C48.353,17.654 49.422,18.351 49.422,18.351 C49.422,18.351 54.934,20.862 58.650,24.579 C58.666,24.595 58.653,28.075 58.653,28.075 C58.653,28.075 34.785,27.896 34.785,27.896 C34.785,27.896 34.088,25.806 34.088,25.806 Z" id="path-3" class="cls-6" fill-rule="evenodd"/>
    <path d="M13.453,25.525 C13.453,25.525 27.053,15.775 27.053,15.775 C27.053,15.775 28.301,14.925 29.603,14.925 C30.850,14.925 32.153,15.775 32.153,15.775 C32.153,15.775 47.453,28.075 47.453,28.075 C47.453,28.075 14.303,28.075 14.303,28.075 C14.303,28.075 13.642,27.791 13.453,27.225 C13.221,26.529 13.453,25.525 13.453,25.525 Z" id="path-4" class="cls-7" fill-rule="evenodd"/>
    <circle id="circle-1" class="cls-7" cx="54" cy="13" r="3"/>
    <path d="M14.000,37.000 C14.000,37.000 58.000,37.000 58.000,37.000 C59.105,37.000 60.000,37.895 60.000,39.000 C60.000,39.000 60.000,58.000 60.000,58.000 C60.000,59.105 59.105,60.000 58.000,60.000 C58.000,60.000 14.000,60.000 14.000,60.000 C12.895,60.000 12.000,59.105 12.000,58.000 C12.000,58.000 12.000,39.000 12.000,39.000 C12.000,37.895 12.895,37.000 14.000,37.000 Z" id="path-5" class="cls-4" fill-rule="evenodd"/>
    <path d="M34.088,56.805 C34.088,56.805 45.240,49.350 45.240,49.350 C45.240,49.350 46.263,48.653 47.331,48.653 C48.353,48.653 49.422,49.350 49.422,49.350 C49.422,49.350 54.934,51.862 58.650,55.579 C58.666,55.595 58.653,59.075 58.653,59.075 C58.653,59.075 34.785,58.897 34.785,58.897 C34.785,58.897 34.088,56.805 34.088,56.805 Z" id="path-6" class="cls-6" fill-rule="evenodd"/>
    <path d="M13.453,56.525 C13.453,56.525 27.053,46.775 27.053,46.775 C27.053,46.775 28.301,45.925 29.603,45.925 C30.850,45.925 32.153,46.775 32.153,46.775 C32.153,46.775 47.453,59.075 47.453,59.075 C47.453,59.075 14.303,59.075 14.303,59.075 C14.303,59.075 13.642,58.791 13.453,58.225 C13.221,57.529 13.453,56.525 13.453,56.525 Z" id="path-7" class="cls-7" fill-rule="evenodd"/>
    <circle id="circle-2" class="cls-7" cx="54" cy="44" r="3"/>
    <path d="M12.000,63.000 C12.000,63.000 12.000,62.000 12.000,62.000 C12.000,62.000 60.000,62.000 60.000,62.000 C60.000,62.000 60.000,63.000 60.000,63.000 C60.000,63.000 12.000,63.000 12.000,63.000 ZM36.000,66.000 C36.000,66.000 12.000,66.000 12.000,66.000 C12.000,66.000 12.000,65.000 12.000,65.000 C12.000,65.000 36.000,65.000 36.000,65.000 C36.000,65.000 36.000,66.000 36.000,66.000 Z" id="path-8" class="cls-4" fill-rule="evenodd"/>
  </g>
</svg>
