<svg xmlns="http://www.w3.org/2000/svg" xmlns:xlink="http://www.w3.org/1999/xlink" preserveAspectRatio="xMidYMid" width="72" height="72" viewBox="0 0 72 72">
  
  <g id="group-15">
    <path d="M11.000,16.000 C11.000,16.000 26.000,16.000 26.000,16.000 C27.105,16.000 28.000,16.895 28.000,18.000 C28.000,18.000 28.000,28.000 28.000,28.000 C28.000,29.105 27.105,30.000 26.000,30.000 C26.000,30.000 11.000,30.000 11.000,30.000 C9.895,30.000 9.000,29.105 9.000,28.000 C9.000,28.000 9.000,18.000 9.000,18.000 C9.000,16.895 9.895,16.000 11.000,16.000 Z" id="path-1" class="cls-4" fill-rule="evenodd"/>
    <path d="M18.000,29.000 C18.000,29.000 22.199,25.532 22.199,25.532 C22.199,25.532 22.632,25.237 23.084,25.237 C23.516,25.237 23.969,25.532 23.969,25.532 C23.969,25.532 25.814,26.128 27.124,27.438 C27.130,27.444 27.125,28.917 27.125,28.917 C27.125,28.917 17.774,28.842 17.774,28.842 C17.774,28.842 18.000,29.000 18.000,29.000 Z" id="path-2" class="cls-5" fill-rule="evenodd"/>
    <path d="M9.920,27.838 C9.920,27.838 14.925,23.442 14.925,23.442 C14.925,23.442 15.453,23.083 16.004,23.083 C16.532,23.083 17.084,23.442 17.084,23.442 C17.084,23.442 21.558,28.917 21.558,28.917 C21.558,28.917 10.280,28.917 10.280,28.917 C10.280,28.917 10.000,28.797 9.920,28.558 C9.822,28.263 9.920,27.838 9.920,27.838 Z" id="path-3" class="cls-6" fill-rule="evenodd"/>
    <circle id="circle-1" class="cls-6" cx="24" cy="20" r="2"/>
    <path d="M11.000,34.000 C11.000,34.000 26.000,34.000 26.000,34.000 C27.105,34.000 28.000,34.895 28.000,36.000 C28.000,36.000 28.000,46.000 28.000,46.000 C28.000,47.105 27.105,48.000 26.000,48.000 C26.000,48.000 11.000,48.000 11.000,48.000 C9.895,48.000 9.000,47.105 9.000,46.000 C9.000,46.000 9.000,36.000 9.000,36.000 C9.000,34.895 9.895,34.000 11.000,34.000 Z" id="path-4" class="cls-4" fill-rule="evenodd"/>
    <path d="M18.000,47.000 C18.000,47.000 22.199,43.532 22.199,43.532 C22.199,43.532 22.632,43.237 23.084,43.237 C23.516,43.237 23.969,43.532 23.969,43.532 C23.969,43.532 25.814,44.128 27.124,45.438 C27.130,45.444 27.125,46.917 27.125,46.917 C27.125,46.917 17.774,46.842 17.774,46.842 C17.774,46.842 18.000,47.000 18.000,47.000 Z" id="path-5" class="cls-5" fill-rule="evenodd"/>
    <path d="M9.920,45.838 C9.920,45.838 14.925,41.442 14.925,41.442 C14.925,41.442 15.453,41.083 16.004,41.083 C16.532,41.083 17.084,41.442 17.084,41.442 C17.084,41.442 21.558,46.917 21.558,46.917 C21.558,46.917 10.280,46.917 10.280,46.917 C10.280,46.917 10.000,46.797 9.920,46.558 C9.822,46.263 9.920,45.838 9.920,45.838 Z" id="path-6" class="cls-6" fill-rule="evenodd"/>
    <circle id="circle-2" class="cls-6" cx="24" cy="38" r="2"/>
    <path d="M11.000,52.000 C11.000,52.000 26.000,52.000 26.000,52.000 C27.105,52.000 28.000,52.895 28.000,54.000 C28.000,54.000 28.000,64.000 28.000,64.000 C28.000,65.105 27.105,66.000 26.000,66.000 C26.000,66.000 11.000,66.000 11.000,66.000 C9.895,66.000 9.000,65.105 9.000,64.000 C9.000,64.000 9.000,54.000 9.000,54.000 C9.000,52.895 9.895,52.000 11.000,52.000 Z" id="path-7" class="cls-4" fill-rule="evenodd"/>
    <path d="M18.000,65.000 C18.000,65.000 22.199,61.532 22.199,61.532 C22.199,61.532 22.632,61.237 23.084,61.237 C23.516,61.237 23.969,61.532 23.969,61.532 C23.969,61.532 25.814,62.128 27.124,63.438 C27.130,63.444 27.125,64.917 27.125,64.917 C27.125,64.917 17.774,64.842 17.774,64.842 C17.774,64.842 18.000,65.000 18.000,65.000 Z" id="path-8" class="cls-5" fill-rule="evenodd"/>
    <path d="M9.920,63.838 C9.920,63.838 14.925,59.442 14.925,59.442 C14.925,59.442 15.453,59.083 16.004,59.083 C16.532,59.083 17.084,59.442 17.084,59.442 C17.084,59.442 21.558,64.917 21.558,64.917 C21.558,64.917 10.280,64.917 10.280,64.917 C10.280,64.917 10.000,64.797 9.920,64.558 C9.822,64.263 9.920,63.838 9.920,63.838 Z" id="path-9" class="cls-6" fill-rule="evenodd"/>
    <circle id="circle-3" class="cls-6" cx="24" cy="56" r="2"/>
    <path d="M10.500,7.000 C10.500,7.000 44.500,7.000 44.500,7.000 C45.328,7.000 46.000,7.672 46.000,8.500 C46.000,9.328 45.328,10.000 44.500,10.000 C44.500,10.000 10.500,10.000 10.500,10.000 C9.672,10.000 9.000,9.328 9.000,8.500 C9.000,7.672 9.672,7.000 10.500,7.000 Z" id="path-10" class="cls-4" fill-rule="evenodd"/>
    <path d="M32.000,18.000 C32.000,18.000 32.000,16.000 32.000,16.000 C32.000,16.000 63.000,16.000 63.000,16.000 C63.000,16.000 63.000,18.000 63.000,18.000 C63.000,18.000 32.000,18.000 32.000,18.000 ZM51.000,24.000 C51.000,24.000 32.000,24.000 32.000,24.000 C32.000,24.000 32.000,22.000 32.000,22.000 C32.000,22.000 51.000,22.000 51.000,22.000 C51.000,22.000 51.000,24.000 51.000,24.000 Z" id="path-11" class="cls-4" fill-rule="evenodd"/>
    <path d="M32.000,36.000 C32.000,36.000 32.000,34.000 32.000,34.000 C32.000,34.000 63.000,34.000 63.000,34.000 C63.000,34.000 63.000,36.000 63.000,36.000 C63.000,36.000 32.000,36.000 32.000,36.000 ZM51.000,42.000 C51.000,42.000 32.000,42.000 32.000,42.000 C32.000,42.000 32.000,40.000 32.000,40.000 C32.000,40.000 51.000,40.000 51.000,40.000 C51.000,40.000 51.000,42.000 51.000,42.000 Z" id="path-12" class="cls-4" fill-rule="evenodd"/>
    <path d="M32.000,54.000 C32.000,54.000 32.000,52.000 32.000,52.000 C32.000,52.000 63.000,52.000 63.000,52.000 C63.000,52.000 63.000,54.000 63.000,54.000 C63.000,54.000 32.000,54.000 32.000,54.000 ZM51.000,60.000 C51.000,60.000 32.000,60.000 32.000,60.000 C32.000,60.000 32.000,58.000 32.000,58.000 C32.000,58.000 51.000,58.000 51.000,58.000 C51.000,58.000 51.000,60.000 51.000,60.000 Z" id="path-13" class="cls-4" fill-rule="evenodd"/>
  </g>
</svg>
