<svg xmlns="http://www.w3.org/2000/svg" width="72" height="73" preserveAspectRatio="xMidYMid" viewBox="0 0 72 73"><path fill-rule="evenodd" d="M12 7V6h48v1H12zm24 3H12V9h24v1zM14 12h44a2 2 0 0 1 2 2v19a2 2 0 0 1-2 2H14a2 2 0 0 1-2-2V14a2 2 0 0 1 2-2z" class="cls-4"/><path fill-rule="evenodd" d="M34.088 31.805L45.24 24.35s1.023-.697 2.09-.697c1.023 0 2.092.698 2.092.698s5.512 2.512 9.23 6.23c.014.015 0 3.495 0 3.495l-23.867-.178-.697-2.092z" class="cls-6"/><path fill-rule="evenodd" d="M13.453 31.525l13.6-9.75s1.248-.85 2.55-.85c1.247 0 2.55.85 2.55.85l15.3 12.3h-33.15s-.66-.284-.85-.85c-.232-.696 0-1.7 0-1.7z" class="cls-7"/><circle cx="54" cy="19" r="3" class="cls-7"/><path fill-rule="evenodd" d="M14 43h44a2 2 0 0 1 2 2v19a2 2 0 0 1-2 2H14a2 2 0 0 1-2-2V45a2 2 0 0 1 2-2z" class="cls-4"/><path fill-rule="evenodd" d="M34.088 62.806L45.24 55.35s1.023-.696 2.09-.696c1.023 0 2.092.697 2.092.697s5.512 2.512 9.23 6.23c.014.015 0 3.495 0 3.495l-23.867-.18-.697-2.09z" class="cls-6"/><path fill-rule="evenodd" d="M13.453 62.525l13.6-9.75s1.248-.85 2.55-.85c1.247 0 2.55.85 2.55.85l15.3 12.3h-33.15s-.66-.284-.85-.85c-.232-.696 0-1.7 0-1.7z" class="cls-7"/><circle cx="54" cy="50" r="3" class="cls-7"/><path fill-rule="evenodd" d="M12 38v-1h48v1H12zm24 3H12v-1h24v1z" class="cls-4"/></svg>