<svg xmlns="http://www.w3.org/2000/svg" xmlns:xlink="http://www.w3.org/1999/xlink" preserveAspectRatio="xMidYMid" width="72" height="72" viewBox="0 0 72 72">
  
  <g id="group-18">
    <path d="M9.000,20.000 C9.000,20.000 9.000,18.000 9.000,18.000 C9.000,18.000 63.000,18.000 63.000,18.000 C63.000,18.000 63.000,20.000 63.000,20.000 C63.000,20.000 9.000,20.000 9.000,20.000 ZM44.500,12.000 C44.500,12.000 10.500,12.000 10.500,12.000 C9.672,12.000 9.000,11.328 9.000,10.500 C9.000,9.672 9.672,9.000 10.500,9.000 C10.500,9.000 44.500,9.000 44.500,9.000 C45.328,9.000 46.000,9.672 46.000,10.500 C46.000,11.328 45.328,12.000 44.500,12.000 ZM51.000,26.000 C51.000,26.000 9.000,26.000 9.000,26.000 C9.000,26.000 9.000,24.000 9.000,24.000 C9.000,24.000 51.000,24.000 51.000,24.000 C51.000,24.000 51.000,26.000 51.000,26.000 ZM60.000,32.000 C60.000,32.000 9.000,32.000 9.000,32.000 C9.000,32.000 9.000,30.000 9.000,30.000 C9.000,30.000 60.000,30.000 60.000,30.000 C60.000,30.000 60.000,32.000 60.000,32.000 ZM48.000,38.000 C48.000,38.000 9.000,38.000 9.000,38.000 C9.000,38.000 9.000,36.000 9.000,36.000 C9.000,36.000 48.000,36.000 48.000,36.000 C48.000,36.000 48.000,38.000 48.000,38.000 ZM54.000,44.000 C54.000,44.000 9.000,44.000 9.000,44.000 C9.000,44.000 9.000,42.000 9.000,42.000 C9.000,42.000 54.000,42.000 54.000,42.000 C54.000,42.000 54.000,44.000 54.000,44.000 ZM51.000,50.000 C51.000,50.000 9.000,50.000 9.000,50.000 C9.000,50.000 9.000,48.000 9.000,48.000 C9.000,48.000 51.000,48.000 51.000,48.000 C51.000,48.000 51.000,50.000 51.000,50.000 ZM60.000,56.000 C60.000,56.000 9.000,56.000 9.000,56.000 C9.000,56.000 9.000,54.000 9.000,54.000 C9.000,54.000 60.000,54.000 60.000,54.000 C60.000,54.000 60.000,56.000 60.000,56.000 ZM36.000,62.000 C36.000,62.000 9.000,62.000 9.000,62.000 C9.000,62.000 9.000,60.000 9.000,60.000 C9.000,60.000 36.000,60.000 36.000,60.000 C36.000,60.000 36.000,62.000 36.000,62.000 Z" id="path-1" class="cls-4" fill-rule="evenodd"/>
  </g>
</svg>
