<svg xmlns="http://www.w3.org/2000/svg" width="72" height="72" preserveAspectRatio="xMidYMid" viewBox="0 0 72 72"><path fill-rule="evenodd" d="M11 16h15a2 2 0 0 1 2 2v10a2 2 0 0 1-2 2H11a2 2 0 0 1-2-2V18a2 2 0 0 1 2-2z" class="cls-4"/><path fill-rule="evenodd" d="M18 29l4.2-3.468s.432-.295.884-.295c.432 0 .885.295.885.295s1.844.596 3.154 1.906c.006.006 0 1.48 0 1.48l-9.35-.076L18 29z" class="cls-5"/><path fill-rule="evenodd" d="M9.92 27.838l5.005-4.396s.528-.36 1.08-.36c.527 0 1.08.36 1.08.36l4.473 5.475H10.28s-.28-.12-.36-.36c-.098-.294 0-.72 0-.72z" class="cls-6"/><circle cx="24" cy="20" r="2" class="cls-6"/><path fill-rule="evenodd" d="M11 34h15a2 2 0 0 1 2 2v10a2 2 0 0 1-2 2H11a2 2 0 0 1-2-2V36a2 2 0 0 1 2-2z" class="cls-4"/><path fill-rule="evenodd" d="M18 47l4.2-3.468s.432-.295.884-.295c.432 0 .885.295.885.295s1.844.596 3.154 1.906c.006.006 0 1.48 0 1.48l-9.35-.076L18 47z" class="cls-5"/><path fill-rule="evenodd" d="M9.92 45.838l5.005-4.396s.528-.36 1.08-.36c.527 0 1.08.36 1.08.36l4.473 5.475H10.28s-.28-.12-.36-.36c-.098-.294 0-.72 0-.72z" class="cls-6"/><circle cx="24" cy="38" r="2" class="cls-6"/><path fill-rule="evenodd" d="M11 52h15a2 2 0 0 1 2 2v10a2 2 0 0 1-2 2H11a2 2 0 0 1-2-2V54a2 2 0 0 1 2-2z" class="cls-4"/><path fill-rule="evenodd" d="M18 65l4.2-3.468s.432-.295.884-.295c.432 0 .885.295.885.295s1.844.596 3.154 1.906c.006.006 0 1.48 0 1.48l-9.35-.076L18 65z" class="cls-5"/><path fill-rule="evenodd" d="M9.92 63.838l5.005-4.396s.528-.36 1.08-.36c.527 0 1.08.36 1.08.36l4.473 5.475H10.28s-.28-.12-.36-.36c-.098-.294 0-.72 0-.72z" class="cls-6"/><circle cx="24" cy="56" r="2" class="cls-6"/><path fill-rule="evenodd" d="M10.5 7h34a1.5 1.5 0 0 1 0 3h-34a1.5 1.5 0 0 1 0-3zM32 18v-2h31v2H32zm19 6H32v-2h19v2zM32 36v-2h31v2H32zm19 6H32v-2h19v2zM32 54v-2h31v2H32zm19 6H32v-2h19v2z" class="cls-4"/></svg>