<svg xmlns="http://www.w3.org/2000/svg" width="72" height="72" preserveAspectRatio="xMidYMid" viewBox="0 0 72 72"><path fill-rule="evenodd" d="M10.5 60h36a1.5 1.5 0 0 1 0 3h-36a1.5 1.5 0 0 1 0-3zM11 9h50a2 2 0 0 1 2 2v41a2 2 0 0 1-2 2H11a2 2 0 0 1-2-2V11a2 2 0 0 1 2-2z" class="cls-4"/><path fill-rule="evenodd" d="M33.1 50.33l13.12-12.3s1.204-.82 2.46-.82c1.203 0 2.46.82 2.46.82s5.484 6.484 9.857 10.857C61.015 48.905 61 52 61 52l-27.08-.21-.82-1.46z" class="cls-6"/><path fill-rule="evenodd" d="M11 49l15-14s1.468-1 3-1c1.467 0 3 1 3 1l18 17H12s-.778-.334-1-1c-.273-.818 0-2 0-2z" class="cls-7"/><circle cx="53" cy="20" r="5" class="cls-7"/></svg>