<svg xmlns="http://www.w3.org/2000/svg" xmlns:xlink="http://www.w3.org/1999/xlink" preserveAspectRatio="xMidYMid" width="72" height="72" viewBox="0 0 72 72">
  
  <g id="group-19">
    <path d="M10.500,60.000 C10.500,60.000 46.500,60.000 46.500,60.000 C47.328,60.000 48.000,60.672 48.000,61.500 C48.000,62.328 47.328,63.000 46.500,63.000 C46.500,63.000 10.500,63.000 10.500,63.000 C9.672,63.000 9.000,62.328 9.000,61.500 C9.000,60.672 9.672,60.000 10.500,60.000 Z" id="path-1" class="cls-4" fill-rule="evenodd"/>
    <path d="M11.000,9.000 C11.000,9.000 61.000,9.000 61.000,9.000 C62.105,9.000 63.000,9.895 63.000,11.000 C63.000,11.000 63.000,52.000 63.000,52.000 C63.000,53.105 62.105,54.000 61.000,54.000 C61.000,54.000 11.000,54.000 11.000,54.000 C9.895,54.000 9.000,53.105 9.000,52.000 C9.000,52.000 9.000,11.000 9.000,11.000 C9.000,9.895 9.895,9.000 11.000,9.000 Z" id="path-2" class="cls-4" fill-rule="evenodd"/>
    <path d="M33.100,50.330 C33.100,50.330 46.220,38.030 46.220,38.030 C46.220,38.030 47.424,37.210 48.680,37.210 C49.883,37.210 51.140,38.030 51.140,38.030 C51.140,38.030 56.624,44.514 60.997,48.887 C61.015,48.905 61.000,52.000 61.000,52.000 C61.000,52.000 33.920,51.790 33.920,51.790 C33.920,51.790 33.100,50.330 33.100,50.330 Z" id="path-3" class="cls-6" fill-rule="evenodd"/>
    <path d="M11.000,49.000 C11.000,49.000 26.000,35.000 26.000,35.000 C26.000,35.000 27.468,34.000 29.000,34.000 C30.467,34.000 32.000,35.000 32.000,35.000 C32.000,35.000 50.000,52.000 50.000,52.000 C50.000,52.000 12.000,52.000 12.000,52.000 C12.000,52.000 11.222,51.666 11.000,51.000 C10.727,50.182 11.000,49.000 11.000,49.000 Z" id="path-4" class="cls-7" fill-rule="evenodd"/>
    <circle id="circle-1" class="cls-7" cx="53" cy="20" r="5"/>
  </g>
</svg>
