<?xml version="1.0" encoding="UTF-8" standalone="no"?>
<svg width="14px" height="14px" viewBox="0 0 14 14" version="1.1" xmlns="http://www.w3.org/2000/svg" xmlns:xlink="http://www.w3.org/1999/xlink" xmlns:sketch="http://www.bohemiancoding.com/sketch/ns">
    <!-- Generator: Sketch 3.4 (15575) - http://www.bohemiancoding.com/sketch -->
    <title>x1</title>
    <desc>Created with Sketch.</desc>
    <defs></defs>
    <g id="Page-1" stroke="none" stroke-width="1" fill="none" fill-rule="evenodd" sketch:type="MSPage">
        <g id="x1" sketch:type="MSArtboardGroup" fill="#2B5672">
            <path d="M0.8290017,9.14208686 L4.85717756,13.170067 C5.04760748,13.3604877 5.04760748,13.6674925 4.85717756,13.8579131 L4.85717756,13.8579131 C4.66771921,14.0473623 4.36069954,14.0473623 4.17026961,13.8579131 L0.142093758,9.82896143 C-0.0473645859,9.63951229 -0.0473645859,9.331536 0.142093758,9.14208686 L0.142093758,9.14208686 C0.331552101,8.95263771 0.639543357,8.95263771 0.8290017,9.14208686" id="Fill-4" sketch:type="MSShapeGroup"></path>
            <path d="M12,1.5 L12,13.5 C12,13.776 11.776,14 11.5,14 L11.5,14 C11.224,14 11,13.776 11,13.5 L11,1.5 C11,1.224 11.224,1 11.5,1 L11.5,1 C11.776,1 12,1.224 12,1.5" id="Fill-1" sketch:type="MSShapeGroup"></path>
            <path d="M11.8471986,1.89153007 L8.89251665,4.84640502 C8.68773671,5.05119833 8.3575813,5.05119833 8.15280136,4.84640502 L8.15280136,4.84640502 C7.94906621,4.64265657 7.94906621,4.31247959 8.15280136,4.10768628 L11.1085281,1.15281134 C11.3122633,0.949062888 11.6434635,0.949062888 11.8471986,1.15281134 L11.8471986,1.15281134 C12.0509338,1.35655979 12.0509338,1.68778162 11.8471986,1.89153007" id="Fill-10" sketch:type="MSShapeGroup"></path>
            <path d="M4.85791314,9.8290017 L0.829932964,13.8571776 C0.63951229,14.0476075 0.332507529,14.0476075 0.142086855,13.8571776 L0.142086855,13.8571776 C-0.047362285,13.6677192 -0.047362285,13.3606995 0.142086855,13.1702696 L4.17103857,9.14209376 C4.36048771,8.95263541 4.668464,8.95263541 4.85791314,9.14209376 L4.85791314,9.14209376 C5.04736229,9.3315521 5.04736229,9.63954336 4.85791314,9.8290017" id="Fill-7" sketch:type="MSShapeGroup"></path>
        </g>
    </g>
</svg>