<?xml version="1.0" encoding="UTF-8" standalone="no"?>
<svg width="14px" height="14px" viewBox="0 0 14 14" version="1.1" xmlns="http://www.w3.org/2000/svg" xmlns:xlink="http://www.w3.org/1999/xlink" xmlns:sketch="http://www.bohemiancoding.com/sketch/ns">
    <!-- Generator: Sketch 3.4 (15575) - http://www.bohemiancoding.com/sketch -->
    <title>Reset Crop</title>
    <desc>Created with Sketch.</desc>
    <defs></defs>
    <g id="Page-1" stroke="none" stroke-width="1" fill="none" fill-rule="evenodd" sketch:type="MSPage">
        <g id="Reset-Crop" sketch:type="MSArtboardGroup" fill="#2B5672">
            <path d="M12.997,0 L3,0 L3,1 L12.989,1 L12.989,11 L13.989,11 C13.989,11 14.006,3.91 13.997,0.994 C13.995,0.443 13.548,0 12.997,0 Z" id="Fill-1" sketch:type="MSShapeGroup" transform="translate(8.499814, 5.500000) rotate(-180.000000) translate(-8.499814, -5.500000) "></path>
            <path d="M10.9973,3.9941 C10.9953,3.4431 10.5483,3.0001 9.9973,3.0001 L0.0003,3.0001 L0.0003,4.0001 L9.9893,4.0001 L9.9893,14.0001 L10.9893,14.0001 C10.9893,14.0001 11.0063,6.9101 10.9973,3.9941" id="Fill-1" sketch:type="MSShapeGroup"></path>
            <path d="M0.729887176,14 L0,13.2701128 L13.2690805,0 L14,0.729887176 L0.729887176,14 Z" id="Fill-7" sketch:type="MSShapeGroup"></path>
        </g>
    </g>
</svg>