<svg xmlns="http://www.w3.org/2000/svg" width="34" height="34" viewBox="0 0 34 34"><g fill="#1D2D3C" fill-rule="evenodd"><path d="M21.5 8h-9C10.02 8 8 10.02 8 12.5v9c0 2.48 2.02 4.5 4.5 4.5h9c2.48 0 4.5-2.02 4.5-4.5v-9c0-2.48-2.02-4.5-4.5-4.5m0 1.5a3 3 0 0 1 3 3v9a3 3 0 0 1-3 3h-9a3 3 0 0 1-3-3v-9a3 3 0 0 1 3-3h9"/><path d="M13 14c0-.55.45-1 1-1h2v-1h-2a2 2 0 0 0-2 2v2h1v-2zM14 21c-.55 0-1-.45-1-1v-2h-1v2a2 2 0 0 0 2 2h2v-1h-2zM21 20c0 .55-.45 1-1 1h-2v1h2a2 2 0 0 0 2-2v-2h-1v2zM20 13c.55 0 1 .45 1 1v2h1v-2a2 2 0 0 0-2-2h-2v1h2z"/></g></svg>