<?xml version="1.0" encoding="UTF-8" standalone="no"?>
<svg width="34px" height="34px" viewBox="0 0 34 34" version="1.1" xmlns="http://www.w3.org/2000/svg" xmlns:xlink="http://www.w3.org/1999/xlink" xmlns:sketch="http://www.bohemiancoding.com/sketch/ns">
    <!-- Generator: Sketch 3.4 (15575) - http://www.bohemiancoding.com/sketch -->
    <title>Generic Icon</title>
    <desc>Created with Sketch.</desc>
    <defs></defs>
    <g id="Page-1" stroke="none" stroke-width="1" fill="none" fill-rule="evenodd" sketch:type="MSPage">
        <g id="Generic-Icon" sketch:type="MSArtboardGroup" fill="#1D2D3C">
            <g id="Page-1" sketch:type="MSLayerGroup" transform="translate(8.000000, 8.000000)">
                <path d="M13.5,0 L4.5,0 C2.019,0 0,2.019 0,4.5 L0,13.5 C0,15.981 2.019,18 4.5,18 L13.5,18 C15.981,18 18,15.981 18,13.5 L18,4.5 C18,2.019 15.981,0 13.5,0 M13.5,1.5 C15.157,1.5 16.5,2.843 16.5,4.5 L16.5,13.5 C16.5,15.157 15.157,16.5 13.5,16.5 L4.5,16.5 C2.843,16.5 1.5,15.157 1.5,13.5 L1.5,4.5 C1.5,2.843 2.843,1.5 4.5,1.5 L13.5,1.5" id="Fill-1" sketch:type="MSShapeGroup"></path>
                <path d="M5,6 C5,5.449 5.449,5 6,5 L8,5 L8,4 L6,4 C4.895,4 4,4.895 4,6 L4,8 L5,8 L5,6 Z" id="Fill-3" sketch:type="MSShapeGroup"></path>
                <path d="M6,13 C5.449,13 5,12.551 5,12 L5,10 L4,10 L4,12 C4,13.105 4.895,14 6,14 L8,14 L8,13 L6,13 Z" id="Fill-5" sketch:type="MSShapeGroup"></path>
                <path d="M13,12 C13,12.551 12.551,13 12,13 L10,13 L10,14 L12,14 C13.105,14 14,13.105 14,12 L14,10 L13,10 L13,12 Z" id="Fill-7" sketch:type="MSShapeGroup"></path>
                <path d="M12,5 C12.551,5 13,5.449 13,6 L13,8 L14,8 L14,6 C14,4.895 13.105,4 12,4 L10,4 L10,5 L12,5 Z" id="Fill-9" sketch:type="MSShapeGroup"></path>
            </g>
        </g>
    </g>
</svg>