<svg xmlns="http://www.w3.org/2000/svg" width="54" height="36" preserveAspectRatio="xMidYMid" viewBox="0 0 54 36"><path fill-rule="evenodd" d="M2 0h50a2 2 0 0 1 2 2v32.03a2 2 0 0 1-2 2H2a2 2 0 0 1-2-2V2a2 2 0 0 1 2-2z" class="cls-4"/><path fill-rule="evenodd" d="M24.497 29.722L36.07 19.145s1.063-.705 2.17-.705c1.062 0 2.172.705 2.172.705l9.578 9.336c.016.017.002 3.538.002 3.538l-24.772-.18-.723-2.116z" class="cls-5"/><path fill-rule="evenodd" d="M50 18v-1h1v1h-1zm-1 1v-1h1v1h-1zm-1 1v-1h1v1h-1zm1-4h1v1h-1v-1zm-1-1h1v1h-1v-1zM5 19H4v-1h1v1zm1 1H5v-1h1v1zm-3-2v-1h1v1H3zm2-2v1H4v-1h1zm1-1v1H5v-1h1z" class="cls-6"/><path fill-rule="evenodd" d="M4.118 29.44l14.115-12.9s1.295-.86 2.647-.86c1.293 0 2.646.86 2.646.86l15.88 15.478H5s-.686-.287-.882-.86c-.24-.703 0-1.72 0-1.72z" class="cls-8"/><path fill-rule="evenodd" d="M54 30v4.03a2 2 0 0 1-2 2H2a2 2 0 0 1-2-2V30" class="cls-4"/><path d="M3 27h25v7H3z" class="cls-10"/><ellipse cx="40" cy="8" class="cls-8" rx="5" ry="4"/><path fill-rule="evenodd" d="M5 30v-1h21v1H5zm13.034 2H5v-1h13.034v1z" class="cls-6"/></svg>