<svg xmlns="http://www.w3.org/2000/svg" width="54" height="36" preserveAspectRatio="xMidYMid" viewBox="0 0 54 36"><path fill-rule="evenodd" d="M2 0h50a2 2 0 0 1 2 2v32.03a2 2 0 0 1-2 2H2a2 2 0 0 1-2-2V2a2 2 0 0 1 2-2z" class="cls-4"/><path fill-rule="evenodd" d="M24.497 29.722L36.07 19.145s1.063-.705 2.17-.705c1.062 0 2.172.705 2.172.705l9.578 9.336c.016.017.002 3.538.002 3.538l-24.772-.18-.723-2.116z" class="cls-5"/><path fill-rule="evenodd" d="M4.118 29.44l14.115-12.9s1.295-.86 2.647-.86c1.293 0 2.646.86 2.646.86l15.88 15.478H5s-.686-.287-.882-.86c-.24-.703 0-1.72 0-1.72z" class="cls-6"/><ellipse cx="39" cy="8" class="cls-6" rx="5" ry="4"/><path fill-rule="evenodd" d="M40 0h12a2 2 0 0 1 2 2v32.03a2 2 0 0 1-2 2H40" class="cls-8"/><path fill-rule="evenodd" d="M43 4V3h8v1h-8zm7.966 2H43V5h7.966v1zM48 8h-5V7h5v1z" class="cls-9"/></svg>