<svg xmlns="http://www.w3.org/2000/svg" xmlns:xlink="http://www.w3.org/1999/xlink" preserveAspectRatio="xMidYMid" width="54" height="36" viewBox="0 0 54 36">
  
  <g id="slide-show-text-bottom">
    <path d="M2.000,-0.000 C2.000,-0.000 52.000,-0.000 52.000,-0.000 C53.105,-0.000 54.000,0.895 54.000,2.000 C54.000,2.000 54.000,34.031 54.000,34.031 C54.000,35.136 53.105,36.031 52.000,36.031 C52.000,36.031 2.000,36.031 2.000,36.031 C0.895,36.031 -0.000,35.136 -0.000,34.031 C-0.000,34.031 -0.000,2.000 -0.000,2.000 C-0.000,0.895 0.895,-0.000 2.000,-0.000 Z" id="path-1" class="cls-4" fill-rule="evenodd"/>
    <path d="M0.000,25.031 C0.000,25.031 0.000,2.000 0.000,2.000 C0.000,0.895 0.896,0.000 2.000,0.000 C2.000,0.000 52.000,0.000 52.000,0.000 C53.104,0.000 54.000,0.895 54.000,2.000 C54.000,2.000 54.000,25.031 54.000,25.031 " id="path-2" class="cls-5" fill-rule="evenodd"/>
    <path d="M29.664,25.000 C29.664,25.000 36.071,19.145 36.071,19.145 C36.071,19.145 37.133,18.440 38.241,18.440 C39.302,18.440 40.412,19.145 40.412,19.145 C40.412,19.145 43.339,21.999 46.418,25.000 C46.418,25.000 29.664,25.000 29.664,25.000 Z" id="path-3" class="cls-6" fill-rule="evenodd"/>
    <path d="M8.975,25.000 C8.975,25.000 18.233,16.539 18.233,16.539 C18.233,16.539 19.528,15.679 20.880,15.679 C22.173,15.679 23.526,16.539 23.526,16.539 C23.526,16.539 32.206,25.000 32.206,25.000 C32.206,25.000 8.975,25.000 8.975,25.000 Z" id="path-4" class="cls-7" fill-rule="evenodd"/>
    <ellipse id="ellipse-1" class="cls-7" cx="40" cy="8" rx="5" ry="4"/>
    <path d="M3.000,29.000 C3.000,29.000 3.000,28.000 3.000,28.000 C3.000,28.000 32.000,28.000 32.000,28.000 C32.000,28.000 32.000,29.000 32.000,29.000 C32.000,29.000 3.000,29.000 3.000,29.000 ZM21.000,32.000 C21.000,32.000 3.000,32.000 3.000,32.000 C3.000,32.000 3.000,31.000 3.000,31.000 C3.000,31.000 21.000,31.000 21.000,31.000 C21.000,31.000 21.000,32.000 21.000,32.000 Z" id="path-5" class="cls-9" fill-rule="evenodd"/>
    <path d="M48.000,28.000 C48.000,28.000 49.000,28.000 49.000,28.000 C49.000,28.000 49.000,29.000 49.000,29.000 C49.000,29.000 50.000,29.000 50.000,29.000 C50.000,29.000 50.000,30.000 50.000,30.000 C50.000,30.000 51.000,30.000 51.000,30.000 C51.000,30.000 51.000,31.000 51.000,31.000 C51.000,31.000 50.000,31.000 50.000,31.000 C50.000,31.000 50.000,32.000 50.000,32.000 C50.000,32.000 49.000,32.000 49.000,32.000 C49.000,32.000 49.000,33.000 49.000,33.000 C49.000,33.000 48.000,33.000 48.000,33.000 C48.000,33.000 48.000,28.000 48.000,28.000 Z" id="path-6" class="cls-9" fill-rule="evenodd"/>
    <path d="M45.000,33.000 C45.000,33.000 44.000,33.000 44.000,33.000 C44.000,33.000 44.000,32.000 44.000,32.000 C44.000,32.000 43.000,32.000 43.000,32.000 C43.000,32.000 43.000,31.000 43.000,31.000 C43.000,31.000 42.000,31.000 42.000,31.000 C42.000,31.000 42.000,30.000 42.000,30.000 C42.000,30.000 43.000,30.000 43.000,30.000 C43.000,30.000 43.000,29.000 43.000,29.000 C43.000,29.000 44.000,29.000 44.000,29.000 C44.000,29.000 44.000,28.000 44.000,28.000 C44.000,28.000 45.000,28.000 45.000,28.000 C45.000,28.000 45.000,33.000 45.000,33.000 Z" id="path-7" class="cls-9" fill-rule="evenodd"/>
  </g>
</svg>
