<svg xmlns="http://www.w3.org/2000/svg" width="54" height="36" preserveAspectRatio="xMidYMid" viewBox="0 0 54 36"><path fill-rule="evenodd" d="M2 0h50a2 2 0 0 1 2 2v32.03a2 2 0 0 1-2 2H2a2 2 0 0 1-2-2V2a2 2 0 0 1 2-2z" class="cls-4"/><path fill-rule="evenodd" d="M24.497 29.722L36.07 19.145s1.063-.705 2.17-.705c1.062 0 2.172.705 2.172.705l9.578 9.336c.016.017.002 3.538.002 3.538l-24.772-.18-.723-2.116z" class="cls-5"/><path fill-rule="evenodd" d="M4.118 29.44l14.115-12.9s1.295-.86 2.647-.86c1.293 0 2.646.86 2.646.86l15.88 15.478H5s-.686-.287-.882-.86c-.24-.703 0-1.72 0-1.72z" class="cls-6"/><path d="M0 26h54v7H0z" class="cls-4"/><ellipse cx="40" cy="7" class="cls-6" rx="5" ry="4"/><path fill-rule="evenodd" d="M3 30v-1h29v1H3zm18 3H3v-1h18v1zM50 17v-1h1v1h-1zm-1 1v-1h1v1h-1zm-1 1v-1h1v1h-1zm1-4h1v1h-1v-1zm-1-1h1v1h-1v-1zM5 18h1v1H5v-1zm-1-1h1v1H4v-1zm-1-1h1v1H3v-1zm2-1v1H4v-1h1zm1-1v1H5v-1h1z" class="cls-9"/></svg>