<svg xmlns="http://www.w3.org/2000/svg" xmlns:xlink="http://www.w3.org/1999/xlink" preserveAspectRatio="xMidYMid" width="54" height="36" viewBox="0 0 54 36">
  
  <g id="text-floating-slide-show">
    <path d="M2.000,-0.000 C2.000,-0.000 52.000,-0.000 52.000,-0.000 C53.105,-0.000 54.000,0.895 54.000,2.000 C54.000,2.000 54.000,34.031 54.000,34.031 C54.000,35.136 53.105,36.031 52.000,36.031 C52.000,36.031 2.000,36.031 2.000,36.031 C0.895,36.031 -0.000,35.136 -0.000,34.031 C-0.000,34.031 -0.000,2.000 -0.000,2.000 C-0.000,0.895 0.895,-0.000 2.000,-0.000 Z" id="path-1" class="cls-4" fill-rule="evenodd"/>
    <path d="M24.497,29.722 C24.497,29.722 36.071,19.145 36.071,19.145 C36.071,19.145 37.133,18.440 38.241,18.440 C39.302,18.440 40.412,19.145 40.412,19.145 C40.412,19.145 46.132,24.721 49.990,28.481 C50.006,28.497 49.992,32.018 49.992,32.018 C49.992,32.018 25.220,31.838 25.220,31.838 C25.220,31.838 24.497,29.722 24.497,29.722 Z" id="path-2" class="cls-5" fill-rule="evenodd"/>
    <path d="M50.000,18.000 C50.000,18.000 50.000,17.000 50.000,17.000 C50.000,17.000 51.000,17.000 51.000,17.000 C51.000,17.000 51.000,18.000 51.000,18.000 C51.000,18.000 50.000,18.000 50.000,18.000 ZM49.000,19.000 C49.000,19.000 49.000,18.000 49.000,18.000 C49.000,18.000 50.000,18.000 50.000,18.000 C50.000,18.000 50.000,19.000 50.000,19.000 C50.000,19.000 49.000,19.000 49.000,19.000 ZM48.000,20.000 C48.000,20.000 48.000,19.000 48.000,19.000 C48.000,19.000 49.000,19.000 49.000,19.000 C49.000,19.000 49.000,20.000 49.000,20.000 C49.000,20.000 48.000,20.000 48.000,20.000 ZM49.000,16.000 C49.000,16.000 50.000,16.000 50.000,16.000 C50.000,16.000 50.000,17.000 50.000,17.000 C50.000,17.000 49.000,17.000 49.000,17.000 C49.000,17.000 49.000,16.000 49.000,16.000 ZM48.000,15.000 C48.000,15.000 49.000,15.000 49.000,15.000 C49.000,15.000 49.000,16.000 49.000,16.000 C49.000,16.000 48.000,16.000 48.000,16.000 C48.000,16.000 48.000,15.000 48.000,15.000 Z" id="path-3" class="cls-6" fill-rule="evenodd"/>
    <path d="M5.000,19.000 C5.000,19.000 4.000,19.000 4.000,19.000 C4.000,19.000 4.000,18.000 4.000,18.000 C4.000,18.000 5.000,18.000 5.000,18.000 C5.000,18.000 5.000,19.000 5.000,19.000 ZM6.000,20.000 C6.000,20.000 5.000,20.000 5.000,20.000 C5.000,20.000 5.000,19.000 5.000,19.000 C5.000,19.000 6.000,19.000 6.000,19.000 C6.000,19.000 6.000,20.000 6.000,20.000 ZM3.000,18.000 C3.000,18.000 3.000,17.000 3.000,17.000 C3.000,17.000 4.000,17.000 4.000,17.000 C4.000,17.000 4.000,18.000 4.000,18.000 C4.000,18.000 3.000,18.000 3.000,18.000 ZM5.000,16.000 C5.000,16.000 5.000,17.000 5.000,17.000 C5.000,17.000 4.000,17.000 4.000,17.000 C4.000,17.000 4.000,16.000 4.000,16.000 C4.000,16.000 5.000,16.000 5.000,16.000 ZM6.000,15.000 C6.000,15.000 6.000,16.000 6.000,16.000 C6.000,16.000 5.000,16.000 5.000,16.000 C5.000,16.000 5.000,15.000 5.000,15.000 C5.000,15.000 6.000,15.000 6.000,15.000 Z" id="path-4" class="cls-6" fill-rule="evenodd"/>
    <path d="M4.118,29.439 C4.118,29.439 18.233,16.539 18.233,16.539 C18.233,16.539 19.528,15.679 20.880,15.679 C22.173,15.679 23.526,16.539 23.526,16.539 C23.526,16.539 39.406,32.018 39.406,32.018 C39.406,32.018 5.000,32.018 5.000,32.018 C5.000,32.018 4.314,31.731 4.118,31.159 C3.878,30.455 4.118,29.439 4.118,29.439 Z" id="path-5" class="cls-8" fill-rule="evenodd"/>
    <path d="M54.000,30.000 C54.000,30.000 54.000,34.031 54.000,34.031 C54.000,35.136 53.104,36.031 52.000,36.031 C52.000,36.031 2.000,36.031 2.000,36.031 C0.896,36.031 0.000,35.136 0.000,34.031 C0.000,34.031 0.000,30.000 0.000,30.000 " id="path-6" class="cls-4" fill-rule="evenodd"/>
    <rect id="rect-1" class="cls-10" x="3" y="27" width="25" height="7"/>
    <ellipse id="ellipse-1" class="cls-8" cx="40" cy="8" rx="5" ry="4"/>
    <path d="M5.000,30.000 C5.000,30.000 5.000,29.000 5.000,29.000 C5.000,29.000 26.000,29.000 26.000,29.000 C26.000,29.000 26.000,30.000 26.000,30.000 C26.000,30.000 5.000,30.000 5.000,30.000 ZM18.034,32.000 C18.034,32.000 5.000,32.000 5.000,32.000 C5.000,32.000 5.000,31.000 5.000,31.000 C5.000,31.000 18.034,31.000 18.034,31.000 C18.034,31.000 18.034,32.000 18.034,32.000 Z" id="path-7" class="cls-6" fill-rule="evenodd"/>
  </g>
</svg>
