<svg xmlns="http://www.w3.org/2000/svg" width="54" height="36" preserveAspectRatio="xMidYMid" viewBox="0 0 54 36"><path fill-rule="evenodd" d="M2 0h50a2 2 0 0 1 2 2v32.03a2 2 0 0 1-2 2H2a2 2 0 0 1-2-2V2a2 2 0 0 1 2-2z" class="cls-4"/><path fill-rule="evenodd" d="M0 25.03V2a2 2 0 0 1 2-2h50a2 2 0 0 1 2 2v23.03" class="cls-5"/><path fill-rule="evenodd" d="M29.664 25l6.407-5.855s1.063-.705 2.17-.705c1.062 0 2.172.705 2.172.705L46.418 25H29.664z" class="cls-6"/><path fill-rule="evenodd" d="M8.975 25l9.258-8.46s1.295-.86 2.647-.86c1.293 0 2.646.86 2.646.86l8.68 8.46H8.976z" class="cls-7"/><ellipse cx="40" cy="8" class="cls-7" rx="5" ry="4"/><path fill-rule="evenodd" d="M3 29v-1h29v1H3zm18 3H3v-1h18v1zM48 28h1v1h1v1h1v1h-1v1h-1v1h-1v-5zM45 33h-1v-1h-1v-1h-1v-1h1v-1h1v-1h1v5z" class="cls-9"/></svg>