<svg xmlns="http://www.w3.org/2000/svg" xmlns:xlink="http://www.w3.org/1999/xlink" preserveAspectRatio="xMidYMid" width="54" height="36" viewBox="0 0 54 36">
  
  <g id="text-on-right-slide-show">
    <path d="M2.000,-0.000 C2.000,-0.000 52.000,-0.000 52.000,-0.000 C53.105,-0.000 54.000,0.895 54.000,2.000 C54.000,2.000 54.000,34.031 54.000,34.031 C54.000,35.136 53.105,36.031 52.000,36.031 C52.000,36.031 2.000,36.031 2.000,36.031 C0.895,36.031 -0.000,35.136 -0.000,34.031 C-0.000,34.031 -0.000,2.000 -0.000,2.000 C-0.000,0.895 0.895,-0.000 2.000,-0.000 Z" id="path-1" class="cls-4" fill-rule="evenodd"/>
    <path d="M24.497,29.722 C24.497,29.722 36.071,19.145 36.071,19.145 C36.071,19.145 37.133,18.440 38.241,18.440 C39.302,18.440 40.412,19.145 40.412,19.145 C40.412,19.145 46.132,24.721 49.990,28.481 C50.006,28.497 49.992,32.018 49.992,32.018 C49.992,32.018 25.220,31.838 25.220,31.838 C25.220,31.838 24.497,29.722 24.497,29.722 Z" id="path-2" class="cls-5" fill-rule="evenodd"/>
    <path d="M4.118,29.439 C4.118,29.439 18.233,16.539 18.233,16.539 C18.233,16.539 19.528,15.679 20.880,15.679 C22.173,15.679 23.526,16.539 23.526,16.539 C23.526,16.539 39.406,32.018 39.406,32.018 C39.406,32.018 5.000,32.018 5.000,32.018 C5.000,32.018 4.314,31.731 4.118,31.159 C3.878,30.455 4.118,29.439 4.118,29.439 Z" id="path-3" class="cls-6" fill-rule="evenodd"/>
    <ellipse id="ellipse-1" class="cls-6" cx="39" cy="8" rx="5" ry="4"/>
    <path d="M40.000,-0.000 C40.000,-0.000 52.000,-0.000 52.000,-0.000 C53.104,-0.000 54.000,0.895 54.000,2.000 C54.000,2.000 54.000,34.031 54.000,34.031 C54.000,35.136 53.104,36.031 52.000,36.031 C52.000,36.031 40.000,36.031 40.000,36.031 " id="path-4" class="cls-8" fill-rule="evenodd"/>
    <path d="M43.000,4.000 C43.000,4.000 43.000,3.000 43.000,3.000 C43.000,3.000 51.000,3.000 51.000,3.000 C51.000,3.000 51.000,4.000 51.000,4.000 C51.000,4.000 43.000,4.000 43.000,4.000 ZM50.966,6.000 C50.966,6.000 43.000,6.000 43.000,6.000 C43.000,6.000 43.000,5.000 43.000,5.000 C43.000,5.000 50.966,5.000 50.966,5.000 C50.966,5.000 50.966,6.000 50.966,6.000 ZM48.000,8.000 C48.000,8.000 43.000,8.000 43.000,8.000 C43.000,8.000 43.000,7.000 43.000,7.000 C43.000,7.000 48.000,7.000 48.000,7.000 C48.000,7.000 48.000,8.000 48.000,8.000 Z" id="path-5" class="cls-9" fill-rule="evenodd"/>
  </g>
</svg>
