<svg xmlns="http://www.w3.org/2000/svg" width="72" height="72" viewBox="0 0 72 72"><path fill="#53CCF9" d="M44 30v22h24l-7-11 7-11H44z"/><path fill="#CAEDFF" d="M5 46h47V24H5v22z"/><path fill="#0099EF" d="M21.768 35.864h4.496l-2.208-5.856-2.288 5.856zm1.728-6.944h1.216l4.48 11.424h-1.168l-1.392-3.552h-5.2l-1.376 3.552h-1.168l4.608-11.424zm6.448 5.696c.053-.97.387-1.675 1-2.112.613-.437 1.395-.656 2.344-.656.363 0 .725.035 1.088.104.363.07.688.2.976.392.288.192.523.46.704.808.18.347.272.797.272 1.352v4.384c0 .405.197.608.592.608.107 0 .213-.02.32-.064v.848a3.038 3.038 0 0 1-.656.064c-.256 0-.46-.035-.616-.104a.827.827 0 0 1-.36-.296 1.11 1.11 0 0 1-.168-.456 3.915 3.915 0 0 1-.04-.584h-.032c-.18.267-.365.504-.552.712a2.718 2.718 0 0 1-1.416.856c-.3.075-.645.112-1.04.112-.384 0-.744-.048-1.08-.144a2.528 2.528 0 0 1-.88-.44 2.066 2.066 0 0 1-.592-.752c-.144-.304-.216-.664-.216-1.08 0-.576.128-1.027.384-1.352a2.416 2.416 0 0 1 1.016-.744c.42-.17.896-.29 1.424-.36.528-.07 1.064-.136 1.608-.2.203-.02.387-.05.552-.088.165-.037.3-.093.408-.168a.722.722 0 0 0 .248-.32c.06-.14.088-.32.088-.544 0-.34-.056-.62-.168-.84a1.328 1.328 0 0 0-.464-.52 1.87 1.87 0 0 0-.688-.264 4.65 4.65 0 0 0-.84-.072c-.63 0-1.15.152-1.56.456-.41.304-.627.792-.648 1.464h-1.008zm5.376 1.216h-.032c-.064.117-.187.203-.368.256-.18.053-.34.09-.48.112-.427.075-.867.14-1.32.2a7.24 7.24 0 0 0-1.24.264c-.373.117-.68.285-.92.504-.24.22-.36.53-.36.936 0 .256.05.483.152.68.1.197.237.368.408.512.17.144.368.253.592.328.224.075.453.112.688.112.384 0 .752-.06 1.104-.176.352-.117.66-.288.92-.512.26-.224.47-.496.624-.816a2.47 2.47 0 0 0 .232-1.088v-1.312zM44 46v6l8-6h-8z"/></svg>