<?xml version="1.0" encoding="UTF-8" standalone="no"?>
<svg width="72px" height="72px" viewBox="0 0 72 72" version="1.1" xmlns="http://www.w3.org/2000/svg"
     xmlns:xlink="http://www.w3.org/1999/xlink">
    <path d="M36.9873304,39.3670022 C36.5464592,37.0752974 34.5706036,35.3464515 32.1977847,35.3464515 C31.8662352,35.3464515 31.5418544,35.3812297 31.2282265,35.4452949 C30.2900311,31.1849572 26.5704045,28 22.1159925,28 C18.0406223,28 14.5844431,30.6678592 13.3057374,34.3827273 C9.2411201,34.570347 6,37.9850237 6,42.1822115 C6,46.500208 9.42660859,50 13.6543124,50 C13.8657872,50 14.0736777,49.9853565 14.2806721,49.9679674 L14.2806721,50 L36.7901929,50 C39.6675047,50 42,47.6176887 42,44.678925 C42,41.8078875 39.772346,39.4740827 36.9873304,39.3670022"
          fill="#CAEDFF"></path>
    <g id="Rainbow" transform="translate(20.000000, 25.000000)">
        <path d="M19.8083,12.1543 C26.8913,12.1543 32.6543,18.0003 32.6543,25.0003 L44.7513,25.0003 C44.7513,12.0003 33.5623,0.0563 19.8083,0.0563 C11.7423,0.0563 4.5623,4.1673 0.0003,10.1873 C4.3353,10.6073 7.9743,13.3763 9.6493,17.2043 C12.0003,14.1543 15.6743,12.1543 19.8083,12.1543"
              fill="#0099EF"></path>
        <path d="M19.8083,12.1543 C26.8913,12.1543 32.6543,18.0003 32.6543,25.0003 L40.7033,25.0003 C40.7033,14.0003 31.3293,4.1053 19.8083,4.1053 C13.5793,4.1053 7.9823,7.0003 4.1513,11.3963 C6.5943,12.6303 8.5473,14.6853 9.6493,17.2043 C12.0003,14.1543 15.6743,12.1543 19.8083,12.1543"
              fill="#00B7F9"></path>
        <path d="M19.8083,12.1543 C26.8913,12.1543 32.6543,18.0003 32.6543,25.0003 L36.6543,25.0003 C36.6543,16.0003 29.0973,8.1543 19.8083,8.1543 C14.8823,8.1543 10.4573,10.3743 7.3743,13.7893 C8.3183,14.7803 9.0923,15.9323 9.6493,17.2043 C12.0003,14.1543 15.6743,12.1543 19.8083,12.1543"
              fill="#53CCF9"></path>
    </g>
</svg>