<svg xmlns="http://www.w3.org/2000/svg" width="72" height="72" viewBox="0 0 72 72"><path fill="#CAEDFF" d="M36.987 39.367c-.44-2.292-2.416-4.02-4.79-4.02-.33 0-.655.034-.97.098C30.29 31.185 26.57 28 22.118 28c-4.076 0-7.533 2.668-8.81 6.383C9.24 34.57 6 37.985 6 42.183 6 46.5 9.427 50 13.654 50c.212 0 .42-.015.627-.032V50h22.51c2.878 0 5.21-2.382 5.21-5.32 0-2.872-2.228-5.206-5.013-5.313"/><path fill="#0099EF" d="M39.808 37.154C46.89 37.154 52.654 43 52.654 50H64.75c0-13-11.188-24.944-24.942-24.944-8.066 0-15.246 4.11-19.808 10.13 4.335.42 7.974 3.19 9.65 7.018 2.35-3.05 6.024-5.05 10.158-5.05"/><path fill="#00B7F9" d="M39.808 37.154C46.89 37.154 52.654 43 52.654 50h8.05c0-11-9.375-20.895-20.896-20.895-6.23 0-11.826 2.895-15.657 7.29a11.828 11.828 0 0 1 5.5 5.81c2.35-3.05 6.024-5.05 10.158-5.05"/><path fill="#53CCF9" d="M39.808 37.154C46.89 37.154 52.654 43 52.654 50h4c0-9-7.557-16.846-16.846-16.846-4.926 0-9.35 2.22-12.434 5.635.944.99 1.718 2.142 2.275 3.414 2.35-3.05 6.024-5.05 10.158-5.05"/></svg>