<svg xmlns="http://www.w3.org/2000/svg" width="72" height="72" viewBox="0 0 72 72"><path fill="#0099EF" d="M22 52c0-7.732-3.58-14-8-14-4.418 0-8 6.268-8 14"/><path fill="#53CCF9" d="M13 42.77C13 45.658 11.21 48 9 48s-4-2.342-4-5.23C5 39.88 9 32 9 32s4 7.88 4 10.77"/><path stroke="#53CCF9" d="M9 52v-6"/><path fill="#0099EF" d="M44 16H22a2 2 0 0 0-2 2v34h26V18a2 2 0 0 0-2-2"/><path fill="#00B7F9" d="M37 16H22a2 2 0 0 0-2 2v34h17V16zM64 23H43a2 2 0 0 0-2 2v27h25V25a2 2 0 0 0-2-2"/><path fill="#53CCF9" d="M58 23H43a2 2 0 0 0-2 2v27h17V23z"/><path fill="#CAEDFF" d="M27 25h-4v-4h4v4zM34 25h-4v-4h4v4zM27 32h-4v-4h4v4zM34 32h-4v-4h4v4zM27 39h-4v-4h4v4zM34 39h-4v-4h4v4zM27 46h-4v-4h4v4zM34 46h-4v-4h4v4zM48 32h-4v-4h4v4zM55 32h-4v-4h4v4zM48 39h-4v-4h4v4zM55 39h-4v-4h4v4zM48 46h-4v-4h4v4zM55 46h-4v-4h4v4z"/></svg>