<?xml version="1.0" encoding="UTF-8" standalone="no"?>
<svg width="72px" height="72px" viewBox="0 0 72 72" version="1.1" xmlns="http://www.w3.org/2000/svg"
     xmlns:xlink="http://www.w3.org/1999/xlink">
    <path d="M22,52 C22,44.268 18.4186166,38 14,38 C9.58241193,38 6,44.268 6,52" fill="#0099EF"></path>
    <path d="M13,42.7695236 C13,45.6583138 11.2091165,48 9.0004502,48 C6.79088351,48 5,45.6583138 5,42.7695236 C5,39.8807334 9.0004502,32 9.0004502,32 C9.0004502,32 13,39.8807334 13,42.7695236"
          fill="#53CCF9"></path>
    <path d="M9,52 L9,46" stroke="#53CCF9"></path>
    <path d="M44,16 L22,16 C20.895,16 20,16.895 20,18 L20,52 L46,52 L46,18 C46,16.895 45.105,16 44,16"
          fill="#0099EF"></path>
    <path d="M37,16 L22,16 C20.895,16 20,16.895 20,18 L20,52 L37,52 L37,16 Z" fill="#00B7F9"></path>
    <path d="M64,23 L43,23 C41.895,23 41,23.895 41,25 L41,52 L66,52 L66,25 C66,23.895 65.105,23 64,23"
          fill="#00B7F9"></path>
    <path d="M58,23 L43,23 C41.895,23 41,23.895 41,25 L41,52 L58,52 L58,23 Z" fill="#53CCF9"></path>
    <path d="M27,25 L23,25 L23,21 L27,21 L27,25 Z" fill="#CAEDFF"></path>
    <path d="M34,25 L30,25 L30,21 L34,21 L34,25 Z" fill="#CAEDFF"></path>
    <path d="M27,32 L23,32 L23,28 L27,28 L27,32 Z" fill="#CAEDFF"></path>
    <path d="M34,32 L30,32 L30,28 L34,28 L34,32 Z" fill="#CAEDFF"></path>
    <path d="M27,39 L23,39 L23,35 L27,35 L27,39 Z" fill="#CAEDFF"></path>
    <path d="M34,39 L30,39 L30,35 L34,35 L34,39 Z" fill="#CAEDFF"></path>
    <path d="M27,46 L23,46 L23,42 L27,42 L27,46 Z" fill="#CAEDFF"></path>
    <path d="M34,46 L30,46 L30,42 L34,42 L34,46 Z" fill="#CAEDFF"></path>
    <path d="M48,32 L44,32 L44,28 L48,28 L48,32 Z" fill="#CAEDFF"></path>
    <path d="M55,32 L51,32 L51,28 L55,28 L55,32 Z" fill="#CAEDFF"></path>
    <path d="M48,39 L44,39 L44,35 L48,35 L48,39 Z" fill="#CAEDFF"></path>
    <path d="M55,39 L51,39 L51,35 L55,35 L55,39 Z" fill="#CAEDFF"></path>
    <path d="M48,46 L44,46 L44,42 L48,42 L48,46 Z" fill="#CAEDFF"></path>
    <path d="M55,46 L51,46 L51,42 L55,42 L55,46 Z" fill="#CAEDFF"></path>
</svg>