<?xml version="1.0" encoding="UTF-8" standalone="no"?>
<svg width="72px" height="72px" viewBox="0 0 72 72" version="1.1" xmlns="http://www.w3.org/2000/svg"
     xmlns:xlink="http://www.w3.org/1999/xlink">
    <path d="M36.1799302,57 C47.678518,57 57,47.5865598 57,36.0461162 C57,27.9422937 52.4005649,20.8889668 45.6818408,17.4223316 C44.2892507,17.1602079 42.8537963,16.9841249 41.3854461,17.0011329 C23.8928393,17.2072301 20.8165808,27.8802645 20.8165808,41.8198397 C20.8165808,53.2542332 15,57 15,57 L36.1799302,57 Z"
          fill="#0099EF"></path>
    <path d="M24,20.1181048 C31.8709986,24.8684091 37.3353259,35.3319967 37.3353259,47.4054422 C37.3353259,50.73868 36.9131721,53.0854517 36.1448127,57 L36.3992886,57 C47.7767283,57 57,47.7929825 57,36.5034252 C57,25.2148466 47.7767283,16 36.3992886,16 C31.7437606,16 27.4502197,17.5335243 24,20.1181048 Z"
          fill="#CAEDFF"></path>
    <path d="M53,23 C53.027,23.038 53.054,23.076 53.081,23.114 C53.054,23.076 53.027,23.038 53,23"
          fill="#4EB7F6"></path>
    <path d="M55,26 C55.016,26.03 55.031,26.062 55.047,26.092 C55.031,26.062 55.016,26.03 55,26" fill="#4EB7F6"></path>
    <path d="M57,31 C57.02,31.088 57.042,31.175 57.061,31.263 C57.042,31.175 57.02,31.088 57,31" fill="#4EB7F6"></path>
    <path d="M55,27 C55.037,27.08 55.073,27.16 55.109,27.241 C55.073,27.16 55.037,27.08 55,27" fill="#4EB7F6"></path>
    <path d="M56,30 C56.03,30.101 56.058,30.202 56.086,30.303 C56.058,30.202 56.03,30.101 56,30" fill="#4EB7F6"></path>
    <path d="M54,25 C54.02,25.032 54.041,25.062 54.06,25.094 C54.041,25.062 54.02,25.031 54,25" fill="#4EB7F6"></path>
    <path d="M57,33 C57.013,33.09 57.022,33.181 57.034,33.272 C57.022,33.181 57.013,33.09 57,33" fill="#4EB7F6"></path>
    <path d="M51,21 C51.019,21.02 51.039,21.041 51.058,21.061 C51.039,21.041 51.019,21.02 51,21" fill="#4EB7F6"></path>
    <path d="M57,34 C57.01,34.122 57.02,34.244 57.028,34.367 C57.02,34.244 57.01,34.122 57,34" fill="#4EB7F6"></path>
    <path d="M36,57 C36.086,57.001 36.172,57 36.258,57 C36.172,57 36.087,57.001 36,57 L36,57 Z" fill="#D3EDFF"></path>
    <path d="M54,25 C54.238,25.383 54.464,25.774 54.677,26.173 C54.464,25.774 54.238,25.383 54,25"
          fill="#D3EDFF"></path>
    <path d="M46,17 C48.092,18.076 49.979,19.495 51.587,21.182 C49.979,19.494 48.093,18.076 46,17"
          fill="#D3EDFF"></path>
    <path d="M51,21 C51.623,21.659 52.203,22.358 52.737,23.094 C52.204,22.358 51.623,21.659 51,21"
          fill="#D3EDFF"></path>
    <path d="M53,24 C53.243,24.339 53.475,24.685 53.698,25.039 C53.475,24.685 53.242,24.339 53,24"
          fill="#D3EDFF"></path>
    <path d="M56,30 C56.097,30.345 56.185,30.693 56.264,31.044 C56.185,30.693 56.097,30.345 56,30"
          fill="#D3EDFF"></path>
    <path d="M57,34 C57.028,34.446 57.048,34.894 57.048,35.346 C57.048,34.894 57.028,34.446 57,34"
          fill="#D3EDFF"></path>
    <path d="M57,33 C57.047,33.355 57.086,33.712 57.115,34.072 C57.086,33.712 57.047,33.355 57,33"
          fill="#D3EDFF"></path>
    <path d="M55,26 C55.186,26.353 55.361,26.713 55.528,27.078 C55.362,26.713 55.186,26.353 55,26"
          fill="#D3EDFF"></path>
    <path d="M55,27 C55.351,27.794 55.653,28.615 55.903,29.457 C55.653,28.615 55.35,27.795 55,27" fill="#D3EDFF"></path>
    <path d="M57,31 C57.09,31.425 57.167,31.855 57.231,32.289 C57.167,31.855 57.09,31.425 57,31" fill="#D3EDFF"></path>
    <path d="M36.4943237,55.1854248 C43.1113281,52.5917969 46.927002,46.1784234 47,38 C46.927002,29.2079708 42.4722293,22 34.4200154,22 C32.5024315,22 30.67699,22.4198978 29,23.1619499 C34.0995649,28.7642439 37.3358075,37.0774218 37.3358075,46.3670365 C37.3358075,49.0051116 36.4943237,55.1854248 36.4943237,55.1854248 Z"
          fill="#53CCF9"></path>
    <path d="M47,35.5 C47,44.0600733 41.8507904,51 35.4995073,51 C29.1482243,51 24,44.0600733 24,35.5 C24,26.9399267 29.1482243,20 35.4995073,20 C41.8507904,20 47,26.9399267 47,35.5"
          fill="#CAEDFF"></path>
    <path d="M53.9674852,25.1551681 C50.3004443,19.0667172 43.668945,15 36.0966655,15 C26.2935361,15 16,22.6926965 16,33.7536012 C21.9129034,33.7536012 32.9370454,33.7161991 39.6185861,33.7536012 C43.8500952,37.6171342 45.5985451,46.2125347 45.5985451,52.4283548 C45.5985451,53.299722 45.5394962,54.1569371 45.4384123,55 C52.2920959,51.5347485 57,44.3818549 57,36.1129644 C57,32.100834 55.8920812,28.3495072 53.9674852,25.1551681"
          fill="#00B7F9"></path>
    <path d="M29,38 C29,38.5526992 28.5518423,39 28,39 C27.4473008,39 27,38.5526992 27,38 C27,37.4473008 27.4473008,37 28,37 C28.5518423,37 29,37.4473008 29,38"
          fill="#0099EF"></path>
    <path d="M37,38 C37,38.5526992 36.5518423,39 36,39 C35.4473008,39 35,38.5526992 35,38 C35,37.4473008 35.4473008,37 36,37 C36.5518423,37 37,37.4473008 37,38"
          fill="#0099EF"></path>
    <path d="M29,44 C29.626,44.8395203 30.1736309,46 32.501,46 C34.8283691,46 35.377,44.8395203 36.003,44"
          fill="#0099EF"></path>
</svg>