<?xml version="1.0" encoding="UTF-8" standalone="no"?>
<svg width="72px" height="72px" viewBox="0 0 72 72" version="1.1" xmlns="http://www.w3.org/2000/svg"
     xmlns:xlink="http://www.w3.org/1999/xlink">
    <path d="M43.9997,30.0004 L43.9997,41.0004 L43.9997,52.0004 L67.9997,52.0004 L60.9997,41.0004 L67.9997,30.0004 L43.9997,30.0004 Z"
          fill="#53CCF9"></path>
    <path d="M5,46 L52,46 L52,24 L5,24 L5,46 Z" fill="#CAEDFF"></path>
    <path d="M21.768,35.8639941 L26.264,35.8639941 L24.056,30.0079941 L21.768,35.8639941 Z M23.496,28.9199941 L24.712,28.9199941 L29.192,40.3439941 L28.024,40.3439941 L26.632,36.7919941 L21.432,36.7919941 L20.056,40.3439941 L18.888,40.3439941 L23.496,28.9199941 Z M29.944,34.6159941 C29.9973336,33.6453226 30.3306636,32.9413297 30.944,32.5039941 C31.5573364,32.0666586 32.3386619,31.8479941 33.288,31.8479941 C33.6506685,31.8479941 34.0133315,31.8826605 34.376,31.9519941 C34.7386685,32.0213278 35.0639986,32.1519932 35.352,32.3439941 C35.6400014,32.5359951 35.8746658,32.8053257 36.056,33.1519941 C36.2373342,33.4986625 36.328,33.9493247 36.328,34.5039941 L36.328,38.8879941 C36.328,39.2933295 36.5253314,39.4959941 36.92,39.4959941 C37.0266672,39.4959941 37.1333328,39.474661 37.24,39.4319941 L37.24,40.2799941 C37.1226661,40.3013276 37.0186671,40.3173274 36.928,40.3279941 C36.8373329,40.3386609 36.7226674,40.3439941 36.584,40.3439941 C36.3279987,40.3439941 36.1226674,40.3093278 35.968,40.2399941 C35.8133326,40.1706605 35.6933338,40.0719948 35.608,39.9439941 C35.5226662,39.8159935 35.4666668,39.663995 35.44,39.4879941 C35.4133332,39.3119933 35.4,39.1173285 35.4,38.9039941 L35.368,38.9039941 C35.1866658,39.1706621 35.0026676,39.4079931 34.816,39.6159941 C34.6293324,39.8239952 34.4213345,39.9999934 34.192,40.1439941 C33.9626655,40.2879949 33.6986682,40.3973271 33.4,40.4719941 C33.1013318,40.5466612 32.7546686,40.5839941 32.36,40.5839941 C31.9759981,40.5839941 31.6160017,40.5359946 31.28,40.4399941 C30.9439983,40.3439937 30.6506679,40.1973285 30.4,39.9999941 C30.1493321,39.8026598 29.9520007,39.5519957 29.808,39.2479941 C29.6639993,38.9439926 29.592,38.5839962 29.592,38.1679941 C29.592,37.5919913 29.7199987,37.1413291 29.976,36.8159941 C30.2320013,36.4906592 30.5706646,36.2426617 30.992,36.0719941 C31.4133354,35.9013266 31.8879974,35.7813278 32.416,35.7119941 C32.9440026,35.6426605 33.4799973,35.5759945 34.024,35.5119941 C34.2266677,35.4906607 34.4106658,35.4613277 34.576,35.4239941 C34.7413342,35.3866606 34.8773328,35.3306612 34.984,35.2559941 C35.0906672,35.1813271 35.173333,35.0746615 35.232,34.9359941 C35.290667,34.7973268 35.32,34.6159953 35.32,34.3919941 C35.32,34.0506591 35.2640006,33.7706619 35.152,33.5519941 C35.0399994,33.3333264 34.8853343,33.1599948 34.688,33.0319941 C34.4906657,32.9039935 34.2613346,32.8159944 34,32.7679941 C33.7386654,32.7199939 33.4586682,32.6959941 33.16,32.6959941 C32.5306635,32.6959941 32.0106687,32.8479926 31.6,33.1519941 C31.1893313,33.4559957 30.9733334,33.9439908 30.952,34.6159941 L29.944,34.6159941 Z M35.32,35.8319941 L35.288,35.8319941 C35.2239997,35.9493281 35.1013342,36.0346605 34.92,36.0879941 C34.7386658,36.1413277 34.5786674,36.1786607 34.44,36.1999941 C34.0133312,36.2746612 33.5733356,36.3413272 33.12,36.3999941 C32.6666644,36.4586611 32.2533352,36.5466602 31.88,36.6639941 C31.5066648,36.7813281 31.2000012,36.9493264 30.96,37.1679941 C30.7199988,37.3866619 30.6,37.6986588 30.6,38.1039941 C30.6,38.3599954 30.6506662,38.5866598 30.752,38.7839941 C30.8533338,38.9813285 30.9893325,39.1519934 31.16,39.2959941 C31.3306675,39.4399949 31.5279989,39.5493271 31.752,39.6239941 C31.9760011,39.6986612 32.2053322,39.7359941 32.44,39.7359941 C32.8240019,39.7359941 33.1919982,39.6773281 33.544,39.5599941 C33.8960018,39.4426602 34.2026654,39.2719953 34.464,39.0479941 C34.7253346,38.823993 34.9333326,38.5519957 35.088,38.2319941 C35.2426674,37.9119925 35.32,37.5493295 35.32,37.1439941 L35.32,35.8319941 Z"
          fill="#0099EF"></path>
    <path d="M43.9997,45.9997 L43.9997,51.9997 L51.9997,45.9997 L43.9997,45.9997 Z" fill="#0099EF"></path>
</svg>