<?xml version="1.0" encoding="UTF-8" standalone="no"?>
<svg width="72px" height="72px" viewBox="0 0 72 72" version="1.1" xmlns="http://www.w3.org/2000/svg"
     xmlns:xlink="http://www.w3.org/1999/xlink">
    <path d="M24.2583,30.9894 C24.2583,30.9894 28.7063,30.8864 31.7453,32.8634 C34.7853,34.8414 35.1133,38.0514 35.1133,38.0514 C35.1133,38.0514 32.0453,39.0524 29.0063,37.0744 C25.9663,35.0974 24.2583,30.9894 24.2583,30.9894"
          fill="#00B7F9"></path>
    <path d="M46.5471,32.2558 C46.5471,32.2558 45.9151,35.8548 43.8341,37.9848 C41.7531,40.1158 39.1151,39.8638 39.1151,39.8638 C39.1151,39.8638 38.8021,37.2318 40.8831,35.1018 C42.9641,32.9718 46.5471,32.2558 46.5471,32.2558"
          fill="#00B7F9"></path>
    <path d="M35.493,45.7563 C37.267,40.1543 37.64,29.9783 35.493,23.3493" fill="none" stroke="#00B7F9"></path>
    <path d="M42.649,61 L29.428,61 C28.332,61 27.393,60.2457308 27.197,59.2086106 L25.268,49 L46.795,49 L44.881,59.2057244 C44.686,60.2447687 43.746,61 42.649,61"
          fill="#CAEDFF"></path>
    <path d="M47.0798,44 L24.9998,44 C23.8958,44 22.9998,44.9031282 22.9998,46.0181635 L22.9998,49 L49.0798,49 L49.0798,46.0181635 C49.0798,44.9031282 48.1848,44 47.0798,44"
          fill="#53CCF9"></path>
    <path d="M29.388,23.6087 C27.248,23.6087 25.513,22.0607 25.513,20.1517 C25.513,18.2427 27.248,16.6947 29.388,16.6947 C31.528,16.6947 39.143,20.1517 39.143,20.1517 C39.143,20.1517 31.528,23.6087 29.388,23.6087"
          fill="#0099EF"></path>
    <path d="M41.558,16.6952 C43.698,16.6952 45.433,18.2432 45.433,20.1522 C45.433,22.0612 43.698,23.6092 41.558,23.6092 C39.418,23.6092 31.803,20.1522 31.803,20.1522 C31.803,20.1522 39.418,16.6952 41.558,16.6952"
          fill="#0099EF"></path>
    <path d="M38.9297,26.2369 C38.9297,28.3769 37.3817,30.1119 35.4727,30.1119 C33.5637,30.1119 32.0157,28.3769 32.0157,26.2369 C32.0157,24.0969 35.4727,16.4819 35.4727,16.4819 C35.4727,16.4819 38.9297,24.0969 38.9297,26.2369"
          fill="#0099EF"></path>
    <path d="M32.0162,14.0669 C32.0162,11.9269 33.5642,10.1919 35.4732,10.1919 C37.3822,10.1919 38.9302,11.9269 38.9302,14.0669 C38.9302,16.2069 35.4732,23.8219 35.4732,23.8219 C35.4732,23.8219 32.0162,16.2069 32.0162,14.0669"
          fill="#0099EF"></path>
    <path d="M28.7259,18.2935 C27.2129,16.7805 27.0809,14.4595 28.4309,13.1095 C29.7799,11.7595 32.1009,11.8915 33.6149,13.4045 C35.1279,14.9185 38.0679,22.7465 38.0679,22.7465 C38.0679,22.7465 30.2389,19.8065 28.7259,18.2935"
          fill="#53CCF9"></path>
    <path d="M42.22,22.0104 C43.733,23.5234 43.865,25.8444 42.515,27.1944 C41.166,28.5444 38.845,28.4124 37.331,26.8994 C35.818,25.3854 32.878,17.5574 32.878,17.5574 C32.878,17.5574 40.707,20.4974 42.22,22.0104"
          fill="#53CCF9"></path>
    <path d="M33.6145,26.899 C32.1015,28.412 29.7805,28.544 28.4305,27.194 C27.0805,25.845 27.2125,23.524 28.7255,22.01 C30.2395,20.497 38.0675,17.557 38.0675,17.557 C38.0675,17.557 35.1275,25.386 33.6145,26.899"
          fill="#53CCF9"></path>
    <path d="M37.3314,13.4049 C38.8444,11.8919 41.1654,11.7599 42.5154,13.1099 C43.8654,14.4589 43.7334,16.7799 42.2204,18.2939 C40.7064,19.8069 32.8784,22.7469 32.8784,22.7469 C32.8784,22.7469 35.8184,14.9179 37.3314,13.4049"
          fill="#53CCF9"></path>
    <path d="M38.3308,17.4502 C39.8658,18.9852 39.8658,21.4742 38.3308,23.0102 C36.7958,24.5452 34.3068,24.5452 32.7708,23.0102 C31.2358,21.4742 31.2358,18.9852 32.7708,17.4502 C34.3068,15.9152 36.7958,15.9152 38.3308,17.4502"
          fill="#FFFFFF"></path>
</svg>