<svg xmlns="http://www.w3.org/2000/svg" width="72" height="72" viewBox="0 0 72 72"><path fill="#0099EF" d="M36.18 57C47.68 57 57 47.587 57 36.046a20.95 20.95 0 0 0-11.318-18.624c-1.393-.262-2.828-.438-4.297-.42-17.492.205-20.568 10.878-20.568 24.818C20.817 53.254 15 57 15 57h21.18z"/><path fill="#CAEDFF" d="M24 20.118c7.87 4.75 13.335 15.214 13.335 27.287 0 3.334-.422 5.68-1.19 9.595h.254C47.776 57 57 47.793 57 36.503 57 25.215 47.777 16 36.4 16A20.61 20.61 0 0 0 24 20.118z"/><path fill="#4EB7F6" d="M53 23l.08.114L53 23M55 26c.016.03.03.062.047.092-.016-.03-.03-.062-.047-.092M57 31c.02.088.042.175.06.263-.018-.088-.04-.175-.06-.263M56 30c.03.1.058.202.086.303-.028-.1-.056-.202-.086-.303M54 25l.06.094L54 25M57 33c.013.09.022.18.034.272-.012-.09-.02-.182-.034-.272M51 21l.058.06L51 21M57 34c.01.122.02.244.028.367-.008-.123-.018-.245-.028-.367"/><path fill="#D3EDFF" d="M36 57h.258H36zM57 31"/><path fill="#53CCF9" d="M36.494 55.185C43.11 52.592 46.927 46.178 47 38c-.073-8.792-4.528-16-12.58-16-1.918 0-3.743.42-5.42 1.162 5.1 5.602 8.336 13.915 8.336 23.205 0 2.638-.842 8.818-.842 8.818z"/><path fill="#CAEDFF" d="M47 35.5C47 44.06 41.85 51 35.5 51 29.148 51 24 44.06 24 35.5 24 26.94 29.148 20 35.5 20 41.85 20 47 26.94 47 35.5"/><path fill="#00B7F9" d="M53.967 25.155C50.3 19.067 43.67 15 36.097 15 26.294 15 16 22.693 16 33.754c5.913 0 16.937-.038 23.62 0 4.23 3.863 5.98 12.46 5.98 18.674 0 .872-.06 1.73-.162 2.572A21.13 21.13 0 0 0 57 36.113c0-4.012-1.108-7.763-3.033-10.958"/><path fill="#0099EF" d="M29 38a1 1 0 1 1-2 0 1 1 0 0 1 2 0M37 38a1 1 0 1 1-2 0 1 1 0 0 1 2 0M29 44c.626.84 1.174 2 3.5 2 2.328 0 2.877-1.16 3.503-2"/></svg>