<svg xmlns="http://www.w3.org/2000/svg" width="72" height="72" viewBox="0 0 72 72"><path fill="#00B7F9" d="M24.258 30.99s4.448-.104 7.487 1.873c3.04 1.978 3.368 5.188 3.368 5.188s-3.068 1.002-6.107-.976c-3.04-1.977-4.748-6.085-4.748-6.085M46.547 32.256s-.632 3.6-2.713 5.73c-2.08 2.13-4.72 1.878-4.72 1.878s-.312-2.632 1.77-4.762c2.08-2.13 5.663-2.846 5.663-2.846"/><path fill="none" stroke="#00B7F9" d="M35.493 45.756c1.774-5.602 2.147-15.778 0-22.407"/><path fill="#CAEDFF" d="M42.65 61H29.427c-1.096 0-2.035-.754-2.23-1.79L25.267 49h21.527L44.88 59.206C44.687 60.246 43.747 61 42.65 61"/><path fill="#53CCF9" d="M47.08 44H25c-1.104 0-2 .903-2 2.018V49h26.08v-2.982a2.01 2.01 0 0 0-2-2.018"/><path fill="#0099EF" d="M29.388 23.61c-2.14 0-3.875-1.55-3.875-3.458 0-1.91 1.735-3.457 3.875-3.457 2.14 0 9.755 3.457 9.755 3.457s-7.615 3.457-9.755 3.457"/><path fill="#0099EF" d="M41.558 16.695c2.14 0 3.875 1.548 3.875 3.457 0 1.91-1.735 3.457-3.875 3.457-2.14 0-9.755-3.458-9.755-3.458s7.615-3.457 9.755-3.457"/><path fill="#0099EF" d="M38.93 26.237c0 2.14-1.548 3.875-3.457 3.875-1.91 0-3.457-1.735-3.457-3.875 0-2.14 3.457-9.755 3.457-9.755s3.457 7.615 3.457 9.755"/><path fill="#0099EF" d="M32.016 14.067c0-2.14 1.548-3.875 3.457-3.875 1.91 0 3.457 1.735 3.457 3.875 0 2.14-3.457 9.755-3.457 9.755s-3.457-7.615-3.457-9.755"/><path fill="#53CCF9" d="M28.726 18.294c-1.513-1.514-1.645-3.835-.295-5.184 1.35-1.35 3.67-1.218 5.185.295 1.513 1.514 4.453 9.342 4.453 9.342s-7.83-2.94-9.342-4.453"/><path fill="#53CCF9" d="M42.22 22.01c1.513 1.513 1.645 3.834.295 5.184s-3.67 1.218-5.184-.295c-1.512-1.515-4.452-9.343-4.452-9.343s7.83 2.94 9.342 4.453"/><path fill="#53CCF9" d="M33.614 26.9c-1.512 1.512-3.833 1.644-5.183.294-1.35-1.35-1.218-3.67.296-5.184 1.514-1.513 9.342-4.453 9.342-4.453s-2.94 7.83-4.453 9.342"/><path fill="#53CCF9" d="M37.33 13.405c1.514-1.513 3.835-1.645 5.185-.295 1.35 1.35 1.218 3.67-.295 5.184-1.514 1.513-9.342 4.453-9.342 4.453s2.94-7.83 4.453-9.342"/><path fill="#FFF" d="M38.33 17.45"/></svg>