<svg width="66px" height="58px" viewBox="0 0 66 58" version="1.1" xmlns="http://www.w3.org/2000/svg" xmlns:xlink="http://www.w3.org/1999/xlink">
  <path d="M53,45 C53,47.209 51.209,49 49,49 L9,49 C6.791,49 5,47.209 5,45 L5,12 C5,9.791 6.791,8 9,8 L49,8 C51.209,8 53,9.791 53,12 L53,45 Z" fill="#A7E3FA"></path>
  <path d="M48,16 C48,17.105 47.105,18 46,18 C44.895,18 44,17.105 44,16 C44,14.895 44.895,14 46,14 C47.105,14 48,14.895 48,16" fill="#3899EB"></path>
  <path d="M56,36 L53,36 L53,22 L56,22 L56,36 Z" fill="#4DB6F4"></path>
  <path d="M56,38 L58,38 L58,20 L56,20 L56,38 Z" fill="#2B81CB"></path>
  <path d="M58,20 L58,38 L63.832,39.985 C64.501,40.174 65,39.676 65,38.987 L65,18.063 C65,17.322 64.405,16.82 63.715,17.107 L58,20 Z" fill="#4DB6F4"></path>
  <path d="M5,22.6693 L5,15.3343 L2.602,13.3633 C1.915,12.8203 1,13.3093 1,14.1853 L1,23.8763 C1,24.7593 1.929,25.2463 2.614,24.6893 L5,22.6693 Z" fill="#4DB6F4"></path>
  <path d="M44,57 L37.612,57 L33.403,49 L44,49 L44,57 Z" fill="#4DB6F4"></path>
  <path d="M37,17 L12,17 L12,16 L37,16 L37,17 Z" fill="#FFFFFF"></path>
  <path d="M38,24 C38,22.895 37.105,22 36,22 L14,22 C12.895,22 12,22.895 12,24 L12,40 C12,41.105 12.895,42 14,42 L36,42 C37.105,42 38,41.105 38,40 L38,24 Z" fill="#3899EB"></path>
  <path d="M36,22 L28.035,22 C27.504,23.513 27.647,25.173 28.438,26.573 C28.6,26.861 28.791,27.138 29.003,27.393 L24.384,31.223 C23.946,30.695 23.553,30.124 23.214,29.526 C21.91,27.215 21.46,24.566 21.875,22 L19.121,22 C18.205,29.27 22.942,36.186 30.238,37.835 C32.914,38.44 35.578,38.241 38,37.424 L38,34.385 C36.184,35.2 34.204,35.536 32.21,35.35 L32.767,29.377 C34.828,29.569 36.898,28.489 38,26.745 L38,24 C38,22.895 37.105,22 36,22" fill="#2B81CB"></path>        
</svg>