<svg xmlns="http://www.w3.org/2000/svg" width="66" height="58" viewBox="0 0 66 58"><path fill="#A7E3FA" d="M45.815 51.598c-.14-3.46.513-5.84.513-5.84 1.328-4.232.28-7.115.28-7.115-1.644-4.615-1.61-5.43-1.61-5.43C44.72 29.24 46.89 27 46.89 27s-2.168-2.24-1.89-6.212c0 0-.034-.817 1.61-5.43 0 0 1.048-2.885-.28-7.117 0 0-.65-2.364-.514-5.808v-.03l-.015-.006h-.027c-2.913.16-4.914-.604-4.914-.604-3.58-1.564-6.02-.33-6.02-.33-3.904 1.936-4.595 1.895-4.595 1.895-3.36.33-5.255-2.224-5.255-2.224s-1.895 2.553-5.255 2.224c0 0-.69.04-4.595-1.894 0 0-2.44-1.235-6.02.33 0 0-2.01.768-4.94.603l.006.005v.032c.135 3.444-.513 5.81-.513 5.81-1.328 4.23-.28 7.114-.28 7.114 1.643 4.615 1.608 5.432 1.608 5.432C5.28 24.758 3.115 27 3.115 27S5.28 29.24 5 33.21c0 0 .036.818-1.606 5.433 0 0-1.05 2.883.28 7.115 0 0 .652 2.38.512 5.84l-.005.006c2.93-.165 4.94.604 4.94.604 3.58 1.564 6.02.33 6.02.33 3.904-1.936 4.595-1.895 4.595-1.895 3.36-.33 5.255 2.223 5.255 2.223s1.895-2.552 5.255-2.223c0 0 .69-.04 4.594 1.894 0 0 2.44 1.235 6.02-.33 0 0 2-.763 4.913-.604h.026l.015-.005z"/><path fill="#D3EDFF" d="M9 7h32v40H9V7z"/><path fill="#2B81CB" d="M30.79 29.308l-5.624-14.85h-.073l-5.845 14.85H30.79zm-4.815-16.43L36.34 39.12h-1.728l-3.307-8.418H18.733l-3.345 8.418H13.66l10.55-26.245h1.765z"/><path fill="#4DB6F4" d="M63.06 57H42.94c-1.07 0-1.94-.893-1.94-1.996V30c0-1.102.87-1.996 1.94-1.996h20.12c1.072 0 1.94.894 1.94 1.996v25.004C65 56.107 64.132 57 63.06 57"/><path fill="#3899EB" d="M63 55.004H43V30h20v25.004z"/><path fill="#FFF" d="M50.458 46.88c.213.323.542.484.987.484.444 0 .897-.238 1.36-.718.612-.627 1.102-1.42 1.473-2.377.055-.24.162-.817.32-1.73.156-.91.29-1.66.402-2.252-.055-.7-.25-1.307-.583-1.822-.334-.517-.75-.776-1.25-.776-.908 0-1.64.808-2.195 2.42a15.36 15.36 0 0 0-.834 5.044c0 .828.107 1.404.32 1.726M56.806 48c-1.63 0-2.52-.71-2.667-2.13-.816 1.42-1.844 2.13-3.085 2.13-1.24 0-2.227-.373-2.958-1.12-.732-.745-1.097-1.79-1.097-3.137 0-2.1.518-3.748 1.555-4.947C49.592 37.6 50.935 37 52.583 37c1.352 0 2.25.636 2.695 1.907.092-.552.195-1.105.305-1.658 1.37-.002 2.39-.056 3.056-.167l.36-.084-1.916 10.447c.555-.055 1.018-.314 1.39-.774l.415.33c-.556.666-1.25.996-2.084.996"/></svg>