<svg xmlns="http://www.w3.org/2000/svg" width="66" height="58" viewBox="0 0 66 58"><path fill="#3899EB" d="M28 12l-1.406-2.11A2 2 0 0 0 24.93 9H12.07a2 2 0 0 0-1.664.89L9 12H6a2 2 0 0 0-2 2v36a4 4 0 0 0 4 4h49a4 4 0 0 0 4-4V14a2 2 0 0 0-2-2H28z"/><path fill="#5FCEF6" d="M59.25 30.486L22.407 49.62a1 1 0 0 1-1.305-.545L10.38 18.97a1 1 0 0 1 .545-1.304L47.768 2.533a1 1 0 0 1 1.304.545l10.723 26.104a1 1 0 0 1-.545 1.305"/><path fill="#A7E3FA" d="M56.07 28.23l-43.884 7.6a1 1 0 0 1-1.156-.816L8.17 18.5a1 1 0 0 1 .816-1.155l43.882-7.6a1 1 0 0 1 1.156.816l2.86 16.514a1 1 0 0 1-.815 1.156"/><path fill="#FFF" d="M56 49H9a1 1 0 0 1-1-1V18a1 1 0 0 1 1-1h47a1 1 0 0 1 1 1v30a1 1 0 0 1-1 1"/><path fill="#5FCEF6" d="M41.406 22.89L40 25H4v25a4 4 0 0 0 4 4h49a4 4 0 0 0 4-4V22H43.07a2 2 0 0 0-1.664.89"/><path fill="#FFF" d="M56 28H45v-1h11v1zM56 30H45v-1h11v1zM56 32H45v-1h11v1z"/></svg>