<svg xmlns="http://www.w3.org/2000/svg" width="66" height="58" viewBox="0 0 66 58"><path fill="#A7E3FA" d="M61 50a4 4 0 0 1-4 4H8a4 4 0 0 1-4-4V10a4 4 0 0 1 4-4h49a4 4 0 0 1 4 4v40z"/><path fill="#FFF" d="M32 50c11.046 0 20-8.954 20-20s-8.954-20-20-20-20 8.954-20 20 8.954 20 20 20"/><path fill="#4DB6F4" d="M13 47a2 2 0 1 1-4 0 2 2 0 0 1 4 0"/><path fill="#A7E3FA" d="M60.778 48.83c0 .13-.01.257-.02.385h.02v-.386z"/><path fill="#2B81CB" d="M45.435 16.565c7.42 7.42 7.42 19.45 0 26.87-7.42 7.42-19.45 7.42-26.87 0-7.42-7.42-7.42-19.45 0-26.87 7.42-7.42 19.45-7.42 26.87 0"/><path fill="#A7E3FA" d="M3.683 49.215h.02a4.938 4.938 0 0 1-.02-.386v.385z"/><path fill="#3899EB" d="M26.538 24.32a7.827 7.827 0 0 1 3.648-2.06L27.67 11.52a18.888 18.888 0 0 0-9.105 5.045 18.88 18.88 0 0 0-5.045 9.1l10.897 2.548a7.836 7.836 0 0 1 2.12-3.892M50.48 34.33l-10.74-2.516a7.833 7.833 0 0 1-5.953 5.77l2.547 10.896a18.883 18.883 0 0 0 9.1-5.045c2.6-2.6 4.27-5.77 5.047-9.106"/><path fill="#FFF" d="M45.164 33.58l-.834-.3 6.626-18.353.834.3-6.626 18.354z"/><path fill="#FFF" d="M43.24 37.6a1.33 1.33 0 0 1-.8-1.702l1.507-4.17a1.33 1.33 0 0 1 2.503.903l-1.505 4.17a1.33 1.33 0 0 1-1.703.8"/><path fill="#4DB6F4" d="M54.82 14.018a3 3 0 1 1-5.642-2.038 3 3 0 0 1 5.643 2.038"/><path fill="#E9F6FF" d="M37.657 24.343A8 8 0 1 1 26.34 35.657a8 8 0 0 1 11.317-11.314"/><path fill="#3899EB" d="M32.707 29.293a1 1 0 1 1-1.414 1.414 1 1 0 1 1 1.414-1.414"/></svg>