<svg xmlns="http://www.w3.org/2000/svg" width="66" height="58" viewBox="0 0 66 58"><path fill="#A7E3FA" d="M15 7.657l1.78 3.076c.627 1.085 2.095 1.362 3.047.546 3.384-2.9 7.78-4.667 12.525-4.667 4.86 0 9.364 1.848 12.78 4.875.962.85 2.46.612 3.102-.498L50 7.936C45.364 3.636 39.15 1 32.352 1A25.91 25.91 0 0 0 15 7.657"/><path fill="none" stroke="#4EB7F6" stroke-width="2" d="M57 38.5V26.824C57 12.838 45.986 1.5 32 1.5S7 12.838 7 26.824V38.5"/><path fill="none" stroke="#A7E3FA" d="M11 48v3.5a5 5 0 0 0 10 0V41a3.5 3.5 0 0 1 7 0v8.5a3 3 0 0 0 6 0v-1a3 3 0 0 1 3-3h6" stroke-linecap="round"/><path fill="#5FCEF6" d="M12 51.5h-2v-4h2v4z"/><path fill="#3899EB" d="M58 32c1 0 2 2.015 2 4.5S59 41 58 41v-9z"/><path fill="#5FCEF6" d="M55.042 24.888C54.836 24.688 54 24 54 24v24s.836-.69 1.042-.888C57.05 45.165 58 43.692 58 41V31c0-2.693-.95-4.165-2.958-6.112"/><path fill="#3899EB" d="M51 24a4 4 0 0 0-4 4v16a4 4 0 0 0 4 4h3V24h-3zM6 41c-1 0-2-2.015-2-4.5S5 32 6 32v9z"/><path fill="#5FCEF6" d="M8.958 47.112C9.164 47.312 10 48 10 48V24s-.836.69-1.042.888C6.95 26.835 6 28.308 6 31v10c0 2.693.95 4.165 2.958 6.112"/><path fill="#3899EB" d="M13 48a4 4 0 0 0 4-4V28a4 4 0 0 0-4-4h-3v24h3z"/><path fill="#5FCEF6" d="M52.66 25.5c.137 0 .256.03.383.046a1.154 1.154 0 0 0-.383-.046"/></svg>