<svg width="66px" height="58px" viewBox="0 0 66 58" version="1.1" xmlns="http://www.w3.org/2000/svg" xmlns:xlink="http://www.w3.org/1999/xlink">
  <path d="M45.8147,51.5983 C45.6747,48.1373 46.3277,45.7583 46.3277,45.7583 C47.6557,41.5263 46.6067,38.6433 46.6067,38.6433 C44.9637,34.0283 44.9987,33.2123 44.9987,33.2123 C44.7197,29.2403 46.8867,27.0003 46.8867,27.0003 C46.8867,27.0003 44.7197,24.7603 44.9987,20.7883 C44.9987,20.7883 44.9637,19.9713 46.6067,15.3573 C46.6067,15.3573 47.6557,12.4733 46.3277,8.2413 C46.3277,8.2413 45.6787,5.8763 45.8137,2.4323 C45.8147,2.4223 45.8147,2.4123 45.8147,2.4013 L45.7987,2.3963 C45.7897,2.3963 45.7817,2.3963 45.7727,2.3973 C42.8597,2.5563 40.8587,1.7923 40.8587,1.7923 C37.2787,0.2283 34.8387,1.4633 34.8387,1.4633 C30.9357,3.3983 30.2447,3.3573 30.2447,3.3573 C26.8847,3.6863 24.9897,1.1333 24.9897,1.1333 C24.9897,1.1333 23.0947,3.6863 19.7347,3.3573 C19.7347,3.3573 19.0437,3.3983 15.1397,1.4633 C15.1397,1.4633 12.7007,0.2283 9.1207,1.7923 C9.1207,1.7923 7.1087,2.5613 4.1807,2.3963 L4.1857,2.4013 C4.1857,2.4123 4.1857,2.4223 4.1867,2.4323 C4.3207,5.8763 3.6727,8.2413 3.6727,8.2413 C2.3447,12.4733 3.3937,15.3563 3.3937,15.3563 C5.0357,19.9713 5.0007,20.7883 5.0007,20.7883 C5.2807,24.7593 3.1137,27.0003 3.1137,27.0003 C3.1137,27.0003 5.2807,29.2393 5.0007,33.2113 C5.0007,33.2113 5.0357,34.0283 3.3937,38.6433 C3.3937,38.6433 2.3447,41.5263 3.6727,45.7583 C3.6727,45.7583 4.3257,48.1373 4.1857,51.5983 L4.1807,51.6043 C7.1087,51.4393 9.1207,52.2083 9.1207,52.2083 C12.7007,53.7723 15.1397,52.5373 15.1397,52.5373 C19.0437,50.6023 19.7347,50.6433 19.7347,50.6433 C23.0947,50.3143 24.9897,52.8663 24.9897,52.8663 C24.9897,52.8663 26.8847,50.3143 30.2447,50.6433 C30.2447,50.6433 30.9357,50.6023 34.8387,52.5373 C34.8387,52.5373 37.2787,53.7723 40.8587,52.2083 C40.8587,52.2083 42.8597,51.4443 45.7727,51.6033 C45.7817,51.6033 45.7897,51.6033 45.7987,51.6043 L45.8147,51.5983 Z" fill="#A7E3FA"></path>
  <path d="M9,7 L41,7 L41,47 L9,47 L9,7 Z" fill="#D3EDFF"></path>
  <path d="M30.7896,29.3081 L25.1656,14.4571 L25.0926,14.4571 L19.2476,29.3081 L30.7896,29.3081 Z M25.9746,12.8771 L36.3406,39.1221 L34.6116,39.1221 L31.3046,30.7041 L18.7326,30.7041 L15.3876,39.1221 L13.6596,39.1221 L24.2096,12.8771 L25.9746,12.8771 Z" fill="#2B81CB"></path>
  <path d="M63.0606,57 L42.9396,57 C41.8686,57 40.9996,56.107 40.9996,55.004 L40.9996,30 C40.9996,28.898 41.8686,28.004 42.9396,28.004 L63.0606,28.004 C64.1316,28.004 64.9996,28.898 64.9996,30 L64.9996,55.004 C64.9996,56.107 64.1316,57 63.0606,57" fill="#4DB6F4"></path>
  <path d="M63,55.004 L43,55.004 L43,30 L63,30 L63,55.004 Z" fill="#3899EB"></path>
  <path d="M50.4578,46.8805 C50.6708,47.2035 50.9998,47.3645 51.4448,47.3645 C51.8888,47.3645 52.3418,47.1255 52.8058,46.6455 C53.4168,46.0195 53.9068,45.2275 54.2778,44.2685 C54.3328,44.0295 54.4398,43.4535 54.5968,42.5415 C54.7538,41.6295 54.8888,40.8785 54.9998,40.2885 C54.9448,39.5885 54.7498,38.9805 54.4168,38.4655 C54.0828,37.9485 53.6668,37.6905 53.1668,37.6905 C52.2588,37.6905 51.5278,38.4975 50.9718,40.1095 C50.4158,41.7215 50.1378,43.4025 50.1378,45.1535 C50.1378,45.9825 50.2448,46.5585 50.4578,46.8805 M56.8058,47.9995 C55.1758,47.9995 54.2868,47.2905 54.1388,45.8715 C53.3238,47.2905 52.2958,47.9995 51.0548,47.9995 C49.8148,47.9995 48.8278,47.6275 48.0968,46.8805 C47.3648,46.1345 46.9998,45.0885 46.9998,43.7435 C46.9998,41.6435 47.5178,39.9945 48.5548,38.7965 C49.5918,37.5995 50.9348,36.9995 52.5828,36.9995 C53.9348,36.9995 54.8338,37.6355 55.2778,38.9075 C55.3698,38.3545 55.4728,37.8015 55.5828,37.2485 C56.9538,37.2485 57.9728,37.1935 58.6388,37.0825 L58.9998,36.9995 L57.0838,47.4465 C57.6388,47.3925 58.1018,47.1335 58.4728,46.6735 L58.8888,47.0045 C58.3338,47.6685 57.6388,47.9995 56.8058,47.9995" fill="#FFFFFF"></path>
</svg>