<svg xmlns="http://www.w3.org/2000/svg" width="66" height="58" viewBox="0 0 66 58"><path fill="#2B81CB" d="M42 10H22l2.642-3.168c.516-.66 1.32-.832 2.17-.832h10.376c.85 0 1.654.17 2.17.832L42 10z"/><path fill="#4DB6F4" d="M61 48a6 6 0 0 1-6 6H10a6 6 0 0 1-6-6V16a6 6 0 0 1 6-6h45a6 6 0 0 1 6 6v32z"/><path fill="#D3EDFF" d="M61 42H4V22h57v20z"/><path fill="#FFF" d="M32.177 47C40.364 47 47 40.282 47 31.995c0-8.286-6.636-15.004-14.823-15.004C23.99 16.99 17 23.714 17 32c0 8.287 6.99 15 15.177 15M56 16a2 2 0 0 1-2 2h-4a2 2 0 0 1 0-4h4a2 2 0 0 1 2 2zM13 16a2 2 0 1 1-4 0 2 2 0 0 1 4 0"/><path fill="#2B81CB" d="M44 32.02C44 38.66 38.546 44 32 44s-12-5.36-12-12 5.454-12 12-12 12 5.382 12 12.02"/><path fill="#4DB6F4" d="M39 32a7 7 0 1 1-14 0 7 7 0 0 1 14 0"/></svg>