<svg width="66px" height="58px" viewBox="0 0 66 58" version="1.1" xmlns="http://www.w3.org/2000/svg" xmlns:xlink="http://www.w3.org/1999/xlink">
  <path d="M15,7.65742702 L16.7795922,10.7328909 C17.406967,11.8178124 18.8749021,12.095374 19.8271311,11.2788971 C23.2106912,8.37868205 27.6084056,6.61302543 32.3522928,6.61302543 C37.2119094,6.61302543 41.7162166,8.46073493 45.1322621,11.4875749 C46.0936276,12.3384937 47.5910027,12.100439 48.233605,10.9901925 L50,7.93600164 C45.3637207,3.63683544 39.149868,1 32.3522928,1 C25.7009021,1 19.6027787,3.5213536 15,7.65742702" fill="#A7E3FA"></path>
  <path d="M57,38.5 L57,26.824 C57,12.838 45.986,1.5 32,1.5 C18.014,1.5 7,12.838 7,26.824 L7,38.5" fill="none" stroke="#4EB7F6" stroke-width="2"></path>
  <path d="M11,48 L11,51.5 C11,54.261 13.239,56.5 16,56.5 L16,56.5 C18.761,56.5 21,54.261 21,51.5 L21,41 C21,39.067 22.567,37.5 24.5,37.5 L24.5,37.5 C26.433,37.5 28,39.067 28,41 L28,49.5 C28,51.157 29.343,52.5 31,52.5 L31,52.5 C32.657,52.5 34,51.157 34,49.5 L34,48.5 C34,46.843 35.343,45.5 37,45.5 L43,45.5" fill="none" stroke="#A7E3FA" stroke-linecap="round"></path>
  <path d="M12,51.5 L10,51.5 L10,47.5 L12,47.5 L12,51.5 Z" fill="#5FCEF6"></path>
  <path d="M58,32 C59,32 60,34.015 60,36.5 C60,38.985 59,41 58,41 L58,32 Z" fill="#3899EB"></path>
  <path d="M55.0418,24.888 C54.8358,24.688 53.9998,24 53.9998,24 L53.9998,36 L53.9998,48 C53.9998,48 54.8358,47.311 55.0418,47.112 C57.0498,45.165 57.9998,43.693 57.9998,41 L57.9998,36 L57.9998,31 C57.9998,28.307 57.0498,26.835 55.0418,24.888" fill="#5FCEF6"></path>
  <path d="M51,24 C48.791,24 47,25.791 47,28 L47,36 L47,44 C47,46.209 48.791,48 51,48 L54,48 L54,36 L54,24 L51,24 Z"  fill="#3899EB"></path>
  <path d="M6,41 C5,41 4,38.985 4,36.5 C4,34.015 5,32 6,32 L6,41 Z" fill="#3899EB"></path>
  <path d="M8.9582,47.112 C9.1642,47.312 10.0002,48 10.0002,48 L10.0002,36 L10.0002,24 C10.0002,24 9.1642,24.689 8.9582,24.888 C6.9502,26.835 6.0002,28.307 6.0002,31 L6.0002,36 L6.0002,41 C6.0002,43.693 6.9502,45.165 8.9582,47.112" fill="#5FCEF6"></path>
  <path d="M13,48 C15.209,48 17,46.209 17,44 L17,36 L17,28 C17,25.791 15.209,24 13,24 L10,24 L10,36 L10,48 L13,48 Z" fill="#3899EB"></path>
  <path d="M52.6597,25.5 C52.7967,25.5 52.9157,25.531 53.0427,25.546 C52.9547,25.517 52.8547,25.5 52.6597,25.5" fill="#5FCEF6"></path>
</svg>