<svg width="66px" height="58px" viewBox="0 0 66 58" version="1.1" xmlns="http://www.w3.org/2000/svg" xmlns:xlink="http://www.w3.org/1999/xlink">
  <path d="M28,12 L26.594,9.891 C26.223,9.334 25.598,9 24.93,9 L12.07,9 C11.402,9 10.777,9.334 10.406,9.891 L9,12 L6,12 C4.895,12 4,12.895 4,14 L4,50 C4,52.209 5.791,54 8,54 L57,54 C59.209,54 61,52.209 61,50 L61,14 C61,12.895 60.105,12 59,12 L28,12 Z" fill="#3899EB"></path>
  <path d="M59.2503,30.4865 L22.4073,49.6195 C21.8963,49.8295 21.3123,49.5855 21.1023,49.0745 L10.3803,18.9705 C10.1703,18.4595 10.4143,17.8755 10.9253,17.6655 L47.7683,2.5325 C48.2783,2.3225 48.8633,2.5665 49.0723,3.0775 L59.7953,29.1815 C60.0053,29.6925 59.7613,30.2765 59.2503,30.4865" fill="#5FCEF6"></path>
  <path d="M56.0688,28.2303 L12.1858,35.8293 C11.6418,35.9233 11.1248,35.5593 11.0298,35.0143 L8.1708,18.5013 C8.0768,17.9573 8.4408,17.4403 8.9858,17.3453 L52.8678,9.7463 C53.4118,9.6523 53.9298,10.0173 54.0238,10.5613 L56.8838,27.0743 C56.9778,27.6183 56.6128,28.1363 56.0688,28.2303" fill="#A7E3FA"></path>
  <path d="M56,49 L9,49 C8.448,49 8,48.552 8,48 L8,18 C8,17.448 8.448,17 9,17 L56,17 C56.552,17 57,17.448 57,18 L57,48 C57,48.552 56.552,49 56,49" fill="#FFFFFF"></path>
  <path d="M41.4063,22.8906 L40.0003,24.9996 L4.0003,24.9996 L4.0003,49.9996 C4.0003,52.2096 5.7913,53.9996 8.0003,53.9996 L57.0003,53.9996 C59.2093,53.9996 61.0003,52.2096 61.0003,49.9996 L61.0003,21.9996 L43.0703,21.9996 C42.4013,21.9996 41.7773,22.3346 41.4063,22.8906" fill="#5FCEF6"></path>
  <path d="M56,28 L45,28 L45,27 L56,27 L56,28 Z" fill="#FFFFFF"></path>
  <path d="M56,30 L45,30 L45,29 L56,29 L56,30 Z" fill="#FFFFFF"></path>
  <path d="M56,32 L45,32 L45,31 L56,31 L56,32 Z" fill="#FFFFFF"></path>
</svg>