<svg xmlns="http://www.w3.org/2000/svg" width="66" height="58" viewBox="0 0 66 58"><path fill="#A7E3FA" d="M53 45a4 4 0 0 1-4 4H9a4 4 0 0 1-4-4V12a4 4 0 0 1 4-4h40a4 4 0 0 1 4 4v33z"/><path fill="#3899EB" d="M48 16a2 2 0 1 1-4 0 2 2 0 0 1 4 0"/><path fill="#4DB6F4" d="M56 36h-3V22h3v14z"/><path fill="#2B81CB" d="M56 38h2V20h-2v18z"/><path fill="#4DB6F4" d="M58 20v18l5.832 1.985c.67.19 1.168-.31 1.168-.998V18.063c0-.74-.595-1.243-1.285-.956L58 20zM5 22.67v-7.336l-2.398-1.97C1.915 12.82 1 13.308 1 14.183v9.692c0 .883.93 1.37 1.614.813L5 22.67zM44 57h-6.388l-4.21-8H44v8z"/><path fill="#FFF" d="M37 17H12v-1h25v1z"/><path fill="#3899EB" d="M38 24a2 2 0 0 0-2-2H14a2 2 0 0 0-2 2v16a2 2 0 0 0 2 2h22a2 2 0 0 0 2-2V24z"/><path fill="#2B81CB" d="M36 22h-7.965a5.543 5.543 0 0 0 .968 5.393l-4.62 3.83A11.538 11.538 0 0 1 21.874 22h-2.752c-.915 7.27 3.822 14.186 11.118 15.835 2.676.605 5.34.406 7.762-.41v-3.04a11.488 11.488 0 0 1-5.79.965l.557-5.973c2.06.192 4.13-.888 5.233-2.632V24a2 2 0 0 0-2-2"/></svg>