<svg width="66px" height="58px" viewBox="0 0 66 58" version="1.1" xmlns="http://www.w3.org/2000/svg" xmlns:xlink="http://www.w3.org/1999/xlink">
  <path d="M42,10 L22,10 L24.642,6.832 C25.158,6.171 25.961,6 26.812,6 L37.188,6 C38.039,6 38.842,6.171 39.358,6.832 L42,10 Z" fill="#2B81CB"></path>
  <path d="M61,48 C61,51.314 58.314,54 55,54 L10,54 C6.686,54 4,51.314 4,48 L4,16 C4,12.686 6.686,10 10,10 L55,10 C58.314,10 61,12.686 61,16 L61,48 Z" fill="#4DB6F4"></path>
  <path d="M61,42 L4,42 L4,22 L61,22 L61,42 Z" fill="#D3EDFF"></path>
  <path d="M32.1767,47 C40.3637,47 46.9997,40.282 46.9997,31.995 C46.9997,23.709 40.3637,16.991 32.1767,16.991 C23.9897,16.991 16.9997,23.713 16.9997,32 C16.9997,40.287 23.9897,47 32.1767,47" fill="#FFFFFF"></path>
  <path d="M56,16 C56,17.105 55.105,18 54,18 L50,18 C48.895,18 48,17.105 48,16 L48,16 C48,14.895 48.895,14 50,14 L54,14 C55.105,14 56,14.895 56,16 L56,16 Z" fill="#FFFFFF"></path>
  <path d="M13,16 C13,17.105 12.105,18 11,18 C9.895,18 9,17.105 9,16 C9,14.895 9.895,14 11,14 C12.105,14 13,14.895 13,16" fill="#FFFFFF"></path>
  <path d="M44,32.0211 C44,38.6601 38.546,44.0001 32,44.0001 C25.454,44.0001 20,38.6391 20,32.0001 C20,25.3611 25.454,20.0001 32,20.0001 C38.546,20.0001 44,25.3821 44,32.0211" fill="#2B81CB"></path>
  <path d="M39,32 C39,35.866 35.866,39 32,39 C28.134,39 25,35.866 25,32 C25,28.134 28.134,25 32,25 C35.866,25 39,28.134 39,32" fill="#4DB6F4"></path>
</svg>