<svg width="66px" height="58px" viewBox="0 0 66 58" version="1.1" xmlns="http://www.w3.org/2000/svg" xmlns:xlink="http://www.w3.org/1999/xlink">
  <path d="M61,50 C61,52.209 59.209,54 57,54 L8,54 C5.791,54 4,52.209 4,50 L4,10 C4,7.791 5.791,6 8,6 L57,6 C59.209,6 61,7.791 61,10 L61,50 Z" fill="#A7E3FA"></path>
  <path d="M32,50 C43.046,50 52,41.046 52,30 C52,18.954 43.046,10 32,10 C20.954,10 12,18.954 12,30 C12,41.046 20.954,50 32,50" fill="#FFFFFF"></path>
  <path d="M13,47 C13,48.105 12.105,49 11,49 C9.895,49 9,48.105 9,47 C9,45.895 9.895,45 11,45 C12.105,45 13,45.895 13,47" fill="#4DB6F4"></path>
  <path d="M60.7778,48.829 C60.7778,48.959 60.7688,49.087 60.7578,49.215 L60.7778,49.215 L60.7778,48.829 Z" fill="#A7E3FA"></path>
  <path d="M45.435,16.565 C52.855,23.985 52.855,36.015 45.435,43.435 C38.015,50.855 25.985,50.855 18.565,43.435 C11.145,36.015 11.145,23.985 18.565,16.565 C25.985,9.145 38.015,9.145 45.435,16.565" fill="#2B81CB"></path>
  <path d="M3.6826,49.2147 L3.7016,49.2147 C3.6916,49.0867 3.6826,48.9587 3.6826,48.8287 L3.6826,49.2147 Z" fill="#A7E3FA"></path>
  <path d="M26.5378,24.3209 C27.5828,23.2759 28.8498,22.5949 30.1858,22.2599 L27.6708,11.5189 C24.3358,12.2969 21.1648,13.9649 18.5648,16.5649 C15.9658,19.1639 14.2978,22.3319 13.5198,25.6659 L24.4168,28.2129 C24.7268,26.7869 25.4298,25.4289 26.5378,24.3209" fill="#3899EB"></path>
  <path d="M50.4813,34.3287 L39.7403,31.8137 C39.4053,33.1497 38.7243,34.4177 37.6793,35.4617 C36.5703,36.5707 35.2133,37.2727 33.7873,37.5827 L36.3343,48.4797 C39.6673,47.7017 42.8363,46.0337 45.4353,43.4347 C48.0353,40.8347 49.7033,37.6647 50.4813,34.3287" fill="#3899EB"></path>
  <path d="M45.1638,33.5808 L44.3298,33.2798 L50.9558,14.9268 L51.7898,15.2278 L45.1638,33.5808 Z" fill="#FFFFFF" ></path>
  <path d="M43.2408,37.6013 L43.2408,37.6013 C42.5498,37.3513 42.1918,36.5893 42.4408,35.8983 L43.9468,31.7273 C44.1968,31.0363 44.9588,30.6783 45.6508,30.9273 L45.6508,30.9273 C46.3418,31.1773 46.6998,31.9393 46.4498,32.6303 L44.9438,36.8013 C44.6948,37.4933 43.9318,37.8513 43.2408,37.6013" fill="#FFFFFF"></path>
  <path d="M54.821,14.0185 C54.259,15.5765 52.54,16.3835 50.982,15.8205 C49.424,15.2585 48.617,13.5395 49.179,11.9815 C49.742,10.4235 51.461,9.6165 53.019,10.1795 C54.577,10.7415 55.383,12.4605 54.821,14.0185" fill="#4DB6F4"></path>
  <path d="M37.6569,24.3431 C40.7809,27.4671 40.7809,32.5331 37.6569,35.6571 C34.5329,38.7811 29.4669,38.7811 26.3429,35.6571 C23.2189,32.5331 23.2189,27.4671 26.3429,24.3431 C29.4669,21.2191 34.5329,21.2191 37.6569,24.3431" fill="#E9F6FF"></path>
  <path d="M32.7071,29.2929 C33.0981,29.6839 33.0981,30.3169 32.7071,30.7069 C32.3161,31.0979 31.6831,31.0979 31.2931,30.7069 C30.9021,30.3169 30.9021,29.6839 31.2931,29.2929 C31.6831,28.9019 32.3161,28.9019 32.7071,29.2929" fill="#3899EB"></path>
</svg>