<svg xmlns="http://www.w3.org/2000/svg" width="72" height="72" viewBox="0 0 72 72"><path d="M53 49a2 2 0 0 1-2 2H23a2 2 0 0 1-2-2V28a2 2 0 0 1 2-2h28a2 2 0 0 1 2 2v21" class="st2"/><path d="M31.153 41.4c-.29 0-.588.106-.827.31L24 48h12.797l-4.794-6.197a1.067 1.067 0 0 0-.85-.404" class="st3"/><path d="M50 48l-6.408-9.676c-.402-.532-1.168-.55-1.68-.122L31 48h19" class="st4"/><path d="M29.5 32.5a2 2 0 1 1-4 0 2 2 0 0 1 4 0" class="st5"/><path d="M60.353 15.353l-.706-.707L55 19.293V17h-1v4h4v-1h-2.293l4.646-4.647" class="st6"/><path d="M19 17v2.293l-4.647-4.647-.706.707L18.293 20H16v1h4v-4h-1" class="st7"/><path d="M60.353 60.646L55.707 56H58v-1h-4v4h1v-2.293l4.647 4.647.706-.708" class="st8"/><path d="M16 55v1h2.293l-4.646 4.646.706.708L19 56.707V59h1v-4h-4" class="st9"/></svg>