<svg xmlns="http://www.w3.org/2000/svg" width="72" height="72" viewBox="0 0 72 72"><path d="M51 45.5a2 2 0 0 1-2 2H23a2 2 0 0 1-2-2v-19a2 2 0 0 1 2-2h26a2 2 0 0 1 2 2v19" class="st2"/><path d="M30.928 38.936c-.23 0-.46.08-.65.24l-6.21 5.324h11.75l-4.105-5.185a.997.997 0 0 0-.785-.38" class="st3"/><path d="M47.797 44.5l-6.164-8.162a1 1 0 0 0-1.44-.165l-9.97 8.327h17.574" class="st4"/><path d="M29.5 31a2 2 0 1 1-4 0 2 2 0 0 1 4 0" class="st5"/><path d="M10 35.5h9v1h-9v-1z" class="st6"/><path d="M14 39.5h5v1h-5v-1z" class="st7"/><path d="M14 31.5h5v1h-5v-1z" class="st8"/></svg>