<svg xmlns="http://www.w3.org/2000/svg" width="72" height="72" viewBox="0 0 72 72"><path d="M54 36h9v1h-9v-1z" class="st2"/><path d="M54 40h5v1h-5v-1z" class="st3"/><path d="M54 32h5v1h-5v-1z" class="st4"/><path d="M52 46a2 2 0 0 1-2 2H24a2 2 0 0 1-2-2V27a2 2 0 0 1 2-2h26a2 2 0 0 1 2 2v19" class="st5"/><path d="M31.928 39.436c-.23 0-.46.08-.65.24L25.068 45h11.75l-4.105-5.185a.997.997 0 0 0-.785-.38" class="st6"/><path d="M48.797 45l-6.164-8.162a1 1 0 0 0-1.44-.165L31.224 45h17.574" class="st7"/><path d="M30.5 31.5a2 2 0 1 1-4 0 2 2 0 0 1 4 0" class="st8"/><path d="M25.578 40.444c-6.847.192-16.605-.45-16.853-2.49-.097-.802 2.248-2.288 7.588-2.937l1.156-.14-1.974 2.517.787.618 3.138-4.003-4.002-3.14-.617.788 2.803 2.196-1.412.17c-5.356.652-8.676 2.24-8.458 4.05.365 3.007 10.14 3.405 15.28 3.405 1.147 0 2.065-.02 2.595-.036l-.03-1" class="st9"/></svg>