<svg xmlns="http://www.w3.org/2000/svg" width="72" height="72" viewBox="0 0 72 72"><path d="M45 17H31a2 2 0 0 0-2 2v6h8l9 9v14h6a2 2 0 0 0 2-2V26h-8a1 1 0 0 1-1-1v-8" class="st2"/><path d="M45 17v8a1 1 0 0 0 1 1h8l-9-9" class="st3"/><path d="M25 50h17v2H25v-2zm4-25h-6a2 2 0 0 0-2 2v27a2 2 0 0 0 2 2h21a2 2 0 0 0 2-2v-6H25v-2h4v-2h-4v-2h4V25z" class="st4"/><path d="M37 25h-8v17h5v2h-5v2h13v2H31h15V34h-8a1 1 0 0 1-1-1v-8" class="st5"/><path d="M37 25v8a1 1 0 0 0 1 1h8l-9-9" class="st6"/><path d="M29 46h-4v2h6a2 2 0 0 1-2-2" class="st7"/><path d="M42 46H29a2 2 0 0 0 2 2h11v-2" class="st8"/><path d="M25 50h17v2H25v-2z" class="st9"/><path d="M25 42h4v2h-4v-2z" class="st10"/><path d="M29 42h5v2h-5v-2z" class="st11"/></svg>