<svg width="72px" height="72px" viewBox="0 0 72 72" version="1.1" xmlns="http://www.w3.org/2000/svg" xmlns:xlink="http://www.w3.org/1999/xlink">
	<path class="st2" d="M45,17 L31,17 C29.895,17 29,17.895 29,19 L29,25 L37,25 L46,34 L46,48 L52,48 C53.105,48 54,47.105 54,46 L54,26 L46,26 C45.448,26 45,25.552 45,25 L45,17"></path>
	<path class="st3" d="M45,17 L45,25 C45,25.552 45.448,26 46,26 L54,26 L45,17"></path>
	<path class="st4" d="M25,50 L42,50 L42,52 L25,52 L25,50 Z M29,25 L23,25 C21.895,25 21,25.895 21,27 L21,54 C21,55.105 21.895,56 23,56 L44,56 C45.105,56 46,55.105 46,54 L46,48 L25,48 L25,46 L29,46 L29,44 L25,44 L25,42 L29,42 L29,25 L29,25 Z"></path>
	<path class="st5" d="M37,25 L29,25 L29,42 L34,42 L34,44 L29,44 L29,46 L42,46 L42,48 L31,48 L46,48 L46,34 L38,34 C37.448,34 37,33.552 37,33 L37,25"></path>
	<path class="st6" d="M37,25 L37,33 C37,33.552 37.448,34 38,34 L46,34 L37,25"></path>
	<path class="st7" d="M29,46 L25,46 L25,48 L31,48 C29.895,48 29,47.105 29,46"></path>
	<path class="st8" d="M42,46 L29,46 C29,47.105 29.895,48 31,48 L42,48 L42,46"></path>
	<path class="st9" d="M25,50 L42,50 L42,52 L25,52 L25,50 Z"></path>
	<path class="st10" d="M25,42 L29,42 L29,44 L25,44 L25,42 Z"></path>
	<path class="st11" d="M29,42 L34,42 L34,44 L29,44 L29,42 Z"></path>
</svg>