<svg width="72px" height="72px" viewBox="0 0 72 72" version="1.1" xmlns="http://www.w3.org/2000/svg" xmlns:xlink="http://www.w3.org/1999/xlink">
	<path class="st2" d="M8,36 L17,36 L17,37 L8,37 L8,36 Z"></path>
	<path class="st3" d="M12,40 L17,40 L17,41 L12,41 L12,40 Z"></path>
	<path class="st4" d="M12,32 L17,32 L17,33 L12,33 L12,32 Z"></path>
	<path class="st5" d="M49,46 C49,47.104 48.105,48 47,48 L21,48 C19.895,48 19,47.104 19,46 L19,27 C19,25.895 19.895,25 21,25 L47,25 C48.105,25 49,25.895 49,27 L49,46"></path>
	<path class="st6" d="M28.928,39.436 C28.698,39.436 28.467,39.515 28.278,39.677 L22.068,45 L33.817,45 L29.713,39.815 C29.515,39.565 29.223,39.436 28.928,39.436"></path>
	<path class="st7" d="M45.797,45 L39.633,36.838 C39.289,36.382 38.633,36.307 38.194,36.673 L28.223,45 L45.797,45"></path>
	<path class="st8" d="M27.5,31.5 C27.5,32.605 26.605,33.5 25.5,33.5 C24.395,33.5 23.5,32.605 23.5,31.5 C23.5,30.395 24.395,29.5 25.5,29.5 C26.605,29.5 27.5,30.395 27.5,31.5"></path>
	<path class="st9" d="M61.181,35.534 C59.669,34.852 57.543,34.33 55.031,34.025 L53.62,33.854 L56.422,31.658 L55.805,30.871 L51.802,34.009 L54.94,38.012 L55.727,37.394 L53.754,34.877 L54.91,35.017 C57.323,35.31 59.349,35.805 60.77,36.445 C62.104,37.049 62.537,37.619 62.497,37.952 C62.25,39.995 52.492,40.638 45.645,40.444 L45.615,41.444 C46.146,41.459 47.063,41.479 48.21,41.479 C53.353,41.479 63.125,41.081 63.489,38.073 C63.568,37.426 63.231,36.46 61.181,35.534"></path>
</svg>
