<svg width="72px" height="72px" viewBox="0 0 72 72" version="1.1" xmlns="http://www.w3.org/2000/svg" xmlns:xlink="http://www.w3.org/1999/xlink">
	<path class="st2" d="M53,49 C53,50.105 52.105,51 51,51 L23,51 C21.896,51 21,50.105 21,49 L21,28 C21,26.895 21.896,26 23,26 L51,26 C52.105,26 53,26.895 53,28 L53,49"></path>
	<path class="st3" d="M31.153,41.399 C30.863,41.399 30.565,41.506 30.326,41.711 L24,48 L36.797,48 L32.003,41.803 C31.787,41.53 31.474,41.399 31.153,41.399"></path>
	<path class="st4" d="M50,48 L43.592,38.324 C43.19,37.792 42.424,37.774 41.911,38.202 L31,48 L50,48"></path>
	<path class="st5" d="M29.5,32.5 C29.5,33.605 28.605,34.5 27.5,34.5 C26.395,34.5 25.5,33.605 25.5,32.5 C25.5,31.395 26.395,30.5 27.5,30.5 C28.605,30.5 29.5,31.395 29.5,32.5"></path>
	<path class="st6" d="M60.353,15.353 L59.647,14.646 L55,19.293 L55,17 L54,17 L54,21 L58,21 L58,20 L55.707,20 L60.353,15.353"></path>
	<path class="st7" d="M19,17 L19,19.293 L14.353,14.646 L13.647,15.353 L18.293,20 L16,20 L16,21 L20,21 L20,17 L19,17"></path>
	<path class="st8" d="M60.353,60.646 L55.707,56 L58,56 L58,55 L54,55 L54,59 L55,59 L55,56.707 L59.647,61.354 L60.353,60.646"></path>
	<path class="st9" d="M16,55 L16,56 L18.293,56 L13.647,60.646 L14.353,61.354 L19,56.707 L19,59 L20,59 L20,55 L16,55"></path>
</svg>