<svg width="72px" height="72px" viewBox="0 0 72 72" version="1.1" xmlns="http://www.w3.org/2000/svg" xmlns:xlink="http://www.w3.org/1999/xlink">
	<path class="st2" d="M51,45.5 C51,46.604 50.105,47.5 49,47.5 L23,47.5 C21.895,47.5 21,46.604 21,45.5 L21,26.5 C21,25.395 21.895,24.5 23,24.5 L49,24.5 C50.105,24.5 51,25.395 51,26.5 L51,45.5"></path>
	<path class="st3" d="M30.928,38.936 C30.698,38.936 30.467,39.015 30.278,39.177 L24.068,44.5 L35.817,44.5 L31.713,39.315 C31.515,39.065 31.223,38.936 30.928,38.936"></path>
	<path class="st4" d="M47.797,44.5 L41.633,36.338 C41.289,35.882 40.633,35.807 40.194,36.173 L30.223,44.5 L47.797,44.5"></path>
	<path class="st5" d="M29.5,31 C29.5,32.105 28.605,33 27.5,33 C26.395,33 25.5,32.105 25.5,31 C25.5,29.895 26.395,29 27.5,29 C28.605,29 29.5,29.895 29.5,31"></path>
	<path class="st6" d="M10,35.5 L19,35.5 L19,36.5 L10,36.5 L10,35.5 Z"></path>
	<path class="st7" d="M14,39.5 L19,39.5 L19,40.5 L14,40.5 L14,39.5 Z"></path>
	<path class="st8" d="M14,31.5 L19,31.5 L19,32.5 L14,32.5 L14,31.5 Z"></path>
</svg>