<svg xmlns="http://www.w3.org/2000/svg" width="72" height="72" viewBox="0 0 72 72"><path d="M47.372 50.235a2 2 0 0 1-2.41 1.48L19.676 45.65a2 2 0 0 1-1.48-2.41l4.43-18.477a2 2 0 0 1 2.412-1.48l25.283 6.063a2 2 0 0 1 1.48 2.41l-4.43 18.477" class="st2"/><path d="M29.15 39.145a.994.994 0 0 0-.455.11l-7.28 3.73 11.425 2.738-2.782-5.998a1 1 0 0 0-.908-.58" class="st3"/><path d="M44.49 48.516l-4.09-9.374a1 1 0 0 0-1.362-.496L27.4 44.42l17.09 4.096" class="st4"/><path d="M29.845 31.122" class="st5"/><path d="M37 14h1v9h-1v-9z" class="st6"/><path d="M33 18h1v5h-1v-5z" class="st7"/><path d="M41 18h1v5h-1v-5z" class="st8"/><path d="M57.004 57.337l-.457-5.018-5.03-.315-.06.997 3.514.22-.984 1.014c-4.13 4.25-10.95 4.093-15.253-.088l-.697.717c5.02 4.88 12.146 4.72 16.668.068l.984-1.013.32 3.508.996-.09" class="st9"/></svg>