<svg width="72px" height="72px" viewBox="0 0 72 72" version="1.1" xmlns="http://www.w3.org/2000/svg" xmlns:xlink="http://www.w3.org/1999/xlink">
	<path class="st2" d="M49,45 C49,46.105 48.105,47 47,47 L25,47 C23.895,47 23,46.105 23,45 L23,28 C23,26.895 23.895,26 25,26 L47,26 C48.105,26 49,26.895 49,28 L49,45"></path>
	<path class="st3" d="M31.928,38.436 C31.698,38.436 31.467,38.515 31.278,38.677 L26.068,44 L35.817,44 L32.713,38.815 C32.515,38.565 32.223,38.436 31.928,38.436"></path>
	<path class="st4" d="M45.797,44 L40.633,35.838 C40.289,35.382 39.633,35.307 39.194,35.673 L31,44 L45.797,44"></path>
	<path class="st5" d="M30,31.5 C30,32.328 29.328,33 28.5,33 C27.672,33 27,32.328 27,31.5 C27,30.672 27.672,30 28.5,30 C29.328,30 30,30.672 30,31.5"></path>
	<path class="st6" d="M53,15 L53,16 L55.293,16 L50.647,20.771 L51.353,21.541 L56,16.957 L56,19 L57,19 L57,15 L53,15"></path>
	<path class="st7" d="M21.353,20.771 L16.707,16 L19,16 L19,15 L15,15 L15,19 L16,19 L16,16.957 L20.647,21.541 L21.353,20.771"></path>
	<path class="st8" d="M56,53 L56,55.543 L51.353,50.897 L50.647,51.479 L55.293,56 L53,56 L53,57 L57,57 L57,53 L56,53"></path>
	<path class="st9" d="M20.353,52.479 L19.647,51.834 L16,55.543 L16,53 L15,53 L15,57 L19,57 L19,56 L16.707,56 L20.353,52.479"></path>
</svg>

