<svg xmlns="http://www.w3.org/2000/svg" width="72" height="72" viewBox="0 0 72 72"><path d="M49 45a2 2 0 0 1-2 2H25a2 2 0 0 1-2-2V28a2 2 0 0 1 2-2h22a2 2 0 0 1 2 2v17" class="st2"/><path d="M31.928 38.436c-.23 0-.46.08-.65.24L26.068 44h9.75l-3.105-5.185a.997.997 0 0 0-.785-.38" class="st3"/><path d="M45.797 44l-5.164-8.162a1 1 0 0 0-1.44-.165L31 44h14.797" class="st4"/><path d="M30 31.5a1.5 1.5 0 1 1-3 0 1.5 1.5 0 0 1 3 0" class="st5"/><path d="M53 15v1h2.293l-4.646 4.77.706.77L56 16.958V19h1v-4h-4" class="st6"/><path d="M21.353 20.77L16.707 16H19v-1h-4v4h1v-2.043l4.647 4.584.706-.77" class="st7"/><path d="M56 53v2.543l-4.647-4.646-.706.582L55.293 56H53v1h4v-4h-1" class="st8"/><path d="M20.353 52.48l-.706-.646L16 55.544V53h-1v4h4v-1h-2.293l3.646-3.52" class="st9"/></svg>