<svg xmlns="http://www.w3.org/2000/svg" width="72" height="72" viewBox="0 0 72 72"><path d="M52 28h-3v16c0 .426-.133.82-.36 1.144L50.797 48h-23.73l2.334-2H24v3a2 2 0 0 0 2 2h26a2 2 0 0 0 2-2V30a2 2 0 0 0-2-2" class="st2"/><path d="M35.618 46H29.4l-2.332 2h11.75-5.595l2.395-2" class="st3"/><path d="M48.64 45.144c-.36.518-.96.856-1.64.856H35.618l-2.395 2h17.574l-2.157-2.856" class="st4"/><path d="M47 23H21a2 2 0 0 0-2 2v19a2 2 0 0 0 2 2h3v-3h-1.933L24 41.343v-10.52A2 2 0 0 1 26.823 28H49v-3a2 2 0 0 0-2-2" class="st5"/><path d="M32.9 43H24v3h5.4l3.5-3m6.31 0h-4.35l1.73 2.188L39.21 43m-8.71-6.5a2 2 0 1 1 0-4 2 2 0 0 1 0 4M49 28H26.823A2 2 0 1 1 24 30.823v10.52l4.278-3.666a.997.997 0 0 1 1.435.138l1.878 2.373 6.604-5.515a.998.998 0 0 1 1.44.165l3.617 4.792a.998.998 0 0 1 1.382.21l4.008 5.304c.227-.324.36-.718.36-1.144V28" class="st6"/><path d="M34.86 43H32.9l-3.5 3h6.218l.973-.812L34.86 43" class="st7"/><path d="M43.834 39.44a.992.992 0 0 0-.583.19L45.798 43H39.21l-3.592 3H47c.68 0 1.28-.338 1.64-.856l-4.007-5.306a.998.998 0 0 0-.8-.397" class="st8"/><path d="M30.5 32.5a2 2 0 1 0 0 4 2 2 0 0 0 0-4" class="st9"/><path d="M24 41.343L22.067 43H24v-1.657" class="st10"/><path d="M28.928 37.436c-.23 0-.46.08-.65.24L24 41.344V43h8.9-4.677l3.368-2.812-1.877-2.373a.997.997 0 0 0-.785-.38" class="st11"/><path d="M38.834 34.44a.992.992 0 0 0-.64.233L28.224 43H32.9l.378-.323a.997.997 0 0 1 1.435.138l.146.185h4.35l3.984-3.327.057-.044-3.617-4.792a.998.998 0 0 0-.8-.397" class="st12"/><path d="M33.928 42.436c-.23 0-.46.08-.65.24L32.9 43h1.96l-.147-.185a.997.997 0 0 0-.785-.38" class="st13"/><path d="M43.25 39.63c-.018.013-.037.027-.056.043L39.21 43h6.587l-2.546-3.37" class="st14"/><path d="M25.5 27.5a2 2 0 0 0-1.5 3.323V30a2 2 0 0 1 2-2h.823c-.353-.31-.816-.5-1.323-.5" class="st15"/><path d="M26.823 28H26a2 2 0 0 0-2 2v.823A2 2 0 1 0 26.823 28" class="st16"/></svg>