<svg width="72px" height="72px" viewBox="0 0 72 72" version="1.1" xmlns="http://www.w3.org/2000/svg" xmlns:xlink="http://www.w3.org/1999/xlink">
	<path class="st2" d="M50,25 C50,23.895 49.105,23 48,23 L27,23 C25.895,23 25,23.895 25,25 L25,52 C25,53.105 25.895,54 27,54 L41,54 L50,45 L50,25"></path>
	<path class="st3" d="M50,45 L42,45 C41.448,45 41,45.448 41,46 L41,54 L50,45"></path>
	<path class="st4" d="M30,33 L45,33 L45,35 L30,35 L30,33 Z"></path>
	<path class="st5" d="M30,29 L38,29 L38,31 L30,31 L30,29 Z"></path>
	<path class="st6" d="M30,37 L45,37 L45,39 L30,39 L30,37 Z"></path>
	<path class="st7" d="M37,12 L38,12 L38,21 L37,21 L37,12 Z"></path>
	<path class="st8" d="M33,16 L34,16 L34,21 L33,21 L33,16 Z"></path>
	<path class="st9" d="M41,16 L42,16 L42,21 L41,21 L41,16 Z"></path>
</svg>