<svg xmlns="http://www.w3.org/2000/svg" width="72" height="72" viewBox="0 0 72 72"><path d="M45.723 40.195a2 2 0 0 1-1.306 2.51l-18.12 5.712a2 2 0 0 1-2.51-1.306l-4.51-14.305a2 2 0 0 1 1.306-2.51l18.12-5.712a2 2 0 0 1 2.51 1.306l4.51 14.305" class="st2"/><path d="M29.677 38.42a.998.998 0 0 0-.85.472l-2.415 6.343 8.344-2.63-4.518-4.013a1.004 1.004 0 0 0-.56-.172" class="st3"/><path d="M42.368 40.204l-5.472-6.832a1 1 0 0 0-1.422.275l-4.358 10.105 11.252-3.548" class="st4"/><path d="M27.005 34.038a1.5 1.5 0 1 1-2.86.902 1.5 1.5 0 0 1 2.86-.902" class="st5"/><path d="M48.54 36.302c9.257-.707 11.392.686 12.08 2.73 1.326 3.938-9.34 9.476-13.648 10.925l-.865.292 3.027 1.802-.513.86-4.327-2.58 1.887-4.672.928.374-1.32 3.267.865-.29c5.028-1.693 13.94-6.922 13.02-9.66-.62-1.836-3.61-2.635-10.827-2.134l-.307-.914" class="st6"/><path d="M23.91 18.298l3.224 3.872-3.333 3.778-.75-.66 2.33-2.643-1.412-.02c-5.925-.085-10.638 4.85-10.723 10.848l-1-.014c.1-7 5.25-11.928 11.738-11.835l1.412.02-2.254-2.707.77-.64" class="st7"/></svg>