<svg width="72px" height="72px" viewBox="0 0 72 72" version="1.1" xmlns="http://www.w3.org/2000/svg" xmlns:xlink="http://www.w3.org/1999/xlink">
	<path class="st2" d="M47.372,50.235 C47.114,51.31 46.035,51.972 44.961,51.714 L19.677,45.652 C18.603,45.395 17.941,44.315 18.198,43.241 L22.628,24.765 C22.886,23.691 23.965,23.028 25.039,23.286 L50.323,29.348 C51.397,29.605 52.059,30.685 51.802,31.759 L47.372,50.235"></path>
	<path class="st3" d="M29.15,39.145 C28.997,39.145 28.841,39.18 28.695,39.255 L21.415,42.984 L32.84,45.723 L30.058,39.725 C29.888,39.359 29.527,39.145 29.15,39.145"></path>
	<path class="st4" d="M44.49,48.516 L40.399,39.142 C40.17,38.618 39.55,38.392 39.038,38.646 L27.401,44.419 L44.49,48.516"></path>
	<path class="st5" d="M29.845,31.122 C29.587,32.197 28.508,32.859 27.434,32.601 C26.359,32.343 25.698,31.264 25.955,30.19 C26.213,29.116 27.292,28.454 28.366,28.711 C29.44,28.969 30.102,30.048 29.845,31.122"></path>
	<path class="st6" d="M37,14 L38,14 L38,23 L37,23 L37,14 Z"></path>
	<path class="st7" d="M33,18 L34,18 L34,23 L33,23 L33,18 Z"></path>
	<path class="st8" d="M41,18 L42,18 L42,23 L41,23 L41,18 Z"></path>
	<path class="st9" d="M57.004,57.337 L56.547,52.319 L51.518,52.005 L51.456,53.002 L54.971,53.223 L53.986,54.236 C49.856,58.486 43.035,58.329 38.733,54.148 L38.036,54.865 C43.055,59.744 50.182,59.585 54.704,54.933 L55.688,53.92 L56.009,57.428 L57.004,57.337"></path>
</svg>