<svg width="72px" height="72px" viewBox="0 0 72 72" version="1.1" xmlns="http://www.w3.org/2000/svg" xmlns:xlink="http://www.w3.org/1999/xlink">
	<path class="st2" d="M51,47 C51,48.105 50.105,49 49,49 L23,49 C21.895,49 21,48.105 21,47 L21,28 C21,26.895 21.895,26 23,26 L49,26 C50.105,26 51,26.895 51,28 L51,47"></path>
	<path class="st3" d="M30.928,40.436 C30.698,40.436 30.467,40.515 30.278,40.677 L24.068,46 L35.817,46 L31.713,40.815 C31.515,40.565 31.223,40.436 30.928,40.436"></path>
	<path class="st4" d="M47.797,46 L41.633,37.838 C41.289,37.382 40.633,37.307 40.194,37.673 L30.223,46 L47.797,46" ></path>
	<path class="st5" d="M29.5,32.5 C29.5,33.605 28.605,34.5 27.5,34.5 C26.395,34.5 25.5,33.605 25.5,32.5 C25.5,31.395 26.395,30.5 27.5,30.5 C28.605,30.5 29.5,31.395 29.5,32.5"></path>
	<path class="st6" d="M36,15 L37,15 L37,24 L36,24 L36,15 Z"></path>
	<path class="st7" d="M32,19 L33,19 L33,24 L32,24 L32,19 Z"></path>
	<path class="st8" d="M40,19 L41,19 L41,24 L40,24 L40,19 Z"></path>
</svg>

