<svg xmlns="http://www.w3.org/2000/svg" width="72" height="72" viewBox="0 0 72 72"><path d="M52 27h-3v16a2 2 0 0 1-2 2H24v3a2 2 0 0 0 2 2h26a2 2 0 0 0 2-2V29a2 2 0 0 0-2-2" class="st2"/><path d="M47 22H21a2 2 0 0 0-2 2v19a2 2 0 0 0 2 2h3v-3h-1.932L24 40.344v-10.52A2 2 0 0 1 26.823 27H49v-3a2 2 0 0 0-2-2" class="st3"/><path d="M49 27H26.823A2 2 0 1 1 24 29.823v10.52l4.278-3.666a.997.997 0 0 1 1.435.138l1.878 2.373 6.604-5.515a.998.998 0 0 1 1.44.165L45.796 42H24v3h23a2 2 0 0 0 2-2V27" class="st4"/><path d="M24 40.344L22.068 42H24v-1.656" class="st5"/><path d="M28.928 36.436c-.23 0-.46.08-.65.24L24 40.345V42h9.817-5.594l3.368-2.812-1.877-2.373a.997.997 0 0 0-.785-.38" class="st6"/><path d="M38.834 33.44a.992.992 0 0 0-.64.233L28.224 42h17.573l-6.164-8.162a.998.998 0 0 0-.8-.397" class="st7"/><path d="M25.5 26.5a2 2 0 0 0-1.5 3.323V29a2 2 0 0 1 2-2h.823c-.353-.31-.816-.5-1.323-.5" class="st8"/><path d="M26.823 27H26a2 2 0 0 0-2 2v.823A2 2 0 1 0 26.823 27" class="st9"/></svg>