<svg width="72px" height="72px" viewBox="0 0 72 72" version="1.1" xmlns="http://www.w3.org/2000/svg" xmlns:xlink="http://www.w3.org/1999/xlink">
	<path class="st2" d="M54,36 L63,36 L63,37 L54,37 L54,36 Z"></path>
	<path class="st3" d="M54,40 L59,40 L59,41 L54,41 L54,40 Z"></path>
	<path class="st4" d="M54,32 L59,32 L59,33 L54,33 L54,32 Z"></path>
	<path class="st5" d="M52,46 C52,47.104 51.105,48 50,48 L24,48 C22.895,48 22,47.104 22,46 L22,27 C22,25.895 22.895,25 24,25 L50,25 C51.105,25 52,25.895 52,27 L52,46"></path>
	<path class="st6" d="M31.928,39.436 C31.698,39.436 31.467,39.515 31.278,39.677 L25.068,45 L36.817,45 L32.713,39.815 C32.515,39.565 32.223,39.436 31.928,39.436"></path>
	<path class="st7" d="M48.797,45 L42.633,36.838 C42.289,36.382 41.633,36.307 41.194,36.673 L31.223,45 L48.797,45"></path>
	<path class="st8" d="M30.5,31.5 C30.5,32.605 29.605,33.5 28.5,33.5 C27.395,33.5 26.5,32.605 26.5,31.5 C26.5,30.395 27.395,29.5 28.5,29.5 C29.605,29.5 30.5,30.395 30.5,31.5"></path>
	<path class="st9" d="M25.578,40.444 C18.731,40.636 8.973,39.995 8.725,37.953 C8.628,37.152 10.973,35.666 16.313,35.017 L17.469,34.877 L15.496,37.394 L16.283,38.012 L19.421,34.009 L15.418,30.871 L14.801,31.658 L17.603,33.854 L16.191,34.025 C10.834,34.676 7.514,36.264 7.732,38.073 C8.097,41.081 17.871,41.479 23.013,41.479 C24.159,41.479 25.077,41.459 25.607,41.444 L25.578,40.444"></path>
</svg>

