<svg width="72px" height="72px" viewBox="0 0 72 72" version="1.1" xmlns="http://www.w3.org/2000/svg" xmlns:xlink="http://www.w3.org/1999/xlink">
	<path class="st2" d="M45.723,40.195 C46.055,41.249 45.47,42.372 44.417,42.704 L26.296,48.417 C25.243,48.749 24.119,48.164 23.787,47.111 L19.277,32.805 C18.945,31.751 19.53,30.628 20.583,30.296 L38.704,24.583 C39.757,24.251 40.881,24.836 41.213,25.889 L45.723,40.195"></path>
	<path class="st3" d="M29.677,38.42 C29.344,38.42 29.017,38.586 28.827,38.892 L26.412,45.235 L34.756,42.604 L30.238,38.592 C30.065,38.476 29.87,38.42 29.677,38.42"></path>
	<path class="st4" d="M42.368,40.204 L36.896,33.372 C36.43,33.04 35.782,33.166 35.474,33.647 L31.116,43.752 L42.368,40.204"></path>
	<path class="st5" d="M27.005,34.038 C27.254,34.828 26.816,35.67 26.026,35.919 C25.236,36.168 24.394,35.73 24.145,34.94 C23.896,34.15 24.334,33.308 25.124,33.059 C25.914,32.81 26.756,33.248 27.005,34.038"></path>
	<path class="st6" d="M48.539,36.302 C57.797,35.595 59.932,36.988 60.62,39.032 C61.946,42.97 51.279,48.508 46.972,49.957 L46.107,50.249 L49.134,52.052 L48.621,52.911 L44.293,50.332 L46.18,45.66 L47.108,46.034 L45.788,49.301 L46.653,49.01 C51.681,47.317 60.594,42.088 59.672,39.351 C59.054,37.514 56.064,36.715 48.846,37.216 L48.539,36.302"></path>
	<path class="st7" d="M23.909,18.298 L27.134,22.17 L23.801,25.948 L23.051,25.287 L25.381,22.645 L23.968,22.625 C18.043,22.54 13.33,27.474 13.245,33.473 L12.245,33.459 C12.344,26.46 17.496,21.532 23.983,21.625 L25.395,21.645 L23.141,18.938 L23.909,18.298"></path>
</svg>