<svg width="72px" height="72px" viewBox="0 0 72 72" version="1.1" xmlns="http://www.w3.org/2000/svg" xmlns:xlink="http://www.w3.org/1999/xlink">
	<path class="st2" d="M44,17 L30,17 C28.895,17 28,17.896 28,19 L28,25 L36,25 L45,34 L45,38 L49,38 L49,40 L45,40 L45,42 L49,42 L49,44 L45,44 L45,48 L51,48 C52.105,48 53,47.105 53,46 L53,26 L45,26 C44.448,26 44,25.552 44,25 L44,17"></path>
	<path class="st3" d="M44,17 L44,25 C44,25.552 44.448,26 45,26 L53,26 L44,17"></path>
	<path class="st4" d="M45,38 L49,38 L49,40 L45,40 L45,38 Z"></path>
	<path class="st5" d="M45,42 L49,42 L49,44 L45,44 L45,42 Z"></path>
	<path class="st6" d="M24,50 L41,50 L41,52 L24,52 L24,50 Z M28,25 L22,25 C20.895,25 20,25.895 20,27 L20,54 C20,55.105 20.895,56 22,56 L43,56 C44.105,56 45,55.105 45,54 L45,48 L24,48 L24,46 L28,46 L28,44 L24,44 L24,42 L28,42 L28,25 L28,25 Z"></path>
	<path class="st7" d="M45,44 L28,44 L28,46 L41,46 L41,48 L30,48 L45,48 L45,44 L45,44 Z M32,34 L41,34 L41,36 L32,36 L32,34 Z M36,25 L28,25 L28,42 L45,42 L45,40 L32,40 L32,38 L45,38 L45,34 L37,34 C36.448,34 36,33.552 36,33 L36,25 L36,25 Z"></path>
	<path class="st8" d="M32,38 L45,38 L45,40 L32,40 L32,38 Z"></path>
	<path class="st9" d="M45,42 L33,42 L33,44 L32,44 L45,44 L45,42"></path>
	<path class="st10" d="M32,34 L41,34 L41,36 L32,36 L32,34 Z"></path>
	<path class="st11" d="M36,25 L36,33 C36,33.552 36.448,34 37,34 L45,34 L36,25"></path>
	<path class="st12" d="M28,46 L24,46 L24,48 L30,48 C28.895,48 28,47.105 28,46"></path>
	<path class="st13" d="M41,46 L28,46 C28,47.105 28.895,48 30,48 L41,48 L41,46"></path>
	<path class="st14" d="M24,50 L41,50 L41,52 L24,52 L24,50 Z" id="Fill-14"></path>
	<path class="st15" d="M24,42 L28,42 L28,44 L24,44 L24,42 Z" id="Fill-15"></path>
	<path class="st16" d="M33,42 L28,42 L28,44 L32,44 L32,42 L33,42"></path>
	<path class="st17" d="M32,42 L33,42 L33,44 L32,44 L32,42 Z"></path>
</svg>