<svg width="72px" height="72px" viewBox="0 0 72 72" version="1.1" xmlns="http://www.w3.org/2000/svg" xmlns:xlink="http://www.w3.org/1999/xlink">
	<path class="st2" d="M55,32 L51,32 L51,47 C51,48.105 50.105,49 49,49 L27,49 L27,53 C27,54.105 27.896,55 29,55 L55,55 C56.105,55 57,54.105 57,53 L57,34 C57,32.895 56.105,32 55,32"></path>
	<path class="st3" d="M34.422,14.34 C34.036,14.34 33.645,14.451 33.301,14.685 L11.786,29.282 C10.872,29.902 10.633,31.146 11.254,32.061 L21,46.425 L21,28 C21,26.895 21.896,26 23,26 L43.395,26 L36.079,15.217 C35.692,14.647 35.063,14.34 34.422,14.34"></path>
	<path class="st4" d="M51,47 C51,48.105 50.105,49 49,49 L23,49 C21.896,49 21,48.105 21,47 L21,28 C21,26.895 21.896,26 23,26 L49,26 C50.105,26 51,26.895 51,28 L51,47"></path>
	<path class="st5" d="M30.928,40.436 C30.698,40.436 30.467,40.515 30.278,40.677 L24.067,46 L35.816,46 L31.713,40.815 C31.515,40.565 31.223,40.436 30.928,40.436"></path>
	<path class="st6" d="M47.797,46 L41.633,37.838 C41.288,37.382 40.633,37.307 40.194,37.673 L30.223,46 L47.797,46"></path>
	<path class="st7" d="M29.5,32.5 C29.5,33.605 28.605,34.5 27.5,34.5 C26.395,34.5 25.5,33.605 25.5,32.5 C25.5,31.395 26.395,30.5 27.5,30.5 C28.605,30.5 29.5,31.395 29.5,32.5"></path>
</svg>


