<svg width="72px" height="72px" viewBox="0 0 72 72" version="1.1" xmlns="http://www.w3.org/2000/svg" xmlns:xlink="http://www.w3.org/1999/xlink">
	<path class="st2" d="M52,28 L49,28 L49,44 C49,44.426 48.867,44.82 48.64,45.144 L50.797,48 L27.068,48 L29.401,46 L24,46 L24,49 C24,50.105 24.895,51 26,51 L52,51 C53.105,51 54,50.105 54,49 L54,30 C54,28.895 53.105,28 52,28"></path>
	<path class="st3" d="M35.618,46 L29.401,46 L27.068,48 L38.817,48 L33.223,48 L35.618,46"></path>
	<path class="st4" d="M48.64,45.144 C48.279,45.662 47.679,46 47,46 L35.618,46 L33.223,48 L50.797,48 L48.64,45.144"></path>
	<path class="st5" d="M47,23 L21,23 C19.895,23 19,23.895 19,25 L19,44 C19,45.105 19.895,46 21,46 L24,46 L24,43 L22.067,43 L24,41.343 L24,30.823 C23.689,30.47 23.5,30.007 23.5,29.5 C23.5,28.395 24.396,27.5 25.5,27.5 C26.007,27.5 26.47,27.689 26.823,28 L49,28 L49,25 C49,23.895 48.105,23 47,23"></path>
	<path class="st6" d="M32.901,43 L24,43 L24,46 L29.401,46 L32.901,43 M39.21,43 L34.859,43 L36.591,45.188 L39.21,43 M30.5,36.5 C29.395,36.5 28.5,35.604 28.5,34.5 C28.5,33.395 29.395,32.5 30.5,32.5 C31.605,32.5 32.5,33.395 32.5,34.5 C32.5,35.604 31.605,36.5 30.5,36.5 M49,28 L26.823,28 C27.238,28.367 27.5,28.903 27.5,29.5 C27.5,30.605 26.605,31.5 25.5,31.5 C24.903,31.5 24.366,31.238 24,30.823 L24,41.343 L28.278,37.677 C28.467,37.515 28.698,37.436 28.928,37.436 C29.223,37.436 29.515,37.565 29.713,37.815 L31.591,40.188 L38.194,34.673 C38.381,34.516 38.609,34.441 38.834,34.441 C39.136,34.441 39.436,34.577 39.633,34.838 L43.251,39.629 C43.427,39.502 43.631,39.441 43.834,39.441 C44.136,39.441 44.436,39.577 44.633,39.838 L48.64,45.144 C48.867,44.82 49,44.426 49,44 L49,28"></path>
	<path class="st7" d="M34.859,43 L32.901,43 L29.401,46 L35.618,46 L36.591,45.188 L34.859,43"></path>
	<path class="st8" d="M43.834,39.441 C43.631,39.441 43.427,39.502 43.251,39.629 L45.797,43 L39.21,43 L35.618,46 L47,46 C47.679,46 48.279,45.662 48.64,45.144 L44.633,39.838 C44.436,39.577 44.136,39.441 43.834,39.441"></path>
	<path class="st9" d="M30.5,32.5 C29.395,32.5 28.5,33.395 28.5,34.5 C28.5,35.604 29.395,36.5 30.5,36.5 C31.605,36.5 32.5,35.604 32.5,34.5 C32.5,33.395 31.605,32.5 30.5,32.5"></path>
	<path class="st10" d="M24,41.343 L22.067,43 L24,43 L24,41.343"></path>
	<path class="st11" d="M28.928,37.436 C28.698,37.436 28.467,37.515 28.278,37.677 L24,41.343 L24,43 L32.901,43 L28.223,43 L31.591,40.188 L29.713,37.815 C29.515,37.565 29.223,37.436 28.928,37.436"></path>
	<path class="st12" d="M38.834,34.441 C38.609,34.441 38.381,34.516 38.194,34.673 L28.223,43 L32.901,43 L33.278,42.677 C33.467,42.515 33.698,42.436 33.928,42.436 C34.223,42.436 34.515,42.565 34.713,42.815 L34.859,43 L39.21,43 L43.194,39.673 C43.213,39.657 43.232,39.643 43.251,39.629 L39.633,34.838 C39.436,34.577 39.136,34.441 38.834,34.441"></path>
	<path class="st13" d="M33.928,42.436 C33.698,42.436 33.467,42.515 33.278,42.677 L32.901,43 L34.859,43 L34.713,42.815 C34.515,42.565 34.223,42.436 33.928,42.436"></path>
	<path class="st14" d="M43.251,39.629 C43.232,39.643 43.213,39.657 43.194,39.673 L39.21,43 L45.797,43 L43.251,39.629"></path>
	<path class="st15" d="M25.5,27.5 C24.396,27.5 23.5,28.395 23.5,29.5 C23.5,30.007 23.689,30.47 24,30.823 L24,30 C24,28.895 24.895,28 26,28 L26.823,28 C26.47,27.689 26.007,27.5 25.5,27.5"></path>
	<path class="st16" d="M26.823,28 L26,28 C24.895,28 24,28.895 24,30 L24,30.823 C24.366,31.238 24.903,31.5 25.5,31.5 C26.605,31.5 27.5,30.605 27.5,29.5 C27.5,28.903 27.238,28.367 26.823,28"></path>
</svg>




