<svg xmlns="http://www.w3.org/2000/svg" width="72" height="72" viewBox="0 0 72 72"><path d="M54 28h-3v14c0 .604-.268 1.146-.69 1.512L52.796 46h-27.73l2.71-2H22v3a2 2 0 0 0 2 2h30a2 2 0 0 0 2-2V30a2 2 0 0 0-2-2" class="st2"/><path d="M35.618 44h-7.842l-2.71 2h13.75-5.593l2.395-2" class="st3"/><path d="M50.31 43.512c-.352.304-.81.488-1.31.488H35.618l-2.395 2h19.574l-2.488-2.488" class="st4"/><path d="M49 23H19a2 2 0 0 0-2 2v17a2 2 0 0 0 2 2h3v-3h-1.932L22 39.573v-8.75A2 2 0 0 1 24.823 28H51v-3a2 2 0 0 0-2-2" class="st5"/><path d="M31.84 41H22v3h5.776l4.064-3m7.37 0h-5.315l2.398 2.436L39.21 41M51 28H24.823A2 2 0 1 1 22 30.823v8.75l5.032-3.715a2 2 0 1 1 2.213.498l2.048 2.08 6.9-5.763a.998.998 0 0 1 1.44.165l4.808 4.808c.07.052.133.115.19.188L47.796 41l2.512 2.512c.422-.366.69-.908.69-1.512V28" class="st6"/><path d="M33.895 41H31.84l-4.064 3h7.842l.675-.564L33.895 41" class="st7"/><path d="M47.796 41H39.21l-3.592 3H49c.5 0 .958-.184 1.31-.488L47.795 41m-3.355-3.355l.19.188a.984.984 0 0 0-.19-.188" class="st8"/><path d="M28.5 32.5a2 2 0 0 0-1.468 3.358l.246-.18a.997.997 0 0 1 1.435.138l.532.54A2 2 0 0 0 28.5 32.5" class="st9"/><path d="M22 39.573L20.068 41H22v-1.427" class="st10"/><path d="M27.032 35.858L22 39.573V41h9.84-3.617l3.07-2.564-2.048-2.08a1.993 1.993 0 0 1-2.213-.498" class="st11"/><path d="M27.928 35.436c-.23 0-.46.08-.65.24l-.246.182a1.993 1.993 0 0 0 2.213.498l-.532-.54a.997.997 0 0 0-.785-.38" class="st12"/><path d="M44.63 37.833l.003.005L47.796 41l-3.167-3.167m-5.796-5.392a.99.99 0 0 0-.64.233L28.224 41h3.616l.438-.323a.997.997 0 0 1 1.435.138l.182.185h5.315l3.984-3.327a1 1 0 0 1 1.247-.028l-4.808-4.806a.998.998 0 0 0-.8-.397" class="st13"/><path d="M32.928 40.436c-.23 0-.46.08-.65.24L31.84 41h2.055l-.182-.185a.997.997 0 0 0-.785-.38" class="st14"/><path d="M43.834 37.44a.992.992 0 0 0-.64.233L39.21 41h8.586l-3.163-3.162c0-.002-.003-.004-.004-.005l-.19-.188a1 1 0 0 0-.606-.204" class="st15"/><path d="M23.5 27.5a2 2 0 0 0-1.5 3.323V30a2 2 0 0 1 2-2h.823c-.353-.31-.816-.5-1.323-.5" class="st16"/><path d="M24.823 28H24a2 2 0 0 0-2 2v.823A2 2 0 1 0 24.823 28" class="st17"/></svg>