<svg xmlns="http://www.w3.org/2000/svg" width="72" height="72" viewBox="0 0 72 72"><path d="M44 17H30a2 2 0 0 0-2 2v6h8l9 9v4h4v2h-4v2h4v2h-4v4h6a2 2 0 0 0 2-2V26h-8a1 1 0 0 1-1-1v-8" class="st2"/><path d="M44 17v8a1 1 0 0 0 1 1h8l-9-9" class="st3"/><path d="M45 38h4v2h-4v-2z" class="st4"/><path d="M45 42h4v2h-4v-2z" class="st5"/><path d="M24 50h17v2H24v-2zm4-25h-6a2 2 0 0 0-2 2v27a2 2 0 0 0 2 2h21a2 2 0 0 0 2-2v-6H24v-2h4v-2h-4v-2h4V25z" class="st6"/><path d="M45 44H28v2h13v2H30h15v-4zM32 34h9v2h-9v-2zm4-9h-8v17h17v-2H32v-2h13v-4h-8a1 1 0 0 1-1-1v-8z" class="st7"/><path d="M32 38h13v2H32v-2z" class="st8"/><path d="M45 42H33v2h-1 13v-2" class="st9"/><path d="M32 34h9v2h-9v-2z" class="st10"/><path d="M36 25v8a1 1 0 0 0 1 1h8l-9-9" class="st11"/><path d="M28 46h-4v2h6a2 2 0 0 1-2-2" class="st12"/><path d="M41 46H28a2 2 0 0 0 2 2h11v-2" class="st13"/><path d="M24 50h17v2H24v-2z" class="st14"/><path d="M24 42h4v2h-4v-2z" class="st15"/><path d="M33 42h-5v2h4v-2h1" class="st16"/><path d="M32 42h1v2h-1v-2z" class="st17"/></svg>