<svg width="72px" height="72px" viewBox="0 0 72 72" version="1.1" xmlns="http://www.w3.org/2000/svg" xmlns:xlink="http://www.w3.org/1999/xlink">
	<path class="st2" d="M3,69 L69,3"></path>
	<path class="st3" d="M64,70.002 C67.308,70.002 70.001,67.31 70.001,64.004 L70.001,7.997 C70.001,4.69 67.308,2 64,2 L8,2 C4.692,2 1.999,4.69 1.999,7.997 L1.999,64.004 C1.999,67.31 4.692,70.002 8,70.002 L64,70.002 M64,72 L8,72 C3.582,72 0,68.42 0,64.004 L0,7.997 C0,3.58 3.582,0 8,0 L64,0 C68.418,0 72,3.58 72,7.997 L72,64.004 C72,68.42 68.418,72 64,72"></path>
</svg>

