<svg width="72px" height="72px" viewBox="0 0 72 72" version="1.1" xmlns="http://www.w3.org/2000/svg" xmlns:xlink="http://www.w3.org/1999/xlink">
	<path class="st2" d="M52,27 L49,27 L49,43 C49,44.105 48.105,45 47,45 L24,45 L24,48 C24,49.105 24.896,50 26,50 L52,50 C53.105,50 54,49.105 54,48 L54,29 C54,27.895 53.105,27 52,27"></path>
	<path class="st3" d="M47,22 L21,22 C19.895,22 19,22.895 19,24 L19,43 C19,44.105 19.895,45 21,45 L24,45 L24,42 L22.068,42 L24,40.344 L24,29.823 C23.689,29.47 23.5,29.007 23.5,28.5 C23.5,27.395 24.395,26.5 25.5,26.5 C26.007,26.5 26.47,26.689 26.823,27 L49,27 L49,24 C49,22.895 48.105,22 47,22"></path>
	<path class="st4" d="M49,27 L26.823,27 C27.238,27.366 27.5,27.903 27.5,28.5 C27.5,29.604 26.605,30.5 25.5,30.5 C24.903,30.5 24.366,30.238 24,29.823 L24,40.344 L28.278,36.677 C28.467,36.515 28.698,36.436 28.928,36.436 C29.223,36.436 29.515,36.565 29.713,36.815 L31.591,39.188 L38.194,33.673 C38.381,33.516 38.609,33.441 38.834,33.441 C39.136,33.441 39.436,33.577 39.633,33.838 L45.797,42 L24,42 L24,45 L47,45 C48.105,45 49,44.105 49,43 L49,27"></path>
	<path class="st5" d="M24,40.344 L22.068,42 L24,42 L24,40.344"></path>
	<path class="st6" d="M28.928,36.436 C28.698,36.436 28.467,36.515 28.278,36.677 L24,40.344 L24,42 L33.817,42 L28.223,42 L31.591,39.188 L29.713,36.815 C29.515,36.565 29.223,36.436 28.928,36.436"></path>
	<path class="st7" d="M38.834,33.441 C38.609,33.441 38.381,33.516 38.194,33.673 L28.223,42 L45.797,42 L39.633,33.838 C39.436,33.577 39.136,33.441 38.834,33.441"></path>
	<path class="st8" d="M25.5,26.5 C24.395,26.5 23.5,27.395 23.5,28.5 C23.5,29.007 23.689,29.47 24,29.823 L24,29 C24,27.895 24.896,27 26,27 L26.823,27 C26.47,26.689 26.007,26.5 25.5,26.5"></path>
	<path class="st9" d="M26.823,27 L26,27 C24.896,27 24,27.895 24,29 L24,29.823 C24.366,30.238 24.903,30.5 25.5,30.5 C26.605,30.5 27.5,29.604 27.5,28.5 C27.5,27.903 27.238,27.366 26.823,27"></path>
</svg>