<svg width="72px" height="72px" viewBox="0 0 72 72" version="1.1" xmlns="http://www.w3.org/2000/svg" xmlns:xlink="http://www.w3.org/1999/xlink">
	<path class="st2" d="M54,28 L51,28 L51,42 C51,42.604 50.732,43.146 50.309,43.512 L52.797,46 L25.067,46 L27.776,44 L22,44 L22,47 C22,48.105 22.896,49 24,49 L54,49 C55.105,49 56,48.105 56,47 L56,30 C56,28.895 55.105,28 54,28"></path>
	<path class="st3" d="M35.618,44 L27.776,44 L25.067,46 L38.817,46 L33.223,46 L35.618,44"></path>
	<path class="st4" d="M50.309,43.512 C49.958,43.816 49.501,44 49,44 L35.618,44 L33.223,46 L52.797,46 L50.309,43.512"></path>
	<path class="st5" d="M49,23 L19,23 C17.895,23 17,23.895 17,25 L17,42 C17,43.105 17.895,44 19,44 L22,44 L22,41 L20.068,41 L22,39.573 L22,30.823 C21.689,30.47 21.5,30.007 21.5,29.5 C21.5,28.396 22.395,27.5 23.5,27.5 C24.007,27.5 24.47,27.689 24.823,28 L51,28 L51,25 C51,23.895 50.105,23 49,23"></path>
	<path class="st6" d="M31.84,41 L22,41 L22,44 L27.776,44 L31.84,41 M39.21,41 L33.895,41 L36.293,43.436 L39.21,41 M51,28 L24.823,28 C25.238,28.366 25.5,28.903 25.5,29.5 C25.5,30.605 24.605,31.5 23.5,31.5 C22.903,31.5 22.366,31.238 22,30.823 L22,39.573 L27.032,35.858 C26.702,35.502 26.5,35.024 26.5,34.5 C26.5,33.395 27.395,32.5 28.5,32.5 C29.605,32.5 30.5,33.395 30.5,34.5 C30.5,35.341 29.981,36.061 29.245,36.356 L31.293,38.436 L38.194,32.673 C38.381,32.516 38.608,32.441 38.834,32.441 C39.136,32.441 39.436,32.577 39.633,32.838 L44.441,37.645 C44.51,37.697 44.573,37.76 44.629,37.833 L47.797,41 L47.796,41 L50.309,43.512 C50.732,43.146 51,42.604 51,42 L51,28"></path>
	<path class="st7" d="M33.895,41 L31.84,41 L27.776,44 L35.618,44 L36.293,43.436 L33.895,41"></path>
	<path class="st8" d="M47.796,41 L39.21,41 L35.618,44 L49,44 C49.501,44 49.958,43.816 50.309,43.512 L47.796,41 M44.441,37.645 L44.629,37.833 C44.573,37.76 44.51,37.697 44.441,37.645"></path>
	<path class="st9" d="M28.5,32.5 C27.395,32.5 26.5,33.395 26.5,34.5 C26.5,35.024 26.702,35.502 27.032,35.858 L27.278,35.677 C27.467,35.515 27.698,35.436 27.928,35.436 C28.223,35.436 28.515,35.565 28.713,35.815 L29.245,36.356 C29.981,36.061 30.5,35.341 30.5,34.5 C30.5,33.395 29.605,32.5 28.5,32.5"></path>
	<path class="st10" d="M22,39.573 L20.068,41 L22,41 L22,39.573"></path>
	<path class="st11" d="M27.032,35.858 L22,39.573 L22,41 L31.84,41 L28.223,41 L31.293,38.436 L29.245,36.356 C29.015,36.449 28.763,36.5 28.5,36.5 C27.92,36.5 27.397,36.253 27.032,35.858"></path>
	<path class="st12" d="M27.928,35.436 C27.698,35.436 27.467,35.515 27.278,35.677 L27.032,35.858 C27.397,36.253 27.92,36.5 28.5,36.5 C28.763,36.5 29.015,36.449 29.245,36.356 L28.713,35.815 C28.515,35.565 28.223,35.436 27.928,35.436"></path>
	<path class="st13" d="M44.629,37.833 C44.63,37.834 44.632,37.836 44.633,37.838 L47.796,41 L47.797,41 L44.629,37.833 M38.834,32.441 C38.608,32.441 38.381,32.516 38.194,32.673 L28.223,41 L31.84,41 L32.278,40.677 C32.467,40.515 32.698,40.436 32.928,40.436 C33.223,40.436 33.515,40.565 33.713,40.815 L33.895,41 L39.21,41 L43.194,37.673 C43.381,37.516 43.609,37.441 43.834,37.441 C44.05,37.441 44.264,37.51 44.441,37.645 L39.633,32.838 C39.436,32.577 39.136,32.441 38.834,32.441"></path>
	<path class="st14" d="M32.928,40.436 C32.698,40.436 32.467,40.515 32.278,40.677 L31.84,41 L33.895,41 L33.713,40.815 C33.515,40.565 33.223,40.436 32.928,40.436"></path>
	<path class="st15" d="M43.834,37.441 C43.609,37.441 43.381,37.516 43.194,37.673 L39.21,41 L47.796,41 L44.633,37.838 C44.632,37.836 44.63,37.834 44.629,37.833 L44.441,37.645 C44.264,37.51 44.05,37.441 43.834,37.441"></path>
	<path class="st16" d="M23.5,27.5 C22.395,27.5 21.5,28.396 21.5,29.5 C21.5,30.007 21.689,30.47 22,30.823 L22,30 C22,28.895 22.896,28 24,28 L24.823,28 C24.47,27.689 24.007,27.5 23.5,27.5"></path>
	<path class="st17" d="M24.823,28 L24,28 C22.896,28 22,28.895 22,30 L22,30.823 C22.366,31.238 22.903,31.5 23.5,31.5 C24.605,31.5 25.5,30.605 25.5,29.5 C25.5,28.903 25.238,28.366 24.823,28"></path>        
</svg>