<svg xmlns="http://www.w3.org/2000/svg" width="72" height="72" viewBox="0 0 72 72"><path d="M51 47a2 2 0 0 1-2 2H23a2 2 0 0 1-2-2V28a2 2 0 0 1 2-2h26a2 2 0 0 1 2 2v19" class="st2"/><path d="M30.928 40.436c-.23 0-.46.08-.65.24L24.068 46h11.75l-4.105-5.185a.997.997 0 0 0-.785-.38" class="st3"/><path d="M47.797 46l-6.164-8.162a1 1 0 0 0-1.44-.165L30.224 46h17.574" class="st4"/><path d="M29.5 32.5a2 2 0 1 1-4 0 2 2 0 0 1 4 0" class="st5"/><path d="M36 15h1v9h-1v-9z" class="st6"/><path d="M32 19h1v5h-1v-5z" class="st7"/><path d="M40 19h1v5h-1v-5z" class="st8"/></svg>