<svg width="72px" height="72px" viewBox="0 0 72 72" version="1.1" xmlns="http://www.w3.org/2000/svg" xmlns:xlink="http://www.w3.org/1999/xlink">
	<path class="st2" d="M15,36 L24,36 L24,37 L15,37 L15,36 Z"></path>
	<path class="st3" d="M19,40 L24,40 L24,41 L19,41 L19,40 Z"></path>
	<path class="st4" d="M19,32 L24,32 L24,33 L19,33 L19,32 Z"></path>
	<path class="st5" d="M51,23 C51,21.895 50.105,21 49,21 L28,21 C26.895,21 26,21.895 26,23 L26,50 C26,51.105 26.895,52 28,52 L42,52 L51,43 L51,23" id="Fill-5" fill="#4EB7F6"></path>
	<path class="st6" d="M51,43 L43,43 C42.448,43 42,43.448 42,44 L42,52 L51,43"></path>
	<path class="st7" d="M31,31 L46,31 L46,33 L31,33 L31,31 Z"></path>
	<path class="st8" d="M31,35 L46,35 L46,37 L31,37 L31,35 Z"></path>
	<path class="st9" d="M31,27 L39,27 L39,29 L31,29 L31,27 Z"></path>
</svg>