<svg xmlns="http://www.w3.org/2000/svg" width="72" height="72" viewBox="0 0 72 72"><path d="M8 36h9v1H8v-1z" class="st2"/><path d="M12 40h5v1h-5v-1z" class="st3"/><path d="M12 32h5v1h-5v-1z" class="st4"/><path d="M49 46a2 2 0 0 1-2 2H21a2 2 0 0 1-2-2V27a2 2 0 0 1 2-2h26a2 2 0 0 1 2 2v19" class="st5"/><path d="M28.928 39.436c-.23 0-.46.08-.65.24L22.068 45h11.75l-4.105-5.185a.997.997 0 0 0-.785-.38" class="st6"/><path d="M45.797 45l-6.164-8.162a1 1 0 0 0-1.44-.165L28.224 45h17.574" class="st7"/><path d="M27.5 31.5a2 2 0 1 1-4 0 2 2 0 0 1 4 0" class="st8"/><path d="M61.18 35.534c-1.51-.682-3.637-1.204-6.15-1.51l-1.41-.17 2.802-2.196-.617-.787-4.003 3.14 3.138 4.002.787-.618-1.973-2.517 1.156.14c2.413.293 4.44.788 5.86 1.428 1.334.604 1.767 1.174 1.727 1.507-.247 2.043-10.005 2.686-16.852 2.492l-.03 1c.53.015 1.448.035 2.595.035 5.143 0 14.915-.4 15.28-3.407.078-.647-.26-1.613-2.31-2.54" class="st9"/></svg>