<svg width="72px" height="72px" viewBox="0 0 72 72" version="1.1" xmlns="http://www.w3.org/2000/svg" xmlns:xlink="http://www.w3.org/1999/xlink">
  <path class="st1" d="M51,18 L22,18 C20.896,18 20,18.895 20,20 L20,52 C20,53.105 20.896,54 22,54 L51,54 C52.105,54 53,53.105 53,52 L53,20 C53,18.895 52.105,18 51,18"></path>
  <path class="st3" d="M43.994,25.549 C43.994,26.653 43.099,27.549 41.994,27.549 C40.89,27.549 39.994,26.653 39.994,25.549 C39.994,24.444 40.89,23.549 41.994,23.549 C43.099,23.549 43.994,24.444 43.994,25.549"></path>
  <path class="st2" d="M37,49 L33.4596998,40.6804427 C33.1505611,39.9535114 32.2251858,39.7689104 31.671185,40.3227132 L23,49 L37,49"></path>
  <path class="st3" d="M51,49 L45.6728828,36.6667526 C45.3644654,35.9527916 44.4207695,35.7720292 43.8643885,36.3213854 L31,49 L51,49"></path>
  <path class="st4" d="M48,30 L49,30 L49,38 L48,38 L48,30 Z"></path>
  <path class="st4" d="M51.826,32.875 L48.443,29.492 L45.06,32.875 L45.767,33.582 L48.443,30.906 L51.119,33.582 L51.826,32.875"></path>
  <path class="st5" d="M57,25 L58,25 L58,33 L57,33 L57,25 Z"></path>
  <path class="st5" d="M60.826,27.875 L57.443,24.492 L54.06,27.875 L54.767,28.582 L57.443,25.906 L60.119,28.582 L60.826,27.875"></path>
  <path class="st6" d="M41.9964222,42 L18.0035778,42 C16.8966011,42 16,41.1468542 16,40.0956566 L16,30.9043434 C16,29.8521937 16.8966011,29 18.0035778,29 L41.9964222,29 C43.1033989,29 44,29.8521937 44,30.9043434 L44,40.0956566 C44,41.1468542 43.1033989,42 41.9964222,42"></path>
  <path class="st5" d="M30,39.5170594 L28.7647664,36.777993 C28.4531296,36.0602753 27.5202762,35.7245852 26.9617984,36.2713687 L23,40 L29.3119306,40 L30,39.5170594"></path>
  <path class="st7" d="M36.9275182,32.3985768 L29,40 L42,40 L38.7081329,32.5404727 C38.40447,31.8349903 37.4763309,31.8549756 36.9275182,32.3985768"></path>
  <path class="st7" d="M24.187,33.156 C24.193,32.634 23.75,32.25 23.125,32.375 C23.125,31.625 22.582,30.803 21.525,30.803 C20.469,30.803 19.812,31.531 19.651,32.35 C18.948,32.382 18.388,32.98 18.388,33.688 C18.388,34.417 19.049,35 19.872,35 L24.219,35 C24.781,35 25.094,34.573 25.094,34.126 C25.094,33.625 24.75,33.156 24.187,33.156"></path>
</svg>