<svg width="72px" height="72px" viewBox="0 0 72 72" version="1.1" xmlns="http://www.w3.org/2000/svg" xmlns:xlink="http://www.w3.org/1999/xlink">
  <path class="st1" d="M57,48 C57,49.105 56.105,50 55,50 L30,50 C28.895,50 28,49.105 28,48 L28,20 C28,18.895 28.895,18 30,18 L55,18 C56.105,18 57,18.895 57,20 L57,48"></path>
  <path class="st2" d="M49.994,25.549 C49.994,26.653 49.099,27.549 47.994,27.549 C46.89,27.549 45.994,26.653 45.994,25.549 C45.994,24.444 46.89,23.549 47.994,23.549 C49.099,23.549 49.994,24.444 49.994,25.549"></path>
  <path class="st2" d="M43.71,45.948 L40.782,38.818 C40.508,38.15 39.639,37.984 39.138,38.503 L31.957,45.948 L43.71,45.948"></path>
  <path class="st3" d="M54.072,45.948 L49.663,34.977 C49.39,34.3 48.508,34.133 48.008,34.663 L37.353,45.948 L54.072,45.948"></path>
  <path class="st4" d="M41.321,58.399 L17.371,58.399 C16.266,58.399 15.371,57.503 15.371,56.399 L15.371,43.746 C15.371,42.641 16.266,41.746 17.371,41.746 L41.321,41.746 C42.426,41.746 43.321,42.641 43.321,43.746 L43.321,56.399 C43.321,57.503 42.426,58.399 41.321,58.399"></path>
  <path class="st5" d="M20.317,46.875 L38.317,46.875 L38.317,47.875 L20.317,47.875 L20.317,46.875 Z"></path>
  <path class="st5" d="M20.317,49.875 L38.317,49.875 L38.317,50.875 L20.317,50.875 L20.317,49.875 Z"></path>
  <path class="st5" d="M20.317,52.875 L38.317,52.875 L38.317,53.875 L20.317,53.875 L20.317,52.875 Z"></path>
  <path class="st4" d="M41.321,39.399 L17.371,39.399 C16.266,39.399 15.371,38.503 15.371,37.399 L15.371,24.746 C15.371,23.641 16.266,22.746 17.371,22.746 L41.321,22.746 C42.426,22.746 43.321,23.641 43.321,24.746 L43.321,37.399 C43.321,38.503 42.426,39.399 41.321,39.399"></path>
  <path class="st5" d="M20.317,27.875 L38.317,27.875 L38.317,28.875 L20.317,28.875 L20.317,27.875 Z"></path>
  <path class="st5" d="M20.317,30.875 L38.317,30.875 L38.317,31.875 L20.317,31.875 L20.317,30.875 Z"></path>
  <path class="st5" d="M20.317,33.875 L38.317,33.875 L38.317,34.875 L20.317,34.875 L20.317,33.875 Z"></path>
  <path class="st6" d="M19.5,21 L19.5,14 M22.473,17.229 L19.443,14.199 L16.413,17.229"></path>
</svg>