<svg xmlns="http://www.w3.org/2000/svg" width="72" height="72" viewBox="0 0 72 72"><path d="M51 18H22a2 2 0 0 0-2 2v32a2 2 0 0 0 2 2h29a2 2 0 0 0 2-2V20a2 2 0 0 0-2-2" class="st1"/><path d="M43.994 25.55a2 2 0 1 1-4 0 2 2 0 0 1 4 0" class="st3"/><path d="M37 49l-3.54-8.32a1.095 1.095 0 0 0-1.79-.357L23 49h14" class="st2"/><path d="M51 49l-5.327-12.333a1.12 1.12 0 0 0-1.81-.346L31 49h20" class="st3"/><path d="M48 30h1v8h-1v-8z" class="st4"/><path d="M51.826 32.875l-3.383-3.383-3.383 3.383.707.707 2.676-2.676 2.676 2.676.706-.707" class="st4"/><path d="M57 25h1v8h-1v-8z" class="st5"/><path d="M60.826 27.875l-3.383-3.383-3.383 3.383.707.707 2.676-2.676 2.676 2.676.706-.707" class="st5"/><path d="M41.996 42H18.004C16.897 42 16 41.147 16 40.096v-9.192c0-1.052.897-1.904 2.004-1.904h23.992c1.107 0 2.004.852 2.004 1.904v9.192c0 1.05-.897 1.904-2.004 1.904" class="st6"/><path d="M30 39.517l-1.235-2.74c-.312-.717-1.245-1.052-1.803-.506L23 40h6.312l.688-.483" class="st5"/><path d="M36.928 32.4L29 40h13l-3.292-7.46c-.304-.705-1.232-.685-1.78-.14M24.187 33.156c.006-.522-.437-.906-1.062-.78 0-.75-.543-1.573-1.6-1.573-1.056 0-1.713.728-1.874 1.547a1.34 1.34 0 0 0-1.262 1.338c0 .73.66 1.312 1.484 1.312h4.347c.56 0 .874-.427.874-.874 0-.5-.344-.97-.907-.97" class="st7"/></svg>