<svg xmlns="http://www.w3.org/2000/svg" width="72" height="72" viewBox="0 0 72 72"><path d="M57 48a2 2 0 0 1-2 2H30a2 2 0 0 1-2-2V20a2 2 0 0 1 2-2h25a2 2 0 0 1 2 2v28" class="st1"/><path d="M49.994 25.55a2 2 0 1 1-4 0 2 2 0 0 1 4 0M43.71 45.948l-2.928-7.13a1 1 0 0 0-1.644-.315l-7.18 7.445H43.71" class="st2"/><path d="M54.072 45.948l-4.41-10.97a1 1 0 0 0-1.654-.315L37.353 45.948h16.72" class="st3"/><path d="M41.32 58.4H17.37a2 2 0 0 1-2-2V43.745a2 2 0 0 1 2-2h23.95a2 2 0 0 1 2 2V56.4a2 2 0 0 1-2 2" class="st4"/><path d="M20.317 46.875h18v1h-18v-1zM20.317 49.875h18v1h-18v-1zM20.317 52.875h18v1h-18v-1z" class="st5"/><path d="M41.32 39.4H17.37a2 2 0 0 1-2-2V24.745a2 2 0 0 1 2-2h23.95a2 2 0 0 1 2 2V37.4a2 2 0 0 1-2 2" class="st4"/><path d="M20.317 27.875h18v1h-18v-1zM20.317 30.875h18v1h-18v-1zM20.317 33.875h18v1h-18v-1z" class="st5"/><path d="M32.5 16V9m2.973 3.23l-3.03-3.03-3.03 3.03" class="st6"/><path d="M19.5 21v-7m2.973 3.23l-3.03-3.03-3.03 3.03" class="st7"/></svg>