<?xml version="1.0" encoding="UTF-8" standalone="no"?>
<svg width="34px" height="34px" viewBox="0 0 34 34" version="1.1" xmlns="http://www.w3.org/2000/svg" xmlns:xlink="http://www.w3.org/1999/xlink" xmlns:sketch="http://www.bohemiancoding.com/sketch/ns">
    <!-- Generator: Sketch 3.3.2 (12043) - http://www.bohemiancoding.com/sketch -->
    <title>mba_social_panel_google_linkdin</title>
    <desc>Created with Sketch.</desc>
    <defs></defs>
    <g id="Page-1" stroke="none" stroke-width="1" fill="none" fill-rule="evenodd" sketch:type="MSPage">
        <g id="mba_social_panel_google_linkdin" sketch:type="MSArtboardGroup" fill="#2D4150">
            <path d="M10.03,12.504 L12.97,12.504 L12.97,22.504 L10.03,22.504 L10.03,12.504 Z" id="Fill-1" sketch:type="MSShapeGroup"></path>
            <path d="M20.731,12.718 C19.094,12.718 17.97,13.504 17.97,14.504 L17.97,12.504 L14.97,12.504 C15.009,13.504 14.97,22.504 14.97,22.504 L17.97,22.504 L17.97,16.865 C17.97,16.585 18.004,16.305 18.084,16.105 C18.303,15.546 18.817,14.967 19.655,14.967 C20.754,14.967 20.97,15.826 20.97,17.084 L20.97,22.504 L23.97,22.504 L23.97,16.725 C23.97,13.849 22.729,12.718 20.731,12.718" id="Fill-2" sketch:type="MSShapeGroup"></path>
            <path d="M11.548,8.496 C10.72,8.496 10.048,9.168 10.048,9.996 C10.048,10.825 10.72,11.496 11.548,11.496 C12.377,11.496 13.048,10.825 13.048,9.996 C13.048,9.168 12.377,8.496 11.548,8.496" id="Fill-3" sketch:type="MSShapeGroup"></path>
        </g>
    </g>
</svg>