<svg xmlns="http://www.w3.org/2000/svg" width="34" height="34" viewBox="0 0 34 34"><path fill="#2D4150" fill-rule="evenodd" d="M24.008 12.443a6.167 6.167 0 0 1-1.767.485 3.083 3.083 0 0 0 1.353-1.703 6.147 6.147 0 0 1-1.954.747 3.078 3.078 0 0 0-5.244 2.807 8.74 8.74 0 0 1-6.344-3.216 3.063 3.063 0 0 0-.417 1.547c0 1.068.308 2.01 1.133 2.562-.505-.016-.63-.154-1.63-.385v.04c0 1.49 1.297 2.734 2.705 3.016-.26.07-.412.108-.693.108a2.48 2.48 0 0 1-.52-.054c.392 1.223 1.558 2.112 2.904 2.137A6.128 6.128 0 0 1 9 21.808a8.724 8.724 0 0 0 4.722 1.382c5.66 0 8.757-4.69 8.757-8.756 0-.133-.003-.266-.01-.398a6.258 6.258 0 0 0 1.538-1.593"/></svg>