<?xml version="1.0" encoding="UTF-8" standalone="no"?>
<svg width="34px" height="34px" viewBox="0 0 34 34" version="1.1" xmlns="http://www.w3.org/2000/svg" xmlns:xlink="http://www.w3.org/1999/xlink" xmlns:sketch="http://www.bohemiancoding.com/sketch/ns">
    <!-- Generator: Sketch 3.3.2 (12043) - http://www.bohemiancoding.com/sketch -->
    <title>mba_social_panel_youtube_vimeo</title>
    <desc>Created with Sketch.</desc>
    <defs></defs>
    <g id="Page-1" stroke="none" stroke-width="1" fill="none" fill-rule="evenodd" sketch:type="MSPage">
        <g id="mba_social_panel_youtube_vimeo" sketch:type="MSArtboardGroup" fill="#2D4150">
            <path d="M23.993,13.0077107 C23.926,14.4707107 22.906,16.4737107 20.934,19.0157107 C18.894,21.6717107 17.169,22.9997107 15.757,22.9997107 C14.883,22.9997107 14.143,22.1917107 13.539,20.5737107 C13.135,19.0907107 12.731,17.6077107 12.328,16.1257107 C11.879,14.5087107 11.507,14.0077107 10.992,14.0077107 C10.88,14.0077107 10.487,14.2447107 9.815,14.7157107 L9,13.4967107 C9.688,12.8907107 10.347,12.3057107 11.189,11.5407107 C12.176,10.6857107 12.917,10.2367107 13.412,10.1907107 C14.579,10.0787107 15.298,10.8777107 15.567,12.5897107 C15.859,14.4357107 16.06,15.5837107 16.174,16.0337107 C16.51,17.5657107 16.88,18.3307107 17.285,18.3307107 C17.599,18.3307107 18.07,17.8337107 18.699,16.8407107 C19.327,15.8467107 19.664,15.0907107 19.709,14.5707107 C19.799,13.7137107 19.462,13.2837107 18.699,13.2837107 C18.34,13.2837107 17.97,13.3657107 17.589,13.5297107 C18.326,11.1107107 19.735,9.93571071 21.814,10.0027107 C23.355,10.0477107 24.081,11.0497107 23.993,13.0077107" id="Imported-Layers" sketch:type="MSShapeGroup"></path>
        </g>
    </g>
</svg>