<svg xmlns="http://www.w3.org/2000/svg" width="34" height="34" viewBox="0 0 34 34"><path fill="#2D4150" fill-rule="evenodd" d="M23.993 13.008c-.067 1.463-1.087 3.466-3.06 6.008C18.894 21.672 17.17 23 15.758 23c-.874 0-1.614-.808-2.218-2.426-.405-1.483-.81-2.966-1.212-4.448-.45-1.617-.82-2.118-1.336-2.118-.112 0-.505.237-1.177.708L9 13.496a179.51 179.51 0 0 0 2.19-1.955c.986-.854 1.727-1.303 2.222-1.35 1.167-.11 1.886.688 2.155 2.4.292 1.846.493 2.994.607 3.444.336 1.532.706 2.297 1.11 2.297.315 0 .786-.496 1.415-1.49.627-.993.964-1.75 1.01-2.27.09-.856-.248-1.286-1.01-1.286a2.8 2.8 0 0 0-1.11.246c.736-2.42 2.145-3.594 4.224-3.527 1.54.045 2.267 1.047 2.18 3.005"/></svg>