<?xml version="1.0" encoding="UTF-8" standalone="no"?>
<svg width="34px" height="34px" viewBox="0 0 34 34" version="1.1" xmlns="http://www.w3.org/2000/svg" xmlns:xlink="http://www.w3.org/1999/xlink" xmlns:sketch="http://www.bohemiancoding.com/sketch/ns">
    <!-- Generator: Sketch 3.3.2 (12043) - http://www.bohemiancoding.com/sketch -->
    <title>mba_social_panel_google_blogger</title>
    <desc>Created with Sketch.</desc>
    <defs></defs>
    <g id="Page-1" stroke="none" stroke-width="1" fill="none" fill-rule="evenodd" sketch:type="MSPage">
        <g id="mba_social_panel_google_blogger" sketch:type="MSArtboardGroup" fill="#2D4150">
            <path d="M23,16 L22.302,16 C21.947,16 22,15.604 22,15.248 L22,14.967 C22,12.776 19.884,11 17.693,11 L14.959,11 C12.772,11 11,12.772 11,14.959 L11,20.033 C11,22.224 12.776,24 14.967,24 L20.041,24 C22.228,24 24,22.227 24,20.041 L24,16.892 C24,16.339 23.552,16 23,16 L23,16 Z M15,14 L18,14 C18.552,14 19,14.448 19,15 C19,15.552 18.552,16 18,16 L15,16 C14.448,16 14,15.552 14,15 C14,14.448 14.448,14 15,14 L15,14 Z M20,21 L15,21 C14.448,21 14,20.552 14,20 C14,19.448 14.448,19 15,19 L20,19 C20.552,19 21,19.448 21,20 C21,20.552 20.552,21 20,21 L20,21 Z" id="Imported-Layers" sketch:type="MSShapeGroup"></path>
        </g>
    </g>
</svg>