<?xml version="1.0" encoding="UTF-8" standalone="no"?>
<svg width="34px" height="34px" viewBox="0 0 34 34" version="1.1" xmlns="http://www.w3.org/2000/svg" xmlns:xlink="http://www.w3.org/1999/xlink" xmlns:sketch="http://www.bohemiancoding.com/sketch/ns">
    <!-- Generator: Sketch 3.3.2 (12043) - http://www.bohemiancoding.com/sketch -->
    <title>mba_social_panel_twitter</title>
    <desc>Created with Sketch.</desc>
    <defs></defs>
    <g id="Page-1" stroke="none" stroke-width="1" fill="none" fill-rule="evenodd" sketch:type="MSPage">
        <g id="mba_social_panel_twitter" sketch:type="MSArtboardGroup" fill="#2D4150">
            <path d="M24.008,12.443 C23.456,12.688 22.863,12.853 22.241,12.928 C22.876,12.547 23.364,11.944 23.593,11.225 C22.999,11.578 22.34,11.834 21.639,11.972 C21.078,11.374 20.278,11 19.393,11 C17.693,11 16.315,12.378 16.315,14.077 C16.315,14.319 16.343,14.553 16.395,14.779 C13.838,14.65 11.57,13.425 10.052,11.563 C9.787,12.018 9.635,12.546 9.635,13.11 C9.635,14.178 9.943,15.12 10.768,15.672 C10.263,15.656 10.138,15.518 9.138,15.287 L9.138,15.326 C9.138,16.817 10.435,18.061 11.843,18.343 C11.584,18.414 11.431,18.451 11.15,18.451 C10.952,18.451 10.818,18.432 10.63,18.396 C11.022,19.619 12.188,20.508 13.534,20.533 C12.481,21.359 11.169,21.851 9.727,21.851 C9.479,21.851 9.241,21.836 9,21.808 C10.362,22.681 11.983,23.19 13.722,23.19 C19.382,23.19 22.479,18.501 22.479,14.434 C22.479,14.301 22.477,14.168 22.471,14.036 C23.073,13.602 23.595,13.06 24.008,12.443" id="Imported-Layers" sketch:type="MSShapeGroup"></path>
        </g>
    </g>
</svg>