<?xml version="1.0" encoding="UTF-8" standalone="no"?>
<svg width="34px" height="34px" viewBox="0 0 34 34" version="1.1" xmlns="http://www.w3.org/2000/svg" xmlns:xlink="http://www.w3.org/1999/xlink" xmlns:sketch="http://www.bohemiancoding.com/sketch/ns">
    <!-- Generator: Sketch 3.3.2 (12043) - http://www.bohemiancoding.com/sketch -->
    <title>mba_social_panel_google_tumblr</title>
    <desc>Created with Sketch.</desc>
    <defs></defs>
    <g id="Page-1" stroke="none" stroke-width="1" fill="none" fill-rule="evenodd" sketch:type="MSPage">
        <g id="mba_social_panel_google_tumblr" sketch:type="MSArtboardGroup" fill="#2D4150">
            <path d="M14.967,9 C14.873,9.825 14.703,10.503 14.456,11.037 C14.209,11.571 13.881,12.027 13.472,12.408 C13.064,12.789 12.573,13.081 12,13.285 L12,15.565 L13.603,15.565 L13.603,21.172 C13.603,21.902 13.673,22.46 13.813,22.844 C13.953,23.229 14.205,23.593 14.568,23.934 C14.931,24.276 15.369,24.539 15.884,24.724 C16.397,24.908 16.989,25 17.657,25 C18.247,25 18.795,24.935 19.302,24.806 C19.808,24.677 20.374,24.452 21,24.13 L21,21.614 C20.267,22.141 19.529,22.404 18.788,22.404 C18.371,22.404 18.001,22.298 17.677,22.085 C17.433,21.929 17.265,21.718 17.176,21.455 C17.086,21.191 17.041,20.596 17.041,19.668 L17.041,15.565 L20.517,15.565 L20.517,13.053 L17.041,13.053 L17.041,9 L14.967,9" id="Imported-Layers" sketch:type="MSShapeGroup"></path>
        </g>
    </g>
</svg>