<?xml version="1.0" encoding="UTF-8" standalone="no"?>
<svg width="34px" height="34px" viewBox="0 0 34 34" version="1.1" xmlns="http://www.w3.org/2000/svg" xmlns:xlink="http://www.w3.org/1999/xlink" xmlns:sketch="http://www.bohemiancoding.com/sketch/ns">
    <!-- Generator: Sketch 3.3.2 (12043) - http://www.bohemiancoding.com/sketch -->
    <title>mba_social_panel_youtube_flickr</title>
    <desc>Created with Sketch.</desc>
    <defs></defs>
    <g id="Page-1" stroke="none" stroke-width="1" fill="none" fill-rule="evenodd" sketch:type="MSPage">
        <g id="mba_social_panel_youtube_flickr" sketch:type="MSArtboardGroup" fill="#2D4150">
            <path d="M21.508,12 C19.757,12 18.241,13.004 17.5,14.468 C16.759,13.004 15.242,12 13.491,12 C11.011,12 9,14.015 9,16.5 C9,18.985 11.011,21 13.491,21 C15.242,21 16.759,19.996 17.5,18.531 C18.241,19.996 19.757,21 21.509,21 C23.989,21 26,18.985 26,16.5 C26,14.015 23.989,12 21.508,12 L21.508,12 Z M21.508,19.5 C19.854,19.5 18.508,18.154 18.508,16.5 C18.508,14.846 19.854,13.5 21.508,13.5 C23.162,13.5 24.508,14.846 24.508,16.5 C24.508,18.154 23.162,19.5 21.508,19.5 L21.508,19.5 Z" id="Imported-Layers" sketch:type="MSShapeGroup"></path>
        </g>
    </g>
</svg>