<?xml version="1.0" encoding="UTF-8" standalone="no"?>
<svg width="34px" height="34px" viewBox="0 0 34 34" version="1.1" xmlns="http://www.w3.org/2000/svg" xmlns:xlink="http://www.w3.org/1999/xlink" xmlns:sketch="http://www.bohemiancoding.com/sketch/ns">
    <!-- Generator: Sketch 3.3.2 (12043) - http://www.bohemiancoding.com/sketch -->
    <title>mba_social_panel_google_plus</title>
    <desc>Created with Sketch.</desc>
    <defs></defs>
    <g id="Page-1" stroke="none" stroke-width="1" fill="none" fill-rule="evenodd" sketch:type="MSPage">
        <g id="mba_social_panel_google_plus" sketch:type="MSArtboardGroup" fill="#2D4150">
            <path d="M24,15 L22,15 L22,17 L20,17 L20,15 L18,15 L18,13 L20,13 L20,11 L22,11 L22,13 L24,13 L24,15" id="Fill-1" sketch:type="MSShapeGroup"></path>
            <path d="M15.334,18.947 L14.672,18.434 C14.47,18.268 14.194,18.047 14.194,17.644 C14.194,17.24 14.47,16.982 14.709,16.743 C15.481,16.136 16.252,15.667 16.252,14.307 C16.252,12.91 15.371,12 14.948,12 L16.087,12 L17.262,11 L13.478,11 C12.486,11 11.237,11.143 10.189,12.007 C9.399,12.686 9.013,13.622 9.013,14.467 C9.013,15.899 10.116,17.35 12.063,17.35 C12.248,17.35 12.449,17.331 12.651,17.313 C12.559,17.533 12.467,17.717 12.467,18.03 C12.467,18.598 12.761,18.947 13.018,19.279 C12.192,19.334 10.648,19.426 9.51,20.124 C8.426,20.767 8.095,21.704 8.095,22.366 C8.095,23.725 9.381,24.992 12.044,24.992 C15.205,24.992 16.877,23.247 16.877,21.52 C16.877,20.253 16.142,19.627 15.334,18.947 L15.334,18.947 Z M12.926,16.835 C11.346,16.835 10.63,14.795 10.63,13.564 C10.63,13.087 10.722,12.591 11.035,12.206 C11.328,11.838 11.842,11.598 12.32,11.598 C13.846,11.598 14.636,13.656 14.636,14.979 C14.636,15.31 14.599,15.897 14.177,16.321 C13.882,16.614 13.387,16.835 12.926,16.835 L12.926,16.835 Z M12.946,24.22 C10.979,24.22 9.712,23.284 9.712,21.979 C9.712,20.675 10.888,20.235 11.291,20.087 C12.064,19.83 13.055,19.793 13.221,19.793 C13.404,19.793 13.496,19.793 13.644,19.811 C15.04,20.804 15.646,21.3 15.646,22.237 C15.646,23.375 14.709,24.22 12.946,24.22 L12.946,24.22 Z" id="Fill-2" sketch:type="MSShapeGroup"></path>
        </g>
    </g>
</svg>