<svg xmlns="http://www.w3.org/2000/svg" width="34" height="34" viewBox="0 0 34 34"><path fill="#2D4150" fill-rule="evenodd" d="M14.967 9c-.094.825-.264 1.503-.51 2.037a4.34 4.34 0 0 1-.985 1.37c-.408.382-.9.674-1.472.878v2.28h1.603v5.607c0 .73.07 1.288.21 1.672.14.385.392.75.755 1.09.363.342.8.605 1.316.79.513.184 1.105.276 1.773.276.59 0 1.138-.065 1.645-.194.506-.13 1.072-.354 1.698-.676v-2.516c-.733.527-1.47.79-2.212.79-.417 0-.787-.106-1.11-.32a1.184 1.184 0 0 1-.502-.63c-.09-.263-.135-.858-.135-1.786v-4.103h3.477v-2.512H17.04V9h-2.073"/></svg>