<svg xmlns="http://www.w3.org/2000/svg" width="34" height="34" viewBox="0 0 34 34"><g fill="#2D4150" fill-rule="evenodd"><path d="M24 15h-2v2h-2v-2h-2v-2h2v-2h2v2h2v2M15.334 18.947l-.662-.513c-.202-.166-.478-.387-.478-.79 0-.404.276-.662.515-.9.77-.608 1.542-1.077 1.542-2.437 0-1.397-.88-2.307-1.304-2.307h1.14l1.174-1h-3.784c-.992 0-2.24.143-3.29 1.007-.79.68-1.175 1.615-1.175 2.46 0 1.432 1.103 2.883 3.05 2.883.185 0 .386-.02.588-.037-.09.22-.183.404-.183.717 0 .568.294.917.55 1.25-.825.054-2.37.146-3.507.844-1.084.643-1.415 1.58-1.415 2.242 0 1.36 1.286 2.626 3.95 2.626 3.16 0 4.832-1.745 4.832-3.472 0-1.267-.735-1.893-1.543-2.573zm-2.408-2.112c-1.58 0-2.296-2.04-2.296-3.27 0-.478.092-.974.405-1.36a1.713 1.713 0 0 1 1.285-.607c1.526 0 2.316 2.058 2.316 3.38 0 .332-.037.92-.46 1.343-.294.294-.79.515-1.25.515zm.02 7.385c-1.967 0-3.234-.936-3.234-2.24 0-1.305 1.176-1.745 1.58-1.893.772-.257 1.763-.294 1.93-.294.182 0 .274 0 .422.018 1.396.994 2.002 1.49 2.002 2.427 0 1.138-.937 1.983-2.7 1.983z"/></g></svg>