<svg xmlns="http://www.w3.org/2000/svg" width="34" height="34" viewBox="0 0 34 34"><path fill="#2D4150" fill-rule="evenodd" d="M16.747 10C12.927 10 11 12.74 11 15.024c0 1.383.524 2.613 1.647 3.072.184.075.35.003.402-.2.036-.142.124-.498.164-.646.053-.202.033-.273-.117-.45-.323-.38-.53-.875-.53-1.576 0-2.032 1.52-3.852 3.96-3.852 2.158 0 3.345 1.32 3.345 3.082 0 2.32-1.026 4.276-2.55 4.276-.84 0-1.47-.695-1.268-1.55.24-1.018.71-2.118.71-2.853 0-.658-.354-1.207-1.085-1.207-.86 0-1.552.89-1.552 2.082 0 .758.256 1.272.256 1.272l-1.034 4.382c-.307 1.3-.046 2.895-.024 3.056.013.096.136.118.19.046.08-.104 1.105-1.368 1.453-2.632.098-.357.565-2.21.565-2.21.28.533 1.095 1.002 1.964 1.002 2.584 0 4.338-2.357 4.338-5.51 0-2.386-2.02-4.608-5.09-4.608"/></svg>