<?xml version="1.0" encoding="UTF-8" standalone="no"?>
<svg width="10px" height="22px" viewBox="0 0 10 22" version="1.1" xmlns="http://www.w3.org/2000/svg">
    <g stroke="none" stroke-width="1" fill="none" fill-rule="evenodd">
        <g>
            <g class="regular">
                <rect x="0" y="0" width="2" height="2"></rect>
                <rect x="4" y="0" width="2" height="2"></rect>
                <rect x="8" y="0" width="2" height="2"></rect>
                <rect x="0" y="4" width="2" height="2"></rect>
                <rect x="4" y="4" width="2" height="2"></rect>
                <rect x="8" y="4" width="2" height="2"></rect>
                <rect x="0" y="8" width="2" height="2"></rect>
                <rect x="4" y="8" width="2" height="2"></rect>
                <rect x="8" y="8" width="2" height="2"></rect>
                <rect x="0" y="12" width="2" height="2"></rect>
                <rect x="4" y="12" width="2" height="2"></rect>
                <rect x="8" y="12" width="2" height="2"></rect>
                <rect x="0" y="16" width="2" height="2"></rect>
                <rect x="4" y="16" width="2" height="2"></rect>
                <rect x="8" y="16" width="2" height="2"></rect>
                <rect x="0" y="20" width="2" height="2"></rect>
                <rect x="4" y="20" width="2" height="2"></rect>
                <rect x="8" y="20" width="2" height="2"></rect>
            </g>
            <g class="offset" transform="translate(0.000000, 2.000000)">
                <rect x="0" y="0" width="2" height="2"></rect>
                <rect x="4" y="0" width="2" height="2"></rect>
                <rect x="8" y="0" width="2" height="2"></rect>
                <rect x="0" y="4" width="2" height="2"></rect>
                <rect x="4" y="4" width="2" height="2"></rect>
                <rect x="8" y="4" width="2" height="2"></rect>
                <rect x="0" y="8" width="2" height="2"></rect>
                <rect x="4" y="8" width="2" height="2"></rect>
                <rect x="8" y="8" width="2" height="2"></rect>
                <rect x="0" y="12" width="2" height="2"></rect>
                <rect x="4" y="12" width="2" height="2"></rect>
                <rect x="8" y="12" width="2" height="2"></rect>
                <rect x="0" y="16" width="2" height="2"></rect>
                <rect x="4" y="16" width="2" height="2"></rect>
                <rect x="8" y="16" width="2" height="2"></rect>
                <rect x="0" y="20" width="2" height="2"></rect>
                <rect x="4" y="20" width="2" height="2"></rect>
                <rect x="8" y="20" width="2" height="2"></rect>
            </g>
        </g>
    </g>
</svg>