<svg xmlns="http://www.w3.org/2000/svg" width="10" height="22" viewBox="0 0 10 22"><g fill="none" fill-rule="evenodd"><g class="regular"><path d="M0 0h2v2H0zM4 0h2v2H4zM8 0h2v2H8zM0 4h2v2H0zM4 4h2v2H4zM8 4h2v2H8zM0 8h2v2H0zM4 8h2v2H4zM8 8h2v2H8zM0 12h2v2H0zM4 12h2v2H4zM8 12h2v2H8zM0 16h2v2H0zM4 16h2v2H4zM8 16h2v2H8zM0 20h2v2H0zM4 20h2v2H4zM8 20h2v2H8z"/></g><g class="offset"><path d="M0 2h2v2H0zM4 2h2v2H4zM8 2h2v2H8zM0 6h2v2H0zM4 6h2v2H4zM8 6h2v2H8zM0 10h2v2H0zM4 10h2v2H4zM8 10h2v2H8zM0 14h2v2H0zM4 14h2v2H4zM8 14h2v2H8zM0 18h2v2H0zM4 18h2v2H4zM8 18h2v2H8zM0 22h2v2H0zM4 22h2v2H4zM8 22h2v2H8z"/></g></g></svg>