<?xml version="1.0" encoding="UTF-8" standalone="no"?>
<svg width="18px" height="15px" viewBox="0 0 18 15" version="1.1" xmlns="http://www.w3.org/2000/svg" xmlns:xlink="http://www.w3.org/1999/xlink" xmlns:sketch="http://www.bohemiancoding.com/sketch/ns">
    <g stroke="none" stroke-width="1" fill="none" fill-rule="evenodd" sketch:type="MSPage">
        <g sketch:type="MSArtboardGroup" fill="#FFFFFF">
            <g sketch:type="MSShapeGroup">
                <path d="M17.418,7.474 L17.5,7.273 L17.418,7.071 C17.313,6.813 14.793,0.773 9,0.773 C7.243,0.773 5.792,1.332 4.613,2.113 L2.5,0 L2,0.5 L4.034,2.534 C1.729,4.339 0.65,6.905 0.582,7.071 L0.5,7.273 L0.582,7.474 C0.687,7.731 3.206,13.773 9,13.773 C10.921,13.773 12.474,13.104 13.706,12.207 L16,14.5 L16.5,14 L14.269,11.769 C16.368,9.985 17.353,7.633 17.418,7.474 L17.418,7.474 L17.418,7.474 Z M9,12.737 C4.432,12.737 2.067,8.282 1.589,7.272 C1.886,6.64 2.919,4.663 4.77,3.27 L6.751,5.251 C6.299,5.796 6.015,6.497 6.015,7.273 C6.015,8.987 7.354,10.381 9,10.381 C9.788,10.381 10.5,10.056 11.034,9.534 L12.961,11.461 C11.895,12.199 10.584,12.737 9,12.737 L9,12.737 L9,12.737 Z M10.315,8.816 C9.964,9.141 9.506,9.345 9,9.345 C7.902,9.345 7.01,8.415 7.01,7.273 C7.01,6.775 7.186,6.325 7.467,5.967 L10.315,8.816 L10.315,8.816 Z M7.994,5.494 C8.29,5.312 8.631,5.2 9,5.2 C10.097,5.2 10.99,6.13 10.99,7.273 C10.99,7.626 10.896,7.954 10.746,8.246 L7.994,5.494 L7.994,5.494 Z M13.531,11.031 L11.486,8.987 C11.8,8.495 11.985,7.906 11.985,7.273 C11.985,5.558 10.646,4.164 9,4.164 C8.349,4.164 7.75,4.388 7.259,4.759 L5.363,2.863 C6.368,2.24 7.576,1.809 9,1.809 C13.568,1.809 15.933,6.263 16.411,7.273 C16.13,7.87 15.19,9.66 13.531,11.031 L13.531,11.031 L13.531,11.031 Z"></path>
            </g>
        </g>
    </g>
</svg>