<svg xmlns="http://www.w3.org/2000/svg" width="17" height="17" viewBox="0 0 17 17"><g fill="#2D4150" fill-rule="evenodd"><path d="M8 5h5V4H8v1zM8 8h5V7H8v1z"/><path d="M14.5 1h-8C5.673 1 5 1.673 5 2.5V5H2.5C1.673 5 1 5.673 1 6.5v8c0 .827.673 1.5 1.5 1.5h8c.827 0 1.5-.673 1.5-1.5V12h2.5c.827 0 1.5-.673 1.5-1.5v-8c0-.827-.673-1.5-1.5-1.5zM11 14.5a.5.5 0 0 1-.5.5h-8a.5.5 0 0 1-.5-.5v-8a.5.5 0 0 1 .5-.5H5v4.5c0 .827.673 1.5 1.5 1.5H11v2.5zm4-4a.5.5 0 0 1-.5.5h-8a.5.5 0 0 1-.5-.5v-8a.5.5 0 0 1 .5-.5h8a.5.5 0 0 1 .5.5v8z"/></g></svg>