<?xml version="1.0" encoding="UTF-8" standalone="no"?>
<svg width="17px" height="17px" viewBox="0 0 17 17" version="1.1" xmlns="http://www.w3.org/2000/svg" xmlns:xlink="http://www.w3.org/1999/xlink" xmlns:sketch="http://www.bohemiancoding.com/sketch/ns">
    <g stroke="none" stroke-width="1" fill="none" fill-rule="evenodd" sketch:type="MSPage">
        <g sketch:type="MSArtboardGroup" fill="#2D4150">
            <path d="M11,3 L11,2.5 C11,1.701 10.249,1 9.392,1 L7.525,1 C6.684,1 6,1.673 6,2.5 L6,3 L2,3 L2,4 L3,4 L3,13 C3,14.657 4.343,16 6,16 L11,16 C12.657,16 14,14.657 14,13 L14,4 L15,4 L15,3 L11,3 L11,3 Z M7,2.5 C7,2.229 7.24,2 7.525,2 L9.392,2 C9.693,2 10,2.252 10,2.5 L10,3 L7,3 L7,2.5 L7,2.5 Z M13,13 C13,14.105 12.105,15 11,15 L6,15 C4.895,15 4,14.105 4,13 L4,4 L13,4 L13,13 L13,13 Z" id="Imported-Layers" sketch:type="MSShapeGroup"></path>
            <path d="M6,12 L7,12 L7,6 L6,6 L6,12 Z" sketch:type="MSShapeGroup"></path>
            <path d="M10,12 L11,12 L11,6 L10,6 L10,12 Z" sketch:type="MSShapeGroup"></path>
            <path d="M8,12 L9,12 L9,6 L8,6 L8,12 Z" sketch:type="MSShapeGroup"></path>
        </g>
    </g>
</svg>