<?xml version="1.0" encoding="UTF-8" standalone="no"?>
<svg width="17px" height="17px" viewBox="0 0 17 17" version="1.1" xmlns="http://www.w3.org/2000/svg" xmlns:xlink="http://www.w3.org/1999/xlink" xmlns:sketch="http://www.bohemiancoding.com/sketch/ns">
    <g stroke="none" stroke-width="1" fill="none" fill-rule="evenodd" sketch:type="MSPage">
        <path d="M8,5 L13,5 L13,4 L8,4 L8,5 Z" fill="#2D4150" sketch:type="MSShapeGroup"></path>
        <path d="M8,8 L13,8 L13,7 L8,7 L8,8 Z" fill="#2D4150" sketch:type="MSShapeGroup"></path>
        <g sketch:type="MSArtboardGroup" fill="#2D4150">
            <path d="M14.5,1 L6.5,1 C5.673,1 5,1.673 5,2.5 L5,5 L2.5,5 C1.673,5 1,5.673 1,6.5 L1,14.5 C1,15.327 1.673,16 2.5,16 L10.5,16 C11.327,16 12,15.327 12,14.5 L12,12 L14.5,12 C15.327,12 16,11.327 16,10.5 L16,2.5 C16,1.673 15.327,1 14.5,1 L14.5,1 Z M11,14.5 C11,14.776 10.776,15 10.5,15 L2.5,15 C2.224,15 2,14.776 2,14.5 L2,6.5 C2,6.224 2.224,6 2.5,6 L5,6 L5,10.5 C5,11.327 5.673,12 6.5,12 L11,12 L11,14.5 L11,14.5 Z M15,10.5 C15,10.776 14.776,11 14.5,11 L6.5,11 C6.224,11 6,10.776 6,10.5 L6,2.5 C6,2.224 6.224,2 6.5,2 L14.5,2 C14.776,2 15,2.224 15,2.5 L15,10.5 L15,10.5 Z" sketch:type="MSShapeGroup"></path>
        </g>
    </g>
</svg>
