<?xml version="1.0" encoding="utf-8"?>
<svg xmlns="http://www.w3.org/2000/svg"
	xmlns:xlink="http://www.w3.org/1999/xlink"
	width="12px" height="11px" viewBox="0 0 12 11">
<path fillRule="evenodd" d="M 6 1.41C 6 1.41 5.92 0.41 5.92 0.41 5.92 0.41 11.86-0.01 11.86-0.01 11.86-0.01 11.49 5.93 11.49 5.93 11.49 5.93 10.47 5.86 10.47 5.86 10.47 5.86 10.72 1.88 10.72 1.88 10.72 1.88 6.68 5.9 6.68 5.9 6.68 5.9 6.67 5.89 6.67 5.89 6.67 5.89 2.7 9.84 2.7 9.84 2.7 9.84 6.75 9.55 6.75 9.55 6.75 9.55 6.83 10.56 6.83 10.56 6.83 10.56 0.89 10.97 0.89 10.97 0.89 10.97 1.26 5.04 1.26 5.04 1.26 5.04 2.27 5.1 2.27 5.1 2.27 5.1 2.02 9.09 2.02 9.09 2.02 9.09 6.07 5.07 6.07 5.07 6.07 5.07 6.07 5.07 6.07 5.07 6.07 5.07 10.05 1.13 10.05 1.13 10.05 1.13 6 1.41 6 1.41Z" fill="rgb(31,51,68)"/></svg>