<?xml version="1.0" encoding="utf-8"?>
<svg xmlns="http://www.w3.org/2000/svg"
	xmlns:xlink="http://www.w3.org/1999/xlink"
	width="15px" height="15px" viewBox="0 0 15 15">
<path fillRule="evenodd" d="M 14.79 0.78C 14.79 0.78 9.7 5.84 9.7 5.84 9.7 5.84 13.75 5.55 13.75 5.55 13.75 5.55 13.83 6.56 13.83 6.56 13.83 6.56 7.89 6.97 7.89 6.97 7.89 6.97 8.26 1.04 8.26 1.04 8.26 1.04 9.27 1.1 9.27 1.1 9.27 1.1 9.02 5.09 9.02 5.09 9.02 5.09 14.07 0.07 14.07 0.07 14.07 0.07 14.79 0.78 14.79 0.78ZM 5.47 13.87C 5.47 13.87 5.72 9.88 5.72 9.88 5.72 9.88 0.68 14.9 0.68 14.9 0.68 14.9-0.04 14.18-0.04 14.18-0.04 14.18 5.04 9.13 5.04 9.13 5.04 9.13 1 9.41 1 9.41 1 9.41 0.92 8.41 0.92 8.41 0.92 8.41 6.86 7.99 6.86 7.99 6.86 7.99 6.49 13.93 6.49 13.93 6.49 13.93 5.47 13.87 5.47 13.87Z" fill="rgb(31,51,68)"/></svg>