<?xml version="1.0" encoding="utf-8"?>
<svg xmlns="http://www.w3.org/2000/svg"
	xmlns:xlink="http://www.w3.org/1999/xlink"
	width="10px" height="10px" viewBox="0 0 10 10">
<path fillRule="evenodd" d="M 4.04 1.44C 4.04 1.44 3.97 0.42 3.97 0.42 3.97 0.42 9.99-0.01 9.99-0.01 9.99-0.01 9.62 6.02 9.62 6.02 9.62 6.02 8.59 5.95 8.59 5.95 8.59 5.95 8.84 1.91 8.84 1.91 8.84 1.91 4.73 5.99 4.73 5.99 4.73 5.99 4.73 5.98 4.73 5.98 4.73 5.98 0.7 9.98 0.7 9.98 0.7 9.98 0.01 9.22 0.01 9.22 0.01 9.22 4.12 5.15 4.12 5.15 4.12 5.15 4.12 5.15 4.12 5.15 4.12 5.15 8.15 1.15 8.15 1.15 8.15 1.15 4.04 1.44 4.04 1.44Z" fill="rgb(31,51,68)"/></svg>