<svg xmlns="http://www.w3.org/2000/svg" width="72" height="72" viewBox="0 0 72 72"><path d="M39.1 53.695l-.82-.572 5.815-8.32.82.57-5.815 8.322zM38.08 53.547l-.96-.275 2.18-7.63.96.276-2.18 7.63zM34.94 53.547l-2.18-7.63.96-.274 2.18 7.63-.96.274zM33.922 53.696l-5.825-8.32.818-.575 5.825 8.322-.818.574z" class="st2"/><path d="M38.467 57.088h-3.962c-.38 0-1-.627-1-1.005v-3.995h6v3.828c0 .47-.567 1.172-1.038 1.172zM28.536 32.108c0 6.12 2.983 10.98 5.38 13.98h-5.5c-3.305-3-7.416-7.86-7.416-13.98 0-8.46 7.506-15.01 15.506-15.108v.72c-4 2-7.97 7.495-7.97 14.388z" class="st1"/><path d="M36.506 17.72V46.09h-2.59c-2.396-3-5.38-7.86-5.38-13.98 0-6.893 3.97-12.39 7.97-14.387zM36.506 17.72V17c8 .098 15.385 6.648 15.385 15.108 0 6.12-4.23 10.98-7.534 13.98h-5.5c2.396-3 5.5-7.86 5.5-13.98 0-6.893-3.85-12.39-7.85-14.387z" class="st2"/><path d="M44.355 32.108c0 6.12-3.103 11.98-5.5 13.98h-2.35V17.72c4 2 7.85 7.495 7.85 14.388zM54.707 18.354H57v1h-4v-4h1v2.293L58.646 13l.707.707-4.646 4.647zM19.354 15.354v4h-4v-1h2.293L13 13.707l.707-.707 4.646 4.646v-2.293h1zM58.646 59.354L54 54.707V57h-1v-4h4v1h-2.293l4.646 4.646-.707.708zM19.354 53v4h-1v-2.293l-4.646 4.646-.708-.707L17.646 54h-2.293v-1h4z" class="st1"/></svg>