<svg version="1.1" xmlns="http://www.w3.org/2000/svg" xmlns:xlink="http://www.w3.org/1999/xlink" width="72px" height="72px" viewBox="0 0 72 72">
  <path class="st1" d="M17,32h-7v-1h7V32z"/>
  <path class="st1" d="M18,36h-5v-1h5V36z"/>
  <path class="st1" d="M18,28h-5v-1h5V28z"/>
  <path class="st1" d="M49.325,16v-1c7,0,12,4.971,12,11.563v1.413l2.585-2.292l0.606,0.759l-3.848,3.279l-3.836-3.279
                       l0.734-0.759l2.759,2.292v-1.413C60.325,20.541,55.325,16,49.325,16z"/>
  <path class="st2" d="M35.249,47.797l0.388-0.922l8.497,3.577l-0.388,0.922L35.249,47.797z M44.465,50.804l0.737-0.676
                       l-4.92-5.366l-0.737,0.676L44.465,50.804z M46.131,49.664l0.982-0.185l-1.342-7.155l-0.982,0.185L46.131,49.664z"/>
  <path class="st2" d="M47.032,49.003l2.236-8.944l0.97,0.242l-2.236,8.944L47.032,49.003z"/>
  <path class="st1" d="M44.387,54.044l-1.789-3.578l5.366-2.683l1.789,3.578c0.247,0.494,0.047,1.095-0.447,1.342l-3.578,1.789
                       C45.235,54.738,44.634,54.538,44.387,54.044z"/>
  <path class="st1" d="M31.083,20.731l-0.296-0.592c7.195-3.498,15.616-0.587,19.088,6.356c2.511,5.022,1.086,10.601-0.186,14.835
                       l-4.514,2.257c0.527-3.862,1.027-8.978-1.485-14C40.861,23.931,35.48,20.582,31.083,20.731z"/>
  <path class="st2" d="M43.69,29.588c2.511,5.022,2.012,10.138,1.485,14l-2.13,1.065L31.083,20.731
                       C35.48,20.582,40.861,23.931,43.69,29.588z"/>
  <path class="st2" d="M30.708,36.08c2.511,5.022,7.007,7.64,10.413,9.535l-4.514,2.257c-4.151-1.522-9.572-3.678-12.083-8.7
                       c-3.472-6.943-0.851-15.375,6.264-19.033l0.296,0.592C28.325,24.16,27.879,30.422,30.708,36.08z"/>
  <path class="st1" d="M31.083,20.731l11.962,23.922l-1.924,0.962c-3.308-1.7-7.901-4.513-10.413-9.535
                       C27.879,30.422,28.325,24.16,31.083,20.731z"/>
</svg>
