<svg xmlns="http://www.w3.org/2000/svg" width="72" height="72" viewBox="0 0 72 72"><path d="M21 31h-7v-1h7v1zM22 35h-5v-1h5v1zM22 27h-5v-1h5v1z" class="st1"/><path d="M38.932 51.07l-.34-.95c5.382-1.857 7.87-6.736 7.895-6.785l.92.44c-.107.217-2.687 5.297-8.475 7.295z" class="st2"/><path d="M38.065 50.983l-.65-.776c2.777-2.248 4.955-6.817 4.977-6.863l.927.423c-.094.196-2.302 4.824-5.255 7.216z" class="st2"/><path d="M38.25 50h-1.023c0-2-1.976-6.484-1.996-6.525l.924-.583C36.24 43.068 38.25 47 38.25 50z" class="st2"/><path d="M36.905 51.197l-5.316-7.68.843-.562 5.317 7.68-.845.562z" class="st2"/><path d="M39.214 54.978l-4.004-.828a1.005 1.005 0 0 1-.79-1.19l.843-3.937 6.007 1.243-.843 3.936c-.117.543-.66.89-1.213.776zM32.075 31.097c0 5.647 3.025 10.038 5.274 13.055h-5.165C29.083 41.135 25 36.744 25 31.097 25 23.29 31.147 17.09 39.332 17v.665c-4.092 1.844-7.257 7.07-7.257 13.432z" class="st1"/><path d="M39.332 17.665v26.487h-1.984c-2.25-3.017-5.274-7.408-5.274-13.055 0-6.36 3.166-11.588 7.258-13.432z" class="st2"/><path d="M39.332 17.665V17C47.517 17.09 54 23.29 54 31.097c0 5.647-3.748 10.038-6.85 13.055h-5.164c2.25-3.017 4.94-7.408 4.94-13.055 0-6.36-3.5-11.588-7.594-13.432z" class="st2"/><path d="M46.925 31.097c0 5.647-2.69 10.038-4.94 13.055h-2.653V17.665c4.093 1.844 7.593 7.07 7.593 13.432z" class="st1"/></svg>