<svg version="1.1" xmlns="http://www.w3.org/2000/svg" xmlns:xlink="http://www.w3.org/1999/xlink" width="72px" height="72px" viewBox="0 0 72 72">
  <path class="st3" d="M21.87,43.913l5.523,6.276v3.399c0,0.552,0.16,0.448,0.713,0.448h4
                       c0.552,0,1.287,0.104,1.287-0.448v-3.399l5.236-6.276l-0.253-0.155c2.864-3.124,5.995-7.208,5.995-12.356
                       c0-7.763-6.248-14.132-14.248-14.222C22.124,17.27,16,23.64,16,31.402c0,5.088,3.256,9.136,6.111,12.247L21.87,43.913z
                       M26.871,44.036l1.429,5h-0.393l-4.286-5H26.871z M30.106,44.036H32.3l-1.429,5H29.34l-1.429-5h0.042H30.106z M33.34,44.036h3.25
                       l-4.286,5h-0.393L33.34,44.036z"/>
  <path class="st3" d="M30.381,28.864c-0.143,0.808-0.23,1.635-0.23,2.482c0,0.786,0.086,1.565,0.23,2.335V28.864L30.381,28.864z"/>
  <path class="st2" d="M44.372,31.374c0,5.615-4.01,10.157-7.041,13.157h-0.949c-0.735-0.802-1.502-1.723-2.238-2.735
                       c1.718-2.777,3.313-6.31,3.313-10.423c0-3.955-1.202-7.538-3.082-10.116c0.872-0.86,1.859-1.606,2.937-2.222
                       C41.598,21.481,44.372,26.096,44.372,31.374z"/>
  <path class="st1" d="M34.375,21.258c1.879,2.578,3.082,6.161,3.082,10.116c0,4.112-1.596,7.646-3.313,10.423
                       c-1.693-2.327-3.208-5.139-3.762-8.116v-4.817C30.901,25.921,32.32,23.284,34.375,21.258z"/>
  <path class="st1" d="M46.862,49.531v4c0,0.552-0.265,1-1,1h-4c-0.552,0-1-0.448-1-1v-4H46.862z"/>
  <path class="st3" d="M58.508,31.098c0-7.763-6.115-14.008-14.115-14.098c-8,0.09-14.23,6.273-14.23,14.036
                       c0,5.148,3.366,10,6.23,13h0.083l5.422,6.573l0.76-0.774l-4.864-5.799h3.25l1.754,6.385l0.961-0.399l-1.675-5.986h3.504
                       l-1.675,6.11l0.961,0.152l1.754-6.262h3.25l-4.864,5.922l0.76,0.527l5.422-6.449h0.199C54.248,41.036,58.508,36.186,58.508,31.098z
                       M36.936,43.036l-0.279-0.078l-0.06,0.175c-2.243-2.576-5.435-7.024-5.435-11.85c0-7.327,5.81-13.102,13.23-13.191
                       c7.355,0.088,13.115,5.909,13.115,13.237c0,4.245-3.3,8.578-6.364,11.98l-0.13-0.355l-0.279,0.081H36.936z"/>
</svg>
