<svg xmlns="http://www.w3.org/2000/svg" width="72" height="72" viewBox="0 0 72 72"><path d="M62 44.442l-2.675-2.292v1.413c0 6.487-5 11.568-12 11.568v-1c6 0 11-4.64 11-10.567V42.15l-2.675 2.292-.65-.76 3.825-3.278 3.825 3.28-.65.758zM14.325 27.563v1.413L17 26.683l.65.76-3.825 3.278L10 27.443l.65-.76 2.675 2.293v-1.413c0-6.592 5-11.563 12-11.563v1c-6 0-11 4.54-11 10.563z" class="st1"/><path d="M30.726 52.375l-.388-.922 8.497-3.577.388.922-8.497 3.577zM30.006 51.804l-.737-.676 4.92-5.366.736.676-4.92 5.366zM28.34 50.664l-.982-.185 1.342-7.156.982.185-1.342 7.154zM26.47 50.246l-2.237-8.944.97-.242 2.236 8.944-.97.242z" class="st2"/><path d="M28.743 55.49l-3.578-1.788a1 1 0 0 1-.447-1.342l1.79-3.578 5.365 2.683-1.79 3.578a1 1 0 0 1-1.34.448zM30.78 30.588c-2.51 5.022-2.01 10.138-1.484 14l-4.514-2.257c-1.272-4.233-2.698-9.812-.186-14.834 3.472-6.943 11.893-9.854 19.088-6.356l-.296.592c-4.397-.15-9.778 3.2-12.607 8.856z" class="st1"/><path d="M43.388 21.73L31.426 45.654l-2.13-1.065c-.527-3.862-1.027-8.978 1.485-14 2.83-5.657 8.21-9.006 12.608-8.857z" class="st2"/><path d="M43.388 21.73l.296-.59c7.115 3.657 9.736 12.09 6.264 19.032-2.51 5.022-7.932 7.177-12.083 8.7l-4.514-2.257c3.407-1.895 7.902-4.513 10.414-9.535 2.828-5.658 2.382-11.92-.376-15.35z" class="st2"/><path d="M43.763 37.08c-2.51 5.022-7.104 7.835-10.413 9.535l-1.924-.962L43.388 21.73c2.758 3.43 3.204 9.692.375 15.35z" class="st1"/></svg>