<svg xmlns="http://www.w3.org/2000/svg" width="72" height="72" viewBox="0 0 72 72"><path d="M36.578 55H35.42A1.42 1.42 0 0 1 34 53.578V50.42c0-.23.19-.42.422-.42h3.157c.23 0 .42.19.42.422v3.157A1.42 1.42 0 0 1 36.578 55z" class="st3"/><path d="M44.1 43.913c2.855-3.11 6.044-7.158 6.044-12.247 0-7.763-6.115-14.132-14.115-14.222-8 .09-14.23 6.46-14.23 14.222 0 5.148 3.167 9.23 6.03 12.356l-.195.155L33 50.453v3.4c0 .55.476 1.147 1.03 1.147h4c.55 0 .97-.596.97-1.148v-3.4l5.394-6.275-.294-.264zM36.03 45h2.193l-1.43 5h-1.53l-1.43-5h2.196zm-3.236 0l1.43 5h-.394l-4.286-5h3.25zm5.434 5h-.393l1.43-5h3.25l-4.287 5z" class="st1"/><path d="M48.03 31.74c0 5.615-4.75 10.26-8.415 13.26H32.12c-3.607-3-8.093-7.645-8.093-13.26 0-6.325 5.332-12.972 12-13.634 6.582.83 12 7.31 12 13.634z" class="st2"/><path d="M36.006 18c-4.59 1.333-8.12 7.362-8.12 13.687C27.885 37.302 30.92 42 33.36 45H38.396C40.835 42 44 37.302 44 31.687c0-6.325-3.583-12.354-7.994-13.687z" class="st4"/><path d="M40 31.687C40 37.302 38.407 42 37.178 45H34.645c-1.23-3-2.76-7.698-2.76-13.313 0-6.325 1.854-11.854 4.09-13.687C38.212 19.833 40 25.362 40 31.687zM36.094 55h.14C35.48 55 35 54.756 35 54v-4h2v4c0 .55-.356 1-.906 1z" class="st5"/></svg>