<svg version="1.1" xmlns="http://www.w3.org/2000/svg" xmlns:xlink="http://www.w3.org/1999/xlink" width="72px" height="72px" viewBox="0 0 72 72">
  <path class="st1" d="M62,44.442l-2.675-2.292v1.413c0,6.487-5,11.568-12,11.568v-1c6,0,11-4.642,11-10.568V42.15l-2.675,2.292
                       L55,43.683l3.825-3.279l3.825,3.279L62,44.442z"/>
  <path class="st1" d="M14.325,27.563v1.413L17,26.683l0.65,0.759l-3.825,3.279L10,27.442l0.65-0.759l2.675,2.292v-1.413
                       c0-6.592,5-11.563,12-11.563v1C19.325,17,14.325,21.541,14.325,27.563z"/>
  <path class="st2" d="M30.726,52.375l-0.388-0.922l8.497-3.577l0.388,0.922L30.726,52.375z"/>
  <path class="st2" d="M30.006,51.804l-0.737-0.676l4.92-5.366l0.737,0.676L30.006,51.804z"/>
  <path class="st2" d="M28.34,50.664l-0.982-0.185l1.342-7.155l0.982,0.185L28.34,50.664z"/>
  <path class="st2" d="M26.469,50.246l-2.236-8.944l0.97-0.242l2.236,8.944L26.469,50.246z"/>
  <path class="st1" d="M28.743,55.491l-3.578-1.789c-0.494-0.247-0.694-0.848-0.447-1.342l1.789-3.578l5.366,2.683l-1.789,3.578
                       C29.837,55.538,29.237,55.738,28.743,55.491z"/>
  <path class="st1" d="M30.781,30.588c-2.511,5.022-2.012,10.138-1.485,14l-4.514-2.257c-1.272-4.234-2.698-9.813-0.186-14.835
                       c3.472-6.943,11.893-9.854,19.088-6.356l-0.296,0.592C38.991,21.582,33.61,24.931,30.781,30.588z"/>
  <path class="st2" d="M43.388,21.731L31.426,45.653l-2.13-1.065c-0.527-3.862-1.027-8.978,1.485-14
                       C33.61,24.931,38.991,21.582,43.388,21.731z"/>
  <path class="st2" d="M43.388,21.731l0.296-0.592c7.115,3.658,9.736,12.09,6.264,19.033c-2.511,5.022-7.932,7.177-12.083,8.7
                       l-4.514-2.257c3.406-1.895,7.901-4.513,10.413-9.535C46.592,31.422,46.146,25.16,43.388,21.731z"/>
  <path class="st1" d="M43.763,37.08c-2.511,5.022-7.104,7.835-10.413,9.535l-1.924-0.962l11.962-23.922
                       C46.146,25.16,46.592,31.422,43.763,37.08z"/>
</svg>
