<svg xmlns="http://www.w3.org/2000/svg" width="72" height="72" viewBox="0 0 72 72"><path d="M25.38 47.675l3.278 3.825-3.278 3.825-.76-.65L26.913 52H26c-4.544 0-16.5-1.845-16.5-6 0-3.715 3.38-6.97 46.5-12v1c-38.018 4.436-45.5 7.304-45.5 11 0 2.89 10.194 5 15.5 5h.913l-2.293-2.675.76-.65z" class="st1"/><path d="M39.38 51.325l-.76-.65 6-7 .76.65-6 7zM38.48 51.138l-.96-.275 2-7 .96.275-2 7zM35.52 51.138l-2-7 .96-.275 2 7-.96.275zM34.62 51.325l-6-7 .76-.65 6 7-.76.65z" class="st2"/><path d="M39 55h-4a1 1 0 0 1-1-1v-4h6v4a1 1 0 0 1-1 1zM29.685 31.814c0 5.615 2.735 9.967 4.934 13.186H29.57c-3.032-3.218-6.802-7.57-6.802-13.186C22.77 24.05 29 17.682 37 17.592v.66c-4 1.836-7.315 7.237-7.315 13.562z" class="st1"/><path d="M37 18.254V45h-2.38c-2.2-3.218-4.935-7.57-4.935-13.186 0-6.325 3.315-11.726 7.315-13.56z" class="st2"/><path d="M37 18.254v-.66c8 .09 14.115 6.458 14.115 14.22 0 5.616-3.885 9.968-6.916 13.187H39.15c2.2-3.217 5.048-7.57 5.048-13.185 0-6.326-3.2-11.727-7.2-13.56z" class="st2"/><path d="M44.2 31.814C44.2 37.43 41.35 42 39.152 45H37V18.254c4 1.834 7.2 7.235 7.2 13.56z" class="st1"/></svg>