<svg xmlns="http://www.w3.org/2000/svg" width="72" height="72" viewBox="0 0 72 72"><path d="M38.88 50.732l-.76-.65 6-7 .76.65-6 7zm1.1-7.187l-.96-.275-2 7 .96.275 2-7zm-4 6.725l-2-7-.96.275 2 7 .96-.275zm-1.1-.188l-6-7-.76.65 6 7 .76-.65z" class="st2"/><path d="M38.5 54.407h-4a1 1 0 0 1-1-1v-4h6v4a1 1 0 0 1-1 1zM29.185 31.222c0 5.615 2.735 9.967 4.934 13.186H29.07c-3.032-3.218-6.802-7.57-6.802-13.186C22.27 23.46 28.5 17.09 36.5 17v.66c-4 1.835-7.315 7.237-7.315 13.562z" class="st1"/><path d="M36.5 17.66v26.747h-2.38c-2.2-3.218-4.935-7.57-4.935-13.186 0-6.323 3.315-11.725 7.315-13.56z" class="st2"/><path d="M36.5 17.66V17c8 .09 14.115 6.46 14.115 14.222 0 5.615-3.885 9.967-6.916 13.186H38.65c2.2-3.218 5.048-7.57 5.048-13.186 0-6.325-3.2-11.727-7.2-13.56z" class="st2"/><path d="M43.7 31.222c0 5.615-2.85 10.186-5.048 13.186H36.5V17.66c4 1.835 7.2 7.237 7.2 13.562z" class="st1"/><path d="M61 27.04c0 3.41-15.028 4.682-24.5 4.682S12 30.45 12 27.04c0-1.253 1.874-1.806 5.5-2.633v1c-3.64.83-4.5 1.237-4.5 1.633 0 1.466 9.373 3.682 23.5 3.682S60 28.506 60 27.04c0-.396-.86-.803-4.5-1.633v-1c3.626.827 5.5 1.38 5.5 2.633zM58 35.273c0 3.283-17.91 3.45-21.5 3.45-2.303 0-22.5-.098-22.5-3.45 0-.72.724-1.097 5.5-1.865v1c-4.23.682-4.493.87-4.505.897.304.81 6.92 2.417 21.505 2.417 14.152 0 20.335-1.597 20.5-2.452-.01 0-.293-.185-4.5-.862v-1c4.776.768 5.5 1.144 5.5 1.865z" class="st1"/></svg>