<svg xmlns="http://www.w3.org/2000/svg" width="72" height="72" viewBox="0 0 72 72"><path d="M17 32h-7v-1h7v1zM18 36h-5v-1h5v1zM18 28h-5v-1h5v1zM49.325 16v-1c7 0 12 4.97 12 11.563v1.413l2.585-2.292.606.76-3.848 3.278-3.836-3.28.734-.758 2.76 2.292v-1.413c0-6.022-5-10.563-11-10.563z" class="st1"/><path d="M35.25 47.797l.387-.922 8.497 3.577-.388.922-8.497-3.577zm9.215 3.007l.737-.676-4.92-5.366-.737.676 4.92 5.366zm1.666-1.14l.983-.185-1.342-7.156-.98.185 1.34 7.154zM47.032 49.003l2.236-8.944.97.24-2.236 8.945-.97-.242z" class="st2"/><path d="M44.387 54.044l-1.79-3.578 5.367-2.683 1.79 3.578a1 1 0 0 1-.448 1.343l-3.578 1.79a1 1 0 0 1-1.34-.45zM31.083 20.73l-.296-.59c7.195-3.5 15.616-.588 19.088 6.355 2.51 5.022 1.086 10.6-.186 14.835l-4.515 2.257c.527-3.862 1.027-8.978-1.485-14-2.83-5.656-8.21-9.005-12.607-8.856z" class="st1"/><path d="M43.69 29.588c2.51 5.022 2.012 10.138 1.485 14l-2.13 1.065L31.083 20.73c4.397-.148 9.778 3.2 12.607 8.858z" class="st2"/><path d="M30.708 36.08c2.51 5.022 7.007 7.64 10.413 9.535l-4.513 2.257c-4.15-1.522-9.572-3.678-12.083-8.7-3.472-6.943-.85-15.375 6.264-19.033l.296.59c-2.76 3.43-3.205 9.692-.376 15.35z" class="st2"/><path d="M31.083 20.73l11.962 23.923-1.924.962c-3.307-1.7-7.9-4.513-10.412-9.535-2.83-5.658-2.383-11.92.375-15.35z" class="st1"/></svg>