<svg xmlns="http://www.w3.org/2000/svg" width="72" height="72" viewBox="0 0 72 72"><path d="M33.336 50.732l-6-7 .76-.65 6 7-.76.65zM34.234 50.545l-2-7 .962-.275 2 7-.962.275z" class="st2"/><path d="M38.83 49.407v4c0 .552-.265 1-1 1h-4a1 1 0 0 1-1-1v-4h6z" class="st1"/><path d="M49.945 31.018c0-7.763-6.115-14.03-14.115-14.12-8 .09-14.23 6.306-14.23 14.07C21.6 36.114 24.967 41 27.83 44h9.194l-1.675 6.066.96.174L38.066 44h3.25l-4.864 5.878.76.55L42.63 44h.2c2.855-3 7.115-7.894 7.115-12.982zM28.275 43c-2.25-2-5.675-6.985-5.675-11.982 0-7.327 5.81-13.03 13.23-13.12 7.355.088 13.115 5.944 13.115 13.273 0 4.246-3.3 8.393-6.364 11.795l-.408.035H28.274z" class="st3"/><path d="M28.685 31.5c0 5.41 2.565 9.5 4.764 12.5H28.4c-3.032-3-6.632-7.09-6.632-12.5 0-7.48 6.4-13.414 14.4-13.5v.637c-4 1.767-7.485 6.768-7.485 12.862z" class="st1"/><path d="M36.83 18.19s-4.157 5.65-4.157 13.014S34.83 44 34.83 44h-1.38c-2.2-3-4.935-7.09-4.935-12.5 0-6.095 3.815-11.866 8.315-13.31z" class="st2"/></svg>