<svg version="1.1" xmlns="http://www.w3.org/2000/svg" xmlns:xlink="http://www.w3.org/1999/xlink" width="72px" height="72px" viewBox="0 0 72 72">
  <path class="st2" d="M38.879,50.732l-0.759-0.65l6-7l0.759,0.65L38.879,50.732z M39.981,43.545l-0.962-0.275l-2,7l0.962,0.275
                       L39.981,43.545z M35.981,50.27l-2-7l-0.962,0.275l2,7L35.981,50.27z M34.879,50.082l-6-7l-0.759,0.65l6,7L34.879,50.082z"/>
  <path class="st1" d="M38.5,54.407h-4c-0.552,0-1-0.448-1-1v-4h6v4C39.5,53.96,39.052,54.407,38.5,54.407z"/>
  <path class="st1" d="M29.185,31.222c0,5.615,2.735,9.967,4.934,13.186h-5.047c-3.032-3.218-6.802-7.57-6.802-13.186
                       C22.27,23.459,28.5,17.09,36.5,17v0.661C32.5,19.495,29.185,24.897,29.185,31.222z"/>
  <path class="st2" d="M36.5,17.661v26.746h-2.381c-2.199-3.218-4.934-7.57-4.934-13.186C29.185,24.897,32.5,19.495,36.5,17.661z"		/>
  <path class="st2" d="M36.5,17.661V17c8,0.09,14.115,6.459,14.115,14.222c0,5.615-3.885,9.967-6.916,13.186h-5.047
                       c2.199-3.218,5.048-7.57,5.048-13.186C43.7,24.897,40.5,19.495,36.5,17.661z"/>
  <path class="st1" d="M43.7,31.222c0,5.615-2.85,10.186-5.048,13.186H36.5V17.661C40.5,19.495,43.7,24.897,43.7,31.222z"/>
  <path class="st1" d="M61,27.04c0,3.41-15.028,4.682-24.5,4.682S12,30.45,12,27.04c0-1.253,1.874-1.806,5.5-2.633v1
                       c-3.64,0.83-4.5,1.237-4.5,1.633c0,1.466,9.373,3.682,23.5,3.682S60,28.506,60,27.04c0-0.396-0.86-0.803-4.5-1.633v-1
                       C59.126,25.234,61,25.787,61,27.04z"/>
  <path class="st1" d="M58,35.273c0,3.283-17.91,3.449-21.5,3.449c-2.303,0-22.5-0.097-22.5-3.449c0-0.721,0.724-1.097,5.5-1.865
                       v1c-4.229,0.682-4.493,0.87-4.505,0.897c0.304,0.811,6.92,2.417,21.505,2.417c14.152,0,20.335-1.597,20.5-2.452
                       c-0.011,0-0.293-0.185-4.5-0.862v-1C57.276,34.176,58,34.552,58,35.273z"/>
</svg>
