<svg version="1.1" xmlns="http://www.w3.org/2000/svg" xmlns:xlink="http://www.w3.org/1999/xlink" width="72px" height="72px" viewBox="0 0 72 72">
  <path class="st2" d="M39.1,53.695l-0.82-0.572l5.815-8.321l0.82,0.572L39.1,53.695z"/>
  <path class="st2" d="M38.081,53.547l-0.961-0.275l2.18-7.629l0.961,0.275L38.081,53.547z"/>
  <path class="st2" d="M34.94,53.547l-2.18-7.629l0.961-0.275l2.18,7.629L34.94,53.547z"/>
  <path class="st2" d="M33.922,53.696l-5.825-8.321l0.818-0.574l5.825,8.321L33.922,53.696z"/>
  <path class="st1" d="M38.467,57.088h-3.962c-0.379,0-1-0.627-1-1.005v-3.995h6v3.828C39.506,56.386,38.938,57.088,38.467,57.088		z"/>
  <path class="st1" d="M28.536,32.108c0,6.119,2.983,10.979,5.379,13.979h-5.5c-3.304-3-7.415-7.86-7.415-13.979
                       c0-8.46,7.506-15.011,15.506-15.108v0.721C32.506,19.719,28.536,25.215,28.536,32.108z"/>
  <path class="st2" d="M36.506,17.721v28.367h-2.59c-2.396-3-5.379-7.86-5.379-13.979C28.536,25.215,32.506,19.719,36.506,17.721z"/>
  <path class="st2" d="M36.506,17.721V17c8,0.098,15.385,6.648,15.385,15.108c0,6.119-4.231,10.979-7.535,13.979h-5.5
                       c2.396-3,5.499-7.86,5.499-13.979C44.355,25.215,40.506,19.719,36.506,17.721z"/>
  <path class="st1" d="M44.355,32.108c0,6.119-3.103,11.979-5.499,13.979h-2.35V17.721C40.506,19.719,44.355,25.215,44.355,32.108z"/>
  <path class="st1" d="M54.707,18.354H57v1h-4v-4h1v2.293L58.646,13l0.707,0.707L54.707,18.354z"/>
  <path class="st1" d="M19.354,15.354v4h-4v-1h2.293L13,13.707L13.707,13l4.646,4.646v-2.293H19.354z"/>
  <path class="st1" d="M58.646,59.354L54,54.707V57h-1v-4h4v1h-2.293l4.646,4.646L58.646,59.354z"/>
  <path class="st1" d="M19.354,53v4h-1v-2.293l-4.646,4.646L13,58.646L17.646,54h-2.293v-1H19.354z"/>
</svg>
