<svg version="1.1" xmlns="http://www.w3.org/2000/svg" xmlns:xlink="http://www.w3.org/1999/xlink" width="72px" height="72px" viewBox="0 0 72 72">  
  <path class="st1" d="M25.38,47.675l3.278,3.825l-3.278,3.825l-0.76-0.65L26.913,52H26c-4.544,0-16.5-1.845-16.5-6
                       c0-3.715,3.379-6.969,46.5-12v1c-38.018,4.436-45.5,7.304-45.5,11c0,2.889,10.194,5,15.5,5h0.913l-2.293-2.675L25.38,47.675z"/>
  <path class="st2" d="M39.38,51.325l-0.76-0.65l6-7l0.76,0.65L39.38,51.325z"/>
  <path class="st2" d="M38.48,51.138l-0.961-0.275l2-7l0.961,0.275L38.48,51.138z"/>
  <path class="st2" d="M35.52,51.138l-2-7l0.961-0.275l2,7L35.52,51.138z"/>
  <path class="st2" d="M34.62,51.325l-6-7l0.76-0.65l6,7L34.62,51.325z"/>
  <path class="st1" d="M39,55h-4c-0.552,0-1-0.448-1-1v-4h6v4C40,54.552,39.552,55,39,55z"/>
  <path class="st1" d="M29.685,31.814c0,5.615,2.735,9.967,4.934,13.186h-5.047c-3.032-3.218-6.802-7.57-6.802-13.186
                       c0-7.763,6.23-14.132,14.23-14.222v0.661C33,20.088,29.685,25.489,29.685,31.814z"/>
  <path class="st2" d="M37,18.254V45h-2.381c-2.199-3.218-4.934-7.57-4.934-13.186C29.685,25.489,33,20.088,37,18.254z"/>
  <path class="st2" d="M37,18.254v-0.661c8,0.09,14.115,6.459,14.115,14.222c0,5.615-3.885,9.967-6.916,13.186h-5.047
                       c2.199-3.218,5.048-7.57,5.048-13.186C44.2,25.489,41,20.088,37,18.254z"/>
  <path class="st1" d="M44.2,31.814C44.2,37.43,41.35,42,39.152,45H37V18.254C41,20.088,44.2,25.489,44.2,31.814z"/>
</svg>
