<svg version="1.1" xmlns="http://www.w3.org/2000/svg" xmlns:xlink="http://www.w3.org/1999/xlink" width="72px" height="72px" viewBox="0 0 72 72">
  <path class="st2" d="M33.336,50.732l-6-7l0.759-0.65l6,7L33.336,50.732z"/>
  <path class="st2" d="M34.234,50.545l-2-7l0.962-0.275l2,7L34.234,50.545z"/>
  <path class="st1" d="M38.83,49.407v4c0,0.552-0.265,1-1,1h-4c-0.552,0-1-0.448-1-1v-4H38.83z"/>
  <path class="st3" d="M49.945,31.018c0-7.763-6.115-14.03-14.115-14.12c-8,0.09-14.23,6.306-14.23,14.069
                       C21.6,36.115,24.967,41,27.83,44h9.194l-1.675,6.066l0.962,0.174L38.065,44h3.25l-4.864,5.878l0.759,0.549L42.631,44h0.199
                       C45.685,41,49.945,36.106,49.945,31.018z M28.274,43c-2.248-2-5.674-6.985-5.674-11.982c0-7.327,5.81-13.031,13.23-13.12
                       c7.355,0.088,13.115,5.944,13.115,13.273c0,4.245-3.3,8.392-6.364,11.794L42.172,43H28.274z"/>
  <path class="st1" d="M28.685,31.499c0,5.41,2.565,9.501,4.764,12.501h-5.047c-3.032-3-6.632-7.091-6.632-12.501
                       c0-7.479,6.4-13.413,14.4-13.499v0.637C32.17,20.404,28.685,25.405,28.685,31.499z"/>
  <path class="st2" d="M36.83,18.189c0,0-4.157,5.652-4.157,13.015S34.83,44,34.83,44h-1.381c-2.199-3-4.934-7.091-4.934-12.501
                       C28.515,25.405,32.33,19.634,36.83,18.189z"/>
</svg>
