<svg xmlns="http://www.w3.org/2000/svg" width="72" height="72" viewBox="0 0 72 72"><path d="M37.114 50.85l-.23-.975c5.482-1.283 9.852-6.084 9.895-6.133l.743.668c-.185.208-4.617 5.083-10.41 6.44z" class="st2"/><path d="M36.274 50.78l-.55-.836c2.976-1.954 7.033-6.58 7.074-6.626l.753.658c-.168.194-4.187 4.775-7.276 6.804z" class="st2"/><path d="M37.48 50.5l-.96-.275c1.095-3.835-.72-7.048-.738-7.08l.867-.5c.083.146 2.042 3.616.83 7.854z" class="st2"/><path d="M37.04 50.352l-5.214-7.604.825-.565 5.213 7.604-.824.565z" class="st2"/><path d="M35.508 53.755l-3.286-2.28a1 1 0 0 1-.25-1.392l2.28-3.286 4.928 3.42-2.28 3.287a1.002 1.002 0 0 1-1.392.25zM34.23 30.423c-.604 5.583 1.647 10.203 3.487 13.64L32.7 43.52c-2.668-3.526-5.95-8.258-5.345-13.84.834-7.718 7.712-13.38 15.676-12.61l-.07.658c-4.175 1.393-8.05 6.407-8.73 12.695z" class="st1"/><path d="M42.96 17.728l-2.875 26.59-2.368-.255c-1.84-3.436-4.09-8.057-3.488-13.64.68-6.288 4.555-11.302 8.73-12.695z" class="st2"/><path d="M42.96 17.728l.07-.658c7.944.95 13.34 7.94 12.505 15.656-.603 5.583-4.933 9.492-8.293 12.366l-5.018-.542c2.532-2.963 5.833-6.984 6.436-12.567.68-6.288-1.92-12.002-5.7-14.255z" class="st2"/><path d="M48.66 31.983c-.603 5.583-3.928 9.82-6.436 12.567l-2.14-.23 2.875-26.592c3.78 2.253 6.38 7.967 5.7 14.255zM23 32H11v-1h12v1zM24 36h-9v-1h9v1zM24 28h-9v-1h9v1z" class="st1"/></svg>