<svg version="1.1" xmlns="http://www.w3.org/2000/svg" xmlns:xlink="http://www.w3.org/1999/xlink" width="72px" height="72px" viewBox="0 0 72 72">
  <path class="st1" d="M21,31h-7v-1h7V31z"/>
  <path class="st1" d="M22,35h-5v-1h5V35z"/>
  <path class="st1" d="M22,27h-5v-1h5V27z"/>
  <path class="st2" d="M38.932,51.07l-0.34-0.949c5.382-1.858,7.871-6.737,7.895-6.786l0.919,0.441
                       C47.3,43.992,44.72,49.072,38.932,51.07z"/>
  <path class="st2" d="M38.065,50.983l-0.651-0.776c2.778-2.248,4.956-6.817,4.978-6.863l0.927,0.423
                       C43.226,43.963,41.018,48.591,38.065,50.983z"/>
  <path class="st2" d="M38.25,50h-1.023c0-2-1.976-6.484-1.996-6.525l0.923-0.583C36.24,43.068,38.25,47,38.25,50z"/>
  <path class="st2" d="M36.905,51.197l-5.316-7.679l0.844-0.563l5.317,7.68L36.905,51.197z"/>
  <path class="st1" d="M39.214,54.978L35.21,54.15c-0.553-0.114-0.907-0.648-0.79-1.191l0.843-3.936l6.007,1.243l-0.843,3.936
                       C40.31,54.745,39.767,55.093,39.214,54.978z"/>
  <path class="st1" d="M32.075,31.097c0,5.647,3.025,10.038,5.274,13.055h-5.164C29.083,41.135,25,36.744,25,31.097
                       C25,23.291,31.147,17.09,39.332,17v0.665C35.24,19.509,32.075,24.736,32.075,31.097z"/>
  <path class="st2" d="M39.332,17.665v26.487h-1.984c-2.249-3.017-5.274-7.408-5.274-13.055
                       C32.075,24.736,35.24,19.509,39.332,17.665z"/>
  <path class="st2" d="M39.332,17.665V17C47.517,17.09,54,23.291,54,31.097c0,5.647-3.748,10.038-6.85,13.055h-5.164
                       c2.249-3.017,4.939-7.408,4.939-13.055C46.925,24.736,43.425,19.509,39.332,17.665z"/>
  <path class="st1" d="M46.925,31.097c0,5.647-2.689,10.038-4.939,13.055h-2.654V17.665
                       C43.425,19.509,46.925,24.736,46.925,31.097z"/>
</svg>
