<svg xmlns="http://www.w3.org/2000/svg" width="72" height="72" viewBox="0 0 72 72"><path d="M58 15v4h-1v-2.293l-4.646 4.646-.707-.707L56.293 16H54v-1h4zM21.646 21.354L17 16.707V19h-1v-4h4v1h-2.293l4.646 4.646-.707.708zM58 53v4h-4v-1h2.293l-4.646-4.646.707-.707L57 55.293V53h1zM17.707 56H20v1h-4v-4h1v2.293l3.646-3.646.707.707L17.707 56z" class="st1"/><path d="M39.05 47.838l-.756-.64 3.773-4.58.756.64zM37.328 47.69l-.925-.344 1.662-4.58.925.344z" class="st2"/><path d="M36.41 47.708l-1.856-4.58.91-.38 1.857 4.58zM34.673 47.83l-3.615-4.58.77-.624 3.614 4.58z" class="st2"/><path d="M39.13 51h-3.94c-.835 0-1.19.204-1.19-.643V47h6v3.357c0 .907.024.643-.87.643zM31.367 32.43c0 4.418 2.227 9.533 3.933 10.53h-3.917C29.03 41.964 26 36.85 26 32.43c0-6.108 5.033-10.36 10.94-10.43v.52c-3.938 1.443-5.573 4.933-5.573 9.91z" class="st1"/><path d="M36.94 22.52v20.44H35.3c-1.706-.997-3.933-6.112-3.933-10.53 0-4.977 1.635-8.467 5.573-9.91zM36.94 22.52V22C42.848 22.07 48 26.322 48 32.43c0 4.418-2.91 9.533-5.264 10.53H38.82c1.705-.997 3.813-6.112 3.813-10.53 0-4.977-1.754-8.467-5.693-9.91z" class="st2"/><path d="M42.633 32.43c0 4.418-2.108 9.533-3.814 10.53h-1.88V22.52c3.94 1.443 5.693 4.933 5.693 9.91z" class="st1"/></svg>