<svg xmlns="http://www.w3.org/2000/svg" width="72" height="72" viewBox="0 0 72 72"><path d="M21.87 43.913l5.523 6.276v3.398c0 .552.16.448.713.448h4c.552 0 1.287.104 1.287-.448v-3.4l5.236-6.275-.254-.155c2.864-3.124 5.995-7.208 5.995-12.356 0-7.763-6.247-14.132-14.247-14.222-8 .09-14.123 6.46-14.123 14.222 0 5.088 3.256 9.136 6.11 12.247l-.24.263zm5 .123l1.43 5h-.393l-4.286-5h3.25zm3.236 0H32.3l-1.43 5h-1.53l-1.43-5h2.196zm3.234 0h3.25l-4.286 5h-.393l1.43-5z" class="st3"/><path d="M30.38 28.864c-.142.808-.23 1.635-.23 2.482 0 .786.087 1.565.23 2.335v-4.816z" class="st3"/><path d="M44.372 31.374c0 5.615-4.01 10.157-7.04 13.157h-.95a31.473 31.473 0 0 1-2.238-2.734c1.718-2.777 3.313-6.31 3.313-10.423 0-3.955-1.202-7.538-3.082-10.116.872-.86 1.86-1.606 2.937-2.222 4.286 2.446 7.06 7.06 7.06 12.34z" class="st2"/><path d="M34.375 21.258c1.88 2.578 3.082 6.16 3.082 10.116 0 4.112-1.596 7.646-3.313 10.423-1.693-2.327-3.208-5.14-3.762-8.116v-4.816a14.105 14.105 0 0 1 3.993-7.606zM46.862 49.53v4c0 .553-.265 1-1 1h-4a1 1 0 0 1-1-1v-4h6z" class="st1"/><path d="M58.508 31.098c0-7.763-6.115-14.008-14.115-14.098-8 .09-14.23 6.273-14.23 14.036 0 5.148 3.366 10 6.23 13h.083l5.422 6.573.76-.775-4.864-5.8h3.25l1.754 6.386.96-.398-1.674-5.986h3.504l-1.675 6.11.96.152 1.755-6.262h3.25l-4.864 5.922.76.527 5.422-6.45h.2c2.852-3 7.112-7.85 7.112-12.937zM36.936 43.036l-.28-.078-.06.175c-2.242-2.576-5.434-7.024-5.434-11.85 0-7.327 5.81-13.102 13.23-13.19 7.355.087 13.115 5.908 13.115 13.236 0 4.244-3.3 8.577-6.364 11.98l-.13-.356-.28.08H36.937z" class="st3"/></svg>