<svg version="1.1" xmlns="http://www.w3.org/2000/svg" xmlns:xlink="http://www.w3.org/1999/xlink" width="72px" height="72px" viewBox="0 0 72 72">  
  <path class="st1" d="M58,15v4h-1v-2.293l-4.646,4.646l-0.707-0.707L56.293,16H54v-1H58z"/>
  <path class="st1" d="M21.646,21.354L17,16.707V19h-1v-4h4v1h-2.293l4.646,4.646L21.646,21.354z"/>
  <path class="st1" d="M58,53v4h-4v-1h2.293l-4.646-4.646l0.707-0.707L57,55.293V53H58z"/>
  <path class="st1" d="M17.707,56H20v1h-4v-4h1v2.293l3.646-3.646l0.707,0.707L17.707,56z"/>
  <polygon class="st2" points="39.05,47.838 38.294,47.198 42.067,42.618 42.823,43.257 			"/>
  <polygon class="st2" points="37.328,47.691 36.403,47.346 38.065,42.765 38.99,43.11 			"/>
  <polygon class="st2" points="36.41,47.708 34.554,43.127 35.465,42.748 37.321,47.329 			"/>
  <polygon class="st2" points="34.673,47.83 31.058,43.25 31.827,42.626 35.442,47.206 			"/>
  <path class="st1" d="M39.129,51h-3.938C34.355,51,34,51.204,34,50.357V47h6v3.357C40,51.264,40.024,51,39.129,51z"/>
  <path class="st1" d="M31.367,32.43c0,4.418,2.227,9.533,3.933,10.531h-3.917C29.03,41.963,26,36.848,26,32.43
                       c0-6.108,5.033-10.359,10.94-10.43v0.521C33.002,23.963,31.367,27.453,31.367,32.43z"/>
  <path class="st2" d="M36.94,22.521v20.44h-1.64c-1.706-0.998-3.933-6.113-3.933-10.531
                       C31.367,27.453,33.002,23.963,36.94,22.521z"/>
  <path class="st2" d="M36.94,22.521V22C42.848,22.071,48,26.322,48,32.43c0,4.418-2.911,9.533-5.264,10.531h-3.917
                       c1.706-0.998,3.814-6.113,3.814-10.531C42.633,27.453,40.879,23.963,36.94,22.521z"/>
  <path class="st1" d="M42.633,32.43c0,4.418-2.108,9.533-3.814,10.531H36.94v-20.44C40.879,23.963,42.633,27.453,42.633,32.43z"		/>
</svg>
