<svg version="1.1" xmlns="http://www.w3.org/2000/svg" xmlns:xlink="http://www.w3.org/1999/xlink" width="72px" height="72px" viewBox="0 0 72 72">
  <path class="st2" d="M37.114,50.849l-0.229-0.974c5.481-1.283,9.851-6.084,9.894-6.133l0.744,0.668
                       C47.338,44.618,42.906,49.493,37.114,50.849z"/>
  <path class="st2" d="M36.274,50.78l-0.549-0.836c2.975-1.954,7.032-6.58,7.073-6.626l0.753,0.658
                       C43.382,44.17,39.363,48.751,36.274,50.78z"/>
  <path class="st2" d="M37.48,50.499l-0.961-0.274c1.096-3.835-0.719-7.048-0.737-7.08l0.867-0.5
                       C36.733,42.791,38.692,46.261,37.48,50.499z"/>
  <path class="st2" d="M37.039,50.352l-5.213-7.604l0.825-0.565l5.212,7.604L37.039,50.352z"/>
  <path class="st1" d="M35.508,53.755l-3.286-2.28c-0.454-0.315-0.566-0.938-0.251-1.392l2.28-3.286l4.929,3.421l-2.28,3.286
                       C36.585,53.957,35.962,54.069,35.508,53.755z"/>
  <path class="st1" d="M34.229,30.423c-0.603,5.583,1.648,10.203,3.488,13.639L32.7,43.52c-2.668-3.526-5.949-8.258-5.345-13.84
                       c0.834-7.718,7.712-13.381,15.676-12.61l-0.071,0.658C38.785,19.121,34.909,24.135,34.229,30.423z"/>
  <path class="st2" d="M42.959,17.728l-2.874,26.591l-2.368-0.256c-1.84-3.436-4.091-8.057-3.488-13.639
                       C34.909,24.135,38.785,19.121,42.959,17.728z"/>
  <path class="st2" d="M42.959,17.728l0.071-0.658c7.944,0.949,13.339,7.939,12.505,15.656c-0.603,5.583-4.933,9.492-8.293,12.366
                       l-5.018-0.542c2.532-2.963,5.833-6.984,6.436-12.567C49.34,25.695,46.739,19.981,42.959,17.728z"/>
  <path class="st1" d="M48.66,31.983c-0.603,5.583-3.928,9.82-6.436,12.567l-2.139-0.231l2.874-26.591
                       C46.739,19.981,49.34,25.695,48.66,31.983z"/>
  <path class="st1" d="M23,32H11v-1h12V32z"/>
  <path class="st1" d="M24,36h-9v-1h9V36z"/>
  <path class="st1" d="M24,28h-9v-1h9V28z"/>
</svg>
