<svg version="1.1" xmlns="http://www.w3.org/2000/svg" xmlns:xlink="http://www.w3.org/1999/xlink" width="72px" height="72px" viewBox="0 0 72 72">
  <path class="st3" d="M36.578,55h-1.157C34.636,55,34,54.364,34,53.578v-3.157C34,50.189,34.189,50,34.422,50
                       h3.157C37.811,50,38,50.189,38,50.422v3.157C38,54.364,37.364,55,36.578,55z"/>
  <path class="st1" d="M44.1,43.913c2.855-3.11,6.044-7.158,6.044-12.247c0-7.763-6.115-14.132-14.115-14.222
                       c-8,0.09-14.23,6.459-14.23,14.222c0,5.148,3.168,9.231,6.031,12.356l-0.195,0.155L33,50.453v3.399C33,54.404,33.476,55,34.029,55
                       h4C38.581,55,39,54.404,39,53.852v-3.399l5.394-6.276L44.1,43.913z M36.029,45h2.194l-1.429,5h-1.531l-1.429-5H36.029z M32.794,45
                       l1.429,5H33.83l-4.286-5H32.794z M38.228,50h-0.393l1.429-5h3.25L38.228,50z"/>
  <path class="st2" d="M48.029,31.74c0,5.615-4.75,10.26-8.414,13.26h-3.586h-3.907
                       c-3.607-3-8.093-7.645-8.093-13.26c0-6.325,5.333-12.972,12-13.634C42.612,18.935,48.029,25.415,48.029,31.74z"/>
  <path class="st4" d="M36.006,18c-4.59,1.333-8.121,7.362-8.121,13.687c0,5.615,3.036,10.313,5.477,13.313h2.644
                       h2.389C40.836,42,44,37.302,44,31.687C44,25.362,40.417,19.333,36.006,18z"/>
  <path class="st5" d="M40,31.687C40,37.302,38.407,42,37.178,45h-1.203h-1.331c-1.229-3-2.758-7.698-2.758-13.313
                       c0-6.325,1.853-11.854,4.09-13.687C38.211,19.833,40,25.362,40,31.687z"/>
  <path class="st5" d="M36.094,55h0.141C35.478,55,35,54.756,35,54v-4h2v4C37,54.55,36.644,55,36.094,55z"/>
</svg>
