<svg width="510px" height="510px" viewBox="0 0 51 51" version="1.1" xmlns="http://www.w3.org/2000/svg" xmlns:xlink="http://www.w3.org/1999/xlink">
    <g stroke-width="1" fill="none" fill-rule="evenodd">
        <g>
            <g transform="translate(11.000000, 11.000000)">
                <path d="M28.658,0.882 C28.515,0.669 28.331,0.485 28.118,0.341 C27.799,0.126 27.414,0 27,0 L2,0 C0.896,0 0,0.895 0,2 L0,28 C0,29.105 0.896,30 2,30 L27,30 C27.414,30 27.799,29.874 28.118,29.658 C28.331,29.515 28.515,29.331 28.658,29.118 C28.874,28.799 29,28.414 29,28 L29,2 C29,1.586 28.874,1.201 28.658,0.882" class="st1"></path>
                <path d="M9.883,17.565 C9.631,17.565 9.369,17.706 9.159,17.976 L3,26 L14,26 L10.642,18.161 C10.463,17.757 10.179,17.565 9.883,17.565" class="st2"></path>
                <path d="M25.991,26 L21.184,15.123 C20.852,14.388 20.169,14.37 19.715,14.939 L11,26 L25.991,26" class="st3"></path>
                <path d="M8.457,8.032 C8.457,9.689 7.562,11.032 6.457,11.032 C5.353,11.032 4.457,9.689 4.457,8.032 C4.457,6.376 5.353,5.032 6.457,5.032 C7.562,5.032 8.457,6.376 8.457,8.032" class="st3"></path>
            </g>
        </g>
    </g>
</svg>