<svg xmlns="http://www.w3.org/2000/svg" width="510" height="510" viewBox="0 0 51 51"><g fill="none" fill-rule="evenodd"><path d="M40 33a2 2 0 0 1-2 2H13a2 2 0 0 1-2-2V17a2 2 0 0 1 2-2h25a2 2 0 0 1 2 2v16" class="st1"/><path d="M40 26.835V33a2 2 0 0 1-2 2H13a2 2 0 0 1-2-2v-1.945L2.437 39h46.688L40 26.835M11.517 10.304A5.62 5.62 0 0 0 11 21.52V17a2 2 0 0 1 2-2h4.06a5.62 5.62 0 0 0-5.543-4.696" class="st2"/><path d="M17.137 15.924a5.63 5.63 0 0 0-.082-.924H13a2 2 0 0 0-2 2v4.518a5.62 5.62 0 0 0 6.137-5.594" class="st3"/><path fill="#9ED7FB" d="M16.993 26.412c-.547 0-1.123.21-1.6.567L11 31.054l4.394-4.076c.476-.358 1.052-.568 1.6-.568.535 0 1.043.2 1.405.66l3.325 5.426-3.326-5.425c-.363-.46-.87-.66-1.407-.66"/><path d="M16.993 26.412c-.547 0-1.123.21-1.6.567L11 31.054V33a2 2 0 0 0 2 2h6.146l2.58-2.502-3.327-5.425c-.363-.46-.87-.66-1.407-.66" class="st4"/><path d="M32.977 21.578L19.147 35H38a2 2 0 0 0 2-2v-6.165L35.998 21.5c-.78-.886-2.12-.68-3.02.078" class="st3"/><path d="M38 16c.55 0 1 .45 1 1v16c0 .55-.45 1-1 1H13c-.55 0-1-.45-1-1V17c0-.55.45-1 1-1h25m0-1H13a2 2 0 0 0-2 2v16a2 2 0 0 0 2 2h25a2 2 0 0 0 2-2V17a2 2 0 0 0-2-2" class="st1"/></g></svg>