<svg xmlns="http://www.w3.org/2000/svg" width="510" height="510" viewBox="0 0 51 51"><g fill="none" fill-rule="evenodd"><path d="M39.658 11.882A2 2 0 0 0 38 11H13a2 2 0 0 0-2 2v26a2 2 0 0 0 2 2h25a1.988 1.988 0 0 0 1.658-.882c.216-.32.342-.704.342-1.118V13c0-.414-.126-.8-.342-1.118" class="st1"/><path d="M20.883 28.565c-.252 0-.514.14-.724.41L14 37h11l-3.358-7.84c-.18-.403-.463-.595-.76-.595" class="st2"/><path d="M36.99 37l-4.806-10.877c-.332-.735-1.015-.753-1.47-.184L22 37h14.99M19.457 19.032c0 1.657-.895 3-2 3-1.104 0-2-1.343-2-3 0-1.656.896-3 2-3 1.105 0 2 1.344 2 3" class="st3"/></g></svg>