<svg xmlns="http://www.w3.org/2000/svg" width="510" height="510" viewBox="0 0 51 51"><g fill="none" fill-rule="evenodd"><path d="M38 11H13a2 2 0 0 0-2 2v26a2 2 0 0 0 2 2h25a2 2 0 0 0 2-2V13a2 2 0 0 0-2-2m1 28c0 .55-.45 1-1 1H13c-.55 0-1-.45-1-1v-3h27v3M12 16v-3c0-.55.45-1 1-1h25c.55 0 1 .45 1 1v3H12" class="st1"/><path d="M20.808 27.494c-.23 0-.46.078-.65.24L14 33h11l-3.358-5.06a.996.996 0 0 0-.834-.446" class="st2"/><path d="M36.992 33l-4.808-7.085a1 1 0 0 0-1.47-.206L22 33h14.992M19.457 21.355a2 2 0 1 1-4 0 2 2 0 0 1 4 0" class="st3"/></g></svg>