<svg xmlns="http://www.w3.org/2000/svg" width="510" height="510" viewBox="0 0 51 51"><g fill="none" fill-rule="evenodd"><path d="M39.658 16.882A1.988 1.988 0 0 0 38 16H13a2 2 0 0 0-2 2v16a2 2 0 0 0 2 2h25a1.988 1.988 0 0 0 1.658-.882c.216-.32.342-.704.342-1.118V18c0-.414-.126-.8-.342-1.118" class="st1"/><path d="M20.808 27.494c-.23 0-.46.078-.65.24L14 33h11l-3.358-5.06a.996.996 0 0 0-.834-.446" class="st2"/><path d="M36.992 33l-4.808-7.085a1 1 0 0 0-1.47-.205L22 33h14.992M19.457 21.355a2 2 0 1 1-4 0 2 2 0 0 1 4 0" class="st3"/></g></svg>