<svg width="510px" height="510px" viewBox="0 0 51 51" version="1.1" xmlns="http://www.w3.org/2000/svg" xmlns:xlink="http://www.w3.org/1999/xlink">
    <g stroke="none" stroke-width="1" fill="none" fill-rule="evenodd">
        <g>
            <g transform="translate(2.000000, 10.000000)">
                <path d="M38,23 C38,24.105 37.105,25 36,25 L11,25 C9.895,25 9,24.105 9,23 L9,7 C9,5.895 9.895,5 11,5 L36,5 C37.105,5 38,5.895 38,7 L38,23" class="st1"></path>
                <path d="M38,16.835 L38,23 C38,24.105 37.105,25 36,25 L11,25 C9.895,25 9,24.105 9,23 L9,21.055 L0.437,29 L47.125,29 L38,16.835" class="st2"></path>
              <path d="M9.517,0.304 C6.413,0.304 3.897,2.82 3.897,5.924 C3.897,8.854 6.138,11.26 9,11.521 L9,7 C9,5.895 9.895,5 11,5 L15.061,5 C14.621,2.336 12.306,0.304 9.517,0.304" class="st2"></path>
              <path d="M15.137,5.924 C15.137,5.609 15.105,5.301 15.055,5 L11,5 C9.895,5 9,5.895 9,7 L9,11.518 C9.17,11.534 9.342,11.544 9.517,11.544 C12.621,11.544 15.137,9.028 15.137,5.924" class="st3"></path>
              <path d="M14.993,16.412 C14.446,16.412 13.87,16.622 13.394,16.979 L9,21.055 L13.394,16.979 C13.87,16.622 14.446,16.412 14.993,16.412 C15.529,16.412 16.037,16.613 16.399,17.073 L19.725,22.498 L16.399,17.073 C16.037,16.613 15.529,16.412 14.993,16.412" id="Fill-7" fill="#9ED7FB"></path>
              <path d="M14.993,16.412 C14.446,16.412 13.87,16.622 13.394,16.979 L9,21.055 L9,23 C9,24.105 9.896,25 11,25 L17.146,25 L19.725,22.498 L16.399,17.073 C16.037,16.613 15.529,16.412 14.993,16.412" class="st4"></path>
              <path d="M30.977,11.578 L17.146,25 L36,25 C37.105,25 38,24.105 38,23 L38,16.835 L33.998,11.5 C33.217,10.614 31.879,10.819 30.977,11.578" class="st3"></path>
              <path d="M36,6 C36.551,6 37,6.449 37,7 L37,23 C37,23.551 36.551,24 36,24 L11,24 C10.449,24 10,23.551 10,23 L10,7 C10,6.449 10.449,6 11,6 L36,6 M36,5 L11,5 C9.895,5 9,5.895 9,7 L9,23 C9,24.105 9.895,25 11,25 L36,25 C37.105,25 38,24.105 38,23 L38,7 C38,5.895 37.105,5 36,5" class="st1"></path>
            </g>
        </g>
    </g>
</svg>