<svg width="510px" height="510px" viewBox="0 0 51 51" version="1.1" xmlns="http://www.w3.org/2000/svg" xmlns:xlink="http://www.w3.org/1999/xlink">
    <g stroke="none" stroke-width="1" fill="none" fill-rule="evenodd">
        <g>
            <g transform="translate(11.000000, 11.000000)">
                <path d="M27,0 L2,0 C0.896,0 0,0.895 0,2 L0,28 C0,29.105 0.896,30 2,30 L27,30 C28.105,30 29,29.105 29,28 L29,2 C29,0.895 28.105,0 27,0 M28,28 C28,28.551 27.551,29 27,29 L2,29 C1.449,29 1,28.551 1,28 L1,25 L28,25 L28,28 M1,5 L1,2 C1,1.449 1.449,1 2,1 L27,1 C27.551,1 28,1.449 28,2 L28,5 L1,5" class="st1"></path>
                <path d="M9.808,16.494 C9.579,16.494 9.348,16.572 9.159,16.734 L3,22 L14,22 L10.642,16.941 C10.448,16.648 10.13,16.494 9.808,16.494" class="st2"></path>
                <path d="M25.992,22 L21.184,14.915 C20.852,14.425 20.169,14.33 19.715,14.709 L11,22 L25.992,22" class="st3"></path>
                <path d="M8.457,10.355 C8.457,11.459 7.562,12.355 6.457,12.355 C5.353,12.355 4.457,11.459 4.457,10.355 C4.457,9.25 5.353,8.355 6.457,8.355 C7.562,8.355 8.457,9.25 8.457,10.355" class="st3"></path>
            </g>
        </g>
    </g>
</svg>