<svg width="510px" height="510px" viewBox="0 0 51 51" version="1.1" xmlns="http://www.w3.org/2000/svg" xmlns:xlink="http://www.w3.org/1999/xlink" >

    <g stroke-width="1" fill="none" fill-rule="evenodd" >
        <g>
            <g transform="translate(11.000000, 16.000000)">
                <path d="M28.658,0.882 C28.515,0.669 28.331,0.485 28.118,0.342 C27.799,0.126 27.414,0 27,0 L2,0 C0.895,0 0,0.895 0,2 L0,18 C0,19.105 0.895,20 2,20 L27,20 C27.414,20 27.799,19.874 28.118,19.658 C28.331,19.515 28.515,19.331 28.658,19.118 C28.874,18.799 29,18.414 29,18 L29,2 C29,1.586 28.874,1.201 28.658,0.882" class="st1"></path>
                <path d="M9.808,11.494 C9.579,11.494 9.348,11.572 9.159,11.734 L3,17 L14,17 L10.642,11.941 C10.448,11.648 10.13,11.494 9.808,11.494" class="st2"></path>
                <path d="M25.992,17 L21.184,9.915 C20.852,9.425 20.169,9.33 19.715,9.71 L11,17 L25.992,17" class="st3"></path>
                <path d="M8.457,5.355 C8.457,6.459 7.562,7.355 6.457,7.355 C5.353,7.355 4.457,6.459 4.457,5.355 C4.457,4.25 5.353,3.355 6.457,3.355 C7.562,3.355 8.457,4.25 8.457,5.355" class="st3"></path>
            </g>
        </g>
    </g>
</svg>