<?xml version="1.0" encoding="UTF-8" standalone="no"?>
<svg width="78px" height="36px" viewBox="0 0 78 36" version="1.1" xmlns="http://www.w3.org/2000/svg">
    <g id="Page-1" stroke="none" stroke-width="1" fill="none" fill-rule="evenodd">
        <g id="ltr">
            <path d="M51.6081,36 L69.8211,36 C70.4741,36 71.0611,35.598 71.3081,34.983 L77.8801,18.62 C78.0401,18.223 78.0401,17.777 77.8801,17.38 L71.3081,1.017 C71.0611,0.402 70.4741,0 69.8211,0 L51.6081,0 C50.4661,0 49.6891,1.179 50.1211,2.256 L56.1961,17.38 C56.3551,17.777 56.3551,18.223 56.1961,18.62 L50.1211,33.744 C49.6891,34.821 50.4661,36 51.6081,36" id="Fill-1" fill="#3899EC"></path>
            <path d="M26.6083,36 L44.8213,36 C45.4743,36 46.0613,35.598 46.3083,34.983 L52.8803,18.62 C53.0403,18.223 53.0403,17.777 52.8803,17.38 L46.3083,1.017 C46.0613,0.402 45.4743,0 44.8213,0 L26.6083,0 C25.4663,0 24.6893,1.179 25.1213,2.256 L31.1963,17.38 C31.3553,17.777 31.3553,18.223 31.1963,18.62 L25.1213,33.744 C24.6893,34.821 25.4663,36 26.6083,36" id="Fill-4" fill="#7FCCF8"></path>
            <path d="M1.6081,36 L19.8211,36 C20.4741,36 21.0611,35.598 21.3081,34.983 L27.8801,18.62 C28.0401,18.223 28.0401,17.777 27.8801,17.38 L21.3081,1.017 C21.0611,0.402 20.4741,0 19.8211,0 L1.6081,0 C0.4661,0 -0.3109,1.179 0.1211,2.256 L6.1961,17.38 C6.3551,17.777 6.3551,18.223 6.1961,18.62 L0.1211,33.744 C-0.3109,34.821 0.4661,36 1.6081,36" id="Fill-6" fill="#A7E2F9"></path>
            <path d="M63.7015855,18.313 C63.6869187,18.6210015 63.7217517,18.8996654 63.8060855,19.149 C63.8904192,19.3983346 64.0150847,19.6109991 64.1800855,19.787 C64.3450863,19.9630009 64.5504176,20.1004995 64.7960855,20.1995 C65.0417534,20.2985005 65.3185839,20.348 65.6265855,20.348 C65.8759201,20.348 66.119751,20.3113337 66.3580855,20.238 C66.59642,20.1646663 66.8072512,20.0546674 66.9905855,19.908 C67.1739197,19.7613326 67.3205849,19.583501 67.4305855,19.3745 C67.540586,19.165499 67.5955855,18.9216681 67.5955855,18.643 C67.5955855,18.3716653 67.5479193,18.1333344 67.4525855,17.928 C67.3572517,17.7226656 67.225253,17.5521673 67.0565855,17.4165 C66.887918,17.2808327 66.6917533,17.1800003 66.4680855,17.114 C66.2444177,17.0479997 66.0042534,17.015 65.7475855,17.015 L65.1645855,17.015 L65.1645855,16.432 L65.7475855,16.432 C65.9235864,16.432 66.1050845,16.4063336 66.2920855,16.355 C66.4790864,16.3036664 66.6477514,16.2193339 66.7980855,16.102 C66.9484196,15.9846661 67.0712517,15.8380009 67.1665855,15.662 C67.2619193,15.4859991 67.3095855,15.2770012 67.3095855,15.035 C67.3095855,14.7856654 67.2655859,14.5693342 67.1775855,14.386 C67.089585,14.2026657 66.9685862,14.0505006 66.8145855,13.9295 C66.6605847,13.8084994 66.4809198,13.7205003 66.2755855,13.6655 C66.0702511,13.6104997 65.8539199,13.583 65.6265855,13.583 C65.340584,13.583 65.0875866,13.6306662 64.8675855,13.726 C64.6475844,13.8213338 64.4624196,13.9551658 64.3120855,14.1275 C64.1617514,14.2998342 64.0499192,14.5051655 63.9765855,14.7435 C63.9032518,14.9818345 63.8702521,15.2439986 63.8775855,15.53 L63.1845855,15.53 C63.1845855,15.1706649 63.2414182,14.8351682 63.3550855,14.5235 C63.4687527,14.2118318 63.6300844,13.9441678 63.8390855,13.7205 C64.0480865,13.4968322 64.3029173,13.320834 64.6035855,13.1925 C64.9042536,13.064166 65.2415836,13 65.6155855,13 C65.9162536,13 66.209584,13.0384996 66.4955855,13.1155 C66.7815869,13.1925004 67.0364177,13.3098325 67.2600855,13.4675 C67.4837533,13.6251675 67.6634181,13.8286654 67.7990855,14.078 C67.9347528,14.3273346 68.0025855,14.620665 68.0025855,14.958 C68.0025855,15.3760021 67.8907533,15.7389985 67.6670855,16.047 C67.4434177,16.3550015 67.1225876,16.5603328 66.7045855,16.663 L66.7045855,16.685 C67.210588,16.7656671 67.6010841,16.9764983 67.8760855,17.3175 C68.1510869,17.6585017 68.2885855,18.0819975 68.2885855,18.588 C68.2885855,18.9620019 68.2170862,19.2956652 68.0740855,19.589 C67.9310848,19.8823348 67.7385867,20.127999 67.4965855,20.326 C67.2545843,20.524001 66.9722538,20.6743328 66.6495855,20.777 C66.3269172,20.8796672 65.9895872,20.931 65.6375855,20.931 C65.2415835,20.931 64.8767538,20.8723339 64.5430855,20.755 C64.2094171,20.6376661 63.92342,20.4671678 63.6850855,20.2435 C63.446751,20.0198322 63.2670861,19.744835 63.1460855,19.4185 C63.0250849,19.092165 62.979252,18.7236687 63.0085855,18.313 L63.7015855,18.313 Z" id="3" fill="#FFFFFF"></path>
            <path d="M43.071,20.766 L38,20.766 C38.0073334,20.3846648 38.075166,20.0473348 38.2035,19.754 C38.331834,19.4606652 38.4968323,19.1966678 38.6985,18.962 C38.9001677,18.7273322 39.129332,18.5128343 39.386,18.3185 C39.6426679,18.1241657 39.9066653,17.9371676 40.178,17.7575 C40.4493347,17.5778324 40.7169987,17.3963342 40.981,17.213 C41.2450013,17.0296657 41.4869989,16.8280011 41.707,16.608 C41.9196677,16.3953323 42.0791661,16.1771678 42.1855,15.9535 C42.2918339,15.7298322 42.345,15.4640015 42.345,15.156 C42.345,14.9066654 42.2991671,14.6848343 42.2075,14.4905 C42.1158329,14.2961657 41.9911675,14.1311673 41.8335,13.9955 C41.6758325,13.8598327 41.492501,13.757167 41.2835,13.6875 C41.074499,13.617833 40.8526678,13.583 40.618,13.583 C40.3026651,13.583 40.0331678,13.6416661 39.8095,13.759 C39.5858322,13.8763339 39.404334,14.033999 39.265,14.232 C39.125666,14.430001 39.0248336,14.657332 38.9625,14.914 C38.9001664,15.1706679 38.8726666,15.4419986 38.88,15.728 L38.187,15.728 C38.1796666,15.331998 38.2254995,14.9671683 38.3245,14.6335 C38.4235005,14.2998317 38.5756656,14.0120012 38.781,13.77 C38.9863344,13.5279988 39.2448318,13.3391673 39.5565,13.2035 C39.8681682,13.0678327 40.2329979,13 40.651,13 C40.988335,13 41.3018319,13.0458329 41.5915,13.1375 C41.8811681,13.2291671 42.1323323,13.3666657 42.345,13.55 C42.5576677,13.7333342 42.7263327,13.958832 42.851,14.2265 C42.9756673,14.494168 43.038,14.8076649 43.038,15.167 C43.038,15.4896683 42.9848339,15.7829987 42.8785,16.047 C42.7721661,16.3110013 42.6291676,16.5529989 42.4495,16.773 C42.2698324,16.9930011 42.0626678,17.1964991 41.828,17.3835 C41.5933322,17.5705009 41.3513346,17.7446659 41.102,17.906 C40.9113324,18.0306673 40.6931679,18.1681659 40.4475,18.3185 C40.2018321,18.4688341 39.9635012,18.6356657 39.7325,18.819 C39.5014988,19.0023342 39.2980009,19.2021656 39.122,19.4185 C38.9459991,19.6348344 38.8360002,19.871332 38.792,20.128 L43.071,20.128 L43.071,20.766 Z" id="2" fill="#FFFFFF"></path>
            <path d="M13,14.485 C13.3006682,14.4776666 13.5738321,14.4611668 13.8195,14.4355 C14.0651679,14.4098332 14.2778324,14.3511671 14.4575,14.2595 C14.6371676,14.1678329 14.7874994,14.023001 14.9085,13.825 C15.0295006,13.626999 15.1156664,13.3520018 15.167,13 L15.728,13 L15.728,20.7 L15.035,20.7 L15.035,14.98 L13,14.98 L13,14.485 Z" id="1" fill="#FFFFFF"></path>
        </g>
    </g>
</svg>