<svg xmlns="http://www.w3.org/2000/svg" width="78" height="36" viewBox="0 0 78 36"><g fill="none" fill-rule="evenodd"><path fill="#3899EC" d="M26.392 36H8.18c-.654 0-1.24-.402-1.488-1.017L.12 18.62a1.662 1.662 0 0 1 0-1.24L6.692 1.017A1.606 1.606 0 0 1 8.18 0H26.39c1.142 0 1.92 1.18 1.487 2.256L21.803 17.38a1.67 1.67 0 0 0 0 1.24l6.075 15.124C28.31 34.82 27.533 36 26.39 36"/><path fill="#7FCCF8" d="M51.392 36H33.18c-.654 0-1.24-.402-1.488-1.017L25.12 18.62a1.662 1.662 0 0 1 0-1.24l6.572-16.363A1.606 1.606 0 0 1 33.18 0H51.39c1.142 0 1.92 1.18 1.487 2.256L46.803 17.38a1.67 1.67 0 0 0 0 1.24l6.075 15.124C53.31 34.82 52.533 36 51.39 36"/><path fill="#A7E2F9" d="M76.392 36H58.18c-.654 0-1.24-.402-1.488-1.017L50.12 18.62a1.662 1.662 0 0 1 0-1.24l6.572-16.363A1.606 1.606 0 0 1 58.18 0H76.39c1.142 0 1.92 1.18 1.487 2.256L71.803 17.38a1.67 1.67 0 0 0 0 1.24l6.075 15.124C78.31 34.82 77.533 36 76.39 36"/><path fill="#FFF" d="M60 14.485c.3-.007.574-.024.82-.05a1.81 1.81 0 0 0 .638-.176c.18-.092.33-.237.45-.435.122-.198.208-.473.26-.825h.56v7.7h-.693v-5.72H60v-.495zM40.07 20.766H35c.007-.38.075-.72.203-1.012.13-.293.294-.557.495-.792.202-.235.43-.45.688-.643.257-.196.52-.383.792-.563.27-.18.54-.36.803-.544.265-.183.507-.385.727-.605.213-.213.372-.43.478-.655.107-.223.16-.49.16-.797a1.474 1.474 0 0 0-.51-1.16 1.617 1.617 0 0 0-.552-.308 2.09 2.09 0 0 0-.665-.104c-.315 0-.585.06-.81.176a1.514 1.514 0 0 0-.543.472c-.14.198-.24.425-.303.682a3.1 3.1 0 0 0-.082.814h-.693c-.007-.396.038-.76.138-1.095.1-.333.25-.62.456-.863.206-.242.465-.43.776-.566A2.724 2.724 0 0 1 37.651 13c.338 0 .652.046.942.137.29.092.54.23.753.413.213.183.38.41.506.676.126.268.188.582.188.94 0 .324-.053.617-.16.88-.106.265-.25.507-.428.727-.18.22-.387.423-.622.61-.235.188-.477.362-.726.523-.19.125-.41.262-.654.413a7.17 7.17 0 0 0-.715.5c-.232.182-.435.382-.61.6a1.518 1.518 0 0 0-.33.708h4.278v.638zM10.702 18.313c-.015.308.02.587.104.836.084.248.21.46.374.637.165.176.37.313.616.413.246.1.523.148.83.148.25 0 .494-.037.732-.11.238-.073.45-.183.633-.33a1.55 1.55 0 0 0 .605-1.265c0-.27-.047-.51-.142-.715a1.405 1.405 0 0 0-.396-.512 1.69 1.69 0 0 0-.59-.302 2.535 2.535 0 0 0-.72-.1h-.582v-.582h.583c.176 0 .357-.026.544-.077a1.39 1.39 0 0 0 .874-.693c.096-.176.144-.385.144-.627 0-.25-.044-.466-.132-.65a1.27 1.27 0 0 0-.363-.455 1.482 1.482 0 0 0-.54-.264 2.498 2.498 0 0 0-.648-.083c-.286 0-.54.048-.76.143-.22.095-.405.23-.555.4a1.67 1.67 0 0 0-.335.617 2.45 2.45 0 0 0-.1.787h-.692c0-.36.056-.695.17-1.006a2.33 2.33 0 0 1 .484-.803c.208-.223.463-.4.764-.527.3-.13.638-.193 1.012-.193.3 0 .594.038.88.116.286.077.54.194.764.35.224.16.403.363.54.612.135.25.203.543.203.88 0 .418-.112.78-.336 1.09-.224.307-.544.512-.962.615v.022c.506.08.896.29 1.17.633.276.34.414.764.414 1.27 0 .374-.073.708-.216 1-.143.294-.335.54-.577.738a2.536 2.536 0 0 1-.847.45c-.323.104-.66.155-1.012.155-.396 0-.76-.058-1.095-.175a2.398 2.398 0 0 1-.858-.51 2.125 2.125 0 0 1-.54-.826 2.617 2.617 0 0 1-.136-1.107h.692z"/></g></svg>