<?xml version="1.0" encoding="UTF-8" standalone="no"?>
<svg width="78px" height="36px" viewBox="0 0 78 36" version="1.1" xmlns="http://www.w3.org/2000/svg">
    <g id="Page-1" stroke="none" stroke-width="1" fill="none" fill-rule="evenodd">
        <g id="rtl">
            <path d="M1.60810094,36 L19.8211009,36 C20.4741009,36 21.0611009,35.598 21.3081009,34.983 L27.8801009,18.62 C28.0401009,18.223 28.0401009,17.777 27.8801009,17.38 L21.3081009,1.017 C21.0611009,0.402 20.4741009,0 19.8211009,0 L1.60810094,0 C0.466100945,0 -0.310899055,1.179 0.121100945,2.256 L6.19610094,17.38 C6.35510094,17.777 6.35510094,18.223 6.19610094,18.62 L0.121100945,33.744 C-0.310899055,34.821 0.466100945,36 1.60810094,36" id="Fill-1" fill="#3899EC" transform="translate(14.000050, 18.000000) scale(-1, 1) translate(-14.000050, -18.000000) "></path>
            <path d="M26.6083009,36 L44.8213009,36 C45.4743009,36 46.0613009,35.598 46.3083009,34.983 L52.8803009,18.62 C53.0403009,18.223 53.0403009,17.777 52.8803009,17.38 L46.3083009,1.017 C46.0613009,0.402 45.4743009,0 44.8213009,0 L26.6083009,0 C25.4663009,0 24.6893009,1.179 25.1213009,2.256 L31.1963009,17.38 C31.3553009,17.777 31.3553009,18.223 31.1963009,18.62 L25.1213009,33.744 C24.6893009,34.821 25.4663009,36 26.6083009,36" id="Fill-4" fill="#7FCCF8" transform="translate(39.000250, 18.000000) scale(-1, 1) translate(-39.000250, -18.000000) "></path>
            <path d="M51.6081009,36 L69.8211009,36 C70.4741009,36 71.0611009,35.598 71.3081009,34.983 L77.8801009,18.62 C78.0401009,18.223 78.0401009,17.777 77.8801009,17.38 L71.3081009,1.017 C71.0611009,0.402 70.4741009,0 69.8211009,0 L51.6081009,0 C50.4661009,0 49.6891009,1.179 50.1211009,2.256 L56.1961009,17.38 C56.3551009,17.777 56.3551009,18.223 56.1961009,18.62 L50.1211009,33.744 C49.6891009,34.821 50.4661009,36 51.6081009,36" id="Fill-6" fill="#A7E2F9" transform="translate(64.000050, 18.000000) scale(-1, 1) translate(-64.000050, -18.000000) "></path>
            <path d="M60,14.485 C60.3006682,14.4776666 60.5738321,14.4611668 60.8195,14.4355 C61.0651679,14.4098332 61.2778324,14.3511671 61.4575,14.2595 C61.6371676,14.1678329 61.7874994,14.023001 61.9085,13.825 C62.0295006,13.626999 62.1156664,13.3520018 62.167,13 L62.728,13 L62.728,20.7 L62.035,20.7 L62.035,14.98 L60,14.98 L60,14.485 Z" id="1" fill="#FFFFFF"></path>
            <path d="M40.071,20.766 L35,20.766 C35.0073334,20.3846648 35.075166,20.0473348 35.2035,19.754 C35.331834,19.4606652 35.4968323,19.1966678 35.6985,18.962 C35.9001677,18.7273322 36.129332,18.5128343 36.386,18.3185 C36.6426679,18.1241657 36.9066653,17.9371676 37.178,17.7575 C37.4493347,17.5778324 37.7169987,17.3963342 37.981,17.213 C38.2450013,17.0296657 38.4869989,16.8280011 38.707,16.608 C38.9196677,16.3953323 39.0791661,16.1771678 39.1855,15.9535 C39.2918339,15.7298322 39.345,15.4640015 39.345,15.156 C39.345,14.9066654 39.2991671,14.6848343 39.2075,14.4905 C39.1158329,14.2961657 38.9911675,14.1311673 38.8335,13.9955 C38.6758325,13.8598327 38.492501,13.757167 38.2835,13.6875 C38.074499,13.617833 37.8526678,13.583 37.618,13.583 C37.3026651,13.583 37.0331678,13.6416661 36.8095,13.759 C36.5858322,13.8763339 36.404334,14.033999 36.265,14.232 C36.125666,14.430001 36.0248336,14.657332 35.9625,14.914 C35.9001664,15.1706679 35.8726666,15.4419986 35.88,15.728 L35.187,15.728 C35.1796666,15.331998 35.2254995,14.9671683 35.3245,14.6335 C35.4235005,14.2998317 35.5756656,14.0120012 35.781,13.77 C35.9863344,13.5279988 36.2448318,13.3391673 36.5565,13.2035 C36.8681682,13.0678327 37.2329979,13 37.651,13 C37.988335,13 38.3018319,13.0458329 38.5915,13.1375 C38.8811681,13.2291671 39.1323323,13.3666657 39.345,13.55 C39.5576677,13.7333342 39.7263327,13.958832 39.851,14.2265 C39.9756673,14.494168 40.038,14.8076649 40.038,15.167 C40.038,15.4896683 39.9848339,15.7829987 39.8785,16.047 C39.7721661,16.3110013 39.6291676,16.5529989 39.4495,16.773 C39.2698324,16.9930011 39.0626678,17.1964991 38.828,17.3835 C38.5933322,17.5705009 38.3513346,17.7446659 38.102,17.906 C37.9113324,18.0306673 37.6931679,18.1681659 37.4475,18.3185 C37.2018321,18.4688341 36.9635012,18.6356657 36.7325,18.819 C36.5014988,19.0023342 36.2980009,19.2021656 36.122,19.4185 C35.9459991,19.6348344 35.8360002,19.871332 35.792,20.128 L40.071,20.128 L40.071,20.766 Z" id="2" fill="#FFFFFF"></path>
            <path d="M10.7015855,18.313 C10.6869187,18.6210015 10.7217517,18.8996654 10.8060855,19.149 C10.8904192,19.3983346 11.0150847,19.6109991 11.1800855,19.787 C11.3450863,19.9630009 11.5504176,20.1004995 11.7960855,20.1995 C12.0417534,20.2985005 12.3185839,20.348 12.6265855,20.348 C12.8759201,20.348 13.119751,20.3113337 13.3580855,20.238 C13.59642,20.1646663 13.8072512,20.0546674 13.9905855,19.908 C14.1739197,19.7613326 14.3205849,19.583501 14.4305855,19.3745 C14.540586,19.165499 14.5955855,18.9216681 14.5955855,18.643 C14.5955855,18.3716653 14.5479193,18.1333344 14.4525855,17.928 C14.3572517,17.7226656 14.225253,17.5521673 14.0565855,17.4165 C13.887918,17.2808327 13.6917533,17.1800003 13.4680855,17.114 C13.2444177,17.0479997 13.0042534,17.015 12.7475855,17.015 L12.1645855,17.015 L12.1645855,16.432 L12.7475855,16.432 C12.9235864,16.432 13.1050845,16.4063336 13.2920855,16.355 C13.4790864,16.3036664 13.6477514,16.2193339 13.7980855,16.102 C13.9484196,15.9846661 14.0712517,15.8380009 14.1665855,15.662 C14.2619193,15.4859991 14.3095855,15.2770012 14.3095855,15.035 C14.3095855,14.7856654 14.2655859,14.5693342 14.1775855,14.386 C14.089585,14.2026657 13.9685862,14.0505006 13.8145855,13.9295 C13.6605847,13.8084994 13.4809198,13.7205003 13.2755855,13.6655 C13.0702511,13.6104997 12.8539199,13.583 12.6265855,13.583 C12.340584,13.583 12.0875866,13.6306662 11.8675855,13.726 C11.6475844,13.8213338 11.4624196,13.9551658 11.3120855,14.1275 C11.1617514,14.2998342 11.0499192,14.5051655 10.9765855,14.7435 C10.9032518,14.9818345 10.8702521,15.2439986 10.8775855,15.53 L10.1845855,15.53 C10.1845855,15.1706649 10.2414182,14.8351682 10.3550855,14.5235 C10.4687527,14.2118318 10.6300844,13.9441678 10.8390855,13.7205 C11.0480865,13.4968322 11.3029173,13.320834 11.6035855,13.1925 C11.9042536,13.064166 12.2415836,13 12.6155855,13 C12.9162536,13 13.209584,13.0384996 13.4955855,13.1155 C13.7815869,13.1925004 14.0364177,13.3098325 14.2600855,13.4675 C14.4837533,13.6251675 14.6634181,13.8286654 14.7990855,14.078 C14.9347528,14.3273346 15.0025855,14.620665 15.0025855,14.958 C15.0025855,15.3760021 14.8907533,15.7389985 14.6670855,16.047 C14.4434177,16.3550015 14.1225876,16.5603328 13.7045855,16.663 L13.7045855,16.685 C14.210588,16.7656671 14.6010841,16.9764983 14.8760855,17.3175 C15.1510869,17.6585017 15.2885855,18.0819975 15.2885855,18.588 C15.2885855,18.9620019 15.2170862,19.2956652 15.0740855,19.589 C14.9310848,19.8823348 14.7385867,20.127999 14.4965855,20.326 C14.2545843,20.524001 13.9722538,20.6743328 13.6495855,20.777 C13.3269172,20.8796672 12.9895872,20.931 12.6375855,20.931 C12.2415835,20.931 11.8767538,20.8723339 11.5430855,20.755 C11.2094171,20.6376661 10.92342,20.4671678 10.6850855,20.2435 C10.446751,20.0198322 10.2670861,19.744835 10.1460855,19.4185 C10.0250849,19.092165 9.979252,18.7236687 10.0085855,18.313 L10.7015855,18.313 Z" id="3" fill="#FFFFFF"></path>
        </g>
    </g>
</svg>