<?xml version="1.0" encoding="UTF-8" standalone="no"?>
<svg width="51px" height="51px" viewBox="0 0 51 51" version="1.1" xmlns="http://www.w3.org/2000/svg" xmlns:xlink="http://www.w3.org/1999/xlink">
    
    <g stroke="none" stroke-width="1" fill="none" fill-rule="evenodd">
        <g class="st1" >
            <path d="M25.6629231,24.346 C25.9749231,24.323 26.2659231,24.254 26.5359231,24.139 C26.8059231,24.025 27.0279231,23.86 27.2019231,23.644 C27.3759231,23.428 27.4629231,23.14 27.4629231,22.781 C27.4629231,22.24 27.2829231,21.826 26.9229231,21.538 C26.5629231,21.25 26.1489231,21.106 25.6809231,21.106 C25.0329231,21.106 24.5439231,21.32 24.2139231,21.745 C23.8839231,22.172 23.7249231,22.708 23.7369231,23.356 L21.3069231,23.356 C21.3309231,22.708 21.4479231,22.117 21.6579231,21.583 C21.8679231,21.05 22.1619231,20.591 22.5399231,20.206 C22.9179231,19.823 23.3709231,19.525 23.8989231,19.315 C24.4269231,19.106 25.0149231,19 25.6629231,19 C26.1669231,19 26.6709231,19.075 27.1749231,19.225 C27.6789231,19.375 28.1319231,19.6 28.5339231,19.9 C28.9359231,20.2 29.2629231,20.566 29.5149231,20.998 C29.7669231,21.43 29.8929231,21.928 29.8929231,22.492 C29.8929231,23.093 29.7459231,23.629 29.4519231,24.103 C29.1579231,24.577 28.7169231,24.898 28.1289231,25.066 C28.8249231,25.259 29.3709231,25.597 29.7669231,26.119 C30.1629231,26.641 30.3609231,27.256 30.3609231,27.964 C30.3609231,28.624 30.2319231,29.212 29.9739231,29.728 C29.7159231,30.244 29.3709231,30.676 28.9389231,31.024 C28.5069231,31.372 28.0089231,31.639 27.4449231,31.825 C26.8809231,32.011 26.2929231,32.104 25.6809231,32.104 C24.9729231,32.104 24.3279231,32.002 23.7459231,31.798 C23.1639231,31.594 22.6689231,31.294 22.2609231,30.898 C21.8529231,30.502 21.5379231,30.019 21.3159231,29.45 C21.0939231,28.879 20.9889231,28.234 21.0009231,27.514 L23.4309231,27.514 C23.4429231,27.862 23.4969231,28.186 23.5929231,28.486 C23.6889231,28.786 23.8269231,29.047 24.0069231,29.269 C24.1869231,29.491 24.4119231,29.668 24.6819231,29.8 C24.9519231,29.932 25.2729231,29.998 25.6449231,29.998 C26.2209231,29.998 26.7069231,29.818 27.1029231,29.458 C27.4989231,29.098 27.6969231,28.618 27.6969231,28.018 C27.6969231,27.538 27.6039231,27.172 27.4179231,26.92 C27.2319231,26.668 26.9949231,26.486 26.7069231,26.371 C26.4189231,26.258 26.1039231,26.191 25.7619231,26.173 C25.4199231,26.156 25.0929231,26.146 24.7809231,26.146 L24.7809231,24.346 C25.0569231,24.37 25.3509231,24.37 25.6629231,24.346 Z"></path>
        </g>
    </g>
</svg>