<?xml version="1.0" encoding="UTF-8" standalone="no"?>
<svg width="51px" height="51px" viewBox="0 0 51 51" version="1.1" xmlns="http://www.w3.org/2000/svg" xmlns:xlink="http://www.w3.org/1999/xlink">
    <g stroke="none" stroke-width="1" fill="none" fill-rule="evenodd">
        <g class="st1">
            <path d="M25.386,26.072 C25.386,24.848 25.509,23.819 25.755,22.985 C26.001,22.151 26.334,21.482 26.754,20.978 C27.174,20.474 27.663,20.114 28.221,19.898 C28.779,19.682 29.37,19.574 29.994,19.574 C30.618,19.574 31.212,19.682 31.776,19.898 C32.34,20.114 32.835,20.474 33.261,20.978 C33.687,21.482 34.023,22.151 34.269,22.985 C34.515,23.819 34.638,24.848 34.638,26.072 C34.638,27.332 34.515,28.382 34.269,29.222 C34.023,30.063 33.687,30.74 33.261,31.256 C32.835,31.772 32.34,32.138 31.776,32.354 C31.212,32.57 30.618,32.678 29.994,32.678 C29.37,32.678 28.779,32.57 28.221,32.354 C27.663,32.138 27.174,31.772 26.754,31.256 C26.334,30.74 26.001,30.063 25.755,29.222 C25.509,28.382 25.386,27.332 25.386,26.072 L25.386,26.072 Z M27.942,26.072 C27.942,26.432 27.954,26.867 27.979,27.377 C28.002,27.888 28.077,28.379 28.203,28.853 C28.329,29.327 28.53,29.732 28.806,30.068 C29.082,30.404 29.478,30.572 29.994,30.572 C30.51,30.572 30.912,30.404 31.2,30.068 C31.488,29.732 31.695,29.327 31.821,28.853 C31.947,28.379 32.021,27.888 32.046,27.377 C32.07,26.867 32.082,26.432 32.082,26.072 C32.082,25.856 32.079,25.595 32.073,25.289 C32.066,24.983 32.043,24.668 32.001,24.344 C31.959,24.02 31.899,23.699 31.821,23.381 C31.743,23.063 31.626,22.778 31.47,22.526 C31.313,22.274 31.116,22.07 30.876,21.914 C30.636,21.758 30.342,21.68 29.994,21.68 C29.658,21.68 29.37,21.758 29.13,21.914 C28.89,22.07 28.695,22.274 28.545,22.526 C28.394,22.778 28.278,23.063 28.194,23.381 C28.11,23.699 28.05,24.02 28.014,24.344 C27.979,24.668 27.957,24.983 27.951,25.289 C27.945,25.595 27.942,25.856 27.942,26.072 L27.942,26.072 Z"></path>
            <path d="M19.5,32.426 L19.5,24.254 L16.332,24.254 L16.332,22.328 C16.775,22.34 17.205,22.307 17.619,22.229 C18.033,22.151 18.407,22.013 18.744,21.815 C19.079,21.617 19.358,21.356 19.581,21.032 C19.803,20.708 19.95,20.306 20.021,19.826 L22.056,19.826 L22.056,32.426 L19.5,32.426 Z"></path>
        </g>
    </g>
</svg>