<svg xmlns="http://www.w3.org/2000/svg" width="51" height="51" viewBox="0 0 51 51"><path fill="none" fill-rule="evenodd" d="M24.474 21.106l-.504 2.862.036.036c.348-.348.72-.597 1.116-.747a3.79 3.79 0 0 1 1.35-.225c.624 0 1.176.114 1.656.342.48.228.885.534 1.215.918a4 4 0 0 1 .756 1.36c.173.52.26 1.077.26 1.664 0 .648-.125 1.25-.377 1.81a4.615 4.615 0 0 1-1.018 1.448c-.426.41-.92.726-1.484.954a4.53 4.53 0 0 1-1.8.324c-.61 0-1.196-.084-1.755-.252a4.512 4.512 0 0 1-1.485-.756 3.747 3.747 0 0 1-1.035-1.25c-.258-.5-.393-1.078-.405-1.738h2.556c.06.564.28 1.02.657 1.368.378.348.85.522 1.413.522.336 0 .636-.066.9-.198s.492-.31.684-.54c.192-.228.34-.49.442-.783a2.884 2.884 0 0 0 .008-1.827 2.144 2.144 0 0 0-.432-.756 2.005 2.005 0 0 0-.693-.504c-.27-.12-.573-.18-.91-.18-.455 0-.827.08-1.115.243-.288.163-.558.418-.81.766h-2.304L22.638 19h7.038v2.106h-5.202z" class="st1"/></svg>