<?xml version="1.0" encoding="UTF-8" standalone="no"?>
<svg width="51px" height="51px" viewBox="0 0 51 51" version="1.1" xmlns="http://www.w3.org/2000/svg" xmlns:xlink="http://www.w3.org/1999/xlink">
    <g stroke="none" stroke-width="1" fill="none" fill-rule="evenodd">
        <g class="st1">
            <path d="M24.474,21.106 L23.97,23.968 L24.006,24.004 C24.354,23.656 24.726,23.407 25.122,23.257 C25.518,23.107 25.968,23.032 26.472,23.032 C27.096,23.032 27.648,23.146 28.128,23.374 C28.608,23.602 29.013,23.908 29.343,24.292 C29.673,24.676 29.925,25.129 30.099,25.651 C30.273,26.173 30.361,26.729 30.361,27.316 C30.361,27.964 30.235,28.567 29.983,29.125 C29.731,29.683 29.391,30.166 28.965,30.574 C28.539,30.983 28.044,31.3 27.481,31.528 C26.916,31.756 26.317,31.864 25.68,31.852 C25.069,31.852 24.484,31.768 23.925,31.6 C23.367,31.432 22.872,31.18 22.44,30.844 C22.008,30.508 21.663,30.091 21.405,29.593 C21.147,29.095 21.012,28.516 21,27.856 L23.556,27.856 C23.616,28.42 23.835,28.876 24.213,29.224 C24.591,29.572 25.062,29.746 25.626,29.746 C25.962,29.746 26.262,29.68 26.527,29.548 C26.79,29.416 27.018,29.237 27.21,29.008 C27.402,28.78 27.549,28.519 27.652,28.225 C27.753,27.931 27.804,27.628 27.804,27.316 C27.804,26.992 27.756,26.686 27.66,26.398 C27.564,26.11 27.42,25.858 27.228,25.642 C27.036,25.426 26.805,25.258 26.535,25.138 C26.265,25.018 25.962,24.958 25.626,24.958 C25.17,24.958 24.798,25.039 24.51,25.201 C24.222,25.363 23.952,25.618 23.7,25.966 L21.396,25.966 L22.638,19 L29.676,19 L29.676,21.106 L24.474,21.106 Z"></path>
        </g>
    </g>
</svg>