<svg xmlns="http://www.w3.org/2000/svg" width="51" height="51" viewBox="0 0 51 51"><path fill="none" fill-rule="evenodd" d="M25.663 24.346c.312-.023.603-.092.873-.207.27-.115.492-.28.666-.496.174-.216.26-.504.26-.863 0-.54-.18-.954-.54-1.242a1.932 1.932 0 0 0-1.24-.432c-.65 0-1.138.214-1.468.64-.33.426-.49.962-.477 1.61h-2.43c.024-.648.14-1.24.35-1.773.21-.533.505-.992.883-1.377a3.92 3.92 0 0 1 1.36-.89A4.755 4.755 0 0 1 25.662 19c.504 0 1.008.075 1.512.225.504.15.957.375 1.36.675.4.3.728.666.98 1.098.252.432.378.93.378 1.494 0 .6-.147 1.137-.44 1.61-.295.475-.736.796-1.324.964.695.193 1.24.53 1.637 1.053.396.52.594 1.136.594 1.844 0 .66-.128 1.248-.386 1.764a3.853 3.853 0 0 1-1.035 1.296c-.433.348-.93.615-1.495.8a5.596 5.596 0 0 1-1.764.28 5.818 5.818 0 0 1-1.934-.306 3.997 3.997 0 0 1-1.485-.9 4.027 4.027 0 0 1-.944-1.448c-.222-.57-.327-1.216-.315-1.936h2.43c.013.348.067.672.163.972.096.3.234.56.414.783.18.22.405.398.675.53s.59.198.963.198c.576 0 1.062-.18 1.458-.54.396-.36.594-.84.594-1.44 0-.48-.093-.846-.28-1.098a1.607 1.607 0 0 0-.71-.55 3.004 3.004 0 0 0-.945-.197c-.342-.017-.67-.027-.98-.027v-1.8c.275.024.57.024.88 0z" class="st1"/></svg>