<svg xmlns="http://www.w3.org/2000/svg" width="51" height="51" viewBox="0 0 51 51"><g fill="none" fill-rule="evenodd" class="st1"><path d="M25.386 26.072c0-1.224.123-2.253.37-3.087.245-.834.578-1.503.998-2.007.42-.504.91-.864 1.467-1.08a4.868 4.868 0 0 1 1.774-.324 4.94 4.94 0 0 1 1.782.324c.564.216 1.06.576 1.485 1.08.427.504.763 1.173 1.01 2.007.245.834.368 1.863.368 3.087 0 1.26-.123 2.31-.37 3.15-.245.84-.58 1.518-1.007 2.034-.425.516-.92.882-1.484 1.098a4.94 4.94 0 0 1-1.782.324 4.868 4.868 0 0 1-1.773-.324c-.557-.216-1.046-.582-1.466-1.098-.42-.516-.753-1.193-1-2.034-.245-.84-.368-1.89-.368-3.15zm2.556 0c0 .36.012.795.037 1.305.022.51.097 1.002.223 1.476s.327.88.603 1.215c.276.336.672.504 1.188.504.516 0 .918-.168 1.206-.504.288-.336.495-.74.62-1.215.127-.474.2-.965.226-1.476a28.403 28.403 0 0 0 .027-2.088 8.933 8.933 0 0 0-.252-1.91 2.945 2.945 0 0 0-.35-.854 1.94 1.94 0 0 0-.594-.612c-.24-.156-.534-.234-.882-.234a1.55 1.55 0 0 0-.864.234c-.24.156-.435.36-.585.612-.15.252-.267.537-.35.855-.085.32-.145.64-.18.964-.036.324-.058.64-.064.945-.005.305-.008.566-.008.782zM19.5 32.426v-8.172h-3.168v-1.926c.443.012.873-.02 1.287-.1a3.466 3.466 0 0 0 1.124-.413 2.63 2.63 0 0 0 .837-.783c.223-.324.37-.726.44-1.206h2.036v12.6H19.5z"/></g></svg>